G04 Layer_Physical_Order=2*
G04 Layer_Color=16711680*
%FSLAX24Y24*%
%MOIN*%
G70*
G01*
G75*
%ADD17C,0.0150*%
%ADD18C,0.0120*%
%ADD19R,0.0680X0.0680*%
%ADD20C,0.0680*%
%ADD21C,0.0500*%
G36*
X13250Y250D02*
X250D01*
Y735D01*
X310Y810D01*
X350Y810D01*
X675D01*
Y1250D01*
Y1690D01*
X350D01*
X310Y1690D01*
X250Y1765D01*
Y2046D01*
X350Y2066D01*
X366Y2028D01*
X436Y1936D01*
X528Y1866D01*
X635Y1821D01*
X750Y1806D01*
X865Y1821D01*
X972Y1866D01*
X1064Y1936D01*
X1134Y2028D01*
X1179Y2135D01*
X1194Y2250D01*
X1179Y2365D01*
X1134Y2472D01*
X1064Y2564D01*
X972Y2634D01*
X865Y2679D01*
X750Y2694D01*
X635Y2679D01*
X528Y2634D01*
X436Y2564D01*
X366Y2472D01*
X350Y2434D01*
X250Y2454D01*
Y3046D01*
X350Y3066D01*
X366Y3028D01*
X436Y2936D01*
X528Y2866D01*
X635Y2821D01*
X750Y2806D01*
X865Y2821D01*
X972Y2866D01*
X1064Y2936D01*
X1134Y3028D01*
X1179Y3135D01*
X1194Y3250D01*
X1179Y3365D01*
X1134Y3472D01*
X1064Y3564D01*
X972Y3634D01*
X865Y3679D01*
X750Y3694D01*
X635Y3679D01*
X528Y3634D01*
X436Y3564D01*
X366Y3472D01*
X350Y3434D01*
X250Y3454D01*
Y4046D01*
X350Y4066D01*
X366Y4028D01*
X436Y3936D01*
X528Y3866D01*
X635Y3821D01*
X675Y3816D01*
Y4250D01*
Y4684D01*
X635Y4679D01*
X528Y4634D01*
X436Y4564D01*
X366Y4472D01*
X350Y4434D01*
X250Y4454D01*
Y6046D01*
X350Y6066D01*
X366Y6028D01*
X436Y5936D01*
X528Y5866D01*
X635Y5821D01*
X675Y5816D01*
Y6250D01*
Y6684D01*
X635Y6679D01*
X528Y6634D01*
X436Y6564D01*
X366Y6472D01*
X350Y6434D01*
X250Y6454D01*
Y6735D01*
X310Y6810D01*
X350Y6810D01*
X1190D01*
Y7690D01*
X350D01*
X310Y7690D01*
X250Y7765D01*
Y8250D01*
X13250D01*
Y250D01*
D02*
G37*
%LPC*%
G36*
X825Y6684D02*
Y6325D01*
X1184D01*
X1179Y6365D01*
X1134Y6472D01*
X1064Y6564D01*
X972Y6634D01*
X865Y6679D01*
X825Y6684D01*
D02*
G37*
G36*
X1184Y6175D02*
X825D01*
Y5816D01*
X865Y5821D01*
X972Y5866D01*
X1064Y5936D01*
X1134Y6028D01*
X1179Y6135D01*
X1184Y6175D01*
D02*
G37*
G36*
X5025Y5893D02*
Y5625D01*
X5293D01*
X5291Y5641D01*
X5256Y5727D01*
X5200Y5800D01*
X5127Y5856D01*
X5041Y5891D01*
X5025Y5893D01*
D02*
G37*
G36*
X4350Y8053D02*
X4259Y8041D01*
X4173Y8006D01*
X4100Y7950D01*
X4044Y7877D01*
X4009Y7791D01*
X3997Y7700D01*
X4009Y7609D01*
X4044Y7523D01*
X4100Y7450D01*
X4173Y7394D01*
X4187Y7389D01*
Y6311D01*
X4173Y6306D01*
X4100Y6250D01*
X4044Y6177D01*
X4009Y6091D01*
X3997Y6000D01*
X4009Y5909D01*
X4044Y5823D01*
X4100Y5750D01*
X4173Y5694D01*
X4259Y5659D01*
X4350Y5647D01*
X4441Y5659D01*
X4522Y5692D01*
X4551Y5679D01*
X4578Y5661D01*
X4608Y5630D01*
X4607Y5625D01*
X4875D01*
Y5893D01*
X4859Y5891D01*
X4778Y5858D01*
X4749Y5871D01*
X4722Y5889D01*
X4692Y5920D01*
X4703Y6000D01*
X4691Y6091D01*
X4656Y6177D01*
X4600Y6250D01*
X4527Y6306D01*
X4513Y6311D01*
Y7389D01*
X4527Y7394D01*
X4600Y7450D01*
X4656Y7523D01*
X4691Y7609D01*
X4703Y7700D01*
X4691Y7791D01*
X4656Y7877D01*
X4600Y7950D01*
X4527Y8006D01*
X4441Y8041D01*
X4350Y8053D01*
D02*
G37*
G36*
X5293Y5475D02*
X5025D01*
Y5207D01*
X5041Y5209D01*
X5127Y5244D01*
X5200Y5300D01*
X5256Y5373D01*
X5291Y5459D01*
X5293Y5475D01*
D02*
G37*
G36*
X4875D02*
X4607D01*
X4609Y5459D01*
X4644Y5373D01*
X4700Y5300D01*
X4773Y5244D01*
X4859Y5209D01*
X4875Y5207D01*
Y5475D01*
D02*
G37*
G36*
X7000Y5353D02*
X6909Y5341D01*
X6823Y5306D01*
X6750Y5250D01*
X6694Y5177D01*
X6689Y5163D01*
X6461D01*
X6456Y5177D01*
X6400Y5250D01*
X6327Y5306D01*
X6241Y5341D01*
X6150Y5353D01*
X6059Y5341D01*
X5973Y5306D01*
X5900Y5250D01*
X5844Y5177D01*
X5809Y5091D01*
X5797Y5000D01*
X5809Y4909D01*
X5844Y4823D01*
X5900Y4750D01*
X5973Y4694D01*
X6059Y4659D01*
X6150Y4647D01*
X6241Y4659D01*
X6327Y4694D01*
X6400Y4750D01*
X6456Y4823D01*
X6461Y4837D01*
X6689D01*
X6694Y4823D01*
X6750Y4750D01*
X6823Y4694D01*
X6909Y4659D01*
X7000Y4647D01*
X7091Y4659D01*
X7177Y4694D01*
X7250Y4750D01*
X7306Y4823D01*
X7341Y4909D01*
X7353Y5000D01*
X7341Y5091D01*
X7306Y5177D01*
X7250Y5250D01*
X7177Y5306D01*
X7091Y5341D01*
X7000Y5353D01*
D02*
G37*
G36*
X825Y4684D02*
Y4325D01*
X1184D01*
X1179Y4365D01*
X1134Y4472D01*
X1064Y4564D01*
X972Y4634D01*
X865Y4679D01*
X825Y4684D01*
D02*
G37*
G36*
X1184Y4175D02*
X825D01*
Y3816D01*
X865Y3821D01*
X972Y3866D01*
X1064Y3936D01*
X1134Y4028D01*
X1179Y4135D01*
X1184Y4175D01*
D02*
G37*
G36*
X6600Y2603D02*
X6509Y2591D01*
X6423Y2556D01*
X6350Y2500D01*
X6294Y2427D01*
X6293Y2423D01*
X5057D01*
X5056Y2427D01*
X5000Y2500D01*
X4927Y2556D01*
X4841Y2591D01*
X4750Y2603D01*
X4659Y2591D01*
X4573Y2556D01*
X4500Y2500D01*
X4444Y2427D01*
X4409Y2341D01*
X4397Y2250D01*
X4409Y2159D01*
X4419Y2133D01*
X4418Y2128D01*
X4375Y2079D01*
Y1775D01*
X4643D01*
X4641Y1791D01*
X4631Y1817D01*
X4632Y1822D01*
X4703Y1903D01*
X4750Y1897D01*
X4841Y1909D01*
X4927Y1944D01*
X4967Y1975D01*
X4999Y1963D01*
X5056Y1917D01*
X5047Y1850D01*
X5059Y1759D01*
X5094Y1673D01*
X5150Y1600D01*
X5223Y1544D01*
X5309Y1509D01*
X5400Y1497D01*
X5491Y1509D01*
X5577Y1544D01*
X5648Y1599D01*
X6024Y1224D01*
X6024Y1224D01*
X6082Y1185D01*
X6150Y1172D01*
X6150Y1172D01*
X9326D01*
X9659Y839D01*
X9647Y750D01*
X9659Y659D01*
X9694Y573D01*
X9750Y500D01*
X9823Y444D01*
X9909Y409D01*
X10000Y397D01*
X10091Y409D01*
X10177Y444D01*
X10250Y500D01*
X10306Y573D01*
X10341Y659D01*
X10353Y750D01*
X10341Y841D01*
X10306Y927D01*
X10250Y1000D01*
X10177Y1056D01*
X10091Y1091D01*
X10000Y1103D01*
X9911Y1091D01*
X9526Y1476D01*
X9468Y1515D01*
X9400Y1528D01*
X7915D01*
X7906Y1538D01*
X7871Y1628D01*
X7906Y1673D01*
X7941Y1759D01*
X7943Y1775D01*
X7257D01*
X7259Y1759D01*
X7294Y1673D01*
X7329Y1628D01*
X7294Y1538D01*
X7285Y1528D01*
X6224D01*
X5776Y1976D01*
X5745Y1997D01*
X5776Y2097D01*
X6285D01*
X6294Y2073D01*
X6350Y2000D01*
X6423Y1944D01*
X6509Y1909D01*
X6600Y1897D01*
X6691Y1909D01*
X6777Y1944D01*
X6850Y2000D01*
X6906Y2073D01*
X6941Y2159D01*
X6953Y2250D01*
X6941Y2341D01*
X6906Y2427D01*
X6850Y2500D01*
X6777Y2556D01*
X6691Y2591D01*
X6600Y2603D01*
D02*
G37*
G36*
X7675Y2193D02*
Y1925D01*
X7943D01*
X7941Y1941D01*
X7906Y2027D01*
X7850Y2100D01*
X7777Y2156D01*
X7691Y2191D01*
X7675Y2193D01*
D02*
G37*
G36*
X7525D02*
X7509Y2191D01*
X7423Y2156D01*
X7350Y2100D01*
X7294Y2027D01*
X7259Y1941D01*
X7257Y1925D01*
X7525D01*
Y2193D01*
D02*
G37*
G36*
X4225Y2043D02*
X4209Y2041D01*
X4123Y2006D01*
X4050Y1950D01*
X3994Y1877D01*
X3959Y1791D01*
X3957Y1775D01*
X4225D01*
Y2043D01*
D02*
G37*
G36*
X4643Y1625D02*
X4375D01*
Y1357D01*
X4391Y1359D01*
X4477Y1394D01*
X4550Y1450D01*
X4606Y1523D01*
X4641Y1609D01*
X4643Y1625D01*
D02*
G37*
G36*
X4225D02*
X3957D01*
X3959Y1609D01*
X3994Y1523D01*
X4050Y1450D01*
X4123Y1394D01*
X4209Y1359D01*
X4225Y1357D01*
Y1625D01*
D02*
G37*
G36*
X825Y1690D02*
Y1325D01*
X1190D01*
Y1690D01*
X825D01*
D02*
G37*
G36*
X1190Y1175D02*
X825D01*
Y810D01*
X1190D01*
Y1175D01*
D02*
G37*
%LPD*%
D17*
X6150Y1350D02*
X9400D01*
X10000Y750D01*
X5650Y1850D02*
X6150Y1350D01*
X5400Y1850D02*
X5650D01*
D18*
X6150Y5000D02*
X7000D01*
X4350Y6000D02*
Y7700D01*
X7600Y1850D02*
Y1900D01*
X4750Y2250D02*
X4760Y2260D01*
X6590D01*
X6600Y2250D01*
X4250Y1750D02*
X4300Y1700D01*
D19*
X750Y7250D02*
D03*
Y1250D02*
D03*
D20*
Y6250D02*
D03*
Y4250D02*
D03*
Y3250D02*
D03*
Y2250D02*
D03*
D21*
X10000Y750D02*
D03*
X6150Y5000D02*
D03*
X7000D02*
D03*
X4350Y6000D02*
D03*
Y7700D02*
D03*
X4950Y5550D02*
D03*
X7600Y1850D02*
D03*
X5400D02*
D03*
X4750Y2250D02*
D03*
X6600D02*
D03*
X4300Y1700D02*
D03*
M02*
