G04 Layer_Color=8388736*
%FSLAX24Y24*%
%MOIN*%
G70*
G01*
G75*
%ADD26R,0.0493X0.0611*%
%ADD27R,0.0414X0.0572*%
%ADD28R,0.0260X0.0620*%
%ADD29R,0.0197X0.0434*%
%ADD30R,0.0650X0.0276*%
%ADD31R,0.0749X0.0512*%
%ADD32R,0.0720X0.0720*%
%ADD33C,0.0720*%
D26*
X6565Y1250D02*
D03*
X5935D02*
D03*
X3815Y6250D02*
D03*
X3185D02*
D03*
X8685D02*
D03*
X9315D02*
D03*
X9315Y5250D02*
D03*
X8685D02*
D03*
X3185Y3250D02*
D03*
X3815D02*
D03*
D27*
X3864Y7250D02*
D03*
X3136D02*
D03*
X3864Y5250D02*
D03*
X3136D02*
D03*
Y4250D02*
D03*
X3864D02*
D03*
X3136Y2250D02*
D03*
X3864D02*
D03*
X3136Y1250D02*
D03*
X3864D02*
D03*
X9364Y4250D02*
D03*
X8636D02*
D03*
X6614Y7250D02*
D03*
X5886D02*
D03*
X9364D02*
D03*
X8636D02*
D03*
Y3250D02*
D03*
X9364D02*
D03*
X5886Y6250D02*
D03*
X6614D02*
D03*
D28*
X9324Y830D02*
D03*
X8576D02*
D03*
Y1770D02*
D03*
X8950D02*
D03*
X9324D02*
D03*
D29*
X5878Y2673D02*
D03*
X6134D02*
D03*
X5622D02*
D03*
X5366D02*
D03*
Y4327D02*
D03*
X5622D02*
D03*
X6134D02*
D03*
X5878D02*
D03*
D30*
X11000Y2681D02*
D03*
Y2287D02*
D03*
Y1894D02*
D03*
Y1500D02*
D03*
Y6969D02*
D03*
Y6575D02*
D03*
Y6181D02*
D03*
Y5787D02*
D03*
Y5394D02*
D03*
Y5000D02*
D03*
D31*
X12526Y988D02*
D03*
Y3193D02*
D03*
Y4488D02*
D03*
Y7480D02*
D03*
D32*
X750Y7250D02*
D03*
Y1250D02*
D03*
D33*
Y6250D02*
D03*
Y4250D02*
D03*
Y3250D02*
D03*
Y2250D02*
D03*
M02*
