G04 Layer_Color=32896*
%FSLAX24Y24*%
%MOIN*%
G70*
G01*
G75*
%ADD23C,0.0100*%
D23*
X1500Y6000D02*
Y7500D01*
Y1000D02*
Y4500D01*
X12900Y7010D02*
Y7343D01*
X12733Y7510D01*
X12567Y7343D01*
Y7010D01*
Y7260D01*
X12900D01*
X12067Y7343D02*
X12317D01*
X12400Y7260D01*
Y7093D01*
X12317Y7010D01*
X12067D01*
X11817Y7426D02*
Y7343D01*
X11900D01*
X11734D01*
X11817D01*
Y7093D01*
X11734Y7010D01*
X11484D02*
X11317D01*
X11400D01*
Y7343D01*
X11484D01*
X11067D02*
X10901Y7010D01*
X10734Y7343D01*
X10317Y7010D02*
X10484D01*
X10567Y7093D01*
Y7260D01*
X10484Y7343D01*
X10317D01*
X10234Y7260D01*
Y7176D01*
X10567D01*
X9568Y7510D02*
Y7010D01*
X9318D01*
X9235Y7093D01*
Y7176D01*
X9318Y7260D01*
X9568D01*
X9318D01*
X9235Y7343D01*
Y7426D01*
X9318Y7510D01*
X9568D01*
X8985Y7343D02*
X8818D01*
X8735Y7260D01*
Y7010D01*
X8985D01*
X9068Y7093D01*
X8985Y7176D01*
X8735D01*
X8568Y7343D02*
X8235Y7010D01*
X8401Y7176D01*
X8235Y7343D01*
X8568Y7010D01*
X7985Y7343D02*
X7818D01*
X7735Y7260D01*
Y7010D01*
X7985D01*
X8068Y7093D01*
X7985Y7176D01*
X7735D01*
X7568Y7010D02*
Y7343D01*
X7318D01*
X7235Y7260D01*
Y7010D01*
X6735Y7510D02*
Y7010D01*
X6985D01*
X7069Y7093D01*
Y7260D01*
X6985Y7343D01*
X6735D01*
X6485D02*
X6319D01*
X6235Y7260D01*
Y7010D01*
X6485D01*
X6569Y7093D01*
X6485Y7176D01*
X6235D01*
X6069Y7010D02*
X5902D01*
X5986D01*
Y7510D01*
X6069D01*
X5652Y7010D02*
X5486D01*
X5569D01*
Y7510D01*
X5652D01*
X12900Y6670D02*
X12567D01*
X12733D01*
Y6170D01*
X12317D02*
X12150D01*
X12067Y6253D01*
Y6420D01*
X12150Y6503D01*
X12317D01*
X12400Y6420D01*
Y6253D01*
X12317Y6170D01*
X11900D02*
Y6503D01*
X11650D01*
X11567Y6420D01*
Y6170D01*
X11151D02*
X11317D01*
X11400Y6253D01*
Y6420D01*
X11317Y6503D01*
X11151D01*
X11067Y6420D01*
Y6337D01*
X11400D01*
X10068Y6586D02*
X10151Y6670D01*
X10317D01*
X10401Y6586D01*
Y6503D01*
X10317Y6420D01*
X10151D01*
X10068Y6337D01*
Y6253D01*
X10151Y6170D01*
X10317D01*
X10401Y6253D01*
X9818Y6586D02*
Y6503D01*
X9901D01*
X9734D01*
X9818D01*
Y6253D01*
X9734Y6170D01*
X9401Y6503D02*
X9235D01*
X9151Y6420D01*
Y6170D01*
X9401D01*
X9484Y6253D01*
X9401Y6337D01*
X9151D01*
X8651Y6503D02*
X8901D01*
X8985Y6420D01*
Y6253D01*
X8901Y6170D01*
X8651D01*
X8485D02*
Y6670D01*
Y6337D02*
X8235Y6503D01*
X8485Y6337D02*
X8235Y6170D01*
X12900Y4000D02*
Y3917D01*
X12733Y3750D01*
X12567Y3917D01*
Y4000D01*
X12733Y3750D02*
Y3500D01*
X12400D02*
X12234D01*
X12317D01*
Y3833D01*
X12400D01*
X11900Y3500D02*
Y3917D01*
Y3750D01*
X11984D01*
X11817D01*
X11900D01*
Y3917D01*
X11817Y4000D01*
X11317Y3500D02*
X11484D01*
X11567Y3583D01*
Y3750D01*
X11484Y3833D01*
X11317D01*
X11234Y3750D01*
Y3667D01*
X11567D01*
X11067Y3500D02*
X10901D01*
X10984D01*
Y3833D01*
X11067D01*
X10151Y4000D02*
Y3500D01*
X9818D01*
X9651D02*
X9484D01*
X9568D01*
Y3833D01*
X9651D01*
X8401Y3500D02*
X8735D01*
X8401Y3833D01*
Y3917D01*
X8485Y4000D01*
X8651D01*
X8735Y3917D01*
X8235D02*
X8152Y4000D01*
X7985D01*
X7902Y3917D01*
Y3583D01*
X7985Y3500D01*
X8152D01*
X8235Y3583D01*
Y3917D01*
X7735Y3500D02*
X7568D01*
X7652D01*
Y4000D01*
X7735Y3917D01*
X6985Y4000D02*
X7152Y3917D01*
X7318Y3750D01*
Y3583D01*
X7235Y3500D01*
X7069D01*
X6985Y3583D01*
Y3667D01*
X7069Y3750D01*
X7318D01*
X2767Y7417D02*
X2850Y7500D01*
X3017D01*
X3100Y7417D01*
Y7083D01*
X3017Y7000D01*
X2850D01*
X2767Y7083D01*
Y7250D01*
X2933D01*
X2600Y7000D02*
Y7500D01*
X2267Y7000D01*
Y7500D01*
X2100D02*
Y7000D01*
X1850D01*
X1767Y7083D01*
Y7417D01*
X1850Y7500D01*
X2100D01*
X2500Y6500D02*
X2333D01*
X2417D01*
Y6000D01*
X2500D01*
X2333D01*
X2083D02*
Y6333D01*
X1834D01*
X1750Y6250D01*
Y6000D01*
X2600Y2500D02*
Y2167D01*
X2433Y2000D01*
X2267Y2167D01*
Y2500D01*
X2100Y2250D02*
X1767D01*
X1934Y2417D02*
Y2083D01*
X3250Y4500D02*
X3417D01*
X3500Y4417D01*
Y4083D01*
X3417Y4000D01*
X3250D01*
X3167Y4083D01*
Y4417D01*
X3250Y4500D01*
X3000Y4333D02*
Y4083D01*
X2917Y4000D01*
X2667D01*
Y4333D01*
X2417Y4417D02*
Y4333D01*
X2500D01*
X2334D01*
X2417D01*
Y4083D01*
X2334Y4000D01*
X2084Y4250D02*
X1751D01*
X2767Y1417D02*
X2850Y1500D01*
X3017D01*
X3100Y1417D01*
Y1083D01*
X3017Y1000D01*
X2850D01*
X2767Y1083D01*
Y1250D01*
X2933D01*
X2600Y1000D02*
Y1500D01*
X2267Y1000D01*
Y1500D01*
X2100D02*
Y1000D01*
X1850D01*
X1767Y1083D01*
Y1417D01*
X1850Y1500D01*
X2100D01*
X3250Y3500D02*
X3417D01*
X3500Y3417D01*
Y3083D01*
X3417Y3000D01*
X3250D01*
X3167Y3083D01*
Y3417D01*
X3250Y3500D01*
X3000Y3333D02*
Y3083D01*
X2917Y3000D01*
X2667D01*
Y3333D01*
X2417Y3417D02*
Y3333D01*
X2500D01*
X2334D01*
X2417D01*
Y3083D01*
X2334Y3000D01*
X2084Y3250D02*
X1751D01*
X1917Y3417D02*
Y3083D01*
M02*
