G04 Layer_Physical_Order=1*
G04 Layer_Color=255*
%FSLAX24Y24*%
%MOIN*%
G70*
G01*
G75*
%ADD10R,0.0709X0.0472*%
%ADD11R,0.0610X0.0236*%
%ADD12R,0.0220X0.0580*%
%ADD13R,0.0264X0.0354*%
%ADD14O,0.0256X0.0650*%
%ADD15R,0.0276X0.0374*%
%ADD16R,0.0236X0.0394*%
%ADD17C,0.0100*%
%ADD18C,0.0200*%
%ADD19C,0.0680*%
%ADD20R,0.0680X0.0680*%
%ADD21C,0.0300*%
%ADD22C,0.0236*%
G36*
X5590Y7581D02*
X5577Y7566D01*
X5565Y7551D01*
X5554Y7535D01*
X5545Y7519D01*
X5537Y7502D01*
X5531Y7485D01*
X5526Y7467D01*
X5527Y7461D01*
X5532Y7450D01*
X5537Y7441D01*
X5544Y7434D01*
X5551Y7429D01*
X5560Y7426D01*
X5569Y7425D01*
X5520D01*
X5519Y7410D01*
X5419D01*
X5419Y7425D01*
X5369D01*
X5379Y7426D01*
X5387Y7429D01*
X5395Y7434D01*
X5401Y7441D01*
X5407Y7450D01*
X5411Y7461D01*
X5413Y7467D01*
X5408Y7485D01*
X5402Y7502D01*
X5394Y7519D01*
X5385Y7535D01*
X5374Y7551D01*
X5362Y7566D01*
X5349Y7581D01*
X5399Y7672D01*
X5413Y7659D01*
X5427Y7649D01*
X5441Y7642D01*
X5455Y7638D01*
X5469Y7637D01*
X5484Y7638D01*
X5498Y7642D01*
X5512Y7649D01*
X5526Y7659D01*
X5540Y7672D01*
X5590Y7581D01*
D02*
G37*
G36*
X2770Y7501D02*
X2771Y7485D01*
X2773Y7471D01*
X2776Y7459D01*
X2780Y7448D01*
X2785Y7440D01*
X2791Y7433D01*
X2797Y7429D01*
X2805Y7426D01*
X2813Y7425D01*
X2626D01*
X2634Y7426D01*
X2642Y7429D01*
X2648Y7433D01*
X2654Y7440D01*
X2659Y7448D01*
X2663Y7459D01*
X2666Y7471D01*
X2668Y7485D01*
X2669Y7501D01*
X2669Y7519D01*
X2769D01*
X2770Y7501D01*
D02*
G37*
G36*
X8066Y7475D02*
X8106Y7441D01*
X8123Y7429D01*
X8138Y7420D01*
X8151Y7414D01*
X8162Y7412D01*
X8172Y7413D01*
X8179Y7417D01*
X8185Y7425D01*
X8090Y7239D01*
X8094Y7249D01*
X8095Y7260D01*
X8093Y7271D01*
X8090Y7284D01*
X8084Y7298D01*
X8075Y7312D01*
X8065Y7328D01*
X8051Y7344D01*
X8036Y7362D01*
X8018Y7381D01*
X8044Y7497D01*
X8066Y7475D01*
D02*
G37*
G36*
X8912Y7340D02*
X8915Y7332D01*
X8920Y7325D01*
X8927Y7318D01*
X8936Y7312D01*
X8947Y7308D01*
X8960Y7304D01*
X8975Y7302D01*
X8992Y7301D01*
X9011Y7300D01*
Y7200D01*
X8992Y7200D01*
X8975Y7198D01*
X8960Y7196D01*
X8947Y7192D01*
X8936Y7188D01*
X8927Y7182D01*
X8920Y7175D01*
X8915Y7168D01*
X8912Y7160D01*
X8911Y7150D01*
Y7350D01*
X8912Y7340D01*
D02*
G37*
G36*
X6162D02*
X6165Y7332D01*
X6170Y7325D01*
X6177Y7318D01*
X6186Y7312D01*
X6197Y7308D01*
X6210Y7304D01*
X6225Y7302D01*
X6242Y7301D01*
X6261Y7300D01*
Y7200D01*
X6242Y7200D01*
X6225Y7198D01*
X6210Y7196D01*
X6197Y7192D01*
X6186Y7188D01*
X6177Y7182D01*
X6170Y7175D01*
X6165Y7168D01*
X6162Y7160D01*
X6161Y7150D01*
Y7350D01*
X6162Y7340D01*
D02*
G37*
G36*
X3411D02*
X3414Y7332D01*
X3419Y7325D01*
X3426Y7318D01*
X3435Y7312D01*
X3446Y7308D01*
X3460Y7304D01*
X3475Y7302D01*
X3492Y7301D01*
X3511Y7300D01*
Y7200D01*
X3492Y7200D01*
X3475Y7198D01*
X3460Y7196D01*
X3446Y7192D01*
X3435Y7188D01*
X3426Y7182D01*
X3419Y7175D01*
X3414Y7168D01*
X3411Y7160D01*
X3410Y7150D01*
Y7350D01*
X3411Y7340D01*
D02*
G37*
G36*
X2810Y7074D02*
X2801Y7071D01*
X2794Y7066D01*
X2787Y7059D01*
X2782Y7050D01*
X2777Y7039D01*
X2774Y7026D01*
X2771Y7010D01*
X2770Y6993D01*
X2769Y6974D01*
X2669D01*
X2669Y6993D01*
X2667Y7010D01*
X2665Y7026D01*
X2661Y7039D01*
X2657Y7050D01*
X2651Y7059D01*
X2645Y7066D01*
X2637Y7071D01*
X2629Y7074D01*
X2619Y7075D01*
X2819D01*
X2810Y7074D01*
D02*
G37*
G36*
X9243Y6745D02*
X9232Y6755D01*
X9221Y6765D01*
X9209Y6773D01*
X9197Y6780D01*
X9185Y6786D01*
X9172Y6791D01*
X9159Y6795D01*
X9146Y6798D01*
X9132Y6799D01*
X9119Y6800D01*
Y6900D01*
X9132Y6901D01*
X9146Y6902D01*
X9159Y6905D01*
X9172Y6909D01*
X9185Y6914D01*
X9197Y6920D01*
X9209Y6927D01*
X9221Y6935D01*
X9232Y6945D01*
X9243Y6955D01*
Y6745D01*
D02*
G37*
G36*
X2770Y6767D02*
X2771Y6749D01*
X2774Y6734D01*
X2777Y6721D01*
X2782Y6710D01*
X2787Y6701D01*
X2794Y6694D01*
X2801Y6689D01*
X2810Y6686D01*
X2819Y6685D01*
X2619D01*
X2629Y6686D01*
X2637Y6689D01*
X2645Y6694D01*
X2651Y6701D01*
X2657Y6710D01*
X2661Y6721D01*
X2665Y6734D01*
X2667Y6749D01*
X2669Y6767D01*
X2669Y6786D01*
X2769D01*
X2770Y6767D01*
D02*
G37*
G36*
X8417Y6637D02*
X8399Y6618D01*
X8371Y6584D01*
X8361Y6569D01*
X8352Y6554D01*
X8346Y6541D01*
X8343Y6528D01*
X8342Y6516D01*
X8343Y6505D01*
X8346Y6495D01*
X8254Y6686D01*
X8260Y6678D01*
X8267Y6673D01*
X8276Y6672D01*
X8288Y6674D01*
X8301Y6680D01*
X8316Y6688D01*
X8333Y6700D01*
X8352Y6716D01*
X8395Y6757D01*
X8417Y6637D01*
D02*
G37*
G36*
X10197Y6618D02*
X10196Y6628D01*
X10193Y6636D01*
X10188Y6644D01*
X10181Y6651D01*
X10172Y6656D01*
X10161Y6661D01*
X10148Y6664D01*
X10133Y6666D01*
X10115Y6668D01*
X10096Y6668D01*
Y6769D01*
X10115Y6769D01*
X10133Y6770D01*
X10148Y6773D01*
X10161Y6776D01*
X10172Y6781D01*
X10181Y6787D01*
X10188Y6793D01*
X10193Y6801D01*
X10196Y6809D01*
X10197Y6819D01*
Y6618D01*
D02*
G37*
G36*
X8928Y6590D02*
X8931Y6582D01*
X8936Y6575D01*
X8943Y6568D01*
X8952Y6562D01*
X8963Y6558D01*
X8976Y6554D01*
X8991Y6552D01*
X9008Y6550D01*
X9027Y6550D01*
Y6450D01*
X9008Y6449D01*
X8991Y6448D01*
X8976Y6446D01*
X8963Y6442D01*
X8952Y6438D01*
X8943Y6432D01*
X8936Y6425D01*
X8931Y6418D01*
X8928Y6410D01*
X8927Y6400D01*
Y6600D01*
X8928Y6590D01*
D02*
G37*
G36*
X8074Y6400D02*
X8073Y6410D01*
X8070Y6418D01*
X8065Y6425D01*
X8058Y6432D01*
X8049Y6438D01*
X8038Y6442D01*
X8025Y6446D01*
X8009Y6448D01*
X7992Y6449D01*
X7973Y6450D01*
Y6550D01*
X7992Y6550D01*
X8009Y6552D01*
X8025Y6554D01*
X8038Y6558D01*
X8049Y6562D01*
X8058Y6568D01*
X8065Y6575D01*
X8070Y6582D01*
X8073Y6590D01*
X8074Y6600D01*
Y6400D01*
D02*
G37*
G36*
X6161Y6590D02*
X6164Y6582D01*
X6169Y6575D01*
X6176Y6568D01*
X6185Y6562D01*
X6196Y6558D01*
X6210Y6554D01*
X6225Y6552D01*
X6242Y6550D01*
X6261Y6550D01*
Y6450D01*
X6242Y6449D01*
X6225Y6448D01*
X6210Y6446D01*
X6196Y6442D01*
X6185Y6438D01*
X6176Y6432D01*
X6169Y6425D01*
X6164Y6418D01*
X6161Y6410D01*
X6160Y6400D01*
Y6600D01*
X6161Y6590D01*
D02*
G37*
G36*
X3356Y6315D02*
X3345Y6318D01*
X3334Y6319D01*
X3322Y6317D01*
X3309Y6313D01*
X3295Y6307D01*
X3281Y6299D01*
X3265Y6288D01*
X3249Y6276D01*
X3232Y6261D01*
X3214Y6243D01*
X3083Y6254D01*
X3106Y6277D01*
X3141Y6318D01*
X3153Y6335D01*
X3162Y6350D01*
X3167Y6363D01*
X3169Y6374D01*
X3168Y6383D01*
X3163Y6390D01*
X3155Y6395D01*
X3356Y6315D01*
D02*
G37*
G36*
X2467Y7800D02*
X2472Y7700D01*
X2472Y7700D01*
X2472Y7700D01*
Y6303D01*
X1663D01*
X1190Y6776D01*
Y7440D01*
X310D01*
Y6560D01*
X974D01*
X1492Y6042D01*
X1541Y6009D01*
X1600Y5997D01*
X2488D01*
Y5875D01*
X2719D01*
Y5800D01*
X2794D01*
Y5523D01*
X2850D01*
Y5327D01*
X2488D01*
Y5034D01*
X1251Y3797D01*
X1166Y3854D01*
X1179Y3885D01*
X1184Y3925D01*
X825D01*
Y3566D01*
X865Y3571D01*
X896Y3584D01*
X953Y3499D01*
X877Y3424D01*
X865Y3429D01*
X750Y3444D01*
X635Y3429D01*
X528Y3384D01*
X436Y3314D01*
X366Y3222D01*
X321Y3115D01*
X306Y3000D01*
X321Y2885D01*
X366Y2778D01*
X436Y2686D01*
X528Y2616D01*
X635Y2571D01*
X750Y2556D01*
X865Y2571D01*
X972Y2616D01*
X1064Y2686D01*
X1134Y2778D01*
X1179Y2885D01*
X1194Y3000D01*
X1179Y3115D01*
X1134Y3222D01*
X1123Y3237D01*
X2379Y4494D01*
X2472Y4455D01*
Y4013D01*
X3528D01*
Y4147D01*
X4287D01*
X4847Y3587D01*
Y3270D01*
X4846Y3260D01*
X4846Y3256D01*
X4836Y3249D01*
X4806Y3204D01*
X4796Y3201D01*
X4704D01*
X4694Y3204D01*
X4664Y3249D01*
X4589Y3299D01*
X4500Y3317D01*
X4411Y3299D01*
X4362Y3266D01*
X4284Y3271D01*
X4242Y3289D01*
X4242Y3289D01*
X4236Y3291D01*
X4231Y3294D01*
X4217Y3297D01*
X4204Y3301D01*
X4198Y3301D01*
X4192Y3302D01*
X3218D01*
X3179Y3294D01*
X3146Y3272D01*
X3144Y3269D01*
X2782D01*
Y3176D01*
X2322D01*
X2244Y3161D01*
X2178Y3117D01*
X1266Y2204D01*
X1142D01*
X1134Y2222D01*
X1064Y2314D01*
X972Y2384D01*
X865Y2429D01*
X750Y2444D01*
X635Y2429D01*
X528Y2384D01*
X436Y2314D01*
X366Y2222D01*
X321Y2115D01*
X306Y2000D01*
X321Y1885D01*
X366Y1778D01*
X436Y1686D01*
X528Y1616D01*
X635Y1571D01*
X750Y1556D01*
X865Y1571D01*
X972Y1616D01*
X1064Y1686D01*
X1134Y1778D01*
X1142Y1796D01*
X1350D01*
X1428Y1812D01*
X1494Y1856D01*
X2407Y2769D01*
X2782D01*
Y2676D01*
X2898D01*
Y2402D01*
X2844Y2324D01*
X2798Y2324D01*
X2701D01*
Y2028D01*
Y1731D01*
X2798D01*
X2844Y1731D01*
X2898Y1653D01*
Y1365D01*
X2863Y1322D01*
X2834Y1296D01*
X2826Y1290D01*
X2826Y1290D01*
X2820Y1287D01*
X2819Y1287D01*
X2785D01*
Y1000D01*
Y713D01*
X2819D01*
X2820Y713D01*
X2826Y710D01*
X2826Y710D01*
X2834Y704D01*
X2863Y678D01*
X2898Y635D01*
Y200D01*
X2798Y200D01*
X200D01*
Y7800D01*
X2467D01*
D02*
G37*
G36*
X5238Y6973D02*
X5701D01*
Y6973D01*
X5799D01*
Y6973D01*
X6262D01*
Y7097D01*
X6937D01*
X7642Y6392D01*
X7691Y6359D01*
X7720Y6353D01*
X7711Y6253D01*
X7463D01*
X7108Y6608D01*
X7059Y6641D01*
X7000Y6653D01*
X6262D01*
Y6777D01*
X5799D01*
Y6777D01*
X5701D01*
Y6777D01*
X5238D01*
Y6359D01*
X5145Y6313D01*
X5138Y6314D01*
X5108Y6358D01*
X4108Y7358D01*
X4059Y7391D01*
X4030Y7397D01*
X4039Y7497D01*
X5238D01*
Y6973D01*
D02*
G37*
G36*
X10197Y6225D02*
X10196Y6234D01*
X10193Y6243D01*
X10188Y6250D01*
X10181Y6257D01*
X10172Y6262D01*
X10161Y6267D01*
X10148Y6270D01*
X10133Y6273D01*
X10115Y6274D01*
X10096Y6275D01*
Y6375D01*
X10115Y6375D01*
X10133Y6377D01*
X10148Y6379D01*
X10161Y6383D01*
X10172Y6387D01*
X10181Y6393D01*
X10188Y6399D01*
X10193Y6407D01*
X10196Y6415D01*
X10197Y6425D01*
Y6225D01*
D02*
G37*
G36*
X5560Y6324D02*
X5551Y6321D01*
X5544Y6316D01*
X5537Y6309D01*
X5532Y6300D01*
X5527Y6289D01*
X5524Y6276D01*
X5521Y6260D01*
X5520Y6243D01*
X5519Y6224D01*
X5419D01*
X5419Y6243D01*
X5417Y6260D01*
X5415Y6276D01*
X5411Y6289D01*
X5407Y6300D01*
X5401Y6309D01*
X5395Y6316D01*
X5387Y6321D01*
X5379Y6324D01*
X5369Y6325D01*
X5569D01*
X5560Y6324D01*
D02*
G37*
G36*
X8881Y6314D02*
X8872Y6311D01*
X8865Y6306D01*
X8858Y6299D01*
X8853Y6290D01*
X8848Y6279D01*
X8845Y6266D01*
X8842Y6251D01*
X8841Y6233D01*
X8840Y6214D01*
X8740D01*
X8740Y6233D01*
X8738Y6251D01*
X8736Y6266D01*
X8732Y6279D01*
X8728Y6290D01*
X8722Y6299D01*
X8716Y6306D01*
X8708Y6311D01*
X8700Y6314D01*
X8690Y6315D01*
X8890D01*
X8881Y6314D01*
D02*
G37*
G36*
X10197Y5850D02*
X10196Y5860D01*
X10193Y5868D01*
X10188Y5875D01*
X10181Y5882D01*
X10172Y5888D01*
X10161Y5892D01*
X10148Y5896D01*
X10132Y5898D01*
X10115Y5900D01*
X10096Y5900D01*
Y6000D01*
X10115Y6000D01*
X10132Y6002D01*
X10147Y6004D01*
X10160Y6008D01*
X10171Y6012D01*
X10180Y6018D01*
X10187Y6024D01*
X10192Y6032D01*
X10195Y6040D01*
X10196Y6050D01*
X10197Y5850D01*
D02*
G37*
G36*
X9468Y6045D02*
X9479Y6035D01*
X9491Y6027D01*
X9503Y6020D01*
X9515Y6014D01*
X9528Y6009D01*
X9541Y6005D01*
X9554Y6002D01*
X9568Y6001D01*
X9581Y6000D01*
Y5900D01*
X9568Y5899D01*
X9554Y5898D01*
X9541Y5895D01*
X9528Y5891D01*
X9515Y5886D01*
X9503Y5880D01*
X9491Y5873D01*
X9479Y5865D01*
X9468Y5855D01*
X9457Y5845D01*
Y6055D01*
X9468Y6045D01*
D02*
G37*
G36*
X4847Y6187D02*
Y5799D01*
X4747Y5789D01*
X4735Y5848D01*
X4680Y5930D01*
X4598Y5985D01*
X4575Y5990D01*
Y5750D01*
X4500D01*
Y5675D01*
X4260D01*
X4265Y5652D01*
X4320Y5570D01*
X4320Y5450D01*
X4285Y5398D01*
X4268Y5309D01*
Y5187D01*
X4500D01*
Y5112D01*
X4575D01*
Y4698D01*
X4589Y4701D01*
X4664Y4751D01*
X4688Y4787D01*
X4788Y4791D01*
X4847Y4720D01*
Y4300D01*
X4859Y4241D01*
X4892Y4192D01*
X5492Y3592D01*
X5541Y3559D01*
X5600Y3547D01*
X8186D01*
X8235Y3475D01*
X8500D01*
Y3325D01*
X8228D01*
X8182Y3260D01*
X7916D01*
Y3084D01*
X7914Y3081D01*
X7873Y3056D01*
X7816Y3040D01*
X7748Y3086D01*
X7725Y3090D01*
Y3095D01*
X7727Y3110D01*
X7717Y3210D01*
X7713Y3224D01*
X7710Y3239D01*
X7707Y3243D01*
X7705Y3248D01*
X7696Y3260D01*
X7688Y3272D01*
X7683Y3275D01*
X7680Y3279D01*
X7667Y3286D01*
X7655Y3294D01*
X7650Y3295D01*
X7645Y3298D01*
X7630Y3299D01*
X7616Y3302D01*
X6308D01*
X6302Y3301D01*
X6296Y3301D01*
X6283Y3297D01*
X6269Y3294D01*
X6264Y3291D01*
X6258Y3289D01*
X6258Y3289D01*
X6216Y3271D01*
X6138Y3266D01*
X6089Y3299D01*
X6000Y3317D01*
X5911Y3299D01*
X5836Y3249D01*
X5806Y3204D01*
X5796Y3201D01*
X5704D01*
X5694Y3204D01*
X5664Y3249D01*
X5589Y3299D01*
X5500Y3317D01*
X5411Y3299D01*
X5336Y3249D01*
X5312Y3213D01*
X5212Y3209D01*
X5153Y3280D01*
Y3650D01*
X5141Y3709D01*
X5108Y3758D01*
X4458Y4408D01*
X4409Y4441D01*
X4350Y4453D01*
X3528D01*
Y4587D01*
Y6213D01*
Y6787D01*
Y7097D01*
X3937D01*
X4847Y6187D01*
D02*
G37*
G36*
X8927Y5840D02*
X8930Y5832D01*
X8935Y5824D01*
X8942Y5818D01*
X8951Y5813D01*
X8962Y5808D01*
X8975Y5804D01*
X8991Y5802D01*
X9008Y5800D01*
X9027Y5800D01*
Y5700D01*
X9008Y5699D01*
X8991Y5698D01*
X8975Y5695D01*
X8962Y5692D01*
X8951Y5688D01*
X8942Y5682D01*
X8935Y5676D01*
X8930Y5668D01*
X8927Y5659D01*
X8926Y5650D01*
Y5850D01*
X8927Y5840D01*
D02*
G37*
G36*
X3371Y5624D02*
X3363Y5621D01*
X3355Y5616D01*
X3349Y5609D01*
X3343Y5600D01*
X3339Y5589D01*
X3335Y5576D01*
X3333Y5560D01*
X3331Y5543D01*
X3331Y5524D01*
X3231D01*
X3230Y5543D01*
X3229Y5560D01*
X3226Y5576D01*
X3223Y5589D01*
X3218Y5600D01*
X3213Y5609D01*
X3206Y5616D01*
X3199Y5621D01*
X3190Y5624D01*
X3181Y5625D01*
X3381D01*
X3371Y5624D01*
D02*
G37*
G36*
X8300Y5564D02*
X8292Y5561D01*
X8284Y5556D01*
X8278Y5549D01*
X8272Y5540D01*
X8268Y5529D01*
X8264Y5516D01*
X8262Y5501D01*
X8260Y5483D01*
X8260Y5464D01*
X8160D01*
X8159Y5483D01*
X8158Y5501D01*
X8155Y5516D01*
X8152Y5529D01*
X8147Y5540D01*
X8142Y5549D01*
X8135Y5556D01*
X8128Y5561D01*
X8119Y5564D01*
X8110Y5565D01*
X8310D01*
X8300Y5564D01*
D02*
G37*
G36*
X10197Y5437D02*
X10196Y5447D01*
X10193Y5455D01*
X10188Y5463D01*
X10181Y5469D01*
X10172Y5475D01*
X10161Y5479D01*
X10148Y5483D01*
X10133Y5485D01*
X10115Y5487D01*
X10096Y5487D01*
Y5587D01*
X10115Y5588D01*
X10133Y5589D01*
X10148Y5592D01*
X10161Y5595D01*
X10172Y5600D01*
X10181Y5605D01*
X10188Y5612D01*
X10193Y5619D01*
X10196Y5628D01*
X10197Y5637D01*
Y5437D01*
D02*
G37*
G36*
X6050Y5499D02*
X6054Y5454D01*
X6058Y5436D01*
X6062Y5421D01*
X6068Y5408D01*
X6074Y5399D01*
X6081Y5392D01*
X6090Y5388D01*
X6099Y5386D01*
X5901D01*
X5910Y5388D01*
X5919Y5392D01*
X5926Y5399D01*
X5932Y5408D01*
X5938Y5421D01*
X5942Y5436D01*
X5946Y5454D01*
X5948Y5475D01*
X5950Y5499D01*
X5950Y5526D01*
X6050D01*
X6050Y5499D01*
D02*
G37*
G36*
X5050D02*
X5054Y5454D01*
X5058Y5436D01*
X5062Y5421D01*
X5068Y5408D01*
X5074Y5399D01*
X5081Y5392D01*
X5090Y5388D01*
X5099Y5386D01*
X4901D01*
X4910Y5388D01*
X4919Y5392D01*
X4926Y5399D01*
X4932Y5408D01*
X4938Y5421D01*
X4942Y5436D01*
X4946Y5454D01*
X4948Y5475D01*
X4950Y5499D01*
X4950Y5526D01*
X5050D01*
X5050Y5499D01*
D02*
G37*
G36*
X4595Y5632D02*
X4585Y5621D01*
X4577Y5609D01*
X4570Y5597D01*
X4564Y5585D01*
X4559Y5572D01*
X4555Y5559D01*
X4552Y5546D01*
X4551Y5532D01*
X4550Y5521D01*
X4550Y5499D01*
X4554Y5454D01*
X4558Y5436D01*
X4562Y5421D01*
X4568Y5408D01*
X4574Y5399D01*
X4581Y5392D01*
X4590Y5388D01*
X4599Y5386D01*
X4401D01*
X4410Y5388D01*
X4419Y5392D01*
X4426Y5399D01*
X4432Y5408D01*
X4438Y5421D01*
X4442Y5436D01*
X4446Y5454D01*
X4448Y5475D01*
X4450Y5499D01*
X4450Y5521D01*
X4449Y5532D01*
X4448Y5546D01*
X4445Y5559D01*
X4441Y5572D01*
X4436Y5585D01*
X4430Y5597D01*
X4423Y5609D01*
X4415Y5621D01*
X4405Y5632D01*
X4395Y5643D01*
X4605D01*
X4595Y5632D01*
D02*
G37*
G36*
X7292Y5992D02*
X7341Y5959D01*
X7400Y5947D01*
X7972D01*
Y5463D01*
X8057D01*
Y5277D01*
X7988D01*
Y5270D01*
X7888Y5229D01*
X7758Y5358D01*
X7709Y5391D01*
X7650Y5403D01*
X7198D01*
X7180Y5430D01*
X7098Y5485D01*
X7000Y5505D01*
X6902Y5485D01*
X6820Y5430D01*
X6765Y5348D01*
X6747Y5261D01*
X6710Y5238D01*
X6650Y5216D01*
X6646Y5220D01*
X6596Y5253D01*
X6538Y5265D01*
X6232D01*
Y5309D01*
X6215Y5398D01*
X6164Y5473D01*
X6155Y5480D01*
X6153Y5498D01*
Y5650D01*
X6141Y5709D01*
X6108Y5758D01*
X5743Y6123D01*
X5785Y6223D01*
X5799D01*
Y6223D01*
X6262D01*
Y6347D01*
X6937D01*
X7292Y5992D01*
D02*
G37*
G36*
X3331Y5307D02*
X3333Y5290D01*
X3335Y5274D01*
X3339Y5261D01*
X3343Y5250D01*
X3349Y5241D01*
X3355Y5234D01*
X3363Y5229D01*
X3371Y5226D01*
X3381Y5225D01*
X3181D01*
X3190Y5226D01*
X3199Y5229D01*
X3206Y5234D01*
X3213Y5241D01*
X3218Y5250D01*
X3223Y5261D01*
X3226Y5274D01*
X3229Y5290D01*
X3230Y5307D01*
X3231Y5326D01*
X3331D01*
X3331Y5307D01*
D02*
G37*
G36*
X8260Y5257D02*
X8262Y5240D01*
X8264Y5224D01*
X8268Y5211D01*
X8272Y5200D01*
X8278Y5191D01*
X8284Y5184D01*
X8292Y5179D01*
X8300Y5176D01*
X8310Y5175D01*
X8110D01*
X8119Y5176D01*
X8128Y5179D01*
X8135Y5184D01*
X8142Y5191D01*
X8147Y5200D01*
X8152Y5211D01*
X8155Y5224D01*
X8158Y5240D01*
X8159Y5257D01*
X8160Y5276D01*
X8260D01*
X8260Y5257D01*
D02*
G37*
G36*
X10197Y5044D02*
X10196Y5053D01*
X10193Y5062D01*
X10188Y5069D01*
X10181Y5076D01*
X10172Y5081D01*
X10161Y5086D01*
X10148Y5089D01*
X10133Y5092D01*
X10115Y5093D01*
X10096Y5094D01*
Y5194D01*
X10115Y5194D01*
X10133Y5196D01*
X10148Y5198D01*
X10161Y5202D01*
X10172Y5206D01*
X10181Y5212D01*
X10188Y5218D01*
X10193Y5226D01*
X10196Y5234D01*
X10197Y5244D01*
Y5044D01*
D02*
G37*
G36*
X6128Y5203D02*
X6131Y5194D01*
X6136Y5187D01*
X6143Y5180D01*
X6152Y5175D01*
X6163Y5170D01*
X6176Y5167D01*
X6191Y5164D01*
X6209Y5163D01*
X6228Y5162D01*
Y5062D01*
X6209Y5062D01*
X6191Y5060D01*
X6176Y5058D01*
X6163Y5054D01*
X6152Y5050D01*
X6143Y5044D01*
X6136Y5038D01*
X6131Y5030D01*
X6128Y5022D01*
X6127Y5012D01*
Y5212D01*
X6128Y5203D01*
D02*
G37*
G36*
X8912Y5091D02*
X8915Y5082D01*
X8920Y5074D01*
X8927Y5068D01*
X8936Y5063D01*
X8947Y5058D01*
X8960Y5055D01*
X8975Y5052D01*
X8992Y5051D01*
X9011Y5050D01*
Y4950D01*
X8992Y4949D01*
X8975Y4948D01*
X8960Y4945D01*
X8947Y4942D01*
X8936Y4938D01*
X8927Y4932D01*
X8920Y4925D01*
X8915Y4918D01*
X8912Y4909D01*
X8911Y4900D01*
Y5100D01*
X8912Y5091D01*
D02*
G37*
G36*
X8090Y4900D02*
X8089Y4909D01*
X8086Y4918D01*
X8081Y4925D01*
X8074Y4932D01*
X8065Y4938D01*
X8054Y4942D01*
X8040Y4945D01*
X8025Y4948D01*
X8008Y4949D01*
X7989Y4950D01*
Y5050D01*
X8008Y5051D01*
X8025Y5052D01*
X8040Y5055D01*
X8054Y5058D01*
X8065Y5063D01*
X8074Y5068D01*
X8081Y5074D01*
X8086Y5082D01*
X8089Y5091D01*
X8090Y5100D01*
Y4900D01*
D02*
G37*
G36*
X5590Y4837D02*
X5581Y4833D01*
X5574Y4826D01*
X5568Y4816D01*
X5562Y4803D01*
X5558Y4788D01*
X5554Y4770D01*
X5552Y4749D01*
X5550Y4725D01*
X5550Y4699D01*
X5450D01*
X5450Y4725D01*
X5446Y4770D01*
X5442Y4788D01*
X5438Y4803D01*
X5432Y4816D01*
X5426Y4826D01*
X5419Y4833D01*
X5410Y4837D01*
X5401Y4838D01*
X5599D01*
X5590Y4837D01*
D02*
G37*
G36*
X5090D02*
X5081Y4833D01*
X5074Y4826D01*
X5068Y4816D01*
X5062Y4803D01*
X5058Y4788D01*
X5054Y4770D01*
X5052Y4749D01*
X5050Y4725D01*
X5050Y4699D01*
X4950D01*
X4950Y4725D01*
X4946Y4770D01*
X4942Y4788D01*
X4938Y4803D01*
X4932Y4816D01*
X4926Y4826D01*
X4919Y4833D01*
X4910Y4837D01*
X4901Y4838D01*
X5099D01*
X5090Y4837D01*
D02*
G37*
G36*
X10197Y4650D02*
X10196Y4660D01*
X10193Y4668D01*
X10188Y4676D01*
X10181Y4682D01*
X10172Y4688D01*
X10161Y4692D01*
X10148Y4696D01*
X10133Y4698D01*
X10115Y4699D01*
X10096Y4700D01*
Y4800D01*
X10115Y4800D01*
X10133Y4802D01*
X10148Y4805D01*
X10161Y4808D01*
X10172Y4812D01*
X10181Y4818D01*
X10188Y4825D01*
X10193Y4832D01*
X10196Y4841D01*
X10197Y4850D01*
Y4650D01*
D02*
G37*
G36*
X12800Y7800D02*
Y200D01*
X9202D01*
Y645D01*
X9202Y646D01*
X9202Y648D01*
X9201Y653D01*
X9206Y703D01*
X9207Y706D01*
X9240Y753D01*
X9247Y761D01*
X9257Y771D01*
X9330Y820D01*
X9385Y902D01*
X9398Y964D01*
X9482Y1012D01*
X9502Y1015D01*
X9502Y1015D01*
X9600Y995D01*
X9698Y1015D01*
X9780Y1070D01*
X9798Y1097D01*
X10095D01*
Y1031D01*
X10905D01*
Y1425D01*
Y1819D01*
Y2212D01*
Y2648D01*
X10153D01*
Y3000D01*
X10141Y3059D01*
X10108Y3108D01*
X9219Y3997D01*
X9227Y4049D01*
X9239Y4073D01*
X9254Y4098D01*
X9309Y4109D01*
X9358Y4142D01*
X9813Y4597D01*
X10095D01*
Y4534D01*
X10905D01*
Y4928D01*
Y5321D01*
Y5715D01*
Y6109D01*
Y6502D01*
Y6939D01*
X10095D01*
Y6939D01*
X10004Y6962D01*
X9608Y7358D01*
X9559Y7391D01*
X9500Y7403D01*
X9012D01*
Y7527D01*
X8551D01*
X8549Y7527D01*
Y7527D01*
X8451D01*
Y7527D01*
X8162D01*
X8140Y7545D01*
X7986Y7700D01*
X8027Y7800D01*
X12800D01*
D02*
G37*
G36*
X2917Y4437D02*
X2899Y4418D01*
X2871Y4384D01*
X2860Y4369D01*
X2852Y4354D01*
X2846Y4340D01*
X2842Y4328D01*
X2841Y4316D01*
X2842Y4305D01*
X2845Y4295D01*
X2754Y4485D01*
X2760Y4477D01*
X2767Y4472D01*
X2776Y4471D01*
X2787Y4474D01*
X2801Y4479D01*
X2816Y4488D01*
X2833Y4500D01*
X2852Y4516D01*
X2895Y4557D01*
X2917Y4437D01*
D02*
G37*
G36*
X3427Y4390D02*
X3430Y4382D01*
X3435Y4374D01*
X3442Y4368D01*
X3451Y4363D01*
X3462Y4358D01*
X3475Y4354D01*
X3491Y4352D01*
X3508Y4351D01*
X3527Y4350D01*
Y4250D01*
X3508Y4250D01*
X3491Y4248D01*
X3475Y4245D01*
X3462Y4242D01*
X3451Y4238D01*
X3442Y4232D01*
X3435Y4225D01*
X3430Y4218D01*
X3427Y4209D01*
X3426Y4200D01*
Y4400D01*
X3427Y4390D01*
D02*
G37*
G36*
X8911Y4340D02*
X8914Y4332D01*
X8919Y4324D01*
X8926Y4318D01*
X8935Y4313D01*
X8946Y4308D01*
X8960Y4304D01*
X8975Y4302D01*
X8992Y4300D01*
X9011Y4300D01*
Y4200D01*
X8992Y4200D01*
X8975Y4198D01*
X8960Y4196D01*
X8946Y4192D01*
X8935Y4187D01*
X8926Y4182D01*
X8919Y4175D01*
X8914Y4168D01*
X8911Y4160D01*
X8910Y4150D01*
Y4350D01*
X8911Y4340D01*
D02*
G37*
G36*
X8089Y4150D02*
X8088Y4160D01*
X8085Y4168D01*
X8080Y4175D01*
X8073Y4182D01*
X8064Y4187D01*
X8053Y4192D01*
X8040Y4196D01*
X8025Y4198D01*
X8008Y4200D01*
X7989Y4200D01*
Y4300D01*
X8008Y4300D01*
X8025Y4302D01*
X8040Y4304D01*
X8053Y4308D01*
X8064Y4313D01*
X8073Y4318D01*
X8080Y4324D01*
X8085Y4332D01*
X8088Y4340D01*
X8089Y4350D01*
Y4150D01*
D02*
G37*
G36*
X8350Y4074D02*
X8350Y4073D01*
X8352Y4071D01*
X8355Y4068D01*
X8382Y4039D01*
X8417Y4003D01*
X8276D01*
X8262Y4017D01*
X8247Y4029D01*
X8233Y4040D01*
X8219Y4049D01*
X8205Y4057D01*
X8191Y4064D01*
X8177Y4069D01*
X8163Y4072D01*
X8149Y4074D01*
X8135Y4075D01*
X8350Y4074D01*
D02*
G37*
G36*
X5347Y4720D02*
Y4650D01*
X5359Y4591D01*
X5392Y4542D01*
X5542Y4392D01*
X5591Y4359D01*
X5650Y4347D01*
X6402D01*
X6420Y4320D01*
X6502Y4265D01*
X6600Y4245D01*
X6698Y4265D01*
X6780Y4320D01*
X6835Y4402D01*
X6845Y4448D01*
X6953Y4481D01*
X7292Y4142D01*
X7341Y4109D01*
X7400Y4097D01*
X7988D01*
Y3973D01*
X8093D01*
X8109Y3950D01*
X8060Y3853D01*
X5663D01*
X5153Y4363D01*
Y4730D01*
X5154Y4740D01*
X5154Y4744D01*
X5164Y4751D01*
X5188Y4787D01*
X5288Y4791D01*
X5347Y4720D01*
D02*
G37*
G36*
X5050Y3275D02*
X5054Y3230D01*
X5058Y3212D01*
X5062Y3197D01*
X5068Y3184D01*
X5074Y3174D01*
X5081Y3167D01*
X5090Y3163D01*
X5099Y3162D01*
X4901D01*
X4910Y3163D01*
X4919Y3167D01*
X4926Y3174D01*
X4932Y3184D01*
X4938Y3197D01*
X4942Y3212D01*
X4946Y3230D01*
X4948Y3251D01*
X4950Y3275D01*
X4950Y3301D01*
X5050D01*
X5050Y3275D01*
D02*
G37*
G36*
X8925Y3240D02*
X8926Y3222D01*
X8929Y3207D01*
X8932Y3194D01*
X8937Y3183D01*
X8942Y3174D01*
X8949Y3167D01*
X8956Y3162D01*
X8965Y3159D01*
X8974Y3158D01*
X8774D01*
X8784Y3159D01*
X8792Y3162D01*
X8800Y3167D01*
X8806Y3174D01*
X8812Y3183D01*
X8816Y3194D01*
X8820Y3207D01*
X8822Y3222D01*
X8824Y3240D01*
X8824Y3259D01*
X8924D01*
X8925Y3240D01*
D02*
G37*
G36*
X8595Y3282D02*
X8585Y3271D01*
X8577Y3259D01*
X8570Y3247D01*
X8564Y3235D01*
X8559Y3222D01*
X8555Y3209D01*
X8554Y3207D01*
X8558Y3194D01*
X8562Y3183D01*
X8568Y3174D01*
X8575Y3167D01*
X8582Y3162D01*
X8590Y3159D01*
X8600Y3158D01*
X8400D01*
X8410Y3159D01*
X8418Y3162D01*
X8425Y3167D01*
X8432Y3174D01*
X8438Y3183D01*
X8442Y3194D01*
X8446Y3207D01*
X8445Y3209D01*
X8441Y3222D01*
X8436Y3235D01*
X8430Y3247D01*
X8423Y3259D01*
X8415Y3271D01*
X8405Y3282D01*
X8395Y3293D01*
X8605D01*
X8595Y3282D01*
D02*
G37*
G36*
X5373Y2788D02*
X5372Y2797D01*
X5369Y2806D01*
X5364Y2813D01*
X5357Y2820D01*
X5348Y2825D01*
X5337Y2830D01*
X5324Y2833D01*
X5309Y2836D01*
X5291Y2837D01*
X5272Y2838D01*
Y2938D01*
X5291Y2938D01*
X5309Y2940D01*
X5324Y2942D01*
X5337Y2946D01*
X5348Y2950D01*
X5357Y2956D01*
X5364Y2962D01*
X5369Y2970D01*
X5372Y2978D01*
X5373Y2988D01*
Y2788D01*
D02*
G37*
G36*
X5128Y2978D02*
X5131Y2970D01*
X5136Y2962D01*
X5143Y2956D01*
X5152Y2950D01*
X5163Y2946D01*
X5176Y2942D01*
X5191Y2940D01*
X5209Y2938D01*
X5228Y2938D01*
Y2838D01*
X5209Y2837D01*
X5191Y2836D01*
X5176Y2833D01*
X5163Y2830D01*
X5152Y2825D01*
X5143Y2820D01*
X5136Y2813D01*
X5131Y2806D01*
X5128Y2797D01*
X5127Y2788D01*
Y2988D01*
X5128Y2978D01*
D02*
G37*
G36*
X8983Y2961D02*
X8986Y2952D01*
X8991Y2945D01*
X8998Y2938D01*
X9007Y2932D01*
X9018Y2928D01*
X9031Y2925D01*
X9046Y2922D01*
X9064Y2921D01*
X9083Y2920D01*
Y2820D01*
X9064Y2819D01*
X9046Y2818D01*
X9031Y2815D01*
X9018Y2812D01*
X9007Y2808D01*
X8998Y2802D01*
X8991Y2795D01*
X8986Y2788D01*
X8983Y2779D01*
X8982Y2770D01*
Y2970D01*
X8983Y2961D01*
D02*
G37*
G36*
X8017Y2750D02*
X8016Y2760D01*
X8013Y2768D01*
X8008Y2776D01*
X8001Y2782D01*
X7992Y2788D01*
X7981Y2792D01*
X7968Y2795D01*
X7953Y2798D01*
X7936Y2799D01*
X7917Y2800D01*
Y2900D01*
X7936Y2900D01*
X7953Y2902D01*
X7968Y2905D01*
X7981Y2908D01*
X7992Y2912D01*
X8001Y2918D01*
X8008Y2925D01*
X8013Y2932D01*
X8016Y2941D01*
X8017Y2950D01*
Y2750D01*
D02*
G37*
G36*
X7768Y2945D02*
X7779Y2935D01*
X7791Y2927D01*
X7803Y2920D01*
X7815Y2914D01*
X7828Y2909D01*
X7841Y2905D01*
X7854Y2902D01*
X7868Y2901D01*
X7881Y2900D01*
Y2800D01*
X7868Y2799D01*
X7854Y2798D01*
X7841Y2795D01*
X7828Y2791D01*
X7815Y2786D01*
X7803Y2780D01*
X7791Y2773D01*
X7779Y2765D01*
X7768Y2755D01*
X7757Y2745D01*
Y2955D01*
X7768Y2945D01*
D02*
G37*
G36*
X8965Y2581D02*
X8956Y2578D01*
X8949Y2573D01*
X8942Y2566D01*
X8937Y2557D01*
X8932Y2546D01*
X8929Y2533D01*
X8926Y2518D01*
X8925Y2500D01*
X8924Y2481D01*
X8824D01*
X8824Y2500D01*
X8822Y2518D01*
X8820Y2533D01*
X8816Y2546D01*
X8812Y2557D01*
X8806Y2566D01*
X8800Y2573D01*
X8792Y2578D01*
X8784Y2581D01*
X8774Y2582D01*
X8974D01*
X8965Y2581D01*
D02*
G37*
G36*
X4590Y2612D02*
X4581Y2608D01*
X4574Y2601D01*
X4568Y2591D01*
X4562Y2579D01*
X4558Y2564D01*
X4554Y2546D01*
X4552Y2525D01*
X4550Y2501D01*
X4550Y2474D01*
X4450D01*
X4450Y2501D01*
X4446Y2546D01*
X4442Y2564D01*
X4438Y2579D01*
X4432Y2591D01*
X4426Y2601D01*
X4419Y2608D01*
X4410Y2612D01*
X4401Y2614D01*
X4599D01*
X4590Y2612D01*
D02*
G37*
G36*
X8176Y2300D02*
X8178Y2282D01*
X8180Y2267D01*
X8184Y2254D01*
X8188Y2243D01*
X8194Y2234D01*
X8200Y2227D01*
X8208Y2222D01*
X8216Y2219D01*
X8226Y2218D01*
X8026D01*
X8035Y2219D01*
X8044Y2222D01*
X8051Y2227D01*
X8058Y2234D01*
X8063Y2243D01*
X8068Y2254D01*
X8071Y2267D01*
X8074Y2282D01*
X8075Y2300D01*
X8076Y2319D01*
X8176D01*
X8176Y2300D01*
D02*
G37*
G36*
X10164Y2202D02*
X10205Y2167D01*
X10222Y2155D01*
X10237Y2146D01*
X10250Y2141D01*
X10261Y2139D01*
X10270Y2140D01*
X10278Y2144D01*
X10283Y2152D01*
X10197Y1957D01*
X10200Y1968D01*
X10201Y1979D01*
X10200Y1990D01*
X10196Y2003D01*
X10190Y2017D01*
X10182Y2032D01*
X10171Y2047D01*
X10158Y2063D01*
X10143Y2081D01*
X10125Y2099D01*
X10141Y2224D01*
X10164Y2202D01*
D02*
G37*
G36*
X5625Y2062D02*
X5616Y2051D01*
X5607Y2040D01*
X5600Y2028D01*
X5594Y2015D01*
X5589Y2003D01*
X5585Y1990D01*
X5584Y1982D01*
X5585Y1974D01*
X5589Y1961D01*
X5593Y1950D01*
X5599Y1941D01*
X5605Y1934D01*
X5613Y1929D01*
X5621Y1926D01*
X5631Y1925D01*
X5431D01*
X5440Y1926D01*
X5449Y1929D01*
X5456Y1934D01*
X5463Y1941D01*
X5468Y1950D01*
X5473Y1961D01*
X5476Y1974D01*
X5477Y1982D01*
X5476Y1990D01*
X5472Y2003D01*
X5467Y2015D01*
X5461Y2028D01*
X5454Y2040D01*
X5445Y2051D01*
X5436Y2062D01*
X5426Y2073D01*
X5636D01*
X5625Y2062D01*
D02*
G37*
G36*
X5496Y1574D02*
X5490Y1582D01*
X5483Y1586D01*
X5473Y1587D01*
X5462Y1585D01*
X5449Y1580D01*
X5434Y1571D01*
X5417Y1559D01*
X5398Y1544D01*
X5355Y1503D01*
X5329Y1619D01*
X5347Y1638D01*
X5375Y1672D01*
X5386Y1687D01*
X5394Y1702D01*
X5400Y1716D01*
X5404Y1728D01*
X5405Y1740D01*
X5403Y1751D01*
X5400Y1761D01*
X5496Y1574D01*
D02*
G37*
G36*
X10197Y1544D02*
X10196Y1553D01*
X10193Y1562D01*
X10188Y1569D01*
X10181Y1576D01*
X10172Y1581D01*
X10161Y1586D01*
X10148Y1589D01*
X10133Y1592D01*
X10115Y1593D01*
X10096Y1594D01*
Y1694D01*
X10115Y1694D01*
X10133Y1696D01*
X10148Y1698D01*
X10161Y1702D01*
X10172Y1706D01*
X10181Y1712D01*
X10188Y1718D01*
X10193Y1726D01*
X10196Y1734D01*
X10197Y1744D01*
Y1544D01*
D02*
G37*
G36*
X6300Y1564D02*
X6292Y1561D01*
X6284Y1556D01*
X6278Y1549D01*
X6272Y1540D01*
X6268Y1529D01*
X6264Y1516D01*
X6262Y1501D01*
X6260Y1483D01*
X6260Y1464D01*
X6160D01*
X6159Y1483D01*
X6158Y1501D01*
X6155Y1516D01*
X6152Y1529D01*
X6147Y1540D01*
X6142Y1549D01*
X6135Y1556D01*
X6128Y1561D01*
X6119Y1564D01*
X6110Y1565D01*
X6310D01*
X6300Y1564D01*
D02*
G37*
G36*
X5171Y1131D02*
X5153Y1112D01*
X5124Y1078D01*
X5114Y1062D01*
X5105Y1048D01*
X5099Y1034D01*
X5096Y1021D01*
X5094Y1010D01*
X5095Y999D01*
X5099Y989D01*
X5004Y1175D01*
X5010Y1167D01*
X5017Y1163D01*
X5027Y1162D01*
X5038Y1164D01*
X5051Y1170D01*
X5066Y1179D01*
X5083Y1191D01*
X5102Y1206D01*
X5145Y1247D01*
X5171Y1131D01*
D02*
G37*
G36*
X10197Y1150D02*
X10196Y1160D01*
X10193Y1168D01*
X10188Y1176D01*
X10181Y1182D01*
X10172Y1187D01*
X10161Y1192D01*
X10148Y1195D01*
X10133Y1198D01*
X10115Y1199D01*
X10096Y1200D01*
Y1300D01*
X10115Y1301D01*
X10133Y1302D01*
X10148Y1304D01*
X10161Y1308D01*
X10172Y1312D01*
X10181Y1318D01*
X10188Y1324D01*
X10193Y1332D01*
X10196Y1340D01*
X10197Y1350D01*
Y1150D01*
D02*
G37*
G36*
X6260Y1166D02*
X6261Y1154D01*
X6263Y1144D01*
X6265Y1133D01*
X6268Y1124D01*
X6271Y1115D01*
X6276Y1106D01*
X6281Y1098D01*
X6286Y1091D01*
X6292Y1084D01*
X6127D01*
X6133Y1091D01*
X6139Y1098D01*
X6144Y1106D01*
X6148Y1115D01*
X6151Y1124D01*
X6154Y1133D01*
X6157Y1144D01*
X6158Y1154D01*
X6159Y1166D01*
X6160Y1178D01*
X6260D01*
X6260Y1166D01*
D02*
G37*
G36*
X9043Y895D02*
X9032Y905D01*
X9021Y915D01*
X9009Y923D01*
X8997Y930D01*
X8985Y936D01*
X8972Y941D01*
X8966Y943D01*
X8962Y942D01*
X8951Y938D01*
X8942Y932D01*
X8935Y926D01*
X8930Y918D01*
X8927Y909D01*
X8926Y900D01*
Y950D01*
X8919Y950D01*
Y1050D01*
X8926Y1050D01*
Y1100D01*
X8927Y1090D01*
X8930Y1082D01*
X8935Y1075D01*
X8942Y1068D01*
X8951Y1063D01*
X8962Y1058D01*
X8966Y1057D01*
X8972Y1059D01*
X8985Y1064D01*
X8997Y1070D01*
X9009Y1077D01*
X9021Y1085D01*
X9032Y1095D01*
X9043Y1105D01*
Y895D01*
D02*
G37*
G36*
X6125Y917D02*
X6119Y924D01*
X6111Y929D01*
X6103Y934D01*
X6095Y938D01*
X6086Y942D01*
X6076Y945D01*
X6066Y947D01*
X6055Y949D01*
X6044Y950D01*
X6032Y950D01*
Y1050D01*
X6044Y1050D01*
X6055Y1051D01*
X6066Y1053D01*
X6076Y1055D01*
X6086Y1058D01*
X6095Y1062D01*
X6103Y1066D01*
X6111Y1071D01*
X6119Y1076D01*
X6125Y1083D01*
Y917D01*
D02*
G37*
G36*
X5661Y1090D02*
X5664Y1082D01*
X5669Y1075D01*
X5676Y1068D01*
X5685Y1063D01*
X5696Y1058D01*
X5710Y1054D01*
X5725Y1052D01*
X5742Y1050D01*
X5761Y1050D01*
Y950D01*
X5742Y949D01*
X5725Y948D01*
X5710Y945D01*
X5696Y942D01*
X5685Y938D01*
X5676Y932D01*
X5669Y926D01*
X5664Y918D01*
X5661Y909D01*
X5660Y900D01*
Y1100D01*
X5661Y1090D01*
D02*
G37*
G36*
X4192Y3200D02*
X4271Y3100D01*
X4268Y3085D01*
Y2691D01*
X4285Y2602D01*
X4336Y2527D01*
X4345Y2520D01*
X4347Y2502D01*
Y2398D01*
X4320Y2380D01*
X4265Y2298D01*
X4245Y2200D01*
X4265Y2102D01*
X4320Y2020D01*
X4402Y1965D01*
X4500Y1945D01*
X4598Y1965D01*
X4638Y1991D01*
X4738Y1939D01*
Y1825D01*
X4969D01*
Y1750D01*
X5044D01*
Y1473D01*
X5112D01*
Y1359D01*
X5053Y1300D01*
X5035Y1283D01*
X5028Y1277D01*
X4738D01*
Y723D01*
X5199D01*
X5201Y723D01*
Y723D01*
X5299D01*
Y723D01*
X5762D01*
Y847D01*
X6045D01*
X6047Y847D01*
X6050Y846D01*
X6052Y843D01*
X6125Y795D01*
X6210Y778D01*
X6295Y795D01*
X6367Y843D01*
X6415Y915D01*
X6432Y1000D01*
X6415Y1085D01*
X6367Y1157D01*
X6364Y1160D01*
X6363Y1162D01*
X6363Y1164D01*
Y1463D01*
X6447D01*
Y2037D01*
X5972D01*
Y1463D01*
X6057D01*
Y1164D01*
X6056Y1162D01*
X6056Y1160D01*
X6052Y1157D01*
X6050Y1154D01*
X6047Y1153D01*
X6045Y1153D01*
X5762D01*
Y1277D01*
X5433D01*
X5418Y1296D01*
Y1421D01*
X5447Y1450D01*
X5465Y1467D01*
X5472Y1473D01*
X5501D01*
X5504Y1472D01*
X5506Y1473D01*
X5762D01*
Y2027D01*
X5762Y2027D01*
X5774Y2122D01*
X5785Y2181D01*
X5766Y2278D01*
X5711Y2361D01*
X5653Y2399D01*
X5641Y2485D01*
X5646Y2514D01*
X5664Y2527D01*
X5694Y2572D01*
X5704Y2575D01*
X5796D01*
X5806Y2572D01*
X5836Y2527D01*
X5911Y2476D01*
X5925Y2473D01*
Y2888D01*
X6000D01*
Y2963D01*
X6232D01*
Y3085D01*
X6229Y3100D01*
X6308Y3200D01*
X7616D01*
X7625Y3100D01*
X7552Y3086D01*
X7470Y3030D01*
X7415Y2948D01*
X7395Y2850D01*
X7415Y2752D01*
X7470Y2670D01*
X7552Y2614D01*
X7650Y2595D01*
X7748Y2614D01*
X7816Y2660D01*
X7873Y2644D01*
X7914Y2619D01*
X7916Y2616D01*
Y2480D01*
X7916D01*
X7949Y2389D01*
X7917Y2320D01*
X7916D01*
Y1540D01*
X8336D01*
Y2247D01*
X8664D01*
Y2005D01*
X8874D01*
Y1930D01*
X8949D01*
Y1540D01*
X9084D01*
X9100Y1447D01*
Y1355D01*
X9028Y1287D01*
X8553D01*
Y713D01*
X9028D01*
X9100Y645D01*
Y200D01*
X3000Y200D01*
Y635D01*
X3053Y713D01*
X3100Y713D01*
X3215D01*
Y1000D01*
Y1287D01*
X3100D01*
X3053Y1287D01*
X3000Y1365D01*
Y2676D01*
X3218D01*
Y3200D01*
X4192D01*
D02*
G37*
%LPC*%
G36*
X825Y6434D02*
Y6075D01*
X1184D01*
X1179Y6115D01*
X1134Y6222D01*
X1064Y6314D01*
X972Y6384D01*
X865Y6429D01*
X825Y6434D01*
D02*
G37*
G36*
X675D02*
X635Y6429D01*
X528Y6384D01*
X436Y6314D01*
X366Y6222D01*
X321Y6115D01*
X316Y6075D01*
X675D01*
Y6434D01*
D02*
G37*
G36*
X1184Y5925D02*
X825D01*
Y5566D01*
X865Y5571D01*
X972Y5616D01*
X1064Y5686D01*
X1134Y5778D01*
X1179Y5885D01*
X1184Y5925D01*
D02*
G37*
G36*
X675D02*
X316D01*
X321Y5885D01*
X366Y5778D01*
X436Y5686D01*
X528Y5616D01*
X635Y5571D01*
X675Y5566D01*
Y5925D01*
D02*
G37*
G36*
X2644Y5725D02*
X2488D01*
Y5523D01*
X2644D01*
Y5725D01*
D02*
G37*
G36*
X825Y4434D02*
Y4075D01*
X1184D01*
X1179Y4115D01*
X1134Y4222D01*
X1064Y4314D01*
X972Y4384D01*
X865Y4429D01*
X825Y4434D01*
D02*
G37*
G36*
X675D02*
X635Y4429D01*
X528Y4384D01*
X436Y4314D01*
X366Y4222D01*
X321Y4115D01*
X316Y4075D01*
X675D01*
Y4434D01*
D02*
G37*
G36*
Y3925D02*
X316D01*
X321Y3885D01*
X366Y3778D01*
X436Y3686D01*
X528Y3616D01*
X635Y3571D01*
X675Y3566D01*
Y3925D01*
D02*
G37*
G36*
X2551Y2324D02*
X2408D01*
Y2103D01*
X2551D01*
Y2324D01*
D02*
G37*
G36*
Y1953D02*
X2408D01*
Y1731D01*
X2551D01*
Y1953D01*
D02*
G37*
G36*
X1190Y1440D02*
X825D01*
Y1075D01*
X1190D01*
Y1440D01*
D02*
G37*
G36*
X2635Y1287D02*
X2472D01*
Y1075D01*
X2635D01*
Y1287D01*
D02*
G37*
G36*
X675Y1440D02*
X310D01*
Y1075D01*
X675D01*
Y1440D01*
D02*
G37*
G36*
X2635Y925D02*
X2472D01*
Y713D01*
X2635D01*
Y925D01*
D02*
G37*
G36*
X1190D02*
X825D01*
Y560D01*
X1190D01*
Y925D01*
D02*
G37*
G36*
X675D02*
X310D01*
Y560D01*
X675D01*
Y925D01*
D02*
G37*
G36*
X4425Y5990D02*
X4402Y5985D01*
X4320Y5930D01*
X4265Y5848D01*
X4260Y5825D01*
X4425D01*
Y5990D01*
D02*
G37*
G36*
Y5037D02*
X4268D01*
Y4915D01*
X4285Y4826D01*
X4336Y4751D01*
X4411Y4701D01*
X4425Y4698D01*
Y5037D01*
D02*
G37*
G36*
X12480Y7569D02*
X11571D01*
Y6896D01*
X12480D01*
Y7569D01*
D02*
G37*
G36*
Y4576D02*
X11571D01*
Y3904D01*
X12480D01*
Y4576D01*
D02*
G37*
G36*
Y3278D02*
X11571D01*
Y2606D01*
X12480D01*
Y3278D01*
D02*
G37*
G36*
Y1074D02*
X11571D01*
Y401D01*
X12480D01*
Y1074D01*
D02*
G37*
G36*
X6232Y2813D02*
X6075D01*
Y2473D01*
X6089Y2476D01*
X6164Y2527D01*
X6215Y2602D01*
X6232Y2691D01*
Y2813D01*
D02*
G37*
G36*
X3592Y2324D02*
X3449D01*
Y2103D01*
X3592D01*
Y2324D01*
D02*
G37*
G36*
X3299D02*
X3156D01*
Y2103D01*
X3299D01*
Y2324D01*
D02*
G37*
G36*
X7028Y2037D02*
X6865D01*
Y1825D01*
X7028D01*
Y2037D01*
D02*
G37*
G36*
X6715D02*
X6553D01*
Y1825D01*
X6715D01*
Y2037D01*
D02*
G37*
G36*
X3592Y1953D02*
X3449D01*
Y1731D01*
X3592D01*
Y1953D01*
D02*
G37*
G36*
X3299D02*
X3156D01*
Y1731D01*
X3299D01*
Y1953D01*
D02*
G37*
G36*
X8799Y1855D02*
X8664D01*
Y1540D01*
X8799D01*
Y1855D01*
D02*
G37*
G36*
X4894Y1675D02*
X4738D01*
Y1473D01*
X4894D01*
Y1675D01*
D02*
G37*
G36*
X7028D02*
X6865D01*
Y1463D01*
X7028D01*
Y1675D01*
D02*
G37*
G36*
X6715D02*
X6553D01*
Y1463D01*
X6715D01*
Y1675D01*
D02*
G37*
G36*
X3365Y1287D02*
Y1075D01*
X3528D01*
Y1287D01*
X3365D01*
D02*
G37*
G36*
X8447D02*
X8285D01*
Y1075D01*
X8447D01*
Y1287D01*
D02*
G37*
G36*
X8135D02*
X7972D01*
Y1075D01*
X8135D01*
Y1287D01*
D02*
G37*
G36*
X8447Y925D02*
X8285D01*
Y713D01*
X8447D01*
Y925D01*
D02*
G37*
G36*
X8135D02*
X7972D01*
Y713D01*
X8135D01*
Y925D01*
D02*
G37*
G36*
X3528D02*
X3365D01*
Y713D01*
X3528D01*
Y925D01*
D02*
G37*
%LPD*%
D10*
X12026Y7232D02*
D03*
Y4240D02*
D03*
Y2942D02*
D03*
Y737D02*
D03*
D11*
X10500Y4752D02*
D03*
Y5146D02*
D03*
Y5539D02*
D03*
Y5933D02*
D03*
Y6327D02*
D03*
Y6720D02*
D03*
Y1249D02*
D03*
Y1643D02*
D03*
Y2037D02*
D03*
Y2430D02*
D03*
D12*
X8874Y2870D02*
D03*
X8500D02*
D03*
X8126D02*
D03*
Y1930D02*
D03*
X8874D02*
D03*
D13*
X2719Y7250D02*
D03*
X3281D02*
D03*
X2719Y5050D02*
D03*
X3281D02*
D03*
Y5800D02*
D03*
X2719D02*
D03*
X4969Y1000D02*
D03*
X5531D02*
D03*
X4969Y1750D02*
D03*
X5531D02*
D03*
X8219Y4250D02*
D03*
X8781D02*
D03*
X5469Y6500D02*
D03*
X6031D02*
D03*
X8781Y5000D02*
D03*
X8219D02*
D03*
X8781Y7250D02*
D03*
X8219D02*
D03*
X6031D02*
D03*
X5469D02*
D03*
D14*
X4500Y2888D02*
D03*
X5000D02*
D03*
X5500D02*
D03*
X6000D02*
D03*
X4500Y5112D02*
D03*
X5000D02*
D03*
X5500D02*
D03*
X6000D02*
D03*
D15*
X8790Y1000D02*
D03*
X8210D02*
D03*
X6210Y1750D02*
D03*
X6790D02*
D03*
X8790Y5750D02*
D03*
X8210D02*
D03*
Y6500D02*
D03*
X8790D02*
D03*
X3290D02*
D03*
X2710D02*
D03*
X3290Y4300D02*
D03*
X2710D02*
D03*
Y1000D02*
D03*
X3290D02*
D03*
D16*
X3000Y2972D02*
D03*
X3374Y2028D02*
D03*
X2626D02*
D03*
D17*
X7650Y2850D02*
X8106D01*
X10006Y1644D02*
X10500D01*
X4969Y1000D02*
X5265Y1296D01*
Y1485D01*
X5531Y1750D01*
X8126Y1930D02*
Y2326D01*
X8200Y2400D01*
X8800D01*
X8874Y2474D01*
Y2870D01*
X5000Y2888D02*
X5500D01*
X6031Y6500D02*
X7000D01*
X7400Y6100D01*
X8700D01*
X8790Y6190D01*
Y6500D01*
X2719Y7250D02*
Y7519D01*
X2850Y7650D01*
X2710Y6500D02*
X2719Y6510D01*
Y7250D01*
X2850Y7650D02*
X5350D01*
X5469Y7531D01*
Y7250D02*
Y7531D01*
X5589Y7650D01*
X7819D01*
X8219Y7250D01*
X6031D02*
X7000D01*
X7750Y6500D01*
X8210D01*
X3281Y5050D02*
Y5800D01*
Y4871D02*
Y5050D01*
X2710Y4300D02*
X3281Y4871D01*
X5531Y1750D02*
Y2181D01*
X4500Y2200D02*
Y2888D01*
X8210Y5010D02*
Y5750D01*
Y5010D02*
X8219Y5000D01*
X8624Y3700D02*
X8874Y3450D01*
Y2870D02*
Y3450D01*
X8500Y2870D02*
Y3400D01*
X8219Y4131D02*
Y4250D01*
Y4131D02*
X8450Y3900D01*
X9650Y2000D02*
X10006Y1644D01*
X8874Y2870D02*
X9280D01*
X9650Y2500D01*
Y2000D02*
Y2500D01*
X8450Y3900D02*
X9100D01*
X10000Y3000D01*
X5469Y6181D02*
Y6500D01*
Y6181D02*
X6000Y5650D01*
Y5112D02*
Y5650D01*
X4000Y7250D02*
X5000Y6250D01*
Y5112D02*
Y6250D01*
X4350Y4300D02*
X5000Y3650D01*
Y2888D02*
Y3650D01*
Y4300D02*
Y5112D01*
Y4300D02*
X5600Y3700D01*
X8624D01*
X5500Y4650D02*
Y5112D01*
Y4650D02*
X5650Y4500D01*
X6600D01*
X6000Y5112D02*
X6538D01*
X7400Y4250D01*
X8219D01*
X7000Y5250D02*
X7650D01*
X8790Y1000D02*
X9150D01*
X8560Y6850D02*
X9350D01*
X8210Y6500D02*
X8560Y6850D01*
X8781Y5000D02*
X9300D01*
X9444Y5144D01*
X10500D01*
X9750Y4750D02*
X10500D01*
X9250Y4250D02*
X9750Y4750D01*
X8781Y4250D02*
X9250D01*
X9600Y1250D02*
X10500D01*
X750Y3081D02*
X2719Y5050D01*
X750Y3000D02*
Y3081D01*
Y7000D02*
X1600Y6150D01*
X3050D01*
X3290Y6390D01*
Y6500D01*
X4500Y5112D02*
Y5750D01*
X3281Y7250D02*
X4000D01*
X3290Y4300D02*
X4350D01*
X7900Y5000D02*
X8219D01*
X7650Y5250D02*
X7900Y5000D01*
X8790Y6500D02*
X9650D01*
X9825Y6325D01*
X10750D01*
X8781Y7250D02*
X9500D01*
X10031Y6719D01*
X10750D01*
X10000Y2295D02*
X10245Y2050D01*
X10000Y2295D02*
Y3000D01*
X10245Y2050D02*
X10487D01*
X10500Y2037D01*
X10750D01*
X10481Y5950D02*
X10500Y5931D01*
X9350Y5950D02*
X10481D01*
X8790Y5750D02*
X9126D01*
X9338Y5537D01*
X10500D01*
X5531Y1000D02*
X6210D01*
Y1750D01*
D18*
X2322Y2972D02*
X3000D01*
X1350Y2000D02*
X2322Y2972D01*
X750Y2000D02*
X1350D01*
D19*
X750D02*
D03*
Y3000D02*
D03*
Y4000D02*
D03*
Y6000D02*
D03*
D20*
Y1000D02*
D03*
Y7000D02*
D03*
D21*
X7650Y2850D02*
D03*
X5531Y2181D02*
D03*
X4500Y2200D02*
D03*
X8500Y3400D02*
D03*
X6600Y4500D02*
D03*
X7000Y5250D02*
D03*
X9350Y6850D02*
D03*
X9150Y1000D02*
D03*
X9600Y1250D02*
D03*
X4500Y5750D02*
D03*
X9350Y5950D02*
D03*
D22*
X6210Y1000D02*
D03*
M02*
