G04*
G04 #@! TF.GenerationSoftware,Altium Limited,Altium Designer,18.1.7 (191)*
G04*
G04 Layer_Physical_Order=1*
G04 Layer_Color=255*
%FSLAX24Y24*%
%MOIN*%
G70*
G01*
G75*
%ADD11C,0.0100*%
%ADD22C,0.0394*%
%ADD23C,0.0236*%
%ADD25C,0.0120*%
%ADD26C,0.0150*%
%ADD27C,0.0120*%
%ADD28R,0.2362X0.0433*%
%ADD29R,0.1850X0.0512*%
%ADD30R,0.0264X0.0354*%
%ADD31R,0.0354X0.0264*%
%ADD32R,0.0276X0.0374*%
%ADD33R,0.0374X0.0276*%
%ADD34R,0.0580X0.0220*%
%ADD35C,0.0787*%
%ADD36C,0.0200*%
%ADD37C,0.0240*%
G36*
X20850Y10650D02*
X16639D01*
X16629Y10719D01*
X16749Y10769D01*
X16852Y10848D01*
X16931Y10951D01*
X16981Y11071D01*
X16998Y11200D01*
X16981Y11329D01*
X16931Y11449D01*
X16852Y11552D01*
X16749Y11631D01*
X16629Y11681D01*
X16500Y11698D01*
X16371Y11681D01*
X16251Y11631D01*
X16148Y11552D01*
X16069Y11449D01*
X16019Y11329D01*
X16002Y11200D01*
X16019Y11071D01*
X16069Y10951D01*
X16148Y10848D01*
X16251Y10769D01*
X16371Y10719D01*
X16361Y10650D01*
X10839D01*
X10829Y10719D01*
X10949Y10769D01*
X11052Y10848D01*
X11131Y10951D01*
X11181Y11071D01*
X11198Y11200D01*
X11188Y11276D01*
X11234Y11329D01*
X12750Y11329D01*
X12777Y11334D01*
X12800Y11350D01*
X12900Y11450D01*
X12916Y11473D01*
X12921Y11500D01*
Y11662D01*
X12916Y11690D01*
X12907Y11703D01*
Y12166D01*
X12543D01*
X12529Y12176D01*
X12502Y12181D01*
X12382D01*
X12377Y12180D01*
X12377Y12180D01*
X12365Y12182D01*
X12331Y12199D01*
X12303Y12225D01*
Y12301D01*
X12305Y12306D01*
X12306Y12327D01*
X12307Y12343D01*
X12309Y12356D01*
X12312Y12365D01*
X12313Y12367D01*
X12372D01*
Y12467D01*
X12373Y12468D01*
X12375Y12469D01*
X12384Y12471D01*
X12396Y12473D01*
X12412Y12475D01*
X12433Y12475D01*
X12439Y12478D01*
X12500D01*
X12500Y12478D01*
X12570Y12487D01*
X12636Y12514D01*
X12693Y12557D01*
X12736Y12614D01*
X12763Y12680D01*
X12769Y12728D01*
X12832Y12770D01*
X12834Y12771D01*
X12880Y12756D01*
X12941Y12752D01*
X12945Y12754D01*
X12950Y12753D01*
X12955Y12756D01*
X13580D01*
Y13096D01*
X13580D01*
X13602Y13157D01*
X13643Y13160D01*
X13670Y13160D01*
X13675Y13162D01*
X13811D01*
X13820Y13096D01*
X13820Y13092D01*
Y12756D01*
X13978D01*
X14016Y12697D01*
X14018Y12686D01*
X14007Y12630D01*
X14019Y12568D01*
X14055Y12515D01*
X14108Y12479D01*
X14170Y12467D01*
X14195Y12472D01*
X14219Y12438D01*
X14230Y12407D01*
X14200Y12362D01*
X14187Y12300D01*
X14200Y12238D01*
X14214Y12217D01*
X14200Y12177D01*
X14170Y12147D01*
X14159D01*
Y11673D01*
X14542D01*
Y12096D01*
X14546Y12100D01*
X14612Y12127D01*
X14664Y12093D01*
X14750Y12076D01*
X14763Y12011D01*
Y11728D01*
X15237D01*
Y12111D01*
X15124D01*
X15108Y12192D01*
X15090Y12219D01*
X15127Y12289D01*
X15237D01*
Y12348D01*
X15239Y12349D01*
X15248Y12352D01*
X15260Y12354D01*
X15277Y12355D01*
X15298Y12356D01*
X15303Y12358D01*
X15381D01*
Y12356D01*
X15474Y12374D01*
X15553Y12427D01*
X15606Y12507D01*
X15625Y12600D01*
X15622D01*
Y14014D01*
X15624D01*
X15607Y14098D01*
X15560Y14169D01*
X15488Y14217D01*
X15404Y14234D01*
Y14232D01*
X15313D01*
X15308Y14235D01*
X15286Y14235D01*
X15270Y14237D01*
X15258Y14239D01*
X15249Y14241D01*
X15247Y14242D01*
Y14307D01*
X14753D01*
Y13912D01*
X15247D01*
Y13952D01*
X15315Y13982D01*
X15378Y13961D01*
Y12605D01*
X15376Y12604D01*
X15376Y12603D01*
X15303D01*
X15298Y12605D01*
X15277Y12606D01*
X15260Y12607D01*
X15248Y12609D01*
X15239Y12612D01*
X15237Y12613D01*
Y12672D01*
X14763D01*
X14763Y12672D01*
X14697Y12682D01*
X14618Y12736D01*
X14584Y12742D01*
X14520Y12756D01*
Y13092D01*
X14520Y13096D01*
X14529Y13162D01*
X14753D01*
Y12812D01*
X15247D01*
Y13207D01*
X15138D01*
X15121Y13292D01*
X15107Y13313D01*
X15145Y13383D01*
X15257D01*
Y13540D01*
X14743D01*
Y13438D01*
X14563D01*
X14530Y13494D01*
X14530Y13508D01*
Y13624D01*
X13810D01*
Y13508D01*
X13810Y13494D01*
X13777Y13438D01*
X13675D01*
X13670Y13440D01*
X13643Y13440D01*
X13601Y13443D01*
X13582Y13498D01*
X13580Y13504D01*
X13580Y13511D01*
X13580Y13540D01*
Y13844D01*
X13422D01*
X13422Y13846D01*
X13419Y13855D01*
X13417Y13867D01*
X13416Y13883D01*
X13415Y13905D01*
X13413Y13910D01*
Y14406D01*
X13415Y14412D01*
X13416Y14433D01*
X13417Y14449D01*
X13419Y14462D01*
X13422Y14471D01*
X13422Y14472D01*
X13488D01*
Y14587D01*
X13490Y14588D01*
X13499Y14591D01*
X13511Y14593D01*
X13528Y14594D01*
X13549Y14595D01*
X13554Y14597D01*
X13561D01*
X13567Y14595D01*
X13588Y14594D01*
X13604Y14593D01*
X13616Y14591D01*
X13625Y14588D01*
X13627Y14587D01*
X13628Y14586D01*
Y14482D01*
X14011D01*
Y14957D01*
X13628D01*
Y14853D01*
X13627Y14852D01*
X13625Y14851D01*
X13616Y14848D01*
X13604Y14846D01*
X13588Y14845D01*
X13567Y14844D01*
X13561Y14842D01*
X13554D01*
X13549Y14844D01*
X13528Y14845D01*
X13511Y14846D01*
X13499Y14848D01*
X13490Y14851D01*
X13488Y14852D01*
Y14966D01*
X13093D01*
Y14472D01*
X13158D01*
X13159Y14471D01*
X13161Y14462D01*
X13163Y14449D01*
X13165Y14433D01*
X13165Y14412D01*
X13168Y14406D01*
Y13910D01*
X13165Y13905D01*
X13165Y13883D01*
X13163Y13867D01*
X13161Y13855D01*
X13159Y13846D01*
X13158Y13844D01*
X12880D01*
X12880Y13513D01*
X12880Y13504D01*
X12867Y13469D01*
X12794Y13450D01*
X12738Y13489D01*
Y13550D01*
X12740D01*
X12721Y13642D01*
X12669Y13719D01*
X12592Y13771D01*
X12500Y13790D01*
Y13788D01*
X12372D01*
Y14251D01*
X12313D01*
X12312Y14253D01*
X12309Y14261D01*
X12307Y14274D01*
X12306Y14290D01*
X12305Y14311D01*
X12303Y14317D01*
Y14416D01*
X12305Y14422D01*
X12306Y14443D01*
X12307Y14459D01*
X12309Y14472D01*
X12312Y14480D01*
X12313Y14482D01*
X12372D01*
Y14586D01*
X12373Y14587D01*
X12375Y14588D01*
X12384Y14591D01*
X12396Y14593D01*
X12412Y14594D01*
X12433Y14595D01*
X12439Y14597D01*
X12446D01*
X12451Y14595D01*
X12472Y14594D01*
X12488Y14593D01*
X12500Y14591D01*
X12509Y14588D01*
X12511Y14587D01*
X12512Y14586D01*
Y14472D01*
X12907D01*
Y14966D01*
X12512D01*
Y14853D01*
X12511Y14852D01*
X12509Y14851D01*
X12500Y14848D01*
X12488Y14846D01*
X12472Y14845D01*
X12451Y14844D01*
X12446Y14842D01*
X12439D01*
X12433Y14844D01*
X12412Y14845D01*
X12396Y14846D01*
X12384Y14848D01*
X12375Y14851D01*
X12373Y14852D01*
X12372Y14853D01*
Y14957D01*
X11989D01*
Y14482D01*
X12048D01*
X12049Y14480D01*
X12052Y14472D01*
X12054Y14459D01*
X12055Y14443D01*
X12056Y14422D01*
X12058Y14416D01*
Y14317D01*
X12056Y14311D01*
X12055Y14290D01*
X12054Y14274D01*
X12052Y14261D01*
X12049Y14253D01*
X12048Y14251D01*
X11989D01*
Y13788D01*
X11811D01*
Y14251D01*
X11453D01*
X11445Y14256D01*
X11418Y14261D01*
X10967Y14261D01*
X10932Y14304D01*
X10915Y14389D01*
X10867Y14461D01*
X10795Y14509D01*
X10709Y14526D01*
X10624Y14509D01*
X10552Y14461D01*
X10504Y14389D01*
X10487Y14304D01*
X10504Y14219D01*
X10550Y14151D01*
X10540Y14140D01*
X10524Y14117D01*
X10519Y14090D01*
Y12496D01*
X10521Y12485D01*
X10522Y12475D01*
X10523Y12472D01*
X10524Y12468D01*
X10530Y12459D01*
X10535Y12450D01*
X10538Y12448D01*
X10540Y12445D01*
X10541Y12437D01*
X10504Y12381D01*
X10487Y12296D01*
X10504Y12211D01*
X10541Y12155D01*
X10540Y12147D01*
X10538Y12144D01*
X10535Y12142D01*
X10530Y12133D01*
X10524Y12124D01*
X10523Y12120D01*
X10522Y12117D01*
X10521Y12107D01*
X10519Y12097D01*
Y11691D01*
X10519Y11689D01*
X10519Y11686D01*
X10522Y11675D01*
X10524Y11664D01*
X10523Y11661D01*
X10451Y11631D01*
X10348Y11552D01*
X10269Y11449D01*
X10219Y11329D01*
X10150Y11339D01*
Y15261D01*
X10219Y15271D01*
X10269Y15151D01*
X10348Y15048D01*
X10451Y14969D01*
X10571Y14919D01*
X10700Y14902D01*
X10829Y14919D01*
X10949Y14969D01*
X11052Y15048D01*
X11131Y15151D01*
X11181Y15271D01*
X11198Y15400D01*
X11181Y15529D01*
X11131Y15649D01*
X11052Y15752D01*
X10949Y15831D01*
X10829Y15881D01*
X10839Y15950D01*
X16361D01*
X16371Y15881D01*
X16251Y15831D01*
X16148Y15752D01*
X16069Y15649D01*
X16019Y15529D01*
X16002Y15400D01*
X16019Y15271D01*
X16069Y15151D01*
X16148Y15048D01*
X16251Y14969D01*
X16371Y14919D01*
X16500Y14902D01*
X16629Y14919D01*
X16749Y14969D01*
X16852Y15048D01*
X16931Y15151D01*
X16981Y15271D01*
X16998Y15400D01*
X16981Y15529D01*
X16931Y15649D01*
X16852Y15752D01*
X16749Y15831D01*
X16629Y15881D01*
X16639Y15950D01*
X20850D01*
Y10650D01*
D02*
G37*
G36*
X13689Y14599D02*
X13688Y14611D01*
X13684Y14621D01*
X13678Y14630D01*
X13670Y14638D01*
X13659Y14644D01*
X13646Y14650D01*
X13630Y14654D01*
X13612Y14657D01*
X13592Y14659D01*
X13569Y14659D01*
Y14779D01*
X13592Y14780D01*
X13612Y14782D01*
X13630Y14785D01*
X13646Y14789D01*
X13659Y14794D01*
X13670Y14801D01*
X13678Y14809D01*
X13684Y14818D01*
X13688Y14828D01*
X13689Y14839D01*
Y14599D01*
D02*
G37*
G36*
X13427Y14828D02*
X13431Y14818D01*
X13437Y14809D01*
X13445Y14801D01*
X13456Y14794D01*
X13469Y14789D01*
X13485Y14785D01*
X13503Y14782D01*
X13524Y14780D01*
X13547Y14779D01*
Y14659D01*
X13524Y14659D01*
X13503Y14657D01*
X13485Y14654D01*
X13469Y14650D01*
X13456Y14644D01*
X13445Y14638D01*
X13437Y14630D01*
X13431Y14621D01*
X13427Y14611D01*
X13426Y14599D01*
Y14839D01*
X13427Y14828D01*
D02*
G37*
G36*
X12573Y14599D02*
X12572Y14611D01*
X12568Y14621D01*
X12562Y14630D01*
X12554Y14638D01*
X12543Y14644D01*
X12530Y14650D01*
X12514Y14654D01*
X12496Y14657D01*
X12476Y14659D01*
X12453Y14659D01*
Y14779D01*
X12476Y14780D01*
X12496Y14782D01*
X12514Y14785D01*
X12530Y14789D01*
X12543Y14794D01*
X12554Y14801D01*
X12562Y14809D01*
X12568Y14818D01*
X12572Y14828D01*
X12573Y14839D01*
Y14599D01*
D02*
G37*
G36*
X12312Y14828D02*
X12316Y14818D01*
X12322Y14809D01*
X12330Y14801D01*
X12341Y14794D01*
X12354Y14789D01*
X12370Y14785D01*
X12388Y14782D01*
X12408Y14780D01*
X12431Y14779D01*
Y14659D01*
X12408Y14659D01*
X12388Y14657D01*
X12370Y14654D01*
X12354Y14650D01*
X12341Y14644D01*
X12330Y14638D01*
X12322Y14630D01*
X12316Y14621D01*
X12312Y14611D01*
X12311Y14599D01*
Y14839D01*
X12312Y14828D01*
D02*
G37*
G36*
X12289Y14543D02*
X12279Y14540D01*
X12270Y14534D01*
X12262Y14525D01*
X12256Y14514D01*
X12250Y14501D01*
X12246Y14485D01*
X12243Y14467D01*
X12241Y14447D01*
X12241Y14424D01*
X12121D01*
X12120Y14447D01*
X12118Y14467D01*
X12115Y14485D01*
X12111Y14501D01*
X12106Y14514D01*
X12099Y14525D01*
X12091Y14534D01*
X12082Y14540D01*
X12072Y14543D01*
X12061Y14545D01*
X12301D01*
X12289Y14543D01*
D02*
G37*
G36*
X13399Y14534D02*
X13389Y14530D01*
X13380Y14524D01*
X13372Y14515D01*
X13365Y14505D01*
X13360Y14491D01*
X13356Y14475D01*
X13353Y14457D01*
X13351Y14437D01*
X13350Y14414D01*
X13230D01*
X13230Y14437D01*
X13228Y14457D01*
X13225Y14475D01*
X13221Y14491D01*
X13215Y14505D01*
X13209Y14515D01*
X13201Y14524D01*
X13192Y14530D01*
X13182Y14534D01*
X13170Y14535D01*
X13410D01*
X13399Y14534D01*
D02*
G37*
G36*
X12241Y14287D02*
X12243Y14266D01*
X12246Y14248D01*
X12250Y14232D01*
X12256Y14219D01*
X12262Y14208D01*
X12270Y14199D01*
X12279Y14193D01*
X12289Y14190D01*
X12301Y14188D01*
X12061D01*
X12072Y14190D01*
X12082Y14193D01*
X12091Y14199D01*
X12099Y14208D01*
X12106Y14219D01*
X12111Y14232D01*
X12115Y14248D01*
X12118Y14266D01*
X12120Y14287D01*
X12121Y14310D01*
X12241D01*
X12241Y14287D01*
D02*
G37*
G36*
X11418Y14064D02*
X11619D01*
Y13964D01*
X11418D01*
Y13852D01*
X11392Y13839D01*
X11368Y13830D01*
X11300Y13844D01*
X11226Y13829D01*
X11163Y13787D01*
X11121Y13724D01*
X11106Y13650D01*
X11121Y13576D01*
X11163Y13513D01*
X11193Y13493D01*
Y13433D01*
X11177Y13423D01*
X11140Y13366D01*
X11127Y13300D01*
X11140Y13234D01*
X11177Y13177D01*
X11234Y13140D01*
X11300Y13127D01*
X11352Y13137D01*
X11402Y13108D01*
Y13043D01*
X11750D01*
Y12967D01*
X11677Y12895D01*
X11656Y12875D01*
X11639Y12861D01*
X11625Y12851D01*
X11581D01*
X11580Y12851D01*
X11580Y12851D01*
X11418D01*
Y12357D01*
X11750D01*
Y12200D01*
X11734Y12161D01*
X11669D01*
Y11964D01*
X11821D01*
Y12102D01*
X11840Y12110D01*
X11979D01*
Y11666D01*
X12382D01*
Y12110D01*
X12502D01*
Y11969D01*
X12710D01*
Y11919D01*
X12760D01*
Y11662D01*
X12850D01*
Y11500D01*
X12750Y11400D01*
X11119Y11400D01*
X11105Y11434D01*
X11031Y11531D01*
X10934Y11605D01*
X10821Y11652D01*
X10700Y11668D01*
X10628Y11658D01*
X10590Y11691D01*
Y12097D01*
X10628Y12117D01*
X10640Y12118D01*
X10709Y12104D01*
X10783Y12119D01*
X10845Y12160D01*
X10887Y12223D01*
X10901Y12296D01*
X10887Y12369D01*
X10845Y12432D01*
X10783Y12473D01*
X10709Y12488D01*
X10640Y12474D01*
X10628Y12475D01*
X10590Y12496D01*
Y14090D01*
X10630Y14130D01*
X10636Y14127D01*
X10709Y14112D01*
X10783Y14127D01*
X10845Y14168D01*
X10860Y14190D01*
X11418Y14190D01*
Y14064D01*
D02*
G37*
G36*
X15186Y14218D02*
X15189Y14208D01*
X15196Y14199D01*
X15204Y14191D01*
X15215Y14185D01*
X15228Y14179D01*
X15244Y14175D01*
X15262Y14172D01*
X15283Y14170D01*
X15306Y14170D01*
Y14050D01*
X15283Y14049D01*
X15262Y14047D01*
X15244Y14044D01*
X15228Y14040D01*
X15215Y14035D01*
X15204Y14028D01*
X15196Y14020D01*
X15189Y14011D01*
X15186Y14001D01*
X15185Y13990D01*
Y14230D01*
X15186Y14218D01*
D02*
G37*
G36*
X13351Y13880D02*
X13353Y13859D01*
X13356Y13841D01*
X13360Y13825D01*
X13365Y13812D01*
X13372Y13801D01*
X13380Y13793D01*
X13389Y13786D01*
X13399Y13783D01*
X13410Y13782D01*
X13170D01*
X13182Y13783D01*
X13192Y13786D01*
X13201Y13793D01*
X13209Y13801D01*
X13215Y13812D01*
X13221Y13825D01*
X13225Y13841D01*
X13228Y13859D01*
X13230Y13880D01*
X13230Y13903D01*
X13350D01*
X13351Y13880D01*
D02*
G37*
G36*
X11388Y13732D02*
X11392Y13731D01*
X11397Y13729D01*
X11403Y13728D01*
X11410Y13727D01*
X11429Y13726D01*
X11466Y13725D01*
Y13575D01*
X11452Y13575D01*
X11403Y13572D01*
X11397Y13571D01*
X11392Y13569D01*
X11388Y13568D01*
X11386Y13566D01*
Y13734D01*
X11388Y13732D01*
D02*
G37*
G36*
X11474Y13180D02*
X11473Y13191D01*
X11469Y13202D01*
X11463Y13211D01*
X11455Y13218D01*
X11444Y13225D01*
X11431Y13230D01*
X11415Y13235D01*
X11397Y13238D01*
X11396Y13238D01*
X11393Y13238D01*
X11387Y13236D01*
X11382Y13235D01*
X11377Y13234D01*
X11374Y13232D01*
X11371Y13230D01*
Y13240D01*
X11353Y13240D01*
Y13360D01*
X11371Y13360D01*
Y13370D01*
X11374Y13368D01*
X11377Y13366D01*
X11382Y13365D01*
X11387Y13364D01*
X11393Y13362D01*
X11395Y13362D01*
X11397Y13362D01*
X11415Y13365D01*
X11431Y13370D01*
X11444Y13375D01*
X11455Y13382D01*
X11463Y13389D01*
X11469Y13398D01*
X11473Y13409D01*
X11474Y13420D01*
Y13180D01*
D02*
G37*
G36*
X13520Y13402D02*
X13525Y13397D01*
X13532Y13392D01*
X13543Y13387D01*
X13556Y13383D01*
X13573Y13380D01*
X13592Y13378D01*
X13640Y13375D01*
X13669Y13375D01*
Y13225D01*
X13640Y13225D01*
X13573Y13220D01*
X13556Y13217D01*
X13543Y13213D01*
X13532Y13208D01*
X13525Y13203D01*
X13520Y13198D01*
X13519Y13191D01*
Y13409D01*
X13520Y13402D01*
D02*
G37*
G36*
X12941Y13191D02*
X12940Y13198D01*
X12935Y13203D01*
X12928Y13208D01*
X12917Y13213D01*
X12904Y13217D01*
X12887Y13220D01*
X12868Y13222D01*
X12820Y13225D01*
X12791Y13225D01*
Y13375D01*
X12820Y13375D01*
X12887Y13380D01*
X12904Y13383D01*
X12917Y13387D01*
X12928Y13392D01*
X12935Y13397D01*
X12940Y13402D01*
X12941Y13409D01*
Y13191D01*
D02*
G37*
G36*
X12254Y13115D02*
X12243Y13120D01*
X12230Y13121D01*
X12214Y13118D01*
X12196Y13111D01*
X12176Y13100D01*
X12154Y13086D01*
X12129Y13067D01*
X12073Y13017D01*
X12042Y12987D01*
X11969Y13083D01*
X11994Y13110D01*
X12034Y13156D01*
X12048Y13176D01*
X12058Y13194D01*
X12065Y13210D01*
X12068Y13224D01*
X12067Y13235D01*
X12063Y13245D01*
X12055Y13253D01*
X12254Y13115D01*
D02*
G37*
G36*
X12941Y12817D02*
X12940Y12826D01*
X12936Y12835D01*
X12930Y12842D01*
X12922Y12848D01*
X12911Y12854D01*
X12898Y12858D01*
X12882Y12862D01*
X12864Y12864D01*
X12844Y12866D01*
X12821Y12866D01*
Y12986D01*
X12844Y12986D01*
X12882Y12990D01*
X12898Y12994D01*
X12911Y12998D01*
X12922Y13004D01*
X12930Y13010D01*
X12936Y13017D01*
X12940Y13026D01*
X12941Y13035D01*
Y12817D01*
D02*
G37*
G36*
X11835Y12780D02*
X11811Y12755D01*
X11774Y12711D01*
X11760Y12692D01*
X11750Y12674D01*
X11743Y12658D01*
X11740Y12643D01*
Y12631D01*
X11743Y12620D01*
X11750Y12610D01*
X11580Y12780D01*
X11590Y12773D01*
X11601Y12770D01*
X11614D01*
X11628Y12773D01*
X11644Y12780D01*
X11662Y12790D01*
X11681Y12804D01*
X11703Y12821D01*
X11750Y12865D01*
X11835Y12780D01*
D02*
G37*
G36*
X14279Y12816D02*
X14268Y12812D01*
X14259Y12806D01*
X14252Y12798D01*
X14245Y12787D01*
X14240Y12774D01*
X14235Y12758D01*
X14232Y12740D01*
X14232Y12734D01*
X14232Y12723D01*
X14234Y12717D01*
X14235Y12712D01*
X14236Y12707D01*
X14238Y12704D01*
X14240Y12701D01*
X14230D01*
X14230Y12697D01*
X14110D01*
X14110Y12701D01*
X14100D01*
X14102Y12704D01*
X14104Y12707D01*
X14105Y12712D01*
X14106Y12717D01*
X14108Y12723D01*
X14108Y12732D01*
X14108Y12740D01*
X14105Y12758D01*
X14100Y12774D01*
X14095Y12787D01*
X14088Y12798D01*
X14081Y12806D01*
X14072Y12812D01*
X14061Y12816D01*
X14050Y12817D01*
X14290D01*
X14279Y12816D01*
D02*
G37*
G36*
X14244Y12698D02*
X14247Y12696D01*
X14252Y12695D01*
X14257Y12694D01*
X14263Y12693D01*
X14279Y12691D01*
X14299Y12690D01*
X14310Y12690D01*
Y12570D01*
X14299Y12570D01*
X14263Y12567D01*
X14257Y12566D01*
X14252Y12565D01*
X14247Y12564D01*
X14244Y12562D01*
X14241Y12560D01*
Y12700D01*
X14244Y12698D01*
D02*
G37*
G36*
X12312Y12709D02*
X12316Y12698D01*
X12322Y12689D01*
X12330Y12682D01*
X12341Y12675D01*
X12354Y12670D01*
X12370Y12665D01*
X12388Y12662D01*
X12408Y12661D01*
X12431Y12660D01*
Y12540D01*
X12408Y12539D01*
X12388Y12538D01*
X12370Y12535D01*
X12354Y12530D01*
X12341Y12525D01*
X12330Y12518D01*
X12322Y12511D01*
X12316Y12502D01*
X12312Y12491D01*
X12311Y12480D01*
Y12720D01*
X12312Y12709D01*
D02*
G37*
G36*
X15176Y12589D02*
X15180Y12579D01*
X15186Y12570D01*
X15194Y12562D01*
X15205Y12556D01*
X15218Y12550D01*
X15234Y12546D01*
X15252Y12543D01*
X15273Y12541D01*
X15296Y12541D01*
Y12421D01*
X15273Y12420D01*
X15252Y12418D01*
X15234Y12415D01*
X15218Y12411D01*
X15205Y12406D01*
X15194Y12399D01*
X15186Y12391D01*
X15180Y12382D01*
X15176Y12372D01*
X15175Y12361D01*
Y12601D01*
X15176Y12589D01*
D02*
G37*
G36*
X12289Y12428D02*
X12279Y12424D01*
X12270Y12418D01*
X12262Y12410D01*
X12256Y12399D01*
X12250Y12386D01*
X12246Y12370D01*
X12243Y12352D01*
X12241Y12331D01*
X12241Y12308D01*
X12121D01*
X12120Y12331D01*
X12118Y12352D01*
X12115Y12370D01*
X12111Y12386D01*
X12106Y12399D01*
X12099Y12410D01*
X12091Y12418D01*
X12082Y12424D01*
X12072Y12428D01*
X12061Y12429D01*
X12301D01*
X12289Y12428D01*
D02*
G37*
G36*
X12241Y12187D02*
X12243Y12166D01*
X12246Y12148D01*
X12250Y12132D01*
X12256Y12119D01*
X12262Y12108D01*
X12270Y12099D01*
X12279Y12093D01*
X12289Y12090D01*
X12301Y12088D01*
X12061D01*
X12072Y12090D01*
X12082Y12093D01*
X12091Y12099D01*
X12099Y12108D01*
X12106Y12119D01*
X12111Y12132D01*
X12115Y12148D01*
X12118Y12166D01*
X12120Y12187D01*
X12121Y12210D01*
X12241D01*
X12241Y12187D01*
D02*
G37*
G36*
X14419Y12226D02*
X14417Y12223D01*
X14415Y12218D01*
X14414Y12213D01*
X14413Y12207D01*
X14411Y12191D01*
X14411Y12183D01*
X14411Y12183D01*
X14413Y12162D01*
X14416Y12144D01*
X14420Y12128D01*
X14426Y12115D01*
X14432Y12104D01*
X14440Y12096D01*
X14449Y12089D01*
X14459Y12086D01*
X14471Y12085D01*
X14231D01*
X14242Y12086D01*
X14252Y12089D01*
X14261Y12096D01*
X14269Y12104D01*
X14276Y12115D01*
X14281Y12128D01*
X14285Y12144D01*
X14288Y12162D01*
X14290Y12181D01*
X14288Y12207D01*
X14287Y12213D01*
X14286Y12218D01*
X14284Y12223D01*
X14282Y12226D01*
X14281Y12229D01*
X14421D01*
X14419Y12226D01*
D02*
G37*
%LPC*%
G36*
X15186Y14892D02*
X15182Y14890D01*
X15178Y14891D01*
X15172Y14888D01*
X14753D01*
Y14493D01*
X15172D01*
X15178Y14489D01*
X15182Y14490D01*
X15186Y14489D01*
X15247Y14493D01*
Y14519D01*
X15247D01*
Y14519D01*
X15309Y14550D01*
X15311Y14550D01*
X15337Y14550D01*
X15342Y14553D01*
X15500D01*
X15504Y14554D01*
X15525Y14545D01*
X15562Y14490D01*
X15573Y14405D01*
X15606Y14326D01*
X15658Y14258D01*
X15726Y14206D01*
X15805Y14173D01*
X15890Y14162D01*
Y14162D01*
X15987D01*
X15992Y14160D01*
X16019Y14159D01*
X16040Y14158D01*
X16056Y14155D01*
X16069Y14151D01*
X16077Y14148D01*
X16079Y14147D01*
X16079Y14143D01*
X16083Y14137D01*
Y13984D01*
X18053D01*
Y14616D01*
X16083D01*
Y14463D01*
X16079Y14457D01*
X16079Y14453D01*
X16077Y14452D01*
X16069Y14449D01*
X16056Y14445D01*
X16040Y14442D01*
X16019Y14441D01*
X15992Y14440D01*
X15987Y14438D01*
X15890D01*
X15887Y14437D01*
X15883Y14439D01*
X15838Y14490D01*
X15826Y14578D01*
X15793Y14659D01*
X15739Y14729D01*
X15669Y14783D01*
X15587Y14817D01*
X15500Y14828D01*
Y14828D01*
X15342D01*
X15337Y14830D01*
X15310Y14831D01*
X15308Y14831D01*
X15247Y14862D01*
Y14862D01*
X15247D01*
Y14888D01*
X15186Y14892D01*
D02*
G37*
G36*
X20336Y15577D02*
X17854D01*
Y15023D01*
X18804D01*
X18839Y14953D01*
X18836Y14950D01*
X18806Y14877D01*
X18796Y14800D01*
X18806Y14723D01*
X18836Y14650D01*
X18884Y14588D01*
X18946Y14541D01*
X19018Y14511D01*
X19095Y14501D01*
X19173Y14511D01*
X19245Y14541D01*
X19307Y14588D01*
X19355Y14650D01*
X19384Y14723D01*
X19395Y14800D01*
X19384Y14877D01*
X19355Y14950D01*
X19352Y14953D01*
X19386Y15023D01*
X20336D01*
Y15577D01*
D02*
G37*
G36*
X11619Y15363D02*
X11557Y15351D01*
X11504Y15315D01*
X11469Y15262D01*
X11456Y15200D01*
X11469Y15138D01*
X11492Y15104D01*
X11491Y15103D01*
X11492Y15102D01*
X11492Y15102D01*
X11492Y15100D01*
X11492Y15100D01*
X11492Y15099D01*
X11494Y15069D01*
X11495Y15059D01*
X11497Y15053D01*
Y15023D01*
X11495Y15017D01*
X11494Y14996D01*
X11493Y14980D01*
X11491Y14967D01*
X11488Y14959D01*
X11487Y14957D01*
X11428D01*
Y14482D01*
X11811D01*
Y14957D01*
X11752D01*
X11751Y14959D01*
X11748Y14967D01*
X11746Y14980D01*
X11745Y14996D01*
X11744Y15017D01*
X11742Y15023D01*
Y15053D01*
X11744Y15059D01*
X11745Y15070D01*
X11745Y15086D01*
X11746Y15098D01*
X11747Y15100D01*
X11747Y15100D01*
X11747Y15102D01*
X11747Y15102D01*
X11748Y15103D01*
X11747Y15104D01*
X11770Y15138D01*
X11783Y15200D01*
X11770Y15262D01*
X11735Y15315D01*
X11682Y15351D01*
X11619Y15363D01*
D02*
G37*
G36*
X14572Y14957D02*
X14189D01*
Y14482D01*
X14202D01*
X14215Y14471D01*
X14240Y14442D01*
X14247Y14412D01*
X14230Y14386D01*
X14217Y14323D01*
X14230Y14261D01*
X14265Y14208D01*
X14318Y14173D01*
X14381Y14160D01*
X14443Y14173D01*
X14496Y14208D01*
X14531Y14261D01*
X14544Y14323D01*
X14531Y14386D01*
X14514Y14412D01*
X14520Y14439D01*
X14560Y14482D01*
X14572D01*
Y14957D01*
D02*
G37*
G36*
X14530Y13854D02*
X14220D01*
Y13724D01*
X14530D01*
Y13854D01*
D02*
G37*
G36*
X14120D02*
X13810D01*
Y13724D01*
X14120D01*
Y13854D01*
D02*
G37*
G36*
X15257Y13798D02*
X15050D01*
Y13640D01*
X15257D01*
Y13798D01*
D02*
G37*
G36*
X14950D02*
X14743D01*
Y13640D01*
X14950D01*
Y13798D01*
D02*
G37*
G36*
X18053Y13616D02*
X16083D01*
Y13515D01*
X16013Y13461D01*
X16000Y13463D01*
X15938Y13451D01*
X15885Y13415D01*
X15849Y13362D01*
X15837Y13300D01*
X15849Y13238D01*
X15885Y13185D01*
X15938Y13149D01*
X16000Y13137D01*
X16013Y13139D01*
X16083Y13085D01*
Y12984D01*
X18053D01*
Y13616D01*
D02*
G37*
G36*
X18063Y12626D02*
X17118D01*
Y12350D01*
X18063D01*
Y12626D01*
D02*
G37*
G36*
X17018D02*
X16073D01*
Y12350D01*
X17018D01*
Y12626D01*
D02*
G37*
G36*
X18063Y12250D02*
X17118D01*
Y11974D01*
X18063D01*
Y12250D01*
D02*
G37*
G36*
X17018D02*
X16073D01*
Y11974D01*
X17018D01*
Y12250D01*
D02*
G37*
G36*
X13488Y12166D02*
X13093D01*
Y11672D01*
X13126D01*
X13165Y11625D01*
X13173Y11605D01*
X13173Y11602D01*
X13173Y11600D01*
X13173Y11600D01*
X13172Y11598D01*
X13172Y11598D01*
X13172Y11597D01*
X13172Y11596D01*
X13149Y11562D01*
X13137Y11500D01*
X13149Y11438D01*
X13185Y11385D01*
X13238Y11349D01*
X13300Y11337D01*
X13362Y11349D01*
X13415Y11385D01*
X13451Y11438D01*
X13463Y11500D01*
X13451Y11562D01*
X13428Y11596D01*
X13428Y11597D01*
X13428Y11598D01*
X13428Y11598D01*
X13427Y11600D01*
X13427Y11600D01*
X13427Y11601D01*
X13427Y11605D01*
X13475Y11672D01*
X13488D01*
Y11739D01*
X13543Y11770D01*
X13598Y11739D01*
Y11673D01*
X13981D01*
Y12147D01*
X13598D01*
Y12081D01*
X13543Y12049D01*
X13488Y12081D01*
Y12166D01*
D02*
G37*
G36*
X19332Y12099D02*
X19254Y12089D01*
X19182Y12059D01*
X19120Y12012D01*
X19072Y11950D01*
X19042Y11877D01*
X19032Y11800D01*
X19042Y11723D01*
X19072Y11650D01*
X19075Y11647D01*
X19041Y11577D01*
X17854D01*
Y11023D01*
X20336D01*
Y11577D01*
X19622D01*
X19588Y11647D01*
X19591Y11650D01*
X19621Y11723D01*
X19631Y11800D01*
X19621Y11877D01*
X19591Y11950D01*
X19543Y12012D01*
X19481Y12059D01*
X19409Y12089D01*
X19332Y12099D01*
D02*
G37*
%LPD*%
G36*
X15187Y14815D02*
X15192Y14805D01*
X15199Y14796D01*
X15210Y14788D01*
X15223Y14781D01*
X15240Y14775D01*
X15259Y14771D01*
X15282Y14768D01*
X15307Y14766D01*
X15336Y14765D01*
Y14615D01*
X15307Y14615D01*
X15259Y14610D01*
X15240Y14605D01*
X15223Y14600D01*
X15210Y14593D01*
X15199Y14585D01*
X15192Y14576D01*
X15187Y14565D01*
X15186Y14554D01*
Y14827D01*
X15187Y14815D01*
D02*
G37*
G36*
X16144Y14150D02*
X16142Y14164D01*
X16138Y14177D01*
X16130Y14188D01*
X16120Y14198D01*
X16106Y14206D01*
X16090Y14213D01*
X16070Y14218D01*
X16048Y14222D01*
X16022Y14224D01*
X15994Y14225D01*
Y14375D01*
X16022Y14376D01*
X16048Y14378D01*
X16070Y14382D01*
X16090Y14387D01*
X16106Y14394D01*
X16120Y14402D01*
X16130Y14412D01*
X16138Y14423D01*
X16142Y14436D01*
X16144Y14450D01*
Y14150D01*
D02*
G37*
G36*
X11688Y15126D02*
X11686Y15123D01*
X11684Y15118D01*
X11683Y15113D01*
X11682Y15107D01*
X11680Y15091D01*
X11680Y15071D01*
X11679Y15060D01*
X11559D01*
X11559Y15071D01*
X11557Y15107D01*
X11556Y15113D01*
X11555Y15118D01*
X11553Y15123D01*
X11551Y15126D01*
X11549Y15129D01*
X11689D01*
X11688Y15126D01*
D02*
G37*
G36*
X11680Y14992D02*
X11682Y14972D01*
X11685Y14954D01*
X11689Y14938D01*
X11694Y14925D01*
X11701Y14914D01*
X11709Y14905D01*
X11718Y14899D01*
X11728Y14895D01*
X11739Y14894D01*
X11499D01*
X11511Y14895D01*
X11521Y14899D01*
X11530Y14905D01*
X11538Y14914D01*
X11544Y14925D01*
X11550Y14938D01*
X11554Y14954D01*
X11557Y14972D01*
X11559Y14992D01*
X11559Y15015D01*
X11679D01*
X11680Y14992D01*
D02*
G37*
G36*
X14489Y14543D02*
X14479Y14540D01*
X14470Y14534D01*
X14462Y14525D01*
X14456Y14514D01*
X14450Y14501D01*
X14446Y14485D01*
X14443Y14467D01*
X14441Y14447D01*
X14441Y14445D01*
X14443Y14417D01*
X14444Y14411D01*
X14445Y14405D01*
X14447Y14401D01*
X14449Y14397D01*
X14451Y14395D01*
X14311D01*
X14312Y14397D01*
X14314Y14401D01*
X14316Y14405D01*
X14317Y14411D01*
X14318Y14417D01*
X14320Y14433D01*
X14320Y14442D01*
X14320Y14447D01*
X14318Y14467D01*
X14315Y14485D01*
X14311Y14501D01*
X14306Y14514D01*
X14299Y14525D01*
X14291Y14534D01*
X14282Y14540D01*
X14272Y14543D01*
X14261Y14545D01*
X14501D01*
X14489Y14543D01*
D02*
G37*
G36*
X16144Y13180D02*
X16143Y13191D01*
X16139Y13202D01*
X16133Y13211D01*
X16125Y13218D01*
X16114Y13225D01*
X16101Y13230D01*
X16085Y13235D01*
X16082Y13235D01*
X16082Y13235D01*
X16077Y13234D01*
X16074Y13232D01*
X16071Y13230D01*
Y13237D01*
X16067Y13238D01*
X16047Y13239D01*
X16024Y13240D01*
Y13360D01*
X16047Y13361D01*
X16067Y13362D01*
X16071Y13363D01*
Y13370D01*
X16074Y13368D01*
X16077Y13366D01*
X16082Y13365D01*
X16082Y13365D01*
X16085Y13365D01*
X16101Y13370D01*
X16114Y13375D01*
X16125Y13382D01*
X16133Y13389D01*
X16139Y13398D01*
X16143Y13409D01*
X16144Y13420D01*
Y13180D01*
D02*
G37*
G36*
X13659Y11790D02*
X13658Y11801D01*
X13654Y11811D01*
X13648Y11820D01*
X13640Y11828D01*
X13629Y11835D01*
X13616Y11840D01*
X13600Y11844D01*
X13582Y11847D01*
X13562Y11849D01*
X13543Y11850D01*
X13524Y11849D01*
X13504Y11847D01*
X13486Y11844D01*
X13470Y11840D01*
X13457Y11835D01*
X13446Y11828D01*
X13438Y11820D01*
X13432Y11811D01*
X13428Y11801D01*
X13427Y11790D01*
Y12030D01*
X13428Y12018D01*
X13432Y12008D01*
X13438Y11999D01*
X13446Y11991D01*
X13457Y11985D01*
X13470Y11979D01*
X13486Y11975D01*
X13504Y11972D01*
X13524Y11970D01*
X13543Y11970D01*
X13562Y11970D01*
X13582Y11972D01*
X13600Y11975D01*
X13616Y11979D01*
X13629Y11985D01*
X13640Y11991D01*
X13648Y11999D01*
X13654Y12008D01*
X13658Y12018D01*
X13659Y12030D01*
Y11790D01*
D02*
G37*
G36*
X13409Y11734D02*
X13398Y11730D01*
X13389Y11724D01*
X13382Y11715D01*
X13375Y11705D01*
X13370Y11691D01*
X13365Y11675D01*
X13362Y11657D01*
X13361Y11637D01*
X13360Y11626D01*
X13362Y11593D01*
X13364Y11587D01*
X13365Y11582D01*
X13366Y11577D01*
X13368Y11574D01*
X13370Y11571D01*
X13230D01*
X13232Y11574D01*
X13234Y11577D01*
X13235Y11582D01*
X13236Y11587D01*
X13238Y11593D01*
X13239Y11609D01*
X13240Y11624D01*
X13239Y11637D01*
X13238Y11657D01*
X13235Y11675D01*
X13230Y11691D01*
X13225Y11705D01*
X13218Y11715D01*
X13211Y11724D01*
X13202Y11730D01*
X13191Y11734D01*
X13180Y11735D01*
X13420D01*
X13409Y11734D01*
D02*
G37*
%LPC*%
G36*
X11569Y12161D02*
X11418D01*
Y11964D01*
X11569D01*
Y12161D01*
D02*
G37*
G36*
X11821Y11864D02*
X11669D01*
Y11666D01*
X11821D01*
Y11864D01*
D02*
G37*
G36*
X11569D02*
X11418D01*
Y11666D01*
X11569D01*
Y11864D01*
D02*
G37*
G36*
X12660Y11869D02*
X12502D01*
Y11662D01*
X12660D01*
Y11869D01*
D02*
G37*
%LPD*%
D11*
X14381Y14323D02*
G03*
X14400Y14304I19J0D01*
G01*
X14381Y14323D02*
X14400Y14304D01*
X12103Y13212D02*
X12190Y13300D01*
X12103Y13132D02*
Y13212D01*
X11619Y12604D02*
Y12649D01*
D22*
X19095Y14800D02*
D03*
X19332Y11800D02*
D03*
D23*
X10709Y14304D02*
D03*
Y12296D02*
D03*
D25*
X12776Y12926D02*
G03*
X12650Y12800I0J-126D01*
G01*
X12500Y12600D02*
G03*
X12650Y12750I0J150D01*
G01*
X15000Y12110D02*
G03*
X14910Y12200I-90J0D01*
G01*
X14650Y12300D02*
G03*
X14750Y12200I100J0D01*
G01*
X14650Y12500D02*
G03*
X14520Y12630I-130J0D01*
G01*
X15381Y12481D02*
G03*
X15500Y12600I0J119D01*
G01*
Y14014D02*
G03*
X15404Y14110I-96J0D01*
G01*
X13290Y11919D02*
G03*
X13300Y11910I10J0D01*
G01*
X14300Y11960D02*
G03*
X14351Y11910I51J0D01*
G01*
X11600Y14739D02*
G03*
X11619Y14719I19J0D01*
G01*
X12776Y12926D02*
X13230D01*
X12650Y12750D02*
Y12800D01*
X12181Y11914D02*
Y12600D01*
X12500D01*
X12150D02*
X12181D01*
X11300Y13300D02*
X11610D01*
X14351Y11910D02*
Y12300D01*
X16000Y13300D02*
X17068D01*
X17068Y13300D01*
X15000Y11919D02*
Y12110D01*
X14650Y12300D02*
Y12500D01*
X14750Y12200D02*
X14910D01*
X14170Y12630D02*
X14520D01*
X15000Y12481D02*
X15381D01*
X15500Y12600D02*
Y14014D01*
X15000Y14110D02*
X15404D01*
X14381Y14323D02*
Y14719D01*
X14170Y12630D02*
Y12926D01*
X13300Y11910D02*
X13789D01*
X13300D02*
X13300D01*
Y11500D02*
Y11910D01*
X13290Y13734D02*
Y14719D01*
X13230Y13674D02*
X13290Y13734D01*
X13230Y13674D02*
X13230D01*
X13290Y14719D02*
X13819D01*
X11619Y14739D02*
Y15200D01*
X12181Y14719D02*
X12181Y14719D01*
X12181Y11914D02*
X12181Y11914D01*
Y14014D02*
Y14719D01*
Y14014D02*
X12181Y14014D01*
X12181Y14719D02*
X12710D01*
X11619Y12649D02*
X12103Y13132D01*
D26*
X12600Y13550D02*
G03*
X12500Y13650I-100J0D01*
G01*
X15700Y14490D02*
G03*
X15890Y14300I190J0D01*
G01*
X15700Y14490D02*
G03*
X15500Y14690I-200J0D01*
G01*
X12600Y13400D02*
G03*
X12700Y13300I100J0D01*
G01*
X15000Y13200D02*
G03*
X14900Y13300I-100J0D01*
G01*
X12600Y13400D02*
Y13550D01*
X11300Y13650D02*
X12500D01*
X15890Y14300D02*
X17068D01*
X15000Y14690D02*
X15500D01*
X12700Y13300D02*
X13230D01*
Y13300D02*
X14900D01*
X15000Y13010D02*
Y13200D01*
X13230Y13300D02*
Y13300D01*
D27*
X13300Y11910D02*
D03*
D28*
X19095Y11300D02*
D03*
Y15300D02*
D03*
D29*
X17068Y12300D02*
D03*
Y14300D02*
D03*
Y13300D02*
D03*
D30*
X12181Y14719D02*
D03*
X11619D02*
D03*
Y11914D02*
D03*
X12181D02*
D03*
X14351Y11910D02*
D03*
X13789D02*
D03*
X11619Y12604D02*
D03*
X12181D02*
D03*
X14381Y14719D02*
D03*
X13819D02*
D03*
X11619Y14014D02*
D03*
X12181D02*
D03*
D31*
X15000Y11919D02*
D03*
Y12481D02*
D03*
D32*
X12710Y11919D02*
D03*
X13290D02*
D03*
X11610Y13300D02*
D03*
X12190D02*
D03*
X13290Y14719D02*
D03*
X12710D02*
D03*
D33*
X15000Y14690D02*
D03*
Y14110D02*
D03*
Y13590D02*
D03*
Y13010D02*
D03*
D34*
X13230Y13674D02*
D03*
Y13300D02*
D03*
Y12926D02*
D03*
X14170D02*
D03*
Y13674D02*
D03*
D35*
X16500Y11200D02*
D03*
Y15400D02*
D03*
X10700D02*
D03*
Y11200D02*
D03*
D36*
X11050Y12800D02*
D03*
X11300Y13300D02*
D03*
X19800Y15700D02*
D03*
Y14500D02*
D03*
X20100Y13900D02*
D03*
X19800Y13300D02*
D03*
X20100Y12700D02*
D03*
X19800Y12100D02*
D03*
Y10900D02*
D03*
X19200Y15700D02*
D03*
X19500Y13900D02*
D03*
X19200Y13300D02*
D03*
X19500Y12700D02*
D03*
X19200Y10900D02*
D03*
X18600Y15700D02*
D03*
Y14500D02*
D03*
X18900Y13900D02*
D03*
X18600Y13300D02*
D03*
X18900Y12700D02*
D03*
X18600Y12100D02*
D03*
Y10900D02*
D03*
X18000Y15700D02*
D03*
X18300Y13900D02*
D03*
Y12700D02*
D03*
X18000Y10900D02*
D03*
X17400Y15700D02*
D03*
X17700Y15100D02*
D03*
Y11500D02*
D03*
X17400Y10900D02*
D03*
X15600Y15700D02*
D03*
X15900Y13900D02*
D03*
X15600Y10900D02*
D03*
X15000Y15700D02*
D03*
X15300Y15100D02*
D03*
Y11500D02*
D03*
X15000Y10900D02*
D03*
X14400Y15700D02*
D03*
X14700Y11500D02*
D03*
X14400Y10900D02*
D03*
X13800Y15700D02*
D03*
X14100Y15100D02*
D03*
Y11500D02*
D03*
X13800Y10900D02*
D03*
X13200Y15700D02*
D03*
X13500Y15100D02*
D03*
X13200Y10900D02*
D03*
X12600Y15700D02*
D03*
X12900Y15100D02*
D03*
X12600Y10900D02*
D03*
X12000Y15700D02*
D03*
Y10900D02*
D03*
X11400Y15700D02*
D03*
Y10900D02*
D03*
X16000Y13300D02*
D03*
X11200Y13000D02*
D03*
X14381Y14323D02*
D03*
X14170Y12630D02*
D03*
X13300Y11500D02*
D03*
X14351Y12300D02*
D03*
X11619Y15200D02*
D03*
D37*
X11300Y13650D02*
D03*
M02*
