M48
;Layer_Color=9474304
;FILE_FORMAT=2:4
INCH,TZ
;TYPE=PLATED
T1F00S00C0.0100
T2F00S00C0.0394
;TYPE=NON_PLATED
T3F00S00C0.0236
T4F00S00C0.0787
%
T01
X10400Y11300
X11150Y12650
Y12910
X11450Y13450
X11200Y14250
X11400Y15200
X10800
X10500Y14701
X12000Y15200
X12600
X13200
X13800
X14400
X15000
X15600
X15500Y13590
Y13010
Y11919
X14050Y11300
X13450
X13000Y12450
X12700
X9500Y12900
X8900
X9200Y13300
X9800
X9500Y13700
X8900
X14531Y14369
X16200Y15200
X16800
X17400
X18300Y14600
X18600Y14000
X19200
X19800
X20400
X20100Y14600
X19500
Y13400
X18900
X18300
X18600Y12800
X19200
X19800
X20400
X20100Y13400
Y12200
X19500
X18900
X18300
X17500Y11700
X16900
X17100Y11300
X16500
T02
X19332Y11800
X19095Y14800
T03
X10709Y12296
Y14304
T04
X9400Y11800
Y14800
M30
