G04 Layer_Color=65535*
%FSLAX24Y24*%
%MOIN*%
G70*
G01*
G75*
%ADD19C,0.0098*%
%ADD20C,0.0236*%
%ADD21C,0.0079*%
%ADD22C,0.0100*%
D19*
X11252Y3291D02*
G03*
X11252Y3291I-49J0D01*
G01*
X6476Y3585D02*
G03*
X6476Y3585I-49J0D01*
G01*
D20*
X7382Y3091D02*
G03*
X7382Y3091I-118J0D01*
G01*
D21*
X10474Y4276D02*
Y4591D01*
X10868D01*
X10474Y3409D02*
Y3724D01*
Y3409D02*
X10868D01*
X4274Y3480D02*
Y3520D01*
X4726Y3480D02*
Y3520D01*
Y1730D02*
Y1770D01*
X4274Y1730D02*
Y1770D01*
X3274Y3480D02*
Y3520D01*
X3726Y3480D02*
Y3520D01*
X3274Y1730D02*
Y1770D01*
X3726Y1730D02*
Y1770D01*
X6870Y1516D02*
X8130D01*
X6870Y3484D02*
X8130D01*
Y1516D02*
Y3484D01*
X6870Y1516D02*
Y3484D01*
X12274Y1730D02*
Y1770D01*
X12726Y1730D02*
Y1770D01*
X11274Y1730D02*
Y1770D01*
X11726Y1730D02*
Y1770D01*
X7480Y4024D02*
X7520D01*
X7480Y4476D02*
X7520D01*
X7480Y976D02*
X7520D01*
X7480Y524D02*
X7520D01*
D22*
X2517Y4583D02*
X2450Y4650D01*
X2317D01*
X2250Y4583D01*
Y4317D01*
X2317Y4250D01*
X2450D01*
X2517Y4317D01*
X2650Y4250D02*
X2783D01*
X2717D01*
Y4650D01*
X2650Y4583D01*
X2417Y883D02*
X2350Y950D01*
X2217D01*
X2150Y883D01*
Y617D01*
X2217Y550D01*
X2350D01*
X2417Y617D01*
X2816Y550D02*
X2550D01*
X2816Y817D01*
Y883D01*
X2750Y950D01*
X2617D01*
X2550Y883D01*
X10467D02*
X10400Y950D01*
X10267D01*
X10200Y883D01*
Y617D01*
X10267Y550D01*
X10400D01*
X10467Y617D01*
X10600Y883D02*
X10667Y950D01*
X10800D01*
X10866Y883D01*
Y817D01*
X10800Y750D01*
X10733D01*
X10800D01*
X10866Y683D01*
Y617D01*
X10800Y550D01*
X10667D01*
X10600Y617D01*
X12517Y4583D02*
X12450Y4650D01*
X12317D01*
X12250Y4583D01*
Y4317D01*
X12317Y4250D01*
X12450D01*
X12517Y4317D01*
X12850Y4250D02*
Y4650D01*
X12650Y4450D01*
X12916D01*
X10500Y3150D02*
Y2750D01*
X10700D01*
X10767Y2817D01*
Y3083D01*
X10700Y3150D01*
X10500D01*
X10900Y2750D02*
X11033D01*
X10967D01*
Y3150D01*
X10900Y3083D01*
X6000Y4400D02*
Y4067D01*
X6067Y4000D01*
X6200D01*
X6267Y4067D01*
Y4400D01*
X6400Y4000D02*
X6533D01*
X6467D01*
Y4400D01*
X6400Y4333D01*
X3250Y4250D02*
Y4650D01*
X3450D01*
X3517Y4583D01*
Y4450D01*
X3450Y4383D01*
X3250D01*
X3383D02*
X3517Y4250D01*
X3650D02*
X3783D01*
X3717D01*
Y4650D01*
X3650Y4583D01*
X8250Y500D02*
Y900D01*
X8450D01*
X8517Y833D01*
Y700D01*
X8450Y633D01*
X8250D01*
X8383D02*
X8517Y500D01*
X8916D02*
X8650D01*
X8916Y767D01*
Y833D01*
X8850Y900D01*
X8717D01*
X8650Y833D01*
X3200Y550D02*
Y950D01*
X3400D01*
X3467Y883D01*
Y750D01*
X3400Y683D01*
X3200D01*
X3333D02*
X3467Y550D01*
X3600Y883D02*
X3667Y950D01*
X3800D01*
X3866Y883D01*
Y817D01*
X3800Y750D01*
X3733D01*
X3800D01*
X3866Y683D01*
Y617D01*
X3800Y550D01*
X3667D01*
X3600Y617D01*
X4250Y4250D02*
Y4650D01*
X4450D01*
X4517Y4583D01*
Y4450D01*
X4450Y4383D01*
X4250D01*
X4383D02*
X4517Y4250D01*
X4850D02*
Y4650D01*
X4650Y4450D01*
X4916D01*
X4150Y550D02*
Y950D01*
X4350D01*
X4417Y883D01*
Y750D01*
X4350Y683D01*
X4150D01*
X4283D02*
X4417Y550D01*
X4816Y950D02*
X4550D01*
Y750D01*
X4683Y817D01*
X4750D01*
X4816Y750D01*
Y617D01*
X4750Y550D01*
X4617D01*
X4550Y617D01*
X11250Y500D02*
Y900D01*
X11450D01*
X11517Y833D01*
Y700D01*
X11450Y633D01*
X11250D01*
X11383D02*
X11517Y500D01*
X11916Y900D02*
X11783Y833D01*
X11650Y700D01*
Y567D01*
X11717Y500D01*
X11850D01*
X11916Y567D01*
Y633D01*
X11850Y700D01*
X11650D01*
X12250Y500D02*
Y900D01*
X12450D01*
X12517Y833D01*
Y700D01*
X12450Y633D01*
X12250D01*
X12383D02*
X12517Y500D01*
X12650Y900D02*
X12916D01*
Y833D01*
X12650Y567D01*
Y500D01*
X8250Y4000D02*
Y4400D01*
X8450D01*
X8517Y4333D01*
Y4200D01*
X8450Y4133D01*
X8250D01*
X8383D02*
X8517Y4000D01*
X8650Y4333D02*
X8717Y4400D01*
X8850D01*
X8916Y4333D01*
Y4267D01*
X8850Y4200D01*
X8916Y4133D01*
Y4067D01*
X8850Y4000D01*
X8717D01*
X8650Y4067D01*
Y4133D01*
X8717Y4200D01*
X8650Y4267D01*
Y4333D01*
X8717Y4200D02*
X8850D01*
M02*
