G04 Layer_Physical_Order=2*
G04 Layer_Color=16711680*
%FSLAX24Y24*%
%MOIN*%
G70*
G01*
G75*
%ADD15C,0.0200*%
%ADD16R,0.0680X0.0680*%
%ADD17C,0.0680*%
%ADD18C,0.0500*%
G36*
X14500Y250D02*
X250D01*
Y4750D01*
X14500D01*
Y250D01*
D02*
G37*
%LPC*%
G36*
X13850Y4431D02*
Y4100D01*
X14181D01*
X14179Y4115D01*
X14134Y4222D01*
X14064Y4314D01*
X13972Y4384D01*
X13865Y4429D01*
X13850Y4431D01*
D02*
G37*
G36*
X13650D02*
X13635Y4429D01*
X13528Y4384D01*
X13436Y4314D01*
X13366Y4222D01*
X13321Y4115D01*
X13319Y4100D01*
X13650D01*
Y4431D01*
D02*
G37*
G36*
X9500Y4103D02*
X9409Y4091D01*
X9323Y4056D01*
X9250Y4000D01*
X9215Y3954D01*
X5535D01*
X5500Y4000D01*
X5427Y4056D01*
X5341Y4091D01*
X5250Y4103D01*
X5159Y4091D01*
X5073Y4056D01*
X5000Y4000D01*
X4944Y3927D01*
X4909Y3841D01*
X4897Y3750D01*
X4909Y3659D01*
X4944Y3573D01*
X5000Y3500D01*
X5073Y3444D01*
X5159Y3409D01*
X5250Y3397D01*
X5341Y3409D01*
X5427Y3444D01*
X5500Y3500D01*
X5535Y3546D01*
X9215D01*
X9250Y3500D01*
X9323Y3444D01*
X9409Y3409D01*
X9500Y3397D01*
X9591Y3409D01*
X9677Y3444D01*
X9750Y3500D01*
X9806Y3573D01*
X9841Y3659D01*
X9853Y3750D01*
X9841Y3841D01*
X9806Y3927D01*
X9750Y4000D01*
X9677Y4056D01*
X9591Y4091D01*
X9500Y4103D01*
D02*
G37*
G36*
X14181Y3900D02*
X13850D01*
Y3569D01*
X13865Y3571D01*
X13972Y3616D01*
X14064Y3686D01*
X14134Y3778D01*
X14179Y3885D01*
X14181Y3900D01*
D02*
G37*
G36*
X13650D02*
X13319D01*
X13321Y3885D01*
X13366Y3778D01*
X13436Y3686D01*
X13528Y3616D01*
X13635Y3571D01*
X13650Y3569D01*
Y3900D01*
D02*
G37*
G36*
X1440Y4440D02*
X560D01*
Y3560D01*
X1440D01*
Y4440D01*
D02*
G37*
G36*
X1100Y3431D02*
Y3100D01*
X1431D01*
X1429Y3115D01*
X1384Y3222D01*
X1314Y3314D01*
X1222Y3384D01*
X1115Y3429D01*
X1100Y3431D01*
D02*
G37*
G36*
X900D02*
X885Y3429D01*
X778Y3384D01*
X686Y3314D01*
X616Y3222D01*
X571Y3115D01*
X569Y3100D01*
X900D01*
Y3431D01*
D02*
G37*
G36*
X7850Y3087D02*
Y2850D01*
X8087D01*
X8056Y2927D01*
X8000Y3000D01*
X7927Y3056D01*
X7850Y3087D01*
D02*
G37*
G36*
X7650D02*
X7573Y3056D01*
X7500Y3000D01*
X7444Y2927D01*
X7413Y2850D01*
X7650D01*
Y3087D01*
D02*
G37*
G36*
X1431Y2900D02*
X1100D01*
Y2569D01*
X1115Y2571D01*
X1222Y2616D01*
X1314Y2686D01*
X1384Y2778D01*
X1429Y2885D01*
X1431Y2900D01*
D02*
G37*
G36*
X900D02*
X569D01*
X571Y2885D01*
X616Y2778D01*
X686Y2686D01*
X778Y2616D01*
X885Y2571D01*
X900Y2569D01*
Y2900D01*
D02*
G37*
G36*
X13750Y3444D02*
X13635Y3429D01*
X13528Y3384D01*
X13436Y3314D01*
X13366Y3222D01*
X13321Y3115D01*
X13306Y3000D01*
X13321Y2885D01*
X13366Y2778D01*
X13436Y2686D01*
X13528Y2616D01*
X13635Y2571D01*
X13750Y2556D01*
X13865Y2571D01*
X13972Y2616D01*
X14064Y2686D01*
X14134Y2778D01*
X14179Y2885D01*
X14194Y3000D01*
X14179Y3115D01*
X14134Y3222D01*
X14064Y3314D01*
X13972Y3384D01*
X13865Y3429D01*
X13750Y3444D01*
D02*
G37*
G36*
X8087Y2650D02*
X7850D01*
Y2413D01*
X7927Y2444D01*
X8000Y2500D01*
X8056Y2573D01*
X8087Y2650D01*
D02*
G37*
G36*
X7650D02*
X7413D01*
X7444Y2573D01*
X7500Y2500D01*
X7573Y2444D01*
X7650Y2413D01*
Y2650D01*
D02*
G37*
G36*
X1100Y2431D02*
Y2100D01*
X1431D01*
X1429Y2115D01*
X1384Y2222D01*
X1314Y2314D01*
X1222Y2384D01*
X1115Y2429D01*
X1100Y2431D01*
D02*
G37*
G36*
X900D02*
X885Y2429D01*
X778Y2384D01*
X686Y2314D01*
X616Y2222D01*
X571Y2115D01*
X569Y2100D01*
X900D01*
Y2431D01*
D02*
G37*
G36*
X1431Y1900D02*
X1100D01*
Y1569D01*
X1115Y1571D01*
X1222Y1616D01*
X1314Y1686D01*
X1384Y1778D01*
X1429Y1885D01*
X1431Y1900D01*
D02*
G37*
G36*
X900D02*
X569D01*
X571Y1885D01*
X616Y1778D01*
X686Y1686D01*
X778Y1616D01*
X885Y1571D01*
X900Y1569D01*
Y1900D01*
D02*
G37*
G36*
X13750Y2444D02*
X13635Y2429D01*
X13528Y2384D01*
X13436Y2314D01*
X13366Y2222D01*
X13321Y2115D01*
X13306Y2000D01*
X13321Y1885D01*
X13366Y1778D01*
X13436Y1686D01*
X13528Y1616D01*
X13635Y1571D01*
X13750Y1556D01*
X13865Y1571D01*
X13972Y1616D01*
X14064Y1686D01*
X14134Y1778D01*
X14179Y1885D01*
X14194Y2000D01*
X14179Y2115D01*
X14134Y2222D01*
X14064Y2314D01*
X13972Y2384D01*
X13865Y2429D01*
X13750Y2444D01*
D02*
G37*
G36*
X14190Y1440D02*
X13850D01*
Y1100D01*
X14190D01*
Y1440D01*
D02*
G37*
G36*
X9600Y1337D02*
Y1100D01*
X9837D01*
X9806Y1177D01*
X9750Y1250D01*
X9677Y1306D01*
X9600Y1337D01*
D02*
G37*
G36*
X9400D02*
X9323Y1306D01*
X9250Y1250D01*
X9194Y1177D01*
X9163Y1100D01*
X9400D01*
Y1337D01*
D02*
G37*
G36*
X6350D02*
Y1100D01*
X6587D01*
X6556Y1177D01*
X6500Y1250D01*
X6427Y1306D01*
X6350Y1337D01*
D02*
G37*
G36*
X6150D02*
X6073Y1306D01*
X6000Y1250D01*
X5944Y1177D01*
X5913Y1100D01*
X6150D01*
Y1337D01*
D02*
G37*
G36*
X5450D02*
Y1100D01*
X5687D01*
X5656Y1177D01*
X5600Y1250D01*
X5527Y1306D01*
X5450Y1337D01*
D02*
G37*
G36*
X5250D02*
X5173Y1306D01*
X5100Y1250D01*
X5044Y1177D01*
X5013Y1100D01*
X5250D01*
Y1337D01*
D02*
G37*
G36*
X13650Y1440D02*
X13310D01*
Y1100D01*
X13650D01*
Y1440D01*
D02*
G37*
G36*
X9837Y900D02*
X9600D01*
Y663D01*
X9677Y694D01*
X9750Y750D01*
X9806Y823D01*
X9837Y900D01*
D02*
G37*
G36*
X9400D02*
X9163D01*
X9194Y823D01*
X9250Y750D01*
X9323Y694D01*
X9400Y663D01*
Y900D01*
D02*
G37*
G36*
X6587D02*
X6350D01*
Y663D01*
X6427Y694D01*
X6500Y750D01*
X6556Y823D01*
X6587Y900D01*
D02*
G37*
G36*
X6150D02*
X5913D01*
X5944Y823D01*
X6000Y750D01*
X6073Y694D01*
X6150Y663D01*
Y900D01*
D02*
G37*
G36*
X5687D02*
X5450D01*
Y663D01*
X5527Y694D01*
X5600Y750D01*
X5656Y823D01*
X5687Y900D01*
D02*
G37*
G36*
X5250D02*
X5013D01*
X5044Y823D01*
X5100Y750D01*
X5173Y694D01*
X5250Y663D01*
Y900D01*
D02*
G37*
G36*
X14190D02*
X13850D01*
Y560D01*
X14190D01*
Y900D01*
D02*
G37*
G36*
X13650D02*
X13310D01*
Y560D01*
X13650D01*
Y900D01*
D02*
G37*
G36*
X1000Y1444D02*
X885Y1429D01*
X778Y1384D01*
X686Y1314D01*
X616Y1222D01*
X571Y1115D01*
X556Y1000D01*
X571Y885D01*
X616Y778D01*
X686Y686D01*
X778Y616D01*
X885Y571D01*
X1000Y556D01*
X1115Y571D01*
X1222Y616D01*
X1314Y686D01*
X1384Y778D01*
X1429Y885D01*
X1444Y1000D01*
X1429Y1115D01*
X1384Y1222D01*
X1314Y1314D01*
X1222Y1384D01*
X1115Y1429D01*
X1000Y1444D01*
D02*
G37*
%LPD*%
D15*
X5250Y3750D02*
X9500D01*
D16*
X13750Y1000D02*
D03*
X1000Y4000D02*
D03*
D17*
X13750D02*
D03*
Y3000D02*
D03*
Y2000D02*
D03*
X1000Y1000D02*
D03*
Y2000D02*
D03*
Y3000D02*
D03*
D18*
X9500Y3750D02*
D03*
X5250D02*
D03*
X5350Y1000D02*
D03*
X9500D02*
D03*
X7750Y2750D02*
D03*
X6250Y1000D02*
D03*
M02*
