G04 Layer_Color=32896*
%FSLAX24Y24*%
%MOIN*%
G70*
G01*
G75*
%ADD22C,0.0100*%
D22*
X13000Y500D02*
Y4500D01*
X1750Y500D02*
Y4500D01*
X12167Y4167D02*
X12250Y4250D01*
X12417D01*
X12500Y4167D01*
Y3833D01*
X12417Y3750D01*
X12250D01*
X12167Y3833D01*
Y4000D01*
X12333D01*
X12000Y3750D02*
Y4250D01*
X11667Y3750D01*
Y4250D01*
X11500D02*
Y3750D01*
X11250D01*
X11167Y3833D01*
Y4167D01*
X11250Y4250D01*
X11500D01*
X12167Y1167D02*
X12250Y1250D01*
X12417D01*
X12500Y1167D01*
Y833D01*
X12417Y750D01*
X12250D01*
X12167Y833D01*
Y1000D01*
X12333D01*
X12000Y750D02*
Y1250D01*
X11667Y750D01*
Y1250D01*
X11500D02*
Y750D01*
X11250D01*
X11167Y833D01*
Y1167D01*
X11250Y1250D01*
X11500D01*
X12250Y2250D02*
X12417D01*
X12500Y2167D01*
Y1833D01*
X12417Y1750D01*
X12250D01*
X12167Y1833D01*
Y2167D01*
X12250Y2250D01*
X12000Y2083D02*
Y1833D01*
X11917Y1750D01*
X11667D01*
Y2083D01*
X11417Y2167D02*
Y2083D01*
X11500D01*
X11334D01*
X11417D01*
Y1833D01*
X11334Y1750D01*
X11084Y1583D02*
Y2083D01*
X10834D01*
X10751Y2000D01*
Y1833D01*
X10834Y1750D01*
X11084D01*
X10584Y2083D02*
Y1833D01*
X10501Y1750D01*
X10251D01*
Y2083D01*
X10001Y2167D02*
Y2083D01*
X10084D01*
X9918D01*
X10001D01*
Y1833D01*
X9918Y1750D01*
X12500Y3000D02*
X12167D01*
X12333Y3167D02*
Y2833D01*
X12000D02*
X11917Y2750D01*
X11750D01*
X11667Y2833D01*
Y3167D01*
X11750Y3250D01*
X11917D01*
X12000Y3167D01*
Y3083D01*
X11917Y3000D01*
X11667D01*
X11500Y3250D02*
Y2917D01*
X11334Y2750D01*
X11167Y2917D01*
Y3250D01*
X3500Y1250D02*
Y750D01*
X3167D01*
X2667D02*
X3000D01*
X2667Y1083D01*
Y1167D01*
X2750Y1250D01*
X2917D01*
X3000Y1167D01*
X2500Y1000D02*
X2167D01*
X2334Y1167D02*
Y833D01*
X3500Y2250D02*
Y1750D01*
X3167D01*
X2667D02*
X3000D01*
X2667Y2083D01*
Y2167D01*
X2750Y2250D01*
X2917D01*
X3000Y2167D01*
X2500Y2000D02*
X2167D01*
X3500Y3250D02*
Y2750D01*
X3167D01*
X3000D02*
X2834D01*
X2917D01*
Y3250D01*
X3000Y3167D01*
X2584Y3000D02*
X2250D01*
X3500Y4250D02*
Y3750D01*
X3167D01*
X3000D02*
X2834D01*
X2917D01*
Y4250D01*
X3000Y4167D01*
X2584Y4000D02*
X2250D01*
X2417Y4167D02*
Y3833D01*
M02*
