G04 Layer_Physical_Order=1*
G04 Layer_Color=255*
%FSLAX24Y24*%
%MOIN*%
G70*
G01*
G75*
%ADD10R,0.0354X0.0236*%
%ADD11R,0.0532X0.0374*%
%ADD12R,0.0571X0.0453*%
%ADD13R,0.0571X0.0236*%
%ADD14R,0.0374X0.0532*%
%ADD15C,0.0200*%
%ADD16R,0.0680X0.0680*%
%ADD17C,0.0680*%
%ADD18C,0.0500*%
G36*
X14500Y250D02*
X250D01*
Y4750D01*
X14500D01*
Y250D01*
D02*
G37*
%LPC*%
G36*
X7423Y4616D02*
X7236D01*
Y4350D01*
X7423D01*
Y4616D01*
D02*
G37*
G36*
X7036D02*
X6849D01*
Y4350D01*
X7036D01*
Y4616D01*
D02*
G37*
G36*
X11480Y4592D02*
X10926D01*
Y4156D01*
X11480D01*
Y4592D01*
D02*
G37*
G36*
X13850Y4431D02*
Y4100D01*
X14181D01*
X14179Y4115D01*
X14134Y4222D01*
X14064Y4314D01*
X13972Y4384D01*
X13865Y4429D01*
X13850Y4431D01*
D02*
G37*
G36*
X13650D02*
X13635Y4429D01*
X13528Y4384D01*
X13436Y4314D01*
X13366Y4222D01*
X13321Y4115D01*
X13319Y4100D01*
X13650D01*
Y4431D01*
D02*
G37*
G36*
X10574Y4218D02*
X10020D01*
Y4011D01*
X9963Y3954D01*
X9785D01*
X9750Y4000D01*
X9677Y4056D01*
X9591Y4091D01*
X9500Y4103D01*
X9409Y4091D01*
X9323Y4056D01*
X9250Y4000D01*
X9194Y3927D01*
X9159Y3841D01*
X9147Y3750D01*
X9159Y3659D01*
X9194Y3573D01*
X9250Y3500D01*
X9323Y3444D01*
X9409Y3409D01*
X9500Y3397D01*
X9591Y3409D01*
X9677Y3444D01*
X9750Y3500D01*
X9785Y3546D01*
X10047D01*
X10125Y3562D01*
X10191Y3606D01*
X10368Y3782D01*
X10574D01*
Y4218D01*
D02*
G37*
G36*
X12885Y4141D02*
X12600D01*
Y3915D01*
X12885D01*
Y4141D01*
D02*
G37*
G36*
X12400D02*
X12115D01*
Y3915D01*
X12400D01*
Y4141D01*
D02*
G37*
G36*
X7423Y4150D02*
X7236D01*
Y3884D01*
X7423D01*
Y4150D01*
D02*
G37*
G36*
X7036D02*
X6849D01*
Y3884D01*
X7036D01*
Y4150D01*
D02*
G37*
G36*
X14181Y3900D02*
X13850D01*
Y3569D01*
X13865Y3571D01*
X13972Y3616D01*
X14064Y3686D01*
X14134Y3778D01*
X14179Y3885D01*
X14181Y3900D01*
D02*
G37*
G36*
X13650D02*
X13319D01*
X13321Y3885D01*
X13366Y3778D01*
X13436Y3686D01*
X13528Y3616D01*
X13635Y3571D01*
X13650Y3569D01*
Y3900D01*
D02*
G37*
G36*
X1100Y3431D02*
Y3100D01*
X1431D01*
X1429Y3115D01*
X1384Y3222D01*
X1314Y3314D01*
X1222Y3384D01*
X1115Y3429D01*
X1100Y3431D01*
D02*
G37*
G36*
X900D02*
X885Y3429D01*
X778Y3384D01*
X686Y3314D01*
X616Y3222D01*
X571Y3115D01*
X569Y3100D01*
X900D01*
Y3431D01*
D02*
G37*
G36*
X1440Y4440D02*
X560D01*
Y3560D01*
X1440D01*
Y3796D01*
X2115D01*
Y3489D01*
Y2859D01*
X2885D01*
Y2981D01*
X3134D01*
Y2849D01*
X3866D01*
Y3423D01*
X3134D01*
Y3389D01*
X2885D01*
Y3489D01*
Y4141D01*
X2462D01*
X2459Y4144D01*
X2393Y4188D01*
X2315Y4204D01*
X1440D01*
Y4440D01*
D02*
G37*
G36*
X8151Y4616D02*
X7577D01*
Y3884D01*
X7660D01*
Y3386D01*
X7676Y3308D01*
X7720Y3242D01*
X7760Y3201D01*
X7757Y3173D01*
X7721Y3099D01*
X7659Y3091D01*
X7573Y3056D01*
X7500Y3000D01*
X7444Y2927D01*
X7409Y2841D01*
X7398Y2761D01*
X7370Y2745D01*
X7299Y2730D01*
X7280Y2758D01*
X7144Y2894D01*
X7078Y2938D01*
X7000Y2954D01*
X6866D01*
X6813Y3032D01*
X6813Y3068D01*
Y3468D01*
X6054D01*
X6042Y3468D01*
X5954Y3498D01*
Y4000D01*
X5954Y4000D01*
X5938Y4078D01*
X5894Y4144D01*
X5643Y4395D01*
X5577Y4440D01*
X5499Y4455D01*
X3887D01*
X3809Y4440D01*
X3743Y4395D01*
X3499Y4151D01*
X3134D01*
Y3577D01*
X3866D01*
Y3942D01*
X3971Y4047D01*
X4134D01*
Y3577D01*
X4866D01*
Y3577D01*
X4957Y3557D01*
X5000Y3500D01*
X5073Y3444D01*
X5159Y3409D01*
X5250Y3397D01*
X5341Y3409D01*
X5427Y3444D01*
X5446Y3459D01*
X5546Y3410D01*
Y3000D01*
X5562Y2922D01*
X5606Y2856D01*
X5856Y2606D01*
X5922Y2562D01*
X5975Y2551D01*
Y2449D01*
X5922Y2438D01*
X5856Y2394D01*
X5780Y2318D01*
X4866D01*
Y2401D01*
X4704D01*
Y2849D01*
X4866D01*
Y3423D01*
X4134D01*
Y2849D01*
X4296D01*
Y2401D01*
X4134D01*
Y2318D01*
X3866D01*
Y2401D01*
X3134D01*
Y1827D01*
X3866D01*
Y1910D01*
X4134D01*
Y1827D01*
X4866D01*
Y1910D01*
X5864D01*
X5942Y1926D01*
X6042Y1872D01*
Y1850D01*
X6427D01*
X6813D01*
Y1932D01*
X6813Y2032D01*
X6813Y2068D01*
Y2398D01*
X6872Y2456D01*
X6911Y2472D01*
X6932Y2466D01*
Y1116D01*
X6849D01*
Y384D01*
X7423D01*
Y1116D01*
X7340D01*
Y2565D01*
X7440Y2584D01*
X7444Y2573D01*
X7500Y2500D01*
X7573Y2444D01*
X7650Y2413D01*
Y2750D01*
X7850D01*
Y2413D01*
X7927Y2444D01*
X8000Y2500D01*
X8056Y2573D01*
X8091Y2659D01*
X8187Y2641D01*
X8187Y2536D01*
X8174Y2451D01*
X8172Y2438D01*
X8106Y2394D01*
X7720Y2008D01*
X7676Y1942D01*
X7660Y1864D01*
Y1116D01*
X7577D01*
Y384D01*
X8151D01*
Y1116D01*
X8068D01*
Y1710D01*
X8087Y1722D01*
X8187Y1669D01*
Y1532D01*
X8958D01*
Y1968D01*
X9011Y2046D01*
X9166D01*
X9921Y1291D01*
X9987Y1247D01*
X10065Y1231D01*
X10115D01*
Y1109D01*
X10885D01*
Y1739D01*
Y1861D01*
X11134D01*
Y1827D01*
X11866D01*
Y1910D01*
X12134D01*
Y1827D01*
X12866D01*
Y2401D01*
X12134D01*
Y2318D01*
X11866D01*
Y2401D01*
X11134D01*
Y2269D01*
X10885D01*
Y2391D01*
X10115D01*
Y1815D01*
X10015Y1774D01*
X9394Y2394D01*
X9328Y2438D01*
X9289Y2446D01*
X9299Y2546D01*
X10327D01*
X10405Y2562D01*
X10471Y2606D01*
X11203Y3338D01*
X11500Y3041D01*
X11566Y2997D01*
X11644Y2981D01*
X12115D01*
Y2859D01*
X12885D01*
Y2969D01*
X12985Y2976D01*
X13106Y2856D01*
X13172Y2812D01*
X13250Y2796D01*
X13358D01*
X13366Y2778D01*
X13436Y2686D01*
X13528Y2616D01*
X13635Y2571D01*
X13750Y2556D01*
X13865Y2571D01*
X13972Y2616D01*
X14064Y2686D01*
X14134Y2778D01*
X14179Y2885D01*
X14194Y3000D01*
X14179Y3115D01*
X14134Y3222D01*
X14064Y3314D01*
X13972Y3384D01*
X13865Y3429D01*
X13750Y3444D01*
X13635Y3429D01*
X13528Y3384D01*
X13436Y3314D01*
X13406Y3274D01*
X13284Y3259D01*
X13276Y3263D01*
X13209Y3329D01*
X13143Y3373D01*
X13065Y3389D01*
X12885D01*
Y3489D01*
Y3715D01*
X12115D01*
Y3489D01*
Y3389D01*
X11728D01*
X11480Y3637D01*
Y3844D01*
X10926D01*
Y3637D01*
X10242Y2954D01*
X9011D01*
X8958Y3032D01*
X8958Y3068D01*
Y3468D01*
X8187D01*
Y3454D01*
X8084D01*
X8068Y3470D01*
Y3884D01*
X8151D01*
Y4616D01*
D02*
G37*
G36*
X1431Y2900D02*
X1100D01*
Y2569D01*
X1115Y2571D01*
X1222Y2616D01*
X1314Y2686D01*
X1384Y2778D01*
X1429Y2885D01*
X1431Y2900D01*
D02*
G37*
G36*
X900D02*
X569D01*
X571Y2885D01*
X616Y2778D01*
X686Y2686D01*
X778Y2616D01*
X885Y2571D01*
X900Y2569D01*
Y2900D01*
D02*
G37*
G36*
X1100Y2431D02*
Y2100D01*
X1431D01*
X1429Y2115D01*
X1384Y2222D01*
X1314Y2314D01*
X1222Y2384D01*
X1115Y2429D01*
X1100Y2431D01*
D02*
G37*
G36*
X900D02*
X885Y2429D01*
X778Y2384D01*
X686Y2314D01*
X616Y2222D01*
X571Y2115D01*
X569Y2100D01*
X900D01*
Y2431D01*
D02*
G37*
G36*
X2885Y2391D02*
X2115D01*
Y2269D01*
X2065D01*
X1987Y2253D01*
X1921Y2209D01*
X1495Y1783D01*
X1410Y1840D01*
X1429Y1885D01*
X1431Y1900D01*
X1100D01*
Y1569D01*
X1115Y1571D01*
X1160Y1590D01*
X1217Y1505D01*
X1133Y1421D01*
X1115Y1429D01*
X1000Y1444D01*
X885Y1429D01*
X778Y1384D01*
X686Y1314D01*
X616Y1222D01*
X571Y1115D01*
X556Y1000D01*
X571Y885D01*
X616Y778D01*
X686Y686D01*
X778Y616D01*
X885Y571D01*
X1000Y556D01*
X1115Y571D01*
X1222Y616D01*
X1314Y686D01*
X1384Y778D01*
X1429Y885D01*
X1444Y1000D01*
X1429Y1115D01*
X1421Y1133D01*
X2015Y1726D01*
X2115Y1685D01*
Y1109D01*
X2885D01*
Y1231D01*
X3134D01*
Y1099D01*
X3866D01*
Y1673D01*
X3134D01*
Y1639D01*
X2885D01*
Y1739D01*
Y2391D01*
D02*
G37*
G36*
X13750Y2444D02*
X13635Y2429D01*
X13528Y2384D01*
X13436Y2314D01*
X13366Y2222D01*
X13321Y2115D01*
X13306Y2000D01*
X13321Y1885D01*
X13329Y1867D01*
X13051Y1590D01*
X12866D01*
Y1673D01*
X12134D01*
Y1099D01*
X12866D01*
Y1182D01*
X13136D01*
X13210Y1197D01*
X13214Y1197D01*
X13310Y1141D01*
Y1100D01*
X13650D01*
Y1507D01*
X13636Y1540D01*
X13664Y1567D01*
X13750Y1556D01*
X13865Y1571D01*
X13972Y1616D01*
X14064Y1686D01*
X14134Y1778D01*
X14179Y1885D01*
X14194Y2000D01*
X14179Y2115D01*
X14134Y2222D01*
X14064Y2314D01*
X13972Y2384D01*
X13865Y2429D01*
X13750Y2444D01*
D02*
G37*
G36*
X900Y1900D02*
X569D01*
X571Y1885D01*
X616Y1778D01*
X686Y1686D01*
X778Y1616D01*
X885Y1571D01*
X900Y1569D01*
Y1900D01*
D02*
G37*
G36*
X6813Y1650D02*
X6527D01*
Y1532D01*
X6813D01*
Y1650D01*
D02*
G37*
G36*
X6327D02*
X6042D01*
Y1532D01*
X6327D01*
Y1650D01*
D02*
G37*
G36*
X11866Y1673D02*
X11600D01*
Y1486D01*
X11866D01*
Y1673D01*
D02*
G37*
G36*
X4866D02*
X4600D01*
Y1486D01*
X4866D01*
Y1673D01*
D02*
G37*
G36*
X4400D02*
X4134D01*
Y1486D01*
X4400D01*
Y1673D01*
D02*
G37*
G36*
X11400D02*
X11134D01*
Y1486D01*
X11400D01*
Y1673D01*
D02*
G37*
G36*
X14190Y1440D02*
X13850D01*
Y1100D01*
X14190D01*
Y1440D01*
D02*
G37*
G36*
X9600Y1337D02*
Y1100D01*
X9837D01*
X9806Y1177D01*
X9750Y1250D01*
X9677Y1306D01*
X9600Y1337D01*
D02*
G37*
G36*
X9400D02*
X9323Y1306D01*
X9250Y1250D01*
X9194Y1177D01*
X9163Y1100D01*
X9400D01*
Y1337D01*
D02*
G37*
G36*
X6350D02*
Y1100D01*
X6587D01*
X6556Y1177D01*
X6500Y1250D01*
X6427Y1306D01*
X6350Y1337D01*
D02*
G37*
G36*
X6150D02*
X6073Y1306D01*
X6000Y1250D01*
X5944Y1177D01*
X5913Y1100D01*
X6150D01*
Y1337D01*
D02*
G37*
G36*
X5450D02*
Y1100D01*
X5687D01*
X5656Y1177D01*
X5600Y1250D01*
X5527Y1306D01*
X5450Y1337D01*
D02*
G37*
G36*
X5250D02*
X5173Y1306D01*
X5100Y1250D01*
X5044Y1177D01*
X5013Y1100D01*
X5250D01*
Y1337D01*
D02*
G37*
G36*
X11866Y1286D02*
X11600D01*
Y1099D01*
X11866D01*
Y1286D01*
D02*
G37*
G36*
X11400D02*
X11134D01*
Y1099D01*
X11400D01*
Y1286D01*
D02*
G37*
G36*
X4866D02*
X4600D01*
Y1099D01*
X4866D01*
Y1286D01*
D02*
G37*
G36*
X4400D02*
X4134D01*
Y1099D01*
X4400D01*
Y1286D01*
D02*
G37*
G36*
X9837Y900D02*
X9600D01*
Y663D01*
X9677Y694D01*
X9750Y750D01*
X9806Y823D01*
X9837Y900D01*
D02*
G37*
G36*
X9400D02*
X9163D01*
X9194Y823D01*
X9250Y750D01*
X9323Y694D01*
X9400Y663D01*
Y900D01*
D02*
G37*
G36*
X6587D02*
X6350D01*
Y663D01*
X6427Y694D01*
X6500Y750D01*
X6556Y823D01*
X6587Y900D01*
D02*
G37*
G36*
X6150D02*
X5913D01*
X5944Y823D01*
X6000Y750D01*
X6073Y694D01*
X6150Y663D01*
Y900D01*
D02*
G37*
G36*
X5687D02*
X5450D01*
Y663D01*
X5527Y694D01*
X5600Y750D01*
X5656Y823D01*
X5687Y900D01*
D02*
G37*
G36*
X5250D02*
X5013D01*
X5044Y823D01*
X5100Y750D01*
X5173Y694D01*
X5250Y663D01*
Y900D01*
D02*
G37*
G36*
X14190D02*
X13850D01*
Y560D01*
X14190D01*
Y900D01*
D02*
G37*
G36*
X13650D02*
X13310D01*
Y560D01*
X13650D01*
Y900D01*
D02*
G37*
%LPD*%
D10*
X10297Y4000D02*
D03*
X11203Y4374D02*
D03*
Y3626D02*
D03*
D11*
X4500Y3136D02*
D03*
Y3864D02*
D03*
Y2114D02*
D03*
Y1386D02*
D03*
X3500Y3136D02*
D03*
Y3864D02*
D03*
Y1386D02*
D03*
Y2114D02*
D03*
X12500Y1386D02*
D03*
Y2114D02*
D03*
X11500Y1386D02*
D03*
Y2114D02*
D03*
D12*
X2500Y3815D02*
D03*
Y3185D02*
D03*
Y2065D02*
D03*
Y1435D02*
D03*
X10500Y1435D02*
D03*
Y2065D02*
D03*
X12500Y3815D02*
D03*
Y3185D02*
D03*
D13*
X8573Y1750D02*
D03*
Y2250D02*
D03*
Y2750D02*
D03*
Y3250D02*
D03*
X6427Y1750D02*
D03*
Y2250D02*
D03*
Y2750D02*
D03*
Y3250D02*
D03*
D14*
X7864Y4250D02*
D03*
X7136D02*
D03*
Y750D02*
D03*
X7864D02*
D03*
D15*
X2500Y1435D02*
X3451D01*
X3500Y1386D01*
Y2114D02*
X4500D01*
Y3136D01*
X9500Y3750D02*
X10047D01*
X10297Y4000D01*
X2500Y3185D02*
X3451D01*
X3500Y3136D01*
X5150Y3750D02*
X5250D01*
X5036Y3864D02*
X5150Y3750D01*
X4500Y3864D02*
X5036D01*
X3500D02*
X3887Y4251D01*
X5499D01*
X5750Y4000D01*
Y3000D02*
Y4000D01*
Y3000D02*
X6000Y2750D01*
X6427D01*
X1136Y4000D02*
X2315D01*
X2500Y3815D01*
X7136Y750D02*
Y2614D01*
X7000Y2750D02*
X7136Y2614D01*
X6427Y2750D02*
X7000D01*
X7864Y750D02*
Y1864D01*
X8250Y2250D01*
X8573D01*
X9250D01*
X10065Y1435D01*
X10500D01*
Y2065D02*
X11451D01*
X11500Y2114D01*
X12500D01*
X8573Y2750D02*
X10327D01*
X11203Y3626D01*
X11644Y3185D01*
X12500D01*
X7864Y3386D02*
Y4250D01*
Y3386D02*
X8000Y3250D01*
X8573D01*
X12500Y1386D02*
X13136D01*
X13750Y2000D01*
X13250Y3000D02*
X13750D01*
X13065Y3185D02*
X13250Y3000D01*
X12500Y3185D02*
X13065D01*
X1136Y1000D02*
Y1136D01*
X2065Y2065D01*
X2500D01*
X4500Y2114D02*
X5864D01*
X6000Y2250D01*
X6427D01*
D16*
X13750Y1000D02*
D03*
X1000Y4000D02*
D03*
D17*
X13750D02*
D03*
Y3000D02*
D03*
Y2000D02*
D03*
X1000Y1000D02*
D03*
Y2000D02*
D03*
Y3000D02*
D03*
D18*
X9500Y3750D02*
D03*
X5250D02*
D03*
X5350Y1000D02*
D03*
X9500D02*
D03*
X7750Y2750D02*
D03*
X6250Y1000D02*
D03*
M02*
