G04 Layer_Physical_Order=1*
G04 Layer_Color=255*
%FSLAX24Y24*%
%MOIN*%
G70*
G01*
G75*
%ADD10R,0.0610X0.0236*%
%ADD11R,0.0709X0.0472*%
%ADD12R,0.0571X0.0236*%
%ADD13R,0.0374X0.0532*%
%ADD14R,0.0571X0.0453*%
%ADD15R,0.0532X0.0374*%
%ADD16R,0.0354X0.0236*%
%ADD17C,0.0200*%
%ADD18C,0.0150*%
%ADD19C,0.0500*%
G36*
X14750Y4031D02*
X14730Y3939D01*
X14650Y3939D01*
X13821D01*
Y3267D01*
X14650D01*
X14730Y3267D01*
X14750Y3175D01*
Y1826D01*
X14730Y1734D01*
X14650Y1734D01*
X13821D01*
Y1062D01*
X14650D01*
X14730Y1062D01*
X14750Y970D01*
Y250D01*
X250D01*
Y969D01*
X270Y1061D01*
X350Y1061D01*
X1179D01*
Y1733D01*
X350D01*
X270Y1733D01*
X250Y1825D01*
Y3174D01*
X270Y3266D01*
X350Y3266D01*
X1179D01*
Y3938D01*
X350D01*
X270Y3938D01*
X250Y4030D01*
Y4750D01*
X14750D01*
Y4031D01*
D02*
G37*
%LPC*%
G36*
X10730Y4342D02*
X10176D01*
Y3906D01*
X10730D01*
Y4342D01*
D02*
G37*
G36*
X5616Y4151D02*
X4884D01*
Y3678D01*
X4616D01*
Y4151D01*
X3884D01*
Y3577D01*
X3994D01*
X4029Y3513D01*
X3968Y3423D01*
X3884D01*
Y3363D01*
X3635D01*
Y3489D01*
Y4141D01*
X2865D01*
Y3993D01*
X2565D01*
X2497Y3980D01*
X2439Y3941D01*
X2124Y3626D01*
X2085Y3568D01*
X2072Y3500D01*
Y3308D01*
X1845D01*
Y2872D01*
X2655D01*
Y3308D01*
X2428D01*
Y3426D01*
X2639Y3637D01*
X2865D01*
Y3489D01*
Y2859D01*
X3635D01*
Y3007D01*
X3884D01*
Y2849D01*
X4616D01*
Y3322D01*
X4884D01*
Y2849D01*
X5072D01*
Y2151D01*
X4884D01*
Y2043D01*
X4616D01*
Y2151D01*
X3884D01*
Y1577D01*
X4616D01*
Y1686D01*
X4884D01*
Y1577D01*
X5616D01*
Y1686D01*
X5682Y1699D01*
X5740Y1738D01*
X5972Y1970D01*
X6042Y2032D01*
Y2032D01*
X6042Y2032D01*
X6813D01*
Y2456D01*
X6838Y2476D01*
X6913Y2498D01*
X6957Y2454D01*
Y1116D01*
X6849D01*
Y384D01*
X7423D01*
Y1116D01*
X7314D01*
Y2564D01*
X7301Y2632D01*
X7262Y2690D01*
X7076Y2876D01*
X7018Y2915D01*
X6950Y2928D01*
X6883D01*
X6813Y2999D01*
Y3032D01*
X6813Y3068D01*
Y3468D01*
X6042D01*
Y3258D01*
X5942Y3204D01*
X5928Y3213D01*
Y3336D01*
X5915Y3404D01*
X5876Y3462D01*
X5778Y3560D01*
X5820Y3660D01*
X7351D01*
X7406Y3606D01*
X7472Y3562D01*
X7550Y3546D01*
X8134D01*
X8187Y3468D01*
X8187Y3446D01*
Y3068D01*
X8187Y2968D01*
X8187Y2932D01*
Y2568D01*
X8187Y2463D01*
X8100Y2428D01*
X8032Y2415D01*
X7974Y2376D01*
X7974Y2376D01*
X7738Y2140D01*
X7699Y2082D01*
X7686Y2014D01*
Y1116D01*
X7577D01*
Y384D01*
X8151D01*
Y1116D01*
X8043D01*
Y1918D01*
X8093Y1956D01*
X8117Y1950D01*
X8187Y1904D01*
Y1532D01*
X8872D01*
X8958Y1532D01*
X8972Y1437D01*
Y1350D01*
X8985Y1282D01*
X9024Y1224D01*
X9189Y1059D01*
X9247Y1020D01*
X9315Y1007D01*
X9365D01*
Y859D01*
X10135D01*
Y1489D01*
Y1611D01*
X10384D01*
Y1577D01*
X11116D01*
Y1660D01*
X11384D01*
Y1577D01*
X12116D01*
Y2151D01*
X11384D01*
Y2068D01*
X11116D01*
Y2151D01*
X10384D01*
Y2019D01*
X10135D01*
Y2141D01*
X9365D01*
X9291Y2204D01*
X9276Y2226D01*
X9126Y2376D01*
X9068Y2415D01*
X9046Y2419D01*
X9033Y2446D01*
X9094Y2546D01*
X9250D01*
X9328Y2562D01*
X9394Y2606D01*
X9960Y3172D01*
X10176D01*
Y3158D01*
X10730D01*
Y3172D01*
X10890D01*
X11021Y3041D01*
X11087Y2997D01*
X11165Y2981D01*
X11165Y2981D01*
X11365D01*
Y2859D01*
X11554D01*
X11562Y2822D01*
X11606Y2756D01*
X11808Y2553D01*
X11875Y2509D01*
X11953Y2493D01*
X12345D01*
Y2086D01*
X13155D01*
X13232Y2030D01*
X13246Y2016D01*
Y1434D01*
X13151Y1340D01*
X12116D01*
Y1423D01*
X11384D01*
Y849D01*
X12116D01*
Y932D01*
X13236D01*
X13314Y947D01*
X13380Y992D01*
X13594Y1206D01*
X13638Y1272D01*
X13654Y1350D01*
Y2100D01*
X13638Y2178D01*
X13594Y2244D01*
X13390Y2448D01*
X13324Y2492D01*
X13246Y2508D01*
X13155D01*
Y2916D01*
X12345D01*
Y2901D01*
X12135D01*
Y3511D01*
X11365D01*
Y3389D01*
X11249D01*
X11118Y3520D01*
X11052Y3564D01*
X10974Y3580D01*
X10730D01*
Y3594D01*
X10176D01*
Y3580D01*
X9876D01*
X9824Y3622D01*
Y3968D01*
X9270D01*
Y3954D01*
X7634D01*
X7580Y4008D01*
X7514Y4053D01*
X7436Y4068D01*
X5616D01*
Y4151D01*
D02*
G37*
G36*
X3635Y2141D02*
X2865D01*
Y2087D01*
X2655D01*
Y2127D01*
X1845D01*
Y1691D01*
X2655D01*
Y1730D01*
X2865D01*
Y1489D01*
Y859D01*
X3635D01*
Y1007D01*
X3884D01*
Y849D01*
X4616D01*
Y1423D01*
X3884D01*
Y1363D01*
X3635D01*
Y1489D01*
Y2141D01*
D02*
G37*
%LPD*%
D10*
X2250Y1909D02*
D03*
Y2303D02*
D03*
Y2696D02*
D03*
Y3090D02*
D03*
X12750Y3091D02*
D03*
Y2697D02*
D03*
Y2304D02*
D03*
Y1910D02*
D03*
D11*
X724Y3602D02*
D03*
Y1397D02*
D03*
X14276Y1398D02*
D03*
Y3603D02*
D03*
D12*
X8573Y1750D02*
D03*
Y2250D02*
D03*
Y2750D02*
D03*
Y3250D02*
D03*
X6427Y1750D02*
D03*
Y2250D02*
D03*
Y2750D02*
D03*
Y3250D02*
D03*
D13*
X7864Y750D02*
D03*
X7136D02*
D03*
D14*
X11750Y3185D02*
D03*
Y3815D02*
D03*
X9750Y1815D02*
D03*
Y1185D02*
D03*
X3250Y1185D02*
D03*
Y1815D02*
D03*
Y3185D02*
D03*
Y3815D02*
D03*
D15*
X10750Y1864D02*
D03*
Y1136D02*
D03*
X11750Y1864D02*
D03*
Y1136D02*
D03*
X4250Y1864D02*
D03*
Y1136D02*
D03*
Y3864D02*
D03*
Y3136D02*
D03*
X5250Y1136D02*
D03*
Y1864D02*
D03*
Y3864D02*
D03*
Y3136D02*
D03*
D16*
X10453Y3376D02*
D03*
Y4124D02*
D03*
X9547Y3750D02*
D03*
D17*
X13450Y1350D02*
Y2100D01*
X13236Y1136D02*
X13450Y1350D01*
X11750Y1136D02*
X13236D01*
X13246Y2304D02*
X13450Y2100D01*
X12750Y2304D02*
X13246D01*
X10750Y1864D02*
X11750D01*
X10701Y1815D02*
X10750Y1864D01*
X9750Y1815D02*
X10701D01*
X11750Y2900D02*
X11953Y2697D01*
X11750Y2900D02*
Y3185D01*
X11953Y2697D02*
X12750D01*
X11165Y3185D02*
X11750D01*
X10974Y3376D02*
X11165Y3185D01*
X10453Y3376D02*
X10974D01*
X8573Y2750D02*
X9250D01*
X9876Y3376D01*
X10453D01*
X7550Y3750D02*
X9547D01*
X7436Y3864D02*
X7550Y3750D01*
X5250Y3864D02*
X7436D01*
D18*
X9315Y1185D02*
X9750D01*
X9150Y1350D02*
X9315Y1185D01*
X9150Y1350D02*
Y2100D01*
X9000Y2250D02*
X9150Y2100D01*
X8573Y2250D02*
X9000D01*
X8100D02*
X8573D01*
X7864Y2014D02*
X8100Y2250D01*
X7864Y750D02*
Y2014D01*
X6427Y2750D02*
X6950D01*
X7136Y2564D01*
Y750D02*
Y2564D01*
X4201Y1185D02*
X4250Y1136D01*
X3250Y1185D02*
X4201D01*
X6000Y2250D02*
X6427D01*
X5614Y1864D02*
X6000Y2250D01*
X5250Y1864D02*
X5614D01*
X5250D02*
Y3136D01*
X4250Y1864D02*
X5250D01*
X6050Y2750D02*
X6427D01*
X4250Y3550D02*
Y3864D01*
Y3550D02*
X4300Y3500D01*
X5586D01*
X5750Y3336D01*
Y3050D02*
Y3336D01*
Y3050D02*
X6050Y2750D01*
X4201Y3185D02*
X4250Y3136D01*
X3250Y3185D02*
X4201D01*
X3156Y1909D02*
X3250Y1815D01*
X2250Y1909D02*
X3156D01*
X2565Y3815D02*
X3250D01*
X2250Y3500D02*
X2565Y3815D01*
X2250Y3090D02*
Y3500D01*
D19*
X2400Y600D02*
D03*
X1600D02*
D03*
X800D02*
D03*
X12600D02*
D03*
X13400D02*
D03*
X14200D02*
D03*
X6500Y4400D02*
D03*
X8400D02*
D03*
X9200D02*
D03*
X11250Y2500D02*
D03*
X6250Y1000D02*
D03*
M02*
