G04*
G04 #@! TF.GenerationSoftware,Altium Limited,Altium Designer,18.1.7 (191)*
G04*
G04 Layer_Physical_Order=2*
G04 Layer_Color=5050912*
%FSLAX24Y24*%
%MOIN*%
G70*
G01*
G75*
%ADD34C,0.0200*%
G36*
X22300Y10700D02*
X10200D01*
Y15100D01*
X22300D01*
Y10700D01*
D02*
G37*
%LPC*%
G36*
X20595Y14699D02*
X20518Y14689D01*
X20446Y14659D01*
X20384Y14612D01*
X20336Y14550D01*
X20306Y14477D01*
X20296Y14400D01*
X20306Y14323D01*
X20336Y14250D01*
X20384Y14188D01*
X20446Y14141D01*
X20518Y14111D01*
X20595Y14101D01*
X20673Y14111D01*
X20745Y14141D01*
X20807Y14188D01*
X20855Y14250D01*
X20884Y14323D01*
X20895Y14400D01*
X20884Y14477D01*
X20855Y14550D01*
X20807Y14612D01*
X20745Y14659D01*
X20673Y14689D01*
X20595Y14699D01*
D02*
G37*
G36*
X10900Y14898D02*
X10771Y14881D01*
X10651Y14831D01*
X10548Y14752D01*
X10469Y14649D01*
X10419Y14529D01*
X10402Y14400D01*
X10419Y14271D01*
X10469Y14151D01*
X10548Y14048D01*
X10651Y13969D01*
X10771Y13919D01*
X10900Y13902D01*
X11029Y13919D01*
X11149Y13969D01*
X11252Y14048D01*
X11331Y14151D01*
X11381Y14271D01*
X11398Y14400D01*
X11381Y14529D01*
X11331Y14649D01*
X11252Y14752D01*
X11149Y14831D01*
X11029Y14881D01*
X10900Y14898D01*
D02*
G37*
G36*
X16031Y14133D02*
X15968Y14120D01*
X15915Y14085D01*
X15880Y14032D01*
X15867Y13969D01*
X15880Y13907D01*
X15915Y13854D01*
X15968Y13819D01*
X16031Y13806D01*
X16093Y13819D01*
X16146Y13854D01*
X16181Y13907D01*
X16194Y13969D01*
X16181Y14032D01*
X16146Y14085D01*
X16093Y14120D01*
X16031Y14133D01*
D02*
G37*
G36*
X12209Y14126D02*
X12124Y14109D01*
X12052Y14061D01*
X12004Y13989D01*
X11987Y13904D01*
X12004Y13819D01*
X12052Y13747D01*
X12124Y13698D01*
X12209Y13682D01*
X12295Y13698D01*
X12367Y13747D01*
X12415Y13819D01*
X12432Y13904D01*
X12415Y13989D01*
X12367Y14061D01*
X12295Y14109D01*
X12209Y14126D01*
D02*
G37*
G36*
X12914Y13777D02*
X12851Y13764D01*
X12798Y13729D01*
X12763Y13676D01*
X12750Y13614D01*
X12763Y13551D01*
X12792Y13508D01*
X12756Y13472D01*
X12712Y13501D01*
X12650Y13513D01*
X12588Y13501D01*
X12535Y13465D01*
X12499Y13412D01*
X12487Y13350D01*
X12499Y13288D01*
X12535Y13235D01*
X12588Y13199D01*
X12650Y13187D01*
X12712Y13199D01*
X12715Y13201D01*
X12751Y13165D01*
X12749Y13162D01*
X12737Y13100D01*
X12749Y13038D01*
X12785Y12985D01*
X12838Y12949D01*
X12900Y12937D01*
X12962Y12949D01*
X13015Y12985D01*
X13051Y13038D01*
X13063Y13100D01*
X13051Y13162D01*
X13015Y13215D01*
X12962Y13251D01*
X12900Y13263D01*
X12838Y13251D01*
X12835Y13249D01*
X12799Y13285D01*
X12801Y13288D01*
X12813Y13350D01*
X12801Y13412D01*
X12772Y13456D01*
X12808Y13492D01*
X12851Y13463D01*
X12914Y13450D01*
X12976Y13463D01*
X13029Y13498D01*
X13064Y13551D01*
X13077Y13614D01*
X13064Y13676D01*
X13029Y13729D01*
X12976Y13764D01*
X12914Y13777D01*
D02*
G37*
G36*
X17000Y13354D02*
X16938Y13341D01*
X16885Y13306D01*
X16849Y13253D01*
X16837Y13190D01*
X16849Y13128D01*
X16885Y13075D01*
X16938Y13040D01*
X17000Y13027D01*
X17062Y13040D01*
X17115Y13075D01*
X17151Y13128D01*
X17163Y13190D01*
X17151Y13253D01*
X17115Y13306D01*
X17062Y13341D01*
X17000Y13354D01*
D02*
G37*
G36*
X14200Y13863D02*
X14138Y13851D01*
X14085Y13815D01*
X14049Y13762D01*
X14037Y13700D01*
X14049Y13638D01*
X14085Y13585D01*
X14099Y13575D01*
Y13525D01*
X14085Y13515D01*
X14049Y13462D01*
X14037Y13400D01*
X14049Y13338D01*
X14085Y13285D01*
X14094Y13278D01*
Y13218D01*
X14085Y13212D01*
X14049Y13159D01*
X14037Y13097D01*
X14049Y13034D01*
X14085Y12981D01*
X14138Y12946D01*
X14200Y12934D01*
X14262Y12946D01*
X14315Y12981D01*
X14351Y13034D01*
X14363Y13097D01*
X14351Y13159D01*
X14315Y13212D01*
X14306Y13218D01*
Y13278D01*
X14315Y13285D01*
X14351Y13338D01*
X14363Y13400D01*
X14351Y13462D01*
X14315Y13515D01*
X14301Y13525D01*
Y13575D01*
X14315Y13585D01*
X14351Y13638D01*
X14363Y13700D01*
X14351Y13762D01*
X14315Y13815D01*
X14262Y13851D01*
X14200Y13863D01*
D02*
G37*
G36*
X11500Y12763D02*
X11438Y12751D01*
X11385Y12715D01*
X11349Y12662D01*
X11337Y12600D01*
X11349Y12538D01*
X11385Y12485D01*
X11399Y12475D01*
Y12425D01*
X11385Y12415D01*
X11349Y12362D01*
X11337Y12300D01*
X11349Y12238D01*
X11385Y12185D01*
X11438Y12149D01*
X11500Y12137D01*
X11562Y12149D01*
X11615Y12185D01*
X11651Y12238D01*
X11663Y12300D01*
X11651Y12362D01*
X11615Y12415D01*
X11601Y12425D01*
Y12475D01*
X11615Y12485D01*
X11651Y12538D01*
X11663Y12600D01*
X11651Y12662D01*
X11615Y12715D01*
X11562Y12751D01*
X11500Y12763D01*
D02*
G37*
G36*
X16001Y12063D02*
X15938Y12051D01*
X15885Y12015D01*
X15850Y11962D01*
X15837Y11900D01*
X15850Y11838D01*
X15885Y11785D01*
X15938Y11749D01*
X16001Y11737D01*
X16063Y11749D01*
X16116Y11785D01*
X16151Y11838D01*
X16164Y11900D01*
X16151Y11962D01*
X16116Y12015D01*
X16063Y12051D01*
X16001Y12063D01*
D02*
G37*
G36*
X14940Y12053D02*
X14878Y12041D01*
X14825Y12006D01*
X14790Y11953D01*
X14777Y11890D01*
X14790Y11828D01*
X14825Y11775D01*
X14878Y11740D01*
X14940Y11727D01*
X15003Y11740D01*
X15056Y11775D01*
X15091Y11828D01*
X15103Y11890D01*
X15091Y11953D01*
X15056Y12006D01*
X15003Y12041D01*
X14940Y12053D01*
D02*
G37*
G36*
X12209Y12118D02*
X12124Y12102D01*
X12052Y12053D01*
X12004Y11981D01*
X11987Y11896D01*
X12004Y11811D01*
X12052Y11739D01*
X12124Y11691D01*
X12209Y11674D01*
X12295Y11691D01*
X12367Y11739D01*
X12415Y11811D01*
X12432Y11896D01*
X12415Y11981D01*
X12367Y12053D01*
X12295Y12102D01*
X12209Y12118D01*
D02*
G37*
G36*
X17000Y11683D02*
X16938Y11670D01*
X16885Y11635D01*
X16849Y11582D01*
X16837Y11519D01*
X16849Y11457D01*
X16885Y11404D01*
X16938Y11369D01*
X17000Y11356D01*
X17062Y11369D01*
X17115Y11404D01*
X17151Y11457D01*
X17163Y11519D01*
X17151Y11582D01*
X17115Y11635D01*
X17062Y11670D01*
X17000Y11683D01*
D02*
G37*
G36*
X20831Y11699D02*
X20754Y11689D01*
X20682Y11659D01*
X20620Y11612D01*
X20572Y11550D01*
X20542Y11477D01*
X20532Y11400D01*
X20542Y11323D01*
X20572Y11250D01*
X20620Y11188D01*
X20682Y11141D01*
X20754Y11111D01*
X20831Y11101D01*
X20909Y11111D01*
X20981Y11141D01*
X21043Y11188D01*
X21091Y11250D01*
X21121Y11323D01*
X21131Y11400D01*
X21121Y11477D01*
X21091Y11550D01*
X21043Y11612D01*
X20981Y11659D01*
X20909Y11689D01*
X20831Y11699D01*
D02*
G37*
G36*
X14350Y11313D02*
X14288Y11301D01*
X14235Y11265D01*
X14199Y11212D01*
X14187Y11150D01*
X14199Y11088D01*
X14235Y11035D01*
X14288Y10999D01*
X14350Y10987D01*
X14412Y10999D01*
X14465Y11035D01*
X14501Y11088D01*
X14513Y11150D01*
X14501Y11212D01*
X14465Y11265D01*
X14412Y11301D01*
X14350Y11313D01*
D02*
G37*
G36*
X13269D02*
X13207Y11301D01*
X13154Y11265D01*
X13119Y11212D01*
X13106Y11150D01*
X13119Y11088D01*
X13154Y11035D01*
X13207Y10999D01*
X13269Y10987D01*
X13332Y10999D01*
X13385Y11035D01*
X13420Y11088D01*
X13433Y11150D01*
X13420Y11212D01*
X13385Y11265D01*
X13332Y11301D01*
X13269Y11313D01*
D02*
G37*
G36*
X10900Y11898D02*
X10771Y11881D01*
X10651Y11831D01*
X10548Y11752D01*
X10469Y11649D01*
X10419Y11529D01*
X10402Y11400D01*
X10419Y11271D01*
X10469Y11151D01*
X10548Y11048D01*
X10651Y10969D01*
X10771Y10919D01*
X10900Y10902D01*
X11029Y10919D01*
X11149Y10969D01*
X11252Y11048D01*
X11331Y11151D01*
X11381Y11271D01*
X11398Y11400D01*
X11381Y11529D01*
X11331Y11649D01*
X11252Y11752D01*
X11149Y11831D01*
X11029Y11881D01*
X10900Y11898D01*
D02*
G37*
%LPD*%
D34*
X21900Y14200D02*
D03*
X21600Y13600D02*
D03*
X21900Y13000D02*
D03*
X21600Y12400D02*
D03*
X21900Y11800D02*
D03*
X21300Y14200D02*
D03*
X21000Y13600D02*
D03*
X21300Y13000D02*
D03*
X21000Y12400D02*
D03*
X21300Y11800D02*
D03*
X20400Y13600D02*
D03*
X20700Y13000D02*
D03*
X20400Y12400D02*
D03*
X20700Y11800D02*
D03*
X20100Y14200D02*
D03*
X19800Y13600D02*
D03*
X20100Y13000D02*
D03*
X19800Y12400D02*
D03*
X20100Y11800D02*
D03*
X19200Y14800D02*
D03*
Y12400D02*
D03*
Y11200D02*
D03*
X18600Y14800D02*
D03*
Y12400D02*
D03*
Y11200D02*
D03*
X18000Y14800D02*
D03*
Y12400D02*
D03*
Y11200D02*
D03*
X17400Y14800D02*
D03*
X16800D02*
D03*
X17100Y11800D02*
D03*
X16200Y14800D02*
D03*
X15600D02*
D03*
Y13600D02*
D03*
X15000Y14800D02*
D03*
X14400D02*
D03*
X13800D02*
D03*
X13200D02*
D03*
X12600D02*
D03*
Y11200D02*
D03*
X12000Y14800D02*
D03*
Y11200D02*
D03*
X11400Y13600D02*
D03*
X11100Y13000D02*
D03*
X10800Y12400D02*
D03*
X17000Y12610D02*
D03*
M02*
