G04*
G04 #@! TF.GenerationSoftware,Altium Limited,Altium Designer,18.1.7 (191)*
G04*
G04 Layer_Color=32896*
%FSLAX24Y24*%
%MOIN*%
G70*
G01*
G75*
%ADD13C,0.0079*%
%ADD14C,0.0070*%
G36*
X20047Y14715D02*
Y14724D01*
X20038D01*
Y14734D01*
X20029D01*
Y14743D01*
X20019D01*
X20010D01*
X20001D01*
X19991D01*
Y14734D01*
X19982D01*
X19973D01*
Y14724D01*
X19963D01*
Y14715D01*
X19954D01*
Y14706D01*
X19945D01*
X19935D01*
Y14696D01*
X19926D01*
Y14687D01*
X19917D01*
Y14678D01*
X19907D01*
Y14668D01*
X19898D01*
Y14659D01*
X19889D01*
Y14650D01*
X19879D01*
Y14640D01*
X19870D01*
Y14631D01*
X19861D01*
Y14622D01*
X19851D01*
Y14612D01*
X19842D01*
Y14603D01*
X19833D01*
Y14593D01*
X19823D01*
Y14584D01*
X19814D01*
Y14575D01*
X19805D01*
Y14565D01*
X19795D01*
Y14556D01*
X19786D01*
Y14547D01*
X19776D01*
X19767D01*
Y14528D01*
X19758D01*
Y14519D01*
X19748D01*
X19739D01*
Y14500D01*
X19730D01*
X19720D01*
Y14491D01*
X19711D01*
Y14481D01*
X19702D01*
Y14472D01*
X19692D01*
Y14463D01*
X19683D01*
Y14444D01*
X19674D01*
Y14435D01*
X19664D01*
X19655D01*
Y14416D01*
X19646D01*
Y14407D01*
X19636D01*
Y14397D01*
X19627D01*
Y14388D01*
X19618D01*
Y14379D01*
X19608D01*
Y14369D01*
X19599D01*
Y14360D01*
X19590D01*
Y14351D01*
X19580D01*
Y14341D01*
X19571D01*
Y14332D01*
X19562D01*
Y14323D01*
X19552D01*
Y14313D01*
X19543D01*
Y14304D01*
X19534D01*
Y14295D01*
X19524D01*
Y14285D01*
X19515D01*
Y14276D01*
X19506D01*
Y14267D01*
X19496D01*
Y14257D01*
X19487D01*
Y14248D01*
X19478D01*
Y14239D01*
X19468D01*
Y14229D01*
X19459D01*
Y14220D01*
X19450D01*
Y14211D01*
X19440D01*
Y14201D01*
X19431D01*
Y14192D01*
X19422D01*
Y14183D01*
X19412D01*
Y14173D01*
X19403D01*
Y14164D01*
X19394D01*
X19384D01*
Y14155D01*
X19375D01*
Y14145D01*
X19366D01*
Y14136D01*
X19356D01*
X19347D01*
Y14127D01*
X19338D01*
Y14117D01*
X19328D01*
Y14108D01*
X19319D01*
X19310D01*
Y14099D01*
X19300D01*
Y14089D01*
X19291D01*
Y14080D01*
X19282D01*
X19272D01*
Y14071D01*
X19263D01*
Y14061D01*
X19254D01*
Y14052D01*
X19244D01*
X19235D01*
Y14043D01*
X19226D01*
Y14033D01*
X19216D01*
X19207D01*
Y14024D01*
X19198D01*
Y14015D01*
X19188D01*
Y14005D01*
X19179D01*
X19169D01*
Y13996D01*
X19160D01*
Y13986D01*
X19151D01*
X19141D01*
Y13977D01*
X19132D01*
Y13968D01*
X19123D01*
Y13958D01*
X19113D01*
X19104D01*
Y13949D01*
X19095D01*
Y13940D01*
X19085D01*
X19076D01*
Y13930D01*
X19067D01*
Y13921D01*
X19057D01*
Y13912D01*
X19048D01*
X19039D01*
Y13902D01*
X19029D01*
Y13893D01*
X19020D01*
X19011D01*
Y13884D01*
X19001D01*
Y13874D01*
X18992D01*
X18983D01*
Y13865D01*
X18973D01*
Y13856D01*
X18964D01*
Y13846D01*
X18955D01*
X18945D01*
Y13837D01*
X18936D01*
Y13828D01*
X18927D01*
Y13818D01*
X18917D01*
X18908D01*
Y13809D01*
X18899D01*
Y13800D01*
X18889D01*
X18880D01*
Y13790D01*
X18871D01*
Y13781D01*
X18861D01*
Y13772D01*
X18852D01*
X18843D01*
Y13762D01*
X18833D01*
Y13753D01*
X18824D01*
Y13744D01*
X18815D01*
X18805D01*
Y13734D01*
X18796D01*
Y13725D01*
X18787D01*
X18777D01*
Y13716D01*
X18768D01*
X18759D01*
Y13706D01*
X18749D01*
Y13697D01*
X18740D01*
X18731D01*
Y13688D01*
X18721D01*
Y13678D01*
X18712D01*
X18703D01*
Y13669D01*
X18693D01*
Y13660D01*
X18684D01*
X18675D01*
Y13650D01*
X18665D01*
X18656D01*
Y13641D01*
X18647D01*
Y13632D01*
X18637D01*
X18628D01*
Y13622D01*
X18619D01*
Y13613D01*
X18609D01*
X18600D01*
Y13604D01*
X18591D01*
Y13594D01*
X18581D01*
X18572D01*
Y13585D01*
X18562D01*
Y13604D01*
X18572D01*
Y13613D01*
X18581D01*
Y13622D01*
X18591D01*
Y13632D01*
X18600D01*
Y13641D01*
X18609D01*
Y13650D01*
X18619D01*
Y13660D01*
X18628D01*
Y13678D01*
X18637D01*
Y13688D01*
X18647D01*
Y13697D01*
X18656D01*
Y13706D01*
X18665D01*
Y13725D01*
X18675D01*
Y13734D01*
X18684D01*
Y13744D01*
X18693D01*
Y13753D01*
X18703D01*
Y13762D01*
X18712D01*
Y13772D01*
X18721D01*
Y13790D01*
X18731D01*
Y13800D01*
X18740D01*
Y13809D01*
X18749D01*
Y13818D01*
X18759D01*
Y13837D01*
X18768D01*
Y13846D01*
X18777D01*
Y13856D01*
X18787D01*
Y13865D01*
X18796D01*
Y13884D01*
X18805D01*
Y13893D01*
X18815D01*
Y13902D01*
X18824D01*
Y13921D01*
X18833D01*
Y13930D01*
X18843D01*
Y13940D01*
X18852D01*
Y13949D01*
X18861D01*
Y13968D01*
X18871D01*
Y13977D01*
X18880D01*
Y13996D01*
X18889D01*
Y14005D01*
X18899D01*
Y14024D01*
X18908D01*
Y14043D01*
X18917D01*
Y14052D01*
X18927D01*
Y14071D01*
X18936D01*
Y14089D01*
X18945D01*
Y14108D01*
X18955D01*
Y14136D01*
X18964D01*
Y14192D01*
X18955D01*
Y14211D01*
X18945D01*
Y14220D01*
X18936D01*
X18927D01*
Y14229D01*
X18917D01*
X18908D01*
X18899D01*
X18889D01*
X18880D01*
X18871D01*
X18861D01*
Y14220D01*
X18852D01*
X18843D01*
X18833D01*
X18824D01*
X18815D01*
Y14229D01*
X18824D01*
Y14257D01*
X18833D01*
Y14276D01*
X18843D01*
Y14304D01*
X18852D01*
Y14323D01*
X18861D01*
Y14397D01*
X18852D01*
Y14416D01*
X18843D01*
Y14435D01*
X18833D01*
Y14444D01*
X18824D01*
Y14453D01*
X18815D01*
X18805D01*
Y14463D01*
X18796D01*
Y14481D01*
X18805D01*
Y14491D01*
X18796D01*
Y14509D01*
X18787D01*
Y14519D01*
X18777D01*
X18768D01*
X18759D01*
X18749D01*
X18740D01*
Y14509D01*
X18731D01*
Y14500D01*
X18721D01*
Y14491D01*
X18712D01*
Y14472D01*
X18703D01*
Y14416D01*
X18712D01*
Y14407D01*
X18721D01*
Y14397D01*
X18731D01*
Y14388D01*
X18740D01*
Y14379D01*
X18749D01*
X18759D01*
Y14341D01*
X18749D01*
Y14313D01*
X18740D01*
Y14295D01*
X18731D01*
Y14276D01*
X18721D01*
Y14257D01*
X18712D01*
Y14220D01*
X18703D01*
Y14164D01*
X18712D01*
Y14145D01*
X18721D01*
Y14136D01*
X18731D01*
Y14127D01*
X18740D01*
X18749D01*
Y14117D01*
X18759D01*
X18768D01*
X18777D01*
X18787D01*
X18796D01*
X18805D01*
X18815D01*
X18824D01*
X18833D01*
X18843D01*
Y14127D01*
X18852D01*
Y14099D01*
X18843D01*
Y14080D01*
X18833D01*
Y14071D01*
X18824D01*
Y14052D01*
X18815D01*
Y14043D01*
X18805D01*
Y14033D01*
X18796D01*
Y14015D01*
X18787D01*
Y13996D01*
X18777D01*
Y13986D01*
X18768D01*
Y13977D01*
X18759D01*
Y13968D01*
X18749D01*
Y13949D01*
X18740D01*
Y13940D01*
X18731D01*
Y13930D01*
X18721D01*
Y13921D01*
X18712D01*
Y13902D01*
X18703D01*
Y13893D01*
X18693D01*
Y13884D01*
X18684D01*
Y13874D01*
X18675D01*
Y13856D01*
X18665D01*
Y13846D01*
X18656D01*
Y13837D01*
X18647D01*
Y13828D01*
X18637D01*
Y13818D01*
X18628D01*
Y13800D01*
X18619D01*
Y13790D01*
X18609D01*
Y13781D01*
X18600D01*
Y13772D01*
X18591D01*
Y13762D01*
X18581D01*
Y13744D01*
X18572D01*
Y13734D01*
X18562D01*
Y13725D01*
X18553D01*
Y13716D01*
X18544D01*
Y13706D01*
X18534D01*
Y13697D01*
X18525D01*
Y13688D01*
X18516D01*
Y13669D01*
X18506D01*
Y13660D01*
X18497D01*
Y13650D01*
X18488D01*
Y13641D01*
X18478D01*
Y13632D01*
X18469D01*
Y13622D01*
X18460D01*
Y13613D01*
X18450D01*
Y13604D01*
X18441D01*
Y13594D01*
X18432D01*
Y13585D01*
X18422D01*
Y13576D01*
X18413D01*
Y13557D01*
X18404D01*
Y13548D01*
X18394D01*
Y13538D01*
X18385D01*
Y13529D01*
X18376D01*
Y13520D01*
X18366D01*
Y13510D01*
X18357D01*
Y13501D01*
X18348D01*
Y13492D01*
X18338D01*
Y13482D01*
X18329D01*
Y13473D01*
X18320D01*
Y13464D01*
X18310D01*
Y13454D01*
X18301D01*
Y13436D01*
X18292D01*
Y13426D01*
X18282D01*
Y13417D01*
X18273D01*
Y13408D01*
X18264D01*
Y13389D01*
X18254D01*
Y13351D01*
X18264D01*
Y13342D01*
X18273D01*
Y13333D01*
X18282D01*
X18292D01*
Y13323D01*
X18301D01*
X18310D01*
X18320D01*
X18329D01*
Y13333D01*
X18338D01*
X18348D01*
Y13342D01*
X18357D01*
X18366D01*
Y13351D01*
X18376D01*
X18385D01*
Y13361D01*
X18394D01*
Y13370D01*
X18404D01*
X18413D01*
Y13379D01*
X18422D01*
Y13389D01*
X18432D01*
X18441D01*
Y13398D01*
X18450D01*
X18460D01*
Y13408D01*
X18469D01*
Y13417D01*
X18478D01*
X18488D01*
Y13426D01*
X18497D01*
Y13436D01*
X18506D01*
X18516D01*
Y13445D01*
X18525D01*
X18534D01*
Y13454D01*
X18544D01*
Y13464D01*
X18553D01*
X18562D01*
Y13473D01*
X18572D01*
Y13482D01*
X18581D01*
X18591D01*
Y13492D01*
X18600D01*
X18609D01*
Y13501D01*
X18619D01*
Y13510D01*
X18628D01*
Y13520D01*
X18637D01*
X18647D01*
Y13529D01*
X18656D01*
X18665D01*
Y13538D01*
X18675D01*
Y13548D01*
X18684D01*
X18693D01*
Y13557D01*
X18703D01*
Y13566D01*
X18712D01*
X18721D01*
Y13576D01*
X18731D01*
Y13585D01*
X18740D01*
X18749D01*
Y13594D01*
X18759D01*
Y13604D01*
X18768D01*
X18777D01*
Y13613D01*
X18787D01*
X18796D01*
Y13622D01*
X18805D01*
Y13632D01*
X18815D01*
X18824D01*
Y13641D01*
X18833D01*
Y13650D01*
X18843D01*
X18852D01*
Y13660D01*
X18861D01*
Y13669D01*
X18871D01*
X18880D01*
Y13678D01*
X18889D01*
Y13688D01*
X18899D01*
Y13697D01*
X18908D01*
X18917D01*
Y13706D01*
X18927D01*
Y13716D01*
X18936D01*
Y13725D01*
X18945D01*
X18955D01*
Y13734D01*
X18964D01*
Y13744D01*
X18973D01*
X18983D01*
Y13753D01*
X18992D01*
Y13762D01*
X19001D01*
Y13772D01*
X19011D01*
X19020D01*
Y13762D01*
X19011D01*
Y13753D01*
X19001D01*
Y13744D01*
X18992D01*
Y13725D01*
X18983D01*
Y13716D01*
X18973D01*
Y13706D01*
X18964D01*
Y13697D01*
X18955D01*
Y13688D01*
X18945D01*
Y13669D01*
X18936D01*
Y13660D01*
X18927D01*
Y13650D01*
X18917D01*
Y13641D01*
X18908D01*
Y13632D01*
X18899D01*
Y13613D01*
X18889D01*
Y13604D01*
X18880D01*
Y13585D01*
X18871D01*
Y13566D01*
X18861D01*
Y13557D01*
X18852D01*
X18843D01*
Y13548D01*
X18833D01*
Y13501D01*
X18843D01*
Y13492D01*
X18833D01*
Y13473D01*
X18824D01*
Y13454D01*
X18815D01*
Y13445D01*
X18824D01*
Y13426D01*
X18833D01*
X18843D01*
Y13417D01*
X18852D01*
X18861D01*
Y13408D01*
X18871D01*
X18880D01*
Y13351D01*
X18871D01*
Y13314D01*
X18861D01*
Y13286D01*
X18852D01*
Y13267D01*
X18843D01*
Y13249D01*
X18833D01*
Y13239D01*
X18824D01*
X18815D01*
X18805D01*
X18796D01*
X18787D01*
Y13230D01*
X18777D01*
X18768D01*
Y13221D01*
X18759D01*
X18749D01*
Y13211D01*
X18740D01*
X18731D01*
Y13202D01*
X18721D01*
X18712D01*
Y13193D01*
X18703D01*
X18693D01*
Y13183D01*
X18684D01*
X18675D01*
Y13174D01*
X18665D01*
Y13165D01*
X18656D01*
X18647D01*
Y13155D01*
X18637D01*
Y13146D01*
X18628D01*
Y13137D01*
X18619D01*
X18609D01*
Y13127D01*
X18600D01*
X18591D01*
Y13118D01*
X18581D01*
Y13109D01*
X18572D01*
X18562D01*
Y13099D01*
X18553D01*
Y13090D01*
X18544D01*
X18534D01*
Y13081D01*
X18525D01*
Y13071D01*
X18516D01*
X18506D01*
Y13062D01*
X18497D01*
X18488D01*
Y13053D01*
X18478D01*
Y13043D01*
X18469D01*
X18460D01*
Y13034D01*
X18450D01*
X18441D01*
Y13025D01*
X18432D01*
Y13015D01*
X18422D01*
X18413D01*
Y13006D01*
X18404D01*
Y12997D01*
X18394D01*
X18385D01*
Y12987D01*
X18376D01*
X18366D01*
Y12978D01*
X18357D01*
Y12969D01*
X18348D01*
X18338D01*
Y12959D01*
X18329D01*
Y12950D01*
X18320D01*
X18310D01*
Y12941D01*
X18301D01*
X18292D01*
Y12931D01*
X18282D01*
X18273D01*
Y12922D01*
X18264D01*
Y12913D01*
X18254D01*
X18245D01*
Y12903D01*
X18236D01*
X18226D01*
Y12894D01*
X18217D01*
Y12885D01*
X18208D01*
X18198D01*
Y12875D01*
X18189D01*
X18180D01*
Y12866D01*
X18170D01*
X18161D01*
Y12857D01*
X18152D01*
Y12847D01*
X18142D01*
X18133D01*
Y12838D01*
X18124D01*
X18114D01*
Y12829D01*
X18105D01*
Y12819D01*
X18096D01*
X18086D01*
Y12810D01*
X18077D01*
X18068D01*
Y12801D01*
X18058D01*
Y12791D01*
X18049D01*
X18040D01*
Y12782D01*
X18030D01*
X18021D01*
Y12772D01*
X18012D01*
X18002D01*
Y12763D01*
X17993D01*
Y12754D01*
X17984D01*
X17974D01*
Y12744D01*
X17965D01*
X17955D01*
Y12735D01*
X17946D01*
X17937D01*
Y12726D01*
X17927D01*
Y12716D01*
X17918D01*
X17909D01*
Y12707D01*
X17899D01*
X17890D01*
Y12698D01*
X17881D01*
X17871D01*
Y12688D01*
X17862D01*
X17853D01*
Y12679D01*
X17843D01*
Y12670D01*
X17834D01*
X17825D01*
Y12660D01*
X17815D01*
X17806D01*
Y12651D01*
X17797D01*
X17787D01*
Y12642D01*
X17778D01*
X17769D01*
Y12632D01*
X17759D01*
X17750D01*
Y12623D01*
X17741D01*
X17731D01*
Y12614D01*
X17722D01*
X17713D01*
Y12604D01*
X17703D01*
X17694D01*
Y12595D01*
X17685D01*
X17675D01*
Y12586D01*
X17666D01*
X17657D01*
Y12576D01*
X17647D01*
X17638D01*
Y12567D01*
X17629D01*
X17619D01*
Y12558D01*
X17610D01*
X17601D01*
Y12548D01*
X17591D01*
X17582D01*
X17573D01*
Y12539D01*
X17563D01*
X17554D01*
Y12530D01*
X17545D01*
X17535D01*
Y12520D01*
X17526D01*
X17517D01*
Y12511D01*
X17507D01*
X17498D01*
Y12502D01*
X17489D01*
X17479D01*
Y12492D01*
X17470D01*
X17461D01*
Y12483D01*
X17451D01*
X17442D01*
Y12474D01*
X17433D01*
X17423D01*
X17414D01*
Y12464D01*
X17405D01*
X17395D01*
Y12455D01*
X17386D01*
X17377D01*
X17367D01*
Y12446D01*
X17358D01*
X17348D01*
Y12436D01*
X17339D01*
X17330D01*
X17320D01*
Y12427D01*
X17311D01*
X17302D01*
Y12418D01*
X17292D01*
X17283D01*
X17274D01*
Y12408D01*
X17264D01*
X17255D01*
Y12399D01*
X17246D01*
X17236D01*
Y12390D01*
X17227D01*
X17218D01*
Y12380D01*
X17208D01*
X17199D01*
Y12371D01*
X17190D01*
X17180D01*
Y12362D01*
X17171D01*
X17162D01*
X17152D01*
Y12352D01*
X17143D01*
X17134D01*
Y12343D01*
X17124D01*
X17115D01*
Y12334D01*
X17106D01*
Y12324D01*
X17096D01*
Y12306D01*
X17087D01*
Y12278D01*
X17096D01*
Y12259D01*
X17106D01*
Y12250D01*
X17115D01*
X17124D01*
X17134D01*
X17143D01*
X17152D01*
X17162D01*
X17171D01*
X17180D01*
X17190D01*
X17199D01*
Y12259D01*
X17208D01*
X17218D01*
X17227D01*
X17236D01*
Y12268D01*
X17246D01*
X17255D01*
X17264D01*
X17274D01*
X17283D01*
Y12278D01*
X17292D01*
X17302D01*
X17311D01*
X17320D01*
Y12287D01*
X17330D01*
X17339D01*
X17348D01*
X17358D01*
Y12296D01*
X17367D01*
X17377D01*
X17386D01*
X17395D01*
Y12306D01*
X17405D01*
X17414D01*
X17423D01*
X17433D01*
Y12315D01*
X17442D01*
X17451D01*
X17461D01*
X17470D01*
Y12324D01*
X17479D01*
X17489D01*
X17498D01*
X17507D01*
Y12334D01*
X17517D01*
X17526D01*
X17535D01*
X17545D01*
Y12343D01*
X17554D01*
X17563D01*
X17573D01*
X17582D01*
Y12352D01*
X17591D01*
X17601D01*
X17610D01*
X17619D01*
Y12362D01*
X17629D01*
X17638D01*
X17647D01*
Y12371D01*
X17657D01*
X17666D01*
X17675D01*
X17685D01*
Y12380D01*
X17694D01*
X17703D01*
X17713D01*
Y12390D01*
X17722D01*
X17731D01*
X17741D01*
Y12399D01*
X17750D01*
X17759D01*
X17769D01*
X17778D01*
Y12408D01*
X17787D01*
X17797D01*
X17806D01*
Y12418D01*
X17815D01*
X17825D01*
X17834D01*
X17843D01*
Y12427D01*
X17853D01*
X17862D01*
X17871D01*
Y12436D01*
X17881D01*
X17890D01*
X17899D01*
Y12446D01*
X17909D01*
X17918D01*
X17927D01*
X17937D01*
Y12455D01*
X17946D01*
X17955D01*
X17965D01*
Y12464D01*
X17974D01*
X17984D01*
X17993D01*
Y12474D01*
X18002D01*
X18012D01*
X18021D01*
Y12483D01*
X18030D01*
X18040D01*
X18049D01*
Y12492D01*
X18058D01*
X18068D01*
X18077D01*
Y12502D01*
X18086D01*
X18096D01*
X18105D01*
Y12511D01*
X18114D01*
X18124D01*
X18133D01*
X18142D01*
Y12520D01*
X18152D01*
X18161D01*
X18170D01*
Y12530D01*
X18180D01*
X18189D01*
X18198D01*
Y12539D01*
X18208D01*
X18217D01*
X18226D01*
Y12548D01*
X18236D01*
X18245D01*
X18254D01*
Y12558D01*
X18264D01*
X18273D01*
X18282D01*
Y12567D01*
X18292D01*
X18301D01*
Y12576D01*
X18310D01*
X18320D01*
X18329D01*
Y12586D01*
X18338D01*
X18348D01*
X18357D01*
Y12595D01*
X18366D01*
X18376D01*
X18385D01*
Y12604D01*
X18394D01*
X18404D01*
X18413D01*
Y12614D01*
X18422D01*
X18432D01*
X18441D01*
Y12623D01*
X18450D01*
X18460D01*
X18469D01*
Y12632D01*
X18478D01*
X18488D01*
X18497D01*
Y12642D01*
X18506D01*
X18516D01*
X18525D01*
Y12651D01*
X18534D01*
X18544D01*
Y12660D01*
X18553D01*
X18562D01*
X18572D01*
Y12670D01*
X18581D01*
X18591D01*
Y12679D01*
X18600D01*
X18609D01*
X18619D01*
Y12688D01*
X18628D01*
X18637D01*
X18647D01*
Y12698D01*
X18656D01*
X18665D01*
Y12707D01*
X18675D01*
X18684D01*
X18693D01*
Y12716D01*
X18703D01*
X18712D01*
X18721D01*
Y12726D01*
X18731D01*
X18740D01*
Y12716D01*
X18731D01*
Y12698D01*
X18721D01*
Y12688D01*
X18712D01*
Y12604D01*
X18721D01*
Y12586D01*
X18731D01*
Y12576D01*
X18740D01*
Y12567D01*
X18749D01*
X18759D01*
Y12548D01*
X18749D01*
Y12539D01*
X18740D01*
X18731D01*
Y12530D01*
X18721D01*
Y12520D01*
X18712D01*
X18703D01*
Y12511D01*
X18693D01*
X18684D01*
Y12502D01*
X18675D01*
Y12492D01*
X18665D01*
X18656D01*
Y12483D01*
X18647D01*
Y12474D01*
X18637D01*
Y12464D01*
X18628D01*
Y12455D01*
X18619D01*
Y12446D01*
X18609D01*
Y12427D01*
X18600D01*
Y12380D01*
X18609D01*
Y12371D01*
X18619D01*
Y12362D01*
X18628D01*
X18637D01*
Y12352D01*
X18647D01*
X18656D01*
X18665D01*
Y12362D01*
X18675D01*
Y12343D01*
X18665D01*
X18656D01*
Y12334D01*
X18647D01*
Y12324D01*
X18637D01*
X18628D01*
Y12315D01*
X18619D01*
Y12306D01*
X18609D01*
X18600D01*
Y12296D01*
X18591D01*
Y12287D01*
X18581D01*
X18572D01*
Y12278D01*
X18562D01*
Y12268D01*
X18553D01*
X18544D01*
Y12259D01*
X18534D01*
Y12250D01*
X18525D01*
X18516D01*
Y12240D01*
X18506D01*
Y12231D01*
X18497D01*
Y12222D01*
X18488D01*
X18478D01*
Y12212D01*
X18469D01*
Y12203D01*
X18460D01*
X18450D01*
Y12194D01*
X18441D01*
Y12184D01*
X18432D01*
X18422D01*
Y12175D01*
X18413D01*
X18404D01*
Y12165D01*
X18394D01*
Y12156D01*
X18385D01*
X18376D01*
Y12147D01*
X18366D01*
Y12137D01*
X18357D01*
X18348D01*
Y12128D01*
X18338D01*
X18329D01*
Y12119D01*
X18320D01*
Y12109D01*
X18310D01*
X18301D01*
Y12100D01*
X18292D01*
Y12091D01*
X18282D01*
X18273D01*
Y12081D01*
X18264D01*
X18254D01*
Y12072D01*
X18245D01*
Y12063D01*
X18236D01*
X18226D01*
Y12053D01*
X18217D01*
Y12044D01*
X18208D01*
X18198D01*
Y12035D01*
X18189D01*
X18180D01*
Y12025D01*
X18170D01*
X18161D01*
Y12016D01*
X18152D01*
X18142D01*
Y12007D01*
X18133D01*
X18124D01*
Y11997D01*
X18114D01*
X18105D01*
Y11988D01*
X18096D01*
X18086D01*
Y11979D01*
X18077D01*
X18068D01*
X18058D01*
Y11969D01*
X18049D01*
X18040D01*
Y11960D01*
X18030D01*
X18021D01*
Y11951D01*
X18012D01*
X18002D01*
Y11941D01*
X17993D01*
X17984D01*
Y11932D01*
X17974D01*
X17965D01*
Y11923D01*
X17955D01*
X17946D01*
Y11913D01*
X17937D01*
X17927D01*
Y11904D01*
X17918D01*
X17909D01*
Y11895D01*
X17899D01*
X17890D01*
X17881D01*
Y11885D01*
X17871D01*
X17862D01*
Y11876D01*
X17853D01*
X17843D01*
Y11867D01*
X17834D01*
X17825D01*
Y11857D01*
X17815D01*
X17806D01*
Y11848D01*
X17797D01*
X17787D01*
Y11839D01*
X17778D01*
X17769D01*
Y11829D01*
X17759D01*
X17750D01*
Y11820D01*
X17741D01*
X17731D01*
Y11811D01*
X17722D01*
X17713D01*
Y11801D01*
X17703D01*
X17694D01*
Y11792D01*
X17685D01*
X17675D01*
X17666D01*
Y11783D01*
X17657D01*
X17647D01*
Y11773D01*
X17638D01*
X17629D01*
Y11764D01*
X17619D01*
X17610D01*
Y11755D01*
X17601D01*
X17591D01*
Y11745D01*
X17582D01*
X17573D01*
Y11736D01*
X17563D01*
X17554D01*
Y11727D01*
X17545D01*
X17535D01*
X17526D01*
Y11717D01*
X17517D01*
X17507D01*
Y11708D01*
X17498D01*
X17489D01*
Y11699D01*
X17479D01*
X17470D01*
Y11689D01*
X17461D01*
X17451D01*
Y11680D01*
X17442D01*
X17433D01*
Y11671D01*
X17423D01*
X17414D01*
Y11661D01*
X17405D01*
X17395D01*
Y11652D01*
X17386D01*
X17377D01*
Y11643D01*
X17367D01*
X17358D01*
Y11633D01*
X17348D01*
X17339D01*
Y11624D01*
X17330D01*
X17320D01*
Y11615D01*
X17311D01*
X17302D01*
Y11605D01*
X17292D01*
X17283D01*
Y11596D01*
X17274D01*
X17264D01*
Y11587D01*
X17255D01*
X17246D01*
Y11577D01*
X17236D01*
X17227D01*
Y11568D01*
X17218D01*
Y11558D01*
X17208D01*
X17199D01*
Y11549D01*
X17190D01*
X17180D01*
Y11540D01*
X17171D01*
X17162D01*
Y11530D01*
X17152D01*
X17143D01*
Y11521D01*
X17134D01*
Y11512D01*
X17124D01*
X17115D01*
Y11502D01*
X17106D01*
X17096D01*
Y11493D01*
X17087D01*
X17078D01*
Y11484D01*
X17068D01*
Y11474D01*
X17059D01*
X17050D01*
Y11465D01*
X17040D01*
Y11456D01*
X17031D01*
Y11446D01*
X17022D01*
Y11437D01*
X17012D01*
Y11428D01*
X17003D01*
Y11381D01*
X17012D01*
Y11362D01*
X17022D01*
X17031D01*
Y11353D01*
X17040D01*
X17050D01*
X17059D01*
Y11362D01*
X17068D01*
X17078D01*
X17087D01*
X17096D01*
Y11372D01*
X17106D01*
X17115D01*
Y11381D01*
X17124D01*
X17134D01*
Y11390D01*
X17143D01*
X17152D01*
Y11400D01*
X17162D01*
X17171D01*
X17180D01*
Y11409D01*
X17190D01*
X17199D01*
Y11418D01*
X17208D01*
X17218D01*
X17227D01*
Y11428D01*
X17236D01*
X17246D01*
Y11437D01*
X17255D01*
X17264D01*
Y11446D01*
X17274D01*
X17283D01*
Y11456D01*
X17292D01*
X17302D01*
Y11465D01*
X17311D01*
X17320D01*
Y11474D01*
X17330D01*
X17339D01*
Y11484D01*
X17348D01*
X17358D01*
Y11493D01*
X17367D01*
X17377D01*
Y11502D01*
X17386D01*
X17395D01*
Y11512D01*
X17405D01*
X17414D01*
Y11521D01*
X17423D01*
X17433D01*
Y11530D01*
X17442D01*
X17451D01*
Y11540D01*
X17461D01*
X17470D01*
Y11549D01*
X17479D01*
X17489D01*
Y11558D01*
X17498D01*
X17507D01*
Y11568D01*
X17517D01*
X17526D01*
Y11577D01*
X17535D01*
X17545D01*
Y11587D01*
X17554D01*
X17563D01*
Y11596D01*
X17573D01*
X17582D01*
Y11605D01*
X17591D01*
X17601D01*
Y11615D01*
X17610D01*
Y11624D01*
X17619D01*
X17629D01*
Y11633D01*
X17638D01*
X17647D01*
Y11643D01*
X17657D01*
X17666D01*
Y11652D01*
X17675D01*
X17685D01*
Y11661D01*
X17694D01*
X17703D01*
Y11671D01*
X17713D01*
Y11680D01*
X17722D01*
X17731D01*
X17741D01*
Y11689D01*
X17750D01*
Y11699D01*
X17759D01*
X17769D01*
Y11708D01*
X17778D01*
X17787D01*
Y11717D01*
X17797D01*
X17806D01*
Y11727D01*
X17815D01*
Y11736D01*
X17825D01*
X17834D01*
Y11745D01*
X17843D01*
X17853D01*
Y11755D01*
X17862D01*
Y11764D01*
X17871D01*
X17881D01*
Y11773D01*
X17890D01*
X17899D01*
Y11783D01*
X17909D01*
Y11792D01*
X17918D01*
X17927D01*
Y11801D01*
X17937D01*
X17946D01*
Y11811D01*
X17955D01*
Y11820D01*
X17965D01*
X17974D01*
Y11829D01*
X17984D01*
X17993D01*
Y11839D01*
X18002D01*
Y11848D01*
X18012D01*
X18021D01*
Y11857D01*
X18030D01*
Y11867D01*
X18040D01*
X18049D01*
Y11876D01*
X18058D01*
X18068D01*
Y11885D01*
X18077D01*
Y11895D01*
X18086D01*
X18096D01*
Y11904D01*
X18105D01*
X18114D01*
Y11913D01*
X18124D01*
Y11923D01*
X18133D01*
X18142D01*
Y11932D01*
X18152D01*
X18161D01*
X18170D01*
Y11941D01*
X18180D01*
X18189D01*
Y11951D01*
X18198D01*
X18208D01*
Y11960D01*
X18217D01*
X18226D01*
Y11969D01*
X18236D01*
X18245D01*
Y11979D01*
X18254D01*
X18264D01*
Y11988D01*
X18273D01*
X18282D01*
Y11997D01*
X18292D01*
X18301D01*
Y12007D01*
X18310D01*
X18320D01*
Y12016D01*
X18329D01*
X18338D01*
X18348D01*
Y12025D01*
X18357D01*
X18366D01*
Y12035D01*
X18376D01*
X18385D01*
Y12044D01*
X18394D01*
X18404D01*
Y12053D01*
X18413D01*
X18422D01*
Y12063D01*
X18432D01*
X18441D01*
Y12072D01*
X18450D01*
X18460D01*
Y12081D01*
X18469D01*
X18478D01*
Y12091D01*
X18488D01*
X18497D01*
Y12100D01*
X18506D01*
X18516D01*
Y12109D01*
X18525D01*
X18534D01*
Y12119D01*
X18544D01*
X18553D01*
Y12128D01*
X18562D01*
X18572D01*
Y12137D01*
X18581D01*
X18591D01*
Y12147D01*
X18600D01*
X18609D01*
Y12156D01*
X18619D01*
X18628D01*
Y12165D01*
X18637D01*
X18647D01*
Y12175D01*
X18656D01*
X18665D01*
X18675D01*
Y12184D01*
X18684D01*
X18693D01*
Y12194D01*
X18703D01*
X18712D01*
Y12203D01*
X18721D01*
X18731D01*
Y12212D01*
X18740D01*
X18749D01*
Y12194D01*
X18740D01*
Y12184D01*
X18731D01*
Y12128D01*
X18740D01*
Y12109D01*
X18749D01*
Y12100D01*
X18759D01*
Y12091D01*
X18768D01*
Y12081D01*
X18777D01*
X18787D01*
X18796D01*
Y12072D01*
X18805D01*
X18815D01*
X18824D01*
X18833D01*
X18843D01*
X18852D01*
X18861D01*
X18871D01*
X18880D01*
X18889D01*
X18899D01*
X18908D01*
X18917D01*
X18927D01*
X18936D01*
X18945D01*
Y12081D01*
X18955D01*
X18964D01*
X18973D01*
X18983D01*
X18992D01*
Y12091D01*
X19001D01*
X19011D01*
X19020D01*
X19029D01*
Y12100D01*
X19039D01*
X19048D01*
X19057D01*
X19067D01*
Y12109D01*
X19076D01*
X19085D01*
X19095D01*
X19104D01*
Y12119D01*
X19113D01*
X19123D01*
X19132D01*
X19141D01*
Y12128D01*
X19151D01*
X19160D01*
X19169D01*
Y12137D01*
X19179D01*
X19188D01*
X19198D01*
Y12147D01*
X19207D01*
X19216D01*
X19226D01*
Y12156D01*
X19235D01*
X19244D01*
X19254D01*
Y12137D01*
X19244D01*
X19235D01*
Y12128D01*
X19226D01*
Y12119D01*
X19216D01*
Y12109D01*
X19207D01*
Y12100D01*
X19198D01*
Y12091D01*
X19188D01*
Y12081D01*
X19179D01*
Y12072D01*
X19169D01*
Y12063D01*
X19160D01*
X19151D01*
Y12044D01*
X19141D01*
X19132D01*
Y12035D01*
X19123D01*
Y12025D01*
X19113D01*
Y12016D01*
X19104D01*
Y12007D01*
X19095D01*
Y11997D01*
X19085D01*
Y11988D01*
X19076D01*
Y11979D01*
X19067D01*
X19057D01*
Y11969D01*
X19048D01*
Y11960D01*
X19039D01*
Y11951D01*
X19029D01*
Y11941D01*
X19020D01*
Y11932D01*
X19011D01*
Y11923D01*
X19001D01*
X18992D01*
Y11913D01*
X18983D01*
Y11904D01*
X18973D01*
Y11895D01*
X18964D01*
Y11885D01*
X18955D01*
Y11876D01*
X18945D01*
Y11867D01*
X18936D01*
Y11857D01*
X18927D01*
Y11848D01*
X18917D01*
Y11839D01*
X18908D01*
Y11829D01*
X18899D01*
Y11820D01*
X18889D01*
Y11811D01*
X18880D01*
Y11801D01*
X18871D01*
Y11792D01*
X18861D01*
Y11783D01*
X18852D01*
Y11773D01*
X18843D01*
Y11764D01*
X18833D01*
Y11755D01*
X18824D01*
Y11745D01*
X18815D01*
Y11736D01*
X18805D01*
Y11727D01*
X18796D01*
Y11717D01*
X18787D01*
Y11708D01*
X18777D01*
Y11699D01*
X18768D01*
X18759D01*
Y11689D01*
X18749D01*
Y11680D01*
X18740D01*
Y11671D01*
X18731D01*
Y11661D01*
X18721D01*
Y11652D01*
X18712D01*
Y11643D01*
X18703D01*
Y11633D01*
X18693D01*
X18684D01*
Y11624D01*
X18675D01*
Y11615D01*
X18665D01*
Y11605D01*
X18656D01*
Y11596D01*
X18647D01*
Y11587D01*
X18637D01*
Y11568D01*
X18628D01*
Y11558D01*
X18619D01*
Y11540D01*
X18609D01*
Y11530D01*
X18600D01*
Y11521D01*
X18591D01*
Y11512D01*
X18581D01*
Y11502D01*
X18572D01*
Y11493D01*
X18562D01*
Y11484D01*
X18553D01*
Y11474D01*
X18544D01*
Y11465D01*
X18534D01*
Y11456D01*
X18525D01*
Y11446D01*
X18516D01*
Y11437D01*
X18506D01*
Y11418D01*
X18497D01*
Y11400D01*
X18488D01*
Y11372D01*
X18497D01*
X18506D01*
X18516D01*
Y11390D01*
X18525D01*
X18534D01*
Y11409D01*
X18544D01*
Y11418D01*
X18553D01*
Y11428D01*
X18562D01*
Y11437D01*
X18572D01*
Y11446D01*
X18581D01*
Y11456D01*
X18591D01*
Y11465D01*
X18600D01*
Y11474D01*
X18609D01*
Y11484D01*
X18619D01*
Y11493D01*
X18628D01*
Y11502D01*
X18637D01*
Y11512D01*
X18647D01*
Y11521D01*
X18656D01*
X18665D01*
Y11530D01*
X18675D01*
Y11540D01*
X18684D01*
Y11549D01*
X18693D01*
Y11558D01*
X18703D01*
Y11568D01*
X18712D01*
Y11577D01*
X18721D01*
Y11587D01*
X18731D01*
Y11596D01*
X18740D01*
Y11605D01*
X18749D01*
X18759D01*
Y11615D01*
X18768D01*
Y11624D01*
X18777D01*
Y11633D01*
X18787D01*
Y11643D01*
X18796D01*
Y11652D01*
X18805D01*
X18815D01*
Y11671D01*
X18824D01*
X18833D01*
Y11680D01*
X18843D01*
Y11689D01*
X18852D01*
Y11699D01*
X18861D01*
Y11708D01*
X18871D01*
Y11717D01*
X18880D01*
Y11727D01*
X18889D01*
Y11736D01*
X18899D01*
Y11745D01*
X18908D01*
Y11755D01*
X18917D01*
Y11764D01*
X18927D01*
Y11773D01*
X18936D01*
Y11783D01*
X18945D01*
Y11792D01*
X18955D01*
Y11801D01*
X18964D01*
Y11811D01*
X18973D01*
Y11820D01*
X18983D01*
Y11829D01*
X18992D01*
Y11839D01*
X19001D01*
Y11848D01*
X19011D01*
Y11857D01*
X19020D01*
Y11867D01*
X19029D01*
Y11876D01*
X19039D01*
Y11885D01*
X19048D01*
X19057D01*
Y11895D01*
X19067D01*
Y11904D01*
X19076D01*
Y11913D01*
X19085D01*
Y11923D01*
X19095D01*
Y11932D01*
X19104D01*
Y11941D01*
X19113D01*
Y11951D01*
X19123D01*
X19132D01*
Y11960D01*
X19141D01*
Y11969D01*
X19151D01*
Y11979D01*
X19160D01*
Y11988D01*
X19169D01*
Y11997D01*
X19179D01*
Y12007D01*
X19188D01*
Y12016D01*
X19198D01*
Y12025D01*
X19207D01*
Y12035D01*
X19216D01*
X19226D01*
Y12044D01*
X19235D01*
Y12053D01*
X19244D01*
Y12063D01*
X19254D01*
Y12072D01*
X19263D01*
Y12081D01*
X19272D01*
Y12091D01*
X19282D01*
Y12100D01*
X19291D01*
Y12109D01*
X19300D01*
Y12119D01*
X19310D01*
Y12128D01*
X19319D01*
Y12137D01*
X19328D01*
X19338D01*
Y12156D01*
X19347D01*
X19356D01*
Y12175D01*
X19366D01*
X19375D01*
Y12184D01*
X19384D01*
Y12194D01*
X19394D01*
Y12203D01*
X19403D01*
X19412D01*
Y12212D01*
X19422D01*
Y12222D01*
X19431D01*
Y12231D01*
X19440D01*
X19450D01*
X19459D01*
Y12240D01*
X19468D01*
X19478D01*
X19487D01*
Y12250D01*
X19496D01*
X19506D01*
Y12259D01*
X19515D01*
X19524D01*
Y12268D01*
X19534D01*
X19543D01*
Y12278D01*
X19552D01*
X19562D01*
X19571D01*
Y12287D01*
X19580D01*
X19590D01*
Y12296D01*
X19599D01*
X19608D01*
Y12306D01*
X19618D01*
X19627D01*
Y12315D01*
X19636D01*
X19646D01*
Y12324D01*
X19655D01*
X19664D01*
Y12334D01*
X19674D01*
X19683D01*
X19692D01*
Y12343D01*
X19702D01*
X19711D01*
Y12352D01*
X19720D01*
X19730D01*
Y12362D01*
X19739D01*
X19748D01*
Y12371D01*
X19758D01*
Y12380D01*
X19767D01*
X19776D01*
Y12390D01*
X19786D01*
Y12399D01*
X19795D01*
X19805D01*
Y12408D01*
X19814D01*
Y12418D01*
X19823D01*
X19833D01*
Y12427D01*
X19842D01*
Y12436D01*
X19851D01*
X19861D01*
Y12446D01*
X19870D01*
Y12455D01*
X19879D01*
Y12464D01*
X19889D01*
X19898D01*
Y12474D01*
X19907D01*
Y12483D01*
X19917D01*
Y12492D01*
X19926D01*
Y12502D01*
X19935D01*
Y12520D01*
X19945D01*
Y12567D01*
X19935D01*
Y12576D01*
X19926D01*
X19917D01*
X19907D01*
X19898D01*
X19889D01*
X19879D01*
X19870D01*
Y12567D01*
X19861D01*
X19851D01*
X19842D01*
X19833D01*
Y12558D01*
X19823D01*
X19814D01*
Y12548D01*
X19805D01*
X19795D01*
X19786D01*
Y12539D01*
X19776D01*
Y12530D01*
X19767D01*
X19758D01*
Y12520D01*
X19748D01*
X19739D01*
Y12511D01*
X19730D01*
Y12502D01*
X19720D01*
X19711D01*
Y12492D01*
X19702D01*
X19692D01*
Y12483D01*
X19683D01*
Y12474D01*
X19674D01*
X19664D01*
Y12464D01*
X19655D01*
Y12455D01*
X19646D01*
X19636D01*
Y12446D01*
X19627D01*
Y12436D01*
X19618D01*
Y12427D01*
X19608D01*
X19599D01*
Y12418D01*
X19590D01*
Y12408D01*
X19580D01*
X19571D01*
Y12399D01*
X19562D01*
Y12390D01*
X19552D01*
Y12380D01*
X19543D01*
X19534D01*
Y12371D01*
X19524D01*
Y12362D01*
X19515D01*
X19506D01*
Y12352D01*
X19496D01*
Y12343D01*
X19487D01*
Y12334D01*
X19478D01*
X19468D01*
Y12324D01*
X19459D01*
Y12315D01*
X19450D01*
X19440D01*
Y12306D01*
X19431D01*
X19422D01*
Y12296D01*
X19412D01*
X19403D01*
X19394D01*
Y12287D01*
X19384D01*
X19375D01*
X19366D01*
Y12278D01*
X19356D01*
X19347D01*
Y12268D01*
X19338D01*
X19328D01*
X19319D01*
Y12259D01*
X19310D01*
X19300D01*
X19291D01*
Y12250D01*
X19282D01*
X19272D01*
X19263D01*
Y12240D01*
X19254D01*
X19244D01*
X19235D01*
Y12231D01*
X19226D01*
X19216D01*
X19207D01*
Y12222D01*
X19198D01*
X19188D01*
X19179D01*
Y12212D01*
X19169D01*
X19160D01*
X19151D01*
Y12203D01*
X19141D01*
X19132D01*
X19123D01*
X19113D01*
Y12194D01*
X19104D01*
X19095D01*
X19085D01*
X19076D01*
Y12184D01*
X19067D01*
X19057D01*
X19048D01*
X19039D01*
Y12175D01*
X19029D01*
X19020D01*
X19011D01*
X19001D01*
Y12165D01*
X18992D01*
X18983D01*
X18973D01*
X18964D01*
X18955D01*
Y12156D01*
X18945D01*
X18936D01*
X18927D01*
X18917D01*
X18908D01*
X18899D01*
Y12147D01*
X18889D01*
X18880D01*
X18871D01*
X18861D01*
X18852D01*
X18843D01*
X18833D01*
X18824D01*
Y12175D01*
X18833D01*
Y12184D01*
X18843D01*
Y12194D01*
X18852D01*
Y12203D01*
X18861D01*
Y12212D01*
X18871D01*
Y12231D01*
X18880D01*
Y12240D01*
X18889D01*
Y12250D01*
X18899D01*
X18908D01*
Y12259D01*
X18917D01*
Y12268D01*
X18927D01*
Y12278D01*
X18936D01*
Y12287D01*
X18945D01*
Y12296D01*
X18955D01*
Y12306D01*
X18964D01*
Y12315D01*
X18973D01*
X18983D01*
Y12324D01*
X18992D01*
Y12334D01*
X19001D01*
Y12343D01*
X19011D01*
X19020D01*
Y12352D01*
X19029D01*
X19039D01*
Y12362D01*
X19048D01*
X19057D01*
Y12371D01*
X19067D01*
X19076D01*
Y12380D01*
X19085D01*
X19095D01*
Y12390D01*
X19104D01*
Y12399D01*
X19113D01*
X19123D01*
Y12408D01*
X19132D01*
X19141D01*
Y12418D01*
X19151D01*
X19160D01*
Y12427D01*
X19169D01*
X19179D01*
Y12436D01*
X19188D01*
X19198D01*
Y12446D01*
X19207D01*
X19216D01*
Y12455D01*
X19226D01*
X19235D01*
Y12464D01*
X19244D01*
X19254D01*
Y12474D01*
X19263D01*
X19272D01*
Y12483D01*
X19282D01*
Y12492D01*
X19291D01*
X19300D01*
X19310D01*
Y12502D01*
X19319D01*
Y12511D01*
X19328D01*
X19338D01*
X19347D01*
Y12520D01*
X19356D01*
Y12530D01*
X19366D01*
X19375D01*
X19384D01*
Y12539D01*
X19394D01*
Y12548D01*
X19403D01*
X19412D01*
X19422D01*
Y12558D01*
X19431D01*
Y12567D01*
X19440D01*
X19450D01*
X19459D01*
Y12576D01*
X19468D01*
Y12586D01*
X19478D01*
X19487D01*
Y12595D01*
X19496D01*
X19506D01*
Y12604D01*
X19515D01*
X19524D01*
Y12614D01*
X19534D01*
X19543D01*
Y12623D01*
X19552D01*
X19562D01*
Y12632D01*
X19571D01*
X19580D01*
Y12642D01*
X19590D01*
X19599D01*
Y12651D01*
X19608D01*
Y12660D01*
X19618D01*
X19627D01*
Y12670D01*
X19636D01*
X19646D01*
Y12679D01*
X19655D01*
X19664D01*
Y12688D01*
X19674D01*
X19683D01*
Y12698D01*
X19692D01*
X19702D01*
Y12707D01*
X19711D01*
Y12716D01*
X19720D01*
X19730D01*
Y12726D01*
X19739D01*
X19748D01*
Y12735D01*
X19758D01*
X19767D01*
Y12744D01*
X19776D01*
X19786D01*
Y12754D01*
X19795D01*
Y12763D01*
X19805D01*
X19814D01*
Y12772D01*
X19823D01*
X19833D01*
Y12782D01*
X19842D01*
X19851D01*
Y12791D01*
X19861D01*
X19870D01*
Y12801D01*
X19879D01*
Y12810D01*
X19889D01*
X19898D01*
Y12819D01*
X19907D01*
X19917D01*
Y12829D01*
X19926D01*
X19935D01*
Y12838D01*
X19945D01*
Y12847D01*
X19954D01*
X19963D01*
Y12857D01*
X19973D01*
Y12866D01*
X19982D01*
X19991D01*
Y12875D01*
X20001D01*
Y12885D01*
X20010D01*
X20019D01*
Y12894D01*
X20029D01*
Y12903D01*
X20038D01*
Y12913D01*
X20047D01*
Y12959D01*
X20038D01*
Y12969D01*
X20029D01*
X20019D01*
X20010D01*
X20001D01*
X19991D01*
X19982D01*
Y12959D01*
X19973D01*
X19963D01*
X19954D01*
Y12950D01*
X19945D01*
X19935D01*
Y12941D01*
X19926D01*
X19917D01*
Y12931D01*
X19907D01*
X19898D01*
Y12922D01*
X19889D01*
X19879D01*
X19870D01*
Y12913D01*
X19861D01*
X19851D01*
Y12903D01*
X19842D01*
X19833D01*
X19823D01*
Y12894D01*
X19814D01*
X19805D01*
Y12885D01*
X19795D01*
X19786D01*
Y12875D01*
X19776D01*
X19767D01*
X19758D01*
Y12866D01*
X19748D01*
X19739D01*
Y12857D01*
X19730D01*
X19720D01*
Y12847D01*
X19711D01*
X19702D01*
Y12838D01*
X19692D01*
X19683D01*
Y12829D01*
X19674D01*
X19664D01*
X19655D01*
Y12819D01*
X19646D01*
X19636D01*
Y12810D01*
X19627D01*
X19618D01*
Y12801D01*
X19608D01*
X19599D01*
Y12791D01*
X19590D01*
X19580D01*
Y12782D01*
X19571D01*
X19562D01*
Y12772D01*
X19552D01*
X19543D01*
X19534D01*
Y12763D01*
X19524D01*
X19515D01*
Y12754D01*
X19506D01*
X19496D01*
Y12744D01*
X19487D01*
Y12735D01*
X19478D01*
X19468D01*
Y12726D01*
X19459D01*
X19450D01*
Y12716D01*
X19440D01*
X19431D01*
Y12707D01*
X19422D01*
Y12698D01*
X19412D01*
X19403D01*
Y12688D01*
X19394D01*
X19384D01*
Y12679D01*
X19375D01*
X19366D01*
Y12670D01*
X19356D01*
Y12660D01*
X19347D01*
X19338D01*
Y12651D01*
X19328D01*
X19319D01*
Y12642D01*
X19310D01*
X19300D01*
Y12632D01*
X19291D01*
Y12623D01*
X19282D01*
X19272D01*
Y12614D01*
X19263D01*
X19254D01*
Y12604D01*
X19244D01*
X19235D01*
Y12595D01*
X19226D01*
Y12586D01*
X19216D01*
X19207D01*
Y12576D01*
X19198D01*
Y12567D01*
X19188D01*
X19179D01*
Y12558D01*
X19169D01*
Y12548D01*
X19160D01*
Y12539D01*
X19151D01*
X19141D01*
Y12530D01*
X19132D01*
Y12520D01*
X19123D01*
X19113D01*
Y12511D01*
X19104D01*
Y12502D01*
X19095D01*
X19085D01*
Y12492D01*
X19076D01*
Y12483D01*
X19067D01*
Y12474D01*
X19057D01*
X19048D01*
Y12464D01*
X19039D01*
Y12455D01*
X19029D01*
Y12446D01*
X19020D01*
X19011D01*
Y12436D01*
X19001D01*
Y12427D01*
X18992D01*
X18983D01*
Y12418D01*
X18973D01*
Y12408D01*
X18964D01*
Y12399D01*
X18955D01*
X18945D01*
Y12390D01*
X18936D01*
X18927D01*
Y12380D01*
X18917D01*
X18908D01*
Y12371D01*
X18899D01*
X18889D01*
Y12362D01*
X18880D01*
X18871D01*
X18861D01*
Y12352D01*
X18852D01*
X18843D01*
Y12343D01*
X18833D01*
X18824D01*
Y12334D01*
X18815D01*
X18805D01*
Y12324D01*
X18796D01*
X18787D01*
Y12315D01*
X18777D01*
X18768D01*
Y12306D01*
X18759D01*
X18749D01*
Y12296D01*
X18740D01*
X18731D01*
Y12287D01*
X18721D01*
X18712D01*
Y12296D01*
X18721D01*
Y12306D01*
X18731D01*
Y12315D01*
X18740D01*
X18749D01*
Y12324D01*
X18759D01*
Y12334D01*
X18768D01*
X18777D01*
Y12343D01*
X18787D01*
Y12352D01*
X18796D01*
X18805D01*
Y12362D01*
X18815D01*
Y12371D01*
X18824D01*
X18833D01*
Y12380D01*
X18843D01*
Y12390D01*
X18852D01*
Y12399D01*
X18861D01*
X18871D01*
Y12408D01*
X18880D01*
Y12418D01*
X18889D01*
Y12427D01*
X18899D01*
Y12436D01*
X18908D01*
Y12446D01*
X18917D01*
Y12492D01*
X18908D01*
Y12502D01*
X18899D01*
Y12511D01*
X18889D01*
X18880D01*
X18871D01*
X18861D01*
X18852D01*
Y12502D01*
X18843D01*
X18833D01*
Y12492D01*
X18824D01*
X18815D01*
X18805D01*
Y12483D01*
X18796D01*
X18787D01*
Y12474D01*
X18777D01*
X18768D01*
Y12483D01*
X18777D01*
Y12492D01*
X18787D01*
Y12502D01*
X18796D01*
X18805D01*
Y12511D01*
X18815D01*
Y12520D01*
X18824D01*
Y12530D01*
X18833D01*
Y12539D01*
X18843D01*
Y12548D01*
X18852D01*
X18861D01*
Y12558D01*
X18871D01*
Y12567D01*
X18880D01*
Y12576D01*
X18889D01*
X18899D01*
Y12586D01*
X18908D01*
Y12595D01*
X18917D01*
Y12604D01*
X18927D01*
Y12614D01*
X18936D01*
Y12632D01*
X18927D01*
Y12651D01*
X18917D01*
X18908D01*
X18899D01*
Y12642D01*
X18889D01*
X18880D01*
Y12632D01*
X18871D01*
X18861D01*
X18852D01*
X18843D01*
Y12623D01*
X18833D01*
X18824D01*
X18815D01*
X18805D01*
X18796D01*
X18787D01*
X18777D01*
Y12670D01*
X18787D01*
Y12688D01*
X18796D01*
Y12698D01*
X18805D01*
X18815D01*
Y12707D01*
X18824D01*
Y12716D01*
X18833D01*
Y12726D01*
X18843D01*
Y12735D01*
X18852D01*
Y12744D01*
X18861D01*
Y12754D01*
X18871D01*
Y12763D01*
X18880D01*
Y12772D01*
X18889D01*
Y12782D01*
X18899D01*
Y12791D01*
X18908D01*
X18917D01*
Y12801D01*
X18927D01*
X18936D01*
Y12810D01*
X18945D01*
X18955D01*
X18964D01*
Y12819D01*
X18973D01*
X18983D01*
Y12829D01*
X18992D01*
X19001D01*
X19011D01*
Y12838D01*
X19020D01*
X19029D01*
Y12847D01*
X19039D01*
X19048D01*
X19057D01*
Y12857D01*
X19067D01*
X19076D01*
Y12866D01*
X19085D01*
X19095D01*
Y12875D01*
X19104D01*
X19113D01*
Y12885D01*
X19123D01*
X19132D01*
X19141D01*
Y12894D01*
X19151D01*
X19160D01*
Y12903D01*
X19169D01*
X19179D01*
Y12913D01*
X19188D01*
X19198D01*
Y12922D01*
X19207D01*
X19216D01*
Y12931D01*
X19226D01*
X19235D01*
Y12941D01*
X19244D01*
X19254D01*
X19263D01*
Y12950D01*
X19272D01*
X19282D01*
Y12959D01*
X19291D01*
X19300D01*
Y12969D01*
X19310D01*
X19319D01*
Y12978D01*
X19328D01*
X19338D01*
Y12987D01*
X19347D01*
X19356D01*
Y12997D01*
X19366D01*
X19375D01*
Y13006D01*
X19384D01*
X19394D01*
Y13015D01*
X19403D01*
X19412D01*
Y13025D01*
X19422D01*
X19431D01*
Y13034D01*
X19440D01*
X19450D01*
Y13043D01*
X19459D01*
X19468D01*
Y13053D01*
X19478D01*
X19487D01*
Y13062D01*
X19496D01*
X19506D01*
Y13071D01*
X19515D01*
X19524D01*
Y13081D01*
X19534D01*
X19543D01*
Y13090D01*
X19552D01*
X19562D01*
Y13099D01*
X19571D01*
Y13109D01*
X19580D01*
X19590D01*
Y13118D01*
X19599D01*
X19608D01*
Y13127D01*
X19618D01*
X19627D01*
Y13137D01*
X19636D01*
X19646D01*
Y13146D01*
X19655D01*
X19664D01*
Y13155D01*
X19674D01*
Y13165D01*
X19683D01*
X19692D01*
Y13174D01*
X19702D01*
X19711D01*
Y13183D01*
X19720D01*
X19730D01*
Y13193D01*
X19739D01*
Y13202D01*
X19748D01*
X19758D01*
Y13211D01*
X19767D01*
X19776D01*
Y13221D01*
X19786D01*
Y13230D01*
X19795D01*
X19805D01*
Y13239D01*
X19814D01*
X19823D01*
Y13249D01*
X19833D01*
Y13258D01*
X19842D01*
X19851D01*
Y13267D01*
X19861D01*
Y13277D01*
X19870D01*
X19879D01*
Y13286D01*
X19889D01*
X19898D01*
Y13295D01*
X19907D01*
Y13305D01*
X19917D01*
X19926D01*
Y13314D01*
X19935D01*
Y13323D01*
X19945D01*
Y13333D01*
X19954D01*
Y13342D01*
X19963D01*
Y13351D01*
X19973D01*
Y13361D01*
X19982D01*
Y13370D01*
X19991D01*
Y13408D01*
X19982D01*
Y13417D01*
X19973D01*
Y13426D01*
X19963D01*
X19954D01*
X19945D01*
X19935D01*
Y13417D01*
X19926D01*
X19917D01*
X19907D01*
Y13408D01*
X19898D01*
X19889D01*
Y13398D01*
X19879D01*
X19870D01*
X19861D01*
Y13389D01*
X19851D01*
X19842D01*
Y13379D01*
X19833D01*
X19823D01*
Y13370D01*
X19814D01*
X19805D01*
X19795D01*
Y13361D01*
X19786D01*
X19776D01*
Y13351D01*
X19767D01*
X19758D01*
Y13342D01*
X19748D01*
X19739D01*
Y13333D01*
X19730D01*
X19720D01*
X19711D01*
Y13323D01*
X19702D01*
X19692D01*
Y13314D01*
X19683D01*
X19674D01*
Y13305D01*
X19664D01*
X19655D01*
Y13295D01*
X19646D01*
X19636D01*
Y13286D01*
X19627D01*
X19618D01*
X19608D01*
Y13277D01*
X19599D01*
X19590D01*
Y13267D01*
X19580D01*
X19571D01*
Y13258D01*
X19562D01*
X19552D01*
Y13249D01*
X19543D01*
X19534D01*
Y13239D01*
X19524D01*
X19515D01*
Y13230D01*
X19506D01*
X19496D01*
Y13221D01*
X19487D01*
X19478D01*
X19468D01*
Y13211D01*
X19459D01*
X19450D01*
Y13202D01*
X19440D01*
Y13193D01*
X19431D01*
X19422D01*
Y13183D01*
X19412D01*
X19403D01*
Y13174D01*
X19394D01*
X19384D01*
Y13165D01*
X19375D01*
X19366D01*
Y13155D01*
X19356D01*
X19347D01*
Y13146D01*
X19338D01*
Y13137D01*
X19328D01*
X19319D01*
Y13127D01*
X19310D01*
X19300D01*
Y13118D01*
X19291D01*
Y13109D01*
X19282D01*
X19272D01*
Y13099D01*
X19263D01*
X19254D01*
Y13090D01*
X19244D01*
Y13081D01*
X19235D01*
X19226D01*
Y13071D01*
X19216D01*
X19207D01*
Y13062D01*
X19198D01*
X19188D01*
Y13053D01*
X19179D01*
Y13043D01*
X19169D01*
X19160D01*
Y13034D01*
X19151D01*
X19141D01*
Y13025D01*
X19132D01*
Y13015D01*
X19123D01*
X19113D01*
Y13006D01*
X19104D01*
Y12997D01*
X19095D01*
X19085D01*
Y12987D01*
X19076D01*
Y12978D01*
X19067D01*
Y12969D01*
X19057D01*
X19048D01*
Y12959D01*
X19039D01*
Y12950D01*
X19029D01*
X19020D01*
Y12941D01*
X19011D01*
Y12931D01*
X19001D01*
Y12922D01*
X18992D01*
Y12913D01*
X18983D01*
X18973D01*
Y12903D01*
X18964D01*
Y12894D01*
X18955D01*
X18945D01*
X18936D01*
Y12885D01*
X18927D01*
X18917D01*
Y12875D01*
X18908D01*
X18899D01*
X18889D01*
Y12866D01*
X18880D01*
X18871D01*
Y12857D01*
X18861D01*
X18852D01*
X18843D01*
Y12847D01*
X18833D01*
X18824D01*
X18815D01*
Y12838D01*
X18805D01*
X18796D01*
Y12829D01*
X18787D01*
X18777D01*
X18768D01*
Y12819D01*
X18759D01*
X18749D01*
X18740D01*
Y12810D01*
X18731D01*
X18721D01*
Y12801D01*
X18712D01*
X18703D01*
X18693D01*
Y12791D01*
X18684D01*
X18675D01*
X18665D01*
Y12782D01*
X18656D01*
X18647D01*
Y12772D01*
X18637D01*
X18628D01*
X18619D01*
Y12763D01*
X18609D01*
X18600D01*
X18591D01*
Y12754D01*
X18581D01*
X18572D01*
Y12744D01*
X18562D01*
X18553D01*
X18544D01*
Y12735D01*
X18534D01*
X18525D01*
X18516D01*
Y12726D01*
X18506D01*
X18497D01*
X18488D01*
Y12716D01*
X18478D01*
X18469D01*
Y12707D01*
X18460D01*
X18450D01*
X18441D01*
Y12698D01*
X18432D01*
X18422D01*
X18413D01*
Y12688D01*
X18404D01*
X18394D01*
X18385D01*
Y12679D01*
X18376D01*
X18366D01*
X18357D01*
Y12670D01*
X18348D01*
X18338D01*
X18329D01*
Y12660D01*
X18320D01*
X18310D01*
X18301D01*
Y12651D01*
X18292D01*
X18282D01*
X18273D01*
Y12642D01*
X18264D01*
X18254D01*
X18245D01*
Y12632D01*
X18236D01*
X18226D01*
X18217D01*
Y12623D01*
X18208D01*
X18198D01*
X18189D01*
Y12614D01*
X18180D01*
X18170D01*
X18161D01*
Y12604D01*
X18152D01*
X18142D01*
X18133D01*
Y12595D01*
X18124D01*
X18114D01*
X18105D01*
X18096D01*
Y12586D01*
X18086D01*
X18077D01*
X18068D01*
Y12576D01*
X18058D01*
X18049D01*
X18040D01*
Y12567D01*
X18030D01*
X18021D01*
X18012D01*
Y12558D01*
X18002D01*
X17993D01*
X17984D01*
Y12548D01*
X17974D01*
X17965D01*
X17955D01*
X17946D01*
Y12539D01*
X17937D01*
X17927D01*
X17918D01*
Y12530D01*
X17909D01*
X17899D01*
X17890D01*
Y12520D01*
X17881D01*
X17871D01*
X17862D01*
Y12511D01*
X17853D01*
X17843D01*
X17834D01*
X17825D01*
Y12502D01*
X17815D01*
X17806D01*
X17797D01*
Y12492D01*
X17787D01*
X17778D01*
X17769D01*
X17759D01*
Y12483D01*
X17750D01*
X17741D01*
X17731D01*
Y12474D01*
X17722D01*
X17713D01*
X17703D01*
X17694D01*
Y12464D01*
X17685D01*
X17675D01*
X17666D01*
Y12455D01*
X17657D01*
X17647D01*
X17638D01*
X17629D01*
Y12446D01*
X17619D01*
X17610D01*
X17601D01*
X17591D01*
Y12436D01*
X17582D01*
X17573D01*
X17563D01*
X17554D01*
Y12446D01*
X17563D01*
X17573D01*
Y12455D01*
X17582D01*
X17591D01*
Y12464D01*
X17601D01*
X17610D01*
Y12474D01*
X17619D01*
X17629D01*
Y12483D01*
X17638D01*
X17647D01*
Y12492D01*
X17657D01*
X17666D01*
Y12502D01*
X17675D01*
X17685D01*
Y12511D01*
X17694D01*
X17703D01*
Y12520D01*
X17713D01*
X17722D01*
Y12530D01*
X17731D01*
X17741D01*
Y12539D01*
X17750D01*
X17759D01*
Y12548D01*
X17769D01*
X17778D01*
Y12558D01*
X17787D01*
X17797D01*
Y12567D01*
X17806D01*
X17815D01*
Y12576D01*
X17825D01*
X17834D01*
Y12586D01*
X17843D01*
X17853D01*
Y12595D01*
X17862D01*
Y12604D01*
X17871D01*
X17881D01*
Y12614D01*
X17890D01*
X17899D01*
Y12623D01*
X17909D01*
X17918D01*
Y12632D01*
X17927D01*
X17937D01*
Y12642D01*
X17946D01*
Y12651D01*
X17955D01*
X17965D01*
Y12660D01*
X17974D01*
X17984D01*
Y12670D01*
X17993D01*
X18002D01*
Y12679D01*
X18012D01*
Y12688D01*
X18021D01*
X18030D01*
Y12698D01*
X18040D01*
X18049D01*
Y12707D01*
X18058D01*
Y12716D01*
X18068D01*
X18077D01*
Y12726D01*
X18086D01*
Y12735D01*
X18096D01*
X18105D01*
Y12744D01*
X18114D01*
X18124D01*
Y12754D01*
X18133D01*
X18142D01*
Y12763D01*
X18152D01*
Y12772D01*
X18161D01*
X18170D01*
Y12782D01*
X18180D01*
Y12791D01*
X18189D01*
X18198D01*
Y12801D01*
X18208D01*
X18217D01*
Y12810D01*
X18226D01*
X18236D01*
Y12819D01*
X18245D01*
Y12829D01*
X18254D01*
X18264D01*
Y12838D01*
X18273D01*
Y12847D01*
X18282D01*
X18292D01*
Y12857D01*
X18301D01*
X18310D01*
Y12866D01*
X18320D01*
X18329D01*
Y12875D01*
X18338D01*
Y12885D01*
X18348D01*
X18357D01*
Y12894D01*
X18366D01*
Y12903D01*
X18376D01*
X18385D01*
Y12913D01*
X18394D01*
Y12922D01*
X18404D01*
X18413D01*
Y12931D01*
X18422D01*
X18432D01*
Y12941D01*
X18441D01*
Y12950D01*
X18450D01*
X18460D01*
Y12959D01*
X18469D01*
Y12969D01*
X18478D01*
X18488D01*
Y12978D01*
X18497D01*
Y12987D01*
X18506D01*
X18516D01*
Y12997D01*
X18525D01*
X18534D01*
Y13006D01*
X18544D01*
X18553D01*
Y13015D01*
X18562D01*
Y13025D01*
X18572D01*
X18581D01*
Y13034D01*
X18591D01*
Y13043D01*
X18600D01*
X18609D01*
Y13053D01*
X18619D01*
Y13062D01*
X18628D01*
X18637D01*
Y13071D01*
X18647D01*
Y13081D01*
X18656D01*
X18665D01*
Y13090D01*
X18675D01*
X18684D01*
Y13099D01*
X18693D01*
Y13109D01*
X18703D01*
X18712D01*
Y13090D01*
X18703D01*
Y13071D01*
X18693D01*
Y13006D01*
X18703D01*
Y12997D01*
X18712D01*
Y12987D01*
X18721D01*
Y12978D01*
X18731D01*
X18740D01*
Y12969D01*
X18749D01*
X18759D01*
Y12978D01*
X18768D01*
X18777D01*
X18787D01*
Y12987D01*
X18796D01*
X18805D01*
Y12997D01*
X18815D01*
Y13006D01*
X18824D01*
Y13015D01*
X18833D01*
Y13025D01*
X18843D01*
Y13034D01*
X18852D01*
Y13043D01*
X18861D01*
Y13062D01*
X18871D01*
Y13071D01*
X18880D01*
Y13090D01*
X18889D01*
Y13099D01*
X18899D01*
Y13118D01*
X18908D01*
Y13183D01*
X18917D01*
Y13211D01*
X18927D01*
Y13221D01*
X18917D01*
Y13239D01*
X18927D01*
Y13258D01*
X18936D01*
Y13295D01*
X18945D01*
Y13361D01*
X18955D01*
Y13408D01*
X18964D01*
X18973D01*
X18983D01*
Y13417D01*
X18992D01*
Y13464D01*
X18983D01*
Y13473D01*
X18973D01*
Y13482D01*
X18964D01*
Y13492D01*
X18955D01*
Y13501D01*
X18945D01*
X18936D01*
Y13510D01*
X18927D01*
X18917D01*
Y13538D01*
X18927D01*
Y13557D01*
X18936D01*
Y13566D01*
X18945D01*
Y13585D01*
X18955D01*
Y13594D01*
X18964D01*
Y13604D01*
X18973D01*
Y13613D01*
X18983D01*
Y13632D01*
X18992D01*
Y13641D01*
X19001D01*
Y13650D01*
X19011D01*
Y13660D01*
X19020D01*
Y13669D01*
X19029D01*
Y13688D01*
X19039D01*
Y13697D01*
X19048D01*
Y13706D01*
X19057D01*
Y13716D01*
X19067D01*
Y13725D01*
X19076D01*
Y13744D01*
X19085D01*
Y13753D01*
X19095D01*
Y13762D01*
X19104D01*
Y13772D01*
X19113D01*
Y13781D01*
X19123D01*
Y13790D01*
X19132D01*
Y13800D01*
X19141D01*
Y13809D01*
X19151D01*
Y13818D01*
X19160D01*
Y13828D01*
X19169D01*
Y13837D01*
X19179D01*
Y13846D01*
X19188D01*
Y13856D01*
X19198D01*
Y13865D01*
X19207D01*
Y13884D01*
X19216D01*
X19226D01*
Y13902D01*
X19235D01*
Y13912D01*
X19244D01*
Y13921D01*
X19254D01*
Y13930D01*
X19263D01*
Y13940D01*
X19272D01*
Y13949D01*
X19282D01*
Y13958D01*
X19291D01*
Y13968D01*
X19300D01*
Y13977D01*
X19310D01*
Y13986D01*
X19319D01*
Y13996D01*
X19328D01*
Y14005D01*
X19338D01*
Y14015D01*
X19347D01*
Y14024D01*
X19356D01*
X19366D01*
Y14033D01*
X19375D01*
Y14043D01*
X19384D01*
Y14052D01*
X19394D01*
X19403D01*
Y14061D01*
X19412D01*
Y14071D01*
X19422D01*
X19431D01*
Y14080D01*
X19440D01*
Y14089D01*
X19450D01*
Y14099D01*
X19459D01*
Y14108D01*
X19468D01*
X19478D01*
Y14117D01*
X19487D01*
Y14127D01*
X19496D01*
Y14136D01*
X19506D01*
Y14145D01*
X19515D01*
X19524D01*
Y14155D01*
X19534D01*
Y14164D01*
X19543D01*
Y14173D01*
X19552D01*
Y14183D01*
X19562D01*
Y14192D01*
X19571D01*
X19580D01*
Y14201D01*
X19590D01*
Y14211D01*
X19599D01*
Y14220D01*
X19608D01*
Y14229D01*
X19618D01*
X19627D01*
Y14239D01*
X19636D01*
Y14248D01*
X19646D01*
Y14257D01*
X19655D01*
Y14267D01*
X19664D01*
Y14276D01*
X19674D01*
X19683D01*
Y14285D01*
X19692D01*
Y14295D01*
X19702D01*
Y14304D01*
X19711D01*
Y14313D01*
X19720D01*
Y14323D01*
X19730D01*
Y14332D01*
X19739D01*
Y14341D01*
X19748D01*
X19758D01*
Y14351D01*
X19767D01*
Y14360D01*
X19776D01*
Y14369D01*
X19786D01*
Y14379D01*
X19795D01*
Y14388D01*
X19805D01*
Y14397D01*
X19814D01*
Y14407D01*
X19823D01*
Y14416D01*
X19833D01*
X19842D01*
Y14435D01*
X19851D01*
X19861D01*
Y14453D01*
X19870D01*
X19879D01*
Y14472D01*
X19889D01*
X19898D01*
Y14481D01*
X19907D01*
Y14500D01*
X19917D01*
Y14509D01*
X19926D01*
Y14519D01*
X19935D01*
Y14528D01*
X19945D01*
Y14537D01*
X19954D01*
Y14547D01*
X19963D01*
Y14556D01*
X19973D01*
Y14565D01*
X19982D01*
Y14575D01*
X19991D01*
Y14593D01*
X20001D01*
Y14603D01*
X20010D01*
Y14612D01*
X20019D01*
Y14631D01*
X20029D01*
Y14650D01*
X20038D01*
Y14668D01*
X20047D01*
Y14687D01*
X20057D01*
Y14715D01*
X20047D01*
D02*
G37*
%LPC*%
G36*
X19263Y12165D02*
Y12156D01*
X19254D01*
Y12165D01*
X19263D01*
D02*
G37*
G36*
X19748Y13286D02*
Y13277D01*
X19739D01*
Y13267D01*
X19730D01*
X19720D01*
Y13258D01*
X19711D01*
X19702D01*
Y13249D01*
X19692D01*
Y13239D01*
X19683D01*
X19674D01*
Y13230D01*
X19664D01*
X19655D01*
Y13221D01*
X19646D01*
X19636D01*
Y13211D01*
X19627D01*
X19618D01*
Y13202D01*
X19608D01*
X19599D01*
Y13193D01*
X19590D01*
X19580D01*
Y13183D01*
X19571D01*
X19562D01*
Y13174D01*
X19552D01*
X19543D01*
Y13165D01*
X19534D01*
X19524D01*
Y13155D01*
X19515D01*
X19506D01*
Y13146D01*
X19496D01*
X19487D01*
Y13137D01*
X19478D01*
X19468D01*
Y13127D01*
X19459D01*
X19450D01*
Y13118D01*
X19440D01*
X19431D01*
Y13109D01*
X19422D01*
X19412D01*
Y13099D01*
X19403D01*
X19394D01*
Y13090D01*
X19384D01*
X19375D01*
Y13081D01*
X19366D01*
X19356D01*
Y13071D01*
X19347D01*
X19338D01*
Y13062D01*
X19328D01*
X19319D01*
Y13053D01*
X19310D01*
X19300D01*
Y13043D01*
X19291D01*
X19282D01*
Y13034D01*
X19272D01*
X19263D01*
Y13025D01*
X19254D01*
X19244D01*
Y13015D01*
X19235D01*
X19226D01*
Y13006D01*
X19216D01*
X19207D01*
X19198D01*
Y13015D01*
X19207D01*
Y13025D01*
X19216D01*
X19226D01*
Y13034D01*
X19235D01*
X19244D01*
Y13043D01*
X19254D01*
Y13053D01*
X19263D01*
X19272D01*
Y13062D01*
X19282D01*
X19291D01*
Y13071D01*
X19300D01*
Y13081D01*
X19310D01*
X19319D01*
Y13090D01*
X19328D01*
X19338D01*
Y13099D01*
X19347D01*
X19356D01*
Y13109D01*
X19366D01*
Y13118D01*
X19375D01*
X19384D01*
Y13127D01*
X19394D01*
X19403D01*
Y13137D01*
X19412D01*
X19422D01*
Y13146D01*
X19431D01*
X19440D01*
Y13155D01*
X19450D01*
X19459D01*
Y13165D01*
X19468D01*
Y13174D01*
X19478D01*
X19487D01*
Y13183D01*
X19496D01*
X19506D01*
X19515D01*
Y13193D01*
X19524D01*
X19534D01*
Y13202D01*
X19543D01*
X19552D01*
Y13211D01*
X19562D01*
X19571D01*
X19580D01*
Y13221D01*
X19590D01*
X19599D01*
Y13230D01*
X19608D01*
X19618D01*
Y13239D01*
X19627D01*
X19636D01*
X19646D01*
Y13249D01*
X19655D01*
X19664D01*
Y13258D01*
X19674D01*
X19683D01*
Y13267D01*
X19692D01*
X19702D01*
X19711D01*
Y13277D01*
X19720D01*
X19730D01*
Y13286D01*
X19739D01*
X19748D01*
D02*
G37*
G36*
X19198Y13006D02*
Y12997D01*
X19188D01*
X19179D01*
Y13006D01*
X19188D01*
X19198D01*
D02*
G37*
G36*
X19179Y12997D02*
Y12987D01*
X19169D01*
Y12997D01*
X19179D01*
D02*
G37*
%LPD*%
D13*
X11914Y11620D02*
X12308D01*
X13292Y14180D02*
X13686D01*
Y13687D02*
Y14180D01*
Y11620D02*
Y12113D01*
X13292Y11620D02*
X13686D01*
X11914D02*
Y12113D01*
Y14044D02*
X12050Y14180D01*
X11914Y13687D02*
Y14044D01*
X12050Y14180D02*
X12308D01*
D14*
X16515Y11506D02*
Y11296D01*
X16357D01*
Y11401D01*
Y11296D01*
X16200D01*
Y11611D02*
Y11716D01*
Y11663D01*
X16410D01*
Y11611D01*
X16200Y11873D02*
Y11978D01*
Y11926D01*
X16515D01*
Y11873D01*
X16462Y12188D02*
X16410D01*
Y12136D01*
Y12240D01*
Y12188D01*
X16252D01*
X16200Y12240D01*
Y12555D02*
Y12450D01*
X16252Y12398D01*
X16357D01*
X16410Y12450D01*
Y12555D01*
X16357Y12608D01*
X16305D01*
Y12398D01*
X16410Y12713D02*
X16200D01*
X16305D01*
X16357Y12765D01*
X16410Y12818D01*
Y12870D01*
X16357Y13028D02*
Y13238D01*
X16462Y13552D02*
X16515Y13500D01*
Y13395D01*
X16462Y13342D01*
X16410D01*
X16357Y13395D01*
Y13500D01*
X16305Y13552D01*
X16252D01*
X16200Y13500D01*
Y13395D01*
X16252Y13342D01*
X16095Y13657D02*
X16410D01*
Y13815D01*
X16357Y13867D01*
X16252D01*
X16200Y13815D01*
Y13657D01*
Y13972D02*
Y14077D01*
Y14025D01*
X16515D01*
Y13972D01*
X16200Y14235D02*
Y14340D01*
Y14287D01*
X16410D01*
Y14235D01*
X16462Y14549D02*
X16410D01*
Y14497D01*
Y14602D01*
Y14549D01*
X16252D01*
X16200Y14602D01*
X15600Y12057D02*
X15915D01*
Y12214D01*
X15862Y12267D01*
X15757D01*
X15705Y12214D01*
Y12057D01*
X15810Y12372D02*
X15600D01*
X15705D01*
X15757Y12424D01*
X15810Y12477D01*
Y12529D01*
X15600Y12844D02*
Y12739D01*
X15652Y12687D01*
X15757D01*
X15810Y12739D01*
Y12844D01*
X15757Y12896D01*
X15705D01*
Y12687D01*
X15810Y13054D02*
Y13159D01*
X15757Y13211D01*
X15600D01*
Y13054D01*
X15652Y13001D01*
X15705Y13054D01*
Y13211D01*
X15600Y13316D02*
X15810D01*
Y13369D01*
X15757Y13421D01*
X15600D01*
X15757D01*
X15810Y13474D01*
X15757Y13526D01*
X15600D01*
X15495Y13631D02*
X15810D01*
Y13789D01*
X15757Y13841D01*
X15652D01*
X15600Y13789D01*
Y13631D01*
X15000Y12083D02*
X15315D01*
X15157Y11926D01*
Y12136D01*
Y12240D02*
Y12450D01*
X15315Y12555D02*
X15000D01*
Y12765D01*
X15210Y12923D02*
Y13028D01*
X15157Y13080D01*
X15000D01*
Y12923D01*
X15052Y12870D01*
X15105Y12923D01*
Y13080D01*
X15210Y13185D02*
X15052D01*
X15000Y13238D01*
Y13395D01*
X14948D01*
X14895Y13342D01*
Y13290D01*
X15000Y13395D02*
X15210D01*
X15000Y13657D02*
Y13552D01*
X15052Y13500D01*
X15157D01*
X15210Y13552D01*
Y13657D01*
X15157Y13710D01*
X15105D01*
Y13500D01*
X15210Y13815D02*
X15000D01*
X15105D01*
X15157Y13867D01*
X15210Y13920D01*
Y13972D01*
X14294Y13912D02*
Y13781D01*
Y13847D01*
X13966D01*
X13900Y13781D01*
Y13716D01*
X13966Y13650D01*
X13900Y14044D02*
Y14175D01*
Y14109D01*
X14294D01*
X14228Y14044D01*
M02*
