G04*
G04 #@! TF.GenerationSoftware,Altium Limited,Altium Designer,18.1.7 (191)*
G04*
G04 Layer_Color=65535*
%FSLAX24Y24*%
%MOIN*%
G70*
G01*
G75*
%ADD10C,0.0100*%
%ADD11C,0.0060*%
%ADD12C,0.0394*%
%ADD13C,0.0079*%
%ADD14C,0.0070*%
D10*
X14960Y13600D02*
G03*
X14959Y13597I-10J0D01*
G01*
D11*
X15201Y13391D02*
G03*
X15299Y13391I49J109D01*
G01*
X15131Y12300D02*
X15369D01*
X15595Y12767D02*
Y13033D01*
X15131Y13500D02*
X15369D01*
D12*
X19071Y10900D02*
G03*
X19071Y10900I-71J0D01*
G01*
D13*
X22400Y11150D02*
Y14650D01*
D14*
X18145Y13550D02*
Y13250D01*
X18345D01*
X18645D02*
X18445D01*
X18645Y13450D01*
Y13500D01*
X18595Y13550D01*
X18495D01*
X18445Y13500D01*
X18250Y14550D02*
Y14250D01*
X18450D01*
X18550D02*
X18650D01*
X18600D01*
Y14550D01*
X18550Y14500D01*
X18030Y12500D02*
X17980Y12550D01*
X17880D01*
X17830Y12500D01*
Y12300D01*
X17880Y12250D01*
X17980D01*
X18030Y12300D01*
Y12400D01*
X17930D01*
X18130Y12250D02*
Y12550D01*
X18330Y12250D01*
Y12550D01*
X18430D02*
Y12250D01*
X18580D01*
X18630Y12300D01*
Y12500D01*
X18580Y12550D01*
X18430D01*
X17210Y14112D02*
X17157Y14165D01*
X17052D01*
X17000Y14112D01*
Y13902D01*
X17052Y13850D01*
X17157D01*
X17210Y13902D01*
X17315Y13850D02*
X17420D01*
X17367D01*
Y14165D01*
X17315Y14112D01*
X12660Y13012D02*
X12607Y13065D01*
X12502D01*
X12450Y13012D01*
Y12802D01*
X12502Y12750D01*
X12607D01*
X12660Y12802D01*
X12975Y12750D02*
X12765D01*
X12975Y12960D01*
Y13012D01*
X12922Y13065D01*
X12817D01*
X12765Y13012D01*
X17200Y13017D02*
X17150Y13067D01*
X17050D01*
X17000Y13017D01*
Y12817D01*
X17050Y12767D01*
X17150D01*
X17200Y12817D01*
X17300Y13017D02*
X17350Y13067D01*
X17450D01*
X17500Y13017D01*
Y12967D01*
X17450Y12917D01*
X17400D01*
X17450D01*
X17500Y12867D01*
Y12817D01*
X17450Y12767D01*
X17350D01*
X17300Y12817D01*
X14610Y14962D02*
X14557Y15015D01*
X14452D01*
X14400Y14962D01*
Y14752D01*
X14452Y14700D01*
X14557D01*
X14610Y14752D01*
X14872Y14700D02*
Y15015D01*
X14715Y14857D01*
X14925D01*
X14610Y11012D02*
X14557Y11065D01*
X14452D01*
X14400Y11012D01*
Y10802D01*
X14452Y10750D01*
X14557D01*
X14610Y10802D01*
X14925Y11065D02*
X14715D01*
Y10907D01*
X14820Y10960D01*
X14872D01*
X14925Y10907D01*
Y10802D01*
X14872Y10750D01*
X14767D01*
X14715Y10802D01*
X17000Y11650D02*
Y11965D01*
X17157D01*
X17210Y11912D01*
Y11807D01*
X17157Y11755D01*
X17000D01*
X17105D02*
X17210Y11650D01*
X17315D02*
X17420D01*
X17367D01*
Y11965D01*
X17315Y11912D01*
X15500Y14700D02*
Y15015D01*
X15657D01*
X15710Y14962D01*
Y14857D01*
X15657Y14805D01*
X15500D01*
X15605D02*
X15710Y14700D01*
X16025D02*
X15815D01*
X16025Y14910D01*
Y14962D01*
X15972Y15015D01*
X15867D01*
X15815Y14962D01*
X12450Y12050D02*
Y12365D01*
X12607D01*
X12660Y12312D01*
Y12207D01*
X12607Y12155D01*
X12450D01*
X12555D02*
X12660Y12050D01*
X12765Y12312D02*
X12817Y12365D01*
X12922D01*
X12975Y12312D01*
Y12260D01*
X12922Y12207D01*
X12870D01*
X12922D01*
X12975Y12155D01*
Y12102D01*
X12922Y12050D01*
X12817D01*
X12765Y12102D01*
X13300Y10750D02*
Y11065D01*
X13457D01*
X13510Y11012D01*
Y10907D01*
X13457Y10855D01*
X13300D01*
X13405D02*
X13510Y10750D01*
X13772D02*
Y11065D01*
X13615Y10907D01*
X13825D01*
X12450Y13450D02*
Y13765D01*
X12607D01*
X12660Y13712D01*
Y13607D01*
X12607Y13555D01*
X12450D01*
X12555D02*
X12660Y13450D01*
X12975Y13765D02*
X12765D01*
Y13607D01*
X12870Y13660D01*
X12922D01*
X12975Y13607D01*
Y13502D01*
X12922Y13450D01*
X12817D01*
X12765Y13502D01*
X13300Y14700D02*
Y15015D01*
X13457D01*
X13510Y14962D01*
Y14857D01*
X13457Y14805D01*
X13300D01*
X13405D02*
X13510Y14700D01*
X13825Y15015D02*
X13720Y14962D01*
X13615Y14857D01*
Y14752D01*
X13667Y14700D01*
X13772D01*
X13825Y14752D01*
Y14805D01*
X13772Y14857D01*
X13615D01*
X15500Y10750D02*
Y11065D01*
X15657D01*
X15710Y11012D01*
Y10907D01*
X15657Y10855D01*
X15500D01*
X15605D02*
X15710Y10750D01*
X15815Y11065D02*
X16025D01*
Y11012D01*
X15815Y10802D01*
Y10750D01*
X14360Y13874D02*
Y13612D01*
X14412Y13560D01*
X14517D01*
X14570Y13612D01*
Y13874D01*
X14675Y13560D02*
X14779D01*
X14727D01*
Y13874D01*
X14675Y13822D01*
X18800Y15065D02*
X19010D01*
X18905D01*
Y14750D01*
X19115D02*
X19220D01*
X19167D01*
Y15065D01*
X19115Y15012D01*
M02*
