G04*
G04 #@! TF.GenerationSoftware,Altium Limited,Altium Designer,18.1.7 (191)*
G04*
G04 Layer_Physical_Order=4*
G04 Layer_Color=16711680*
%FSLAX24Y24*%
%MOIN*%
G70*
G01*
G75*
%ADD24C,0.0236*%
%ADD27C,0.0120*%
%ADD31R,0.0709X0.0315*%
%ADD32R,0.0630X0.0118*%
%ADD38C,0.0787*%
%ADD39C,0.0200*%
G36*
X20800Y10850D02*
X10061D01*
X10033Y10950D01*
X10127Y11064D01*
X10208Y11215D01*
X10257Y11379D01*
X10274Y11550D01*
X10257Y11721D01*
X10208Y11885D01*
X10127Y12036D01*
X10018Y12168D01*
X9886Y12277D01*
X9735Y12358D01*
X9571Y12407D01*
X9400Y12424D01*
X9229Y12407D01*
X9065Y12358D01*
X8914Y12277D01*
X8800Y12183D01*
X8700Y12211D01*
Y13889D01*
X8800Y13917D01*
X8914Y13823D01*
X9065Y13742D01*
X9229Y13693D01*
X9400Y13676D01*
X9571Y13693D01*
X9735Y13742D01*
X9886Y13823D01*
X10018Y13932D01*
X10127Y14064D01*
X10208Y14215D01*
X10257Y14379D01*
X10274Y14550D01*
X10257Y14721D01*
X10208Y14885D01*
X10127Y15036D01*
X10018Y15168D01*
X9886Y15277D01*
X9735Y15358D01*
X9571Y15407D01*
X9400Y15424D01*
X9229Y15407D01*
X9065Y15358D01*
X8914Y15277D01*
X8800Y15183D01*
X8700Y15211D01*
Y16089D01*
X8800Y16117D01*
X8914Y16023D01*
X9065Y15942D01*
X9229Y15893D01*
X9400Y15876D01*
X9571Y15893D01*
X9735Y15942D01*
X9886Y16023D01*
X10018Y16132D01*
X10127Y16264D01*
X10208Y16415D01*
X10257Y16579D01*
X10274Y16750D01*
X10257Y16921D01*
X10208Y17085D01*
X10127Y17236D01*
X10018Y17368D01*
X9886Y17477D01*
X9735Y17558D01*
X9571Y17607D01*
X9400Y17624D01*
X9229Y17607D01*
X9065Y17558D01*
X8914Y17477D01*
X8800Y17383D01*
X8700Y17411D01*
Y19089D01*
X8800Y19117D01*
X8914Y19023D01*
X9065Y18942D01*
X9229Y18893D01*
X9400Y18876D01*
X9571Y18893D01*
X9735Y18942D01*
X9886Y19023D01*
X10018Y19132D01*
X10127Y19264D01*
X10208Y19415D01*
X10257Y19579D01*
X10274Y19750D01*
X10257Y19921D01*
X10208Y20085D01*
X10127Y20236D01*
X10033Y20350D01*
X10061Y20450D01*
X20800D01*
Y10850D01*
D02*
G37*
%LPC*%
G36*
X10709Y19446D02*
X10636Y19431D01*
X10574Y19390D01*
X10532Y19327D01*
X10518Y19254D01*
X10532Y19181D01*
X10574Y19118D01*
X10636Y19077D01*
X10709Y19062D01*
X10783Y19077D01*
X10845Y19118D01*
X10887Y19181D01*
X10901Y19254D01*
X10887Y19327D01*
X10845Y19390D01*
X10783Y19431D01*
X10709Y19446D01*
D02*
G37*
G36*
X10004Y18223D02*
X9937Y18210D01*
X9881Y18173D01*
X9843Y18116D01*
X9830Y18050D01*
X9843Y17984D01*
X9881Y17927D01*
X9937Y17890D01*
X10004Y17877D01*
X10070Y17890D01*
X10126Y17927D01*
X10164Y17984D01*
X10177Y18050D01*
X10164Y18116D01*
X10126Y18173D01*
X10070Y18210D01*
X10004Y18223D01*
D02*
G37*
G36*
X11400Y18423D02*
X11334Y18410D01*
X11293Y18383D01*
X11285Y18383D01*
X11200D01*
X11198Y18382D01*
X11127Y18373D01*
X11059Y18345D01*
X11000Y18300D01*
X10955Y18241D01*
X10927Y18173D01*
X10918Y18102D01*
X10917Y18100D01*
Y17444D01*
X10907Y17436D01*
X10817Y17400D01*
X10783Y17423D01*
X10709Y17438D01*
X10636Y17423D01*
X10574Y17382D01*
X10532Y17319D01*
X10518Y17246D01*
X10532Y17173D01*
X10574Y17110D01*
X10636Y17069D01*
X10709Y17054D01*
X10783Y17069D01*
X10817Y17092D01*
X10907Y17056D01*
X10917Y17048D01*
Y16300D01*
X10917D01*
X10930Y16199D01*
X10969Y16105D01*
X11031Y16024D01*
X11111Y15963D01*
X11205Y15924D01*
X11306Y15910D01*
Y15911D01*
X11406D01*
Y15586D01*
X11289D01*
Y15586D01*
X11192Y15574D01*
X11103Y15537D01*
X11026Y15477D01*
X10967Y15400D01*
X10929Y15311D01*
X10917Y15214D01*
X10917D01*
Y14252D01*
X10907Y14244D01*
X10817Y14208D01*
X10783Y14231D01*
X10709Y14246D01*
X10636Y14231D01*
X10574Y14190D01*
X10532Y14127D01*
X10518Y14054D01*
X10532Y13981D01*
X10574Y13918D01*
X10636Y13877D01*
X10709Y13862D01*
X10783Y13877D01*
X10817Y13900D01*
X10907Y13864D01*
X10917Y13856D01*
Y12600D01*
X10918Y12597D01*
X10927Y12529D01*
X10954Y12464D01*
X10998Y12407D01*
X11054Y12364D01*
X11120Y12336D01*
X11130Y12335D01*
X11184Y12299D01*
X11250Y12286D01*
X11316Y12299D01*
X11373Y12337D01*
X11410Y12393D01*
X11423Y12459D01*
X11410Y12526D01*
X11373Y12582D01*
X11316Y12620D01*
X11250Y12633D01*
X11184Y12719D01*
X11192Y12819D01*
X11283Y12880D01*
X11300Y12877D01*
X11366Y12890D01*
X11423Y12927D01*
X11460Y12984D01*
X11473Y13050D01*
X11460Y13116D01*
X11433Y13157D01*
X11433Y13165D01*
Y14930D01*
X11774D01*
X11791Y14927D01*
X11844D01*
X11854Y14827D01*
X11836Y14823D01*
X11774Y14782D01*
X11732Y14719D01*
X11718Y14646D01*
X11732Y14573D01*
X11774Y14510D01*
X11836Y14469D01*
X11909Y14454D01*
X11976Y14467D01*
X11986Y14467D01*
X12076Y14411D01*
Y14143D01*
X12229D01*
Y12950D01*
X12234Y12923D01*
X12250Y12900D01*
X12273Y12884D01*
X12300Y12879D01*
X13600D01*
X14767Y12879D01*
Y12060D01*
X14767Y12057D01*
X14740Y12016D01*
X14727Y11950D01*
X14740Y11884D01*
X14777Y11827D01*
X14834Y11790D01*
X14900Y11777D01*
X14966Y11790D01*
X15023Y11827D01*
X15060Y11884D01*
X15073Y11950D01*
X15060Y12016D01*
X15033Y12057D01*
X15033Y12065D01*
Y13551D01*
X15034D01*
X15039Y13562D01*
X15050Y13567D01*
Y13568D01*
X15207D01*
X15260Y13468D01*
X15259Y13466D01*
X15246Y13400D01*
X15259Y13334D01*
X15297Y13277D01*
X15353Y13240D01*
X15419Y13227D01*
X15486Y13240D01*
X15526Y13267D01*
X15535Y13267D01*
X16950D01*
Y13266D01*
X16961Y13261D01*
X16966Y13250D01*
X16967D01*
Y13100D01*
X16968Y13098D01*
X16977Y13027D01*
X17005Y12959D01*
X17050Y12900D01*
X17109Y12855D01*
X17177Y12827D01*
X17248Y12818D01*
X17250Y12817D01*
X17750D01*
Y12817D01*
X17849Y12830D01*
X17942Y12868D01*
X18021Y12929D01*
X18082Y13008D01*
X18120Y13101D01*
X18133Y13200D01*
X18133D01*
Y13900D01*
X18134D01*
X18139Y13911D01*
X18150Y13916D01*
Y13917D01*
X20050D01*
X20052Y13918D01*
X20123Y13927D01*
X20167Y13946D01*
X20210Y13927D01*
X20235Y13892D01*
X20232Y13854D01*
X20215Y13818D01*
X20190Y13783D01*
X18700D01*
Y13783D01*
X18614Y13772D01*
X18606Y13768D01*
X18534Y13738D01*
X18465Y13685D01*
X18412Y13616D01*
X18382Y13544D01*
X18378Y13536D01*
X18367Y13450D01*
X18367D01*
Y12150D01*
X18366D01*
X18361Y12125D01*
X18347Y12103D01*
X18325Y12089D01*
X18300Y12084D01*
Y12083D01*
X16210D01*
X16207Y12083D01*
X16166Y12110D01*
X16100Y12123D01*
X16034Y12110D01*
X15977Y12073D01*
X15940Y12016D01*
X15927Y11950D01*
X15940Y11884D01*
X15977Y11827D01*
X16034Y11790D01*
X16100Y11777D01*
X16166Y11790D01*
X16207Y11817D01*
X16215Y11817D01*
X18300D01*
Y11817D01*
X18386Y11828D01*
X18394Y11832D01*
X18466Y11862D01*
X18535Y11915D01*
X18588Y11984D01*
X18618Y12056D01*
X18622Y12064D01*
X18633Y12150D01*
X18633D01*
Y13450D01*
X18634D01*
X18639Y13475D01*
X18653Y13497D01*
X18675Y13511D01*
X18700Y13516D01*
Y13517D01*
X20200D01*
Y13517D01*
X20286Y13528D01*
X20294Y13532D01*
X20366Y13562D01*
X20435Y13615D01*
X20488Y13684D01*
X20518Y13756D01*
X20522Y13764D01*
X20533Y13850D01*
X20533D01*
Y15000D01*
X20533D01*
X20520Y15101D01*
X20481Y15195D01*
X20419Y15275D01*
X20338Y15337D01*
X20244Y15376D01*
X20143Y15390D01*
X20094Y15469D01*
Y15915D01*
Y16370D01*
X19726D01*
X19709Y16373D01*
X19691Y16370D01*
X19324D01*
Y16112D01*
Y15670D01*
X19281Y15588D01*
X19191Y15570D01*
X19188Y15568D01*
X19115Y15519D01*
X19066Y15446D01*
X19064Y15443D01*
X19046Y15353D01*
X19048D01*
Y15161D01*
X19037Y15156D01*
X18948Y15144D01*
X18923Y15182D01*
X18866Y15220D01*
X18800Y15233D01*
X18776Y15228D01*
X18688Y15285D01*
X18676Y15302D01*
Y15605D01*
X18688Y15621D01*
X18776Y15678D01*
X18800Y15674D01*
X18866Y15687D01*
X18923Y15724D01*
X18960Y15781D01*
X18973Y15847D01*
X18960Y15913D01*
X18923Y15969D01*
X18866Y16007D01*
X18800Y16020D01*
X18776Y16015D01*
X18688Y16072D01*
X18676Y16089D01*
Y16370D01*
X18457D01*
X18454Y16403D01*
D01*
X18447Y16468D01*
X18456Y16471D01*
X18483Y16477D01*
X18545Y16518D01*
X18587Y16581D01*
X18601Y16654D01*
X18641Y16702D01*
X19424D01*
Y17157D01*
X18576D01*
Y16889D01*
X18486Y16833D01*
X18476Y16833D01*
X18409Y16846D01*
X18336Y16831D01*
X18274Y16790D01*
X18232Y16727D01*
X18218Y16654D01*
X18232Y16581D01*
X18274Y16518D01*
X18292Y16506D01*
X18308Y16392D01*
X18306Y16386D01*
X18291Y16373D01*
X17171D01*
Y17250D01*
X17166Y17277D01*
X17150Y17300D01*
X17127Y17316D01*
X17100Y17321D01*
X15893D01*
X15885Y17320D01*
X15876Y17319D01*
X15871Y17317D01*
X15866Y17316D01*
X15859Y17311D01*
X15851Y17307D01*
X15847Y17303D01*
X15843Y17300D01*
X15766Y17310D01*
X15700Y17323D01*
X15669Y17317D01*
X15609Y17338D01*
X15566Y17385D01*
X15560Y17416D01*
X15523Y17473D01*
X15466Y17510D01*
X15400Y17523D01*
X15334Y17510D01*
X15277Y17473D01*
X15240Y17416D01*
X15227Y17350D01*
X15203Y17321D01*
X14200D01*
X14173Y17316D01*
X14150Y17300D01*
X14134Y17277D01*
X14129Y17250D01*
Y16568D01*
X14100Y16471D01*
X13631D01*
X13621Y16469D01*
X13611Y16468D01*
X13607Y16467D01*
X13604Y16466D01*
X13595Y16460D01*
X13586Y16455D01*
X13549Y16425D01*
X13546Y16422D01*
X13543Y16420D01*
X13537Y16412D01*
X13531Y16404D01*
X13530Y16400D01*
X13528Y16397D01*
X13526Y16387D01*
X13523Y16377D01*
X13424Y16370D01*
X13278D01*
X13278Y16372D01*
X13276Y16384D01*
X13275Y16392D01*
Y17903D01*
X13274Y17905D01*
X13265Y17976D01*
X13237Y18044D01*
X13192Y18103D01*
X13134Y18148D01*
X13065Y18176D01*
X12994Y18185D01*
X12992Y18186D01*
X12610D01*
X12607Y18186D01*
X12566Y18213D01*
X12500Y18226D01*
X12434Y18213D01*
X12377Y18176D01*
X12340Y18119D01*
X12327Y18053D01*
X12340Y17987D01*
X12377Y17931D01*
X12434Y17893D01*
X12500Y17880D01*
X12566Y17893D01*
X12607Y17920D01*
X12615Y17921D01*
X12992D01*
Y17919D01*
X13004Y17915D01*
X13009Y17903D01*
X13010D01*
Y17192D01*
X12924Y17157D01*
X12910Y17157D01*
X12076D01*
Y16889D01*
X11986Y16833D01*
X11976Y16833D01*
X11909Y16846D01*
X11836Y16831D01*
X11774Y16790D01*
X11732Y16727D01*
X11718Y16654D01*
X11732Y16581D01*
X11774Y16518D01*
X11792Y16506D01*
X11808Y16392D01*
X11806Y16386D01*
X11791Y16373D01*
X11450D01*
Y16374D01*
X11439Y16379D01*
X11434Y16391D01*
X11433D01*
Y17594D01*
X11500Y17683D01*
X11566Y17696D01*
X11623Y17734D01*
X11660Y17790D01*
X11673Y17856D01*
X11660Y17923D01*
X11623Y17979D01*
X11566Y18016D01*
X11543Y18021D01*
X11522Y18127D01*
X11523Y18127D01*
X11560Y18184D01*
X11573Y18250D01*
X11560Y18316D01*
X11523Y18373D01*
X11466Y18410D01*
X11400Y18423D01*
D02*
G37*
G36*
X10000Y13030D02*
X9934Y13017D01*
X9877Y12979D01*
X9840Y12923D01*
X9827Y12857D01*
X9840Y12790D01*
X9877Y12734D01*
X9934Y12697D01*
X10000Y12683D01*
X10066Y12697D01*
X10123Y12734D01*
X10160Y12790D01*
X10173Y12857D01*
X10160Y12923D01*
X10123Y12979D01*
X10066Y13017D01*
X10000Y13030D01*
D02*
G37*
G36*
X16600Y12995D02*
X16534Y12982D01*
X16477Y12945D01*
X16440Y12888D01*
X16427Y12822D01*
X16440Y12756D01*
X16477Y12699D01*
X16534Y12662D01*
X16600Y12649D01*
X16666Y12662D01*
X16723Y12699D01*
X16760Y12756D01*
X16773Y12822D01*
X16760Y12888D01*
X16723Y12945D01*
X16666Y12982D01*
X16600Y12995D01*
D02*
G37*
G36*
X10709Y12238D02*
X10636Y12223D01*
X10574Y12182D01*
X10532Y12119D01*
X10518Y12046D01*
X10532Y11973D01*
X10574Y11910D01*
X10636Y11869D01*
X10709Y11854D01*
X10783Y11869D01*
X10845Y11910D01*
X10887Y11973D01*
X10901Y12046D01*
X10887Y12119D01*
X10845Y12182D01*
X10783Y12223D01*
X10709Y12238D01*
D02*
G37*
G36*
X14403Y12123D02*
X14337Y12110D01*
X14281Y12073D01*
X14243Y12016D01*
X14230Y11950D01*
X14243Y11884D01*
X14281Y11827D01*
X14337Y11790D01*
X14403Y11777D01*
X14469Y11790D01*
X14526Y11827D01*
X14563Y11884D01*
X14576Y11950D01*
X14563Y12016D01*
X14526Y12073D01*
X14469Y12110D01*
X14403Y12123D01*
D02*
G37*
%LPD*%
G36*
X11329Y18180D02*
X11326Y18182D01*
X11323Y18184D01*
X11318Y18185D01*
X11313Y18186D01*
X11307Y18188D01*
X11291Y18189D01*
X11271Y18190D01*
X11260Y18190D01*
Y18310D01*
X11271Y18310D01*
X11307Y18312D01*
X11313Y18314D01*
X11318Y18315D01*
X11323Y18316D01*
X11326Y18318D01*
X11329Y18320D01*
Y18180D01*
D02*
G37*
G36*
X12574Y18121D02*
X12577Y18120D01*
X12582Y18118D01*
X12587Y18117D01*
X12593Y18116D01*
X12609Y18114D01*
X12629Y18113D01*
X12640Y18113D01*
Y17993D01*
X12629Y17993D01*
X12593Y17991D01*
X12587Y17990D01*
X12582Y17988D01*
X12577Y17987D01*
X12574Y17985D01*
X12571Y17983D01*
Y18123D01*
X12574Y18121D01*
D02*
G37*
G36*
X12768Y16376D02*
X12766Y16373D01*
X12765Y16368D01*
X12764Y16363D01*
X12763Y16357D01*
X12761Y16341D01*
X12760Y16321D01*
X12760Y16310D01*
X12640D01*
X12640Y16321D01*
X12637Y16357D01*
X12636Y16363D01*
X12635Y16368D01*
X12634Y16373D01*
X12632Y16376D01*
X12630Y16379D01*
X12770D01*
X12768Y16376D01*
D02*
G37*
G36*
X13203Y16395D02*
X13205Y16375D01*
X13208Y16357D01*
X13212Y16341D01*
X13217Y16328D01*
X13224Y16317D01*
X13232Y16308D01*
X13241Y16302D01*
X13251Y16298D01*
X13262Y16297D01*
X13022D01*
X13034Y16298D01*
X13044Y16302D01*
X13053Y16308D01*
X13061Y16317D01*
X13067Y16328D01*
X13073Y16341D01*
X13077Y16357D01*
X13080Y16375D01*
X13082Y16395D01*
X13082Y16418D01*
X13202D01*
X13203Y16395D01*
D02*
G37*
G36*
X14100Y15600D02*
X13594D01*
Y15779D01*
X13579D01*
Y15790D01*
X12900D01*
Y16112D01*
X13125D01*
X13142Y16108D01*
X13209D01*
X13226Y16112D01*
X13594D01*
Y16370D01*
X13631Y16400D01*
X14100D01*
Y15600D01*
D02*
G37*
G36*
X19769Y16199D02*
X19771Y16184D01*
X19829D01*
X19817Y16183D01*
X19807Y16179D01*
X19798Y16173D01*
X19790Y16165D01*
X19784Y16154D01*
X19779Y16142D01*
X19784Y16131D01*
X19790Y16120D01*
X19798Y16111D01*
X19807Y16105D01*
X19817Y16102D01*
X19829Y16100D01*
X19771D01*
X19769Y16086D01*
X19769Y16063D01*
X19649D01*
X19648Y16086D01*
X19647Y16100D01*
X19589D01*
X19600Y16102D01*
X19610Y16105D01*
X19619Y16111D01*
X19627Y16120D01*
X19634Y16131D01*
X19638Y16142D01*
X19634Y16154D01*
X19627Y16165D01*
X19619Y16173D01*
X19610Y16179D01*
X19600Y16183D01*
X19589Y16184D01*
X19647D01*
X19648Y16199D01*
X19649Y16222D01*
X19769D01*
X19769Y16199D01*
D02*
G37*
G36*
Y16002D02*
X19771Y15987D01*
X19829D01*
X19817Y15986D01*
X19807Y15982D01*
X19798Y15976D01*
X19790Y15968D01*
X19784Y15957D01*
X19779Y15945D01*
X19784Y15934D01*
X19790Y15923D01*
X19798Y15914D01*
X19807Y15908D01*
X19817Y15905D01*
X19829Y15904D01*
X19771D01*
X19769Y15889D01*
X19769Y15866D01*
X19649D01*
X19648Y15889D01*
X19647Y15904D01*
X19589D01*
X19600Y15905D01*
X19610Y15908D01*
X19619Y15914D01*
X19627Y15923D01*
X19634Y15934D01*
X19638Y15945D01*
X19634Y15957D01*
X19627Y15968D01*
X19619Y15976D01*
X19610Y15982D01*
X19600Y15986D01*
X19589Y15987D01*
X19647D01*
X19648Y16002D01*
X19649Y16025D01*
X19769D01*
X19769Y16002D01*
D02*
G37*
G36*
X18729Y15777D02*
X18726Y15779D01*
X18723Y15780D01*
X18718Y15782D01*
X18713Y15783D01*
X18707Y15784D01*
X18691Y15786D01*
X18671Y15787D01*
X18660Y15787D01*
Y15907D01*
X18671Y15907D01*
X18707Y15909D01*
X18713Y15910D01*
X18718Y15912D01*
X18723Y15913D01*
X18726Y15915D01*
X18729Y15917D01*
Y15777D01*
D02*
G37*
G36*
X19769Y15805D02*
X19771Y15790D01*
X19829D01*
X19817Y15789D01*
X19807Y15785D01*
X19798Y15779D01*
X19790Y15771D01*
X19784Y15760D01*
X19779Y15748D01*
X19784Y15737D01*
X19790Y15726D01*
X19798Y15718D01*
X19807Y15711D01*
X19817Y15708D01*
X19829Y15707D01*
X19771D01*
X19769Y15692D01*
X19769Y15669D01*
X19649D01*
X19648Y15692D01*
X19647Y15707D01*
X19589D01*
X19600Y15708D01*
X19610Y15711D01*
X19619Y15718D01*
X19627Y15726D01*
X19634Y15737D01*
X19638Y15748D01*
X19634Y15760D01*
X19627Y15771D01*
X19619Y15779D01*
X19610Y15785D01*
X19600Y15789D01*
X19589Y15790D01*
X19647D01*
X19648Y15805D01*
X19649Y15828D01*
X19769D01*
X19769Y15805D01*
D02*
G37*
G36*
Y15608D02*
X19771Y15593D01*
X19829D01*
X19817Y15592D01*
X19807Y15589D01*
X19798Y15582D01*
X19790Y15574D01*
X19784Y15563D01*
X19779Y15552D01*
X19784Y15540D01*
X19790Y15529D01*
X19798Y15521D01*
X19807Y15515D01*
X19817Y15511D01*
X19829Y15510D01*
X19771D01*
X19769Y15495D01*
X19769Y15472D01*
X19649D01*
X19648Y15495D01*
X19647Y15510D01*
X19589D01*
X19600Y15511D01*
X19610Y15515D01*
X19619Y15521D01*
X19627Y15529D01*
X19634Y15540D01*
X19638Y15552D01*
X19634Y15563D01*
X19627Y15574D01*
X19619Y15582D01*
X19610Y15589D01*
X19600Y15592D01*
X19589Y15593D01*
X19647D01*
X19648Y15608D01*
X19649Y15631D01*
X19769D01*
X19769Y15608D01*
D02*
G37*
G36*
X16460Y15405D02*
X16463Y15369D01*
X16464Y15363D01*
X16465Y15358D01*
X16466Y15353D01*
X16468Y15350D01*
X16470Y15347D01*
X16330D01*
X16332Y15350D01*
X16334Y15353D01*
X16335Y15358D01*
X16336Y15363D01*
X16337Y15369D01*
X16339Y15385D01*
X16340Y15405D01*
X16340Y15416D01*
X16460D01*
X16460Y15405D01*
D02*
G37*
G36*
X12760Y15279D02*
X12763Y15243D01*
X12764Y15237D01*
X12765Y15232D01*
X12766Y15227D01*
X12768Y15224D01*
X12770Y15221D01*
X12630D01*
X12632Y15224D01*
X12634Y15227D01*
X12635Y15232D01*
X12636Y15237D01*
X12637Y15243D01*
X12639Y15259D01*
X12640Y15279D01*
X12640Y15290D01*
X12760D01*
X12760Y15279D01*
D02*
G37*
G36*
X17906Y15783D02*
X17131D01*
X17129Y15782D01*
X17057Y15773D01*
X16989Y15745D01*
X16931Y15700D01*
X16886Y15641D01*
X16858Y15573D01*
X16848Y15502D01*
X16848Y15500D01*
Y14760D01*
X16848Y14757D01*
X16820Y14716D01*
X16807Y14650D01*
X16818Y14594D01*
X16800Y14564D01*
X16747Y14514D01*
X16700Y14523D01*
X16634Y14510D01*
X16577Y14473D01*
X16540Y14416D01*
X16527Y14350D01*
X16540Y14284D01*
X16577Y14227D01*
X16634Y14190D01*
X16700Y14177D01*
X16766Y14190D01*
X16807Y14217D01*
X16815Y14217D01*
X17250D01*
X17252Y14218D01*
X17323Y14227D01*
X17391Y14255D01*
X17450Y14300D01*
X17495Y14359D01*
X17523Y14427D01*
X17532Y14498D01*
X17533Y14500D01*
Y15224D01*
X17629Y15311D01*
X17646Y15310D01*
X17660Y15295D01*
X17694Y15221D01*
X17677Y15179D01*
X17668Y15108D01*
X17667Y15106D01*
Y13350D01*
X17666D01*
X17661Y13339D01*
X17650Y13334D01*
Y13333D01*
X17520D01*
X17517Y13333D01*
X17476Y13360D01*
X17410Y13373D01*
X17343Y13360D01*
X17318Y13343D01*
X17312Y13342D01*
X17222Y13362D01*
X17201Y13374D01*
X17195Y13391D01*
X17150Y13450D01*
X17091Y13495D01*
X17023Y13523D01*
X16952Y13532D01*
X16950Y13533D01*
X16160D01*
X16126Y13633D01*
X16150Y13651D01*
X16195Y13709D01*
X16223Y13777D01*
X16232Y13849D01*
X16233Y13851D01*
Y15063D01*
X16333Y15117D01*
X16334Y15116D01*
X16400Y15103D01*
X16466Y15116D01*
X16523Y15153D01*
X16560Y15210D01*
X16573Y15276D01*
X16560Y15342D01*
X16533Y15383D01*
X16533Y15391D01*
Y15894D01*
X16534D01*
X16539Y15905D01*
X16550Y15910D01*
Y15911D01*
X17906D01*
Y15783D01*
D02*
G37*
G36*
X18729Y14989D02*
X18726Y14991D01*
X18723Y14993D01*
X18718Y14995D01*
X18713Y14996D01*
X18707Y14997D01*
X18691Y14999D01*
X18671Y14999D01*
X18660Y14999D01*
Y15119D01*
X18671Y15120D01*
X18707Y15122D01*
X18713Y15123D01*
X18718Y15124D01*
X18723Y15126D01*
X18726Y15128D01*
X18729Y15129D01*
Y14989D01*
D02*
G37*
G36*
X19241Y14979D02*
X19243Y14943D01*
X19244Y14937D01*
X19245Y14932D01*
X19247Y14927D01*
X19249Y14924D01*
X19251Y14921D01*
X19111D01*
X19112Y14924D01*
X19114Y14927D01*
X19116Y14932D01*
X19117Y14937D01*
X19118Y14943D01*
X19120Y14959D01*
X19120Y14979D01*
X19121Y14990D01*
X19241D01*
X19241Y14979D01*
D02*
G37*
G36*
X13317Y15002D02*
X13307Y14998D01*
X13298Y14992D01*
X13290Y14983D01*
X13284Y14972D01*
X13278Y14959D01*
X13274Y14943D01*
X13271Y14925D01*
X13269Y14905D01*
X13269Y14882D01*
X13149D01*
X13148Y14905D01*
X13146Y14925D01*
X13143Y14943D01*
X13139Y14959D01*
X13134Y14972D01*
X13127Y14983D01*
X13119Y14992D01*
X13110Y14998D01*
X13100Y15002D01*
X13089Y15003D01*
X13329D01*
X13317Y15002D01*
D02*
G37*
G36*
X14439Y15043D02*
X14471Y15021D01*
X14493Y14988D01*
X14501Y14950D01*
X14493Y14912D01*
X14471Y14879D01*
X14439Y14857D01*
X14400Y14849D01*
X14362Y14857D01*
X14329Y14879D01*
X14328Y14880D01*
X14309Y14925D01*
Y14975D01*
X14328Y15020D01*
X14329Y15021D01*
X14362Y15043D01*
X14400Y15051D01*
X14439Y15043D01*
D02*
G37*
G36*
X12460Y14879D02*
X12462Y14844D01*
X12463Y14837D01*
X12465Y14832D01*
X12466Y14828D01*
X12468Y14824D01*
X12469Y14822D01*
X12331D01*
X12332Y14824D01*
X12334Y14828D01*
X12335Y14832D01*
X12337Y14837D01*
X12338Y14844D01*
X12339Y14859D01*
X12340Y14879D01*
X12340Y14890D01*
X12460D01*
X12460Y14879D01*
D02*
G37*
G36*
X15262Y17250D02*
X15275Y17231D01*
X15281Y17216D01*
Y17175D01*
X15277Y17173D01*
X15240Y17116D01*
X15227Y17050D01*
X15240Y16984D01*
X15277Y16927D01*
X15281Y16925D01*
Y16875D01*
X15277Y16873D01*
X15240Y16816D01*
X15227Y16750D01*
X15240Y16684D01*
X15277Y16627D01*
X15334Y16590D01*
X15400Y16577D01*
X15466Y16590D01*
X15523Y16627D01*
X15560Y16684D01*
X15615Y16702D01*
X15634Y16690D01*
X15700Y16677D01*
X15766Y16690D01*
X15823Y16727D01*
X15860Y16784D01*
X15873Y16850D01*
X15860Y16916D01*
X15823Y16973D01*
X15819Y16975D01*
Y17025D01*
X15823Y17027D01*
X15860Y17084D01*
X15873Y17150D01*
X15863Y17200D01*
X15893Y17250D01*
X17100D01*
Y16373D01*
X16250D01*
X16248Y16373D01*
X16177Y16363D01*
X16109Y16335D01*
X16050Y16290D01*
X16005Y16232D01*
X15977Y16164D01*
X15968Y16093D01*
X15967Y16091D01*
Y13851D01*
X15966D01*
X15961Y13839D01*
X15950Y13834D01*
Y13833D01*
X15050D01*
X15048Y13833D01*
X14977Y13823D01*
X14909Y13795D01*
X14850Y13750D01*
X14805Y13692D01*
X14777Y13624D01*
X14768Y13553D01*
X14767Y13551D01*
Y12950D01*
X13600Y12950D01*
X12300D01*
Y14143D01*
X12924D01*
Y14598D01*
X12618D01*
X12590Y14648D01*
X12591Y14650D01*
X13076D01*
Y14510D01*
X13076Y14507D01*
X13049Y14466D01*
X13035Y14400D01*
X13049Y14334D01*
X13086Y14277D01*
X13142Y14240D01*
X13209Y14227D01*
X13275Y14240D01*
X13331Y14277D01*
X13369Y14334D01*
X13382Y14400D01*
X13369Y14466D01*
X13342Y14507D01*
X13341Y14515D01*
Y14650D01*
X14200D01*
Y14853D01*
X14250Y14869D01*
X14278Y14827D01*
X14334Y14790D01*
X14400Y14777D01*
X14466Y14790D01*
X14523Y14827D01*
X14560Y14884D01*
X14573Y14950D01*
X14560Y15016D01*
X14523Y15073D01*
X14466Y15110D01*
X14400Y15123D01*
X14334Y15110D01*
X14278Y15073D01*
X14250Y15031D01*
X14200Y15047D01*
Y17250D01*
X15262D01*
D02*
G37*
G36*
X17041Y14779D02*
X17043Y14743D01*
X17044Y14737D01*
X17045Y14732D01*
X17047Y14727D01*
X17049Y14724D01*
X17051Y14721D01*
X16911D01*
X16912Y14724D01*
X16914Y14727D01*
X16916Y14732D01*
X16917Y14737D01*
X16918Y14743D01*
X16920Y14759D01*
X16920Y14779D01*
X16921Y14790D01*
X17041D01*
X17041Y14779D01*
D02*
G37*
G36*
X14129Y15432D02*
Y15047D01*
X14129Y15043D01*
X14129Y15040D01*
X14132Y15029D01*
X14134Y15019D01*
X14136Y15016D01*
X14137Y15013D01*
X14139Y15011D01*
X14144Y14998D01*
X14145Y14994D01*
X14148Y14967D01*
X14149Y14939D01*
X14145Y14906D01*
X14144Y14902D01*
X14139Y14889D01*
X14137Y14887D01*
X14136Y14884D01*
X14134Y14881D01*
X14132Y14870D01*
X14129Y14860D01*
X14129Y14857D01*
X14129Y14853D01*
Y14721D01*
X13341D01*
Y14908D01*
X13342Y14916D01*
X13344Y14928D01*
X13344Y14930D01*
X13594D01*
Y15127D01*
Y15196D01*
X13209D01*
Y15316D01*
X13594D01*
Y15393D01*
X13209D01*
Y15513D01*
X13594D01*
Y15529D01*
X14100D01*
X14129Y15432D01*
D02*
G37*
G36*
X13269Y14529D02*
X13271Y14493D01*
X13272Y14487D01*
X13274Y14482D01*
X13275Y14477D01*
X13277Y14474D01*
X13279Y14471D01*
X13139D01*
X13141Y14474D01*
X13142Y14477D01*
X13144Y14482D01*
X13145Y14487D01*
X13146Y14493D01*
X13148Y14509D01*
X13149Y14529D01*
X13149Y14540D01*
X13269D01*
X13269Y14529D01*
D02*
G37*
G36*
X16774Y14418D02*
X16777Y14416D01*
X16782Y14415D01*
X16787Y14414D01*
X16793Y14412D01*
X16809Y14411D01*
X16829Y14410D01*
X16840Y14410D01*
Y14290D01*
X16829Y14290D01*
X16793Y14288D01*
X16787Y14286D01*
X16782Y14285D01*
X16777Y14284D01*
X16774Y14282D01*
X16771Y14280D01*
Y14420D01*
X16774Y14418D01*
D02*
G37*
G36*
X15493Y13468D02*
X15497Y13466D01*
X15501Y13465D01*
X15507Y13464D01*
X15513Y13463D01*
X15529Y13461D01*
X15548Y13460D01*
X15559Y13460D01*
Y13340D01*
X15548Y13340D01*
X15513Y13338D01*
X15507Y13336D01*
X15501Y13335D01*
X15497Y13334D01*
X15493Y13332D01*
X15491Y13330D01*
Y13470D01*
X15493Y13468D01*
D02*
G37*
G36*
X17484Y13268D02*
X17487Y13266D01*
X17491Y13265D01*
X17497Y13264D01*
X17503Y13262D01*
X17519Y13261D01*
X17538Y13260D01*
X17550Y13260D01*
Y13140D01*
X17538Y13140D01*
X17503Y13138D01*
X17497Y13136D01*
X17491Y13135D01*
X17487Y13134D01*
X17484Y13132D01*
X17481Y13130D01*
Y13270D01*
X17484Y13268D01*
D02*
G37*
G36*
X11360Y13179D02*
X11363Y13143D01*
X11364Y13137D01*
X11365Y13132D01*
X11366Y13127D01*
X11368Y13124D01*
X11370Y13121D01*
X11230D01*
X11232Y13124D01*
X11234Y13127D01*
X11235Y13132D01*
X11236Y13137D01*
X11237Y13143D01*
X11239Y13159D01*
X11240Y13179D01*
X11240Y13190D01*
X11360D01*
X11360Y13179D01*
D02*
G37*
G36*
X14960Y12079D02*
X14963Y12043D01*
X14964Y12037D01*
X14965Y12032D01*
X14966Y12027D01*
X14968Y12024D01*
X14970Y12021D01*
X14830D01*
X14832Y12024D01*
X14834Y12027D01*
X14835Y12032D01*
X14836Y12037D01*
X14837Y12043D01*
X14839Y12059D01*
X14840Y12079D01*
X14840Y12090D01*
X14960D01*
X14960Y12079D01*
D02*
G37*
G36*
X16174Y12018D02*
X16177Y12016D01*
X16182Y12015D01*
X16187Y12014D01*
X16193Y12012D01*
X16209Y12011D01*
X16229Y12010D01*
X16240Y12010D01*
Y11890D01*
X16229Y11890D01*
X16193Y11888D01*
X16187Y11886D01*
X16182Y11885D01*
X16177Y11884D01*
X16174Y11882D01*
X16171Y11880D01*
Y12020D01*
X16174Y12018D01*
D02*
G37*
%LPC*%
G36*
X15200Y15123D02*
X15134Y15110D01*
X15078Y15073D01*
X15040Y15016D01*
X15027Y14950D01*
X15040Y14884D01*
X15078Y14827D01*
X15134Y14790D01*
X15200Y14777D01*
X15266Y14790D01*
X15323Y14827D01*
X15360Y14884D01*
X15373Y14950D01*
X15360Y15016D01*
X15323Y15073D01*
X15266Y15110D01*
X15200Y15123D01*
D02*
G37*
G36*
X14803D02*
X14737Y15110D01*
X14681Y15073D01*
X14643Y15016D01*
X14630Y14950D01*
X14643Y14884D01*
X14681Y14827D01*
X14737Y14790D01*
X14803Y14777D01*
X14870Y14790D01*
X14926Y14827D01*
X14963Y14884D01*
X14977Y14950D01*
X14963Y15016D01*
X14926Y15073D01*
X14870Y15110D01*
X14803Y15123D01*
D02*
G37*
%LPD*%
G36*
X15239Y15043D02*
X15271Y15021D01*
X15293Y14988D01*
X15301Y14950D01*
X15293Y14912D01*
X15271Y14879D01*
X15239Y14857D01*
X15200Y14849D01*
X15162Y14857D01*
X15129Y14879D01*
X15107Y14912D01*
X15100Y14950D01*
X15107Y14988D01*
X15129Y15021D01*
X15162Y15043D01*
X15200Y15051D01*
X15239Y15043D01*
D02*
G37*
G36*
X14842D02*
X14874Y15021D01*
X14896Y14988D01*
X14904Y14950D01*
X14896Y14912D01*
X14874Y14879D01*
X14842Y14857D01*
X14803Y14849D01*
X14765Y14857D01*
X14732Y14879D01*
X14710Y14912D01*
X14703Y14950D01*
X14710Y14988D01*
X14732Y15021D01*
X14765Y15043D01*
X14803Y15051D01*
X14842Y15043D01*
D02*
G37*
D24*
X11909Y14646D02*
D03*
Y16654D02*
D03*
X18409D02*
D03*
Y14646D02*
D03*
X10709Y12046D02*
D03*
Y14054D02*
D03*
Y19254D02*
D03*
Y17246D02*
D03*
D27*
X19281Y15453D02*
G03*
X19181Y15353I0J-100D01*
G01*
X17100Y13100D02*
G03*
X17250Y12950I150J0D01*
G01*
X17100Y13250D02*
G03*
X16950Y13400I-150J0D01*
G01*
X17750Y12950D02*
G03*
X18000Y13200I0J250D01*
G01*
X18150Y14050D02*
G03*
X18000Y13900I0J-150D01*
G01*
X20050Y14050D02*
G03*
X20200Y14200I0J150D01*
G01*
Y14909D02*
G03*
X20050Y15059I-150J0D01*
G01*
X20400Y15000D02*
G03*
X20143Y15256I-257J0D01*
G01*
X20200Y13650D02*
G03*
X20400Y13850I0J200D01*
G01*
X18700Y13650D02*
G03*
X18500Y13450I0J-200D01*
G01*
X18300Y11950D02*
G03*
X18500Y12150I0J200D01*
G01*
X17250Y14350D02*
G03*
X17400Y14500I0J150D01*
G01*
X17550Y15453D02*
G03*
X17400Y15303I0J-150D01*
G01*
X16550Y16044D02*
G03*
X16400Y15894I0J-150D01*
G01*
X15050Y13701D02*
G03*
X14900Y13551I0J-150D01*
G01*
X15950Y13701D02*
G03*
X16100Y13851I0J150D01*
G01*
X16250Y16241D02*
G03*
X16100Y16091I0J-150D01*
G01*
X17131Y15650D02*
G03*
X16981Y15500I0J-150D01*
G01*
X17650Y13200D02*
G03*
X17800Y13350I0J150D01*
G01*
X17950Y15256D02*
G03*
X17800Y15106I0J-150D01*
G01*
X13142Y17903D02*
G03*
X12992Y18053I-150J0D01*
G01*
X11200Y18250D02*
G03*
X11050Y18100I0J-150D01*
G01*
Y16300D02*
G03*
X11306Y16044I256J0D01*
G01*
X11450Y17856D02*
G03*
X11300Y17706I0J-150D01*
G01*
Y16391D02*
G03*
X11450Y16241I150J0D01*
G01*
Y15256D02*
G03*
X11300Y15106I0J-150D01*
G01*
X12400Y14909D02*
G03*
X12250Y15059I-150J0D01*
G01*
X12550Y15847D02*
G03*
X12700Y15997I0J150D01*
G01*
X11289Y15453D02*
G03*
X11050Y15214I0J-239D01*
G01*
Y12600D02*
G03*
X11191Y12459I141J0D01*
G01*
X12700Y15500D02*
G03*
X12550Y15650I-150J0D01*
G01*
X19281Y15453D02*
X19709D01*
Y16044D02*
Y16241D01*
Y15847D02*
Y16044D01*
Y15650D02*
Y15847D01*
Y15453D02*
Y15650D01*
X17410Y13200D02*
X17650D01*
X16100Y11950D02*
X18300D01*
X13209Y15453D02*
Y15650D01*
Y15256D02*
Y15453D01*
X12400Y14750D02*
Y14909D01*
X11300Y13050D02*
Y15106D01*
X11200Y18250D02*
X11400D01*
X19181Y14850D02*
Y15353D01*
X18291Y15059D02*
X18800D01*
X17100Y13100D02*
Y13250D01*
X15419Y13400D02*
X16950D01*
X17250Y12950D02*
X17750D01*
X18000Y13200D02*
Y13900D01*
X18150Y14050D02*
X20050D01*
X19709Y15059D02*
X20050D01*
X20200Y14200D02*
Y14909D01*
X20400Y13850D02*
Y15000D01*
X19709Y15256D02*
X20143D01*
X18700Y13650D02*
X20200D01*
X18500Y12150D02*
Y13450D01*
X16981Y14650D02*
Y15500D01*
X17400Y14500D02*
Y15303D01*
X16700Y14350D02*
X17250D01*
X16400Y15276D02*
Y15894D01*
X17550Y15453D02*
X18291D01*
X16550Y16044D02*
X18291D01*
X15050Y13701D02*
X15950D01*
X16100Y13851D02*
Y16091D01*
X18291Y15847D02*
X18800D01*
X14900Y11950D02*
Y13551D01*
X16250Y16241D02*
X18291D01*
X17800Y13350D02*
Y15106D01*
X13142Y16241D02*
Y17903D01*
X12500Y18053D02*
X12992D01*
X13142Y16241D02*
X13209D01*
X11306Y16044D02*
X11791D01*
X11050Y16300D02*
Y18100D01*
X11450Y17856D02*
X11500D01*
X11450Y16241D02*
X11791D01*
X11300Y16391D02*
Y17706D01*
X11450Y15256D02*
X11791D01*
Y15059D02*
X12250D01*
X11791Y15847D02*
X12550D01*
X12700Y15997D02*
Y16450D01*
X11289Y15453D02*
X11791D01*
X11191Y12459D02*
X11250D01*
X11050Y12600D02*
Y15214D01*
X12700Y15150D02*
Y15500D01*
X11791Y15650D02*
X12550D01*
X13209Y14400D02*
Y15059D01*
X17131Y15650D02*
X18291D01*
X17950Y15256D02*
X18291D01*
D31*
X12500Y16930D02*
D03*
Y14370D02*
D03*
X19000D02*
D03*
Y16930D02*
D03*
D32*
X11791Y15650D02*
D03*
Y15847D02*
D03*
Y16044D02*
D03*
Y16241D02*
D03*
Y15453D02*
D03*
Y15256D02*
D03*
Y15059D02*
D03*
X13209Y15650D02*
D03*
Y15847D02*
D03*
Y16044D02*
D03*
Y16241D02*
D03*
Y15453D02*
D03*
Y15256D02*
D03*
Y15059D02*
D03*
X19709D02*
D03*
Y15256D02*
D03*
Y15453D02*
D03*
Y16241D02*
D03*
Y16044D02*
D03*
Y15847D02*
D03*
Y15650D02*
D03*
X18291Y15059D02*
D03*
Y15256D02*
D03*
Y15453D02*
D03*
Y16241D02*
D03*
Y16044D02*
D03*
Y15847D02*
D03*
Y15650D02*
D03*
D38*
X9400Y11550D02*
D03*
Y14550D02*
D03*
Y16750D02*
D03*
Y19750D02*
D03*
D39*
X19500Y12950D02*
D03*
X19600Y18500D02*
D03*
X13200Y12100D02*
D03*
X10800Y20100D02*
D03*
X20000Y17700D02*
D03*
X19600Y20100D02*
D03*
X19200Y11300D02*
D03*
X18800Y20100D02*
D03*
X11200Y11300D02*
D03*
X20000Y19300D02*
D03*
X16800Y11300D02*
D03*
X10400Y14500D02*
D03*
X18800Y18500D02*
D03*
X11600Y12100D02*
D03*
X19200Y17700D02*
D03*
X10800Y15300D02*
D03*
X10400Y11300D02*
D03*
X17600D02*
D03*
X20400Y18500D02*
D03*
X12400Y12100D02*
D03*
X20000Y11300D02*
D03*
X10400Y16100D02*
D03*
X19600Y16900D02*
D03*
X13600Y11300D02*
D03*
X19200Y19300D02*
D03*
X12400Y15300D02*
D03*
X10400Y19300D02*
D03*
X20400Y20100D02*
D03*
X9600Y12900D02*
D03*
X9200Y18500D02*
D03*
X14000Y12100D02*
D03*
X19200Y16100D02*
D03*
X10000Y13700D02*
D03*
X16000Y11300D02*
D03*
X20400Y16900D02*
D03*
X18400Y11300D02*
D03*
X14400D02*
D03*
X15200D02*
D03*
X12000D02*
D03*
X10000Y18500D02*
D03*
X20400Y12100D02*
D03*
X12800Y11300D02*
D03*
X13400Y17750D02*
D03*
X16600Y12450D02*
D03*
X16100Y11950D02*
D03*
X10000Y12857D02*
D03*
X12400Y14750D02*
D03*
X11300Y13050D02*
D03*
X11400Y18250D02*
D03*
X16900Y16650D02*
D03*
X16300D02*
D03*
X16600D02*
D03*
X16800Y16950D02*
D03*
X16500D02*
D03*
X16200D02*
D03*
X19181Y14850D02*
D03*
X18800Y15059D02*
D03*
X14403Y11950D02*
D03*
X17400Y13581D02*
D03*
X16981Y14650D02*
D03*
X16700Y14350D02*
D03*
X16400Y15276D02*
D03*
X18800Y15847D02*
D03*
X14900Y11950D02*
D03*
X15419Y13400D02*
D03*
X12700Y13250D02*
D03*
X12500Y18053D02*
D03*
X11500Y17856D02*
D03*
X12700Y16450D02*
D03*
X11250Y12459D02*
D03*
X12700Y15150D02*
D03*
X13209Y14400D02*
D03*
X13950Y16650D02*
D03*
X13850Y15800D02*
D03*
X16600Y12822D02*
D03*
X17410Y13200D02*
D03*
X15400Y16750D02*
D03*
X15700Y16850D02*
D03*
Y17150D02*
D03*
X15400Y17050D02*
D03*
Y17350D02*
D03*
X10004Y18050D02*
D03*
X12700Y13550D02*
D03*
Y13842D02*
D03*
X14000Y14950D02*
D03*
X13800Y15250D02*
D03*
X14400Y14950D02*
D03*
X14803D02*
D03*
X15200D02*
D03*
X13850Y16170D02*
D03*
M02*
