G04*
G04 #@! TF.GenerationSoftware,Altium Limited,Altium Designer,18.1.7 (191)*
G04*
G04 Layer_Physical_Order=2*
G04 Layer_Color=5050912*
%FSLAX24Y24*%
%MOIN*%
G70*
G01*
G75*
%ADD39C,0.0200*%
G36*
X20800Y10850D02*
X8700D01*
Y20450D01*
X20800D01*
Y10850D01*
D02*
G37*
%LPC*%
G36*
X9400Y20218D02*
X9279Y20202D01*
X9166Y20155D01*
X9069Y20081D01*
X8995Y19984D01*
X8948Y19871D01*
X8932Y19750D01*
X8948Y19629D01*
X8995Y19516D01*
X9069Y19419D01*
X9166Y19345D01*
X9279Y19298D01*
X9400Y19282D01*
X9521Y19298D01*
X9634Y19345D01*
X9731Y19419D01*
X9805Y19516D01*
X9852Y19629D01*
X9868Y19750D01*
X9852Y19871D01*
X9805Y19984D01*
X9731Y20081D01*
X9634Y20155D01*
X9521Y20202D01*
X9400Y20218D01*
D02*
G37*
G36*
X10709Y19446D02*
X10636Y19431D01*
X10574Y19390D01*
X10532Y19327D01*
X10518Y19254D01*
X10532Y19181D01*
X10574Y19118D01*
X10636Y19077D01*
X10709Y19062D01*
X10783Y19077D01*
X10845Y19118D01*
X10887Y19181D01*
X10901Y19254D01*
X10887Y19327D01*
X10845Y19390D01*
X10783Y19431D01*
X10709Y19446D01*
D02*
G37*
G36*
X11400Y18423D02*
X11334Y18410D01*
X11277Y18373D01*
X11240Y18316D01*
X11227Y18250D01*
X11240Y18184D01*
X11277Y18127D01*
X11334Y18090D01*
X11400Y18077D01*
X11466Y18090D01*
X11523Y18127D01*
X11560Y18184D01*
X11573Y18250D01*
X11560Y18316D01*
X11523Y18373D01*
X11466Y18410D01*
X11400Y18423D01*
D02*
G37*
G36*
X12500Y18226D02*
X12434Y18213D01*
X12377Y18176D01*
X12340Y18119D01*
X12327Y18053D01*
X12340Y17987D01*
X12377Y17931D01*
X12434Y17893D01*
X12500Y17880D01*
X12566Y17893D01*
X12623Y17931D01*
X12660Y17987D01*
X12673Y18053D01*
X12660Y18119D01*
X12623Y18176D01*
X12566Y18213D01*
X12500Y18226D01*
D02*
G37*
G36*
X10004Y18223D02*
X9937Y18210D01*
X9881Y18173D01*
X9843Y18116D01*
X9830Y18050D01*
X9843Y17984D01*
X9881Y17927D01*
X9937Y17890D01*
X10004Y17877D01*
X10070Y17890D01*
X10126Y17927D01*
X10164Y17984D01*
X10177Y18050D01*
X10164Y18116D01*
X10126Y18173D01*
X10070Y18210D01*
X10004Y18223D01*
D02*
G37*
G36*
X11500Y18030D02*
X11434Y18016D01*
X11377Y17979D01*
X11340Y17923D01*
X11327Y17856D01*
X11340Y17790D01*
X11377Y17734D01*
X11434Y17696D01*
X11500Y17683D01*
X11566Y17696D01*
X11623Y17734D01*
X11660Y17790D01*
X11673Y17856D01*
X11660Y17923D01*
X11623Y17979D01*
X11566Y18016D01*
X11500Y18030D01*
D02*
G37*
G36*
X16800Y17123D02*
X16734Y17110D01*
X16677Y17073D01*
X16675Y17069D01*
X16625D01*
X16623Y17073D01*
X16566Y17110D01*
X16500Y17123D01*
X16434Y17110D01*
X16377Y17073D01*
X16375Y17069D01*
X16325D01*
X16323Y17073D01*
X16266Y17110D01*
X16200Y17123D01*
X16134Y17110D01*
X16077Y17073D01*
X16040Y17016D01*
X16027Y16950D01*
X16040Y16884D01*
X16077Y16827D01*
X16134Y16790D01*
X16152Y16735D01*
X16140Y16716D01*
X16127Y16650D01*
X16140Y16584D01*
X16177Y16527D01*
X16234Y16490D01*
X16300Y16477D01*
X16366Y16490D01*
X16423Y16527D01*
X16425Y16531D01*
X16475D01*
X16477Y16527D01*
X16534Y16490D01*
X16600Y16477D01*
X16666Y16490D01*
X16723Y16527D01*
X16725Y16531D01*
X16775D01*
X16777Y16527D01*
X16834Y16490D01*
X16900Y16477D01*
X16966Y16490D01*
X17023Y16527D01*
X17060Y16584D01*
X17073Y16650D01*
X17060Y16716D01*
X17023Y16773D01*
X16966Y16810D01*
X16948Y16865D01*
X16960Y16884D01*
X16973Y16950D01*
X16960Y17016D01*
X16923Y17073D01*
X16866Y17110D01*
X16800Y17123D01*
D02*
G37*
G36*
X10709Y17438D02*
X10636Y17423D01*
X10574Y17382D01*
X10532Y17319D01*
X10518Y17246D01*
X10532Y17173D01*
X10574Y17110D01*
X10636Y17069D01*
X10709Y17054D01*
X10783Y17069D01*
X10845Y17110D01*
X10887Y17173D01*
X10901Y17246D01*
X10887Y17319D01*
X10845Y17382D01*
X10783Y17423D01*
X10709Y17438D01*
D02*
G37*
G36*
X15400Y17523D02*
X15334Y17510D01*
X15277Y17473D01*
X15240Y17416D01*
X15227Y17350D01*
X15240Y17284D01*
X15277Y17227D01*
X15281Y17225D01*
Y17175D01*
X15277Y17173D01*
X15240Y17116D01*
X15227Y17050D01*
X15240Y16984D01*
X15277Y16927D01*
X15281Y16925D01*
Y16875D01*
X15277Y16873D01*
X15240Y16816D01*
X15227Y16750D01*
X15240Y16684D01*
X15277Y16627D01*
X15334Y16590D01*
X15400Y16577D01*
X15466Y16590D01*
X15523Y16627D01*
X15560Y16684D01*
X15615Y16702D01*
X15634Y16690D01*
X15700Y16677D01*
X15766Y16690D01*
X15823Y16727D01*
X15860Y16784D01*
X15873Y16850D01*
X15860Y16916D01*
X15823Y16973D01*
X15819Y16975D01*
Y17025D01*
X15823Y17027D01*
X15860Y17084D01*
X15873Y17150D01*
X15860Y17216D01*
X15823Y17273D01*
X15766Y17310D01*
X15700Y17323D01*
X15634Y17310D01*
X15614Y17297D01*
X15569Y17327D01*
X15573Y17350D01*
X15560Y17416D01*
X15523Y17473D01*
X15466Y17510D01*
X15400Y17523D01*
D02*
G37*
G36*
X18409Y16846D02*
X18336Y16831D01*
X18274Y16790D01*
X18232Y16727D01*
X18218Y16654D01*
X18232Y16581D01*
X18274Y16518D01*
X18336Y16477D01*
X18409Y16462D01*
X18483Y16477D01*
X18545Y16518D01*
X18587Y16581D01*
X18601Y16654D01*
X18587Y16727D01*
X18545Y16790D01*
X18483Y16831D01*
X18409Y16846D01*
D02*
G37*
G36*
X11909D02*
X11836Y16831D01*
X11774Y16790D01*
X11732Y16727D01*
X11718Y16654D01*
X11732Y16581D01*
X11774Y16518D01*
X11836Y16477D01*
X11909Y16462D01*
X11983Y16477D01*
X12045Y16518D01*
X12087Y16581D01*
X12101Y16654D01*
X12087Y16727D01*
X12045Y16790D01*
X11983Y16831D01*
X11909Y16846D01*
D02*
G37*
G36*
X9400Y17218D02*
X9279Y17202D01*
X9166Y17155D01*
X9069Y17081D01*
X8995Y16984D01*
X8948Y16871D01*
X8932Y16750D01*
X8948Y16629D01*
X8995Y16516D01*
X9069Y16419D01*
X9166Y16345D01*
X9279Y16298D01*
X9400Y16282D01*
X9521Y16298D01*
X9634Y16345D01*
X9731Y16419D01*
X9805Y16516D01*
X9852Y16629D01*
X9868Y16750D01*
X9852Y16871D01*
X9805Y16984D01*
X9731Y17081D01*
X9634Y17155D01*
X9521Y17202D01*
X9400Y17218D01*
D02*
G37*
G36*
X12700Y16623D02*
X12634Y16610D01*
X12577Y16573D01*
X12540Y16516D01*
X12527Y16450D01*
X12540Y16384D01*
X12577Y16327D01*
X12634Y16290D01*
X12700Y16277D01*
X12766Y16290D01*
X12823Y16327D01*
X12860Y16384D01*
X12873Y16450D01*
X12860Y16516D01*
X12823Y16573D01*
X12766Y16610D01*
X12700Y16623D01*
D02*
G37*
G36*
X18800Y16020D02*
X18734Y16007D01*
X18677Y15969D01*
X18640Y15913D01*
X18627Y15847D01*
X18640Y15781D01*
X18677Y15724D01*
X18734Y15687D01*
X18800Y15674D01*
X18866Y15687D01*
X18923Y15724D01*
X18960Y15781D01*
X18973Y15847D01*
X18960Y15913D01*
X18923Y15969D01*
X18866Y16007D01*
X18800Y16020D01*
D02*
G37*
G36*
X13850Y16343D02*
X13784Y16330D01*
X13727Y16293D01*
X13690Y16236D01*
X13677Y16170D01*
X13690Y16104D01*
X13727Y16047D01*
X13782Y16011D01*
X13784Y16002D01*
Y15968D01*
X13782Y15959D01*
X13727Y15923D01*
X13690Y15866D01*
X13677Y15800D01*
X13690Y15734D01*
X13727Y15677D01*
X13784Y15640D01*
X13850Y15627D01*
X13916Y15640D01*
X13973Y15677D01*
X14010Y15734D01*
X14023Y15800D01*
X14010Y15866D01*
X13973Y15923D01*
X13918Y15959D01*
X13916Y15968D01*
Y16002D01*
X13918Y16011D01*
X13973Y16047D01*
X14010Y16104D01*
X14023Y16170D01*
X14010Y16236D01*
X13973Y16293D01*
X13916Y16330D01*
X13850Y16343D01*
D02*
G37*
G36*
X16400Y15449D02*
X16334Y15436D01*
X16277Y15399D01*
X16240Y15342D01*
X16227Y15276D01*
X16240Y15210D01*
X16277Y15153D01*
X16334Y15116D01*
X16400Y15103D01*
X16466Y15116D01*
X16523Y15153D01*
X16560Y15210D01*
X16573Y15276D01*
X16560Y15342D01*
X16523Y15399D01*
X16466Y15436D01*
X16400Y15449D01*
D02*
G37*
G36*
X12700Y15323D02*
X12634Y15310D01*
X12577Y15273D01*
X12540Y15216D01*
X12527Y15150D01*
X12540Y15084D01*
X12577Y15027D01*
X12634Y14990D01*
X12700Y14977D01*
X12766Y14990D01*
X12823Y15027D01*
X12860Y15084D01*
X12873Y15150D01*
X12860Y15216D01*
X12823Y15273D01*
X12766Y15310D01*
X12700Y15323D01*
D02*
G37*
G36*
X18800Y15233D02*
X18734Y15220D01*
X18677Y15182D01*
X18640Y15126D01*
X18627Y15059D01*
X18640Y14993D01*
X18677Y14937D01*
X18734Y14899D01*
X18800Y14886D01*
X18866Y14899D01*
X18923Y14937D01*
X18960Y14993D01*
X18973Y15059D01*
X18960Y15126D01*
X18923Y15182D01*
X18866Y15220D01*
X18800Y15233D01*
D02*
G37*
G36*
X19181Y15023D02*
X19114Y15010D01*
X19058Y14973D01*
X19020Y14916D01*
X19007Y14850D01*
X19020Y14784D01*
X19058Y14727D01*
X19114Y14690D01*
X19181Y14677D01*
X19247Y14690D01*
X19303Y14727D01*
X19341Y14784D01*
X19354Y14850D01*
X19341Y14916D01*
X19303Y14973D01*
X19247Y15010D01*
X19181Y15023D01*
D02*
G37*
G36*
X12400Y14923D02*
X12334Y14910D01*
X12277Y14873D01*
X12240Y14816D01*
X12227Y14750D01*
X12240Y14684D01*
X12277Y14627D01*
X12334Y14590D01*
X12400Y14577D01*
X12466Y14590D01*
X12523Y14627D01*
X12560Y14684D01*
X12573Y14750D01*
X12560Y14816D01*
X12523Y14873D01*
X12466Y14910D01*
X12400Y14923D01*
D02*
G37*
G36*
X16981Y14823D02*
X16914Y14810D01*
X16858Y14773D01*
X16820Y14716D01*
X16807Y14650D01*
X16820Y14584D01*
X16858Y14527D01*
X16914Y14490D01*
X16981Y14477D01*
X17047Y14490D01*
X17103Y14527D01*
X17141Y14584D01*
X17154Y14650D01*
X17141Y14716D01*
X17103Y14773D01*
X17047Y14810D01*
X16981Y14823D01*
D02*
G37*
G36*
X18409Y14838D02*
X18336Y14823D01*
X18274Y14782D01*
X18232Y14719D01*
X18218Y14646D01*
X18232Y14573D01*
X18274Y14510D01*
X18336Y14469D01*
X18409Y14454D01*
X18483Y14469D01*
X18545Y14510D01*
X18587Y14573D01*
X18601Y14646D01*
X18587Y14719D01*
X18545Y14782D01*
X18483Y14823D01*
X18409Y14838D01*
D02*
G37*
G36*
X11909D02*
X11836Y14823D01*
X11774Y14782D01*
X11732Y14719D01*
X11718Y14646D01*
X11732Y14573D01*
X11774Y14510D01*
X11836Y14469D01*
X11909Y14454D01*
X11983Y14469D01*
X12045Y14510D01*
X12087Y14573D01*
X12101Y14646D01*
X12087Y14719D01*
X12045Y14782D01*
X11983Y14823D01*
X11909Y14838D01*
D02*
G37*
G36*
X13209Y14573D02*
X13142Y14560D01*
X13086Y14523D01*
X13049Y14466D01*
X13035Y14400D01*
X13049Y14334D01*
X13086Y14277D01*
X13142Y14240D01*
X13209Y14227D01*
X13275Y14240D01*
X13331Y14277D01*
X13369Y14334D01*
X13382Y14400D01*
X13369Y14466D01*
X13331Y14523D01*
X13275Y14560D01*
X13209Y14573D01*
D02*
G37*
G36*
X16700Y14523D02*
X16634Y14510D01*
X16577Y14473D01*
X16540Y14416D01*
X16527Y14350D01*
X16540Y14284D01*
X16577Y14227D01*
X16634Y14190D01*
X16700Y14177D01*
X16766Y14190D01*
X16823Y14227D01*
X16860Y14284D01*
X16873Y14350D01*
X16860Y14416D01*
X16823Y14473D01*
X16766Y14510D01*
X16700Y14523D01*
D02*
G37*
G36*
X9400Y15018D02*
X9279Y15002D01*
X9166Y14955D01*
X9069Y14881D01*
X8995Y14784D01*
X8948Y14671D01*
X8932Y14550D01*
X8948Y14429D01*
X8995Y14316D01*
X9069Y14219D01*
X9166Y14145D01*
X9279Y14098D01*
X9400Y14082D01*
X9521Y14098D01*
X9634Y14145D01*
X9731Y14219D01*
X9805Y14316D01*
X9852Y14429D01*
X9868Y14550D01*
X9852Y14671D01*
X9805Y14784D01*
X9731Y14881D01*
X9634Y14955D01*
X9521Y15002D01*
X9400Y15018D01*
D02*
G37*
G36*
X10709Y14246D02*
X10636Y14231D01*
X10574Y14190D01*
X10532Y14127D01*
X10518Y14054D01*
X10532Y13981D01*
X10574Y13918D01*
X10636Y13877D01*
X10709Y13862D01*
X10783Y13877D01*
X10845Y13918D01*
X10887Y13981D01*
X10901Y14054D01*
X10887Y14127D01*
X10845Y14190D01*
X10783Y14231D01*
X10709Y14246D01*
D02*
G37*
G36*
X15419Y13573D02*
X15353Y13560D01*
X15297Y13523D01*
X15259Y13466D01*
X15246Y13400D01*
X15259Y13334D01*
X15297Y13277D01*
X15353Y13240D01*
X15419Y13227D01*
X15486Y13240D01*
X15542Y13277D01*
X15580Y13334D01*
X15593Y13400D01*
X15580Y13466D01*
X15542Y13523D01*
X15486Y13560D01*
X15419Y13573D01*
D02*
G37*
G36*
X12700Y14016D02*
X12634Y14003D01*
X12577Y13965D01*
X12540Y13909D01*
X12527Y13842D01*
X12540Y13776D01*
X12577Y13720D01*
Y13673D01*
X12540Y13616D01*
X12527Y13550D01*
X12540Y13484D01*
X12577Y13427D01*
X12581Y13425D01*
Y13375D01*
X12577Y13373D01*
X12540Y13316D01*
X12527Y13250D01*
X12540Y13184D01*
X12577Y13127D01*
X12634Y13090D01*
X12700Y13077D01*
X12766Y13090D01*
X12823Y13127D01*
X12860Y13184D01*
X12873Y13250D01*
X12860Y13316D01*
X12823Y13373D01*
X12819Y13375D01*
Y13425D01*
X12823Y13427D01*
X12860Y13484D01*
X12873Y13550D01*
X12860Y13616D01*
X12823Y13673D01*
Y13720D01*
X12860Y13776D01*
X12873Y13842D01*
X12860Y13909D01*
X12823Y13965D01*
X12766Y14003D01*
X12700Y14016D01*
D02*
G37*
G36*
X17410Y13373D02*
X17343Y13360D01*
X17287Y13323D01*
X17249Y13266D01*
X17236Y13200D01*
X17249Y13134D01*
X17287Y13077D01*
X17343Y13040D01*
X17410Y13027D01*
X17476Y13040D01*
X17532Y13077D01*
X17570Y13134D01*
X17583Y13200D01*
X17570Y13266D01*
X17532Y13323D01*
X17476Y13360D01*
X17410Y13373D01*
D02*
G37*
G36*
X11300Y13223D02*
X11234Y13210D01*
X11177Y13173D01*
X11140Y13116D01*
X11127Y13050D01*
X11140Y12984D01*
X11177Y12927D01*
X11234Y12890D01*
X11300Y12877D01*
X11366Y12890D01*
X11423Y12927D01*
X11460Y12984D01*
X11473Y13050D01*
X11460Y13116D01*
X11423Y13173D01*
X11366Y13210D01*
X11300Y13223D01*
D02*
G37*
G36*
X10000Y13030D02*
X9934Y13017D01*
X9877Y12979D01*
X9840Y12923D01*
X9827Y12857D01*
X9840Y12790D01*
X9877Y12734D01*
X9934Y12697D01*
X10000Y12683D01*
X10066Y12697D01*
X10123Y12734D01*
X10160Y12790D01*
X10173Y12857D01*
X10160Y12923D01*
X10123Y12979D01*
X10066Y13017D01*
X10000Y13030D01*
D02*
G37*
G36*
X16600Y12995D02*
X16534Y12982D01*
X16477Y12945D01*
X16440Y12888D01*
X16427Y12822D01*
X16440Y12756D01*
X16477Y12699D01*
X16534Y12662D01*
X16600Y12649D01*
X16666Y12662D01*
X16723Y12699D01*
X16760Y12756D01*
X16773Y12822D01*
X16760Y12888D01*
X16723Y12945D01*
X16666Y12982D01*
X16600Y12995D01*
D02*
G37*
G36*
X11250Y12633D02*
X11184Y12620D01*
X11127Y12582D01*
X11090Y12526D01*
X11077Y12459D01*
X11090Y12393D01*
X11127Y12337D01*
X11184Y12299D01*
X11250Y12286D01*
X11316Y12299D01*
X11373Y12337D01*
X11410Y12393D01*
X11423Y12459D01*
X11410Y12526D01*
X11373Y12582D01*
X11316Y12620D01*
X11250Y12633D01*
D02*
G37*
G36*
X10709Y12238D02*
X10636Y12223D01*
X10574Y12182D01*
X10532Y12119D01*
X10518Y12046D01*
X10532Y11973D01*
X10574Y11910D01*
X10636Y11869D01*
X10709Y11854D01*
X10783Y11869D01*
X10845Y11910D01*
X10887Y11973D01*
X10901Y12046D01*
X10887Y12119D01*
X10845Y12182D01*
X10783Y12223D01*
X10709Y12238D01*
D02*
G37*
G36*
X16100Y12123D02*
X16034Y12110D01*
X15977Y12073D01*
X15940Y12016D01*
X15927Y11950D01*
X15940Y11884D01*
X15977Y11827D01*
X16034Y11790D01*
X16100Y11777D01*
X16166Y11790D01*
X16223Y11827D01*
X16260Y11884D01*
X16273Y11950D01*
X16260Y12016D01*
X16223Y12073D01*
X16166Y12110D01*
X16100Y12123D01*
D02*
G37*
G36*
X14900D02*
X14834Y12110D01*
X14777Y12073D01*
X14740Y12016D01*
X14727Y11950D01*
X14740Y11884D01*
X14777Y11827D01*
X14834Y11790D01*
X14900Y11777D01*
X14966Y11790D01*
X15023Y11827D01*
X15060Y11884D01*
X15073Y11950D01*
X15060Y12016D01*
X15023Y12073D01*
X14966Y12110D01*
X14900Y12123D01*
D02*
G37*
G36*
X14403D02*
X14337Y12110D01*
X14281Y12073D01*
X14243Y12016D01*
X14230Y11950D01*
X14243Y11884D01*
X14281Y11827D01*
X14337Y11790D01*
X14403Y11777D01*
X14469Y11790D01*
X14526Y11827D01*
X14563Y11884D01*
X14576Y11950D01*
X14563Y12016D01*
X14526Y12073D01*
X14469Y12110D01*
X14403Y12123D01*
D02*
G37*
G36*
X9400Y12018D02*
X9279Y12002D01*
X9166Y11955D01*
X9069Y11881D01*
X8995Y11784D01*
X8948Y11671D01*
X8932Y11550D01*
X8948Y11429D01*
X8995Y11316D01*
X9069Y11219D01*
X9166Y11145D01*
X9279Y11098D01*
X9400Y11082D01*
X9521Y11098D01*
X9634Y11145D01*
X9731Y11219D01*
X9805Y11316D01*
X9852Y11429D01*
X9868Y11550D01*
X9852Y11671D01*
X9805Y11784D01*
X9731Y11881D01*
X9634Y11955D01*
X9521Y12002D01*
X9400Y12018D01*
D02*
G37*
%LPD*%
D39*
X19500Y12950D02*
D03*
X19600Y18500D02*
D03*
X13200Y12100D02*
D03*
X10800Y20100D02*
D03*
X20000Y17700D02*
D03*
X19600Y20100D02*
D03*
X19200Y11300D02*
D03*
X18800Y20100D02*
D03*
X11200Y11300D02*
D03*
X20000Y19300D02*
D03*
X16800Y11300D02*
D03*
X10400Y14500D02*
D03*
X18800Y18500D02*
D03*
X11600Y12100D02*
D03*
X19200Y17700D02*
D03*
X10800Y15300D02*
D03*
X10400Y11300D02*
D03*
X17600D02*
D03*
X20400Y18500D02*
D03*
X12400Y12100D02*
D03*
X20000Y11300D02*
D03*
X10400Y16100D02*
D03*
X19600Y16900D02*
D03*
X13600Y11300D02*
D03*
X19200Y19300D02*
D03*
X12400Y15300D02*
D03*
X10400Y19300D02*
D03*
X20400Y20100D02*
D03*
X9600Y12900D02*
D03*
X9200Y18500D02*
D03*
X14000Y12100D02*
D03*
X19200Y16100D02*
D03*
X10000Y13700D02*
D03*
X16000Y11300D02*
D03*
X20400Y16900D02*
D03*
X18400Y11300D02*
D03*
X14400D02*
D03*
X15200D02*
D03*
X12000D02*
D03*
X10000Y18500D02*
D03*
X20400Y12100D02*
D03*
X12800Y11300D02*
D03*
X13400Y17750D02*
D03*
X16600Y12450D02*
D03*
X17400Y13581D02*
D03*
X13950Y16650D02*
D03*
X14000Y14950D02*
D03*
X13800Y15250D02*
D03*
X14400Y14950D02*
D03*
X14803D02*
D03*
X15200D02*
D03*
M02*
