G04*
G04 #@! TF.GenerationSoftware,Altium Limited,Altium Designer,18.1.7 (191)*
G04*
G04 Layer_Color=16711935*
%FSLAX24Y24*%
%MOIN*%
G70*
G01*
G75*
%ADD16R,0.0749X0.0355*%
%ADD17R,0.0789X0.0395*%
%ADD18R,0.0670X0.0158*%
%ADD24C,0.0236*%
%ADD25C,0.0827*%
D16*
X12500Y14370D02*
D03*
X19000D02*
D03*
D17*
X12500Y16930D02*
D03*
X19000D02*
D03*
D18*
X11791Y15650D02*
D03*
Y15847D02*
D03*
Y16044D02*
D03*
Y16241D02*
D03*
Y15453D02*
D03*
Y15256D02*
D03*
Y15059D02*
D03*
X13209Y15650D02*
D03*
Y15847D02*
D03*
Y16044D02*
D03*
Y16241D02*
D03*
Y15453D02*
D03*
Y15256D02*
D03*
Y15059D02*
D03*
X19709D02*
D03*
Y15256D02*
D03*
Y15453D02*
D03*
Y16241D02*
D03*
Y16044D02*
D03*
Y15847D02*
D03*
Y15650D02*
D03*
X18291Y15059D02*
D03*
Y15256D02*
D03*
Y15453D02*
D03*
Y16241D02*
D03*
Y16044D02*
D03*
Y15847D02*
D03*
Y15650D02*
D03*
D24*
X11909Y14646D02*
D03*
Y16654D02*
D03*
X18409D02*
D03*
Y14646D02*
D03*
X10709Y12046D02*
D03*
Y14054D02*
D03*
Y19254D02*
D03*
Y17246D02*
D03*
D25*
X9400Y11550D02*
D03*
Y14550D02*
D03*
Y16750D02*
D03*
Y19750D02*
D03*
M02*
