G04*
G04 #@! TF.GenerationSoftware,Altium Limited,Altium Designer,18.1.7 (191)*
G04*
G04 Layer_Physical_Order=3*
G04 Layer_Color=152*
%FSLAX24Y24*%
%MOIN*%
G70*
G01*
G75*
%ADD39C,0.0200*%
G36*
X20800Y10850D02*
X8700D01*
Y20450D01*
X20800D01*
Y10850D01*
D02*
G37*
%LPC*%
G36*
X20400Y20273D02*
X20334Y20260D01*
X20277Y20223D01*
X20240Y20166D01*
X20227Y20100D01*
X20240Y20034D01*
X20277Y19977D01*
X20334Y19940D01*
X20400Y19927D01*
X20466Y19940D01*
X20523Y19977D01*
X20560Y20034D01*
X20573Y20100D01*
X20560Y20166D01*
X20523Y20223D01*
X20466Y20260D01*
X20400Y20273D01*
D02*
G37*
G36*
X19600D02*
X19534Y20260D01*
X19477Y20223D01*
X19440Y20166D01*
X19427Y20100D01*
X19440Y20034D01*
X19477Y19977D01*
X19534Y19940D01*
X19600Y19927D01*
X19666Y19940D01*
X19723Y19977D01*
X19760Y20034D01*
X19773Y20100D01*
X19760Y20166D01*
X19723Y20223D01*
X19666Y20260D01*
X19600Y20273D01*
D02*
G37*
G36*
X18800D02*
X18734Y20260D01*
X18677Y20223D01*
X18640Y20166D01*
X18627Y20100D01*
X18640Y20034D01*
X18677Y19977D01*
X18734Y19940D01*
X18800Y19927D01*
X18866Y19940D01*
X18923Y19977D01*
X18960Y20034D01*
X18973Y20100D01*
X18960Y20166D01*
X18923Y20223D01*
X18866Y20260D01*
X18800Y20273D01*
D02*
G37*
G36*
X10800D02*
X10734Y20260D01*
X10677Y20223D01*
X10640Y20166D01*
X10627Y20100D01*
X10640Y20034D01*
X10677Y19977D01*
X10734Y19940D01*
X10800Y19927D01*
X10866Y19940D01*
X10923Y19977D01*
X10960Y20034D01*
X10973Y20100D01*
X10960Y20166D01*
X10923Y20223D01*
X10866Y20260D01*
X10800Y20273D01*
D02*
G37*
G36*
X9400Y20218D02*
X9279Y20202D01*
X9166Y20155D01*
X9069Y20081D01*
X8995Y19984D01*
X8948Y19871D01*
X8932Y19750D01*
X8948Y19629D01*
X8995Y19516D01*
X9069Y19419D01*
X9166Y19345D01*
X9279Y19298D01*
X9400Y19282D01*
X9521Y19298D01*
X9634Y19345D01*
X9731Y19419D01*
X9805Y19516D01*
X9852Y19629D01*
X9868Y19750D01*
X9852Y19871D01*
X9805Y19984D01*
X9731Y20081D01*
X9634Y20155D01*
X9521Y20202D01*
X9400Y20218D01*
D02*
G37*
G36*
X20000Y19473D02*
X19934Y19460D01*
X19877Y19423D01*
X19840Y19366D01*
X19827Y19300D01*
X19840Y19234D01*
X19877Y19177D01*
X19934Y19140D01*
X20000Y19127D01*
X20066Y19140D01*
X20123Y19177D01*
X20160Y19234D01*
X20173Y19300D01*
X20160Y19366D01*
X20123Y19423D01*
X20066Y19460D01*
X20000Y19473D01*
D02*
G37*
G36*
X19200D02*
X19134Y19460D01*
X19077Y19423D01*
X19040Y19366D01*
X19027Y19300D01*
X19040Y19234D01*
X19077Y19177D01*
X19134Y19140D01*
X19200Y19127D01*
X19266Y19140D01*
X19323Y19177D01*
X19360Y19234D01*
X19373Y19300D01*
X19360Y19366D01*
X19323Y19423D01*
X19266Y19460D01*
X19200Y19473D01*
D02*
G37*
G36*
X10400D02*
X10334Y19460D01*
X10277Y19423D01*
X10240Y19366D01*
X10227Y19300D01*
X10240Y19234D01*
X10277Y19177D01*
X10334Y19140D01*
X10400Y19127D01*
X10466Y19140D01*
X10490Y19156D01*
X10556Y19145D01*
X10556Y19144D01*
X10574Y19118D01*
X10636Y19077D01*
X10709Y19062D01*
X10783Y19077D01*
X10845Y19118D01*
X10887Y19181D01*
X10901Y19254D01*
X10887Y19327D01*
X10845Y19390D01*
X10783Y19431D01*
X10709Y19446D01*
X10636Y19431D01*
X10574Y19390D01*
X10545D01*
X10523Y19423D01*
X10466Y19460D01*
X10400Y19473D01*
D02*
G37*
G36*
X20400Y18673D02*
X20334Y18660D01*
X20277Y18623D01*
X20240Y18566D01*
X20227Y18500D01*
X20240Y18434D01*
X20277Y18377D01*
X20334Y18340D01*
X20400Y18327D01*
X20466Y18340D01*
X20523Y18377D01*
X20560Y18434D01*
X20573Y18500D01*
X20560Y18566D01*
X20523Y18623D01*
X20466Y18660D01*
X20400Y18673D01*
D02*
G37*
G36*
X19600D02*
X19534Y18660D01*
X19477Y18623D01*
X19440Y18566D01*
X19427Y18500D01*
X19440Y18434D01*
X19477Y18377D01*
X19534Y18340D01*
X19600Y18327D01*
X19666Y18340D01*
X19723Y18377D01*
X19760Y18434D01*
X19773Y18500D01*
X19760Y18566D01*
X19723Y18623D01*
X19666Y18660D01*
X19600Y18673D01*
D02*
G37*
G36*
X18800D02*
X18734Y18660D01*
X18677Y18623D01*
X18640Y18566D01*
X18627Y18500D01*
X18640Y18434D01*
X18677Y18377D01*
X18734Y18340D01*
X18800Y18327D01*
X18866Y18340D01*
X18923Y18377D01*
X18960Y18434D01*
X18973Y18500D01*
X18960Y18566D01*
X18923Y18623D01*
X18866Y18660D01*
X18800Y18673D01*
D02*
G37*
G36*
X10000D02*
X9934Y18660D01*
X9877Y18623D01*
X9840Y18566D01*
X9827Y18500D01*
X9840Y18434D01*
X9877Y18377D01*
X9934Y18340D01*
X10000Y18327D01*
X10066Y18340D01*
X10123Y18377D01*
X10160Y18434D01*
X10173Y18500D01*
X10160Y18566D01*
X10123Y18623D01*
X10066Y18660D01*
X10000Y18673D01*
D02*
G37*
G36*
X9200D02*
X9134Y18660D01*
X9077Y18623D01*
X9040Y18566D01*
X9027Y18500D01*
X9040Y18434D01*
X9077Y18377D01*
X9134Y18340D01*
X9200Y18327D01*
X9266Y18340D01*
X9323Y18377D01*
X9360Y18434D01*
X9373Y18500D01*
X9360Y18566D01*
X9323Y18623D01*
X9266Y18660D01*
X9200Y18673D01*
D02*
G37*
G36*
X11400Y18423D02*
X11334Y18410D01*
X11277Y18373D01*
X11240Y18316D01*
X11227Y18250D01*
X11240Y18184D01*
X11277Y18127D01*
X11334Y18090D01*
X11400Y18077D01*
X11466Y18090D01*
X11523Y18127D01*
X11560Y18184D01*
X11573Y18250D01*
X11560Y18316D01*
X11523Y18373D01*
X11466Y18410D01*
X11400Y18423D01*
D02*
G37*
G36*
X12500Y18226D02*
X12434Y18213D01*
X12377Y18176D01*
X12340Y18119D01*
X12327Y18053D01*
X12340Y17987D01*
X12377Y17931D01*
X12434Y17893D01*
X12500Y17880D01*
X12566Y17893D01*
X12623Y17931D01*
X12660Y17987D01*
X12673Y18053D01*
X12660Y18119D01*
X12623Y18176D01*
X12566Y18213D01*
X12500Y18226D01*
D02*
G37*
G36*
X11500Y18030D02*
X11434Y18016D01*
X11377Y17979D01*
X11340Y17923D01*
X11327Y17856D01*
X11340Y17790D01*
X11377Y17734D01*
X11434Y17696D01*
X11500Y17683D01*
X11566Y17696D01*
X11623Y17734D01*
X11660Y17790D01*
X11673Y17856D01*
X11660Y17923D01*
X11623Y17979D01*
X11566Y18016D01*
X11500Y18030D01*
D02*
G37*
G36*
X13400Y17923D02*
X13334Y17910D01*
X13277Y17873D01*
X13240Y17816D01*
X13227Y17750D01*
X13240Y17684D01*
X13277Y17627D01*
X13334Y17590D01*
X13400Y17577D01*
X13466Y17590D01*
X13523Y17627D01*
X13560Y17684D01*
X13573Y17750D01*
X13560Y17816D01*
X13523Y17873D01*
X13466Y17910D01*
X13400Y17923D01*
D02*
G37*
G36*
X20000Y17873D02*
X19934Y17860D01*
X19877Y17823D01*
X19840Y17766D01*
X19827Y17700D01*
X19840Y17634D01*
X19877Y17577D01*
X19934Y17540D01*
X20000Y17527D01*
X20066Y17540D01*
X20123Y17577D01*
X20160Y17634D01*
X20173Y17700D01*
X20160Y17766D01*
X20123Y17823D01*
X20066Y17860D01*
X20000Y17873D01*
D02*
G37*
G36*
X19200D02*
X19134Y17860D01*
X19077Y17823D01*
X19040Y17766D01*
X19027Y17700D01*
X19040Y17634D01*
X19077Y17577D01*
X19134Y17540D01*
X19200Y17527D01*
X19266Y17540D01*
X19323Y17577D01*
X19360Y17634D01*
X19373Y17700D01*
X19360Y17766D01*
X19323Y17823D01*
X19266Y17860D01*
X19200Y17873D01*
D02*
G37*
G36*
X16800Y17123D02*
X16734Y17110D01*
X16677Y17073D01*
X16675Y17069D01*
X16625D01*
X16623Y17073D01*
X16566Y17110D01*
X16500Y17123D01*
X16434Y17110D01*
X16377Y17073D01*
X16375Y17069D01*
X16325D01*
X16323Y17073D01*
X16266Y17110D01*
X16200Y17123D01*
X16134Y17110D01*
X16077Y17073D01*
X16040Y17016D01*
X16027Y16950D01*
X16040Y16884D01*
X16077Y16827D01*
X16134Y16790D01*
X16152Y16735D01*
X16140Y16716D01*
X16127Y16650D01*
X16140Y16584D01*
X16177Y16527D01*
X16234Y16490D01*
X16300Y16477D01*
X16366Y16490D01*
X16423Y16527D01*
X16425Y16531D01*
X16475D01*
X16477Y16527D01*
X16534Y16490D01*
X16600Y16477D01*
X16666Y16490D01*
X16723Y16527D01*
X16725Y16531D01*
X16775D01*
X16777Y16527D01*
X16834Y16490D01*
X16900Y16477D01*
X16966Y16490D01*
X17023Y16527D01*
X17060Y16584D01*
X17073Y16650D01*
X17060Y16716D01*
X17023Y16773D01*
X16966Y16810D01*
X16948Y16865D01*
X16960Y16884D01*
X16973Y16950D01*
X16960Y17016D01*
X16923Y17073D01*
X16866Y17110D01*
X16800Y17123D01*
D02*
G37*
G36*
X10709Y17438D02*
X10636Y17423D01*
X10574Y17382D01*
X10532Y17319D01*
X10518Y17246D01*
X10532Y17173D01*
X10574Y17110D01*
X10636Y17069D01*
X10709Y17054D01*
X10783Y17069D01*
X10845Y17110D01*
X10887Y17173D01*
X10901Y17246D01*
X10887Y17319D01*
X10845Y17382D01*
X10783Y17423D01*
X10709Y17438D01*
D02*
G37*
G36*
X20400Y17073D02*
X20334Y17060D01*
X20277Y17023D01*
X20240Y16966D01*
X20227Y16900D01*
X20240Y16834D01*
X20277Y16777D01*
X20334Y16740D01*
X20400Y16727D01*
X20466Y16740D01*
X20523Y16777D01*
X20560Y16834D01*
X20573Y16900D01*
X20560Y16966D01*
X20523Y17023D01*
X20466Y17060D01*
X20400Y17073D01*
D02*
G37*
G36*
X19600D02*
X19534Y17060D01*
X19477Y17023D01*
X19440Y16966D01*
X19427Y16900D01*
X19440Y16834D01*
X19477Y16777D01*
X19534Y16740D01*
X19600Y16727D01*
X19666Y16740D01*
X19723Y16777D01*
X19760Y16834D01*
X19773Y16900D01*
X19760Y16966D01*
X19723Y17023D01*
X19666Y17060D01*
X19600Y17073D01*
D02*
G37*
G36*
X13950Y16823D02*
X13884Y16810D01*
X13827Y16773D01*
X13790Y16716D01*
X13777Y16650D01*
X13790Y16584D01*
X13827Y16527D01*
X13884Y16490D01*
X13950Y16477D01*
X14016Y16490D01*
X14073Y16527D01*
X14110Y16584D01*
X14123Y16650D01*
X14110Y16716D01*
X14073Y16773D01*
X14016Y16810D01*
X13950Y16823D01*
D02*
G37*
G36*
X18409Y16846D02*
X18336Y16831D01*
X18274Y16790D01*
X18232Y16727D01*
X18218Y16654D01*
X18232Y16581D01*
X18274Y16518D01*
X18336Y16477D01*
X18409Y16462D01*
X18483Y16477D01*
X18545Y16518D01*
X18587Y16581D01*
X18601Y16654D01*
X18587Y16727D01*
X18545Y16790D01*
X18483Y16831D01*
X18409Y16846D01*
D02*
G37*
G36*
X11909D02*
X11836Y16831D01*
X11774Y16790D01*
X11732Y16727D01*
X11718Y16654D01*
X11732Y16581D01*
X11774Y16518D01*
X11836Y16477D01*
X11909Y16462D01*
X11983Y16477D01*
X12045Y16518D01*
X12087Y16581D01*
X12101Y16654D01*
X12087Y16727D01*
X12045Y16790D01*
X11983Y16831D01*
X11909Y16846D01*
D02*
G37*
G36*
X9400Y17218D02*
X9279Y17202D01*
X9166Y17155D01*
X9069Y17081D01*
X8995Y16984D01*
X8948Y16871D01*
X8932Y16750D01*
X8948Y16629D01*
X8995Y16516D01*
X9069Y16419D01*
X9166Y16345D01*
X9279Y16298D01*
X9400Y16282D01*
X9521Y16298D01*
X9634Y16345D01*
X9731Y16419D01*
X9805Y16516D01*
X9852Y16629D01*
X9868Y16750D01*
X9852Y16871D01*
X9805Y16984D01*
X9731Y17081D01*
X9634Y17155D01*
X9521Y17202D01*
X9400Y17218D01*
D02*
G37*
G36*
X12700Y16623D02*
X12634Y16610D01*
X12577Y16573D01*
X12540Y16516D01*
X12527Y16450D01*
X12540Y16384D01*
X12577Y16327D01*
X12634Y16290D01*
X12700Y16277D01*
X12766Y16290D01*
X12823Y16327D01*
X12860Y16384D01*
X12873Y16450D01*
X12860Y16516D01*
X12823Y16573D01*
X12766Y16610D01*
X12700Y16623D01*
D02*
G37*
G36*
X19200Y16273D02*
X19134Y16260D01*
X19077Y16223D01*
X19040Y16166D01*
X19027Y16100D01*
X19040Y16034D01*
X19077Y15977D01*
X19134Y15940D01*
X19200Y15927D01*
X19266Y15940D01*
X19323Y15977D01*
X19360Y16034D01*
X19373Y16100D01*
X19360Y16166D01*
X19323Y16223D01*
X19266Y16260D01*
X19200Y16273D01*
D02*
G37*
G36*
X10400D02*
X10334Y16260D01*
X10277Y16223D01*
X10240Y16166D01*
X10227Y16100D01*
X10240Y16034D01*
X10277Y15977D01*
X10334Y15940D01*
X10400Y15927D01*
X10466Y15940D01*
X10523Y15977D01*
X10560Y16034D01*
X10573Y16100D01*
X10560Y16166D01*
X10523Y16223D01*
X10466Y16260D01*
X10400Y16273D01*
D02*
G37*
G36*
X18800Y16020D02*
X18734Y16007D01*
X18677Y15969D01*
X18640Y15913D01*
X18627Y15847D01*
X18640Y15781D01*
X18677Y15724D01*
X18734Y15687D01*
X18800Y15674D01*
X18866Y15687D01*
X18923Y15724D01*
X18960Y15781D01*
X18973Y15847D01*
X18960Y15913D01*
X18923Y15969D01*
X18866Y16007D01*
X18800Y16020D01*
D02*
G37*
G36*
X13850Y16343D02*
X13784Y16330D01*
X13727Y16293D01*
X13690Y16236D01*
X13677Y16170D01*
X13690Y16104D01*
X13727Y16047D01*
X13782Y16011D01*
X13784Y16002D01*
Y15968D01*
X13782Y15959D01*
X13727Y15923D01*
X13690Y15866D01*
X13677Y15800D01*
X13690Y15734D01*
X13727Y15677D01*
X13784Y15640D01*
X13850Y15627D01*
X13916Y15640D01*
X13973Y15677D01*
X14010Y15734D01*
X14023Y15800D01*
X14010Y15866D01*
X13973Y15923D01*
X13918Y15959D01*
X13916Y15968D01*
Y16002D01*
X13918Y16011D01*
X13973Y16047D01*
X14010Y16104D01*
X14023Y16170D01*
X14010Y16236D01*
X13973Y16293D01*
X13916Y16330D01*
X13850Y16343D01*
D02*
G37*
G36*
X10800Y15473D02*
X10734Y15460D01*
X10677Y15423D01*
X10640Y15366D01*
X10627Y15300D01*
X10640Y15234D01*
X10677Y15177D01*
X10734Y15140D01*
X10800Y15127D01*
X10866Y15140D01*
X10923Y15177D01*
X10960Y15234D01*
X10973Y15300D01*
X10960Y15366D01*
X10923Y15423D01*
X10866Y15460D01*
X10800Y15473D01*
D02*
G37*
G36*
X16400Y15449D02*
X16334Y15436D01*
X16277Y15399D01*
X16240Y15342D01*
X16227Y15276D01*
X16240Y15210D01*
X16277Y15153D01*
X16334Y15116D01*
X16400Y15103D01*
X16466Y15116D01*
X16523Y15153D01*
X16560Y15210D01*
X16573Y15276D01*
X16560Y15342D01*
X16523Y15399D01*
X16466Y15436D01*
X16400Y15449D01*
D02*
G37*
G36*
X12400Y15473D02*
X12334Y15460D01*
X12277Y15423D01*
X12240Y15366D01*
X12227Y15300D01*
X12240Y15234D01*
X12277Y15177D01*
X12334Y15140D01*
X12400Y15127D01*
X12466Y15140D01*
X12479Y15149D01*
X12532Y15124D01*
X12540Y15084D01*
X12577Y15027D01*
X12634Y14990D01*
X12700Y14977D01*
X12766Y14990D01*
X12823Y15027D01*
X12860Y15084D01*
X12873Y15150D01*
X12860Y15216D01*
X12823Y15273D01*
X12766Y15310D01*
X12700Y15323D01*
X12634Y15310D01*
X12621Y15301D01*
X12568Y15326D01*
X12560Y15366D01*
X12523Y15423D01*
X12466Y15460D01*
X12400Y15473D01*
D02*
G37*
G36*
X15200Y15123D02*
X15134Y15110D01*
X15078Y15073D01*
X15040Y15016D01*
X15027Y14950D01*
X15040Y14884D01*
X15078Y14827D01*
X15134Y14790D01*
X15200Y14777D01*
X15266Y14790D01*
X15323Y14827D01*
X15360Y14884D01*
X15373Y14950D01*
X15360Y15016D01*
X15323Y15073D01*
X15266Y15110D01*
X15200Y15123D01*
D02*
G37*
G36*
X14803D02*
X14737Y15110D01*
X14681Y15073D01*
X14643Y15016D01*
X14630Y14950D01*
X14643Y14884D01*
X14681Y14827D01*
X14737Y14790D01*
X14803Y14777D01*
X14870Y14790D01*
X14926Y14827D01*
X14963Y14884D01*
X14977Y14950D01*
X14963Y15016D01*
X14926Y15073D01*
X14870Y15110D01*
X14803Y15123D01*
D02*
G37*
G36*
X14400D02*
X14334Y15110D01*
X14278Y15073D01*
X14240Y15016D01*
X14227Y14950D01*
X14240Y14884D01*
X14278Y14827D01*
X14334Y14790D01*
X14400Y14777D01*
X14466Y14790D01*
X14523Y14827D01*
X14560Y14884D01*
X14573Y14950D01*
X14560Y15016D01*
X14523Y15073D01*
X14466Y15110D01*
X14400Y15123D01*
D02*
G37*
G36*
X13800Y15423D02*
X13734Y15410D01*
X13677Y15373D01*
X13640Y15316D01*
X13627Y15250D01*
X13640Y15184D01*
X13677Y15127D01*
X13734Y15090D01*
X13800Y15077D01*
X13823Y15081D01*
X13853Y15036D01*
X13840Y15016D01*
X13827Y14950D01*
X13840Y14884D01*
X13878Y14827D01*
X13934Y14790D01*
X14000Y14777D01*
X14066Y14790D01*
X14123Y14827D01*
X14160Y14884D01*
X14173Y14950D01*
X14160Y15016D01*
X14123Y15073D01*
X14066Y15110D01*
X14000Y15123D01*
X13977Y15119D01*
X13947Y15164D01*
X13960Y15184D01*
X13973Y15250D01*
X13960Y15316D01*
X13923Y15373D01*
X13866Y15410D01*
X13800Y15423D01*
D02*
G37*
G36*
X19181Y15023D02*
X19114Y15010D01*
X19058Y14973D01*
X19020Y14916D01*
X19007Y14850D01*
X19020Y14784D01*
X19058Y14727D01*
X19114Y14690D01*
X19181Y14677D01*
X19247Y14690D01*
X19303Y14727D01*
X19341Y14784D01*
X19354Y14850D01*
X19341Y14916D01*
X19303Y14973D01*
X19247Y15010D01*
X19181Y15023D01*
D02*
G37*
G36*
X12400Y14923D02*
X12334Y14910D01*
X12277Y14873D01*
X12240Y14816D01*
X12227Y14750D01*
X12240Y14684D01*
X12277Y14627D01*
X12334Y14590D01*
X12400Y14577D01*
X12466Y14590D01*
X12523Y14627D01*
X12560Y14684D01*
X12573Y14750D01*
X12560Y14816D01*
X12523Y14873D01*
X12466Y14910D01*
X12400Y14923D01*
D02*
G37*
G36*
X16981Y14823D02*
X16914Y14810D01*
X16858Y14773D01*
X16820Y14716D01*
X16807Y14650D01*
X16820Y14584D01*
X16858Y14527D01*
X16914Y14490D01*
X16981Y14477D01*
X17047Y14490D01*
X17103Y14527D01*
X17141Y14584D01*
X17154Y14650D01*
X17141Y14716D01*
X17103Y14773D01*
X17047Y14810D01*
X16981Y14823D01*
D02*
G37*
G36*
X18409Y14838D02*
X18336Y14823D01*
X18274Y14782D01*
X18232Y14719D01*
X18218Y14646D01*
X18232Y14573D01*
X18274Y14510D01*
X18336Y14469D01*
X18409Y14454D01*
X18483Y14469D01*
X18545Y14510D01*
X18587Y14573D01*
X18601Y14646D01*
X18587Y14719D01*
X18545Y14782D01*
X18483Y14823D01*
X18409Y14838D01*
D02*
G37*
G36*
X11909D02*
X11836Y14823D01*
X11774Y14782D01*
X11732Y14719D01*
X11718Y14646D01*
X11732Y14573D01*
X11774Y14510D01*
X11836Y14469D01*
X11909Y14454D01*
X11983Y14469D01*
X12045Y14510D01*
X12087Y14573D01*
X12101Y14646D01*
X12087Y14719D01*
X12045Y14782D01*
X11983Y14823D01*
X11909Y14838D01*
D02*
G37*
G36*
X10400Y14673D02*
X10334Y14660D01*
X10277Y14623D01*
X10240Y14566D01*
X10227Y14500D01*
X10240Y14434D01*
X10277Y14377D01*
X10334Y14340D01*
X10400Y14327D01*
X10466Y14340D01*
X10523Y14377D01*
X10560Y14434D01*
X10573Y14500D01*
X10560Y14566D01*
X10523Y14623D01*
X10466Y14660D01*
X10400Y14673D01*
D02*
G37*
G36*
X13209Y14573D02*
X13142Y14560D01*
X13086Y14523D01*
X13049Y14466D01*
X13035Y14400D01*
X13049Y14334D01*
X13086Y14277D01*
X13142Y14240D01*
X13209Y14227D01*
X13275Y14240D01*
X13331Y14277D01*
X13369Y14334D01*
X13382Y14400D01*
X13369Y14466D01*
X13331Y14523D01*
X13275Y14560D01*
X13209Y14573D01*
D02*
G37*
G36*
X16700Y14523D02*
X16634Y14510D01*
X16577Y14473D01*
X16540Y14416D01*
X16527Y14350D01*
X16540Y14284D01*
X16577Y14227D01*
X16634Y14190D01*
X16700Y14177D01*
X16766Y14190D01*
X16823Y14227D01*
X16860Y14284D01*
X16873Y14350D01*
X16860Y14416D01*
X16823Y14473D01*
X16766Y14510D01*
X16700Y14523D01*
D02*
G37*
G36*
X9400Y15018D02*
X9279Y15002D01*
X9166Y14955D01*
X9069Y14881D01*
X8995Y14784D01*
X8948Y14671D01*
X8932Y14550D01*
X8948Y14429D01*
X8995Y14316D01*
X9069Y14219D01*
X9166Y14145D01*
X9279Y14098D01*
X9400Y14082D01*
X9521Y14098D01*
X9634Y14145D01*
X9731Y14219D01*
X9805Y14316D01*
X9852Y14429D01*
X9868Y14550D01*
X9852Y14671D01*
X9805Y14784D01*
X9731Y14881D01*
X9634Y14955D01*
X9521Y15002D01*
X9400Y15018D01*
D02*
G37*
G36*
X10709Y14246D02*
X10636Y14231D01*
X10574Y14190D01*
X10532Y14127D01*
X10518Y14054D01*
X10532Y13981D01*
X10574Y13918D01*
X10636Y13877D01*
X10709Y13862D01*
X10783Y13877D01*
X10845Y13918D01*
X10887Y13981D01*
X10901Y14054D01*
X10887Y14127D01*
X10845Y14190D01*
X10783Y14231D01*
X10709Y14246D01*
D02*
G37*
G36*
X10000Y13873D02*
X9934Y13860D01*
X9877Y13823D01*
X9840Y13766D01*
X9827Y13700D01*
X9840Y13634D01*
X9877Y13577D01*
X9934Y13540D01*
X10000Y13527D01*
X10066Y13540D01*
X10123Y13577D01*
X10160Y13634D01*
X10173Y13700D01*
X10160Y13766D01*
X10123Y13823D01*
X10066Y13860D01*
X10000Y13873D01*
D02*
G37*
G36*
X15419Y13573D02*
X15353Y13560D01*
X15297Y13523D01*
X15259Y13466D01*
X15246Y13400D01*
X15259Y13334D01*
X15297Y13277D01*
X15353Y13240D01*
X15419Y13227D01*
X15486Y13240D01*
X15542Y13277D01*
X15580Y13334D01*
X15593Y13400D01*
X15580Y13466D01*
X15542Y13523D01*
X15486Y13560D01*
X15419Y13573D01*
D02*
G37*
G36*
X12700Y14016D02*
X12634Y14003D01*
X12577Y13965D01*
X12540Y13909D01*
X12527Y13842D01*
X12540Y13776D01*
X12577Y13720D01*
Y13673D01*
X12540Y13616D01*
X12527Y13550D01*
X12540Y13484D01*
X12577Y13427D01*
X12581Y13425D01*
Y13375D01*
X12577Y13373D01*
X12540Y13316D01*
X12527Y13250D01*
X12540Y13184D01*
X12577Y13127D01*
X12634Y13090D01*
X12700Y13077D01*
X12766Y13090D01*
X12823Y13127D01*
X12860Y13184D01*
X12873Y13250D01*
X12860Y13316D01*
X12823Y13373D01*
X12819Y13375D01*
Y13425D01*
X12823Y13427D01*
X12860Y13484D01*
X12873Y13550D01*
X12860Y13616D01*
X12823Y13673D01*
Y13720D01*
X12860Y13776D01*
X12873Y13842D01*
X12860Y13909D01*
X12823Y13965D01*
X12766Y14003D01*
X12700Y14016D01*
D02*
G37*
G36*
X17400Y13754D02*
X17334Y13741D01*
X17277Y13703D01*
X17240Y13647D01*
X17227Y13581D01*
X17240Y13514D01*
X17277Y13458D01*
X17334Y13420D01*
X17362Y13415D01*
Y13364D01*
X17343Y13360D01*
X17287Y13323D01*
X17249Y13266D01*
X17236Y13200D01*
X17249Y13134D01*
X17287Y13077D01*
X17343Y13040D01*
X17410Y13027D01*
X17476Y13040D01*
X17532Y13077D01*
X17570Y13134D01*
X17583Y13200D01*
X17570Y13266D01*
X17532Y13323D01*
X17476Y13360D01*
X17448Y13366D01*
Y13417D01*
X17466Y13420D01*
X17523Y13458D01*
X17560Y13514D01*
X17573Y13581D01*
X17560Y13647D01*
X17523Y13703D01*
X17466Y13741D01*
X17400Y13754D01*
D02*
G37*
G36*
X11300Y13223D02*
X11234Y13210D01*
X11177Y13173D01*
X11140Y13116D01*
X11127Y13050D01*
X11140Y12984D01*
X11177Y12927D01*
X11234Y12890D01*
X11300Y12877D01*
X11366Y12890D01*
X11423Y12927D01*
X11460Y12984D01*
X11473Y13050D01*
X11460Y13116D01*
X11423Y13173D01*
X11366Y13210D01*
X11300Y13223D01*
D02*
G37*
G36*
X19500Y13123D02*
X19434Y13110D01*
X19377Y13073D01*
X19340Y13016D01*
X19327Y12950D01*
X19340Y12884D01*
X19377Y12827D01*
X19434Y12790D01*
X19500Y12777D01*
X19566Y12790D01*
X19623Y12827D01*
X19660Y12884D01*
X19673Y12950D01*
X19660Y13016D01*
X19623Y13073D01*
X19566Y13110D01*
X19500Y13123D01*
D02*
G37*
G36*
X9600Y13073D02*
X9534Y13060D01*
X9477Y13023D01*
X9440Y12966D01*
X9427Y12900D01*
X9440Y12834D01*
X9477Y12777D01*
X9534Y12740D01*
X9600Y12727D01*
X9666Y12740D01*
X9723Y12777D01*
X9760Y12834D01*
X9773Y12900D01*
X9760Y12966D01*
X9723Y13023D01*
X9666Y13060D01*
X9600Y13073D01*
D02*
G37*
G36*
X11250Y12633D02*
X11184Y12620D01*
X11127Y12582D01*
X11090Y12526D01*
X11077Y12459D01*
X11090Y12393D01*
X11127Y12337D01*
X11184Y12299D01*
X11250Y12286D01*
X11316Y12299D01*
X11373Y12337D01*
X11410Y12393D01*
X11423Y12459D01*
X11410Y12526D01*
X11373Y12582D01*
X11316Y12620D01*
X11250Y12633D01*
D02*
G37*
G36*
X16600Y12623D02*
X16534Y12610D01*
X16477Y12573D01*
X16440Y12516D01*
X16427Y12450D01*
X16440Y12384D01*
X16477Y12327D01*
X16534Y12290D01*
X16600Y12277D01*
X16666Y12290D01*
X16723Y12327D01*
X16760Y12384D01*
X16773Y12450D01*
X16760Y12516D01*
X16723Y12573D01*
X16666Y12610D01*
X16600Y12623D01*
D02*
G37*
G36*
X20400Y12273D02*
X20334Y12260D01*
X20277Y12223D01*
X20240Y12166D01*
X20227Y12100D01*
X20240Y12034D01*
X20277Y11977D01*
X20334Y11940D01*
X20400Y11927D01*
X20466Y11940D01*
X20523Y11977D01*
X20560Y12034D01*
X20573Y12100D01*
X20560Y12166D01*
X20523Y12223D01*
X20466Y12260D01*
X20400Y12273D01*
D02*
G37*
G36*
X14000D02*
X13934Y12260D01*
X13877Y12223D01*
X13840Y12166D01*
X13827Y12100D01*
X13840Y12034D01*
X13877Y11977D01*
X13934Y11940D01*
X14000Y11927D01*
X14066Y11940D01*
X14123Y11977D01*
X14160Y12034D01*
X14173Y12100D01*
X14160Y12166D01*
X14123Y12223D01*
X14066Y12260D01*
X14000Y12273D01*
D02*
G37*
G36*
X13200D02*
X13134Y12260D01*
X13077Y12223D01*
X13040Y12166D01*
X13027Y12100D01*
X13040Y12034D01*
X13077Y11977D01*
X13134Y11940D01*
X13200Y11927D01*
X13266Y11940D01*
X13323Y11977D01*
X13360Y12034D01*
X13373Y12100D01*
X13360Y12166D01*
X13323Y12223D01*
X13266Y12260D01*
X13200Y12273D01*
D02*
G37*
G36*
X12400D02*
X12334Y12260D01*
X12277Y12223D01*
X12240Y12166D01*
X12227Y12100D01*
X12240Y12034D01*
X12277Y11977D01*
X12334Y11940D01*
X12400Y11927D01*
X12466Y11940D01*
X12523Y11977D01*
X12560Y12034D01*
X12573Y12100D01*
X12560Y12166D01*
X12523Y12223D01*
X12466Y12260D01*
X12400Y12273D01*
D02*
G37*
G36*
X11600D02*
X11534Y12260D01*
X11477Y12223D01*
X11440Y12166D01*
X11427Y12100D01*
X11440Y12034D01*
X11477Y11977D01*
X11534Y11940D01*
X11600Y11927D01*
X11666Y11940D01*
X11723Y11977D01*
X11760Y12034D01*
X11773Y12100D01*
X11760Y12166D01*
X11723Y12223D01*
X11666Y12260D01*
X11600Y12273D01*
D02*
G37*
G36*
X10709Y12238D02*
X10636Y12223D01*
X10574Y12182D01*
X10532Y12119D01*
X10518Y12046D01*
X10532Y11973D01*
X10574Y11910D01*
X10636Y11869D01*
X10709Y11854D01*
X10783Y11869D01*
X10845Y11910D01*
X10887Y11973D01*
X10901Y12046D01*
X10887Y12119D01*
X10845Y12182D01*
X10783Y12223D01*
X10709Y12238D01*
D02*
G37*
G36*
X16100Y12123D02*
X16034Y12110D01*
X15977Y12073D01*
X15940Y12016D01*
X15927Y11950D01*
X15940Y11884D01*
X15977Y11827D01*
X16034Y11790D01*
X16100Y11777D01*
X16166Y11790D01*
X16223Y11827D01*
X16260Y11884D01*
X16273Y11950D01*
X16260Y12016D01*
X16223Y12073D01*
X16166Y12110D01*
X16100Y12123D01*
D02*
G37*
G36*
X14900D02*
X14834Y12110D01*
X14777Y12073D01*
X14740Y12016D01*
X14727Y11950D01*
X14740Y11884D01*
X14777Y11827D01*
X14834Y11790D01*
X14900Y11777D01*
X14966Y11790D01*
X15023Y11827D01*
X15060Y11884D01*
X15073Y11950D01*
X15060Y12016D01*
X15023Y12073D01*
X14966Y12110D01*
X14900Y12123D01*
D02*
G37*
G36*
X20000Y11473D02*
X19934Y11460D01*
X19877Y11423D01*
X19840Y11366D01*
X19827Y11300D01*
X19840Y11234D01*
X19877Y11177D01*
X19934Y11140D01*
X20000Y11127D01*
X20066Y11140D01*
X20123Y11177D01*
X20160Y11234D01*
X20173Y11300D01*
X20160Y11366D01*
X20123Y11423D01*
X20066Y11460D01*
X20000Y11473D01*
D02*
G37*
G36*
X19200D02*
X19134Y11460D01*
X19077Y11423D01*
X19040Y11366D01*
X19027Y11300D01*
X19040Y11234D01*
X19077Y11177D01*
X19134Y11140D01*
X19200Y11127D01*
X19266Y11140D01*
X19323Y11177D01*
X19360Y11234D01*
X19373Y11300D01*
X19360Y11366D01*
X19323Y11423D01*
X19266Y11460D01*
X19200Y11473D01*
D02*
G37*
G36*
X18400D02*
X18334Y11460D01*
X18277Y11423D01*
X18240Y11366D01*
X18227Y11300D01*
X18240Y11234D01*
X18277Y11177D01*
X18334Y11140D01*
X18400Y11127D01*
X18466Y11140D01*
X18523Y11177D01*
X18560Y11234D01*
X18573Y11300D01*
X18560Y11366D01*
X18523Y11423D01*
X18466Y11460D01*
X18400Y11473D01*
D02*
G37*
G36*
X17600D02*
X17534Y11460D01*
X17477Y11423D01*
X17440Y11366D01*
X17427Y11300D01*
X17440Y11234D01*
X17477Y11177D01*
X17534Y11140D01*
X17600Y11127D01*
X17666Y11140D01*
X17723Y11177D01*
X17760Y11234D01*
X17773Y11300D01*
X17760Y11366D01*
X17723Y11423D01*
X17666Y11460D01*
X17600Y11473D01*
D02*
G37*
G36*
X16800D02*
X16734Y11460D01*
X16677Y11423D01*
X16640Y11366D01*
X16627Y11300D01*
X16640Y11234D01*
X16677Y11177D01*
X16734Y11140D01*
X16800Y11127D01*
X16866Y11140D01*
X16923Y11177D01*
X16960Y11234D01*
X16973Y11300D01*
X16960Y11366D01*
X16923Y11423D01*
X16866Y11460D01*
X16800Y11473D01*
D02*
G37*
G36*
X16000D02*
X15934Y11460D01*
X15877Y11423D01*
X15840Y11366D01*
X15827Y11300D01*
X15840Y11234D01*
X15877Y11177D01*
X15934Y11140D01*
X16000Y11127D01*
X16066Y11140D01*
X16123Y11177D01*
X16160Y11234D01*
X16173Y11300D01*
X16160Y11366D01*
X16123Y11423D01*
X16066Y11460D01*
X16000Y11473D01*
D02*
G37*
G36*
X15200D02*
X15134Y11460D01*
X15077Y11423D01*
X15040Y11366D01*
X15027Y11300D01*
X15040Y11234D01*
X15077Y11177D01*
X15134Y11140D01*
X15200Y11127D01*
X15266Y11140D01*
X15323Y11177D01*
X15360Y11234D01*
X15373Y11300D01*
X15360Y11366D01*
X15323Y11423D01*
X15266Y11460D01*
X15200Y11473D01*
D02*
G37*
G36*
X14400D02*
X14334Y11460D01*
X14277Y11423D01*
X14240Y11366D01*
X14227Y11300D01*
X14240Y11234D01*
X14277Y11177D01*
X14334Y11140D01*
X14400Y11127D01*
X14466Y11140D01*
X14523Y11177D01*
X14560Y11234D01*
X14573Y11300D01*
X14560Y11366D01*
X14523Y11423D01*
X14466Y11460D01*
X14400Y11473D01*
D02*
G37*
G36*
X13600D02*
X13534Y11460D01*
X13477Y11423D01*
X13440Y11366D01*
X13427Y11300D01*
X13440Y11234D01*
X13477Y11177D01*
X13534Y11140D01*
X13600Y11127D01*
X13666Y11140D01*
X13723Y11177D01*
X13760Y11234D01*
X13773Y11300D01*
X13760Y11366D01*
X13723Y11423D01*
X13666Y11460D01*
X13600Y11473D01*
D02*
G37*
G36*
X12800D02*
X12734Y11460D01*
X12677Y11423D01*
X12640Y11366D01*
X12627Y11300D01*
X12640Y11234D01*
X12677Y11177D01*
X12734Y11140D01*
X12800Y11127D01*
X12866Y11140D01*
X12923Y11177D01*
X12960Y11234D01*
X12973Y11300D01*
X12960Y11366D01*
X12923Y11423D01*
X12866Y11460D01*
X12800Y11473D01*
D02*
G37*
G36*
X12000D02*
X11934Y11460D01*
X11877Y11423D01*
X11840Y11366D01*
X11827Y11300D01*
X11840Y11234D01*
X11877Y11177D01*
X11934Y11140D01*
X12000Y11127D01*
X12066Y11140D01*
X12123Y11177D01*
X12160Y11234D01*
X12173Y11300D01*
X12160Y11366D01*
X12123Y11423D01*
X12066Y11460D01*
X12000Y11473D01*
D02*
G37*
G36*
X11200D02*
X11134Y11460D01*
X11077Y11423D01*
X11040Y11366D01*
X11027Y11300D01*
X11040Y11234D01*
X11077Y11177D01*
X11134Y11140D01*
X11200Y11127D01*
X11266Y11140D01*
X11323Y11177D01*
X11360Y11234D01*
X11373Y11300D01*
X11360Y11366D01*
X11323Y11423D01*
X11266Y11460D01*
X11200Y11473D01*
D02*
G37*
G36*
X10400D02*
X10334Y11460D01*
X10277Y11423D01*
X10240Y11366D01*
X10227Y11300D01*
X10240Y11234D01*
X10277Y11177D01*
X10334Y11140D01*
X10400Y11127D01*
X10466Y11140D01*
X10523Y11177D01*
X10560Y11234D01*
X10573Y11300D01*
X10560Y11366D01*
X10523Y11423D01*
X10466Y11460D01*
X10400Y11473D01*
D02*
G37*
G36*
X9400Y12018D02*
X9279Y12002D01*
X9166Y11955D01*
X9069Y11881D01*
X8995Y11784D01*
X8948Y11671D01*
X8932Y11550D01*
X8948Y11429D01*
X8995Y11316D01*
X9069Y11219D01*
X9166Y11145D01*
X9279Y11098D01*
X9400Y11082D01*
X9521Y11098D01*
X9634Y11145D01*
X9731Y11219D01*
X9805Y11316D01*
X9852Y11429D01*
X9868Y11550D01*
X9852Y11671D01*
X9805Y11784D01*
X9731Y11881D01*
X9634Y11955D01*
X9521Y12002D01*
X9400Y12018D01*
D02*
G37*
%LPD*%
D39*
X10000Y12857D02*
D03*
X18800Y15059D02*
D03*
X14403Y11950D02*
D03*
X16600Y12822D02*
D03*
X15400Y16750D02*
D03*
X15700Y16850D02*
D03*
Y17150D02*
D03*
X15400Y17050D02*
D03*
Y17350D02*
D03*
X10004Y18050D02*
D03*
M02*
