M48
;Layer_Color=9474304
;FILE_FORMAT=2:4
INCH,TZ
;TYPE=PLATED
T1F00S00C0.0100
;TYPE=NON_PLATED
T2F00S00C0.0236
T3F00S00C0.0787
%
T01
X10400Y11300
X11200
X12000
X12800
X13600
X14400
X14403Y11950
X14900
X15200Y11300
X14000Y12100
X13200
X12400
X11600
X11250Y12459
X11300Y13050
X10000Y12857
X9600Y12900
X10000Y13700
X10400Y14500
X10800Y15300
X12400
X12700Y15150
X12400Y14750
X13209Y14400
X12700Y13842
Y13550
Y13250
X15419Y13400
X15200Y14950
X14803
X14400
X14000
X13800Y15250
X16400Y15276
X16981Y14650
X16700Y14350
X17400Y13581
X17410Y13200
X16600Y12822
Y12450
X16100Y11950
X16000Y11300
X16800
X17600
X18400
X19200
X20000
X20400Y12100
X19500Y12950
X19181Y14850
X18800Y15059
Y15847
X19200Y16100
X19600Y16900
X20400
X20000Y17700
X19200
X19600Y18500
X18800
X19200Y19300
X20000
X19600Y20100
X18800
X20400
Y18500
X16800Y16950
X16500
X16200
X16300Y16650
X16600
X16900
X15700Y16850
Y17150
X15400Y17050
Y16750
Y17350
X13950Y16650
X13850Y16170
Y15800
X12700Y16450
X12500Y18053
X11500Y17856
X11400Y18250
X10004Y18050
X10000Y18500
X9200
X10400Y19300
X10800Y20100
X10400Y16100
X13400Y17750
T02
X10709Y12046
Y14054
X11909Y14646
X18409
Y16654
X11909
X10709Y17246
Y19254
T03
X9400Y11550
Y14550
Y16750
Y19750
M30
