G04*
G04 #@! TF.GenerationSoftware,Altium Limited,Altium Designer,18.1.7 (191)*
G04*
G04 Layer_Color=32896*
%FSLAX24Y24*%
%MOIN*%
G70*
G01*
G75*
%ADD12C,0.0079*%
%ADD13C,0.0080*%
%ADD40C,0.0070*%
G36*
X17792Y17526D02*
X17763D01*
Y17516D01*
X17754D01*
Y17526D01*
X17745D01*
Y17516D01*
X17735D01*
Y17507D01*
X17726D01*
Y17497D01*
X17697D01*
Y17488D01*
X17669D01*
Y17479D01*
X17650D01*
Y17469D01*
X17631D01*
Y17460D01*
X17603D01*
Y17450D01*
X17575D01*
Y17441D01*
X17556D01*
Y17431D01*
X17537D01*
Y17422D01*
X17518D01*
Y17413D01*
X17499D01*
Y17403D01*
X17481D01*
Y17394D01*
X17462D01*
Y17384D01*
X17443D01*
Y17375D01*
X17424D01*
Y17365D01*
X17405D01*
Y17356D01*
X17386D01*
Y17347D01*
X17367D01*
Y17337D01*
X17349D01*
Y17328D01*
X17330D01*
Y17318D01*
X17311D01*
Y17309D01*
X17302D01*
Y17299D01*
X17283D01*
Y17290D01*
X17264D01*
Y17281D01*
X17254D01*
Y17271D01*
X17226D01*
Y17262D01*
X17207D01*
Y17252D01*
X17188D01*
Y17243D01*
X17179D01*
Y17233D01*
X17151D01*
Y17224D01*
X17132D01*
Y17215D01*
X17113D01*
Y17205D01*
X17104D01*
Y17196D01*
X17085D01*
Y17186D01*
X17066D01*
Y17177D01*
X17047D01*
Y17168D01*
X17028D01*
Y17158D01*
X17009D01*
Y17149D01*
X16990D01*
Y17139D01*
X16981D01*
Y17130D01*
X16962D01*
Y17120D01*
X16943D01*
Y17111D01*
X16934D01*
Y17102D01*
X16906D01*
Y17092D01*
X16896D01*
Y17083D01*
X16887D01*
Y17073D01*
X16877D01*
Y17064D01*
X16849D01*
Y17054D01*
X16840D01*
Y17045D01*
X16821D01*
Y17036D01*
X16802D01*
Y17026D01*
X16793D01*
Y17017D01*
X16774D01*
Y17007D01*
X16755D01*
Y16998D01*
X16745D01*
Y16988D01*
X16727D01*
Y16979D01*
X16717D01*
Y16970D01*
X16698D01*
Y16960D01*
X16689D01*
Y16951D01*
X16661D01*
Y16941D01*
X16651D01*
Y16932D01*
X16632D01*
Y16922D01*
X16613D01*
Y16913D01*
X16604D01*
Y16904D01*
X16585D01*
Y16894D01*
X16566D01*
Y16885D01*
X16557D01*
Y16875D01*
X16529D01*
Y16866D01*
X16500D01*
Y16856D01*
X16482D01*
Y16847D01*
X16463D01*
Y16838D01*
X16444D01*
Y16828D01*
X16425D01*
Y16819D01*
X16397D01*
Y16809D01*
X16387D01*
Y16800D01*
X16368D01*
Y16790D01*
X16350D01*
Y16781D01*
X16331D01*
Y16772D01*
X16312D01*
Y16762D01*
X16284D01*
Y16753D01*
X16274D01*
Y16743D01*
X16246D01*
Y16734D01*
X16227D01*
Y16724D01*
X16208D01*
Y16715D01*
X16189D01*
Y16706D01*
X16170D01*
Y16696D01*
X16152D01*
Y16687D01*
X16133D01*
Y16677D01*
X16123D01*
Y16668D01*
X16095D01*
Y16659D01*
X16076D01*
Y16649D01*
X16057D01*
Y16640D01*
X16039D01*
Y16630D01*
X16010D01*
Y16621D01*
X15991D01*
Y16611D01*
X15973D01*
Y16602D01*
X15963D01*
Y16593D01*
X15935D01*
Y16583D01*
X15916D01*
Y16574D01*
X15888D01*
Y16583D01*
Y16593D01*
X15897D01*
Y16602D01*
Y16611D01*
X15907D01*
Y16621D01*
Y16630D01*
X15916D01*
Y16640D01*
Y16649D01*
X15907D01*
Y16659D01*
Y16668D01*
Y16677D01*
Y16687D01*
X15897D01*
Y16696D01*
Y16706D01*
X15888D01*
Y16715D01*
X15869D01*
Y16724D01*
X15841D01*
Y16734D01*
X15690D01*
Y16724D01*
X15633D01*
Y16715D01*
X15614D01*
Y16706D01*
X15605D01*
Y16715D01*
X15596D01*
Y16706D01*
X15567D01*
Y16696D01*
X15539D01*
Y16687D01*
X15501D01*
Y16677D01*
X15464D01*
Y16668D01*
X15435D01*
Y16659D01*
X15398D01*
Y16649D01*
X15360D01*
Y16640D01*
X15341D01*
Y16630D01*
X15313D01*
Y16640D01*
X15322D01*
Y16649D01*
Y16659D01*
X15332D01*
Y16668D01*
X15341D01*
Y16677D01*
X15360D01*
Y16687D01*
X15369D01*
Y16696D01*
X15379D01*
Y16706D01*
X15388D01*
Y16715D01*
X15398D01*
Y16724D01*
X15407D01*
Y16734D01*
X15416D01*
Y16743D01*
X15426D01*
Y16753D01*
X15445D01*
Y16762D01*
Y16772D01*
X15464D01*
Y16781D01*
X15473D01*
Y16790D01*
X15482D01*
Y16800D01*
X15492D01*
Y16809D01*
X15501D01*
Y16819D01*
X15511D01*
Y16828D01*
X15520D01*
Y16838D01*
X15530D01*
Y16847D01*
X15548D01*
Y16856D01*
X15558D01*
Y16866D01*
X15567D01*
Y16875D01*
X15577D01*
Y16885D01*
X15596D01*
Y16894D01*
X15605D01*
Y16904D01*
X15614D01*
Y16913D01*
X15624D01*
Y16922D01*
X15633D01*
Y16932D01*
X15643D01*
Y16941D01*
X15652D01*
Y16951D01*
X15661D01*
Y16960D01*
X15671D01*
Y16970D01*
X15680D01*
Y16979D01*
X15690D01*
Y16988D01*
X15699D01*
Y16998D01*
X15709D01*
Y17007D01*
X15718D01*
Y17017D01*
X15727D01*
Y17026D01*
X15737D01*
Y17036D01*
X15746D01*
Y17045D01*
X15756D01*
Y17054D01*
X15765D01*
Y17064D01*
X15775D01*
Y17073D01*
X15784D01*
Y17083D01*
X15793D01*
Y17092D01*
X15803D01*
Y17102D01*
X15812D01*
Y17111D01*
X15831D01*
Y17120D01*
Y17130D01*
X15841D01*
Y17139D01*
X15859D01*
Y17149D01*
X15869D01*
Y17158D01*
X15878D01*
Y17168D01*
X15888D01*
Y17177D01*
X15897D01*
Y17186D01*
X15916D01*
Y17196D01*
X15925D01*
Y17205D01*
X15935D01*
Y17215D01*
X15944D01*
Y17224D01*
X15954D01*
Y17233D01*
X15963D01*
Y17243D01*
X15973D01*
Y17252D01*
X15982D01*
Y17262D01*
X15991D01*
Y17271D01*
X16001D01*
Y17281D01*
X16010D01*
Y17290D01*
X16020D01*
Y17299D01*
X16029D01*
Y17309D01*
Y17318D01*
X16039D01*
Y17328D01*
X16048D01*
Y17337D01*
X16057D01*
Y17347D01*
X16067D01*
Y17356D01*
X16076D01*
Y17365D01*
X16086D01*
Y17375D01*
X16095D01*
Y17384D01*
X16104D01*
Y17394D01*
X16114D01*
Y17403D01*
X16123D01*
Y17413D01*
X16133D01*
Y17422D01*
X16142D01*
Y17431D01*
X16152D01*
Y17441D01*
Y17450D01*
X16161D01*
Y17460D01*
X16170D01*
Y17469D01*
Y17479D01*
X16180D01*
Y17488D01*
Y17497D01*
Y17507D01*
Y17516D01*
X16170D01*
Y17507D01*
X16161D01*
Y17497D01*
X16152D01*
Y17488D01*
X16142D01*
Y17479D01*
X16133D01*
Y17469D01*
X16123D01*
Y17460D01*
X16114D01*
Y17450D01*
X16104D01*
Y17441D01*
X16095D01*
Y17431D01*
X16086D01*
Y17422D01*
X16076D01*
Y17413D01*
X16067D01*
Y17403D01*
X16057D01*
Y17394D01*
X16048D01*
Y17384D01*
X16039D01*
Y17375D01*
X16029D01*
Y17365D01*
X16020D01*
Y17356D01*
X16010D01*
Y17347D01*
X16001D01*
Y17337D01*
X15991D01*
Y17328D01*
X15982D01*
Y17318D01*
X15963D01*
Y17309D01*
X15954D01*
Y17299D01*
Y17290D01*
X15935D01*
Y17281D01*
X15925D01*
Y17271D01*
X15916D01*
Y17262D01*
X15907D01*
Y17252D01*
X15897D01*
Y17243D01*
X15888D01*
Y17233D01*
X15869D01*
Y17224D01*
X15859D01*
Y17215D01*
X15850D01*
Y17205D01*
X15831D01*
Y17196D01*
Y17186D01*
X15812D01*
Y17177D01*
Y17168D01*
X15803D01*
Y17158D01*
X15793D01*
Y17149D01*
X15775D01*
Y17139D01*
X15765D01*
Y17130D01*
X15756D01*
Y17120D01*
X15746D01*
Y17111D01*
X15737D01*
Y17102D01*
X15727D01*
Y17092D01*
X15718D01*
Y17083D01*
X15709D01*
Y17073D01*
X15699D01*
Y17064D01*
X15690D01*
Y17054D01*
X15680D01*
Y17045D01*
X15671D01*
Y17036D01*
X15661D01*
Y17026D01*
X15652D01*
Y17017D01*
X15643D01*
Y17007D01*
X15633D01*
Y16998D01*
X15624D01*
Y16988D01*
X15614D01*
Y16979D01*
X15605D01*
Y16970D01*
X15596D01*
Y16960D01*
X15586D01*
Y16951D01*
X15577D01*
Y16941D01*
X15558D01*
Y16932D01*
X15548D01*
Y16922D01*
X15539D01*
Y16913D01*
X15530D01*
Y16904D01*
X15520D01*
Y16894D01*
X15511D01*
Y16885D01*
X15501D01*
Y16875D01*
X15482D01*
Y16866D01*
X15473D01*
Y16856D01*
X15464D01*
Y16847D01*
X15454D01*
Y16838D01*
X15445D01*
Y16828D01*
X15435D01*
Y16819D01*
X15426D01*
Y16809D01*
X15407D01*
Y16800D01*
X15398D01*
Y16790D01*
X15388D01*
Y16781D01*
X15379D01*
Y16772D01*
X15369D01*
Y16762D01*
X15360D01*
Y16753D01*
X15350D01*
Y16743D01*
X15341D01*
Y16734D01*
X15332D01*
Y16724D01*
X15322D01*
Y16715D01*
X15313D01*
Y16706D01*
X15294D01*
Y16696D01*
X15284D01*
Y16687D01*
X15275D01*
Y16677D01*
X15266D01*
Y16668D01*
X15256D01*
Y16659D01*
X15247D01*
Y16649D01*
X15237D01*
Y16640D01*
X15228D01*
Y16630D01*
X15218D01*
Y16621D01*
X15209D01*
Y16611D01*
X15190D01*
Y16602D01*
X15181D01*
Y16593D01*
X15171D01*
Y16583D01*
X15162D01*
Y16574D01*
X15153D01*
Y16564D01*
X15134D01*
Y16555D01*
X15105D01*
Y16545D01*
X15077D01*
Y16536D01*
X15058D01*
Y16527D01*
X15039D01*
Y16517D01*
X15021D01*
Y16508D01*
X15002D01*
Y16498D01*
X14983D01*
Y16489D01*
X14955D01*
Y16479D01*
X14936D01*
Y16470D01*
X14917D01*
Y16461D01*
X14889D01*
Y16451D01*
X14879D01*
Y16442D01*
X14851D01*
Y16432D01*
X14832D01*
Y16423D01*
X14813D01*
Y16413D01*
X14785D01*
Y16404D01*
Y16395D01*
X14766D01*
Y16385D01*
X14757D01*
Y16376D01*
X14738D01*
Y16366D01*
X14719D01*
Y16357D01*
X14710D01*
Y16347D01*
X14691D01*
Y16338D01*
X14681D01*
Y16329D01*
X14662D01*
Y16319D01*
X14653D01*
Y16310D01*
X14644D01*
Y16300D01*
X14625D01*
Y16291D01*
X14615D01*
Y16281D01*
X14606D01*
Y16272D01*
X14596D01*
Y16263D01*
X14587D01*
Y16253D01*
X14578D01*
Y16244D01*
Y16234D01*
X14568D01*
Y16225D01*
Y16216D01*
Y16206D01*
Y16197D01*
Y16187D01*
X14578D01*
Y16178D01*
X14644D01*
Y16187D01*
X14681D01*
Y16197D01*
X14691D01*
Y16206D01*
X14719D01*
Y16216D01*
X14738D01*
Y16225D01*
X14757D01*
Y16234D01*
X14766D01*
Y16244D01*
X14785D01*
Y16253D01*
X14804D01*
Y16263D01*
X14823D01*
Y16272D01*
X14832D01*
Y16281D01*
X14851D01*
Y16291D01*
X14870D01*
Y16300D01*
X14879D01*
Y16310D01*
X14889D01*
Y16319D01*
X14898D01*
Y16329D01*
X14907D01*
Y16338D01*
X14936D01*
Y16347D01*
X14945D01*
Y16357D01*
X14955D01*
Y16366D01*
X14973D01*
Y16376D01*
X14983D01*
Y16385D01*
X15002D01*
Y16395D01*
X15011D01*
Y16404D01*
X15021D01*
Y16413D01*
X15039D01*
Y16423D01*
X15049D01*
Y16432D01*
X15068D01*
Y16442D01*
X15077D01*
Y16451D01*
X15087D01*
Y16461D01*
X15096D01*
Y16470D01*
X15124D01*
Y16479D01*
X15143D01*
Y16489D01*
X15171D01*
Y16498D01*
X15190D01*
Y16508D01*
X15218D01*
Y16517D01*
X15237D01*
Y16527D01*
X15256D01*
Y16536D01*
X15284D01*
Y16545D01*
X15313D01*
Y16555D01*
X15350D01*
Y16564D01*
X15379D01*
Y16574D01*
X15416D01*
Y16583D01*
X15445D01*
Y16593D01*
X15473D01*
Y16602D01*
X15501D01*
Y16611D01*
X15539D01*
Y16621D01*
X15577D01*
Y16630D01*
X15624D01*
Y16640D01*
X15671D01*
Y16649D01*
X15718D01*
Y16659D01*
X15727D01*
Y16649D01*
X15737D01*
Y16659D01*
X15822D01*
Y16649D01*
Y16640D01*
Y16630D01*
X15812D01*
Y16621D01*
Y16611D01*
X15803D01*
Y16602D01*
X15793D01*
Y16593D01*
X15784D01*
Y16583D01*
X15775D01*
Y16574D01*
X15765D01*
Y16564D01*
X15756D01*
Y16555D01*
X15746D01*
Y16545D01*
X15737D01*
Y16536D01*
X15727D01*
Y16527D01*
X15718D01*
Y16517D01*
X15709D01*
Y16508D01*
X15699D01*
Y16498D01*
X15690D01*
Y16489D01*
X15680D01*
Y16479D01*
X15661D01*
Y16470D01*
X15652D01*
Y16461D01*
X15643D01*
Y16451D01*
X15633D01*
Y16442D01*
X15624D01*
Y16432D01*
X15605D01*
Y16423D01*
X15577D01*
Y16413D01*
X15558D01*
Y16404D01*
X15548D01*
Y16395D01*
X15539D01*
Y16385D01*
X15511D01*
Y16376D01*
X15501D01*
Y16366D01*
X15473D01*
Y16357D01*
X15454D01*
Y16347D01*
X15445D01*
Y16338D01*
X15426D01*
Y16329D01*
X15398D01*
Y16319D01*
X15379D01*
Y16310D01*
X15360D01*
Y16300D01*
X15350D01*
Y16291D01*
X15341D01*
Y16281D01*
X15322D01*
Y16272D01*
X15303D01*
Y16263D01*
X15275D01*
Y16253D01*
X15256D01*
Y16244D01*
X15237D01*
Y16234D01*
X15218D01*
Y16225D01*
X15200D01*
Y16216D01*
X15181D01*
Y16206D01*
X15171D01*
Y16197D01*
X15153D01*
Y16187D01*
X15134D01*
Y16178D01*
X15115D01*
Y16168D01*
X15087D01*
Y16159D01*
X15068D01*
Y16150D01*
X15058D01*
Y16140D01*
X15039D01*
Y16131D01*
X15021D01*
Y16121D01*
X14992D01*
Y16112D01*
X14973D01*
Y16102D01*
X14964D01*
Y16093D01*
X14955D01*
Y16084D01*
X14926D01*
Y16074D01*
X14917D01*
Y16065D01*
X14889D01*
Y16055D01*
X14879D01*
Y16046D01*
X14860D01*
Y16036D01*
X14841D01*
Y16027D01*
X14823D01*
Y16018D01*
X14804D01*
Y16008D01*
X14785D01*
Y15999D01*
Y15989D01*
X14766D01*
Y15980D01*
X14747D01*
Y15970D01*
X14719D01*
Y15961D01*
X14710D01*
Y15952D01*
X14691D01*
Y15942D01*
X14672D01*
Y15933D01*
X14653D01*
Y15923D01*
X14634D01*
Y15914D01*
X14615D01*
Y15904D01*
X14606D01*
Y15895D01*
X14587D01*
Y15886D01*
X14578D01*
Y15876D01*
X14559D01*
Y15867D01*
X14540D01*
Y15857D01*
X14530D01*
Y15848D01*
X14512D01*
Y15839D01*
X14502D01*
Y15829D01*
X14483D01*
Y15820D01*
X14474D01*
Y15810D01*
X14464D01*
Y15801D01*
X14455D01*
Y15791D01*
Y15782D01*
Y15773D01*
Y15763D01*
Y15754D01*
X14464D01*
Y15744D01*
X14512D01*
Y15754D01*
X14549D01*
Y15763D01*
X14568D01*
Y15773D01*
X14596D01*
Y15782D01*
X14606D01*
Y15791D01*
X14634D01*
Y15801D01*
X14644D01*
Y15810D01*
X14672D01*
Y15820D01*
X14691D01*
Y15829D01*
X14719D01*
Y15839D01*
X14738D01*
Y15848D01*
X14766D01*
Y15857D01*
X14785D01*
Y15867D01*
X14813D01*
Y15876D01*
X14832D01*
Y15886D01*
X14851D01*
Y15895D01*
X14870D01*
Y15904D01*
X14879D01*
Y15914D01*
X14907D01*
Y15923D01*
X14926D01*
Y15933D01*
X14945D01*
Y15942D01*
X14973D01*
Y15952D01*
X14983D01*
Y15961D01*
X15011D01*
Y15970D01*
X15030D01*
Y15980D01*
X15049D01*
Y15989D01*
X15068D01*
Y15999D01*
X15087D01*
Y16008D01*
X15096D01*
Y16018D01*
X15115D01*
Y16027D01*
X15134D01*
Y16036D01*
X15153D01*
Y16046D01*
X15171D01*
Y16055D01*
X15181D01*
Y16065D01*
X15200D01*
Y16074D01*
X15218D01*
Y16084D01*
X15228D01*
Y16093D01*
X15256D01*
Y16102D01*
X15266D01*
Y16112D01*
X15275D01*
Y16121D01*
X15294D01*
Y16131D01*
X15313D01*
Y16140D01*
X15332D01*
Y16150D01*
X15350D01*
Y16159D01*
X15360D01*
Y16168D01*
X15379D01*
Y16178D01*
X15388D01*
Y16187D01*
X15407D01*
Y16197D01*
X15416D01*
Y16206D01*
X15426D01*
Y16216D01*
X15445D01*
Y16225D01*
X15454D01*
Y16234D01*
X15473D01*
Y16244D01*
X15482D01*
Y16253D01*
X15492D01*
Y16263D01*
X15511D01*
Y16272D01*
X15530D01*
Y16281D01*
X15539D01*
Y16291D01*
X15548D01*
Y16300D01*
X15567D01*
Y16310D01*
X15577D01*
Y16319D01*
X15596D01*
Y16329D01*
X15605D01*
Y16338D01*
X15614D01*
Y16347D01*
X15624D01*
Y16357D01*
X15643D01*
Y16366D01*
X15652D01*
Y16376D01*
X15671D01*
Y16385D01*
X15699D01*
Y16395D01*
X15709D01*
Y16404D01*
X15727D01*
Y16413D01*
X15746D01*
Y16423D01*
X15765D01*
Y16432D01*
X15784D01*
Y16442D01*
X15812D01*
Y16451D01*
X15831D01*
Y16461D01*
X15850D01*
Y16470D01*
X15878D01*
Y16479D01*
X15888D01*
Y16489D01*
X15916D01*
Y16498D01*
X15925D01*
Y16508D01*
X15935D01*
Y16498D01*
X15944D01*
Y16489D01*
Y16479D01*
X15935D01*
Y16470D01*
X15916D01*
Y16461D01*
X15907D01*
Y16451D01*
X15888D01*
Y16442D01*
X15869D01*
Y16432D01*
X15859D01*
Y16423D01*
X15841D01*
Y16413D01*
X15831D01*
Y16404D01*
X15812D01*
Y16395D01*
X15803D01*
Y16385D01*
X15793D01*
Y16376D01*
X15775D01*
Y16366D01*
X15765D01*
Y16357D01*
X15756D01*
Y16347D01*
X15746D01*
Y16338D01*
X15737D01*
Y16329D01*
X15727D01*
Y16319D01*
X15718D01*
Y16310D01*
Y16300D01*
Y16291D01*
Y16281D01*
Y16272D01*
Y16263D01*
X15727D01*
Y16253D01*
X15775D01*
Y16263D01*
X15803D01*
Y16272D01*
X15831D01*
Y16281D01*
X15850D01*
Y16291D01*
X15869D01*
Y16300D01*
X15878D01*
Y16291D01*
X15888D01*
Y16281D01*
X15878D01*
Y16272D01*
X15869D01*
Y16263D01*
X15859D01*
Y16253D01*
X15841D01*
Y16244D01*
X15831D01*
Y16234D01*
X15812D01*
Y16225D01*
X15803D01*
Y16216D01*
X15793D01*
Y16206D01*
X15784D01*
Y16197D01*
X15775D01*
Y16187D01*
X15765D01*
Y16178D01*
X15746D01*
Y16168D01*
X15737D01*
Y16159D01*
X15727D01*
Y16150D01*
X15709D01*
Y16140D01*
X15699D01*
Y16131D01*
Y16121D01*
Y16112D01*
Y16102D01*
X15709D01*
Y16093D01*
X15727D01*
Y16102D01*
X15737D01*
Y16112D01*
X15765D01*
Y16121D01*
X15793D01*
Y16131D01*
X15869D01*
Y16121D01*
Y16112D01*
X15878D01*
Y16102D01*
Y16093D01*
Y16084D01*
X15869D01*
Y16074D01*
Y16065D01*
X15859D01*
Y16055D01*
Y16046D01*
X15841D01*
Y16036D01*
X15831D01*
Y16027D01*
X15822D01*
Y16018D01*
X15812D01*
Y16008D01*
X15803D01*
Y15999D01*
X15793D01*
Y15989D01*
X15784D01*
Y15980D01*
X15775D01*
Y15970D01*
X15765D01*
Y15961D01*
X15746D01*
Y15952D01*
Y15942D01*
X15727D01*
Y15933D01*
X15718D01*
Y15923D01*
X15690D01*
Y15914D01*
X15661D01*
Y15904D01*
X15652D01*
Y15895D01*
X15624D01*
Y15886D01*
X15605D01*
Y15876D01*
X15577D01*
Y15867D01*
X15558D01*
Y15857D01*
X15530D01*
Y15848D01*
X15511D01*
Y15839D01*
X15492D01*
Y15829D01*
X15464D01*
Y15820D01*
X15445D01*
Y15810D01*
X15426D01*
Y15801D01*
X15407D01*
Y15791D01*
X15388D01*
Y15782D01*
X15379D01*
Y15773D01*
X15350D01*
Y15763D01*
X15332D01*
Y15754D01*
X15313D01*
Y15744D01*
X15284D01*
Y15735D01*
X15266D01*
Y15725D01*
X15247D01*
Y15716D01*
X15228D01*
Y15707D01*
X15209D01*
Y15697D01*
X15200D01*
Y15688D01*
X15181D01*
Y15678D01*
X15162D01*
Y15669D01*
X15143D01*
Y15659D01*
X15124D01*
Y15650D01*
X15096D01*
Y15641D01*
X15077D01*
Y15631D01*
X15058D01*
Y15622D01*
X15039D01*
Y15612D01*
X15021D01*
Y15603D01*
X15002D01*
Y15593D01*
X14992D01*
Y15584D01*
X14973D01*
Y15575D01*
X14955D01*
Y15565D01*
X14936D01*
Y15556D01*
X14917D01*
Y15546D01*
X14898D01*
Y15537D01*
X14879D01*
Y15527D01*
X14870D01*
Y15518D01*
X14851D01*
Y15509D01*
X14832D01*
Y15499D01*
X14813D01*
Y15490D01*
X14804D01*
Y15480D01*
X14785D01*
Y15471D01*
X14766D01*
Y15461D01*
X14757D01*
Y15452D01*
X14738D01*
Y15443D01*
X14719D01*
Y15433D01*
X14700D01*
Y15424D01*
X14691D01*
Y15414D01*
X14672D01*
Y15405D01*
X14662D01*
Y15396D01*
X14644D01*
Y15386D01*
X14625D01*
Y15377D01*
X14615D01*
Y15367D01*
X14606D01*
Y15358D01*
X14587D01*
Y15348D01*
X14578D01*
Y15339D01*
X14559D01*
Y15330D01*
X14549D01*
Y15320D01*
X14540D01*
Y15311D01*
X14530D01*
Y15301D01*
Y15292D01*
X14521D01*
Y15282D01*
Y15273D01*
Y15264D01*
Y15254D01*
Y15245D01*
X14540D01*
Y15235D01*
X14578D01*
Y15245D01*
X14606D01*
Y15254D01*
X14625D01*
Y15264D01*
X14653D01*
Y15273D01*
X14672D01*
Y15282D01*
X14691D01*
Y15292D01*
X14700D01*
Y15301D01*
X14728D01*
Y15311D01*
X14747D01*
Y15320D01*
X14776D01*
Y15330D01*
X14794D01*
Y15339D01*
X14823D01*
Y15348D01*
X14832D01*
Y15358D01*
X14860D01*
Y15367D01*
X14889D01*
Y15377D01*
X14898D01*
Y15386D01*
X14926D01*
Y15396D01*
X14936D01*
Y15405D01*
X14964D01*
Y15414D01*
X14973D01*
Y15424D01*
X15002D01*
Y15433D01*
X15030D01*
Y15443D01*
X15039D01*
Y15452D01*
X15068D01*
Y15461D01*
X15087D01*
Y15471D01*
X15105D01*
Y15480D01*
X15115D01*
Y15490D01*
X15143D01*
Y15499D01*
X15153D01*
Y15509D01*
X15171D01*
Y15518D01*
X15190D01*
Y15527D01*
X15209D01*
Y15537D01*
X15228D01*
Y15546D01*
X15237D01*
Y15556D01*
X15256D01*
Y15565D01*
X15275D01*
Y15575D01*
X15284D01*
Y15584D01*
X15313D01*
Y15593D01*
X15322D01*
Y15603D01*
X15341D01*
Y15612D01*
X15350D01*
Y15622D01*
X15369D01*
Y15631D01*
X15379D01*
Y15641D01*
X15407D01*
Y15650D01*
X15416D01*
Y15659D01*
X15435D01*
Y15669D01*
X15454D01*
Y15678D01*
X15464D01*
Y15688D01*
X15482D01*
Y15697D01*
X15492D01*
Y15707D01*
X15511D01*
Y15716D01*
X15520D01*
Y15725D01*
X15530D01*
Y15735D01*
X15548D01*
Y15744D01*
X15558D01*
Y15754D01*
X15577D01*
Y15763D01*
X15586D01*
Y15773D01*
X15596D01*
Y15782D01*
X15605D01*
Y15791D01*
X15624D01*
Y15801D01*
X15633D01*
Y15810D01*
X15643D01*
Y15820D01*
X15652D01*
Y15829D01*
X15680D01*
Y15839D01*
X15709D01*
Y15848D01*
X15737D01*
Y15857D01*
X15756D01*
Y15867D01*
X15784D01*
Y15876D01*
X15812D01*
Y15886D01*
X15841D01*
Y15895D01*
X15850D01*
Y15904D01*
X15878D01*
Y15914D01*
X15907D01*
Y15923D01*
X15935D01*
Y15933D01*
X15963D01*
Y15942D01*
X15982D01*
Y15952D01*
X16010D01*
Y15961D01*
X16048D01*
Y15970D01*
X16067D01*
Y15980D01*
X16095D01*
Y15989D01*
X16114D01*
Y15999D01*
X16142D01*
Y16008D01*
X16161D01*
Y16018D01*
X16180D01*
Y16027D01*
X16208D01*
Y16036D01*
X16246D01*
Y16046D01*
X16274D01*
Y16055D01*
X16302D01*
Y16065D01*
X16331D01*
Y16074D01*
X16368D01*
Y16084D01*
X16397D01*
Y16093D01*
X16406D01*
Y16102D01*
X16416D01*
Y16093D01*
X16425D01*
Y16102D01*
X16434D01*
Y16112D01*
X16463D01*
Y16121D01*
X16491D01*
Y16131D01*
X16529D01*
Y16140D01*
X16547D01*
Y16150D01*
X16585D01*
Y16159D01*
X16623D01*
Y16168D01*
X16651D01*
Y16178D01*
X16679D01*
Y16187D01*
X16717D01*
Y16197D01*
X16736D01*
Y16206D01*
X16764D01*
Y16216D01*
X16793D01*
Y16225D01*
X16821D01*
Y16234D01*
X16859D01*
Y16244D01*
X16896D01*
Y16253D01*
X16925D01*
Y16263D01*
X16962D01*
Y16272D01*
X17000D01*
Y16281D01*
X17028D01*
Y16291D01*
X17056D01*
Y16300D01*
X17085D01*
Y16310D01*
X17113D01*
Y16319D01*
X17151D01*
Y16329D01*
X17188D01*
Y16338D01*
X17236D01*
Y16329D01*
Y16319D01*
X17217D01*
Y16310D01*
X17198D01*
Y16300D01*
X17179D01*
Y16291D01*
X17160D01*
Y16281D01*
X17141D01*
Y16272D01*
X17122D01*
Y16263D01*
X17104D01*
Y16253D01*
X17085D01*
Y16244D01*
X17066D01*
Y16234D01*
X17047D01*
Y16225D01*
X17028D01*
Y16216D01*
X17009D01*
Y16206D01*
X16990D01*
Y16197D01*
X16972D01*
Y16187D01*
X16953D01*
Y16178D01*
X16934D01*
Y16168D01*
X16925D01*
Y16159D01*
X16906D01*
Y16150D01*
X16887D01*
Y16140D01*
X16868D01*
Y16131D01*
X16859D01*
Y16121D01*
X16830D01*
Y16112D01*
X16811D01*
Y16102D01*
X16802D01*
Y16093D01*
X16783D01*
Y16084D01*
X16774D01*
Y16074D01*
X16764D01*
Y16065D01*
X16736D01*
Y16055D01*
X16717D01*
Y16046D01*
X16708D01*
Y16036D01*
X16689D01*
Y16027D01*
X16679D01*
Y16018D01*
X16651D01*
Y16008D01*
X16642D01*
Y15999D01*
X16632D01*
Y15989D01*
X16613D01*
Y15980D01*
X16595D01*
Y15970D01*
X16585D01*
Y15961D01*
X16576D01*
Y15952D01*
X16547D01*
Y15942D01*
X16538D01*
Y15933D01*
X16519D01*
Y15923D01*
X16500D01*
Y15914D01*
X16482D01*
Y15904D01*
X16463D01*
Y15895D01*
X16453D01*
Y15886D01*
X16444D01*
Y15876D01*
X16425D01*
Y15867D01*
X16406D01*
Y15857D01*
X16397D01*
Y15848D01*
X16378D01*
Y15839D01*
X16359D01*
Y15829D01*
X16340D01*
Y15820D01*
X16321D01*
Y15810D01*
X16312D01*
Y15801D01*
X16302D01*
Y15791D01*
X16284D01*
Y15782D01*
X16265D01*
Y15773D01*
X16255D01*
Y15763D01*
X16246D01*
Y15754D01*
X16227D01*
Y15744D01*
X16208D01*
Y15735D01*
X16199D01*
Y15725D01*
X16180D01*
Y15716D01*
X16161D01*
Y15707D01*
X16142D01*
Y15697D01*
Y15688D01*
X16133D01*
Y15697D01*
X16123D01*
Y15688D01*
X16114D01*
Y15678D01*
X16104D01*
Y15669D01*
X16095D01*
Y15659D01*
X16086D01*
Y15650D01*
X16057D01*
Y15641D01*
X16039D01*
Y15631D01*
X16029D01*
Y15622D01*
X16010D01*
Y15612D01*
X16001D01*
Y15603D01*
X15982D01*
Y15593D01*
X15973D01*
Y15584D01*
X15963D01*
Y15575D01*
X15925D01*
Y15584D01*
X15935D01*
Y15593D01*
Y15603D01*
X15944D01*
Y15612D01*
Y15622D01*
X15954D01*
Y15631D01*
Y15641D01*
Y15650D01*
Y15659D01*
Y15669D01*
Y15678D01*
Y15688D01*
Y15697D01*
X15944D01*
Y15707D01*
X15935D01*
Y15716D01*
X15925D01*
Y15725D01*
X15907D01*
Y15735D01*
X15897D01*
Y15725D01*
X15859D01*
Y15716D01*
X15841D01*
Y15707D01*
X15831D01*
Y15697D01*
X15822D01*
Y15688D01*
X15812D01*
Y15678D01*
X15803D01*
Y15669D01*
X15793D01*
Y15659D01*
X15784D01*
Y15650D01*
X15775D01*
Y15641D01*
Y15631D01*
X15765D01*
Y15622D01*
X15756D01*
Y15612D01*
Y15603D01*
X15746D01*
Y15593D01*
X15737D01*
Y15584D01*
Y15575D01*
X15727D01*
Y15565D01*
Y15556D01*
Y15546D01*
Y15537D01*
Y15527D01*
Y15518D01*
X15718D01*
Y15509D01*
Y15499D01*
Y15490D01*
Y15480D01*
X15709D01*
Y15471D01*
Y15461D01*
Y15452D01*
Y15443D01*
Y15433D01*
Y15424D01*
X15699D01*
Y15414D01*
Y15405D01*
Y15396D01*
Y15386D01*
X15690D01*
Y15377D01*
Y15367D01*
Y15358D01*
Y15348D01*
X15680D01*
Y15339D01*
Y15330D01*
Y15320D01*
Y15311D01*
Y15301D01*
Y15292D01*
Y15282D01*
Y15273D01*
Y15264D01*
X15671D01*
Y15254D01*
X15661D01*
Y15245D01*
X15643D01*
Y15235D01*
X15633D01*
Y15226D01*
Y15216D01*
X15624D01*
Y15207D01*
X15633D01*
Y15198D01*
Y15188D01*
X15643D01*
Y15179D01*
Y15169D01*
X15661D01*
Y15160D01*
X15671D01*
Y15150D01*
X15699D01*
Y15141D01*
X15718D01*
Y15132D01*
Y15122D01*
Y15113D01*
X15709D01*
Y15103D01*
Y15094D01*
X15699D01*
Y15084D01*
Y15075D01*
X15690D01*
Y15066D01*
X15680D01*
Y15056D01*
Y15047D01*
X15671D01*
Y15037D01*
X15661D01*
Y15028D01*
X15652D01*
Y15019D01*
X15643D01*
Y15009D01*
X15633D01*
Y15000D01*
Y14990D01*
X15624D01*
Y14981D01*
X15614D01*
Y14971D01*
X15605D01*
Y14962D01*
X15596D01*
Y14953D01*
X15586D01*
Y14943D01*
Y14934D01*
X15577D01*
Y14924D01*
X15567D01*
Y14915D01*
X15558D01*
Y14905D01*
X15548D01*
Y14896D01*
X15539D01*
Y14887D01*
Y14877D01*
X15530D01*
Y14868D01*
X15520D01*
Y14858D01*
X15511D01*
Y14849D01*
X15501D01*
Y14839D01*
X15492D01*
Y14830D01*
X15482D01*
Y14821D01*
X15473D01*
Y14811D01*
X15464D01*
Y14802D01*
X15454D01*
Y14792D01*
X15445D01*
Y14783D01*
X15435D01*
Y14773D01*
X15426D01*
Y14764D01*
X15416D01*
Y14755D01*
X15407D01*
Y14745D01*
X15398D01*
Y14736D01*
Y14726D01*
X15388D01*
Y14717D01*
X15369D01*
Y14707D01*
Y14698D01*
X15360D01*
Y14689D01*
X15350D01*
Y14679D01*
X15341D01*
Y14670D01*
X15332D01*
Y14660D01*
X15322D01*
Y14651D01*
X15313D01*
Y14641D01*
X15303D01*
Y14632D01*
X15294D01*
Y14623D01*
X15284D01*
Y14613D01*
X15275D01*
Y14604D01*
X15266D01*
Y14594D01*
X15256D01*
Y14585D01*
X15247D01*
Y14576D01*
X15237D01*
Y14566D01*
X15218D01*
Y14557D01*
X15209D01*
Y14547D01*
X15200D01*
Y14538D01*
X15190D01*
Y14528D01*
X15171D01*
Y14519D01*
X15162D01*
Y14510D01*
X15143D01*
Y14500D01*
X15134D01*
Y14491D01*
X15124D01*
Y14481D01*
X15115D01*
Y14472D01*
X15096D01*
Y14462D01*
X15087D01*
Y14453D01*
X15077D01*
Y14444D01*
X15058D01*
Y14434D01*
X15049D01*
Y14425D01*
X15039D01*
Y14415D01*
X15030D01*
Y14406D01*
X15021D01*
Y14396D01*
X15002D01*
Y14387D01*
X14992D01*
Y14378D01*
X14983D01*
Y14368D01*
X14973D01*
Y14359D01*
X14964D01*
Y14349D01*
X14945D01*
Y14340D01*
X14936D01*
Y14330D01*
X14926D01*
Y14321D01*
X14917D01*
Y14312D01*
X14898D01*
Y14302D01*
X14889D01*
Y14293D01*
X14879D01*
Y14283D01*
X14860D01*
Y14274D01*
X14851D01*
Y14264D01*
X14841D01*
Y14255D01*
X14832D01*
Y14246D01*
X14823D01*
Y14236D01*
X14813D01*
Y14227D01*
X14804D01*
Y14217D01*
X14794D01*
Y14208D01*
X14776D01*
Y14198D01*
X14766D01*
Y14189D01*
X14757D01*
Y14180D01*
X14747D01*
Y14170D01*
X14738D01*
Y14161D01*
X14728D01*
Y14151D01*
X14719D01*
Y14142D01*
X14700D01*
Y14133D01*
Y14123D01*
X14681D01*
Y14114D01*
Y14104D01*
X14662D01*
Y14095D01*
Y14085D01*
X14644D01*
Y14076D01*
Y14067D01*
X14625D01*
Y14057D01*
X14615D01*
Y14048D01*
X14606D01*
Y14038D01*
Y14029D01*
X14587D01*
Y14019D01*
Y14010D01*
X14568D01*
Y14001D01*
Y13991D01*
X14559D01*
Y13982D01*
X14549D01*
Y13972D01*
X14540D01*
Y13963D01*
X14530D01*
Y13953D01*
X14521D01*
Y13944D01*
Y13935D01*
X14512D01*
Y13925D01*
X14502D01*
Y13916D01*
X14493D01*
Y13906D01*
X14483D01*
Y13897D01*
Y13887D01*
X14474D01*
Y13878D01*
Y13869D01*
X14464D01*
Y13859D01*
Y13850D01*
X14455D01*
Y13840D01*
Y13831D01*
X14446D01*
Y13821D01*
Y13812D01*
Y13803D01*
Y13793D01*
X14455D01*
Y13784D01*
Y13774D01*
X14474D01*
Y13765D01*
X14502D01*
Y13774D01*
X14521D01*
Y13784D01*
X14530D01*
Y13793D01*
X14549D01*
Y13803D01*
X14559D01*
Y13812D01*
X14568D01*
Y13821D01*
X14578D01*
Y13831D01*
X14587D01*
Y13840D01*
X14596D01*
Y13850D01*
X14606D01*
Y13859D01*
X14615D01*
Y13869D01*
X14634D01*
Y13878D01*
Y13887D01*
X14653D01*
Y13897D01*
Y13906D01*
X14662D01*
Y13916D01*
X14672D01*
Y13925D01*
X14691D01*
Y13935D01*
X14700D01*
Y13944D01*
X14710D01*
Y13953D01*
X14719D01*
Y13963D01*
X14728D01*
Y13972D01*
X14738D01*
Y13982D01*
X14747D01*
Y13991D01*
X14757D01*
Y14001D01*
X14766D01*
Y14010D01*
X14776D01*
Y14019D01*
X14785D01*
Y14029D01*
X14794D01*
Y14038D01*
X14804D01*
Y14048D01*
X14813D01*
Y14057D01*
X14823D01*
Y14067D01*
X14832D01*
Y14076D01*
X14841D01*
Y14085D01*
X14851D01*
Y14095D01*
X14860D01*
Y14104D01*
X14870D01*
Y14114D01*
X14879D01*
Y14123D01*
X14889D01*
Y14133D01*
X14898D01*
Y14142D01*
X14907D01*
Y14151D01*
X14917D01*
Y14161D01*
X14926D01*
Y14170D01*
X14936D01*
Y14180D01*
X14945D01*
Y14189D01*
X14955D01*
Y14198D01*
X14964D01*
Y14208D01*
X14973D01*
Y14217D01*
X14983D01*
Y14227D01*
X14992D01*
Y14236D01*
X15002D01*
Y14246D01*
X15011D01*
Y14255D01*
X15021D01*
Y14264D01*
X15030D01*
Y14274D01*
X15039D01*
Y14283D01*
X15049D01*
Y14293D01*
Y14302D01*
X15058D01*
Y14312D01*
X15068D01*
Y14321D01*
X15077D01*
Y14330D01*
X15087D01*
Y14340D01*
X15096D01*
Y14349D01*
X15105D01*
Y14359D01*
X15124D01*
Y14368D01*
Y14378D01*
X15143D01*
Y14387D01*
X15153D01*
Y14396D01*
X15162D01*
Y14406D01*
X15171D01*
Y14415D01*
X15181D01*
Y14425D01*
X15190D01*
Y14434D01*
X15209D01*
Y14444D01*
X15218D01*
Y14453D01*
X15237D01*
Y14462D01*
X15247D01*
Y14472D01*
X15266D01*
Y14481D01*
X15275D01*
Y14491D01*
X15284D01*
Y14500D01*
X15303D01*
Y14510D01*
X15313D01*
Y14519D01*
X15322D01*
Y14528D01*
X15332D01*
Y14538D01*
X15341D01*
Y14547D01*
X15360D01*
Y14557D01*
X15379D01*
Y14566D01*
X15388D01*
Y14576D01*
X15398D01*
Y14585D01*
X15416D01*
Y14594D01*
X15426D01*
Y14604D01*
X15445D01*
Y14613D01*
X15454D01*
Y14623D01*
X15464D01*
Y14632D01*
X15482D01*
Y14641D01*
X15492D01*
Y14651D01*
X15511D01*
Y14660D01*
X15520D01*
Y14670D01*
X15539D01*
Y14679D01*
X15548D01*
Y14689D01*
X15567D01*
Y14698D01*
X15577D01*
Y14707D01*
X15586D01*
Y14717D01*
X15596D01*
Y14726D01*
X15605D01*
Y14736D01*
X15633D01*
Y14745D01*
X15643D01*
Y14755D01*
X15652D01*
Y14764D01*
X15671D01*
Y14773D01*
X15680D01*
Y14783D01*
X15690D01*
Y14792D01*
X15709D01*
Y14802D01*
X15718D01*
Y14811D01*
X15737D01*
Y14821D01*
X15746D01*
Y14830D01*
X15756D01*
Y14839D01*
X15775D01*
Y14849D01*
X15784D01*
Y14858D01*
X15793D01*
Y14868D01*
X15812D01*
Y14877D01*
X15831D01*
Y14887D01*
X15841D01*
Y14896D01*
X15850D01*
Y14905D01*
X15859D01*
Y14915D01*
X15878D01*
Y14924D01*
X15897D01*
Y14934D01*
X15907D01*
Y14943D01*
X15935D01*
Y14953D01*
X15944D01*
Y14962D01*
X15963D01*
Y14971D01*
X15973D01*
Y14981D01*
X15991D01*
Y14990D01*
X16001D01*
Y15000D01*
X16020D01*
Y15009D01*
X16029D01*
Y15019D01*
X16048D01*
Y15028D01*
X16057D01*
Y15037D01*
X16076D01*
Y15047D01*
X16086D01*
Y15056D01*
X16114D01*
Y15047D01*
Y15037D01*
X16104D01*
Y15028D01*
X16095D01*
Y15019D01*
X16086D01*
Y15009D01*
X16076D01*
Y15000D01*
X16067D01*
Y14990D01*
Y14981D01*
X16057D01*
Y14971D01*
X16048D01*
Y14962D01*
X16039D01*
Y14953D01*
X16029D01*
Y14943D01*
X16020D01*
Y14934D01*
Y14924D01*
X16010D01*
Y14915D01*
X16001D01*
Y14905D01*
X15991D01*
Y14896D01*
X15982D01*
Y14887D01*
X15973D01*
Y14877D01*
X15963D01*
Y14868D01*
Y14858D01*
X15954D01*
Y14849D01*
X15944D01*
Y14839D01*
X15935D01*
Y14830D01*
X15925D01*
Y14821D01*
Y14811D01*
X15916D01*
Y14802D01*
X15907D01*
Y14792D01*
X15897D01*
Y14783D01*
X15888D01*
Y14773D01*
X15878D01*
Y14764D01*
Y14755D01*
X15869D01*
Y14745D01*
X15859D01*
Y14736D01*
X15850D01*
Y14726D01*
X15841D01*
Y14717D01*
Y14707D01*
X15831D01*
Y14698D01*
X15822D01*
Y14689D01*
X15812D01*
Y14679D01*
Y14670D01*
X15803D01*
Y14660D01*
X15793D01*
Y14651D01*
X15784D01*
Y14641D01*
Y14632D01*
X15775D01*
Y14623D01*
X15765D01*
Y14613D01*
X15756D01*
Y14604D01*
Y14594D01*
X15746D01*
Y14585D01*
X15737D01*
Y14576D01*
Y14566D01*
X15727D01*
Y14557D01*
Y14547D01*
X15718D01*
Y14538D01*
X15709D01*
Y14528D01*
Y14519D01*
X15699D01*
Y14510D01*
Y14500D01*
X15690D01*
Y14491D01*
Y14481D01*
X15680D01*
Y14472D01*
Y14462D01*
X15671D01*
Y14453D01*
Y14444D01*
X15661D01*
Y14434D01*
Y14425D01*
Y14415D01*
Y14406D01*
Y14396D01*
Y14387D01*
Y14378D01*
X15671D01*
Y14368D01*
X15680D01*
Y14359D01*
X15690D01*
Y14349D01*
X15699D01*
Y14340D01*
X15765D01*
Y14349D01*
X15831D01*
Y14340D01*
Y14330D01*
X15822D01*
Y14321D01*
Y14312D01*
X15812D01*
Y14302D01*
Y14293D01*
Y14283D01*
X15803D01*
Y14274D01*
Y14264D01*
X15793D01*
Y14255D01*
Y14246D01*
Y14236D01*
X15784D01*
Y14227D01*
Y14217D01*
Y14208D01*
Y14198D01*
X15775D01*
Y14189D01*
X15784D01*
Y14180D01*
Y14170D01*
Y14161D01*
Y14151D01*
Y14142D01*
X15793D01*
Y14133D01*
Y14123D01*
X15803D01*
Y14114D01*
Y14104D01*
X15812D01*
Y14095D01*
X15822D01*
Y14085D01*
X15841D01*
Y14076D01*
X15850D01*
Y14067D01*
Y14057D01*
X15841D01*
Y14048D01*
Y14038D01*
X15850D01*
Y14029D01*
Y14019D01*
X15878D01*
Y14010D01*
X15888D01*
Y14019D01*
X15897D01*
Y14029D01*
X15916D01*
Y14038D01*
Y14048D01*
X15925D01*
Y14057D01*
X15935D01*
Y14067D01*
X15944D01*
Y14076D01*
Y14085D01*
Y14095D01*
Y14104D01*
Y14114D01*
Y14123D01*
X15935D01*
Y14133D01*
X15925D01*
Y14142D01*
X15916D01*
Y14151D01*
X15907D01*
Y14161D01*
X15897D01*
Y14170D01*
X15878D01*
Y14180D01*
Y14189D01*
Y14198D01*
Y14208D01*
X15888D01*
Y14217D01*
Y14227D01*
Y14236D01*
X15897D01*
Y14246D01*
Y14255D01*
X15907D01*
Y14264D01*
Y14274D01*
Y14283D01*
X15916D01*
Y14293D01*
Y14302D01*
X15925D01*
Y14312D01*
Y14321D01*
X15935D01*
Y14330D01*
Y14340D01*
Y14349D01*
X15944D01*
Y14359D01*
Y14368D01*
Y14378D01*
Y14387D01*
Y14396D01*
Y14406D01*
X15925D01*
Y14415D01*
Y14425D01*
Y14434D01*
X15916D01*
Y14444D01*
X15907D01*
Y14453D01*
X15859D01*
Y14462D01*
X15841D01*
Y14453D01*
X15803D01*
Y14444D01*
X15775D01*
Y14453D01*
Y14462D01*
Y14472D01*
X15784D01*
Y14481D01*
Y14491D01*
X15793D01*
Y14500D01*
Y14510D01*
X15803D01*
Y14519D01*
X15812D01*
Y14528D01*
Y14538D01*
X15822D01*
Y14547D01*
Y14557D01*
X15831D01*
Y14566D01*
X15841D01*
Y14576D01*
X15850D01*
Y14585D01*
Y14594D01*
X15859D01*
Y14604D01*
X15869D01*
Y14613D01*
X15878D01*
Y14623D01*
Y14632D01*
X15888D01*
Y14641D01*
X15897D01*
Y14651D01*
X15907D01*
Y14660D01*
X15916D01*
Y14670D01*
Y14679D01*
X15925D01*
Y14689D01*
X15935D01*
Y14698D01*
X15944D01*
Y14707D01*
Y14717D01*
X15954D01*
Y14726D01*
X15963D01*
Y14736D01*
X15973D01*
Y14745D01*
X15982D01*
Y14755D01*
X15991D01*
Y14764D01*
X16001D01*
Y14773D01*
Y14783D01*
X16010D01*
Y14792D01*
X16020D01*
Y14802D01*
X16029D01*
Y14811D01*
X16039D01*
Y14821D01*
Y14830D01*
X16048D01*
Y14839D01*
X16057D01*
Y14849D01*
X16067D01*
Y14858D01*
X16076D01*
Y14868D01*
X16086D01*
Y14877D01*
X16095D01*
Y14887D01*
X16104D01*
Y14896D01*
Y14905D01*
X16114D01*
Y14915D01*
X16123D01*
Y14924D01*
X16133D01*
Y14934D01*
X16142D01*
Y14943D01*
X16152D01*
Y14953D01*
X16161D01*
Y14962D01*
X16170D01*
Y14971D01*
Y14981D01*
X16180D01*
Y14990D01*
X16189D01*
Y15000D01*
X16199D01*
Y15009D01*
X16208D01*
Y15019D01*
X16218D01*
Y15028D01*
X16227D01*
Y15037D01*
X16236D01*
Y15047D01*
X16246D01*
Y15056D01*
X16255D01*
Y15066D01*
X16265D01*
Y15075D01*
X16274D01*
Y15084D01*
X16284D01*
Y15094D01*
X16293D01*
Y15103D01*
X16302D01*
Y15113D01*
X16312D01*
Y15122D01*
Y15132D01*
X16321D01*
Y15141D01*
X16331D01*
Y15150D01*
X16340D01*
Y15160D01*
X16350D01*
Y15169D01*
X16359D01*
Y15179D01*
X16368D01*
Y15188D01*
X16378D01*
Y15198D01*
X16387D01*
Y15207D01*
Y15216D01*
X16397D01*
Y15226D01*
X16406D01*
Y15235D01*
X16416D01*
Y15245D01*
X16425D01*
Y15254D01*
X16434D01*
Y15264D01*
X16444D01*
Y15273D01*
Y15282D01*
Y15292D01*
Y15301D01*
Y15311D01*
X16434D01*
Y15320D01*
X16425D01*
Y15330D01*
X16406D01*
Y15339D01*
X16368D01*
Y15330D01*
X16350D01*
Y15320D01*
X16331D01*
Y15311D01*
X16312D01*
Y15301D01*
X16293D01*
Y15292D01*
X16284D01*
Y15282D01*
X16274D01*
Y15273D01*
X16255D01*
Y15264D01*
X16246D01*
Y15254D01*
X16227D01*
Y15245D01*
X16218D01*
Y15235D01*
X16189D01*
Y15226D01*
X16180D01*
Y15216D01*
X16161D01*
Y15207D01*
X16142D01*
Y15198D01*
X16133D01*
Y15188D01*
X16123D01*
Y15179D01*
X16104D01*
Y15169D01*
X16086D01*
Y15160D01*
X16076D01*
Y15150D01*
X16057D01*
Y15141D01*
X16048D01*
Y15132D01*
X16029D01*
Y15122D01*
X16020D01*
Y15113D01*
X16001D01*
Y15103D01*
X15982D01*
Y15094D01*
X15973D01*
Y15084D01*
X15963D01*
Y15075D01*
X15954D01*
Y15066D01*
X15935D01*
Y15056D01*
X15916D01*
Y15047D01*
X15907D01*
Y15037D01*
X15888D01*
Y15028D01*
X15869D01*
Y15019D01*
X15850D01*
Y15009D01*
X15841D01*
Y15000D01*
X15822D01*
Y14990D01*
X15812D01*
Y14981D01*
X15803D01*
Y14971D01*
X15784D01*
Y14962D01*
X15775D01*
Y14953D01*
X15756D01*
Y14943D01*
X15746D01*
Y14934D01*
X15727D01*
Y14924D01*
X15718D01*
Y14915D01*
X15699D01*
Y14905D01*
X15690D01*
Y14896D01*
X15680D01*
Y14887D01*
X15671D01*
Y14877D01*
X15652D01*
Y14868D01*
X15643D01*
Y14858D01*
X15633D01*
Y14849D01*
X15624D01*
Y14839D01*
X15586D01*
Y14849D01*
Y14858D01*
X15596D01*
Y14868D01*
X15605D01*
Y14877D01*
X15614D01*
Y14887D01*
X15624D01*
Y14896D01*
X15633D01*
Y14905D01*
X15643D01*
Y14915D01*
Y14924D01*
X15652D01*
Y14934D01*
X15661D01*
Y14943D01*
X15671D01*
Y14953D01*
X15680D01*
Y14962D01*
X15690D01*
Y14971D01*
Y14981D01*
X15699D01*
Y14990D01*
X15709D01*
Y15000D01*
X15718D01*
Y15009D01*
X15727D01*
Y15019D01*
Y15028D01*
X15737D01*
Y15037D01*
X15746D01*
Y15047D01*
Y15056D01*
X15756D01*
Y15066D01*
Y15075D01*
X15765D01*
Y15084D01*
X15784D01*
Y15094D01*
X15793D01*
Y15103D01*
Y15113D01*
X15803D01*
Y15122D01*
X15793D01*
Y15132D01*
Y15141D01*
Y15150D01*
Y15160D01*
Y15169D01*
X15803D01*
Y15179D01*
Y15188D01*
Y15198D01*
X15812D01*
Y15207D01*
Y15216D01*
X15803D01*
Y15226D01*
X15793D01*
Y15235D01*
X15765D01*
Y15245D01*
X15746D01*
Y15254D01*
Y15264D01*
Y15273D01*
Y15282D01*
Y15292D01*
Y15301D01*
Y15311D01*
X15756D01*
Y15320D01*
Y15330D01*
Y15339D01*
Y15348D01*
Y15358D01*
X15765D01*
Y15367D01*
Y15377D01*
Y15386D01*
X15775D01*
Y15396D01*
Y15405D01*
X15784D01*
Y15414D01*
Y15424D01*
Y15433D01*
X15803D01*
Y15443D01*
X15850D01*
Y15452D01*
X15878D01*
Y15461D01*
X15897D01*
Y15471D01*
X15916D01*
Y15480D01*
X15935D01*
Y15490D01*
X15954D01*
Y15499D01*
X15963D01*
Y15509D01*
X15982D01*
Y15518D01*
Y15527D01*
X16010D01*
Y15537D01*
X16020D01*
Y15546D01*
X16029D01*
Y15556D01*
X16048D01*
Y15565D01*
X16067D01*
Y15575D01*
X16076D01*
Y15584D01*
X16095D01*
Y15593D01*
X16104D01*
Y15603D01*
X16123D01*
Y15612D01*
X16133D01*
Y15622D01*
X16152D01*
Y15631D01*
X16170D01*
Y15641D01*
X16180D01*
Y15650D01*
X16199D01*
Y15659D01*
X16218D01*
Y15669D01*
X16236D01*
Y15678D01*
X16246D01*
Y15688D01*
X16265D01*
Y15697D01*
X16274D01*
Y15707D01*
X16293D01*
Y15716D01*
X16302D01*
Y15725D01*
X16321D01*
Y15735D01*
X16340D01*
Y15744D01*
X16350D01*
Y15754D01*
X16368D01*
Y15763D01*
X16378D01*
Y15773D01*
X16397D01*
Y15782D01*
X16425D01*
Y15791D01*
X16434D01*
Y15801D01*
X16444D01*
Y15810D01*
X16463D01*
Y15820D01*
X16472D01*
Y15829D01*
X16500D01*
Y15839D01*
X16510D01*
Y15848D01*
X16529D01*
Y15857D01*
X16547D01*
Y15867D01*
X16566D01*
Y15876D01*
X16576D01*
Y15886D01*
X16595D01*
Y15895D01*
X16604D01*
Y15904D01*
X16623D01*
Y15914D01*
X16632D01*
Y15923D01*
X16651D01*
Y15933D01*
X16670D01*
Y15942D01*
X16689D01*
Y15952D01*
X16708D01*
Y15961D01*
X16727D01*
Y15970D01*
X16736D01*
Y15980D01*
X16755D01*
Y15989D01*
Y15999D01*
X16764D01*
Y15989D01*
X16774D01*
Y15999D01*
X16793D01*
Y16008D01*
X16802D01*
Y16018D01*
X16821D01*
Y16027D01*
X16830D01*
Y16036D01*
X16849D01*
Y16046D01*
X16868D01*
Y16055D01*
X16896D01*
Y16065D01*
X16906D01*
Y16074D01*
X16925D01*
Y16084D01*
X16943D01*
Y16093D01*
X16962D01*
Y16102D01*
X16981D01*
Y16112D01*
X16990D01*
Y16121D01*
X17009D01*
Y16131D01*
X17028D01*
Y16140D01*
X17047D01*
Y16150D01*
X17075D01*
Y16159D01*
X17094D01*
Y16168D01*
X17122D01*
Y16178D01*
X17132D01*
Y16187D01*
X17151D01*
Y16197D01*
X17170D01*
Y16206D01*
X17188D01*
Y16216D01*
X17207D01*
Y16225D01*
X17226D01*
Y16234D01*
X17245D01*
Y16244D01*
X17273D01*
Y16253D01*
X17292D01*
Y16263D01*
X17311D01*
Y16272D01*
X17330D01*
Y16281D01*
X17349D01*
Y16291D01*
X17358D01*
Y16300D01*
X17367D01*
Y16291D01*
X17377D01*
Y16300D01*
X17386D01*
Y16310D01*
X17415D01*
Y16319D01*
X17433D01*
Y16329D01*
X17462D01*
Y16338D01*
X17490D01*
Y16347D01*
X17518D01*
Y16357D01*
X17537D01*
Y16366D01*
X17556D01*
Y16376D01*
X17584D01*
Y16385D01*
X17603D01*
Y16395D01*
X17622D01*
Y16404D01*
X17641D01*
Y16413D01*
X17650D01*
Y16423D01*
X17679D01*
Y16432D01*
X17697D01*
Y16442D01*
X17716D01*
Y16451D01*
X17726D01*
Y16461D01*
X17735D01*
Y16470D01*
Y16479D01*
X17745D01*
Y16489D01*
Y16498D01*
Y16508D01*
X17735D01*
Y16517D01*
Y16527D01*
X17726D01*
Y16536D01*
X17631D01*
Y16527D01*
X17594D01*
Y16517D01*
X17547D01*
Y16508D01*
X17537D01*
Y16498D01*
X17528D01*
Y16508D01*
X17518D01*
Y16498D01*
X17490D01*
Y16489D01*
X17443D01*
Y16479D01*
X17396D01*
Y16470D01*
X17367D01*
Y16461D01*
X17320D01*
Y16451D01*
X17292D01*
Y16442D01*
X17245D01*
Y16432D01*
X17207D01*
Y16423D01*
X17160D01*
Y16413D01*
X17141D01*
Y16404D01*
X17113D01*
Y16395D01*
X17085D01*
Y16385D01*
X17047D01*
Y16376D01*
X17019D01*
Y16366D01*
X16981D01*
Y16357D01*
X16953D01*
Y16347D01*
X16915D01*
Y16338D01*
X16877D01*
Y16329D01*
X16849D01*
Y16319D01*
X16811D01*
Y16310D01*
X16793D01*
Y16300D01*
X16764D01*
Y16291D01*
X16736D01*
Y16281D01*
X16708D01*
Y16272D01*
X16679D01*
Y16263D01*
X16651D01*
Y16253D01*
X16613D01*
Y16244D01*
X16585D01*
Y16234D01*
X16547D01*
Y16225D01*
X16519D01*
Y16216D01*
X16491D01*
Y16206D01*
X16482D01*
Y16197D01*
X16453D01*
Y16187D01*
X16425D01*
Y16178D01*
X16387D01*
Y16168D01*
X16368D01*
Y16159D01*
X16331D01*
Y16150D01*
X16312D01*
Y16140D01*
X16274D01*
Y16131D01*
X16246D01*
Y16121D01*
X16208D01*
Y16112D01*
X16189D01*
Y16102D01*
X16170D01*
Y16093D01*
X16142D01*
Y16084D01*
X16123D01*
Y16074D01*
X16104D01*
Y16065D01*
X16067D01*
Y16055D01*
X16039D01*
Y16046D01*
X16020D01*
Y16036D01*
X15991D01*
Y16027D01*
X15963D01*
Y16018D01*
X15935D01*
Y16008D01*
X15925D01*
Y15999D01*
X15916D01*
Y16008D01*
X15907D01*
Y16018D01*
Y16027D01*
Y16036D01*
X15916D01*
Y16046D01*
X15925D01*
Y16055D01*
Y16065D01*
Y16074D01*
X15935D01*
Y16084D01*
Y16093D01*
Y16102D01*
Y16112D01*
Y16121D01*
Y16131D01*
Y16140D01*
X15925D01*
Y16150D01*
X15916D01*
Y16159D01*
X15907D01*
Y16168D01*
Y16178D01*
X15878D01*
Y16187D01*
Y16197D01*
Y16206D01*
Y16216D01*
X15907D01*
Y16225D01*
X15916D01*
Y16234D01*
X15935D01*
Y16244D01*
X15944D01*
Y16253D01*
X15963D01*
Y16263D01*
X15973D01*
Y16272D01*
X15991D01*
Y16281D01*
X16001D01*
Y16291D01*
X16020D01*
Y16300D01*
X16029D01*
Y16310D01*
X16039D01*
Y16319D01*
Y16329D01*
X16048D01*
Y16338D01*
Y16347D01*
X16057D01*
Y16357D01*
Y16366D01*
Y16376D01*
Y16385D01*
Y16395D01*
X16048D01*
Y16404D01*
X16039D01*
Y16413D01*
X16010D01*
Y16423D01*
X16001D01*
Y16413D01*
X15973D01*
Y16423D01*
Y16432D01*
X15982D01*
Y16442D01*
X15991D01*
Y16451D01*
X16010D01*
Y16461D01*
X16020D01*
Y16470D01*
X16039D01*
Y16479D01*
X16057D01*
Y16489D01*
X16067D01*
Y16498D01*
X16086D01*
Y16508D01*
X16095D01*
Y16517D01*
X16104D01*
Y16527D01*
X16123D01*
Y16536D01*
X16133D01*
Y16545D01*
X16152D01*
Y16555D01*
X16170D01*
Y16564D01*
X16180D01*
Y16574D01*
X16189D01*
Y16583D01*
X16208D01*
Y16593D01*
X16227D01*
Y16602D01*
X16236D01*
Y16611D01*
X16246D01*
Y16621D01*
X16255D01*
Y16630D01*
X16274D01*
Y16640D01*
X16293D01*
Y16649D01*
X16302D01*
Y16659D01*
X16331D01*
Y16668D01*
X16340D01*
Y16677D01*
X16359D01*
Y16687D01*
X16368D01*
Y16696D01*
X16387D01*
Y16706D01*
X16397D01*
Y16715D01*
X16416D01*
Y16724D01*
X16425D01*
Y16734D01*
X16444D01*
Y16743D01*
X16463D01*
Y16753D01*
X16472D01*
Y16762D01*
X16491D01*
Y16772D01*
X16510D01*
Y16781D01*
X16529D01*
Y16790D01*
X16547D01*
Y16800D01*
X16566D01*
Y16809D01*
X16585D01*
Y16819D01*
X16595D01*
Y16828D01*
X16623D01*
Y16838D01*
X16642D01*
Y16847D01*
X16661D01*
Y16856D01*
X16679D01*
Y16866D01*
X16708D01*
Y16875D01*
X16727D01*
Y16885D01*
X16745D01*
Y16894D01*
X16774D01*
Y16904D01*
X16783D01*
Y16913D01*
X16802D01*
Y16922D01*
X16821D01*
Y16932D01*
X16840D01*
Y16941D01*
X16859D01*
Y16951D01*
X16877D01*
Y16960D01*
X16906D01*
Y16970D01*
X16925D01*
Y16979D01*
X16943D01*
Y16988D01*
X16962D01*
Y16998D01*
X16981D01*
Y17007D01*
X17000D01*
Y17017D01*
X17019D01*
Y17026D01*
X17038D01*
Y17036D01*
X17056D01*
Y17045D01*
X17075D01*
Y17054D01*
X17104D01*
Y17064D01*
X17122D01*
Y17073D01*
X17141D01*
Y17083D01*
X17160D01*
Y17092D01*
X17179D01*
Y17102D01*
X17207D01*
Y17111D01*
X17217D01*
Y17120D01*
X17236D01*
Y17130D01*
X17254D01*
Y17139D01*
X17283D01*
Y17149D01*
X17302D01*
Y17158D01*
X17320D01*
Y17168D01*
X17339D01*
Y17177D01*
X17358D01*
Y17186D01*
X17386D01*
Y17196D01*
X17405D01*
Y17205D01*
Y17215D01*
X17415D01*
Y17205D01*
X17424D01*
Y17215D01*
X17433D01*
Y17224D01*
X17452D01*
Y17233D01*
X17471D01*
Y17243D01*
X17490D01*
Y17252D01*
X17509D01*
Y17262D01*
X17528D01*
Y17271D01*
X17547D01*
Y17281D01*
X17565D01*
Y17290D01*
X17594D01*
Y17299D01*
X17603D01*
Y17309D01*
X17622D01*
Y17318D01*
X17631D01*
Y17328D01*
X17641D01*
Y17337D01*
X17669D01*
Y17347D01*
X17688D01*
Y17356D01*
X17707D01*
Y17365D01*
X17726D01*
Y17375D01*
X17735D01*
Y17384D01*
X17754D01*
Y17394D01*
X17773D01*
Y17403D01*
X17792D01*
Y17413D01*
X17801D01*
Y17422D01*
X17810D01*
Y17431D01*
X17820D01*
Y17441D01*
X17829D01*
Y17450D01*
X17839D01*
Y17460D01*
Y17469D01*
Y17479D01*
Y17488D01*
Y17497D01*
Y17507D01*
X17829D01*
Y17516D01*
Y17526D01*
X17810D01*
Y17535D01*
X17792D01*
Y17526D01*
D02*
G37*
%LPC*%
G36*
X15416Y15725D02*
X15435D01*
Y15716D01*
Y15707D01*
X15426D01*
Y15697D01*
Y15688D01*
X15416D01*
Y15697D01*
X15407D01*
Y15688D01*
X15398D01*
Y15678D01*
X15388D01*
Y15669D01*
X15369D01*
Y15659D01*
X15350D01*
Y15650D01*
X15332D01*
Y15641D01*
X15313D01*
Y15631D01*
X15303D01*
Y15622D01*
X15284D01*
Y15612D01*
X15266D01*
Y15603D01*
X15247D01*
Y15593D01*
Y15584D01*
X15237D01*
Y15593D01*
X15228D01*
Y15584D01*
X15218D01*
Y15575D01*
X15200D01*
Y15565D01*
X15190D01*
Y15556D01*
X15171D01*
Y15546D01*
X15153D01*
Y15537D01*
X15134D01*
Y15527D01*
X15115D01*
Y15518D01*
X15096D01*
Y15509D01*
X15077D01*
Y15499D01*
X15058D01*
Y15490D01*
X15049D01*
Y15480D01*
X15021D01*
Y15471D01*
X14992D01*
Y15461D01*
X14973D01*
Y15452D01*
X14955D01*
Y15443D01*
X14926D01*
Y15433D01*
X14898D01*
Y15424D01*
X14879D01*
Y15414D01*
X14860D01*
Y15405D01*
X14832D01*
Y15396D01*
X14823D01*
Y15386D01*
X14804D01*
Y15377D01*
X14776D01*
Y15386D01*
Y15396D01*
X14785D01*
Y15405D01*
X14794D01*
Y15414D01*
X14813D01*
Y15424D01*
X14832D01*
Y15433D01*
X14851D01*
Y15443D01*
X14870D01*
Y15452D01*
X14879D01*
Y15461D01*
X14907D01*
Y15471D01*
X14917D01*
Y15480D01*
X14945D01*
Y15490D01*
X14964D01*
Y15499D01*
X14973D01*
Y15509D01*
X14992D01*
Y15518D01*
X15002D01*
Y15527D01*
X15030D01*
Y15537D01*
X15039D01*
Y15546D01*
X15068D01*
Y15556D01*
X15087D01*
Y15565D01*
X15105D01*
Y15575D01*
X15124D01*
Y15584D01*
X15143D01*
Y15593D01*
X15153D01*
Y15603D01*
X15181D01*
Y15612D01*
X15190D01*
Y15622D01*
X15218D01*
Y15631D01*
X15228D01*
Y15641D01*
X15256D01*
Y15650D01*
X15275D01*
Y15659D01*
X15294D01*
Y15669D01*
X15322D01*
Y15678D01*
X15341D01*
Y15688D01*
X15360D01*
Y15697D01*
X15369D01*
Y15707D01*
X15398D01*
Y15716D01*
X15416D01*
Y15725D01*
D02*
G37*
%LPD*%
D12*
X11750Y16930D02*
X12008D01*
X11614Y16437D02*
Y16794D01*
X11750Y16930D01*
X11614Y14370D02*
Y14863D01*
X12992Y14370D02*
X13386D01*
Y14863D01*
Y16437D02*
Y16930D01*
X12992D02*
X13386D01*
X11614Y14370D02*
X12008D01*
X18114D02*
X18508D01*
X19492Y16930D02*
X19886D01*
Y16437D02*
Y16930D01*
Y14370D02*
Y14863D01*
X19492Y14370D02*
X19886D01*
X18114D02*
Y14863D01*
Y16794D02*
X18250Y16930D01*
X18114Y16437D02*
Y16794D01*
X18250Y16930D02*
X18508D01*
D13*
X19047Y17574D02*
X19147D01*
X19097D01*
Y17324D01*
X19147Y17274D01*
X19197D01*
X19247Y17324D01*
X18797Y17274D02*
Y17574D01*
X18947Y17424D01*
X18747D01*
X12566Y17553D02*
X12666D01*
X12616D01*
Y17303D01*
X12666Y17253D01*
X12716D01*
X12766Y17303D01*
X12466Y17503D02*
X12416Y17553D01*
X12316D01*
X12266Y17503D01*
Y17453D01*
X12316Y17403D01*
X12366D01*
X12316D01*
X12266Y17353D01*
Y17303D01*
X12316Y17253D01*
X12416D01*
X12466Y17303D01*
D40*
X13775Y18974D02*
X14125D01*
Y18799D01*
X14067Y18741D01*
X14008D01*
X13950Y18799D01*
Y18974D01*
Y18799D01*
X13892Y18741D01*
X13833D01*
X13775Y18799D01*
Y18974D01*
X13892Y18566D02*
Y18449D01*
X13950Y18391D01*
X14125D01*
Y18566D01*
X14067Y18624D01*
X14008Y18566D01*
Y18391D01*
X13892Y18274D02*
X14125Y18041D01*
X14008Y18158D01*
X13892Y18041D01*
X14125Y18274D01*
X13892Y17866D02*
Y17749D01*
X13950Y17691D01*
X14125D01*
Y17866D01*
X14067Y17924D01*
X14008Y17866D01*
Y17691D01*
X14125Y17574D02*
X13892D01*
Y17399D01*
X13950Y17341D01*
X14125D01*
X13775Y16991D02*
X14125D01*
Y17166D01*
X14067Y17224D01*
X13950D01*
X13892Y17166D01*
Y16991D01*
Y16816D02*
Y16700D01*
X13950Y16641D01*
X14125D01*
Y16816D01*
X14067Y16875D01*
X14008Y16816D01*
Y16641D01*
X14125Y16525D02*
Y16408D01*
Y16466D01*
X13775D01*
Y16525D01*
X14125Y16233D02*
Y16117D01*
Y16175D01*
X13775D01*
Y16233D01*
Y15592D02*
Y15358D01*
Y15475D01*
X14125D01*
Y15183D02*
Y15067D01*
X14067Y15009D01*
X13950D01*
X13892Y15067D01*
Y15183D01*
X13950Y15242D01*
X14067D01*
X14125Y15183D01*
Y14892D02*
X13892D01*
Y14717D01*
X13950Y14659D01*
X14125D01*
Y14367D02*
Y14484D01*
X14067Y14542D01*
X13950D01*
X13892Y14484D01*
Y14367D01*
X13950Y14309D01*
X14008D01*
Y14542D01*
X13833Y13609D02*
X13775Y13667D01*
Y13784D01*
X13833Y13842D01*
X13892D01*
X13950Y13784D01*
Y13667D01*
X14008Y13609D01*
X14067D01*
X14125Y13667D01*
Y13784D01*
X14067Y13842D01*
X13833Y13434D02*
X13892D01*
Y13492D01*
Y13376D01*
Y13434D01*
X14067D01*
X14125Y13376D01*
X13892Y13142D02*
Y13026D01*
X13950Y12968D01*
X14125D01*
Y13142D01*
X14067Y13201D01*
X14008Y13142D01*
Y12968D01*
X13892Y12618D02*
Y12793D01*
X13950Y12851D01*
X14067D01*
X14125Y12793D01*
Y12618D01*
Y12501D02*
X13775D01*
X14008D02*
X13892Y12326D01*
X14008Y12501D02*
X14125Y12326D01*
M02*
