M48
;Layer_Color=9474304
;FILE_FORMAT=2:4
INCH,TZ
;TYPE=PLATED
T1F00S00C0.0100
T2F00S00C0.0394
;TYPE=NON_PLATED
T3F00S00C0.0236
T4F00S00C0.0787
%
T01
X12000Y11200
X12600
X13269Y11150
X14350
X14940Y11890
X15300Y13000
X15600Y13600
Y14800
X15000
X14400
X13800
X13200
X12600
X12000
X11400Y13600
X11100Y13000
X11500Y12600
Y12300
X10800Y12400
X12650Y13350
X12900Y13100
X12914Y13614
X14200Y13700
Y13400
Y13097
X16031Y13969
X16200Y14800
X16800
X17400
X18000
X18600
X19200
X20100Y14200
X20400Y13600
X21000
X21600
X21900Y14200
X21300
Y13000
X21900
X21600Y12400
X21000
X20400
X19800
X19200
X18600
X18000
Y11200
X18600
X19200
X20100Y11800
X20700
X21300
X21900
X20700Y13000
X20100
X19800Y13600
X17000Y13190
Y12610
X17100Y11800
X17000Y11519
X16001Y11900
T02
X20831Y11400
X20595Y14400
T03
X12209Y11896
Y13904
T04
X10900Y11400
Y14400
M30
