G04 Layer_Color=8388736*
%FSLAX24Y24*%
%MOIN*%
G70*
G01*
G75*
%ADD25R,0.0434X0.0316*%
%ADD26R,0.0612X0.0454*%
%ADD27R,0.0651X0.0533*%
%ADD28R,0.0454X0.0612*%
%ADD29R,0.0651X0.0316*%
%ADD30R,0.0789X0.0552*%
%ADD31R,0.0690X0.0316*%
D25*
X9547Y3750D02*
D03*
X10453Y4124D02*
D03*
Y3376D02*
D03*
D26*
X5250Y3136D02*
D03*
Y3864D02*
D03*
Y1864D02*
D03*
Y1136D02*
D03*
X4250Y3136D02*
D03*
Y3864D02*
D03*
Y1136D02*
D03*
Y1864D02*
D03*
X11750Y1136D02*
D03*
Y1864D02*
D03*
X10750Y1136D02*
D03*
Y1864D02*
D03*
D27*
X3250Y3815D02*
D03*
Y3185D02*
D03*
Y1815D02*
D03*
Y1185D02*
D03*
X9750Y1185D02*
D03*
Y1815D02*
D03*
X11750Y3815D02*
D03*
Y3185D02*
D03*
D28*
X7136Y750D02*
D03*
X7864D02*
D03*
D29*
X6427Y3250D02*
D03*
Y2750D02*
D03*
Y2250D02*
D03*
Y1750D02*
D03*
X8573Y3250D02*
D03*
Y2750D02*
D03*
Y2250D02*
D03*
Y1750D02*
D03*
D30*
X14276Y3603D02*
D03*
Y1398D02*
D03*
X724Y1397D02*
D03*
Y3602D02*
D03*
D31*
X12750Y1910D02*
D03*
Y2304D02*
D03*
Y2697D02*
D03*
Y3091D02*
D03*
X2250Y3090D02*
D03*
Y2696D02*
D03*
Y2303D02*
D03*
Y1909D02*
D03*
M02*
