G04*
G04 #@! TF.GenerationSoftware,Altium Limited,Altium Designer,18.1.7 (191)*
G04*
G04 Layer_Physical_Order=3*
G04 Layer_Color=128*
%FSLAX24Y24*%
%MOIN*%
G70*
G01*
G75*
%ADD26C,0.0120*%
%ADD37C,0.0400*%
%ADD38C,0.0594*%
%ADD39C,0.0436*%
%ADD40C,0.0987*%
%ADD41C,0.0300*%
D26*
X10000Y10500D02*
Y14300D01*
Y10500D02*
X13000D01*
Y12200D01*
X11800D02*
X13000D01*
X11800D02*
Y14300D01*
X10000D02*
X11800D01*
D37*
X10000Y10500D02*
Y16100D01*
X21000D01*
Y10500D02*
Y16100D01*
X10000Y10500D02*
X21000D01*
D38*
X19095Y14800D02*
D03*
X19332Y11800D02*
D03*
D39*
X10709Y14304D02*
D03*
Y12296D02*
D03*
D40*
X16500Y11200D02*
D03*
Y15400D02*
D03*
X10700D02*
D03*
Y11200D02*
D03*
D41*
X17700Y15600D02*
D03*
X17100D02*
D03*
X15900D02*
D03*
X15300D02*
D03*
X14700D02*
D03*
X14100D02*
D03*
X13500D02*
D03*
X12900D02*
D03*
X12300D02*
D03*
X11700D02*
D03*
X20400Y10900D02*
D03*
X19800D02*
D03*
X19200D02*
D03*
X18600D02*
D03*
X18000D02*
D03*
X17400D02*
D03*
X15600D02*
D03*
X15000D02*
D03*
X14400D02*
D03*
X13800D02*
D03*
X13200D02*
D03*
X12600D02*
D03*
X12000D02*
D03*
X11400D02*
D03*
X20400Y14500D02*
D03*
Y13300D02*
D03*
Y12100D02*
D03*
X19800Y14500D02*
D03*
X20100Y13900D02*
D03*
X19800Y13300D02*
D03*
X20100Y12700D02*
D03*
X19800Y12100D02*
D03*
X19500Y13900D02*
D03*
X19200Y13300D02*
D03*
X19500Y12700D02*
D03*
X18600Y14500D02*
D03*
X18900Y13900D02*
D03*
X18600Y13300D02*
D03*
X18900Y12700D02*
D03*
X18600Y12100D02*
D03*
X15350Y13600D02*
D03*
X11619Y15100D02*
D03*
X11100Y13500D02*
D03*
Y13800D02*
D03*
X11300Y13300D02*
D03*
X16000Y13300D02*
D03*
X14381Y14323D02*
D03*
X14170Y12630D02*
D03*
X13300Y11500D02*
D03*
X14351Y12300D02*
D03*
M02*
