G04*
G04 #@! TF.GenerationSoftware,Altium Limited,Altium Designer,18.1.7 (191)*
G04*
G04 Layer_Physical_Order=4*
G04 Layer_Color=16711680*
%FSLAX24Y24*%
%MOIN*%
G70*
G01*
G75*
%ADD11C,0.0100*%
%ADD22C,0.0394*%
%ADD23C,0.0236*%
%ADD26C,0.0120*%
%ADD35C,0.0787*%
%ADD36C,0.0200*%
%ADD42R,0.0630X0.0118*%
%ADD43R,0.0709X0.0315*%
G36*
X10579Y15852D02*
X10466Y15805D01*
X10369Y15731D01*
X10295Y15634D01*
X10248Y15521D01*
X10200Y15530D01*
Y15900D01*
X10570D01*
X10579Y15852D01*
D02*
G37*
G36*
X11693Y15168D02*
X11697Y15166D01*
X11701Y15165D01*
X11707Y15164D01*
X11713Y15163D01*
X11729Y15161D01*
X11748Y15160D01*
X11759Y15160D01*
Y15040D01*
X11748Y15040D01*
X11713Y15037D01*
X11707Y15036D01*
X11701Y15035D01*
X11697Y15034D01*
X11693Y15032D01*
X11691Y15030D01*
Y15170D01*
X11693Y15168D01*
D02*
G37*
G36*
X20800Y10700D02*
X16630D01*
X16621Y10748D01*
X16734Y10795D01*
X16831Y10869D01*
X16905Y10966D01*
X16952Y11079D01*
X16968Y11200D01*
X16952Y11321D01*
X16905Y11434D01*
X16831Y11531D01*
X16734Y11605D01*
X16621Y11652D01*
X16500Y11668D01*
X16379Y11652D01*
X16266Y11605D01*
X16169Y11531D01*
X16095Y11434D01*
X16048Y11321D01*
X16032Y11200D01*
X16048Y11079D01*
X16095Y10966D01*
X16169Y10869D01*
X16266Y10795D01*
X16379Y10748D01*
X16370Y10700D01*
X10830D01*
X10821Y10748D01*
X10934Y10795D01*
X11031Y10869D01*
X11105Y10966D01*
X11152Y11079D01*
X11168Y11200D01*
X11152Y11321D01*
X11105Y11434D01*
X11031Y11531D01*
X10934Y11605D01*
X10821Y11652D01*
X10700Y11668D01*
X10579Y11652D01*
X10466Y11605D01*
X10369Y11531D01*
X10295Y11434D01*
X10248Y11321D01*
X10200Y11330D01*
Y12429D01*
X10519D01*
X10542Y12385D01*
X10532Y12369D01*
X10518Y12296D01*
X10532Y12223D01*
X10574Y12160D01*
X10636Y12119D01*
X10709Y12104D01*
X10783Y12119D01*
X10826Y12147D01*
X10876Y12123D01*
Y11793D01*
X11724D01*
Y12248D01*
X10931D01*
X10899Y12287D01*
X10901Y12296D01*
X10887Y12369D01*
X10877Y12385D01*
X10900Y12429D01*
X11350D01*
X11377Y12434D01*
X11400Y12450D01*
X11416Y12473D01*
X11421Y12500D01*
X11421Y13107D01*
X11421Y13111D01*
X11421Y13114D01*
X11420Y13117D01*
X11431Y13143D01*
X11444Y13160D01*
X11451Y13166D01*
X11453Y13167D01*
X11624D01*
Y12974D01*
Y12580D01*
X11991D01*
X12009Y12577D01*
X12367D01*
Y11594D01*
X12366D01*
X12383Y11506D01*
X12432Y11432D01*
X12506Y11383D01*
X12594Y11366D01*
Y11367D01*
X13190D01*
X13193Y11367D01*
X13234Y11340D01*
X13300Y11327D01*
X13366Y11340D01*
X13423Y11377D01*
X13460Y11434D01*
X13473Y11500D01*
X13460Y11566D01*
X13423Y11623D01*
X13366Y11660D01*
X13300Y11673D01*
X13234Y11660D01*
X13193Y11633D01*
X13185Y11633D01*
X12633D01*
Y12175D01*
X12683Y12202D01*
X12710Y12183D01*
X12800Y12165D01*
Y12167D01*
X14240D01*
X14243Y12167D01*
X14284Y12140D01*
X14351Y12127D01*
X14417Y12140D01*
X14457Y12167D01*
X14466Y12167D01*
X15800D01*
Y12167D01*
X15886Y12178D01*
X15966Y12212D01*
X16035Y12265D01*
X16088Y12334D01*
X16122Y12414D01*
X16133Y12500D01*
X16133D01*
Y13190D01*
X16133Y13193D01*
X16160Y13234D01*
X16173Y13300D01*
X16160Y13366D01*
X16123Y13423D01*
X16066Y13460D01*
X16000Y13473D01*
X15934Y13460D01*
X15877Y13423D01*
X15840Y13366D01*
X15827Y13300D01*
X15840Y13234D01*
X15867Y13193D01*
X15867Y13185D01*
Y12500D01*
X15866D01*
X15861Y12475D01*
X15847Y12453D01*
X15825Y12439D01*
X15800Y12434D01*
Y12433D01*
X14461D01*
X14458Y12433D01*
X14417Y12460D01*
X14384Y12467D01*
X14379Y12486D01*
X14379Y12519D01*
X14447Y12564D01*
X14497Y12640D01*
X14515Y12729D01*
X14513D01*
Y14213D01*
X14513Y14216D01*
X14541Y14257D01*
X14554Y14323D01*
X14541Y14390D01*
X14503Y14446D01*
X14447Y14484D01*
X14381Y14497D01*
X14314Y14484D01*
X14258Y14446D01*
X14220Y14390D01*
X14207Y14323D01*
X14220Y14257D01*
X14247Y14217D01*
X14248Y14208D01*
Y12838D01*
X14198Y12798D01*
X14170Y12803D01*
X14104Y12790D01*
X14047Y12753D01*
X14010Y12696D01*
X13997Y12630D01*
X14010Y12564D01*
X14047Y12507D01*
X14085Y12483D01*
X14070Y12433D01*
X12833D01*
Y12800D01*
X12835D01*
X12816Y12892D01*
X12790Y12931D01*
X12790Y12941D01*
X12811Y12991D01*
X12868Y13015D01*
X12936Y13067D01*
X12989Y13135D01*
X13022Y13215D01*
X13033Y13300D01*
X13033D01*
Y14900D01*
X13033D01*
X13022Y14986D01*
X12988Y15066D01*
X12935Y15135D01*
X12866Y15188D01*
X12786Y15222D01*
X12700Y15233D01*
Y15233D01*
X11730D01*
X11727Y15233D01*
X11686Y15260D01*
X11619Y15273D01*
X11553Y15260D01*
X11497Y15223D01*
X11459Y15166D01*
X11446Y15100D01*
X11459Y15034D01*
X11497Y14977D01*
X11553Y14940D01*
X11619Y14927D01*
X11686Y14940D01*
X11726Y14967D01*
X11735Y14967D01*
X12700D01*
Y14966D01*
X12725Y14961D01*
X12747Y14947D01*
X12761Y14925D01*
X12766Y14900D01*
X12767D01*
Y14345D01*
X12741Y14332D01*
X12717Y14326D01*
X12666Y14360D01*
X12600Y14373D01*
X12534Y14360D01*
X12477Y14323D01*
X12440Y14266D01*
X12427Y14200D01*
X12440Y14134D01*
X12477Y14077D01*
X12514Y14053D01*
Y13997D01*
X12477Y13973D01*
X12470Y13962D01*
X12403Y13951D01*
X12394Y13959D01*
Y14020D01*
X11624D01*
Y13762D01*
Y13433D01*
X11410D01*
X11407Y13433D01*
X11366Y13460D01*
X11300Y13473D01*
X11234Y13460D01*
X11177Y13423D01*
X11140Y13366D01*
X11127Y13300D01*
X11131Y13280D01*
X11099Y13241D01*
X10200Y13241D01*
Y15270D01*
X10248Y15279D01*
X10295Y15166D01*
X10369Y15069D01*
X10466Y14995D01*
X10579Y14948D01*
X10700Y14932D01*
X10821Y14948D01*
X10934Y14995D01*
X11031Y15069D01*
X11105Y15166D01*
X11152Y15279D01*
X11168Y15400D01*
X11152Y15521D01*
X11105Y15634D01*
X11031Y15731D01*
X10934Y15805D01*
X10821Y15852D01*
X10830Y15900D01*
X16370D01*
X16379Y15852D01*
X16266Y15805D01*
X16169Y15731D01*
X16095Y15634D01*
X16048Y15521D01*
X16032Y15400D01*
X16048Y15279D01*
X16095Y15166D01*
X16169Y15069D01*
X16266Y14995D01*
X16379Y14948D01*
X16500Y14932D01*
X16621Y14948D01*
X16734Y14995D01*
X16831Y15069D01*
X16905Y15166D01*
X16952Y15279D01*
X16968Y15400D01*
X16952Y15521D01*
X16905Y15634D01*
X16831Y15731D01*
X16734Y15805D01*
X16621Y15852D01*
X16630Y15900D01*
X20800D01*
Y10700D01*
D02*
G37*
G36*
X14449Y14250D02*
X14447Y14246D01*
X14445Y14242D01*
X14444Y14236D01*
X14443Y14230D01*
X14441Y14214D01*
X14441Y14195D01*
X14441Y14183D01*
X14321D01*
X14320Y14195D01*
X14318Y14230D01*
X14317Y14236D01*
X14316Y14242D01*
X14314Y14246D01*
X14312Y14250D01*
X14311Y14252D01*
X14451D01*
X14449Y14250D01*
D02*
G37*
G36*
X12638Y14293D02*
X12678Y14267D01*
X12679Y14266D01*
X12681Y14265D01*
X12692Y14261D01*
X12704Y14256D01*
X12705D01*
X12707Y14255D01*
X12717Y14256D01*
X12732Y14255D01*
X12742Y14247D01*
X12767Y14213D01*
Y13487D01*
X12742Y13453D01*
X12732Y13445D01*
X12717Y13444D01*
X12707Y13445D01*
X12705Y13444D01*
X12704D01*
X12692Y13439D01*
X12681Y13435D01*
X12679Y13434D01*
X12678Y13433D01*
X12638Y13407D01*
X12600Y13399D01*
X12562Y13407D01*
X12528Y13429D01*
X12528Y13430D01*
X12519Y13439D01*
X12510Y13448D01*
X12509Y13448D01*
X12507Y13449D01*
X12496Y13453D01*
X12484Y13458D01*
X12483D01*
X12481Y13459D01*
X12414Y13469D01*
X12413Y13469D01*
X12411Y13470D01*
X12399Y13469D01*
X12386Y13468D01*
X12385Y13467D01*
X12383Y13467D01*
X12372Y13462D01*
X12361Y13456D01*
X12360Y13455D01*
X12359Y13455D01*
X12349Y13447D01*
X12347Y13444D01*
X12343Y13442D01*
X12338Y13433D01*
X12334Y13429D01*
X12026D01*
X12009Y13433D01*
X11695D01*
Y13948D01*
X12324D01*
X12326Y13941D01*
X12328Y13932D01*
X12330Y13928D01*
X12331Y13924D01*
X12338Y13917D01*
X12343Y13908D01*
X12347Y13906D01*
X12349Y13903D01*
X12359Y13895D01*
X12360Y13895D01*
X12361Y13894D01*
X12372Y13888D01*
X12383Y13883D01*
X12385Y13883D01*
X12386Y13882D01*
X12399Y13881D01*
X12411Y13880D01*
X12413Y13881D01*
X12414Y13881D01*
X12481Y13891D01*
X12483Y13892D01*
X12484D01*
X12496Y13897D01*
X12507Y13901D01*
X12509Y13902D01*
X12510Y13902D01*
X12519Y13911D01*
X12528Y13920D01*
X12528Y13921D01*
X12553Y13937D01*
X12558Y13942D01*
X12564Y13946D01*
X12568Y13952D01*
X12573Y13957D01*
X12576Y13964D01*
X12580Y13969D01*
X12581Y13976D01*
X12584Y13983D01*
Y13990D01*
X12585Y13997D01*
Y14053D01*
X12584Y14060D01*
Y14067D01*
X12581Y14074D01*
X12580Y14081D01*
X12576Y14086D01*
X12573Y14093D01*
X12568Y14098D01*
X12564Y14104D01*
X12558Y14108D01*
X12553Y14113D01*
X12529Y14129D01*
X12507Y14162D01*
X12499Y14200D01*
X12507Y14238D01*
X12529Y14271D01*
X12562Y14293D01*
X12600Y14301D01*
X12638Y14293D01*
D02*
G37*
G36*
X12470Y13388D02*
X12477Y13377D01*
X12534Y13340D01*
X12600Y13327D01*
X12666Y13340D01*
X12717Y13374D01*
X12741Y13368D01*
X12767Y13355D01*
Y13300D01*
X12766D01*
X12761Y13276D01*
X12748Y13255D01*
X12727Y13242D01*
X12703Y13237D01*
Y13236D01*
X12394D01*
Y13391D01*
X12403Y13399D01*
X12470Y13388D01*
D02*
G37*
G36*
X11374Y13368D02*
X11377Y13366D01*
X11382Y13365D01*
X11387Y13364D01*
X11393Y13362D01*
X11409Y13361D01*
X11429Y13360D01*
X11440Y13360D01*
Y13240D01*
X11429Y13240D01*
X11393Y13238D01*
X11387Y13236D01*
X11382Y13235D01*
X11377Y13234D01*
X11374Y13232D01*
X11371Y13230D01*
Y13370D01*
X11374Y13368D01*
D02*
G37*
G36*
X16068Y13226D02*
X16066Y13223D01*
X16065Y13218D01*
X16064Y13213D01*
X16063Y13207D01*
X16061Y13191D01*
X16060Y13171D01*
X16060Y13160D01*
X15940D01*
X15940Y13171D01*
X15938Y13207D01*
X15936Y13213D01*
X15935Y13218D01*
X15934Y13223D01*
X15932Y13226D01*
X15930Y13229D01*
X16070D01*
X16068Y13226D01*
D02*
G37*
G36*
X11238Y13149D02*
X11300Y13137D01*
X11311Y13139D01*
X11350Y13107D01*
X11350Y12500D01*
X10797D01*
X10795Y12502D01*
X10709Y12518D01*
X10624Y12502D01*
X10622Y12500D01*
X10200D01*
X10200Y13170D01*
X11207Y13170D01*
X11238Y13149D01*
D02*
G37*
G36*
X14424Y12368D02*
X14428Y12366D01*
X14432Y12365D01*
X14438Y12364D01*
X14444Y12363D01*
X14460Y12361D01*
X14479Y12360D01*
X14491Y12360D01*
Y12240D01*
X14479Y12240D01*
X14444Y12237D01*
X14438Y12236D01*
X14432Y12235D01*
X14428Y12234D01*
X14424Y12232D01*
X14422Y12230D01*
Y12370D01*
X14424Y12368D01*
D02*
G37*
G36*
X14279Y12230D02*
X14277Y12232D01*
X14273Y12234D01*
X14269Y12235D01*
X14263Y12236D01*
X14257Y12237D01*
X14241Y12239D01*
X14222Y12240D01*
X14211Y12240D01*
Y12360D01*
X14222Y12360D01*
X14257Y12363D01*
X14263Y12364D01*
X14269Y12365D01*
X14273Y12366D01*
X14277Y12368D01*
X14279Y12370D01*
Y12230D01*
D02*
G37*
G36*
X13229Y11430D02*
X13226Y11432D01*
X13223Y11434D01*
X13218Y11435D01*
X13213Y11436D01*
X13207Y11437D01*
X13191Y11439D01*
X13171Y11440D01*
X13160Y11440D01*
Y11560D01*
X13171Y11560D01*
X13207Y11562D01*
X13213Y11564D01*
X13218Y11565D01*
X13223Y11566D01*
X13226Y11568D01*
X13229Y11570D01*
Y11430D01*
D02*
G37*
G36*
X10295Y10966D02*
X10369Y10869D01*
X10466Y10795D01*
X10579Y10748D01*
X10570Y10700D01*
X10200D01*
Y11070D01*
X10248Y11079D01*
X10295Y10966D01*
D02*
G37*
%LPC*%
G36*
X19095Y15069D02*
X19026Y15060D01*
X18961Y15033D01*
X18905Y14990D01*
X18862Y14935D01*
X18835Y14870D01*
X18826Y14800D01*
X18835Y14730D01*
X18862Y14665D01*
X18905Y14610D01*
X18961Y14567D01*
X19026Y14540D01*
X19095Y14531D01*
X19165Y14540D01*
X19230Y14567D01*
X19286Y14610D01*
X19328Y14665D01*
X19355Y14730D01*
X19364Y14800D01*
X19355Y14870D01*
X19328Y14935D01*
X19286Y14990D01*
X19230Y15033D01*
X19165Y15060D01*
X19095Y15069D01*
D02*
G37*
G36*
X11724Y14807D02*
X10876D01*
Y14477D01*
X10826Y14453D01*
X10783Y14481D01*
X10709Y14496D01*
X10636Y14481D01*
X10574Y14440D01*
X10532Y14377D01*
X10518Y14304D01*
X10532Y14231D01*
X10574Y14168D01*
X10636Y14127D01*
X10709Y14112D01*
X10783Y14127D01*
X10845Y14168D01*
X10887Y14231D01*
X10901Y14304D01*
X10899Y14313D01*
X10931Y14352D01*
X11724D01*
Y14807D01*
D02*
G37*
G36*
X11300Y14173D02*
X11234Y14160D01*
X11177Y14123D01*
X11140Y14066D01*
X11127Y14000D01*
X11140Y13934D01*
X11177Y13877D01*
X11234Y13840D01*
X11300Y13827D01*
X11366Y13840D01*
X11423Y13877D01*
X11460Y13934D01*
X11473Y14000D01*
X11460Y14066D01*
X11423Y14123D01*
X11366Y14160D01*
X11300Y14173D01*
D02*
G37*
G36*
X15350Y13173D02*
X15284Y13160D01*
X15227Y13123D01*
X15190Y13066D01*
X15177Y13000D01*
X15190Y12934D01*
X15227Y12877D01*
X15284Y12840D01*
X15350Y12827D01*
X15416Y12840D01*
X15473Y12877D01*
X15510Y12934D01*
X15523Y13000D01*
X15510Y13066D01*
X15473Y13123D01*
X15416Y13160D01*
X15350Y13173D01*
D02*
G37*
G36*
X19332Y12069D02*
X19262Y12060D01*
X19197Y12033D01*
X19141Y11990D01*
X19098Y11935D01*
X19072Y11870D01*
X19062Y11800D01*
X19072Y11730D01*
X19098Y11665D01*
X19141Y11610D01*
X19197Y11567D01*
X19262Y11540D01*
X19332Y11531D01*
X19401Y11540D01*
X19466Y11567D01*
X19522Y11610D01*
X19565Y11665D01*
X19591Y11730D01*
X19601Y11800D01*
X19591Y11870D01*
X19565Y11935D01*
X19522Y11990D01*
X19466Y12033D01*
X19401Y12060D01*
X19332Y12069D01*
D02*
G37*
G36*
X11619Y11693D02*
X11553Y11680D01*
X11497Y11642D01*
X11459Y11586D01*
X11446Y11519D01*
X11459Y11453D01*
X11497Y11397D01*
X11553Y11359D01*
X11619Y11346D01*
X11686Y11359D01*
X11742Y11397D01*
X11780Y11453D01*
X11793Y11519D01*
X11780Y11586D01*
X11742Y11642D01*
X11686Y11680D01*
X11619Y11693D01*
D02*
G37*
G36*
X12200Y11473D02*
X12134Y11460D01*
X12077Y11423D01*
X12040Y11366D01*
X12027Y11300D01*
X12040Y11234D01*
X12077Y11177D01*
X12134Y11140D01*
X12200Y11127D01*
X12266Y11140D01*
X12323Y11177D01*
X12360Y11234D01*
X12373Y11300D01*
X12360Y11366D01*
X12323Y11423D01*
X12266Y11460D01*
X12200Y11473D01*
D02*
G37*
%LPD*%
D11*
X11600Y11500D02*
G03*
X11619Y11519I0J19D01*
G01*
X14170Y12630D02*
G03*
X14200Y12600I30J0D01*
G01*
D22*
X19095Y14800D02*
D03*
X19332Y11800D02*
D03*
D23*
X10709Y14304D02*
D03*
Y12296D02*
D03*
D26*
X12900Y14900D02*
G03*
X12700Y15100I-200J0D01*
G01*
X12703Y13103D02*
G03*
X12900Y13300I0J197D01*
G01*
X15800Y12300D02*
G03*
X16000Y12500I0J200D01*
G01*
X14282Y12630D02*
G03*
X14381Y12729I0J99D01*
G01*
X12500Y12600D02*
G03*
X12391Y12709I-109J0D01*
G01*
X12500Y11594D02*
G03*
X12594Y11500I94J0D01*
G01*
X12700Y12400D02*
G03*
X12800Y12300I100J0D01*
G01*
X12700Y12800D02*
G03*
X12594Y12906I-106J0D01*
G01*
X11619Y15100D02*
X12700D01*
X12900Y13300D02*
Y14900D01*
X12009Y13103D02*
X12703D01*
X11300Y13300D02*
X12009D01*
X12800Y12300D02*
X14351D01*
X15800D01*
X16000Y12500D02*
Y13300D01*
X14170Y12630D02*
X14282D01*
X14381Y12729D02*
Y14323D01*
X12009Y12709D02*
X12391D01*
X12594Y11500D02*
X13300D01*
X12500Y11594D02*
Y12600D01*
X12009Y12906D02*
X12594D01*
X12700Y12400D02*
Y12800D01*
D35*
X16500Y11200D02*
D03*
Y15400D02*
D03*
X10700D02*
D03*
Y11200D02*
D03*
D36*
X11619Y11519D02*
D03*
X12200Y11300D02*
D03*
X17700Y15600D02*
D03*
X17100D02*
D03*
X15900D02*
D03*
X15300D02*
D03*
X14700D02*
D03*
X14100D02*
D03*
X13500D02*
D03*
X12900D02*
D03*
X12300D02*
D03*
X11700D02*
D03*
X20400Y10900D02*
D03*
X19800D02*
D03*
X19200D02*
D03*
X18600D02*
D03*
X18000D02*
D03*
X17400D02*
D03*
X15600D02*
D03*
X15000D02*
D03*
X14400D02*
D03*
X13800D02*
D03*
X13200D02*
D03*
X12600D02*
D03*
X12000D02*
D03*
X11400D02*
D03*
X20400Y14500D02*
D03*
Y13300D02*
D03*
Y12100D02*
D03*
X19800Y14500D02*
D03*
X20100Y13900D02*
D03*
X19800Y13300D02*
D03*
X20100Y12700D02*
D03*
X19800Y12100D02*
D03*
X19500Y13900D02*
D03*
X19200Y13300D02*
D03*
X19500Y12700D02*
D03*
X18600Y14500D02*
D03*
X18900Y13900D02*
D03*
X18600Y13300D02*
D03*
X18900Y12700D02*
D03*
X18600Y12100D02*
D03*
X12600Y13500D02*
D03*
Y13850D02*
D03*
Y14200D02*
D03*
X15350Y13000D02*
D03*
Y13600D02*
D03*
X11619Y15100D02*
D03*
X11100Y13000D02*
D03*
Y13500D02*
D03*
Y13800D02*
D03*
X11300Y14000D02*
D03*
X11100Y12700D02*
D03*
X11300Y13300D02*
D03*
X16000Y13300D02*
D03*
X14381Y14323D02*
D03*
X14170Y12630D02*
D03*
X13300Y11500D02*
D03*
X14351Y12300D02*
D03*
D42*
X12009Y13891D02*
D03*
Y13497D02*
D03*
Y13694D02*
D03*
Y13103D02*
D03*
Y13300D02*
D03*
Y12709D02*
D03*
Y12906D02*
D03*
X10591Y13694D02*
D03*
Y13891D02*
D03*
Y13300D02*
D03*
Y13497D02*
D03*
Y13103D02*
D03*
Y12709D02*
D03*
Y12906D02*
D03*
D43*
X11300Y14580D02*
D03*
Y12020D02*
D03*
M02*
