G04*
G04 #@! TF.GenerationSoftware,Altium Limited,Altium Designer,18.1.7 (191)*
G04*
G04 Layer_Physical_Order=2*
G04 Layer_Color=16711680*
%FSLAX24Y24*%
%MOIN*%
G70*
G01*
G75*
%ADD11C,0.0100*%
%ADD22C,0.0394*%
%ADD23C,0.0236*%
%ADD25C,0.0120*%
%ADD35C,0.0787*%
%ADD36C,0.0200*%
%ADD37C,0.0240*%
%ADD38R,0.0630X0.0118*%
%ADD39R,0.0709X0.0315*%
G36*
X11693Y15268D02*
X11697Y15266D01*
X11701Y15265D01*
X11707Y15264D01*
X11713Y15263D01*
X11729Y15261D01*
X11748Y15260D01*
X11759Y15260D01*
Y15140D01*
X11748Y15140D01*
X11713Y15137D01*
X11707Y15136D01*
X11701Y15135D01*
X11697Y15134D01*
X11693Y15132D01*
X11691Y15130D01*
Y15270D01*
X11693Y15268D01*
D02*
G37*
G36*
X14449Y14250D02*
X14447Y14246D01*
X14445Y14242D01*
X14444Y14236D01*
X14443Y14230D01*
X14441Y14214D01*
X14441Y14195D01*
X14441Y14183D01*
X14321D01*
X14320Y14195D01*
X14318Y14230D01*
X14317Y14236D01*
X14316Y14242D01*
X14314Y14246D01*
X14312Y14250D01*
X14311Y14252D01*
X14451D01*
X14449Y14250D01*
D02*
G37*
G36*
X12330Y13430D02*
X12021Y13430D01*
X12009Y13433D01*
X11410D01*
X11407Y13433D01*
X11366Y13460D01*
X11300Y13473D01*
X11234Y13460D01*
X11225Y13455D01*
X11150Y13530D01*
X11150Y13850D01*
X11250Y13950D01*
X12330Y13950D01*
Y13430D01*
D02*
G37*
G36*
X11374Y13368D02*
X11377Y13366D01*
X11382Y13365D01*
X11387Y13364D01*
X11393Y13362D01*
X11409Y13361D01*
X11429Y13360D01*
X11440Y13360D01*
Y13240D01*
X11429Y13240D01*
X11393Y13238D01*
X11387Y13236D01*
X11382Y13235D01*
X11377Y13234D01*
X11374Y13232D01*
X11371Y13230D01*
Y13370D01*
X11374Y13368D01*
D02*
G37*
G36*
X16068Y13226D02*
X16066Y13223D01*
X16065Y13218D01*
X16064Y13213D01*
X16063Y13207D01*
X16061Y13191D01*
X16060Y13171D01*
X16060Y13160D01*
X15940D01*
X15940Y13171D01*
X15938Y13207D01*
X15936Y13213D01*
X15935Y13218D01*
X15934Y13223D01*
X15932Y13226D01*
X15930Y13229D01*
X16070D01*
X16068Y13226D01*
D02*
G37*
G36*
X11238Y13149D02*
X11279Y13141D01*
X11350Y13070D01*
Y12750D01*
X11250Y12650D01*
X10270Y12650D01*
Y13170D01*
X11207D01*
X11238Y13149D01*
D02*
G37*
G36*
X14424Y12368D02*
X14428Y12366D01*
X14432Y12365D01*
X14438Y12364D01*
X14444Y12363D01*
X14460Y12361D01*
X14479Y12360D01*
X14491Y12360D01*
Y12240D01*
X14479Y12240D01*
X14444Y12237D01*
X14438Y12236D01*
X14432Y12235D01*
X14428Y12234D01*
X14424Y12232D01*
X14422Y12230D01*
Y12370D01*
X14424Y12368D01*
D02*
G37*
G36*
X14279Y12230D02*
X14277Y12232D01*
X14273Y12234D01*
X14269Y12235D01*
X14263Y12236D01*
X14257Y12237D01*
X14241Y12239D01*
X14222Y12240D01*
X14211Y12240D01*
Y12360D01*
X14222Y12360D01*
X14257Y12363D01*
X14263Y12364D01*
X14269Y12365D01*
X14273Y12366D01*
X14277Y12368D01*
X14279Y12370D01*
Y12230D01*
D02*
G37*
G36*
X20850Y10650D02*
X10150D01*
Y12582D01*
X10200Y12601D01*
X10206Y12594D01*
Y12580D01*
X10261D01*
X10270Y12579D01*
X11250Y12579D01*
X11277Y12584D01*
X11300Y12600D01*
X11400Y12700D01*
X11416Y12723D01*
X11421Y12750D01*
Y13070D01*
X11416Y13097D01*
X11401Y13120D01*
X11402Y13127D01*
X11408Y13144D01*
X11424Y13167D01*
X11624D01*
Y12974D01*
Y12580D01*
X11991D01*
X12009Y12577D01*
X12367D01*
Y11594D01*
X12366D01*
X12383Y11506D01*
X12432Y11432D01*
X12506Y11383D01*
X12594Y11366D01*
Y11367D01*
X13190D01*
X13193Y11367D01*
X13234Y11340D01*
X13300Y11327D01*
X13366Y11340D01*
X13423Y11377D01*
X13460Y11434D01*
X13473Y11500D01*
X13460Y11566D01*
X13423Y11623D01*
X13366Y11660D01*
X13300Y11673D01*
X13234Y11660D01*
X13193Y11633D01*
X13185Y11633D01*
X12633D01*
Y12175D01*
X12683Y12202D01*
X12710Y12183D01*
X12800Y12165D01*
Y12167D01*
X14240D01*
X14243Y12167D01*
X14284Y12140D01*
X14351Y12127D01*
X14417Y12140D01*
X14457Y12167D01*
X14466Y12167D01*
X15800D01*
Y12167D01*
X15886Y12178D01*
X15966Y12212D01*
X16035Y12265D01*
X16088Y12334D01*
X16122Y12414D01*
X16133Y12500D01*
X16133D01*
Y13190D01*
X16133Y13193D01*
X16160Y13234D01*
X16173Y13300D01*
X16160Y13366D01*
X16123Y13423D01*
X16066Y13460D01*
X16000Y13473D01*
X15934Y13460D01*
X15877Y13423D01*
X15840Y13366D01*
X15827Y13300D01*
X15840Y13234D01*
X15867Y13193D01*
X15867Y13185D01*
Y12500D01*
X15866D01*
X15861Y12475D01*
X15847Y12453D01*
X15825Y12439D01*
X15800Y12434D01*
Y12433D01*
X14461D01*
X14458Y12433D01*
X14417Y12460D01*
X14384Y12467D01*
X14379Y12486D01*
X14379Y12519D01*
X14447Y12564D01*
X14497Y12640D01*
X14515Y12729D01*
X14513D01*
Y14213D01*
X14513Y14216D01*
X14541Y14257D01*
X14554Y14323D01*
X14541Y14390D01*
X14503Y14446D01*
X14447Y14484D01*
X14381Y14497D01*
X14314Y14484D01*
X14258Y14446D01*
X14220Y14390D01*
X14207Y14323D01*
X14220Y14257D01*
X14247Y14217D01*
X14248Y14208D01*
Y12838D01*
X14198Y12798D01*
X14170Y12803D01*
X14104Y12790D01*
X14047Y12753D01*
X14010Y12696D01*
X13997Y12630D01*
X14010Y12564D01*
X14047Y12507D01*
X14085Y12483D01*
X14070Y12433D01*
X12833D01*
Y12800D01*
X12835D01*
X12816Y12892D01*
X12764Y12970D01*
X12686Y13023D01*
X12626Y13035D01*
X12602Y13090D01*
X12617Y13111D01*
X12634Y13200D01*
X12633D01*
Y15100D01*
X12635D01*
X12617Y15190D01*
X12566Y15266D01*
X12490Y15317D01*
X12400Y15335D01*
Y15333D01*
X11730D01*
X11727Y15333D01*
X11686Y15360D01*
X11619Y15373D01*
X11553Y15360D01*
X11497Y15323D01*
X11459Y15266D01*
X11446Y15200D01*
X11459Y15134D01*
X11497Y15077D01*
X11553Y15040D01*
X11619Y15027D01*
X11686Y15040D01*
X11726Y15067D01*
X11735Y15067D01*
X12367D01*
Y14056D01*
X12330Y14021D01*
X11250Y14021D01*
X11223Y14016D01*
X11200Y14000D01*
X11100Y13900D01*
X11084Y13877D01*
X11079Y13850D01*
X11079Y13530D01*
X11084Y13503D01*
X11100Y13480D01*
X11169Y13410D01*
X11140Y13366D01*
X11127Y13300D01*
X11131Y13280D01*
X11099Y13241D01*
X10976D01*
Y13422D01*
X10591D01*
X10206D01*
Y13226D01*
X10200Y13219D01*
X10150Y13238D01*
Y15950D01*
X20850D01*
Y10650D01*
D02*
G37*
G36*
X13229Y11430D02*
X13226Y11432D01*
X13223Y11434D01*
X13218Y11435D01*
X13213Y11436D01*
X13207Y11437D01*
X13191Y11439D01*
X13171Y11440D01*
X13160Y11440D01*
Y11560D01*
X13171Y11560D01*
X13207Y11562D01*
X13213Y11564D01*
X13218Y11565D01*
X13223Y11566D01*
X13226Y11568D01*
X13229Y11570D01*
Y11430D01*
D02*
G37*
%LPC*%
G36*
X16500Y15868D02*
X16379Y15852D01*
X16266Y15805D01*
X16169Y15731D01*
X16095Y15634D01*
X16048Y15521D01*
X16032Y15400D01*
X16048Y15279D01*
X16095Y15166D01*
X16169Y15069D01*
X16266Y14995D01*
X16379Y14948D01*
X16500Y14932D01*
X16621Y14948D01*
X16734Y14995D01*
X16831Y15069D01*
X16905Y15166D01*
X16952Y15279D01*
X16968Y15400D01*
X16952Y15521D01*
X16905Y15634D01*
X16831Y15731D01*
X16734Y15805D01*
X16621Y15852D01*
X16500Y15868D01*
D02*
G37*
G36*
X10700D02*
X10579Y15852D01*
X10466Y15805D01*
X10369Y15731D01*
X10295Y15634D01*
X10248Y15521D01*
X10232Y15400D01*
X10248Y15279D01*
X10295Y15166D01*
X10369Y15069D01*
X10466Y14995D01*
X10579Y14948D01*
X10700Y14932D01*
X10821Y14948D01*
X10934Y14995D01*
X11031Y15069D01*
X11105Y15166D01*
X11152Y15279D01*
X11168Y15400D01*
X11152Y15521D01*
X11105Y15634D01*
X11031Y15731D01*
X10934Y15805D01*
X10821Y15852D01*
X10700Y15868D01*
D02*
G37*
G36*
X19095Y15069D02*
X19026Y15060D01*
X18961Y15033D01*
X18905Y14990D01*
X18862Y14935D01*
X18835Y14870D01*
X18826Y14800D01*
X18835Y14730D01*
X18862Y14665D01*
X18905Y14610D01*
X18961Y14567D01*
X19026Y14540D01*
X19095Y14531D01*
X19165Y14540D01*
X19230Y14567D01*
X19286Y14610D01*
X19328Y14665D01*
X19355Y14730D01*
X19364Y14800D01*
X19355Y14870D01*
X19328Y14935D01*
X19286Y14990D01*
X19230Y15033D01*
X19165Y15060D01*
X19095Y15069D01*
D02*
G37*
G36*
X11724Y14807D02*
X10876D01*
Y14477D01*
X10826Y14453D01*
X10783Y14481D01*
X10709Y14496D01*
X10636Y14481D01*
X10574Y14440D01*
X10532Y14377D01*
X10518Y14304D01*
X10532Y14231D01*
X10574Y14168D01*
X10636Y14127D01*
X10709Y14112D01*
X10783Y14127D01*
X10845Y14168D01*
X10887Y14231D01*
X10901Y14304D01*
X10899Y14313D01*
X10931Y14352D01*
X11724D01*
Y14807D01*
D02*
G37*
G36*
X10976Y14020D02*
X10666D01*
Y13966D01*
X10976D01*
Y14020D01*
D02*
G37*
G36*
X10516D02*
X10206D01*
Y13966D01*
X10516D01*
Y14020D01*
D02*
G37*
G36*
X10976Y13816D02*
X10591D01*
X10206D01*
Y13769D01*
X10591D01*
X10976D01*
Y13816D01*
D02*
G37*
G36*
Y13619D02*
X10591D01*
X10206D01*
Y13572D01*
X10591D01*
X10976D01*
Y13619D01*
D02*
G37*
G36*
X10709Y12488D02*
X10636Y12473D01*
X10574Y12432D01*
X10532Y12369D01*
X10518Y12296D01*
X10532Y12223D01*
X10574Y12160D01*
X10636Y12119D01*
X10709Y12104D01*
X10783Y12119D01*
X10826Y12147D01*
X10876Y12123D01*
Y11793D01*
X11724D01*
Y12248D01*
X10931D01*
X10899Y12287D01*
X10901Y12296D01*
X10887Y12369D01*
X10845Y12432D01*
X10783Y12473D01*
X10709Y12488D01*
D02*
G37*
G36*
X19332Y12069D02*
X19262Y12060D01*
X19197Y12033D01*
X19141Y11990D01*
X19098Y11935D01*
X19072Y11870D01*
X19062Y11800D01*
X19072Y11730D01*
X19098Y11665D01*
X19141Y11610D01*
X19197Y11567D01*
X19262Y11540D01*
X19332Y11531D01*
X19401Y11540D01*
X19466Y11567D01*
X19522Y11610D01*
X19565Y11665D01*
X19591Y11730D01*
X19601Y11800D01*
X19591Y11870D01*
X19565Y11935D01*
X19522Y11990D01*
X19466Y12033D01*
X19401Y12060D01*
X19332Y12069D01*
D02*
G37*
G36*
X16500Y11668D02*
X16379Y11652D01*
X16266Y11605D01*
X16169Y11531D01*
X16095Y11434D01*
X16048Y11321D01*
X16032Y11200D01*
X16048Y11079D01*
X16095Y10966D01*
X16169Y10869D01*
X16266Y10795D01*
X16379Y10748D01*
X16500Y10732D01*
X16621Y10748D01*
X16734Y10795D01*
X16831Y10869D01*
X16905Y10966D01*
X16952Y11079D01*
X16968Y11200D01*
X16952Y11321D01*
X16905Y11434D01*
X16831Y11531D01*
X16734Y11605D01*
X16621Y11652D01*
X16500Y11668D01*
D02*
G37*
G36*
X10700D02*
X10579Y11652D01*
X10466Y11605D01*
X10369Y11531D01*
X10295Y11434D01*
X10248Y11321D01*
X10232Y11200D01*
X10248Y11079D01*
X10295Y10966D01*
X10369Y10869D01*
X10466Y10795D01*
X10579Y10748D01*
X10700Y10732D01*
X10821Y10748D01*
X10934Y10795D01*
X11031Y10869D01*
X11105Y10966D01*
X11152Y11079D01*
X11168Y11200D01*
X11152Y11321D01*
X11105Y11434D01*
X11031Y11531D01*
X10934Y11605D01*
X10821Y11652D01*
X10700Y11668D01*
D02*
G37*
%LPD*%
D11*
X14170Y12630D02*
G03*
X14200Y12600I30J0D01*
G01*
D22*
X19095Y14800D02*
D03*
X19332Y11800D02*
D03*
D23*
X10709Y14304D02*
D03*
Y12296D02*
D03*
D25*
X15800Y12300D02*
G03*
X16000Y12500I0J200D01*
G01*
X14282Y12630D02*
G03*
X14381Y12729I0J99D01*
G01*
X12500Y12600D02*
G03*
X12391Y12709I-109J0D01*
G01*
X12500Y11594D02*
G03*
X12594Y11500I94J0D01*
G01*
X12700Y12400D02*
G03*
X12800Y12300I100J0D01*
G01*
X12700Y12800D02*
G03*
X12594Y12906I-106J0D01*
G01*
X12403Y13103D02*
G03*
X12500Y13200I0J97D01*
G01*
Y15100D02*
G03*
X12400Y15200I-100J0D01*
G01*
X11300Y13300D02*
X12009D01*
X12800Y12300D02*
X14351D01*
X15800D01*
X16000Y12500D02*
Y13300D01*
X14170Y12630D02*
X14282D01*
X14381Y12729D02*
Y14323D01*
X12009Y12709D02*
X12391D01*
X12594Y11500D02*
X13300D01*
X12500Y11594D02*
Y12600D01*
X12009Y12906D02*
X12594D01*
X12700Y12400D02*
Y12800D01*
X12009Y13103D02*
X12403D01*
X12500Y13200D02*
Y15100D01*
X11619Y15200D02*
X12400D01*
D35*
X16500Y11200D02*
D03*
Y15400D02*
D03*
X10700D02*
D03*
Y11200D02*
D03*
D36*
X11050Y12800D02*
D03*
X11300Y13300D02*
D03*
X19800Y15700D02*
D03*
Y14500D02*
D03*
X20100Y13900D02*
D03*
X19800Y13300D02*
D03*
X20100Y12700D02*
D03*
X19800Y12100D02*
D03*
Y10900D02*
D03*
X19200Y15700D02*
D03*
X19500Y13900D02*
D03*
X19200Y13300D02*
D03*
X19500Y12700D02*
D03*
X19200Y10900D02*
D03*
X18600Y15700D02*
D03*
Y14500D02*
D03*
X18900Y13900D02*
D03*
X18600Y13300D02*
D03*
X18900Y12700D02*
D03*
X18600Y12100D02*
D03*
Y10900D02*
D03*
X18000Y15700D02*
D03*
X18300Y13900D02*
D03*
Y12700D02*
D03*
X18000Y10900D02*
D03*
X17400Y15700D02*
D03*
X17700Y15100D02*
D03*
Y11500D02*
D03*
X17400Y10900D02*
D03*
X15600Y15700D02*
D03*
X15900Y13900D02*
D03*
X15600Y10900D02*
D03*
X15000Y15700D02*
D03*
X15300Y15100D02*
D03*
Y11500D02*
D03*
X15000Y10900D02*
D03*
X14400Y15700D02*
D03*
X14700Y11500D02*
D03*
X14400Y10900D02*
D03*
X13800Y15700D02*
D03*
X14100Y15100D02*
D03*
Y11500D02*
D03*
X13800Y10900D02*
D03*
X13200Y15700D02*
D03*
X13500Y15100D02*
D03*
X13200Y10900D02*
D03*
X12600Y15700D02*
D03*
X12900Y15100D02*
D03*
X12600Y10900D02*
D03*
X12000Y15700D02*
D03*
Y10900D02*
D03*
X11400Y15700D02*
D03*
Y10900D02*
D03*
X16000Y13300D02*
D03*
X11200Y13000D02*
D03*
X14381Y14323D02*
D03*
X14170Y12630D02*
D03*
X13300Y11500D02*
D03*
X14351Y12300D02*
D03*
X11619Y15200D02*
D03*
D37*
X11300Y13650D02*
D03*
D38*
X12009Y13891D02*
D03*
Y13497D02*
D03*
Y13694D02*
D03*
Y13103D02*
D03*
Y13300D02*
D03*
Y12709D02*
D03*
Y12906D02*
D03*
X10591Y13694D02*
D03*
Y13891D02*
D03*
Y13300D02*
D03*
Y13497D02*
D03*
Y13103D02*
D03*
Y12709D02*
D03*
Y12906D02*
D03*
D39*
X11300Y14580D02*
D03*
Y12020D02*
D03*
M02*
