M48
;Layer_Color=9474304
;FILE_FORMAT=2:4
INCH,TZ
;TYPE=PLATED
T1F00S00C0.0100
T2F00S00C0.0120
T3F00S00C0.0394
;TYPE=NON_PLATED
T4F00S00C0.0236
T5F00S00C0.0787
%
T01
X11400Y10900
X12000
X12600
X13200
X13800
X14400
X15000
X15600
X15300Y11500
X14700
X14100
X13300
X14351Y12300
X14170Y12630
X14381Y14323
X14100Y15100
X13500
X12900
X11619Y15200
X11300Y13300
X11200Y13000
X11050Y12800
X15300Y15100
X15900Y13900
X16000Y13300
X18600Y13300
X19200
X19800
X20100Y13900
X19500
X18900
X18300
X18600Y14500
X19800
X20100Y12700
X19500
X18900
X18300
X18600Y12100
X19800
Y10900
X19200
X18600
X18000
X17400
X17700Y11500
Y15100
X18000Y15700
X18600
X19200
X19800
X17400
X15600
X15000
X14400
X13800
X13200
X12600
X12000
X11400
T02
X11300Y13650
T03
X19332Y11800
X19095Y14800
T04
X10709Y12296
Y14304
T05
X10700Y11200
Y15400
X16500
Y11200
M30
