G04*
G04 #@! TF.GenerationSoftware,Altium Limited,Altium Designer,18.1.7 (191)*
G04*
G04 Layer_Color=8388736*
%FSLAX24Y24*%
%MOIN*%
G70*
G01*
G75*
%ADD15R,0.0660X0.0300*%
%ADD16R,0.1930X0.0592*%
%ADD17R,0.2442X0.0513*%
%ADD18R,0.0344X0.0434*%
%ADD19R,0.0434X0.0344*%
%ADD20R,0.0356X0.0454*%
%ADD21R,0.0454X0.0356*%
%ADD22C,0.0394*%
%ADD23C,0.0236*%
%ADD24C,0.0867*%
D15*
X14220Y13674D02*
D03*
Y12926D02*
D03*
X13280D02*
D03*
Y13300D02*
D03*
Y13674D02*
D03*
D16*
X17068Y13300D02*
D03*
Y14300D02*
D03*
Y12300D02*
D03*
D17*
X19095Y15300D02*
D03*
Y11300D02*
D03*
D18*
X13939Y11910D02*
D03*
X14501D02*
D03*
X12331Y14719D02*
D03*
X11769D02*
D03*
X12331Y14014D02*
D03*
X11769D02*
D03*
Y11914D02*
D03*
X12331D02*
D03*
Y12604D02*
D03*
X11769D02*
D03*
X13969Y14719D02*
D03*
X14531D02*
D03*
D19*
X15150Y11919D02*
D03*
Y12481D02*
D03*
D20*
X13440Y11919D02*
D03*
X12860D02*
D03*
X12860Y14719D02*
D03*
X13440D02*
D03*
X12340Y13300D02*
D03*
X11760D02*
D03*
D21*
X15150Y13590D02*
D03*
Y13010D02*
D03*
Y14110D02*
D03*
Y14690D02*
D03*
D22*
X19332Y11800D02*
D03*
X19095Y14800D02*
D03*
D23*
X10709Y12296D02*
D03*
Y14304D02*
D03*
D24*
X9400Y14800D02*
D03*
Y11800D02*
D03*
M02*
