G04*
G04 #@! TF.GenerationSoftware,Altium Limited,Altium Designer,18.1.7 (191)*
G04*
G04 Layer_Physical_Order=1*
G04 Layer_Color=255*
%FSLAX24Y24*%
%MOIN*%
G70*
G01*
G75*
%ADD10C,0.0100*%
G04:AMPARAMS|DCode=14|XSize=118.1mil|YSize=98.4mil|CornerRadius=24.6mil|HoleSize=0mil|Usage=FLASHONLY|Rotation=0.000|XOffset=0mil|YOffset=0mil|HoleType=Round|Shape=RoundedRectangle|*
%AMROUNDEDRECTD14*
21,1,0.1181,0.0492,0,0,0.0*
21,1,0.0689,0.0984,0,0,0.0*
1,1,0.0492,0.0344,-0.0246*
1,1,0.0492,-0.0344,-0.0246*
1,1,0.0492,-0.0344,0.0246*
1,1,0.0492,0.0344,0.0246*
%
%ADD14ROUNDEDRECTD14*%
%ADD15C,0.0591*%
D10*
X4883Y300D02*
G03*
X5059Y373I0J250D01*
G01*
X1227D02*
G03*
X1404Y300I177J177D01*
G01*
X3896Y800D02*
G03*
X4073Y873I0J250D01*
G01*
X2804Y1800D02*
G03*
X2627Y1727I0J-250D01*
G01*
X2096Y1300D02*
G03*
X2273Y1373I0J250D01*
G01*
X1227D02*
G03*
X1404Y1300I177J177D01*
G01*
X1873Y2073D02*
G03*
X1800Y1896I177J-177D01*
G01*
X2361Y3258D02*
G03*
X2185Y3185I0J-250D01*
G01*
X2950Y3047D02*
G03*
X2774Y2974I0J-250D01*
G01*
X5530Y3047D02*
G03*
X5706Y3120I0J250D01*
G01*
X4254Y3258D02*
G03*
X4431Y3331I0J250D01*
G01*
X2700Y3900D02*
G03*
X2529Y3829I0J-241D01*
G01*
X1896Y3300D02*
G03*
X2073Y3373I0J250D01*
G01*
X1404Y3300D02*
G03*
X1227Y3227I0J-250D01*
G01*
X1404Y300D02*
X4883D01*
X800Y800D02*
X1227Y373D01*
X5059D02*
X6486Y1800D01*
X1800Y800D02*
X3896D01*
X4073Y873D02*
X5000Y1800D01*
X2804D02*
X3514D01*
X2273Y1373D02*
X2627Y1727D01*
X1404Y1300D02*
X2096D01*
X800Y1800D02*
X1227Y1373D01*
X1873Y2073D02*
X2774Y2974D01*
X1800Y2800D02*
X2185Y3185D01*
X1800Y1800D02*
Y1896D01*
X2950Y3047D02*
X5530D01*
X2361Y3258D02*
X4254D01*
X2700Y3900D02*
X3514D01*
X1404Y3300D02*
X1896D01*
X800Y2800D02*
X1227Y3227D01*
X2073Y3373D02*
X2529Y3829D01*
X5706Y3120D02*
X6486Y3900D01*
X4431Y3331D02*
X5000Y3900D01*
D14*
Y1800D02*
D03*
X3514D02*
D03*
X6486D02*
D03*
Y3900D02*
D03*
X3514D02*
D03*
X5000D02*
D03*
D15*
X800Y800D02*
D03*
Y1800D02*
D03*
Y2800D02*
D03*
Y3800D02*
D03*
X1800D02*
D03*
Y2800D02*
D03*
Y1800D02*
D03*
Y800D02*
D03*
M02*
