G04 Layer_Color=65535*
%FSLAX24Y24*%
%MOIN*%
G70*
G01*
G75*
%ADD22C,0.0060*%
%ADD23C,0.0100*%
%ADD24C,0.0197*%
%ADD25C,0.0079*%
D22*
X9441Y1349D02*
G03*
X9441Y1251I109J-49D01*
G01*
X9550Y1181D02*
Y1419D01*
X8817Y955D02*
X9083D01*
X8350Y1181D02*
Y1419D01*
D23*
X9650Y1590D02*
G03*
X9647Y1591I0J10D01*
G01*
X6577Y4091D02*
G03*
X6577Y4091I-39J0D01*
G01*
X12181Y1402D02*
Y2780D01*
X13067Y713D02*
Y3469D01*
X12181Y4902D02*
Y7067D01*
X13067Y4311D02*
Y7657D01*
X9950Y5400D02*
X10283D01*
X10450Y5567D01*
X10283Y5733D01*
X9950D01*
X10450Y5900D02*
X9950D01*
Y6150D01*
X10033Y6233D01*
X10200D01*
X10283Y6150D01*
Y5900D01*
Y6066D02*
X10450Y6233D01*
Y6400D02*
Y6566D01*
Y6483D01*
X9950D01*
X10033Y6400D01*
X4983Y1417D02*
X4900Y1500D01*
X4733D01*
X4650Y1417D01*
Y1083D01*
X4733Y1000D01*
X4900D01*
X4983Y1083D01*
X5483Y1500D02*
X5150D01*
Y1250D01*
X5316Y1333D01*
X5400D01*
X5483Y1250D01*
Y1083D01*
X5400Y1000D01*
X5233D01*
X5150Y1083D01*
X7300Y1500D02*
Y1083D01*
X7383Y1000D01*
X7550D01*
X7633Y1083D01*
Y1500D01*
X8133Y1000D02*
X7800D01*
X8133Y1333D01*
Y1417D01*
X8050Y1500D01*
X7883D01*
X7800Y1417D01*
X4950Y5200D02*
Y4783D01*
X5033Y4700D01*
X5200D01*
X5283Y4783D01*
Y5200D01*
X5450Y4700D02*
X5616D01*
X5533D01*
Y5200D01*
X5450Y5117D01*
X1450Y4000D02*
Y4500D01*
X1700D01*
X1783Y4417D01*
Y4250D01*
X1700Y4167D01*
X1450D01*
X1617D02*
X1783Y4000D01*
X1950D02*
X2116D01*
X2033D01*
Y4500D01*
X1950Y4417D01*
X2366D02*
X2450Y4500D01*
X2616D01*
X2700Y4417D01*
Y4083D01*
X2616Y4000D01*
X2450D01*
X2366Y4083D01*
Y4417D01*
X1850Y5000D02*
Y5500D01*
X2100D01*
X2183Y5417D01*
Y5250D01*
X2100Y5167D01*
X1850D01*
X2017D02*
X2183Y5000D01*
X2350Y5083D02*
X2433Y5000D01*
X2600D01*
X2683Y5083D01*
Y5417D01*
X2600Y5500D01*
X2433D01*
X2350Y5417D01*
Y5333D01*
X2433Y5250D01*
X2683D01*
X1850Y1000D02*
Y1500D01*
X2100D01*
X2183Y1417D01*
Y1250D01*
X2100Y1167D01*
X1850D01*
X2017D02*
X2183Y1000D01*
X2350Y1417D02*
X2433Y1500D01*
X2600D01*
X2683Y1417D01*
Y1333D01*
X2600Y1250D01*
X2683Y1167D01*
Y1083D01*
X2600Y1000D01*
X2433D01*
X2350Y1083D01*
Y1167D01*
X2433Y1250D01*
X2350Y1333D01*
Y1417D01*
X2433Y1250D02*
X2600D01*
X1850Y2000D02*
Y2500D01*
X2100D01*
X2183Y2417D01*
Y2250D01*
X2100Y2167D01*
X1850D01*
X2017D02*
X2183Y2000D01*
X2350Y2500D02*
X2683D01*
Y2417D01*
X2350Y2083D01*
Y2000D01*
X7400Y3000D02*
Y3500D01*
X7650D01*
X7733Y3417D01*
Y3250D01*
X7650Y3167D01*
X7400D01*
X7567D02*
X7733Y3000D01*
X8233Y3500D02*
X8066Y3417D01*
X7900Y3250D01*
Y3083D01*
X7983Y3000D01*
X8150D01*
X8233Y3083D01*
Y3167D01*
X8150Y3250D01*
X7900D01*
X4650Y6000D02*
Y6500D01*
X4900D01*
X4983Y6417D01*
Y6250D01*
X4900Y6167D01*
X4650D01*
X4817D02*
X4983Y6000D01*
X5483Y6500D02*
X5150D01*
Y6250D01*
X5316Y6333D01*
X5400D01*
X5483Y6250D01*
Y6083D01*
X5400Y6000D01*
X5233D01*
X5150Y6083D01*
X7400Y4000D02*
Y4500D01*
X7650D01*
X7733Y4417D01*
Y4250D01*
X7650Y4167D01*
X7400D01*
X7567D02*
X7733Y4000D01*
X8150D02*
Y4500D01*
X7900Y4250D01*
X8233D01*
X7400Y7000D02*
Y7500D01*
X7650D01*
X7733Y7417D01*
Y7250D01*
X7650Y7167D01*
X7400D01*
X7567D02*
X7733Y7000D01*
X7900Y7417D02*
X7983Y7500D01*
X8150D01*
X8233Y7417D01*
Y7333D01*
X8150Y7250D01*
X8066D01*
X8150D01*
X8233Y7167D01*
Y7083D01*
X8150Y7000D01*
X7983D01*
X7900Y7083D01*
X4650Y7000D02*
Y7500D01*
X4900D01*
X4983Y7417D01*
Y7250D01*
X4900Y7167D01*
X4650D01*
X4817D02*
X4983Y7000D01*
X5483D02*
X5150D01*
X5483Y7333D01*
Y7417D01*
X5400Y7500D01*
X5233D01*
X5150Y7417D01*
X2000Y7000D02*
Y7500D01*
X2250D01*
X2333Y7417D01*
Y7250D01*
X2250Y7167D01*
X2000D01*
X2167D02*
X2333Y7000D01*
X2500D02*
X2666D01*
X2583D01*
Y7500D01*
X2500Y7417D01*
X2183Y3417D02*
X2100Y3500D01*
X1933D01*
X1850Y3417D01*
Y3083D01*
X1933Y3000D01*
X2100D01*
X2183Y3083D01*
X2600Y3000D02*
Y3500D01*
X2350Y3250D01*
X2683D01*
X7733Y5417D02*
X7650Y5500D01*
X7483D01*
X7400Y5417D01*
Y5083D01*
X7483Y5000D01*
X7650D01*
X7733Y5083D01*
X7900Y5417D02*
X7983Y5500D01*
X8150D01*
X8233Y5417D01*
Y5333D01*
X8150Y5250D01*
X8066D01*
X8150D01*
X8233Y5167D01*
Y5083D01*
X8150Y5000D01*
X7983D01*
X7900Y5083D01*
X7733Y6417D02*
X7650Y6500D01*
X7483D01*
X7400Y6417D01*
Y6083D01*
X7483Y6000D01*
X7650D01*
X7733Y6083D01*
X8233Y6000D02*
X7900D01*
X8233Y6333D01*
Y6417D01*
X8150Y6500D01*
X7983D01*
X7900Y6417D01*
X2333D02*
X2250Y6500D01*
X2083D01*
X2000Y6417D01*
Y6083D01*
X2083Y6000D01*
X2250D01*
X2333Y6083D01*
X2500Y6000D02*
X2666D01*
X2583D01*
Y6500D01*
X2500Y6417D01*
X10000Y1450D02*
X10333D01*
X10500Y1617D01*
X10333Y1783D01*
X10000D01*
X10500Y1950D02*
X10000D01*
Y2200D01*
X10083Y2283D01*
X10250D01*
X10333Y2200D01*
Y1950D01*
Y2116D02*
X10500Y2283D01*
Y2783D02*
Y2450D01*
X10167Y2783D01*
X10083D01*
X10000Y2700D01*
Y2533D01*
X10083Y2450D01*
D24*
X11295Y909D02*
G03*
X11295Y909I-98J0D01*
G01*
Y4409D02*
G03*
X11295Y4409I-98J0D01*
G01*
D25*
X3480Y7024D02*
X3520D01*
X3480Y7476D02*
X3520D01*
X6341Y3028D02*
Y3972D01*
X5159Y3028D02*
X6341D01*
X5159D02*
Y3972D01*
X6341D01*
X3480Y5024D02*
X3520D01*
X3480Y5476D02*
X3520D01*
X3480Y4476D02*
X3520D01*
X3480Y4024D02*
X3520D01*
X3480Y2476D02*
X3520D01*
X3480Y2024D02*
X3520D01*
X3480Y1476D02*
X3520D01*
X3480Y1024D02*
X3520D01*
X8980Y4024D02*
X9020D01*
X8980Y4476D02*
X9020D01*
X6230Y7024D02*
X6270D01*
X6230Y7476D02*
X6270D01*
X8980Y7024D02*
X9020D01*
X8980Y7476D02*
X9020D01*
X8980Y3476D02*
X9020D01*
X8980Y3024D02*
X9020D01*
X6230Y6476D02*
X6270D01*
X6230Y6024D02*
X6270D01*
M02*
