G04*
G04 #@! TF.GenerationSoftware,Altium Limited,Altium Designer,18.1.7 (191)*
G04*
G04 Layer_Color=65535*
%FSLAX24Y24*%
%MOIN*%
G70*
G01*
G75*
%ADD10C,0.0394*%
%ADD11C,0.0100*%
%ADD12C,0.0060*%
%ADD13C,0.0079*%
%ADD14C,0.0070*%
D10*
X17571Y11300D02*
G03*
X17571Y11300I-71J0D01*
G01*
D11*
X13410Y14000D02*
G03*
X13409Y13997I-10J0D01*
G01*
D12*
X13651Y13791D02*
G03*
X13749Y13791I49J109D01*
G01*
X13581Y12700D02*
X13819D01*
X14045Y13167D02*
Y13433D01*
X13581Y13900D02*
X13819D01*
D13*
X20900Y11550D02*
Y15050D01*
D14*
X13350Y11600D02*
X13550D01*
Y12250D01*
X13350D02*
X13550D01*
X12450Y11600D02*
X12650D01*
X12450D02*
Y12250D01*
X12650D01*
X16540Y12912D02*
X16488Y12965D01*
X16383D01*
X16330Y12912D01*
Y12702D01*
X16383Y12650D01*
X16488D01*
X16540Y12702D01*
Y12807D01*
X16435D01*
X16645Y12650D02*
Y12965D01*
X16855Y12650D01*
Y12965D01*
X16960D02*
Y12650D01*
X17117D01*
X17170Y12702D01*
Y12912D01*
X17117Y12965D01*
X16960D01*
X16750Y14965D02*
Y14650D01*
X16960D01*
X17065D02*
X17170D01*
X17117D01*
Y14965D01*
X17065Y14912D01*
X16645Y13965D02*
Y13650D01*
X16855D01*
X17170D02*
X16960D01*
X17170Y13860D01*
Y13912D01*
X17117Y13965D01*
X17012D01*
X16960Y13912D01*
X17300Y15465D02*
X17510D01*
X17405D01*
Y15150D01*
X17615D02*
X17720D01*
X17667D01*
Y15465D01*
X17615Y15412D01*
X12810Y14274D02*
Y14012D01*
X12862Y13960D01*
X12967D01*
X13020Y14012D01*
Y14274D01*
X13125Y13960D02*
X13229D01*
X13177D01*
Y14274D01*
X13125Y14222D01*
X13850Y11150D02*
Y11465D01*
X14007D01*
X14060Y11412D01*
Y11307D01*
X14007Y11255D01*
X13850D01*
X13955D02*
X14060Y11150D01*
X14165Y11465D02*
X14375D01*
Y11412D01*
X14165Y11202D01*
Y11150D01*
X11650Y15100D02*
Y15415D01*
X11807D01*
X11860Y15362D01*
Y15257D01*
X11807Y15205D01*
X11650D01*
X11755D02*
X11860Y15100D01*
X12175Y15415D02*
X12070Y15362D01*
X11965Y15257D01*
Y15152D01*
X12017Y15100D01*
X12122D01*
X12175Y15152D01*
Y15205D01*
X12122Y15257D01*
X11965D01*
X10800Y13850D02*
Y14165D01*
X10957D01*
X11010Y14112D01*
Y14007D01*
X10957Y13955D01*
X10800D01*
X10905D02*
X11010Y13850D01*
X11325Y14165D02*
X11115D01*
Y14007D01*
X11220Y14060D01*
X11272D01*
X11325Y14007D01*
Y13902D01*
X11272Y13850D01*
X11167D01*
X11115Y13902D01*
X11650Y11150D02*
Y11465D01*
X11807D01*
X11860Y11412D01*
Y11307D01*
X11807Y11255D01*
X11650D01*
X11755D02*
X11860Y11150D01*
X12122D02*
Y11465D01*
X11965Y11307D01*
X12175D01*
X10800Y12450D02*
Y12765D01*
X10957D01*
X11010Y12712D01*
Y12607D01*
X10957Y12555D01*
X10800D01*
X10905D02*
X11010Y12450D01*
X11115Y12712D02*
X11167Y12765D01*
X11272D01*
X11325Y12712D01*
Y12660D01*
X11272Y12607D01*
X11220D01*
X11272D01*
X11325Y12555D01*
Y12502D01*
X11272Y12450D01*
X11167D01*
X11115Y12502D01*
X13850Y15100D02*
Y15415D01*
X14007D01*
X14060Y15362D01*
Y15257D01*
X14007Y15205D01*
X13850D01*
X13955D02*
X14060Y15100D01*
X14375D02*
X14165D01*
X14375Y15310D01*
Y15362D01*
X14322Y15415D01*
X14217D01*
X14165Y15362D01*
X15350Y12050D02*
Y12365D01*
X15507D01*
X15560Y12312D01*
Y12207D01*
X15507Y12155D01*
X15350D01*
X15455D02*
X15560Y12050D01*
X15665D02*
X15770D01*
X15717D01*
Y12365D01*
X15665Y12312D01*
X12960Y11412D02*
X12907Y11465D01*
X12802D01*
X12750Y11412D01*
Y11202D01*
X12802Y11150D01*
X12907D01*
X12960Y11202D01*
X13275Y11465D02*
X13065D01*
Y11307D01*
X13170Y11360D01*
X13222D01*
X13275Y11307D01*
Y11202D01*
X13222Y11150D01*
X13117D01*
X13065Y11202D01*
X12960Y15362D02*
X12907Y15415D01*
X12802D01*
X12750Y15362D01*
Y15152D01*
X12802Y15100D01*
X12907D01*
X12960Y15152D01*
X13222Y15100D02*
Y15415D01*
X13065Y15257D01*
X13275D01*
X15560Y13412D02*
X15507Y13465D01*
X15402D01*
X15350Y13412D01*
Y13202D01*
X15402Y13150D01*
X15507D01*
X15560Y13202D01*
X15665Y13412D02*
X15717Y13465D01*
X15822D01*
X15875Y13412D01*
Y13360D01*
X15822Y13307D01*
X15770D01*
X15822D01*
X15875Y13255D01*
Y13202D01*
X15822Y13150D01*
X15717D01*
X15665Y13202D01*
X11010Y13412D02*
X10957Y13465D01*
X10852D01*
X10800Y13412D01*
Y13202D01*
X10852Y13150D01*
X10957D01*
X11010Y13202D01*
X11325Y13150D02*
X11115D01*
X11325Y13360D01*
Y13412D01*
X11272Y13465D01*
X11167D01*
X11115Y13412D01*
X15560Y14512D02*
X15507Y14565D01*
X15402D01*
X15350Y14512D01*
Y14302D01*
X15402Y14250D01*
X15507D01*
X15560Y14302D01*
X15665Y14250D02*
X15770D01*
X15717D01*
Y14565D01*
X15665Y14512D01*
M02*
