M48
;Layer_Color=9474304
;FILE_FORMAT=2:4
INCH,TZ
;TYPE=PLATED
T1F00S00C0.0100
T2F00S00C0.0394
;TYPE=NON_PLATED
T3F00S00C0.0236
T4F00S00C0.0787
%
T01
X11400Y10900
X12000
X12200Y11300
X11619Y11519
X12600Y10900
X13200
X13800
X14400
X15000
X15600
X15350Y13000
Y13600
X14381Y14323
X14100Y15600
X14700
X15300
X13500
X12900
X12300
X11700
X11619Y15100
X11300Y14000
X11100Y13800
Y13500
X11300Y13300
X11100Y13000
Y12700
X12600Y13500
Y13850
Y14200
X14170Y12630
X14351Y12300
X13300Y11500
X16000Y13300
X15900Y15600
X17100
X17700
X18600Y14500
X18900Y13900
X19500
X20100
X20400Y14500
X19800
Y13300
X20400
X20100Y12700
X19500
X18900
X19200Y13300
X18600
Y12100
Y10900
X19200
X19800
X20400
Y12100
X19800
X18000Y10900
X17400
T02
X19332Y11800
X19095Y14800
T03
X10709Y12296
Y14304
T04
X10700Y11200
Y15400
X16500
Y11200
M30
