G04*
G04 #@! TF.GenerationSoftware,Altium Limited,Altium Designer,18.1.7 (191)*
G04*
G04 Layer_Physical_Order=3*
G04 Layer_Color=128*
%FSLAX24Y24*%
%MOIN*%
G70*
G01*
G75*
%ADD35C,0.0400*%
%ADD36C,0.0436*%
%ADD37C,0.0594*%
%ADD38C,0.0987*%
%ADD39C,0.0300*%
%ADD40C,0.0200*%
D35*
X10000Y10500D02*
Y15300D01*
X22500D01*
Y10500D02*
Y15300D01*
X10000Y10500D02*
X22500D01*
D36*
X12209Y13904D02*
D03*
Y11896D02*
D03*
D37*
X20595Y14400D02*
D03*
X20831Y11400D02*
D03*
D38*
X10900D02*
D03*
Y14400D02*
D03*
D39*
X21900Y14200D02*
D03*
X21600Y13600D02*
D03*
X21900Y13000D02*
D03*
X21600Y12400D02*
D03*
X21900Y11800D02*
D03*
X21300Y14200D02*
D03*
X21000Y13600D02*
D03*
X21300Y13000D02*
D03*
X21000Y12400D02*
D03*
X21300Y11800D02*
D03*
X20400Y13600D02*
D03*
X20700Y13000D02*
D03*
X20400Y12400D02*
D03*
X20700Y11800D02*
D03*
X20100Y14200D02*
D03*
X19800Y13600D02*
D03*
X20100Y13000D02*
D03*
X19800Y12400D02*
D03*
X20100Y11800D02*
D03*
X19200Y14800D02*
D03*
Y12400D02*
D03*
Y11200D02*
D03*
X18600Y14800D02*
D03*
Y12400D02*
D03*
Y11200D02*
D03*
X18000Y14800D02*
D03*
Y12400D02*
D03*
Y11200D02*
D03*
X17400Y14800D02*
D03*
X16800D02*
D03*
X17100Y11800D02*
D03*
X16200Y14800D02*
D03*
X15600D02*
D03*
Y13600D02*
D03*
X15000Y14800D02*
D03*
X15300Y13000D02*
D03*
X14400Y14800D02*
D03*
X13800D02*
D03*
X13200D02*
D03*
X12600D02*
D03*
Y11200D02*
D03*
X12000Y14800D02*
D03*
Y11200D02*
D03*
X11400Y13600D02*
D03*
X11100Y13000D02*
D03*
X10800Y12400D02*
D03*
X12650Y13350D02*
D03*
X12900Y13100D02*
D03*
X16031Y13969D02*
D03*
X14940Y11890D02*
D03*
X16001Y11900D02*
D03*
X17000Y12610D02*
D03*
Y11519D02*
D03*
D40*
X15200Y10500D02*
Y12000D01*
X13600D02*
X15200D01*
X13600D02*
Y15300D01*
M02*
