G04*
G04 #@! TF.GenerationSoftware,Altium Limited,Altium Designer,18.1.7 (191)*
G04*
G04 Layer_Color=65535*
%FSLAX24Y24*%
%MOIN*%
G70*
G01*
G75*
%ADD10C,0.0060*%
%ADD11C,0.0100*%
%ADD12C,0.0394*%
%ADD13C,0.0079*%
%ADD14C,0.0070*%
D10*
X5201Y2891D02*
G03*
X5299Y2891I49J109D01*
G01*
X5131Y3000D02*
X5369D01*
X5595Y2267D02*
Y2533D01*
X5131Y1800D02*
X5369D01*
D11*
X4960Y3100D02*
G03*
X4959Y3097I-10J0D01*
G01*
D12*
X9071Y400D02*
G03*
X9071Y400I-71J0D01*
G01*
D13*
X12400Y650D02*
Y4150D01*
D14*
X8030Y2000D02*
X7980Y2050D01*
X7880D01*
X7830Y2000D01*
Y1800D01*
X7880Y1750D01*
X7980D01*
X8030Y1800D01*
Y1900D01*
X7930D01*
X8130Y1750D02*
Y2050D01*
X8330Y1750D01*
Y2050D01*
X8430D02*
Y1750D01*
X8580D01*
X8630Y1800D01*
Y2000D01*
X8580Y2050D01*
X8430D01*
X8250Y4050D02*
Y3750D01*
X8450D01*
X8550D02*
X8650D01*
X8600D01*
Y4050D01*
X8550Y4000D01*
X8145Y3050D02*
Y2750D01*
X8345D01*
X8645D02*
X8445D01*
X8645Y2950D01*
Y3000D01*
X8595Y3050D01*
X8495D01*
X8445Y3000D01*
X8800Y4565D02*
X9010D01*
X8905D01*
Y4250D01*
X9115D02*
X9220D01*
X9167D01*
Y4565D01*
X9115Y4512D01*
X4360Y3374D02*
Y3112D01*
X4412Y3060D01*
X4517D01*
X4570Y3112D01*
Y3374D01*
X4674Y3060D02*
X4779D01*
X4727D01*
Y3374D01*
X4674Y3322D01*
X5500Y250D02*
Y565D01*
X5657D01*
X5710Y512D01*
Y407D01*
X5657Y355D01*
X5500D01*
X5605D02*
X5710Y250D01*
X5815Y565D02*
X6025D01*
Y512D01*
X5815Y302D01*
Y250D01*
X3300Y4200D02*
Y4515D01*
X3457D01*
X3510Y4462D01*
Y4357D01*
X3457Y4305D01*
X3300D01*
X3405D02*
X3510Y4200D01*
X3825Y4515D02*
X3720Y4462D01*
X3615Y4357D01*
Y4252D01*
X3667Y4200D01*
X3772D01*
X3825Y4252D01*
Y4305D01*
X3772Y4357D01*
X3615D01*
X2450Y2950D02*
Y3265D01*
X2607D01*
X2660Y3212D01*
Y3107D01*
X2607Y3055D01*
X2450D01*
X2555D02*
X2660Y2950D01*
X2975Y3265D02*
X2765D01*
Y3107D01*
X2870Y3160D01*
X2922D01*
X2975Y3107D01*
Y3002D01*
X2922Y2950D01*
X2817D01*
X2765Y3002D01*
X3300Y250D02*
Y565D01*
X3457D01*
X3510Y512D01*
Y407D01*
X3457Y355D01*
X3300D01*
X3405D02*
X3510Y250D01*
X3772D02*
Y565D01*
X3615Y407D01*
X3825D01*
X2450Y1550D02*
Y1865D01*
X2607D01*
X2660Y1812D01*
Y1707D01*
X2607Y1655D01*
X2450D01*
X2555D02*
X2660Y1550D01*
X2765Y1812D02*
X2817Y1865D01*
X2922D01*
X2975Y1812D01*
Y1760D01*
X2922Y1707D01*
X2870D01*
X2922D01*
X2975Y1655D01*
Y1602D01*
X2922Y1550D01*
X2817D01*
X2765Y1602D01*
X5500Y4200D02*
Y4515D01*
X5657D01*
X5710Y4462D01*
Y4357D01*
X5657Y4305D01*
X5500D01*
X5605D02*
X5710Y4200D01*
X6025D02*
X5815D01*
X6025Y4410D01*
Y4462D01*
X5972Y4515D01*
X5867D01*
X5815Y4462D01*
X7000Y1150D02*
Y1465D01*
X7157D01*
X7210Y1412D01*
Y1307D01*
X7157Y1255D01*
X7000D01*
X7105D02*
X7210Y1150D01*
X7315D02*
X7420D01*
X7367D01*
Y1465D01*
X7315Y1412D01*
X4610Y512D02*
X4557Y565D01*
X4452D01*
X4400Y512D01*
Y302D01*
X4452Y250D01*
X4557D01*
X4610Y302D01*
X4925Y565D02*
X4715D01*
Y407D01*
X4820Y460D01*
X4872D01*
X4925Y407D01*
Y302D01*
X4872Y250D01*
X4767D01*
X4715Y302D01*
X4610Y4462D02*
X4557Y4515D01*
X4452D01*
X4400Y4462D01*
Y4252D01*
X4452Y4200D01*
X4557D01*
X4610Y4252D01*
X4872Y4200D02*
Y4515D01*
X4715Y4357D01*
X4925D01*
X7200Y2517D02*
X7150Y2567D01*
X7050D01*
X7000Y2517D01*
Y2317D01*
X7050Y2267D01*
X7150D01*
X7200Y2317D01*
X7300Y2517D02*
X7350Y2567D01*
X7450D01*
X7500Y2517D01*
Y2467D01*
X7450Y2417D01*
X7400D01*
X7450D01*
X7500Y2367D01*
Y2317D01*
X7450Y2267D01*
X7350D01*
X7300Y2317D01*
X2660Y2512D02*
X2607Y2565D01*
X2502D01*
X2450Y2512D01*
Y2302D01*
X2502Y2250D01*
X2607D01*
X2660Y2302D01*
X2975Y2250D02*
X2765D01*
X2975Y2460D01*
Y2512D01*
X2922Y2565D01*
X2817D01*
X2765Y2512D01*
X7210Y3612D02*
X7157Y3665D01*
X7052D01*
X7000Y3612D01*
Y3402D01*
X7052Y3350D01*
X7157D01*
X7210Y3402D01*
X7315Y3350D02*
X7420D01*
X7367D01*
Y3665D01*
X7315Y3612D01*
M02*
