G04*
G04 #@! TF.GenerationSoftware,Altium Limited,Altium Designer,18.1.7 (191)*
G04*
G04 Layer_Color=32896*
%FSLAX24Y24*%
%MOIN*%
G70*
G01*
G75*
%ADD13C,0.0079*%
%ADD14C,0.0070*%
G36*
X10047Y4215D02*
Y4224D01*
X10038D01*
Y4234D01*
X10029D01*
Y4243D01*
X10019D01*
X10010D01*
X10001D01*
X9991D01*
Y4234D01*
X9982D01*
X9973D01*
Y4224D01*
X9963D01*
Y4215D01*
X9954D01*
Y4206D01*
X9945D01*
X9935D01*
Y4196D01*
X9926D01*
Y4187D01*
X9917D01*
Y4178D01*
X9907D01*
Y4168D01*
X9898D01*
Y4159D01*
X9889D01*
Y4150D01*
X9879D01*
Y4140D01*
X9870D01*
Y4131D01*
X9861D01*
Y4122D01*
X9851D01*
Y4112D01*
X9842D01*
Y4103D01*
X9833D01*
Y4093D01*
X9823D01*
Y4084D01*
X9814D01*
Y4075D01*
X9805D01*
Y4065D01*
X9795D01*
Y4056D01*
X9786D01*
Y4047D01*
X9776D01*
X9767D01*
Y4028D01*
X9758D01*
Y4019D01*
X9748D01*
X9739D01*
Y4000D01*
X9730D01*
X9720D01*
Y3991D01*
X9711D01*
Y3981D01*
X9702D01*
Y3972D01*
X9692D01*
Y3963D01*
X9683D01*
Y3944D01*
X9674D01*
Y3935D01*
X9664D01*
X9655D01*
Y3916D01*
X9646D01*
Y3907D01*
X9636D01*
Y3897D01*
X9627D01*
Y3888D01*
X9618D01*
Y3879D01*
X9608D01*
Y3869D01*
X9599D01*
Y3860D01*
X9590D01*
Y3851D01*
X9580D01*
Y3841D01*
X9571D01*
Y3832D01*
X9562D01*
Y3823D01*
X9552D01*
Y3813D01*
X9543D01*
Y3804D01*
X9534D01*
Y3795D01*
X9524D01*
Y3785D01*
X9515D01*
Y3776D01*
X9506D01*
Y3767D01*
X9496D01*
Y3757D01*
X9487D01*
Y3748D01*
X9478D01*
Y3739D01*
X9468D01*
Y3729D01*
X9459D01*
Y3720D01*
X9450D01*
Y3711D01*
X9440D01*
Y3701D01*
X9431D01*
Y3692D01*
X9422D01*
Y3683D01*
X9412D01*
Y3673D01*
X9403D01*
Y3664D01*
X9394D01*
X9384D01*
Y3655D01*
X9375D01*
Y3645D01*
X9366D01*
Y3636D01*
X9356D01*
X9347D01*
Y3627D01*
X9338D01*
Y3617D01*
X9328D01*
Y3608D01*
X9319D01*
X9310D01*
Y3599D01*
X9300D01*
Y3589D01*
X9291D01*
Y3580D01*
X9282D01*
X9272D01*
Y3571D01*
X9263D01*
Y3561D01*
X9254D01*
Y3552D01*
X9244D01*
X9235D01*
Y3543D01*
X9226D01*
Y3533D01*
X9216D01*
X9207D01*
Y3524D01*
X9198D01*
Y3515D01*
X9188D01*
Y3505D01*
X9179D01*
X9169D01*
Y3496D01*
X9160D01*
Y3486D01*
X9151D01*
X9141D01*
Y3477D01*
X9132D01*
Y3468D01*
X9123D01*
Y3458D01*
X9113D01*
X9104D01*
Y3449D01*
X9095D01*
Y3440D01*
X9085D01*
X9076D01*
Y3430D01*
X9067D01*
Y3421D01*
X9057D01*
Y3412D01*
X9048D01*
X9039D01*
Y3402D01*
X9029D01*
Y3393D01*
X9020D01*
X9011D01*
Y3384D01*
X9001D01*
Y3374D01*
X8992D01*
X8983D01*
Y3365D01*
X8973D01*
Y3356D01*
X8964D01*
Y3346D01*
X8955D01*
X8945D01*
Y3337D01*
X8936D01*
Y3328D01*
X8927D01*
Y3318D01*
X8917D01*
X8908D01*
Y3309D01*
X8899D01*
Y3300D01*
X8889D01*
X8880D01*
Y3290D01*
X8871D01*
Y3281D01*
X8861D01*
Y3272D01*
X8852D01*
X8843D01*
Y3262D01*
X8833D01*
Y3253D01*
X8824D01*
Y3244D01*
X8815D01*
X8805D01*
Y3234D01*
X8796D01*
Y3225D01*
X8787D01*
X8777D01*
Y3216D01*
X8768D01*
X8759D01*
Y3206D01*
X8749D01*
Y3197D01*
X8740D01*
X8731D01*
Y3188D01*
X8721D01*
Y3178D01*
X8712D01*
X8703D01*
Y3169D01*
X8693D01*
Y3160D01*
X8684D01*
X8675D01*
Y3150D01*
X8665D01*
X8656D01*
Y3141D01*
X8647D01*
Y3132D01*
X8637D01*
X8628D01*
Y3122D01*
X8619D01*
Y3113D01*
X8609D01*
X8600D01*
Y3104D01*
X8591D01*
Y3094D01*
X8581D01*
X8572D01*
Y3085D01*
X8562D01*
Y3104D01*
X8572D01*
Y3113D01*
X8581D01*
Y3122D01*
X8591D01*
Y3132D01*
X8600D01*
Y3141D01*
X8609D01*
Y3150D01*
X8619D01*
Y3160D01*
X8628D01*
Y3178D01*
X8637D01*
Y3188D01*
X8647D01*
Y3197D01*
X8656D01*
Y3206D01*
X8665D01*
Y3225D01*
X8675D01*
Y3234D01*
X8684D01*
Y3244D01*
X8693D01*
Y3253D01*
X8703D01*
Y3262D01*
X8712D01*
Y3272D01*
X8721D01*
Y3290D01*
X8731D01*
Y3300D01*
X8740D01*
Y3309D01*
X8749D01*
Y3318D01*
X8759D01*
Y3337D01*
X8768D01*
Y3346D01*
X8777D01*
Y3356D01*
X8787D01*
Y3365D01*
X8796D01*
Y3384D01*
X8805D01*
Y3393D01*
X8815D01*
Y3402D01*
X8824D01*
Y3421D01*
X8833D01*
Y3430D01*
X8843D01*
Y3440D01*
X8852D01*
Y3449D01*
X8861D01*
Y3468D01*
X8871D01*
Y3477D01*
X8880D01*
Y3496D01*
X8889D01*
Y3505D01*
X8899D01*
Y3524D01*
X8908D01*
Y3543D01*
X8917D01*
Y3552D01*
X8927D01*
Y3571D01*
X8936D01*
Y3589D01*
X8945D01*
Y3608D01*
X8955D01*
Y3636D01*
X8964D01*
Y3692D01*
X8955D01*
Y3711D01*
X8945D01*
Y3720D01*
X8936D01*
X8927D01*
Y3729D01*
X8917D01*
X8908D01*
X8899D01*
X8889D01*
X8880D01*
X8871D01*
X8861D01*
Y3720D01*
X8852D01*
X8843D01*
X8833D01*
X8824D01*
X8815D01*
Y3729D01*
X8824D01*
Y3757D01*
X8833D01*
Y3776D01*
X8843D01*
Y3804D01*
X8852D01*
Y3823D01*
X8861D01*
Y3897D01*
X8852D01*
Y3916D01*
X8843D01*
Y3935D01*
X8833D01*
Y3944D01*
X8824D01*
Y3953D01*
X8815D01*
X8805D01*
Y3963D01*
X8796D01*
Y3981D01*
X8805D01*
Y3991D01*
X8796D01*
Y4009D01*
X8787D01*
Y4019D01*
X8777D01*
X8768D01*
X8759D01*
X8749D01*
X8740D01*
Y4009D01*
X8731D01*
Y4000D01*
X8721D01*
Y3991D01*
X8712D01*
Y3972D01*
X8703D01*
Y3916D01*
X8712D01*
Y3907D01*
X8721D01*
Y3897D01*
X8731D01*
Y3888D01*
X8740D01*
Y3879D01*
X8749D01*
X8759D01*
Y3841D01*
X8749D01*
Y3813D01*
X8740D01*
Y3795D01*
X8731D01*
Y3776D01*
X8721D01*
Y3757D01*
X8712D01*
Y3720D01*
X8703D01*
Y3664D01*
X8712D01*
Y3645D01*
X8721D01*
Y3636D01*
X8731D01*
Y3627D01*
X8740D01*
X8749D01*
Y3617D01*
X8759D01*
X8768D01*
X8777D01*
X8787D01*
X8796D01*
X8805D01*
X8815D01*
X8824D01*
X8833D01*
X8843D01*
Y3627D01*
X8852D01*
Y3599D01*
X8843D01*
Y3580D01*
X8833D01*
Y3571D01*
X8824D01*
Y3552D01*
X8815D01*
Y3543D01*
X8805D01*
Y3533D01*
X8796D01*
Y3515D01*
X8787D01*
Y3496D01*
X8777D01*
Y3486D01*
X8768D01*
Y3477D01*
X8759D01*
Y3468D01*
X8749D01*
Y3449D01*
X8740D01*
Y3440D01*
X8731D01*
Y3430D01*
X8721D01*
Y3421D01*
X8712D01*
Y3402D01*
X8703D01*
Y3393D01*
X8693D01*
Y3384D01*
X8684D01*
Y3374D01*
X8675D01*
Y3356D01*
X8665D01*
Y3346D01*
X8656D01*
Y3337D01*
X8647D01*
Y3328D01*
X8637D01*
Y3318D01*
X8628D01*
Y3300D01*
X8619D01*
Y3290D01*
X8609D01*
Y3281D01*
X8600D01*
Y3272D01*
X8591D01*
Y3262D01*
X8581D01*
Y3244D01*
X8572D01*
Y3234D01*
X8562D01*
Y3225D01*
X8553D01*
Y3216D01*
X8544D01*
Y3206D01*
X8534D01*
Y3197D01*
X8525D01*
Y3188D01*
X8516D01*
Y3169D01*
X8506D01*
Y3160D01*
X8497D01*
Y3150D01*
X8488D01*
Y3141D01*
X8478D01*
Y3132D01*
X8469D01*
Y3122D01*
X8460D01*
Y3113D01*
X8450D01*
Y3104D01*
X8441D01*
Y3094D01*
X8432D01*
Y3085D01*
X8422D01*
Y3076D01*
X8413D01*
Y3057D01*
X8404D01*
Y3048D01*
X8394D01*
Y3038D01*
X8385D01*
Y3029D01*
X8376D01*
Y3020D01*
X8366D01*
Y3010D01*
X8357D01*
Y3001D01*
X8348D01*
Y2992D01*
X8338D01*
Y2982D01*
X8329D01*
Y2973D01*
X8320D01*
Y2964D01*
X8310D01*
Y2954D01*
X8301D01*
Y2936D01*
X8292D01*
Y2926D01*
X8282D01*
Y2917D01*
X8273D01*
Y2908D01*
X8264D01*
Y2889D01*
X8254D01*
Y2851D01*
X8264D01*
Y2842D01*
X8273D01*
Y2833D01*
X8282D01*
X8292D01*
Y2823D01*
X8301D01*
X8310D01*
X8320D01*
X8329D01*
Y2833D01*
X8338D01*
X8348D01*
Y2842D01*
X8357D01*
X8366D01*
Y2851D01*
X8376D01*
X8385D01*
Y2861D01*
X8394D01*
Y2870D01*
X8404D01*
X8413D01*
Y2879D01*
X8422D01*
Y2889D01*
X8432D01*
X8441D01*
Y2898D01*
X8450D01*
X8460D01*
Y2908D01*
X8469D01*
Y2917D01*
X8478D01*
X8488D01*
Y2926D01*
X8497D01*
Y2936D01*
X8506D01*
X8516D01*
Y2945D01*
X8525D01*
X8534D01*
Y2954D01*
X8544D01*
Y2964D01*
X8553D01*
X8562D01*
Y2973D01*
X8572D01*
Y2982D01*
X8581D01*
X8591D01*
Y2992D01*
X8600D01*
X8609D01*
Y3001D01*
X8619D01*
Y3010D01*
X8628D01*
Y3020D01*
X8637D01*
X8647D01*
Y3029D01*
X8656D01*
X8665D01*
Y3038D01*
X8675D01*
Y3048D01*
X8684D01*
X8693D01*
Y3057D01*
X8703D01*
Y3066D01*
X8712D01*
X8721D01*
Y3076D01*
X8731D01*
Y3085D01*
X8740D01*
X8749D01*
Y3094D01*
X8759D01*
Y3104D01*
X8768D01*
X8777D01*
Y3113D01*
X8787D01*
X8796D01*
Y3122D01*
X8805D01*
Y3132D01*
X8815D01*
X8824D01*
Y3141D01*
X8833D01*
Y3150D01*
X8843D01*
X8852D01*
Y3160D01*
X8861D01*
Y3169D01*
X8871D01*
X8880D01*
Y3178D01*
X8889D01*
Y3188D01*
X8899D01*
Y3197D01*
X8908D01*
X8917D01*
Y3206D01*
X8927D01*
Y3216D01*
X8936D01*
Y3225D01*
X8945D01*
X8955D01*
Y3234D01*
X8964D01*
Y3244D01*
X8973D01*
X8983D01*
Y3253D01*
X8992D01*
Y3262D01*
X9001D01*
Y3272D01*
X9011D01*
X9020D01*
Y3262D01*
X9011D01*
Y3253D01*
X9001D01*
Y3244D01*
X8992D01*
Y3225D01*
X8983D01*
Y3216D01*
X8973D01*
Y3206D01*
X8964D01*
Y3197D01*
X8955D01*
Y3188D01*
X8945D01*
Y3169D01*
X8936D01*
Y3160D01*
X8927D01*
Y3150D01*
X8917D01*
Y3141D01*
X8908D01*
Y3132D01*
X8899D01*
Y3113D01*
X8889D01*
Y3104D01*
X8880D01*
Y3085D01*
X8871D01*
Y3066D01*
X8861D01*
Y3057D01*
X8852D01*
X8843D01*
Y3048D01*
X8833D01*
Y3001D01*
X8843D01*
Y2992D01*
X8833D01*
Y2973D01*
X8824D01*
Y2954D01*
X8815D01*
Y2945D01*
X8824D01*
Y2926D01*
X8833D01*
X8843D01*
Y2917D01*
X8852D01*
X8861D01*
Y2908D01*
X8871D01*
X8880D01*
Y2851D01*
X8871D01*
Y2814D01*
X8861D01*
Y2786D01*
X8852D01*
Y2767D01*
X8843D01*
Y2749D01*
X8833D01*
Y2739D01*
X8824D01*
X8815D01*
X8805D01*
X8796D01*
X8787D01*
Y2730D01*
X8777D01*
X8768D01*
Y2721D01*
X8759D01*
X8749D01*
Y2711D01*
X8740D01*
X8731D01*
Y2702D01*
X8721D01*
X8712D01*
Y2693D01*
X8703D01*
X8693D01*
Y2683D01*
X8684D01*
X8675D01*
Y2674D01*
X8665D01*
Y2665D01*
X8656D01*
X8647D01*
Y2655D01*
X8637D01*
Y2646D01*
X8628D01*
Y2637D01*
X8619D01*
X8609D01*
Y2627D01*
X8600D01*
X8591D01*
Y2618D01*
X8581D01*
Y2609D01*
X8572D01*
X8562D01*
Y2599D01*
X8553D01*
Y2590D01*
X8544D01*
X8534D01*
Y2581D01*
X8525D01*
Y2571D01*
X8516D01*
X8506D01*
Y2562D01*
X8497D01*
X8488D01*
Y2553D01*
X8478D01*
Y2543D01*
X8469D01*
X8460D01*
Y2534D01*
X8450D01*
X8441D01*
Y2525D01*
X8432D01*
Y2515D01*
X8422D01*
X8413D01*
Y2506D01*
X8404D01*
Y2497D01*
X8394D01*
X8385D01*
Y2487D01*
X8376D01*
X8366D01*
Y2478D01*
X8357D01*
Y2469D01*
X8348D01*
X8338D01*
Y2459D01*
X8329D01*
Y2450D01*
X8320D01*
X8310D01*
Y2441D01*
X8301D01*
X8292D01*
Y2431D01*
X8282D01*
X8273D01*
Y2422D01*
X8264D01*
Y2413D01*
X8254D01*
X8245D01*
Y2403D01*
X8236D01*
X8226D01*
Y2394D01*
X8217D01*
Y2385D01*
X8208D01*
X8198D01*
Y2375D01*
X8189D01*
X8180D01*
Y2366D01*
X8170D01*
X8161D01*
Y2357D01*
X8152D01*
Y2347D01*
X8142D01*
X8133D01*
Y2338D01*
X8124D01*
X8114D01*
Y2329D01*
X8105D01*
Y2319D01*
X8096D01*
X8086D01*
Y2310D01*
X8077D01*
X8068D01*
Y2301D01*
X8058D01*
Y2291D01*
X8049D01*
X8040D01*
Y2282D01*
X8030D01*
X8021D01*
Y2272D01*
X8012D01*
X8002D01*
Y2263D01*
X7993D01*
Y2254D01*
X7984D01*
X7974D01*
Y2244D01*
X7965D01*
X7955D01*
Y2235D01*
X7946D01*
X7937D01*
Y2226D01*
X7927D01*
Y2216D01*
X7918D01*
X7909D01*
Y2207D01*
X7899D01*
X7890D01*
Y2198D01*
X7881D01*
X7871D01*
Y2188D01*
X7862D01*
X7853D01*
Y2179D01*
X7843D01*
Y2170D01*
X7834D01*
X7825D01*
Y2160D01*
X7815D01*
X7806D01*
Y2151D01*
X7797D01*
X7787D01*
Y2142D01*
X7778D01*
X7769D01*
Y2132D01*
X7759D01*
X7750D01*
Y2123D01*
X7741D01*
X7731D01*
Y2114D01*
X7722D01*
X7713D01*
Y2104D01*
X7703D01*
X7694D01*
Y2095D01*
X7685D01*
X7675D01*
Y2086D01*
X7666D01*
X7657D01*
Y2076D01*
X7647D01*
X7638D01*
Y2067D01*
X7629D01*
X7619D01*
Y2058D01*
X7610D01*
X7601D01*
Y2048D01*
X7591D01*
X7582D01*
X7573D01*
Y2039D01*
X7563D01*
X7554D01*
Y2030D01*
X7545D01*
X7535D01*
Y2020D01*
X7526D01*
X7517D01*
Y2011D01*
X7507D01*
X7498D01*
Y2002D01*
X7489D01*
X7479D01*
Y1992D01*
X7470D01*
X7461D01*
Y1983D01*
X7451D01*
X7442D01*
Y1974D01*
X7433D01*
X7423D01*
X7414D01*
Y1964D01*
X7405D01*
X7395D01*
Y1955D01*
X7386D01*
X7377D01*
X7367D01*
Y1946D01*
X7358D01*
X7348D01*
Y1936D01*
X7339D01*
X7330D01*
X7320D01*
Y1927D01*
X7311D01*
X7302D01*
Y1918D01*
X7292D01*
X7283D01*
X7274D01*
Y1908D01*
X7264D01*
X7255D01*
Y1899D01*
X7246D01*
X7236D01*
Y1890D01*
X7227D01*
X7218D01*
Y1880D01*
X7208D01*
X7199D01*
Y1871D01*
X7190D01*
X7180D01*
Y1862D01*
X7171D01*
X7162D01*
X7152D01*
Y1852D01*
X7143D01*
X7134D01*
Y1843D01*
X7124D01*
X7115D01*
Y1834D01*
X7106D01*
Y1824D01*
X7096D01*
Y1806D01*
X7087D01*
Y1778D01*
X7096D01*
Y1759D01*
X7106D01*
Y1750D01*
X7115D01*
X7124D01*
X7134D01*
X7143D01*
X7152D01*
X7162D01*
X7171D01*
X7180D01*
X7190D01*
X7199D01*
Y1759D01*
X7208D01*
X7218D01*
X7227D01*
X7236D01*
Y1768D01*
X7246D01*
X7255D01*
X7264D01*
X7274D01*
X7283D01*
Y1778D01*
X7292D01*
X7302D01*
X7311D01*
X7320D01*
Y1787D01*
X7330D01*
X7339D01*
X7348D01*
X7358D01*
Y1796D01*
X7367D01*
X7377D01*
X7386D01*
X7395D01*
Y1806D01*
X7405D01*
X7414D01*
X7423D01*
X7433D01*
Y1815D01*
X7442D01*
X7451D01*
X7461D01*
X7470D01*
Y1824D01*
X7479D01*
X7489D01*
X7498D01*
X7507D01*
Y1834D01*
X7517D01*
X7526D01*
X7535D01*
X7545D01*
Y1843D01*
X7554D01*
X7563D01*
X7573D01*
X7582D01*
Y1852D01*
X7591D01*
X7601D01*
X7610D01*
X7619D01*
Y1862D01*
X7629D01*
X7638D01*
X7647D01*
Y1871D01*
X7657D01*
X7666D01*
X7675D01*
X7685D01*
Y1880D01*
X7694D01*
X7703D01*
X7713D01*
Y1890D01*
X7722D01*
X7731D01*
X7741D01*
Y1899D01*
X7750D01*
X7759D01*
X7769D01*
X7778D01*
Y1908D01*
X7787D01*
X7797D01*
X7806D01*
Y1918D01*
X7815D01*
X7825D01*
X7834D01*
X7843D01*
Y1927D01*
X7853D01*
X7862D01*
X7871D01*
Y1936D01*
X7881D01*
X7890D01*
X7899D01*
Y1946D01*
X7909D01*
X7918D01*
X7927D01*
X7937D01*
Y1955D01*
X7946D01*
X7955D01*
X7965D01*
Y1964D01*
X7974D01*
X7984D01*
X7993D01*
Y1974D01*
X8002D01*
X8012D01*
X8021D01*
Y1983D01*
X8030D01*
X8040D01*
X8049D01*
Y1992D01*
X8058D01*
X8068D01*
X8077D01*
Y2002D01*
X8086D01*
X8096D01*
X8105D01*
Y2011D01*
X8114D01*
X8124D01*
X8133D01*
X8142D01*
Y2020D01*
X8152D01*
X8161D01*
X8170D01*
Y2030D01*
X8180D01*
X8189D01*
X8198D01*
Y2039D01*
X8208D01*
X8217D01*
X8226D01*
Y2048D01*
X8236D01*
X8245D01*
X8254D01*
Y2058D01*
X8264D01*
X8273D01*
X8282D01*
Y2067D01*
X8292D01*
X8301D01*
Y2076D01*
X8310D01*
X8320D01*
X8329D01*
Y2086D01*
X8338D01*
X8348D01*
X8357D01*
Y2095D01*
X8366D01*
X8376D01*
X8385D01*
Y2104D01*
X8394D01*
X8404D01*
X8413D01*
Y2114D01*
X8422D01*
X8432D01*
X8441D01*
Y2123D01*
X8450D01*
X8460D01*
X8469D01*
Y2132D01*
X8478D01*
X8488D01*
X8497D01*
Y2142D01*
X8506D01*
X8516D01*
X8525D01*
Y2151D01*
X8534D01*
X8544D01*
Y2160D01*
X8553D01*
X8562D01*
X8572D01*
Y2170D01*
X8581D01*
X8591D01*
Y2179D01*
X8600D01*
X8609D01*
X8619D01*
Y2188D01*
X8628D01*
X8637D01*
X8647D01*
Y2198D01*
X8656D01*
X8665D01*
Y2207D01*
X8675D01*
X8684D01*
X8693D01*
Y2216D01*
X8703D01*
X8712D01*
X8721D01*
Y2226D01*
X8731D01*
X8740D01*
Y2216D01*
X8731D01*
Y2198D01*
X8721D01*
Y2188D01*
X8712D01*
Y2104D01*
X8721D01*
Y2086D01*
X8731D01*
Y2076D01*
X8740D01*
Y2067D01*
X8749D01*
X8759D01*
Y2048D01*
X8749D01*
Y2039D01*
X8740D01*
X8731D01*
Y2030D01*
X8721D01*
Y2020D01*
X8712D01*
X8703D01*
Y2011D01*
X8693D01*
X8684D01*
Y2002D01*
X8675D01*
Y1992D01*
X8665D01*
X8656D01*
Y1983D01*
X8647D01*
Y1974D01*
X8637D01*
Y1964D01*
X8628D01*
Y1955D01*
X8619D01*
Y1946D01*
X8609D01*
Y1927D01*
X8600D01*
Y1880D01*
X8609D01*
Y1871D01*
X8619D01*
Y1862D01*
X8628D01*
X8637D01*
Y1852D01*
X8647D01*
X8656D01*
X8665D01*
Y1862D01*
X8675D01*
Y1843D01*
X8665D01*
X8656D01*
Y1834D01*
X8647D01*
Y1824D01*
X8637D01*
X8628D01*
Y1815D01*
X8619D01*
Y1806D01*
X8609D01*
X8600D01*
Y1796D01*
X8591D01*
Y1787D01*
X8581D01*
X8572D01*
Y1778D01*
X8562D01*
Y1768D01*
X8553D01*
X8544D01*
Y1759D01*
X8534D01*
Y1750D01*
X8525D01*
X8516D01*
Y1740D01*
X8506D01*
Y1731D01*
X8497D01*
Y1722D01*
X8488D01*
X8478D01*
Y1712D01*
X8469D01*
Y1703D01*
X8460D01*
X8450D01*
Y1694D01*
X8441D01*
Y1684D01*
X8432D01*
X8422D01*
Y1675D01*
X8413D01*
X8404D01*
Y1665D01*
X8394D01*
Y1656D01*
X8385D01*
X8376D01*
Y1647D01*
X8366D01*
Y1637D01*
X8357D01*
X8348D01*
Y1628D01*
X8338D01*
X8329D01*
Y1619D01*
X8320D01*
Y1609D01*
X8310D01*
X8301D01*
Y1600D01*
X8292D01*
Y1591D01*
X8282D01*
X8273D01*
Y1581D01*
X8264D01*
X8254D01*
Y1572D01*
X8245D01*
Y1563D01*
X8236D01*
X8226D01*
Y1553D01*
X8217D01*
Y1544D01*
X8208D01*
X8198D01*
Y1535D01*
X8189D01*
X8180D01*
Y1525D01*
X8170D01*
X8161D01*
Y1516D01*
X8152D01*
X8142D01*
Y1507D01*
X8133D01*
X8124D01*
Y1497D01*
X8114D01*
X8105D01*
Y1488D01*
X8096D01*
X8086D01*
Y1479D01*
X8077D01*
X8068D01*
X8058D01*
Y1469D01*
X8049D01*
X8040D01*
Y1460D01*
X8030D01*
X8021D01*
Y1451D01*
X8012D01*
X8002D01*
Y1441D01*
X7993D01*
X7984D01*
Y1432D01*
X7974D01*
X7965D01*
Y1423D01*
X7955D01*
X7946D01*
Y1413D01*
X7937D01*
X7927D01*
Y1404D01*
X7918D01*
X7909D01*
Y1395D01*
X7899D01*
X7890D01*
X7881D01*
Y1385D01*
X7871D01*
X7862D01*
Y1376D01*
X7853D01*
X7843D01*
Y1367D01*
X7834D01*
X7825D01*
Y1357D01*
X7815D01*
X7806D01*
Y1348D01*
X7797D01*
X7787D01*
Y1339D01*
X7778D01*
X7769D01*
Y1329D01*
X7759D01*
X7750D01*
Y1320D01*
X7741D01*
X7731D01*
Y1311D01*
X7722D01*
X7713D01*
Y1301D01*
X7703D01*
X7694D01*
Y1292D01*
X7685D01*
X7675D01*
X7666D01*
Y1283D01*
X7657D01*
X7647D01*
Y1273D01*
X7638D01*
X7629D01*
Y1264D01*
X7619D01*
X7610D01*
Y1255D01*
X7601D01*
X7591D01*
Y1245D01*
X7582D01*
X7573D01*
Y1236D01*
X7563D01*
X7554D01*
Y1227D01*
X7545D01*
X7535D01*
X7526D01*
Y1217D01*
X7517D01*
X7507D01*
Y1208D01*
X7498D01*
X7489D01*
Y1199D01*
X7479D01*
X7470D01*
Y1189D01*
X7461D01*
X7451D01*
Y1180D01*
X7442D01*
X7433D01*
Y1171D01*
X7423D01*
X7414D01*
Y1161D01*
X7405D01*
X7395D01*
Y1152D01*
X7386D01*
X7377D01*
Y1143D01*
X7367D01*
X7358D01*
Y1133D01*
X7348D01*
X7339D01*
Y1124D01*
X7330D01*
X7320D01*
Y1115D01*
X7311D01*
X7302D01*
Y1105D01*
X7292D01*
X7283D01*
Y1096D01*
X7274D01*
X7264D01*
Y1087D01*
X7255D01*
X7246D01*
Y1077D01*
X7236D01*
X7227D01*
Y1068D01*
X7218D01*
Y1058D01*
X7208D01*
X7199D01*
Y1049D01*
X7190D01*
X7180D01*
Y1040D01*
X7171D01*
X7162D01*
Y1030D01*
X7152D01*
X7143D01*
Y1021D01*
X7134D01*
Y1012D01*
X7124D01*
X7115D01*
Y1002D01*
X7106D01*
X7096D01*
Y993D01*
X7087D01*
X7078D01*
Y984D01*
X7068D01*
Y974D01*
X7059D01*
X7050D01*
Y965D01*
X7040D01*
Y956D01*
X7031D01*
Y946D01*
X7022D01*
Y937D01*
X7012D01*
Y928D01*
X7003D01*
Y881D01*
X7012D01*
Y862D01*
X7022D01*
X7031D01*
Y853D01*
X7040D01*
X7050D01*
X7059D01*
Y862D01*
X7068D01*
X7078D01*
X7087D01*
X7096D01*
Y872D01*
X7106D01*
X7115D01*
Y881D01*
X7124D01*
X7134D01*
Y890D01*
X7143D01*
X7152D01*
Y900D01*
X7162D01*
X7171D01*
X7180D01*
Y909D01*
X7190D01*
X7199D01*
Y918D01*
X7208D01*
X7218D01*
X7227D01*
Y928D01*
X7236D01*
X7246D01*
Y937D01*
X7255D01*
X7264D01*
Y946D01*
X7274D01*
X7283D01*
Y956D01*
X7292D01*
X7302D01*
Y965D01*
X7311D01*
X7320D01*
Y974D01*
X7330D01*
X7339D01*
Y984D01*
X7348D01*
X7358D01*
Y993D01*
X7367D01*
X7377D01*
Y1002D01*
X7386D01*
X7395D01*
Y1012D01*
X7405D01*
X7414D01*
Y1021D01*
X7423D01*
X7433D01*
Y1030D01*
X7442D01*
X7451D01*
Y1040D01*
X7461D01*
X7470D01*
Y1049D01*
X7479D01*
X7489D01*
Y1058D01*
X7498D01*
X7507D01*
Y1068D01*
X7517D01*
X7526D01*
Y1077D01*
X7535D01*
X7545D01*
Y1087D01*
X7554D01*
X7563D01*
Y1096D01*
X7573D01*
X7582D01*
Y1105D01*
X7591D01*
X7601D01*
Y1115D01*
X7610D01*
Y1124D01*
X7619D01*
X7629D01*
Y1133D01*
X7638D01*
X7647D01*
Y1143D01*
X7657D01*
X7666D01*
Y1152D01*
X7675D01*
X7685D01*
Y1161D01*
X7694D01*
X7703D01*
Y1171D01*
X7713D01*
Y1180D01*
X7722D01*
X7731D01*
X7741D01*
Y1189D01*
X7750D01*
Y1199D01*
X7759D01*
X7769D01*
Y1208D01*
X7778D01*
X7787D01*
Y1217D01*
X7797D01*
X7806D01*
Y1227D01*
X7815D01*
Y1236D01*
X7825D01*
X7834D01*
Y1245D01*
X7843D01*
X7853D01*
Y1255D01*
X7862D01*
Y1264D01*
X7871D01*
X7881D01*
Y1273D01*
X7890D01*
X7899D01*
Y1283D01*
X7909D01*
Y1292D01*
X7918D01*
X7927D01*
Y1301D01*
X7937D01*
X7946D01*
Y1311D01*
X7955D01*
Y1320D01*
X7965D01*
X7974D01*
Y1329D01*
X7984D01*
X7993D01*
Y1339D01*
X8002D01*
Y1348D01*
X8012D01*
X8021D01*
Y1357D01*
X8030D01*
Y1367D01*
X8040D01*
X8049D01*
Y1376D01*
X8058D01*
X8068D01*
Y1385D01*
X8077D01*
Y1395D01*
X8086D01*
X8096D01*
Y1404D01*
X8105D01*
X8114D01*
Y1413D01*
X8124D01*
Y1423D01*
X8133D01*
X8142D01*
Y1432D01*
X8152D01*
X8161D01*
X8170D01*
Y1441D01*
X8180D01*
X8189D01*
Y1451D01*
X8198D01*
X8208D01*
Y1460D01*
X8217D01*
X8226D01*
Y1469D01*
X8236D01*
X8245D01*
Y1479D01*
X8254D01*
X8264D01*
Y1488D01*
X8273D01*
X8282D01*
Y1497D01*
X8292D01*
X8301D01*
Y1507D01*
X8310D01*
X8320D01*
Y1516D01*
X8329D01*
X8338D01*
X8348D01*
Y1525D01*
X8357D01*
X8366D01*
Y1535D01*
X8376D01*
X8385D01*
Y1544D01*
X8394D01*
X8404D01*
Y1553D01*
X8413D01*
X8422D01*
Y1563D01*
X8432D01*
X8441D01*
Y1572D01*
X8450D01*
X8460D01*
Y1581D01*
X8469D01*
X8478D01*
Y1591D01*
X8488D01*
X8497D01*
Y1600D01*
X8506D01*
X8516D01*
Y1609D01*
X8525D01*
X8534D01*
Y1619D01*
X8544D01*
X8553D01*
Y1628D01*
X8562D01*
X8572D01*
Y1637D01*
X8581D01*
X8591D01*
Y1647D01*
X8600D01*
X8609D01*
Y1656D01*
X8619D01*
X8628D01*
Y1665D01*
X8637D01*
X8647D01*
Y1675D01*
X8656D01*
X8665D01*
X8675D01*
Y1684D01*
X8684D01*
X8693D01*
Y1694D01*
X8703D01*
X8712D01*
Y1703D01*
X8721D01*
X8731D01*
Y1712D01*
X8740D01*
X8749D01*
Y1694D01*
X8740D01*
Y1684D01*
X8731D01*
Y1628D01*
X8740D01*
Y1609D01*
X8749D01*
Y1600D01*
X8759D01*
Y1591D01*
X8768D01*
Y1581D01*
X8777D01*
X8787D01*
X8796D01*
Y1572D01*
X8805D01*
X8815D01*
X8824D01*
X8833D01*
X8843D01*
X8852D01*
X8861D01*
X8871D01*
X8880D01*
X8889D01*
X8899D01*
X8908D01*
X8917D01*
X8927D01*
X8936D01*
X8945D01*
Y1581D01*
X8955D01*
X8964D01*
X8973D01*
X8983D01*
X8992D01*
Y1591D01*
X9001D01*
X9011D01*
X9020D01*
X9029D01*
Y1600D01*
X9039D01*
X9048D01*
X9057D01*
X9067D01*
Y1609D01*
X9076D01*
X9085D01*
X9095D01*
X9104D01*
Y1619D01*
X9113D01*
X9123D01*
X9132D01*
X9141D01*
Y1628D01*
X9151D01*
X9160D01*
X9169D01*
Y1637D01*
X9179D01*
X9188D01*
X9198D01*
Y1647D01*
X9207D01*
X9216D01*
X9226D01*
Y1656D01*
X9235D01*
X9244D01*
X9254D01*
Y1637D01*
X9244D01*
X9235D01*
Y1628D01*
X9226D01*
Y1619D01*
X9216D01*
Y1609D01*
X9207D01*
Y1600D01*
X9198D01*
Y1591D01*
X9188D01*
Y1581D01*
X9179D01*
Y1572D01*
X9169D01*
Y1563D01*
X9160D01*
X9151D01*
Y1544D01*
X9141D01*
X9132D01*
Y1535D01*
X9123D01*
Y1525D01*
X9113D01*
Y1516D01*
X9104D01*
Y1507D01*
X9095D01*
Y1497D01*
X9085D01*
Y1488D01*
X9076D01*
Y1479D01*
X9067D01*
X9057D01*
Y1469D01*
X9048D01*
Y1460D01*
X9039D01*
Y1451D01*
X9029D01*
Y1441D01*
X9020D01*
Y1432D01*
X9011D01*
Y1423D01*
X9001D01*
X8992D01*
Y1413D01*
X8983D01*
Y1404D01*
X8973D01*
Y1395D01*
X8964D01*
Y1385D01*
X8955D01*
Y1376D01*
X8945D01*
Y1367D01*
X8936D01*
Y1357D01*
X8927D01*
Y1348D01*
X8917D01*
Y1339D01*
X8908D01*
Y1329D01*
X8899D01*
Y1320D01*
X8889D01*
Y1311D01*
X8880D01*
Y1301D01*
X8871D01*
Y1292D01*
X8861D01*
Y1283D01*
X8852D01*
Y1273D01*
X8843D01*
Y1264D01*
X8833D01*
Y1255D01*
X8824D01*
Y1245D01*
X8815D01*
Y1236D01*
X8805D01*
Y1227D01*
X8796D01*
Y1217D01*
X8787D01*
Y1208D01*
X8777D01*
Y1199D01*
X8768D01*
X8759D01*
Y1189D01*
X8749D01*
Y1180D01*
X8740D01*
Y1171D01*
X8731D01*
Y1161D01*
X8721D01*
Y1152D01*
X8712D01*
Y1143D01*
X8703D01*
Y1133D01*
X8693D01*
X8684D01*
Y1124D01*
X8675D01*
Y1115D01*
X8665D01*
Y1105D01*
X8656D01*
Y1096D01*
X8647D01*
Y1087D01*
X8637D01*
Y1068D01*
X8628D01*
Y1058D01*
X8619D01*
Y1040D01*
X8609D01*
Y1030D01*
X8600D01*
Y1021D01*
X8591D01*
Y1012D01*
X8581D01*
Y1002D01*
X8572D01*
Y993D01*
X8562D01*
Y984D01*
X8553D01*
Y974D01*
X8544D01*
Y965D01*
X8534D01*
Y956D01*
X8525D01*
Y946D01*
X8516D01*
Y937D01*
X8506D01*
Y918D01*
X8497D01*
Y900D01*
X8488D01*
Y872D01*
X8497D01*
X8506D01*
X8516D01*
Y890D01*
X8525D01*
X8534D01*
Y909D01*
X8544D01*
Y918D01*
X8553D01*
Y928D01*
X8562D01*
Y937D01*
X8572D01*
Y946D01*
X8581D01*
Y956D01*
X8591D01*
Y965D01*
X8600D01*
Y974D01*
X8609D01*
Y984D01*
X8619D01*
Y993D01*
X8628D01*
Y1002D01*
X8637D01*
Y1012D01*
X8647D01*
Y1021D01*
X8656D01*
X8665D01*
Y1030D01*
X8675D01*
Y1040D01*
X8684D01*
Y1049D01*
X8693D01*
Y1058D01*
X8703D01*
Y1068D01*
X8712D01*
Y1077D01*
X8721D01*
Y1087D01*
X8731D01*
Y1096D01*
X8740D01*
Y1105D01*
X8749D01*
X8759D01*
Y1115D01*
X8768D01*
Y1124D01*
X8777D01*
Y1133D01*
X8787D01*
Y1143D01*
X8796D01*
Y1152D01*
X8805D01*
X8815D01*
Y1171D01*
X8824D01*
X8833D01*
Y1180D01*
X8843D01*
Y1189D01*
X8852D01*
Y1199D01*
X8861D01*
Y1208D01*
X8871D01*
Y1217D01*
X8880D01*
Y1227D01*
X8889D01*
Y1236D01*
X8899D01*
Y1245D01*
X8908D01*
Y1255D01*
X8917D01*
Y1264D01*
X8927D01*
Y1273D01*
X8936D01*
Y1283D01*
X8945D01*
Y1292D01*
X8955D01*
Y1301D01*
X8964D01*
Y1311D01*
X8973D01*
Y1320D01*
X8983D01*
Y1329D01*
X8992D01*
Y1339D01*
X9001D01*
Y1348D01*
X9011D01*
Y1357D01*
X9020D01*
Y1367D01*
X9029D01*
Y1376D01*
X9039D01*
Y1385D01*
X9048D01*
X9057D01*
Y1395D01*
X9067D01*
Y1404D01*
X9076D01*
Y1413D01*
X9085D01*
Y1423D01*
X9095D01*
Y1432D01*
X9104D01*
Y1441D01*
X9113D01*
Y1451D01*
X9123D01*
X9132D01*
Y1460D01*
X9141D01*
Y1469D01*
X9151D01*
Y1479D01*
X9160D01*
Y1488D01*
X9169D01*
Y1497D01*
X9179D01*
Y1507D01*
X9188D01*
Y1516D01*
X9198D01*
Y1525D01*
X9207D01*
Y1535D01*
X9216D01*
X9226D01*
Y1544D01*
X9235D01*
Y1553D01*
X9244D01*
Y1563D01*
X9254D01*
Y1572D01*
X9263D01*
Y1581D01*
X9272D01*
Y1591D01*
X9282D01*
Y1600D01*
X9291D01*
Y1609D01*
X9300D01*
Y1619D01*
X9310D01*
Y1628D01*
X9319D01*
Y1637D01*
X9328D01*
X9338D01*
Y1656D01*
X9347D01*
X9356D01*
Y1675D01*
X9366D01*
X9375D01*
Y1684D01*
X9384D01*
Y1694D01*
X9394D01*
Y1703D01*
X9403D01*
X9412D01*
Y1712D01*
X9422D01*
Y1722D01*
X9431D01*
Y1731D01*
X9440D01*
X9450D01*
X9459D01*
Y1740D01*
X9468D01*
X9478D01*
X9487D01*
Y1750D01*
X9496D01*
X9506D01*
Y1759D01*
X9515D01*
X9524D01*
Y1768D01*
X9534D01*
X9543D01*
Y1778D01*
X9552D01*
X9562D01*
X9571D01*
Y1787D01*
X9580D01*
X9590D01*
Y1796D01*
X9599D01*
X9608D01*
Y1806D01*
X9618D01*
X9627D01*
Y1815D01*
X9636D01*
X9646D01*
Y1824D01*
X9655D01*
X9664D01*
Y1834D01*
X9674D01*
X9683D01*
X9692D01*
Y1843D01*
X9702D01*
X9711D01*
Y1852D01*
X9720D01*
X9730D01*
Y1862D01*
X9739D01*
X9748D01*
Y1871D01*
X9758D01*
Y1880D01*
X9767D01*
X9776D01*
Y1890D01*
X9786D01*
Y1899D01*
X9795D01*
X9805D01*
Y1908D01*
X9814D01*
Y1918D01*
X9823D01*
X9833D01*
Y1927D01*
X9842D01*
Y1936D01*
X9851D01*
X9861D01*
Y1946D01*
X9870D01*
Y1955D01*
X9879D01*
Y1964D01*
X9889D01*
X9898D01*
Y1974D01*
X9907D01*
Y1983D01*
X9917D01*
Y1992D01*
X9926D01*
Y2002D01*
X9935D01*
Y2020D01*
X9945D01*
Y2067D01*
X9935D01*
Y2076D01*
X9926D01*
X9917D01*
X9907D01*
X9898D01*
X9889D01*
X9879D01*
X9870D01*
Y2067D01*
X9861D01*
X9851D01*
X9842D01*
X9833D01*
Y2058D01*
X9823D01*
X9814D01*
Y2048D01*
X9805D01*
X9795D01*
X9786D01*
Y2039D01*
X9776D01*
Y2030D01*
X9767D01*
X9758D01*
Y2020D01*
X9748D01*
X9739D01*
Y2011D01*
X9730D01*
Y2002D01*
X9720D01*
X9711D01*
Y1992D01*
X9702D01*
X9692D01*
Y1983D01*
X9683D01*
Y1974D01*
X9674D01*
X9664D01*
Y1964D01*
X9655D01*
Y1955D01*
X9646D01*
X9636D01*
Y1946D01*
X9627D01*
Y1936D01*
X9618D01*
Y1927D01*
X9608D01*
X9599D01*
Y1918D01*
X9590D01*
Y1908D01*
X9580D01*
X9571D01*
Y1899D01*
X9562D01*
Y1890D01*
X9552D01*
Y1880D01*
X9543D01*
X9534D01*
Y1871D01*
X9524D01*
Y1862D01*
X9515D01*
X9506D01*
Y1852D01*
X9496D01*
Y1843D01*
X9487D01*
Y1834D01*
X9478D01*
X9468D01*
Y1824D01*
X9459D01*
Y1815D01*
X9450D01*
X9440D01*
Y1806D01*
X9431D01*
X9422D01*
Y1796D01*
X9412D01*
X9403D01*
X9394D01*
Y1787D01*
X9384D01*
X9375D01*
X9366D01*
Y1778D01*
X9356D01*
X9347D01*
Y1768D01*
X9338D01*
X9328D01*
X9319D01*
Y1759D01*
X9310D01*
X9300D01*
X9291D01*
Y1750D01*
X9282D01*
X9272D01*
X9263D01*
Y1740D01*
X9254D01*
X9244D01*
X9235D01*
Y1731D01*
X9226D01*
X9216D01*
X9207D01*
Y1722D01*
X9198D01*
X9188D01*
X9179D01*
Y1712D01*
X9169D01*
X9160D01*
X9151D01*
Y1703D01*
X9141D01*
X9132D01*
X9123D01*
X9113D01*
Y1694D01*
X9104D01*
X9095D01*
X9085D01*
X9076D01*
Y1684D01*
X9067D01*
X9057D01*
X9048D01*
X9039D01*
Y1675D01*
X9029D01*
X9020D01*
X9011D01*
X9001D01*
Y1665D01*
X8992D01*
X8983D01*
X8973D01*
X8964D01*
X8955D01*
Y1656D01*
X8945D01*
X8936D01*
X8927D01*
X8917D01*
X8908D01*
X8899D01*
Y1647D01*
X8889D01*
X8880D01*
X8871D01*
X8861D01*
X8852D01*
X8843D01*
X8833D01*
X8824D01*
Y1675D01*
X8833D01*
Y1684D01*
X8843D01*
Y1694D01*
X8852D01*
Y1703D01*
X8861D01*
Y1712D01*
X8871D01*
Y1731D01*
X8880D01*
Y1740D01*
X8889D01*
Y1750D01*
X8899D01*
X8908D01*
Y1759D01*
X8917D01*
Y1768D01*
X8927D01*
Y1778D01*
X8936D01*
Y1787D01*
X8945D01*
Y1796D01*
X8955D01*
Y1806D01*
X8964D01*
Y1815D01*
X8973D01*
X8983D01*
Y1824D01*
X8992D01*
Y1834D01*
X9001D01*
Y1843D01*
X9011D01*
X9020D01*
Y1852D01*
X9029D01*
X9039D01*
Y1862D01*
X9048D01*
X9057D01*
Y1871D01*
X9067D01*
X9076D01*
Y1880D01*
X9085D01*
X9095D01*
Y1890D01*
X9104D01*
Y1899D01*
X9113D01*
X9123D01*
Y1908D01*
X9132D01*
X9141D01*
Y1918D01*
X9151D01*
X9160D01*
Y1927D01*
X9169D01*
X9179D01*
Y1936D01*
X9188D01*
X9198D01*
Y1946D01*
X9207D01*
X9216D01*
Y1955D01*
X9226D01*
X9235D01*
Y1964D01*
X9244D01*
X9254D01*
Y1974D01*
X9263D01*
X9272D01*
Y1983D01*
X9282D01*
Y1992D01*
X9291D01*
X9300D01*
X9310D01*
Y2002D01*
X9319D01*
Y2011D01*
X9328D01*
X9338D01*
X9347D01*
Y2020D01*
X9356D01*
Y2030D01*
X9366D01*
X9375D01*
X9384D01*
Y2039D01*
X9394D01*
Y2048D01*
X9403D01*
X9412D01*
X9422D01*
Y2058D01*
X9431D01*
Y2067D01*
X9440D01*
X9450D01*
X9459D01*
Y2076D01*
X9468D01*
Y2086D01*
X9478D01*
X9487D01*
Y2095D01*
X9496D01*
X9506D01*
Y2104D01*
X9515D01*
X9524D01*
Y2114D01*
X9534D01*
X9543D01*
Y2123D01*
X9552D01*
X9562D01*
Y2132D01*
X9571D01*
X9580D01*
Y2142D01*
X9590D01*
X9599D01*
Y2151D01*
X9608D01*
Y2160D01*
X9618D01*
X9627D01*
Y2170D01*
X9636D01*
X9646D01*
Y2179D01*
X9655D01*
X9664D01*
Y2188D01*
X9674D01*
X9683D01*
Y2198D01*
X9692D01*
X9702D01*
Y2207D01*
X9711D01*
Y2216D01*
X9720D01*
X9730D01*
Y2226D01*
X9739D01*
X9748D01*
Y2235D01*
X9758D01*
X9767D01*
Y2244D01*
X9776D01*
X9786D01*
Y2254D01*
X9795D01*
Y2263D01*
X9805D01*
X9814D01*
Y2272D01*
X9823D01*
X9833D01*
Y2282D01*
X9842D01*
X9851D01*
Y2291D01*
X9861D01*
X9870D01*
Y2301D01*
X9879D01*
Y2310D01*
X9889D01*
X9898D01*
Y2319D01*
X9907D01*
X9917D01*
Y2329D01*
X9926D01*
X9935D01*
Y2338D01*
X9945D01*
Y2347D01*
X9954D01*
X9963D01*
Y2357D01*
X9973D01*
Y2366D01*
X9982D01*
X9991D01*
Y2375D01*
X10001D01*
Y2385D01*
X10010D01*
X10019D01*
Y2394D01*
X10029D01*
Y2403D01*
X10038D01*
Y2413D01*
X10047D01*
Y2459D01*
X10038D01*
Y2469D01*
X10029D01*
X10019D01*
X10010D01*
X10001D01*
X9991D01*
X9982D01*
Y2459D01*
X9973D01*
X9963D01*
X9954D01*
Y2450D01*
X9945D01*
X9935D01*
Y2441D01*
X9926D01*
X9917D01*
Y2431D01*
X9907D01*
X9898D01*
Y2422D01*
X9889D01*
X9879D01*
X9870D01*
Y2413D01*
X9861D01*
X9851D01*
Y2403D01*
X9842D01*
X9833D01*
X9823D01*
Y2394D01*
X9814D01*
X9805D01*
Y2385D01*
X9795D01*
X9786D01*
Y2375D01*
X9776D01*
X9767D01*
X9758D01*
Y2366D01*
X9748D01*
X9739D01*
Y2357D01*
X9730D01*
X9720D01*
Y2347D01*
X9711D01*
X9702D01*
Y2338D01*
X9692D01*
X9683D01*
Y2329D01*
X9674D01*
X9664D01*
X9655D01*
Y2319D01*
X9646D01*
X9636D01*
Y2310D01*
X9627D01*
X9618D01*
Y2301D01*
X9608D01*
X9599D01*
Y2291D01*
X9590D01*
X9580D01*
Y2282D01*
X9571D01*
X9562D01*
Y2272D01*
X9552D01*
X9543D01*
X9534D01*
Y2263D01*
X9524D01*
X9515D01*
Y2254D01*
X9506D01*
X9496D01*
Y2244D01*
X9487D01*
Y2235D01*
X9478D01*
X9468D01*
Y2226D01*
X9459D01*
X9450D01*
Y2216D01*
X9440D01*
X9431D01*
Y2207D01*
X9422D01*
Y2198D01*
X9412D01*
X9403D01*
Y2188D01*
X9394D01*
X9384D01*
Y2179D01*
X9375D01*
X9366D01*
Y2170D01*
X9356D01*
Y2160D01*
X9347D01*
X9338D01*
Y2151D01*
X9328D01*
X9319D01*
Y2142D01*
X9310D01*
X9300D01*
Y2132D01*
X9291D01*
Y2123D01*
X9282D01*
X9272D01*
Y2114D01*
X9263D01*
X9254D01*
Y2104D01*
X9244D01*
X9235D01*
Y2095D01*
X9226D01*
Y2086D01*
X9216D01*
X9207D01*
Y2076D01*
X9198D01*
Y2067D01*
X9188D01*
X9179D01*
Y2058D01*
X9169D01*
Y2048D01*
X9160D01*
Y2039D01*
X9151D01*
X9141D01*
Y2030D01*
X9132D01*
Y2020D01*
X9123D01*
X9113D01*
Y2011D01*
X9104D01*
Y2002D01*
X9095D01*
X9085D01*
Y1992D01*
X9076D01*
Y1983D01*
X9067D01*
Y1974D01*
X9057D01*
X9048D01*
Y1964D01*
X9039D01*
Y1955D01*
X9029D01*
Y1946D01*
X9020D01*
X9011D01*
Y1936D01*
X9001D01*
Y1927D01*
X8992D01*
X8983D01*
Y1918D01*
X8973D01*
Y1908D01*
X8964D01*
Y1899D01*
X8955D01*
X8945D01*
Y1890D01*
X8936D01*
X8927D01*
Y1880D01*
X8917D01*
X8908D01*
Y1871D01*
X8899D01*
X8889D01*
Y1862D01*
X8880D01*
X8871D01*
X8861D01*
Y1852D01*
X8852D01*
X8843D01*
Y1843D01*
X8833D01*
X8824D01*
Y1834D01*
X8815D01*
X8805D01*
Y1824D01*
X8796D01*
X8787D01*
Y1815D01*
X8777D01*
X8768D01*
Y1806D01*
X8759D01*
X8749D01*
Y1796D01*
X8740D01*
X8731D01*
Y1787D01*
X8721D01*
X8712D01*
Y1796D01*
X8721D01*
Y1806D01*
X8731D01*
Y1815D01*
X8740D01*
X8749D01*
Y1824D01*
X8759D01*
Y1834D01*
X8768D01*
X8777D01*
Y1843D01*
X8787D01*
Y1852D01*
X8796D01*
X8805D01*
Y1862D01*
X8815D01*
Y1871D01*
X8824D01*
X8833D01*
Y1880D01*
X8843D01*
Y1890D01*
X8852D01*
Y1899D01*
X8861D01*
X8871D01*
Y1908D01*
X8880D01*
Y1918D01*
X8889D01*
Y1927D01*
X8899D01*
Y1936D01*
X8908D01*
Y1946D01*
X8917D01*
Y1992D01*
X8908D01*
Y2002D01*
X8899D01*
Y2011D01*
X8889D01*
X8880D01*
X8871D01*
X8861D01*
X8852D01*
Y2002D01*
X8843D01*
X8833D01*
Y1992D01*
X8824D01*
X8815D01*
X8805D01*
Y1983D01*
X8796D01*
X8787D01*
Y1974D01*
X8777D01*
X8768D01*
Y1983D01*
X8777D01*
Y1992D01*
X8787D01*
Y2002D01*
X8796D01*
X8805D01*
Y2011D01*
X8815D01*
Y2020D01*
X8824D01*
Y2030D01*
X8833D01*
Y2039D01*
X8843D01*
Y2048D01*
X8852D01*
X8861D01*
Y2058D01*
X8871D01*
Y2067D01*
X8880D01*
Y2076D01*
X8889D01*
X8899D01*
Y2086D01*
X8908D01*
Y2095D01*
X8917D01*
Y2104D01*
X8927D01*
Y2114D01*
X8936D01*
Y2132D01*
X8927D01*
Y2151D01*
X8917D01*
X8908D01*
X8899D01*
Y2142D01*
X8889D01*
X8880D01*
Y2132D01*
X8871D01*
X8861D01*
X8852D01*
X8843D01*
Y2123D01*
X8833D01*
X8824D01*
X8815D01*
X8805D01*
X8796D01*
X8787D01*
X8777D01*
Y2170D01*
X8787D01*
Y2188D01*
X8796D01*
Y2198D01*
X8805D01*
X8815D01*
Y2207D01*
X8824D01*
Y2216D01*
X8833D01*
Y2226D01*
X8843D01*
Y2235D01*
X8852D01*
Y2244D01*
X8861D01*
Y2254D01*
X8871D01*
Y2263D01*
X8880D01*
Y2272D01*
X8889D01*
Y2282D01*
X8899D01*
Y2291D01*
X8908D01*
X8917D01*
Y2301D01*
X8927D01*
X8936D01*
Y2310D01*
X8945D01*
X8955D01*
X8964D01*
Y2319D01*
X8973D01*
X8983D01*
Y2329D01*
X8992D01*
X9001D01*
X9011D01*
Y2338D01*
X9020D01*
X9029D01*
Y2347D01*
X9039D01*
X9048D01*
X9057D01*
Y2357D01*
X9067D01*
X9076D01*
Y2366D01*
X9085D01*
X9095D01*
Y2375D01*
X9104D01*
X9113D01*
Y2385D01*
X9123D01*
X9132D01*
X9141D01*
Y2394D01*
X9151D01*
X9160D01*
Y2403D01*
X9169D01*
X9179D01*
Y2413D01*
X9188D01*
X9198D01*
Y2422D01*
X9207D01*
X9216D01*
Y2431D01*
X9226D01*
X9235D01*
Y2441D01*
X9244D01*
X9254D01*
X9263D01*
Y2450D01*
X9272D01*
X9282D01*
Y2459D01*
X9291D01*
X9300D01*
Y2469D01*
X9310D01*
X9319D01*
Y2478D01*
X9328D01*
X9338D01*
Y2487D01*
X9347D01*
X9356D01*
Y2497D01*
X9366D01*
X9375D01*
Y2506D01*
X9384D01*
X9394D01*
Y2515D01*
X9403D01*
X9412D01*
Y2525D01*
X9422D01*
X9431D01*
Y2534D01*
X9440D01*
X9450D01*
Y2543D01*
X9459D01*
X9468D01*
Y2553D01*
X9478D01*
X9487D01*
Y2562D01*
X9496D01*
X9506D01*
Y2571D01*
X9515D01*
X9524D01*
Y2581D01*
X9534D01*
X9543D01*
Y2590D01*
X9552D01*
X9562D01*
Y2599D01*
X9571D01*
Y2609D01*
X9580D01*
X9590D01*
Y2618D01*
X9599D01*
X9608D01*
Y2627D01*
X9618D01*
X9627D01*
Y2637D01*
X9636D01*
X9646D01*
Y2646D01*
X9655D01*
X9664D01*
Y2655D01*
X9674D01*
Y2665D01*
X9683D01*
X9692D01*
Y2674D01*
X9702D01*
X9711D01*
Y2683D01*
X9720D01*
X9730D01*
Y2693D01*
X9739D01*
Y2702D01*
X9748D01*
X9758D01*
Y2711D01*
X9767D01*
X9776D01*
Y2721D01*
X9786D01*
Y2730D01*
X9795D01*
X9805D01*
Y2739D01*
X9814D01*
X9823D01*
Y2749D01*
X9833D01*
Y2758D01*
X9842D01*
X9851D01*
Y2767D01*
X9861D01*
Y2777D01*
X9870D01*
X9879D01*
Y2786D01*
X9889D01*
X9898D01*
Y2795D01*
X9907D01*
Y2805D01*
X9917D01*
X9926D01*
Y2814D01*
X9935D01*
Y2823D01*
X9945D01*
Y2833D01*
X9954D01*
Y2842D01*
X9963D01*
Y2851D01*
X9973D01*
Y2861D01*
X9982D01*
Y2870D01*
X9991D01*
Y2908D01*
X9982D01*
Y2917D01*
X9973D01*
Y2926D01*
X9963D01*
X9954D01*
X9945D01*
X9935D01*
Y2917D01*
X9926D01*
X9917D01*
X9907D01*
Y2908D01*
X9898D01*
X9889D01*
Y2898D01*
X9879D01*
X9870D01*
X9861D01*
Y2889D01*
X9851D01*
X9842D01*
Y2879D01*
X9833D01*
X9823D01*
Y2870D01*
X9814D01*
X9805D01*
X9795D01*
Y2861D01*
X9786D01*
X9776D01*
Y2851D01*
X9767D01*
X9758D01*
Y2842D01*
X9748D01*
X9739D01*
Y2833D01*
X9730D01*
X9720D01*
X9711D01*
Y2823D01*
X9702D01*
X9692D01*
Y2814D01*
X9683D01*
X9674D01*
Y2805D01*
X9664D01*
X9655D01*
Y2795D01*
X9646D01*
X9636D01*
Y2786D01*
X9627D01*
X9618D01*
X9608D01*
Y2777D01*
X9599D01*
X9590D01*
Y2767D01*
X9580D01*
X9571D01*
Y2758D01*
X9562D01*
X9552D01*
Y2749D01*
X9543D01*
X9534D01*
Y2739D01*
X9524D01*
X9515D01*
Y2730D01*
X9506D01*
X9496D01*
Y2721D01*
X9487D01*
X9478D01*
X9468D01*
Y2711D01*
X9459D01*
X9450D01*
Y2702D01*
X9440D01*
Y2693D01*
X9431D01*
X9422D01*
Y2683D01*
X9412D01*
X9403D01*
Y2674D01*
X9394D01*
X9384D01*
Y2665D01*
X9375D01*
X9366D01*
Y2655D01*
X9356D01*
X9347D01*
Y2646D01*
X9338D01*
Y2637D01*
X9328D01*
X9319D01*
Y2627D01*
X9310D01*
X9300D01*
Y2618D01*
X9291D01*
Y2609D01*
X9282D01*
X9272D01*
Y2599D01*
X9263D01*
X9254D01*
Y2590D01*
X9244D01*
Y2581D01*
X9235D01*
X9226D01*
Y2571D01*
X9216D01*
X9207D01*
Y2562D01*
X9198D01*
X9188D01*
Y2553D01*
X9179D01*
Y2543D01*
X9169D01*
X9160D01*
Y2534D01*
X9151D01*
X9141D01*
Y2525D01*
X9132D01*
Y2515D01*
X9123D01*
X9113D01*
Y2506D01*
X9104D01*
Y2497D01*
X9095D01*
X9085D01*
Y2487D01*
X9076D01*
Y2478D01*
X9067D01*
Y2469D01*
X9057D01*
X9048D01*
Y2459D01*
X9039D01*
Y2450D01*
X9029D01*
X9020D01*
Y2441D01*
X9011D01*
Y2431D01*
X9001D01*
Y2422D01*
X8992D01*
Y2413D01*
X8983D01*
X8973D01*
Y2403D01*
X8964D01*
Y2394D01*
X8955D01*
X8945D01*
X8936D01*
Y2385D01*
X8927D01*
X8917D01*
Y2375D01*
X8908D01*
X8899D01*
X8889D01*
Y2366D01*
X8880D01*
X8871D01*
Y2357D01*
X8861D01*
X8852D01*
X8843D01*
Y2347D01*
X8833D01*
X8824D01*
X8815D01*
Y2338D01*
X8805D01*
X8796D01*
Y2329D01*
X8787D01*
X8777D01*
X8768D01*
Y2319D01*
X8759D01*
X8749D01*
X8740D01*
Y2310D01*
X8731D01*
X8721D01*
Y2301D01*
X8712D01*
X8703D01*
X8693D01*
Y2291D01*
X8684D01*
X8675D01*
X8665D01*
Y2282D01*
X8656D01*
X8647D01*
Y2272D01*
X8637D01*
X8628D01*
X8619D01*
Y2263D01*
X8609D01*
X8600D01*
X8591D01*
Y2254D01*
X8581D01*
X8572D01*
Y2244D01*
X8562D01*
X8553D01*
X8544D01*
Y2235D01*
X8534D01*
X8525D01*
X8516D01*
Y2226D01*
X8506D01*
X8497D01*
X8488D01*
Y2216D01*
X8478D01*
X8469D01*
Y2207D01*
X8460D01*
X8450D01*
X8441D01*
Y2198D01*
X8432D01*
X8422D01*
X8413D01*
Y2188D01*
X8404D01*
X8394D01*
X8385D01*
Y2179D01*
X8376D01*
X8366D01*
X8357D01*
Y2170D01*
X8348D01*
X8338D01*
X8329D01*
Y2160D01*
X8320D01*
X8310D01*
X8301D01*
Y2151D01*
X8292D01*
X8282D01*
X8273D01*
Y2142D01*
X8264D01*
X8254D01*
X8245D01*
Y2132D01*
X8236D01*
X8226D01*
X8217D01*
Y2123D01*
X8208D01*
X8198D01*
X8189D01*
Y2114D01*
X8180D01*
X8170D01*
X8161D01*
Y2104D01*
X8152D01*
X8142D01*
X8133D01*
Y2095D01*
X8124D01*
X8114D01*
X8105D01*
X8096D01*
Y2086D01*
X8086D01*
X8077D01*
X8068D01*
Y2076D01*
X8058D01*
X8049D01*
X8040D01*
Y2067D01*
X8030D01*
X8021D01*
X8012D01*
Y2058D01*
X8002D01*
X7993D01*
X7984D01*
Y2048D01*
X7974D01*
X7965D01*
X7955D01*
X7946D01*
Y2039D01*
X7937D01*
X7927D01*
X7918D01*
Y2030D01*
X7909D01*
X7899D01*
X7890D01*
Y2020D01*
X7881D01*
X7871D01*
X7862D01*
Y2011D01*
X7853D01*
X7843D01*
X7834D01*
X7825D01*
Y2002D01*
X7815D01*
X7806D01*
X7797D01*
Y1992D01*
X7787D01*
X7778D01*
X7769D01*
X7759D01*
Y1983D01*
X7750D01*
X7741D01*
X7731D01*
Y1974D01*
X7722D01*
X7713D01*
X7703D01*
X7694D01*
Y1964D01*
X7685D01*
X7675D01*
X7666D01*
Y1955D01*
X7657D01*
X7647D01*
X7638D01*
X7629D01*
Y1946D01*
X7619D01*
X7610D01*
X7601D01*
X7591D01*
Y1936D01*
X7582D01*
X7573D01*
X7563D01*
X7554D01*
Y1946D01*
X7563D01*
X7573D01*
Y1955D01*
X7582D01*
X7591D01*
Y1964D01*
X7601D01*
X7610D01*
Y1974D01*
X7619D01*
X7629D01*
Y1983D01*
X7638D01*
X7647D01*
Y1992D01*
X7657D01*
X7666D01*
Y2002D01*
X7675D01*
X7685D01*
Y2011D01*
X7694D01*
X7703D01*
Y2020D01*
X7713D01*
X7722D01*
Y2030D01*
X7731D01*
X7741D01*
Y2039D01*
X7750D01*
X7759D01*
Y2048D01*
X7769D01*
X7778D01*
Y2058D01*
X7787D01*
X7797D01*
Y2067D01*
X7806D01*
X7815D01*
Y2076D01*
X7825D01*
X7834D01*
Y2086D01*
X7843D01*
X7853D01*
Y2095D01*
X7862D01*
Y2104D01*
X7871D01*
X7881D01*
Y2114D01*
X7890D01*
X7899D01*
Y2123D01*
X7909D01*
X7918D01*
Y2132D01*
X7927D01*
X7937D01*
Y2142D01*
X7946D01*
Y2151D01*
X7955D01*
X7965D01*
Y2160D01*
X7974D01*
X7984D01*
Y2170D01*
X7993D01*
X8002D01*
Y2179D01*
X8012D01*
Y2188D01*
X8021D01*
X8030D01*
Y2198D01*
X8040D01*
X8049D01*
Y2207D01*
X8058D01*
Y2216D01*
X8068D01*
X8077D01*
Y2226D01*
X8086D01*
Y2235D01*
X8096D01*
X8105D01*
Y2244D01*
X8114D01*
X8124D01*
Y2254D01*
X8133D01*
X8142D01*
Y2263D01*
X8152D01*
Y2272D01*
X8161D01*
X8170D01*
Y2282D01*
X8180D01*
Y2291D01*
X8189D01*
X8198D01*
Y2301D01*
X8208D01*
X8217D01*
Y2310D01*
X8226D01*
X8236D01*
Y2319D01*
X8245D01*
Y2329D01*
X8254D01*
X8264D01*
Y2338D01*
X8273D01*
Y2347D01*
X8282D01*
X8292D01*
Y2357D01*
X8301D01*
X8310D01*
Y2366D01*
X8320D01*
X8329D01*
Y2375D01*
X8338D01*
Y2385D01*
X8348D01*
X8357D01*
Y2394D01*
X8366D01*
Y2403D01*
X8376D01*
X8385D01*
Y2413D01*
X8394D01*
Y2422D01*
X8404D01*
X8413D01*
Y2431D01*
X8422D01*
X8432D01*
Y2441D01*
X8441D01*
Y2450D01*
X8450D01*
X8460D01*
Y2459D01*
X8469D01*
Y2469D01*
X8478D01*
X8488D01*
Y2478D01*
X8497D01*
Y2487D01*
X8506D01*
X8516D01*
Y2497D01*
X8525D01*
X8534D01*
Y2506D01*
X8544D01*
X8553D01*
Y2515D01*
X8562D01*
Y2525D01*
X8572D01*
X8581D01*
Y2534D01*
X8591D01*
Y2543D01*
X8600D01*
X8609D01*
Y2553D01*
X8619D01*
Y2562D01*
X8628D01*
X8637D01*
Y2571D01*
X8647D01*
Y2581D01*
X8656D01*
X8665D01*
Y2590D01*
X8675D01*
X8684D01*
Y2599D01*
X8693D01*
Y2609D01*
X8703D01*
X8712D01*
Y2590D01*
X8703D01*
Y2571D01*
X8693D01*
Y2506D01*
X8703D01*
Y2497D01*
X8712D01*
Y2487D01*
X8721D01*
Y2478D01*
X8731D01*
X8740D01*
Y2469D01*
X8749D01*
X8759D01*
Y2478D01*
X8768D01*
X8777D01*
X8787D01*
Y2487D01*
X8796D01*
X8805D01*
Y2497D01*
X8815D01*
Y2506D01*
X8824D01*
Y2515D01*
X8833D01*
Y2525D01*
X8843D01*
Y2534D01*
X8852D01*
Y2543D01*
X8861D01*
Y2562D01*
X8871D01*
Y2571D01*
X8880D01*
Y2590D01*
X8889D01*
Y2599D01*
X8899D01*
Y2618D01*
X8908D01*
Y2683D01*
X8917D01*
Y2711D01*
X8927D01*
Y2721D01*
X8917D01*
Y2739D01*
X8927D01*
Y2758D01*
X8936D01*
Y2795D01*
X8945D01*
Y2861D01*
X8955D01*
Y2908D01*
X8964D01*
X8973D01*
X8983D01*
Y2917D01*
X8992D01*
Y2964D01*
X8983D01*
Y2973D01*
X8973D01*
Y2982D01*
X8964D01*
Y2992D01*
X8955D01*
Y3001D01*
X8945D01*
X8936D01*
Y3010D01*
X8927D01*
X8917D01*
Y3038D01*
X8927D01*
Y3057D01*
X8936D01*
Y3066D01*
X8945D01*
Y3085D01*
X8955D01*
Y3094D01*
X8964D01*
Y3104D01*
X8973D01*
Y3113D01*
X8983D01*
Y3132D01*
X8992D01*
Y3141D01*
X9001D01*
Y3150D01*
X9011D01*
Y3160D01*
X9020D01*
Y3169D01*
X9029D01*
Y3188D01*
X9039D01*
Y3197D01*
X9048D01*
Y3206D01*
X9057D01*
Y3216D01*
X9067D01*
Y3225D01*
X9076D01*
Y3244D01*
X9085D01*
Y3253D01*
X9095D01*
Y3262D01*
X9104D01*
Y3272D01*
X9113D01*
Y3281D01*
X9123D01*
Y3290D01*
X9132D01*
Y3300D01*
X9141D01*
Y3309D01*
X9151D01*
Y3318D01*
X9160D01*
Y3328D01*
X9169D01*
Y3337D01*
X9179D01*
Y3346D01*
X9188D01*
Y3356D01*
X9198D01*
Y3365D01*
X9207D01*
Y3384D01*
X9216D01*
X9226D01*
Y3402D01*
X9235D01*
Y3412D01*
X9244D01*
Y3421D01*
X9254D01*
Y3430D01*
X9263D01*
Y3440D01*
X9272D01*
Y3449D01*
X9282D01*
Y3458D01*
X9291D01*
Y3468D01*
X9300D01*
Y3477D01*
X9310D01*
Y3486D01*
X9319D01*
Y3496D01*
X9328D01*
Y3505D01*
X9338D01*
Y3515D01*
X9347D01*
Y3524D01*
X9356D01*
X9366D01*
Y3533D01*
X9375D01*
Y3543D01*
X9384D01*
Y3552D01*
X9394D01*
X9403D01*
Y3561D01*
X9412D01*
Y3571D01*
X9422D01*
X9431D01*
Y3580D01*
X9440D01*
Y3589D01*
X9450D01*
Y3599D01*
X9459D01*
Y3608D01*
X9468D01*
X9478D01*
Y3617D01*
X9487D01*
Y3627D01*
X9496D01*
Y3636D01*
X9506D01*
Y3645D01*
X9515D01*
X9524D01*
Y3655D01*
X9534D01*
Y3664D01*
X9543D01*
Y3673D01*
X9552D01*
Y3683D01*
X9562D01*
Y3692D01*
X9571D01*
X9580D01*
Y3701D01*
X9590D01*
Y3711D01*
X9599D01*
Y3720D01*
X9608D01*
Y3729D01*
X9618D01*
X9627D01*
Y3739D01*
X9636D01*
Y3748D01*
X9646D01*
Y3757D01*
X9655D01*
Y3767D01*
X9664D01*
Y3776D01*
X9674D01*
X9683D01*
Y3785D01*
X9692D01*
Y3795D01*
X9702D01*
Y3804D01*
X9711D01*
Y3813D01*
X9720D01*
Y3823D01*
X9730D01*
Y3832D01*
X9739D01*
Y3841D01*
X9748D01*
X9758D01*
Y3851D01*
X9767D01*
Y3860D01*
X9776D01*
Y3869D01*
X9786D01*
Y3879D01*
X9795D01*
Y3888D01*
X9805D01*
Y3897D01*
X9814D01*
Y3907D01*
X9823D01*
Y3916D01*
X9833D01*
X9842D01*
Y3935D01*
X9851D01*
X9861D01*
Y3953D01*
X9870D01*
X9879D01*
Y3972D01*
X9889D01*
X9898D01*
Y3981D01*
X9907D01*
Y4000D01*
X9917D01*
Y4009D01*
X9926D01*
Y4019D01*
X9935D01*
Y4028D01*
X9945D01*
Y4037D01*
X9954D01*
Y4047D01*
X9963D01*
Y4056D01*
X9973D01*
Y4065D01*
X9982D01*
Y4075D01*
X9991D01*
Y4093D01*
X10001D01*
Y4103D01*
X10010D01*
Y4112D01*
X10019D01*
Y4131D01*
X10029D01*
Y4150D01*
X10038D01*
Y4168D01*
X10047D01*
Y4187D01*
X10057D01*
Y4215D01*
X10047D01*
D02*
G37*
%LPC*%
G36*
X9263Y1665D02*
Y1656D01*
X9254D01*
Y1665D01*
X9263D01*
D02*
G37*
G36*
X9748Y2786D02*
Y2777D01*
X9739D01*
Y2767D01*
X9730D01*
X9720D01*
Y2758D01*
X9711D01*
X9702D01*
Y2749D01*
X9692D01*
Y2739D01*
X9683D01*
X9674D01*
Y2730D01*
X9664D01*
X9655D01*
Y2721D01*
X9646D01*
X9636D01*
Y2711D01*
X9627D01*
X9618D01*
Y2702D01*
X9608D01*
X9599D01*
Y2693D01*
X9590D01*
X9580D01*
Y2683D01*
X9571D01*
X9562D01*
Y2674D01*
X9552D01*
X9543D01*
Y2665D01*
X9534D01*
X9524D01*
Y2655D01*
X9515D01*
X9506D01*
Y2646D01*
X9496D01*
X9487D01*
Y2637D01*
X9478D01*
X9468D01*
Y2627D01*
X9459D01*
X9450D01*
Y2618D01*
X9440D01*
X9431D01*
Y2609D01*
X9422D01*
X9412D01*
Y2599D01*
X9403D01*
X9394D01*
Y2590D01*
X9384D01*
X9375D01*
Y2581D01*
X9366D01*
X9356D01*
Y2571D01*
X9347D01*
X9338D01*
Y2562D01*
X9328D01*
X9319D01*
Y2553D01*
X9310D01*
X9300D01*
Y2543D01*
X9291D01*
X9282D01*
Y2534D01*
X9272D01*
X9263D01*
Y2525D01*
X9254D01*
X9244D01*
Y2515D01*
X9235D01*
X9226D01*
Y2506D01*
X9216D01*
X9207D01*
X9198D01*
Y2515D01*
X9207D01*
Y2525D01*
X9216D01*
X9226D01*
Y2534D01*
X9235D01*
X9244D01*
Y2543D01*
X9254D01*
Y2553D01*
X9263D01*
X9272D01*
Y2562D01*
X9282D01*
X9291D01*
Y2571D01*
X9300D01*
Y2581D01*
X9310D01*
X9319D01*
Y2590D01*
X9328D01*
X9338D01*
Y2599D01*
X9347D01*
X9356D01*
Y2609D01*
X9366D01*
Y2618D01*
X9375D01*
X9384D01*
Y2627D01*
X9394D01*
X9403D01*
Y2637D01*
X9412D01*
X9422D01*
Y2646D01*
X9431D01*
X9440D01*
Y2655D01*
X9450D01*
X9459D01*
Y2665D01*
X9468D01*
Y2674D01*
X9478D01*
X9487D01*
Y2683D01*
X9496D01*
X9506D01*
X9515D01*
Y2693D01*
X9524D01*
X9534D01*
Y2702D01*
X9543D01*
X9552D01*
Y2711D01*
X9562D01*
X9571D01*
X9580D01*
Y2721D01*
X9590D01*
X9599D01*
Y2730D01*
X9608D01*
X9618D01*
Y2739D01*
X9627D01*
X9636D01*
X9646D01*
Y2749D01*
X9655D01*
X9664D01*
Y2758D01*
X9674D01*
X9683D01*
Y2767D01*
X9692D01*
X9702D01*
X9711D01*
Y2777D01*
X9720D01*
X9730D01*
Y2786D01*
X9739D01*
X9748D01*
D02*
G37*
G36*
X9198Y2506D02*
Y2497D01*
X9188D01*
X9179D01*
Y2506D01*
X9188D01*
X9198D01*
D02*
G37*
G36*
X9179Y2497D02*
Y2487D01*
X9169D01*
Y2497D01*
X9179D01*
D02*
G37*
%LPD*%
D13*
X2050Y3680D02*
X2308D01*
X1914Y3187D02*
Y3544D01*
X2050Y3680D01*
X1914Y1120D02*
Y1613D01*
X3292Y1120D02*
X3686D01*
Y1613D01*
Y3187D02*
Y3680D01*
X3292D02*
X3686D01*
X1914Y1120D02*
X2308D01*
D14*
X5000Y1636D02*
Y1426D01*
X5210Y1636D01*
X5262D01*
X5315Y1583D01*
Y1478D01*
X5262Y1426D01*
X5157Y1740D02*
Y1950D01*
X5315Y2055D02*
X5000D01*
Y2265D01*
X5210Y2423D02*
Y2528D01*
X5157Y2580D01*
X5000D01*
Y2423D01*
X5052Y2370D01*
X5105Y2423D01*
Y2580D01*
X5210Y2685D02*
X5052D01*
X5000Y2738D01*
Y2895D01*
X4948D01*
X4895Y2842D01*
Y2790D01*
X5000Y2895D02*
X5210D01*
X5000Y3157D02*
Y3052D01*
X5052Y3000D01*
X5157D01*
X5210Y3052D01*
Y3157D01*
X5157Y3210D01*
X5105D01*
Y3000D01*
X5210Y3315D02*
X5000D01*
X5105D01*
X5157Y3367D01*
X5210Y3420D01*
Y3472D01*
X5600Y1557D02*
X5915D01*
Y1714D01*
X5862Y1767D01*
X5757D01*
X5705Y1714D01*
Y1557D01*
X5810Y1872D02*
X5600D01*
X5705D01*
X5757Y1924D01*
X5810Y1977D01*
Y2029D01*
X5600Y2344D02*
Y2239D01*
X5652Y2187D01*
X5757D01*
X5810Y2239D01*
Y2344D01*
X5757Y2396D01*
X5705D01*
Y2187D01*
X5810Y2554D02*
Y2659D01*
X5757Y2711D01*
X5600D01*
Y2554D01*
X5652Y2501D01*
X5705Y2554D01*
Y2711D01*
X5600Y2816D02*
X5810D01*
Y2869D01*
X5757Y2921D01*
X5600D01*
X5757D01*
X5810Y2974D01*
X5757Y3026D01*
X5600D01*
X5495Y3131D02*
X5810D01*
Y3289D01*
X5757Y3341D01*
X5652D01*
X5600Y3289D01*
Y3131D01*
X6515Y1006D02*
Y796D01*
X6357D01*
Y901D01*
Y796D01*
X6200D01*
Y1111D02*
Y1216D01*
Y1163D01*
X6410D01*
Y1111D01*
X6200Y1373D02*
Y1478D01*
Y1426D01*
X6515D01*
Y1373D01*
X6462Y1688D02*
X6410D01*
Y1636D01*
Y1740D01*
Y1688D01*
X6252D01*
X6200Y1740D01*
Y2055D02*
Y1950D01*
X6252Y1898D01*
X6357D01*
X6410Y1950D01*
Y2055D01*
X6357Y2108D01*
X6305D01*
Y1898D01*
X6410Y2213D02*
X6200D01*
X6305D01*
X6357Y2265D01*
X6410Y2318D01*
Y2370D01*
X6357Y2528D02*
Y2738D01*
X6462Y3052D02*
X6515Y3000D01*
Y2895D01*
X6462Y2842D01*
X6410D01*
X6357Y2895D01*
Y3000D01*
X6305Y3052D01*
X6252D01*
X6200Y3000D01*
Y2895D01*
X6252Y2842D01*
X6095Y3157D02*
X6410D01*
Y3315D01*
X6357Y3367D01*
X6252D01*
X6200Y3315D01*
Y3157D01*
Y3472D02*
Y3577D01*
Y3525D01*
X6515D01*
Y3472D01*
X6200Y3735D02*
Y3840D01*
Y3787D01*
X6410D01*
Y3735D01*
X6462Y4049D02*
X6410D01*
Y3997D01*
Y4102D01*
Y4049D01*
X6252D01*
X6200Y4102D01*
X4294Y3412D02*
Y3281D01*
Y3347D01*
X3966D01*
X3900Y3281D01*
Y3216D01*
X3966Y3150D01*
X3900Y3544D02*
Y3675D01*
Y3609D01*
X4294D01*
X4228Y3544D01*
M02*
