M48
;Layer_Color=9474304
;FILE_FORMAT=2:4
INCH
;TYPE=PLATED
T1F00S00C0.0100
T2F00S00C0.0394
;TYPE=NON_PLATED
T3F00S00C0.0236
T4F00S00C0.0787
%
T01
X001900Y000400
X002650Y001750
Y002010
X002950Y002550
X002700Y003350
X002900Y004300
X002300
X002000Y003801
X003500Y004300
X004100
X004700
X005300
X005900
X006500
X007100
X007000Y002690
Y002110
Y001019
X005550Y000400
X004950
X004500Y001550
X004200
X001000Y002000
X000400
X000700Y002400
X001300
X001000Y002800
X000400
X006031Y003469
X007700Y004300
X008300
X008900
X009800Y003700
X010100Y003100
X010700
X011300
X011900
X011600Y003700
X011000
Y002500
X010400
X009800
X010100Y001900
X010700
X011300
X011900
X011600Y002500
Y001300
X011000
X010400
X009800
X009000Y000800
X008400
X008600Y000400
X008000
T02
X010832Y000900
X010595Y003900
T03
X002209Y001396
Y003404
T04
X000900Y000900
Y003900
M30
