G04*
G04 #@! TF.GenerationSoftware,Altium Limited,Altium Designer,18.1.7 (191)*
G04*
G04 Layer_Physical_Order=2*
G04 Layer_Color=16711680*
%FSLAX24Y24*%
%MOIN*%
G70*
G01*
G75*
%ADD11C,0.0100*%
%ADD22C,0.0394*%
%ADD23C,0.0236*%
%ADD25C,0.0120*%
%ADD33C,0.0787*%
%ADD34C,0.0200*%
%ADD35R,0.0630X0.0118*%
%ADD36R,0.0709X0.0315*%
G36*
X12350Y150D02*
X1436D01*
X1418Y200D01*
X1518Y282D01*
X1627Y414D01*
X1708Y565D01*
X1757Y729D01*
X1774Y900D01*
X1757Y1071D01*
X1708Y1235D01*
X1627Y1386D01*
X1518Y1518D01*
X1386Y1627D01*
X1235Y1708D01*
X1071Y1757D01*
X900Y1774D01*
X729Y1757D01*
X565Y1708D01*
X414Y1627D01*
X282Y1518D01*
X200Y1418D01*
X150Y1436D01*
X150Y3364D01*
X200Y3382D01*
X282Y3282D01*
X414Y3173D01*
X565Y3092D01*
X729Y3043D01*
X900Y3026D01*
X1071Y3043D01*
X1235Y3092D01*
X1386Y3173D01*
X1518Y3282D01*
X1627Y3414D01*
X1708Y3565D01*
X1757Y3729D01*
X1774Y3900D01*
X1757Y4071D01*
X1708Y4235D01*
X1627Y4386D01*
X1518Y4518D01*
X1418Y4600D01*
X1436Y4650D01*
X12350D01*
X12350Y150D01*
D02*
G37*
%LPC*%
G36*
X10595Y4169D02*
X10526Y4160D01*
X10461Y4133D01*
X10405Y4090D01*
X10362Y4035D01*
X10335Y3970D01*
X10326Y3900D01*
X10335Y3830D01*
X10362Y3765D01*
X10405Y3710D01*
X10461Y3667D01*
X10526Y3640D01*
X10595Y3631D01*
X10665Y3640D01*
X10730Y3667D01*
X10786Y3710D01*
X10828Y3765D01*
X10855Y3830D01*
X10864Y3900D01*
X10855Y3970D01*
X10828Y4035D01*
X10786Y4090D01*
X10730Y4133D01*
X10665Y4160D01*
X10595Y4169D01*
D02*
G37*
G36*
X7100Y4071D02*
X3194Y4071D01*
X3166Y4066D01*
X3143Y4050D01*
X3128Y4027D01*
X3122Y4000D01*
Y3907D01*
X2376D01*
Y3577D01*
X2326Y3553D01*
X2283Y3581D01*
X2209Y3596D01*
X2136Y3581D01*
X2074Y3540D01*
X2032Y3477D01*
X2018Y3404D01*
X2032Y3331D01*
X2074Y3268D01*
X2136Y3227D01*
X2209Y3212D01*
X2283Y3227D01*
X2345Y3268D01*
X2387Y3331D01*
X2401Y3404D01*
X2399Y3413D01*
X2431Y3452D01*
X2508D01*
X2537Y3402D01*
X2527Y3350D01*
X2540Y3284D01*
X2577Y3229D01*
X2577Y3228D01*
X2577Y3225D01*
X2578Y3221D01*
Y2350D01*
X2529Y2341D01*
X2476D01*
Y2350D01*
X2091D01*
X1706D01*
Y2301D01*
X1704Y2297D01*
X1699Y2270D01*
Y1750D01*
X1704Y1723D01*
X1706Y1719D01*
Y1680D01*
X1761D01*
X1770Y1679D01*
X2329Y1679D01*
X2379Y1629D01*
Y1600D01*
X2384Y1573D01*
X2400Y1550D01*
X2450Y1500D01*
X2473Y1484D01*
X2500Y1479D01*
X2800Y1479D01*
X2827Y1484D01*
X2850Y1500D01*
X2900Y1550D01*
X2916Y1573D01*
X2921Y1600D01*
X2921Y2042D01*
X2947Y2075D01*
X2953Y2081D01*
X3124D01*
Y1680D01*
X3822D01*
X3822Y1680D01*
X3823Y1680D01*
X3894D01*
Y1687D01*
X4027D01*
X4050Y1647D01*
X4051Y1632D01*
X4040Y1616D01*
X4027Y1550D01*
X4040Y1484D01*
X4077Y1427D01*
X4134Y1390D01*
X4200Y1377D01*
X4266Y1390D01*
X4323Y1427D01*
X4325Y1431D01*
X4375D01*
X4377Y1427D01*
X4434Y1390D01*
X4500Y1377D01*
X4566Y1390D01*
X4623Y1427D01*
X4660Y1484D01*
X4673Y1550D01*
X4660Y1616D01*
X4623Y1671D01*
X4623Y1672D01*
X4623Y1675D01*
X4622Y1679D01*
Y1807D01*
X4623D01*
X4612Y1890D01*
X4580Y1968D01*
X4528Y2035D01*
X4462Y2086D01*
X4384Y2118D01*
X4300Y2129D01*
Y2129D01*
X3894D01*
Y2531D01*
X3895Y2538D01*
Y3370D01*
X3897Y3390D01*
X3914Y3431D01*
X3942Y3460D01*
X3983Y3477D01*
X4004Y3479D01*
X5850Y3479D01*
X5857Y3469D01*
X5870Y3403D01*
X5908Y3347D01*
X5964Y3309D01*
X6031Y3296D01*
X6097Y3309D01*
X6137Y3336D01*
X6146Y3337D01*
X6500D01*
Y3336D01*
X6511Y3331D01*
X6516Y3319D01*
X6517D01*
Y2000D01*
X6518Y1998D01*
X6527Y1927D01*
X6555Y1859D01*
X6600Y1800D01*
X6659Y1755D01*
X6727Y1727D01*
X6798Y1718D01*
X6800Y1717D01*
X6850D01*
Y1716D01*
X6861Y1711D01*
X6866Y1700D01*
X6867D01*
Y1130D01*
X6867Y1127D01*
X6840Y1086D01*
X6827Y1019D01*
X6840Y953D01*
X6877Y897D01*
X6934Y859D01*
X7000Y846D01*
X7066Y859D01*
X7123Y897D01*
X7160Y953D01*
X7173Y1019D01*
X7160Y1086D01*
X7133Y1126D01*
X7133Y1135D01*
Y1700D01*
X7132Y1702D01*
X7123Y1773D01*
X7095Y1841D01*
X7050Y1900D01*
X6991Y1945D01*
X6923Y1973D01*
X6852Y1982D01*
X6850Y1983D01*
X6800D01*
Y1984D01*
X6789Y1989D01*
X6784Y2000D01*
X6783D01*
Y2429D01*
X7200D01*
X7227Y2434D01*
X7250Y2450D01*
X7266Y2473D01*
X7271Y2500D01*
Y3900D01*
X7266Y3927D01*
X7250Y3950D01*
X7150Y4050D01*
X7127Y4066D01*
X7100Y4071D01*
D02*
G37*
G36*
X2091Y3123D02*
X2074Y3120D01*
X1706D01*
Y3041D01*
X2091D01*
X2476D01*
Y3120D01*
X2109D01*
X2091Y3123D01*
D02*
G37*
G36*
X2476Y2941D02*
X2153D01*
X2153Y2934D01*
X2211D01*
X2200Y2933D01*
X2190Y2929D01*
X2181Y2923D01*
X2173Y2914D01*
X2166Y2904D01*
X2162Y2892D01*
X2166Y2881D01*
X2173Y2870D01*
X2181Y2861D01*
X2190Y2855D01*
X2200Y2852D01*
X2211Y2850D01*
X2153D01*
X2153Y2844D01*
X2476D01*
Y2941D01*
D02*
G37*
G36*
X2030D02*
X1706D01*
Y2844D01*
X2030D01*
X2029Y2850D01*
X1971D01*
X1983Y2852D01*
X1993Y2855D01*
X2002Y2861D01*
X2010Y2870D01*
X2016Y2881D01*
X2021Y2892D01*
X2016Y2904D01*
X2010Y2914D01*
X2002Y2923D01*
X1993Y2929D01*
X1983Y2933D01*
X1971Y2934D01*
X2029D01*
X2030Y2941D01*
D02*
G37*
G36*
X2476Y2744D02*
X2153D01*
X2153Y2737D01*
X2211D01*
X2200Y2736D01*
X2190Y2732D01*
X2181Y2726D01*
X2173Y2718D01*
X2166Y2707D01*
X2162Y2695D01*
X2166Y2684D01*
X2173Y2673D01*
X2181Y2664D01*
X2190Y2658D01*
X2200Y2655D01*
X2211Y2654D01*
X2153D01*
X2153Y2647D01*
X2476D01*
Y2665D01*
Y2744D01*
D02*
G37*
G36*
X2030D02*
X1706D01*
Y2665D01*
Y2647D01*
X2030D01*
X2029Y2654D01*
X1971D01*
X1983Y2655D01*
X1993Y2658D01*
X2002Y2664D01*
X2010Y2673D01*
X2016Y2684D01*
X2021Y2695D01*
X2016Y2707D01*
X2010Y2718D01*
X2002Y2726D01*
X1993Y2732D01*
X1983Y2736D01*
X1971Y2737D01*
X2029D01*
X2030Y2744D01*
D02*
G37*
G36*
X2476Y2547D02*
X2153D01*
X2153Y2540D01*
X2211D01*
X2200Y2539D01*
X2190Y2535D01*
X2181Y2529D01*
X2173Y2521D01*
X2166Y2510D01*
X2162Y2498D01*
X2166Y2487D01*
X2173Y2476D01*
X2181Y2468D01*
X2190Y2462D01*
X2200Y2458D01*
X2211Y2457D01*
X2153D01*
X2153Y2450D01*
X2476D01*
Y2547D01*
D02*
G37*
G36*
X2030D02*
X1706D01*
Y2450D01*
X2030D01*
X2029Y2457D01*
X1971D01*
X1983Y2458D01*
X1993Y2462D01*
X2002Y2468D01*
X2010Y2476D01*
X2016Y2487D01*
X2021Y2498D01*
X2016Y2510D01*
X2010Y2521D01*
X2002Y2529D01*
X1993Y2535D01*
X1983Y2539D01*
X1971Y2540D01*
X2029D01*
X2030Y2547D01*
D02*
G37*
G36*
X2209Y1588D02*
X2136Y1573D01*
X2074Y1532D01*
X2032Y1469D01*
X2018Y1396D01*
X2032Y1323D01*
X2074Y1260D01*
X2136Y1219D01*
X2209Y1204D01*
X2283Y1219D01*
X2326Y1247D01*
X2376Y1223D01*
Y893D01*
X3224D01*
Y1348D01*
X2431D01*
X2399Y1387D01*
X2401Y1396D01*
X2387Y1469D01*
X2345Y1532D01*
X2283Y1573D01*
X2209Y1588D01*
D02*
G37*
G36*
X10832Y1169D02*
X10762Y1160D01*
X10697Y1133D01*
X10641Y1090D01*
X10598Y1035D01*
X10572Y970D01*
X10562Y900D01*
X10572Y830D01*
X10598Y765D01*
X10641Y710D01*
X10697Y667D01*
X10762Y640D01*
X10832Y631D01*
X10901Y640D01*
X10966Y667D01*
X11022Y710D01*
X11065Y765D01*
X11091Y830D01*
X11101Y900D01*
X11091Y970D01*
X11065Y1035D01*
X11022Y1090D01*
X10966Y1133D01*
X10901Y1160D01*
X10832Y1169D01*
D02*
G37*
%LPD*%
G36*
X6104Y3538D02*
X6108Y3536D01*
X6112Y3534D01*
X6118Y3533D01*
X6124Y3532D01*
X6140Y3530D01*
X6159Y3530D01*
X6171Y3529D01*
Y3409D01*
X6159Y3409D01*
X6124Y3407D01*
X6118Y3406D01*
X6112Y3405D01*
X6108Y3403D01*
X6104Y3401D01*
X6102Y3399D01*
Y3539D01*
X6104Y3538D01*
D02*
G37*
G36*
X2766Y3274D02*
X2763Y3269D01*
X2760Y3264D01*
X2757Y3257D01*
X2755Y3250D01*
X2753Y3242D01*
X2752Y3234D01*
X2751Y3224D01*
X2750Y3203D01*
X2650D01*
X2650Y3214D01*
X2648Y3234D01*
X2647Y3242D01*
X2645Y3250D01*
X2643Y3257D01*
X2640Y3264D01*
X2637Y3269D01*
X2634Y3274D01*
X2630Y3279D01*
X2770D01*
X2766Y3274D01*
D02*
G37*
G36*
X7200Y3900D02*
Y2500D01*
X6783D01*
Y3319D01*
X6782Y3321D01*
X6773Y3393D01*
X6745Y3461D01*
X6700Y3519D01*
X6641Y3564D01*
X6573Y3592D01*
X6502Y3602D01*
X6500Y3602D01*
X6141D01*
X6138Y3602D01*
X6097Y3630D01*
X6031Y3643D01*
X5964Y3630D01*
X5908Y3592D01*
X5880Y3550D01*
X4000Y3550D01*
X3966Y3547D01*
X3902Y3520D01*
X3853Y3472D01*
X3827Y3408D01*
X3824Y3374D01*
Y2538D01*
X3194Y2538D01*
Y3452D01*
X3224D01*
Y3907D01*
X3194D01*
Y4000D01*
X7100Y4000D01*
X7200Y3900D01*
D02*
G37*
G36*
X3195Y2145D02*
X3194Y2147D01*
X3191Y2148D01*
X3186Y2149D01*
X3179Y2150D01*
X3159Y2152D01*
X3095Y2153D01*
Y2253D01*
X3114Y2253D01*
X3191Y2258D01*
X3194Y2260D01*
X3195Y2261D01*
Y2145D01*
D02*
G37*
G36*
X3823Y2063D02*
X3826Y2061D01*
X3831Y2060D01*
X3838Y2059D01*
X3858Y2058D01*
X3922Y2056D01*
Y1956D01*
X3903Y1956D01*
X3826Y1951D01*
X3823Y1950D01*
X3822Y1948D01*
Y2064D01*
X3823Y2063D01*
D02*
G37*
G36*
Y1866D02*
X3826Y1864D01*
X3831Y1863D01*
X3838Y1862D01*
X3858Y1861D01*
X3922Y1859D01*
Y1759D01*
X3903Y1759D01*
X3826Y1754D01*
X3823Y1753D01*
X3822Y1752D01*
Y1867D01*
X3823Y1866D01*
D02*
G37*
G36*
X4550Y1686D02*
X4552Y1666D01*
X4553Y1658D01*
X4555Y1650D01*
X4557Y1643D01*
X4560Y1636D01*
X4563Y1631D01*
X4566Y1626D01*
X4570Y1621D01*
X4430D01*
X4434Y1626D01*
X4437Y1631D01*
X4440Y1636D01*
X4443Y1643D01*
X4445Y1650D01*
X4447Y1658D01*
X4448Y1666D01*
X4449Y1676D01*
X4450Y1697D01*
X4550D01*
X4550Y1686D01*
D02*
G37*
G36*
X2622Y2220D02*
X2664Y2167D01*
X2717Y2126D01*
X2780Y2100D01*
X2847Y2091D01*
X2850Y2042D01*
X2850Y1600D01*
X2800Y1550D01*
X2500Y1550D01*
X2450Y1600D01*
X2450Y1706D01*
X2406Y1750D01*
X1770Y1750D01*
Y2270D01*
X2602D01*
X2622Y2220D01*
D02*
G37*
G36*
X7060Y1148D02*
X7063Y1113D01*
X7064Y1107D01*
X7065Y1101D01*
X7066Y1097D01*
X7068Y1093D01*
X7070Y1091D01*
X6930D01*
X6932Y1093D01*
X6934Y1097D01*
X6935Y1101D01*
X6936Y1107D01*
X6938Y1113D01*
X6939Y1129D01*
X6940Y1148D01*
X6940Y1159D01*
X7060D01*
X7060Y1148D01*
D02*
G37*
D11*
X2700Y2350D02*
G03*
X2847Y2203I147J0D01*
G01*
X3041Y2459D02*
G03*
X3183Y2400I141J141D01*
G01*
X4500Y1807D02*
G03*
X4300Y2006I-200J0D01*
G01*
X4200Y1659D02*
G03*
X4050Y1809I-150J0D01*
G01*
X2700Y2350D02*
Y3350D01*
X2847Y2203D02*
X3509D01*
X3183Y2400D02*
X3509D01*
X2950Y2550D02*
X3041Y2459D01*
X4500Y1550D02*
Y1807D01*
X3659Y2006D02*
X4300D01*
X4200Y1550D02*
Y1659D01*
X3659Y1809D02*
X4050D01*
D22*
X10832Y900D02*
D03*
X10595Y3900D02*
D03*
D23*
X2209Y1396D02*
D03*
Y3404D02*
D03*
D25*
X7000Y1700D02*
G03*
X6850Y1850I-150J0D01*
G01*
X6650Y3319D02*
G03*
X6500Y3469I-150J0D01*
G01*
X6650Y2000D02*
G03*
X6800Y1850I150J0D01*
G01*
X6031Y3469D02*
X6500D01*
X7000Y1019D02*
Y1700D01*
X6800Y1850D02*
X6850D01*
X6650Y2000D02*
Y3319D01*
X2091Y2794D02*
Y2991D01*
Y2597D02*
Y2794D01*
Y2400D02*
Y2597D01*
D33*
X900Y3900D02*
D03*
Y900D02*
D03*
D34*
X1900Y400D02*
D03*
X400Y2000D02*
D03*
X1000D02*
D03*
X1300Y2400D02*
D03*
X700D02*
D03*
X1000Y2800D02*
D03*
X400D02*
D03*
X2000Y3801D02*
D03*
X2300Y4300D02*
D03*
X2900D02*
D03*
X8300D02*
D03*
X9800Y2500D02*
D03*
X10100Y1900D02*
D03*
X11300D02*
D03*
X11900D02*
D03*
X11000Y1300D02*
D03*
X6500Y4300D02*
D03*
X4100D02*
D03*
X10400Y1300D02*
D03*
Y2500D02*
D03*
X10700Y1900D02*
D03*
X11600Y3700D02*
D03*
X10700Y3100D02*
D03*
X4700Y4300D02*
D03*
X5300D02*
D03*
X9800Y3700D02*
D03*
X11600Y2500D02*
D03*
X9800Y1300D02*
D03*
X11000Y3700D02*
D03*
X11300Y3100D02*
D03*
X7700Y4300D02*
D03*
X11600Y1300D02*
D03*
X11000Y2500D02*
D03*
X10100Y3100D02*
D03*
X11900D02*
D03*
X8900Y4300D02*
D03*
X3500D02*
D03*
X7100D02*
D03*
X5900D02*
D03*
X9000Y800D02*
D03*
X8400D02*
D03*
X7000Y1019D02*
D03*
X8000Y400D02*
D03*
X8600D02*
D03*
X4950D02*
D03*
X5550D02*
D03*
X7000Y2690D02*
D03*
X2650Y2010D02*
D03*
Y1750D02*
D03*
X2950Y2550D02*
D03*
X2700Y3350D02*
D03*
X7000Y2110D02*
D03*
X4500Y1550D02*
D03*
X4200D02*
D03*
X6031Y3469D02*
D03*
D35*
X2091Y2400D02*
D03*
Y2597D02*
D03*
Y2794D02*
D03*
Y2991D02*
D03*
Y2203D02*
D03*
Y2006D02*
D03*
Y1809D02*
D03*
X3509Y2400D02*
D03*
Y2597D02*
D03*
Y2794D02*
D03*
Y2991D02*
D03*
Y2203D02*
D03*
Y2006D02*
D03*
Y1809D02*
D03*
D36*
X2800Y3680D02*
D03*
Y1120D02*
D03*
M02*
