G04 Layer_Color=8388736*
%FSLAX24Y24*%
%MOIN*%
G70*
G01*
G75*
%ADD29R,0.0749X0.0512*%
%ADD30R,0.0650X0.0276*%
%ADD31R,0.0260X0.0620*%
%ADD32R,0.0304X0.0394*%
%ADD33O,0.0296X0.0690*%
%ADD34R,0.0316X0.0414*%
%ADD35R,0.0276X0.0434*%
%ADD36C,0.0720*%
%ADD37R,0.0720X0.0720*%
D29*
X12026Y7232D02*
D03*
Y4240D02*
D03*
Y2942D02*
D03*
Y737D02*
D03*
D30*
X10500Y4752D02*
D03*
Y5146D02*
D03*
Y5539D02*
D03*
Y5933D02*
D03*
Y6327D02*
D03*
Y6720D02*
D03*
Y1249D02*
D03*
Y1643D02*
D03*
Y2037D02*
D03*
Y2430D02*
D03*
D31*
X8874Y2870D02*
D03*
X8500D02*
D03*
X8126D02*
D03*
Y1930D02*
D03*
X8874D02*
D03*
D32*
X2719Y7250D02*
D03*
X3281D02*
D03*
X2719Y5050D02*
D03*
X3281D02*
D03*
Y5800D02*
D03*
X2719D02*
D03*
X4969Y1000D02*
D03*
X5531D02*
D03*
X4969Y1750D02*
D03*
X5531D02*
D03*
X8219Y4250D02*
D03*
X8781D02*
D03*
X5469Y6500D02*
D03*
X6031D02*
D03*
X8781Y5000D02*
D03*
X8219D02*
D03*
X8781Y7250D02*
D03*
X8219D02*
D03*
X6031D02*
D03*
X5469D02*
D03*
D33*
X4500Y2888D02*
D03*
X5000D02*
D03*
X5500D02*
D03*
X6000D02*
D03*
X4500Y5112D02*
D03*
X5000D02*
D03*
X5500D02*
D03*
X6000D02*
D03*
D34*
X8790Y1000D02*
D03*
X8210D02*
D03*
X6210Y1750D02*
D03*
X6790D02*
D03*
X8790Y5750D02*
D03*
X8210D02*
D03*
Y6500D02*
D03*
X8790D02*
D03*
X3290D02*
D03*
X2710D02*
D03*
X3290Y4300D02*
D03*
X2710D02*
D03*
Y1000D02*
D03*
X3290D02*
D03*
D35*
X3000Y2972D02*
D03*
X3374Y2028D02*
D03*
X2626D02*
D03*
D36*
X750Y2000D02*
D03*
Y3000D02*
D03*
Y4000D02*
D03*
Y6000D02*
D03*
D37*
Y1000D02*
D03*
Y7000D02*
D03*
M02*
