G04 Layer_Physical_Order=2*
G04 Layer_Color=16711680*
%FSLAX24Y24*%
%MOIN*%
G70*
G01*
G75*
%ADD17C,0.0100*%
%ADD19C,0.0680*%
%ADD20R,0.0680X0.0680*%
%ADD21C,0.0300*%
%ADD22C,0.0236*%
G36*
X12800Y200D02*
X200D01*
Y7800D01*
X12800D01*
Y200D01*
D02*
G37*
%LPC*%
G36*
X1190Y7440D02*
X310D01*
Y6560D01*
X1190D01*
Y7440D01*
D02*
G37*
G36*
X825Y6434D02*
Y6075D01*
X1184D01*
X1179Y6115D01*
X1134Y6222D01*
X1064Y6314D01*
X972Y6384D01*
X865Y6429D01*
X825Y6434D01*
D02*
G37*
G36*
X675D02*
X635Y6429D01*
X528Y6384D01*
X436Y6314D01*
X366Y6222D01*
X321Y6115D01*
X316Y6075D01*
X675D01*
Y6434D01*
D02*
G37*
G36*
X4575Y5990D02*
Y5825D01*
X4740D01*
X4735Y5848D01*
X4680Y5930D01*
X4598Y5985D01*
X4575Y5990D01*
D02*
G37*
G36*
X4425D02*
X4402Y5985D01*
X4320Y5930D01*
X4265Y5848D01*
X4260Y5825D01*
X4425D01*
Y5990D01*
D02*
G37*
G36*
X9350Y7105D02*
X9252Y7085D01*
X9170Y7030D01*
X9115Y6948D01*
X9095Y6850D01*
X9115Y6752D01*
X9170Y6670D01*
X9197Y6652D01*
Y6148D01*
X9170Y6130D01*
X9115Y6048D01*
X9095Y5950D01*
X9115Y5852D01*
X9170Y5770D01*
X9252Y5715D01*
X9350Y5695D01*
X9448Y5715D01*
X9530Y5770D01*
X9585Y5852D01*
X9605Y5950D01*
X9585Y6048D01*
X9530Y6130D01*
X9503Y6148D01*
Y6652D01*
X9530Y6670D01*
X9585Y6752D01*
X9605Y6850D01*
X9585Y6948D01*
X9530Y7030D01*
X9448Y7085D01*
X9350Y7105D01*
D02*
G37*
G36*
X1184Y5925D02*
X825D01*
Y5566D01*
X865Y5571D01*
X972Y5616D01*
X1064Y5686D01*
X1134Y5778D01*
X1179Y5885D01*
X1184Y5925D01*
D02*
G37*
G36*
X675D02*
X316D01*
X321Y5885D01*
X366Y5778D01*
X436Y5686D01*
X528Y5616D01*
X635Y5571D01*
X675Y5566D01*
Y5925D01*
D02*
G37*
G36*
X4740Y5675D02*
X4575D01*
Y5510D01*
X4598Y5515D01*
X4680Y5570D01*
X4735Y5652D01*
X4740Y5675D01*
D02*
G37*
G36*
X4425D02*
X4260D01*
X4265Y5652D01*
X4320Y5570D01*
X4402Y5515D01*
X4425Y5510D01*
Y5675D01*
D02*
G37*
G36*
X7000Y5505D02*
X6902Y5485D01*
X6820Y5430D01*
X6765Y5348D01*
X6745Y5250D01*
X6752Y5218D01*
X6492Y4958D01*
X6459Y4909D01*
X6447Y4850D01*
Y4698D01*
X6420Y4680D01*
X6365Y4598D01*
X6345Y4500D01*
X6365Y4402D01*
X6420Y4320D01*
X6502Y4265D01*
X6600Y4245D01*
X6698Y4265D01*
X6780Y4320D01*
X6835Y4402D01*
X6855Y4500D01*
X6835Y4598D01*
X6780Y4680D01*
X6764Y4691D01*
X6758Y4792D01*
X6968Y5002D01*
X7000Y4995D01*
X7098Y5015D01*
X7180Y5070D01*
X7235Y5152D01*
X7255Y5250D01*
X7235Y5348D01*
X7180Y5430D01*
X7098Y5485D01*
X7000Y5505D01*
D02*
G37*
G36*
X825Y4434D02*
Y4075D01*
X1184D01*
X1179Y4115D01*
X1134Y4222D01*
X1064Y4314D01*
X972Y4384D01*
X865Y4429D01*
X825Y4434D01*
D02*
G37*
G36*
X675D02*
X635Y4429D01*
X528Y4384D01*
X436Y4314D01*
X366Y4222D01*
X321Y4115D01*
X316Y4075D01*
X675D01*
Y4434D01*
D02*
G37*
G36*
X1184Y3925D02*
X825D01*
Y3566D01*
X865Y3571D01*
X972Y3616D01*
X1064Y3686D01*
X1134Y3778D01*
X1179Y3885D01*
X1184Y3925D01*
D02*
G37*
G36*
X675D02*
X316D01*
X321Y3885D01*
X366Y3778D01*
X436Y3686D01*
X528Y3616D01*
X635Y3571D01*
X675Y3566D01*
Y3925D01*
D02*
G37*
G36*
X8575Y3640D02*
Y3475D01*
X8740D01*
X8735Y3498D01*
X8680Y3580D01*
X8598Y3636D01*
X8575Y3640D01*
D02*
G37*
G36*
X8425D02*
X8402Y3636D01*
X8320Y3580D01*
X8265Y3498D01*
X8260Y3475D01*
X8425D01*
Y3640D01*
D02*
G37*
G36*
X8740Y3325D02*
X8575D01*
Y3160D01*
X8598Y3164D01*
X8680Y3220D01*
X8735Y3302D01*
X8740Y3325D01*
D02*
G37*
G36*
X8425D02*
X8260D01*
X8265Y3302D01*
X8320Y3220D01*
X8402Y3164D01*
X8425Y3160D01*
Y3325D01*
D02*
G37*
G36*
X7650Y3105D02*
X7552Y3086D01*
X7470Y3030D01*
X7452Y3003D01*
X6200D01*
X6141Y2991D01*
X6092Y2958D01*
X5563Y2429D01*
X5531Y2435D01*
X5433Y2416D01*
X5350Y2361D01*
X5295Y2278D01*
X5276Y2181D01*
X5295Y2083D01*
X5349Y2003D01*
X5345Y1986D01*
X5316Y1903D01*
X5013D01*
X4748Y2168D01*
X4755Y2200D01*
X4735Y2298D01*
X4680Y2380D01*
X4598Y2435D01*
X4500Y2455D01*
X4402Y2435D01*
X4320Y2380D01*
X4265Y2298D01*
X4245Y2200D01*
X4265Y2102D01*
X4320Y2020D01*
X4402Y1965D01*
X4500Y1945D01*
X4532Y1952D01*
X4842Y1642D01*
X4891Y1609D01*
X4950Y1597D01*
X9037D01*
X9283Y1351D01*
X9280Y1325D01*
X9225Y1283D01*
Y1000D01*
Y760D01*
X9248Y765D01*
X9330Y820D01*
X9385Y902D01*
X9398Y964D01*
X9482Y1012D01*
X9502Y1015D01*
X9502Y1015D01*
X9600Y995D01*
X9698Y1015D01*
X9780Y1070D01*
X9835Y1152D01*
X9855Y1250D01*
X9835Y1348D01*
X9780Y1430D01*
X9698Y1485D01*
X9600Y1505D01*
X9568Y1498D01*
X9208Y1858D01*
X9159Y1891D01*
X9100Y1903D01*
X5745D01*
X5716Y1986D01*
X5713Y2003D01*
X5766Y2083D01*
X5785Y2181D01*
X5779Y2213D01*
X6263Y2697D01*
X7452D01*
X7470Y2670D01*
X7552Y2614D01*
X7650Y2595D01*
X7748Y2614D01*
X7830Y2670D01*
X7885Y2752D01*
X7905Y2850D01*
X7885Y2948D01*
X7830Y3030D01*
X7748Y3086D01*
X7650Y3105D01*
D02*
G37*
G36*
X750Y3444D02*
X635Y3429D01*
X528Y3384D01*
X436Y3314D01*
X366Y3222D01*
X321Y3115D01*
X306Y3000D01*
X321Y2885D01*
X366Y2778D01*
X436Y2686D01*
X528Y2616D01*
X635Y2571D01*
X750Y2556D01*
X865Y2571D01*
X972Y2616D01*
X1064Y2686D01*
X1134Y2778D01*
X1179Y2885D01*
X1194Y3000D01*
X1179Y3115D01*
X1134Y3222D01*
X1064Y3314D01*
X972Y3384D01*
X865Y3429D01*
X750Y3444D01*
D02*
G37*
G36*
Y2444D02*
X635Y2429D01*
X528Y2384D01*
X436Y2314D01*
X366Y2222D01*
X321Y2115D01*
X306Y2000D01*
X321Y1885D01*
X366Y1778D01*
X436Y1686D01*
X528Y1616D01*
X635Y1571D01*
X750Y1556D01*
X865Y1571D01*
X972Y1616D01*
X1064Y1686D01*
X1134Y1778D01*
X1179Y1885D01*
X1194Y2000D01*
X1179Y2115D01*
X1134Y2222D01*
X1064Y2314D01*
X972Y2384D01*
X865Y2429D01*
X750Y2444D01*
D02*
G37*
G36*
X1190Y1440D02*
X825D01*
Y1075D01*
X1190D01*
Y1440D01*
D02*
G37*
G36*
X9075Y1240D02*
X9052Y1235D01*
X8970Y1180D01*
X8915Y1098D01*
X8910Y1075D01*
X9075D01*
Y1240D01*
D02*
G37*
G36*
X6285Y1207D02*
Y1075D01*
X6417D01*
X6415Y1085D01*
X6367Y1157D01*
X6295Y1205D01*
X6285Y1207D01*
D02*
G37*
G36*
X6135D02*
X6125Y1205D01*
X6052Y1157D01*
X6004Y1085D01*
X6002Y1075D01*
X6135D01*
Y1207D01*
D02*
G37*
G36*
X675Y1440D02*
X310D01*
Y1075D01*
X675D01*
Y1440D01*
D02*
G37*
G36*
X6417Y925D02*
X6285D01*
Y793D01*
X6295Y795D01*
X6367Y843D01*
X6415Y915D01*
X6417Y925D01*
D02*
G37*
G36*
X6135D02*
X6002D01*
X6004Y915D01*
X6052Y843D01*
X6125Y795D01*
X6135Y793D01*
Y925D01*
D02*
G37*
G36*
X9075D02*
X8910D01*
X8915Y902D01*
X8970Y820D01*
X9052Y765D01*
X9075Y760D01*
Y925D01*
D02*
G37*
G36*
X1190D02*
X825D01*
Y560D01*
X1190D01*
Y925D01*
D02*
G37*
G36*
X675D02*
X310D01*
Y560D01*
X675D01*
Y925D01*
D02*
G37*
%LPD*%
D17*
X6200Y2850D02*
X7650D01*
X5531Y2181D02*
X6200Y2850D01*
X4500Y2200D02*
X4950Y1750D01*
X6600Y4500D02*
Y4850D01*
X7000Y5250D01*
X4950Y1750D02*
X9100D01*
X9600Y1250D01*
X9350Y5950D02*
Y6850D01*
D19*
X750Y2000D02*
D03*
Y3000D02*
D03*
Y4000D02*
D03*
Y6000D02*
D03*
D20*
Y1000D02*
D03*
Y7000D02*
D03*
D21*
X7650Y2850D02*
D03*
X5531Y2181D02*
D03*
X4500Y2200D02*
D03*
X8500Y3400D02*
D03*
X6600Y4500D02*
D03*
X7000Y5250D02*
D03*
X9350Y6850D02*
D03*
X9150Y1000D02*
D03*
X9600Y1250D02*
D03*
X4500Y5750D02*
D03*
X9350Y5950D02*
D03*
D22*
X6210Y1000D02*
D03*
M02*
