G04*
G04 #@! TF.GenerationSoftware,Altium Limited,Altium Designer,18.1.7 (191)*
G04*
G04 Layer_Physical_Order=2*
G04 Layer_Color=16711680*
%FSLAX24Y24*%
%MOIN*%
G70*
G01*
G75*
%ADD14C,0.0236*%
%ADD16C,0.0100*%
%ADD17C,0.0100*%
%ADD21C,0.0591*%
%ADD22C,0.0787*%
%ADD23C,0.0200*%
G36*
X12350Y150D02*
X1631D01*
X1596Y250D01*
X1694Y370D01*
X1782Y535D01*
X1836Y714D01*
X1855Y900D01*
X1836Y1086D01*
X1782Y1265D01*
X1694Y1430D01*
X1575Y1575D01*
X1430Y1694D01*
X1265Y1782D01*
X1086Y1836D01*
X900Y1855D01*
X714Y1836D01*
X535Y1782D01*
X370Y1694D01*
X250Y1596D01*
X150Y1631D01*
Y3169D01*
X250Y3205D01*
X370Y3106D01*
X535Y3018D01*
X714Y2964D01*
X900Y2945D01*
X1086Y2964D01*
X1265Y3018D01*
X1430Y3106D01*
X1575Y3225D01*
X1694Y3370D01*
X1782Y3535D01*
X1836Y3714D01*
X1855Y3900D01*
X1836Y4086D01*
X1782Y4265D01*
X1694Y4430D01*
X1575Y4575D01*
X1430Y4694D01*
X1265Y4782D01*
X1086Y4836D01*
X900Y4855D01*
X714Y4836D01*
X535Y4782D01*
X370Y4694D01*
X250Y4596D01*
X150Y4631D01*
Y5369D01*
X250Y5404D01*
X370Y5306D01*
X535Y5218D01*
X714Y5164D01*
X900Y5145D01*
X1086Y5164D01*
X1265Y5218D01*
X1430Y5306D01*
X1575Y5425D01*
X1694Y5570D01*
X1782Y5735D01*
X1836Y5914D01*
X1855Y6100D01*
X1836Y6286D01*
X1782Y6465D01*
X1694Y6630D01*
X1575Y6775D01*
X1430Y6894D01*
X1265Y6982D01*
X1086Y7036D01*
X900Y7055D01*
X714Y7036D01*
X535Y6982D01*
X370Y6894D01*
X250Y6796D01*
X150Y6831D01*
Y8369D01*
X250Y8404D01*
X370Y8306D01*
X535Y8218D01*
X714Y8164D01*
X900Y8145D01*
X1086Y8164D01*
X1265Y8218D01*
X1430Y8306D01*
X1575Y8425D01*
X1694Y8570D01*
X1782Y8735D01*
X1836Y8914D01*
X1855Y9100D01*
X1836Y9286D01*
X1782Y9465D01*
X1694Y9630D01*
X1596Y9750D01*
X1631Y9850D01*
X12350D01*
Y150D01*
D02*
G37*
%LPC*%
G36*
X8550Y9362D02*
Y9050D01*
X8862D01*
X8856Y9095D01*
X8819Y9184D01*
X8761Y9261D01*
X8684Y9319D01*
X8595Y9356D01*
X8550Y9362D01*
D02*
G37*
G36*
X7550D02*
Y9050D01*
X7862D01*
X7856Y9095D01*
X7819Y9184D01*
X7761Y9261D01*
X7684Y9319D01*
X7595Y9356D01*
X7550Y9362D01*
D02*
G37*
G36*
X8450D02*
X8405Y9356D01*
X8316Y9319D01*
X8239Y9261D01*
X8181Y9184D01*
X8144Y9095D01*
X8138Y9050D01*
X8450D01*
Y9362D01*
D02*
G37*
G36*
X7450D02*
X7405Y9356D01*
X7316Y9319D01*
X7239Y9261D01*
X7181Y9184D01*
X7144Y9095D01*
X7138Y9050D01*
X7450D01*
Y9362D01*
D02*
G37*
G36*
X8862Y8950D02*
X8550D01*
Y8638D01*
X8595Y8644D01*
X8684Y8681D01*
X8761Y8739D01*
X8819Y8816D01*
X8856Y8905D01*
X8862Y8950D01*
D02*
G37*
G36*
X7862D02*
X7550D01*
Y8638D01*
X7595Y8644D01*
X7684Y8681D01*
X7761Y8739D01*
X7819Y8816D01*
X7856Y8905D01*
X7862Y8950D01*
D02*
G37*
G36*
X8450D02*
X8138D01*
X8144Y8905D01*
X8181Y8816D01*
X8239Y8739D01*
X8316Y8681D01*
X8405Y8644D01*
X8450Y8638D01*
Y8950D01*
D02*
G37*
G36*
X7450D02*
X7138D01*
X7144Y8905D01*
X7181Y8816D01*
X7239Y8739D01*
X7316Y8681D01*
X7405Y8644D01*
X7450Y8638D01*
Y8950D01*
D02*
G37*
G36*
X6550Y8362D02*
Y8050D01*
X6862D01*
X6856Y8095D01*
X6819Y8184D01*
X6761Y8261D01*
X6684Y8319D01*
X6595Y8356D01*
X6550Y8362D01*
D02*
G37*
G36*
X6450D02*
X6405Y8356D01*
X6316Y8319D01*
X6239Y8261D01*
X6181Y8184D01*
X6144Y8095D01*
X6138Y8050D01*
X6450D01*
Y8362D01*
D02*
G37*
G36*
X5550D02*
Y8050D01*
X5862D01*
X5856Y8095D01*
X5819Y8184D01*
X5761Y8261D01*
X5684Y8319D01*
X5595Y8356D01*
X5550Y8362D01*
D02*
G37*
G36*
X5450D02*
X5405Y8356D01*
X5316Y8319D01*
X5239Y8261D01*
X5181Y8184D01*
X5144Y8095D01*
X5138Y8050D01*
X5450D01*
Y8362D01*
D02*
G37*
G36*
X4550D02*
Y8050D01*
X4862D01*
X4856Y8095D01*
X4819Y8184D01*
X4761Y8261D01*
X4684Y8319D01*
X4595Y8356D01*
X4550Y8362D01*
D02*
G37*
G36*
X4450D02*
X4405Y8356D01*
X4316Y8319D01*
X4239Y8261D01*
X4181Y8184D01*
X4144Y8095D01*
X4138Y8050D01*
X4450D01*
Y8362D01*
D02*
G37*
G36*
X3550D02*
Y8050D01*
X3862D01*
X3856Y8095D01*
X3819Y8184D01*
X3761Y8261D01*
X3684Y8319D01*
X3595Y8356D01*
X3550Y8362D01*
D02*
G37*
G36*
X3450D02*
X3405Y8356D01*
X3316Y8319D01*
X3239Y8261D01*
X3181Y8184D01*
X3144Y8095D01*
X3138Y8050D01*
X3450D01*
Y8362D01*
D02*
G37*
G36*
X6862Y7950D02*
X6550D01*
Y7638D01*
X6595Y7644D01*
X6684Y7681D01*
X6761Y7739D01*
X6819Y7816D01*
X6856Y7905D01*
X6862Y7950D01*
D02*
G37*
G36*
X6450D02*
X6138D01*
X6144Y7905D01*
X6181Y7816D01*
X6239Y7739D01*
X6316Y7681D01*
X6405Y7644D01*
X6450Y7638D01*
Y7950D01*
D02*
G37*
G36*
X5862D02*
X5550D01*
Y7638D01*
X5595Y7644D01*
X5684Y7681D01*
X5761Y7739D01*
X5819Y7816D01*
X5856Y7905D01*
X5862Y7950D01*
D02*
G37*
G36*
X5450D02*
X5138D01*
X5144Y7905D01*
X5181Y7816D01*
X5239Y7739D01*
X5316Y7681D01*
X5405Y7644D01*
X5450Y7638D01*
Y7950D01*
D02*
G37*
G36*
X4862D02*
X4550D01*
Y7638D01*
X4595Y7644D01*
X4684Y7681D01*
X4761Y7739D01*
X4819Y7816D01*
X4856Y7905D01*
X4862Y7950D01*
D02*
G37*
G36*
X4450D02*
X4138D01*
X4144Y7905D01*
X4181Y7816D01*
X4239Y7739D01*
X4316Y7681D01*
X4405Y7644D01*
X4450Y7638D01*
Y7950D01*
D02*
G37*
G36*
X3862D02*
X3550D01*
Y7638D01*
X3595Y7644D01*
X3684Y7681D01*
X3761Y7739D01*
X3819Y7816D01*
X3856Y7905D01*
X3862Y7950D01*
D02*
G37*
G36*
X3450D02*
X3138D01*
X3144Y7905D01*
X3181Y7816D01*
X3239Y7739D01*
X3316Y7681D01*
X3405Y7644D01*
X3450Y7638D01*
Y7950D01*
D02*
G37*
G36*
X7500Y8368D02*
X7405Y8356D01*
X7316Y8319D01*
X7239Y8261D01*
X7181Y8184D01*
X7144Y8095D01*
X7132Y8000D01*
X7144Y7905D01*
X7181Y7816D01*
X7239Y7739D01*
X7316Y7681D01*
X7405Y7644D01*
X7500Y7632D01*
X7595Y7644D01*
X7684Y7681D01*
X7761Y7739D01*
X7819Y7816D01*
X7856Y7905D01*
X7868Y8000D01*
X7856Y8095D01*
X7819Y8184D01*
X7761Y8261D01*
X7684Y8319D01*
X7595Y8356D01*
X7500Y8368D01*
D02*
G37*
G36*
X6550Y7362D02*
Y7050D01*
X6862D01*
X6856Y7095D01*
X6819Y7184D01*
X6761Y7261D01*
X6684Y7319D01*
X6595Y7356D01*
X6550Y7362D01*
D02*
G37*
G36*
X6450D02*
X6405Y7356D01*
X6316Y7319D01*
X6239Y7261D01*
X6181Y7184D01*
X6144Y7095D01*
X6138Y7050D01*
X6450D01*
Y7362D01*
D02*
G37*
G36*
X6862Y6950D02*
X6550D01*
Y6638D01*
X6595Y6644D01*
X6684Y6681D01*
X6761Y6739D01*
X6819Y6816D01*
X6856Y6905D01*
X6862Y6950D01*
D02*
G37*
G36*
X6450D02*
X6138D01*
X6144Y6905D01*
X6181Y6816D01*
X6239Y6739D01*
X6316Y6681D01*
X6405Y6644D01*
X6450Y6638D01*
Y6950D01*
D02*
G37*
G36*
X7500Y7368D02*
X7405Y7356D01*
X7316Y7319D01*
X7239Y7261D01*
X7181Y7184D01*
X7144Y7095D01*
X7132Y7000D01*
X7144Y6905D01*
X7181Y6816D01*
X7239Y6739D01*
X7316Y6681D01*
X7405Y6644D01*
X7500Y6632D01*
X7595Y6644D01*
X7684Y6681D01*
X7761Y6739D01*
X7819Y6816D01*
X7856Y6905D01*
X7868Y7000D01*
X7856Y7095D01*
X7819Y7184D01*
X7761Y7261D01*
X7684Y7319D01*
X7595Y7356D01*
X7500Y7368D01*
D02*
G37*
G36*
X5500D02*
X5405Y7356D01*
X5316Y7319D01*
X5239Y7261D01*
X5181Y7184D01*
X5144Y7095D01*
X5132Y7000D01*
X5144Y6905D01*
X5181Y6816D01*
X5239Y6739D01*
X5316Y6681D01*
X5405Y6644D01*
X5500Y6632D01*
X5595Y6644D01*
X5684Y6681D01*
X5761Y6739D01*
X5819Y6816D01*
X5856Y6905D01*
X5868Y7000D01*
X5856Y7095D01*
X5819Y7184D01*
X5761Y7261D01*
X5684Y7319D01*
X5595Y7356D01*
X5500Y7368D01*
D02*
G37*
G36*
X4500D02*
X4405Y7356D01*
X4316Y7319D01*
X4239Y7261D01*
X4181Y7184D01*
X4144Y7095D01*
X4132Y7000D01*
X4144Y6905D01*
X4181Y6816D01*
X4239Y6739D01*
X4316Y6681D01*
X4405Y6644D01*
X4500Y6632D01*
X4595Y6644D01*
X4684Y6681D01*
X4761Y6739D01*
X4819Y6816D01*
X4856Y6905D01*
X4868Y7000D01*
X4856Y7095D01*
X4819Y7184D01*
X4761Y7261D01*
X4684Y7319D01*
X4595Y7356D01*
X4500Y7368D01*
D02*
G37*
G36*
X3500D02*
X3405Y7356D01*
X3316Y7319D01*
X3239Y7261D01*
X3181Y7184D01*
X3144Y7095D01*
X3132Y7000D01*
X3144Y6905D01*
X3181Y6816D01*
X3239Y6739D01*
X3316Y6681D01*
X3405Y6644D01*
X3500Y6632D01*
X3595Y6644D01*
X3684Y6681D01*
X3761Y6739D01*
X3819Y6816D01*
X3856Y6905D01*
X3868Y7000D01*
X3856Y7095D01*
X3819Y7184D01*
X3761Y7261D01*
X3684Y7319D01*
X3595Y7356D01*
X3500Y7368D01*
D02*
G37*
G36*
X8500Y8368D02*
X8405Y8356D01*
X8316Y8319D01*
X8239Y8261D01*
X8181Y8184D01*
X8144Y8095D01*
X8132Y8000D01*
X8144Y7905D01*
X8181Y7816D01*
X8239Y7739D01*
X8316Y7681D01*
X8405Y7644D01*
X8500Y7632D01*
X8595Y7644D01*
X8684Y7681D01*
X8761Y7739D01*
X8810Y7804D01*
X8875Y7810D01*
X8923Y7804D01*
X10322Y6405D01*
X10322Y6352D01*
X10245Y6337D01*
X10222Y6346D01*
X10200Y6375D01*
X10199Y6374D01*
X9574Y6999D01*
X9575Y7000D01*
X9488Y7067D01*
X9385Y7109D01*
X9276Y7124D01*
Y7122D01*
X8845D01*
X8819Y7184D01*
X8761Y7261D01*
X8684Y7319D01*
X8595Y7356D01*
X8500Y7368D01*
X8405Y7356D01*
X8316Y7319D01*
X8239Y7261D01*
X8181Y7184D01*
X8144Y7095D01*
X8132Y7000D01*
X8144Y6905D01*
X8181Y6816D01*
X8239Y6739D01*
X8316Y6681D01*
X8405Y6644D01*
X8500Y6632D01*
X8595Y6644D01*
X8684Y6681D01*
X8761Y6739D01*
X8819Y6816D01*
X8845Y6878D01*
X9276D01*
X9278Y6878D01*
X9344Y6865D01*
X9400Y6827D01*
X9401Y6826D01*
X9934Y6293D01*
X9922Y6243D01*
X9893Y6192D01*
X9836Y6181D01*
X9774Y6140D01*
X9732Y6077D01*
X9718Y6004D01*
X9732Y5931D01*
X9774Y5868D01*
X9836Y5827D01*
X9909Y5812D01*
X9978Y5826D01*
X9984Y5826D01*
X10078Y5770D01*
Y5424D01*
X10076D01*
X10091Y5315D01*
X10133Y5212D01*
X10200Y5125D01*
X10200Y5125D01*
X10239Y5060D01*
X10198Y4967D01*
X10181Y4963D01*
X10124Y4926D01*
X10087Y4869D01*
X10074Y4803D01*
X10074Y4803D01*
X9601Y4331D01*
X9600Y4332D01*
X9533Y4244D01*
X9491Y4142D01*
X9476Y4032D01*
X9478D01*
Y3428D01*
X9478Y3426D01*
X9465Y3360D01*
X9427Y3303D01*
X9426Y3302D01*
X8919Y2795D01*
X8834Y2852D01*
X8856Y2905D01*
X8868Y3000D01*
X8856Y3095D01*
X8819Y3184D01*
X8761Y3261D01*
X8684Y3319D01*
X8595Y3356D01*
X8500Y3368D01*
X8405Y3356D01*
X8316Y3319D01*
X8239Y3261D01*
X8237Y3257D01*
X8104Y3248D01*
X7819Y3534D01*
X7819Y3534D01*
X7756Y3582D01*
X7728Y3594D01*
X7723Y3604D01*
X7715Y3705D01*
X7761Y3739D01*
X7819Y3816D01*
X7856Y3905D01*
X7868Y4000D01*
X7856Y4095D01*
X7819Y4184D01*
X7761Y4261D01*
X7738Y4278D01*
X7772Y4378D01*
X7925D01*
X7929Y4378D01*
X7964Y4363D01*
X7966Y4361D01*
X8170Y4157D01*
X8144Y4095D01*
X8132Y4000D01*
X8144Y3905D01*
X8181Y3816D01*
X8239Y3739D01*
X8316Y3681D01*
X8405Y3644D01*
X8500Y3632D01*
X8595Y3644D01*
X8684Y3681D01*
X8761Y3739D01*
X8819Y3816D01*
X8856Y3905D01*
X8868Y4000D01*
X8856Y4095D01*
X8819Y4184D01*
X8761Y4261D01*
X8684Y4319D01*
X8595Y4356D01*
X8500Y4368D01*
X8405Y4356D01*
X8343Y4330D01*
X8139Y4534D01*
X8139Y4534D01*
X8077Y4582D01*
X8062Y4588D01*
X8019Y4606D01*
X8004Y4612D01*
X7925Y4623D01*
Y4622D01*
X7772D01*
X7738Y4722D01*
X7761Y4739D01*
X7819Y4816D01*
X7856Y4905D01*
X7868Y5000D01*
X7862Y5051D01*
X7956Y5097D01*
X8088Y4966D01*
X8087Y4966D01*
X8142Y4924D01*
X8144Y4905D01*
X8181Y4816D01*
X8239Y4739D01*
X8316Y4681D01*
X8405Y4644D01*
X8500Y4632D01*
X8595Y4644D01*
X8684Y4681D01*
X8761Y4739D01*
X8819Y4816D01*
X8856Y4905D01*
X8868Y5000D01*
X8856Y5095D01*
X8819Y5184D01*
X8761Y5261D01*
X8684Y5319D01*
X8595Y5356D01*
X8500Y5368D01*
X8405Y5356D01*
X8316Y5319D01*
X8239Y5261D01*
X8145Y5254D01*
X7866Y5534D01*
X7866Y5534D01*
X7804Y5582D01*
X7789Y5588D01*
X7749Y5605D01*
X7729Y5665D01*
X7727Y5714D01*
X7761Y5739D01*
X7819Y5816D01*
X7856Y5905D01*
X7868Y6000D01*
X7856Y6095D01*
X7819Y6184D01*
X7761Y6261D01*
X7684Y6319D01*
X7595Y6356D01*
X7500Y6368D01*
X7405Y6356D01*
X7316Y6319D01*
X7239Y6261D01*
X7181Y6184D01*
X7144Y6095D01*
X7132Y6000D01*
X7144Y5905D01*
X7181Y5816D01*
X7239Y5739D01*
X7262Y5722D01*
X7228Y5622D01*
X5699D01*
X5696Y5622D01*
X5660Y5637D01*
X5658Y5639D01*
X5264Y6034D01*
X5264Y6034D01*
X5201Y6082D01*
X5186Y6088D01*
X5143Y6106D01*
X5128Y6112D01*
X5050Y6123D01*
Y6122D01*
X3975D01*
Y6123D01*
X3896Y6112D01*
X3881Y6106D01*
X3823Y6082D01*
X3809Y6071D01*
X3800Y6073D01*
X3734Y6060D01*
X3697Y6036D01*
X3621Y6052D01*
X3588Y6069D01*
X3587Y6077D01*
X3545Y6140D01*
X3483Y6181D01*
X3409Y6196D01*
X3336Y6181D01*
X3274Y6140D01*
X3232Y6077D01*
X3218Y6004D01*
X3232Y5931D01*
X3274Y5868D01*
X3336Y5827D01*
X3409Y5812D01*
X3483Y5827D01*
X3533Y5860D01*
X3600Y5848D01*
X3640Y5834D01*
X3677Y5777D01*
X3734Y5740D01*
X3765Y5734D01*
X3812Y5691D01*
X3833Y5631D01*
X3827Y5600D01*
X3840Y5534D01*
X3877Y5477D01*
X3910Y5456D01*
X3917Y5428D01*
Y5372D01*
X3910Y5344D01*
X3877Y5323D01*
X3840Y5266D01*
X3827Y5200D01*
X3840Y5134D01*
X3877Y5077D01*
X3908Y5057D01*
X3913Y5037D01*
Y4966D01*
X3908Y4946D01*
X3877Y4926D01*
X3840Y4869D01*
X3827Y4803D01*
X3840Y4737D01*
X3872Y4689D01*
X3877Y4681D01*
X3877Y4573D01*
X3872Y4564D01*
X3840Y4516D01*
X3827Y4450D01*
X3840Y4384D01*
X3850Y4368D01*
X3850Y4365D01*
X3805Y4265D01*
X3781Y4260D01*
X3725Y4223D01*
X3687Y4166D01*
X3677Y4113D01*
X3675Y4104D01*
X3658Y4097D01*
X3577Y4084D01*
X3573Y4089D01*
X3545Y4132D01*
X3483Y4173D01*
X3409Y4188D01*
X3336Y4173D01*
X3274Y4132D01*
X3232Y4069D01*
X3218Y3996D01*
X3232Y3923D01*
X3274Y3860D01*
X3336Y3819D01*
X3409Y3804D01*
X3483Y3819D01*
X3545Y3860D01*
X3587Y3923D01*
X3599Y3987D01*
X3601Y3994D01*
X3609Y3998D01*
X3699Y4015D01*
X3704Y4008D01*
X3725Y3977D01*
X3781Y3940D01*
X3847Y3927D01*
X3848Y3927D01*
X4308Y3466D01*
X4308Y3466D01*
X4343Y3439D01*
X4342Y3350D01*
X4332Y3326D01*
X4316Y3319D01*
X4239Y3261D01*
X4181Y3184D01*
X4144Y3095D01*
X4138Y3050D01*
X4500D01*
X4862D01*
X4856Y3095D01*
X4819Y3184D01*
X4761Y3261D01*
X4738Y3278D01*
X4772Y3378D01*
X5228D01*
X5262Y3278D01*
X5239Y3261D01*
X5181Y3184D01*
X5144Y3095D01*
X5132Y3000D01*
X5144Y2905D01*
X5181Y2816D01*
X5239Y2739D01*
X5316Y2681D01*
X5405Y2644D01*
X5500Y2632D01*
X5595Y2644D01*
X5684Y2681D01*
X5761Y2739D01*
X5819Y2816D01*
X5856Y2905D01*
X5868Y3000D01*
X5856Y3095D01*
X5819Y3184D01*
X5761Y3261D01*
X5738Y3278D01*
X5772Y3378D01*
X6228D01*
X6262Y3278D01*
X6239Y3261D01*
X6181Y3184D01*
X6144Y3095D01*
X6132Y3000D01*
X6144Y2905D01*
X6181Y2816D01*
X6239Y2739D01*
X6316Y2681D01*
X6405Y2644D01*
X6500Y2632D01*
X6595Y2644D01*
X6684Y2681D01*
X6761Y2739D01*
X6819Y2816D01*
X6856Y2905D01*
X6868Y3000D01*
X6866Y3020D01*
X6961Y3066D01*
X7061Y2966D01*
X7061Y2966D01*
X7123Y2918D01*
X7143Y2910D01*
X7144Y2905D01*
X7181Y2816D01*
X7239Y2739D01*
X7316Y2681D01*
X7405Y2644D01*
X7500Y2632D01*
X7595Y2644D01*
X7684Y2681D01*
X7761Y2739D01*
X7819Y2816D01*
X7856Y2905D01*
X7868Y2997D01*
X7877Y3004D01*
X7964Y3043D01*
X8040Y2966D01*
X8040Y2966D01*
X8103Y2918D01*
X8118Y2912D01*
X8146Y2900D01*
X8181Y2816D01*
X8239Y2739D01*
X8262Y2722D01*
X8228Y2622D01*
X8124D01*
Y2624D01*
X8015Y2609D01*
X7912Y2567D01*
X7825Y2500D01*
X7826Y2499D01*
X7657Y2330D01*
X7595Y2356D01*
X7500Y2368D01*
X7405Y2356D01*
X7316Y2319D01*
X7239Y2261D01*
X7181Y2184D01*
X7144Y2095D01*
X7132Y2000D01*
X7144Y1905D01*
X7181Y1816D01*
X7239Y1739D01*
X7316Y1681D01*
X7405Y1644D01*
X7500Y1632D01*
X7595Y1644D01*
X7684Y1681D01*
X7761Y1739D01*
X7819Y1816D01*
X7856Y1905D01*
X7868Y2000D01*
X7856Y2095D01*
X7830Y2157D01*
X7999Y2326D01*
X8000Y2327D01*
X8056Y2365D01*
X8122Y2378D01*
X8124Y2378D01*
X8228D01*
X8262Y2278D01*
X8239Y2261D01*
X8181Y2184D01*
X8144Y2095D01*
X8132Y2000D01*
X8144Y1905D01*
X8181Y1816D01*
X8239Y1739D01*
X8262Y1722D01*
X8228Y1622D01*
X8124D01*
Y1624D01*
X8015Y1609D01*
X7912Y1567D01*
X7825Y1500D01*
X7826Y1499D01*
X7657Y1330D01*
X7595Y1356D01*
X7500Y1368D01*
X7405Y1356D01*
X7316Y1319D01*
X7239Y1261D01*
X7181Y1184D01*
X7144Y1095D01*
X7132Y1000D01*
X7144Y905D01*
X7181Y816D01*
X7239Y739D01*
X7316Y681D01*
X7405Y644D01*
X7500Y632D01*
X7595Y644D01*
X7684Y681D01*
X7761Y739D01*
X7819Y816D01*
X7856Y905D01*
X7868Y1000D01*
X7856Y1095D01*
X7830Y1157D01*
X7999Y1326D01*
X8000Y1327D01*
X8056Y1365D01*
X8122Y1378D01*
X8124Y1378D01*
X8228D01*
X8262Y1278D01*
X8239Y1261D01*
X8181Y1184D01*
X8144Y1095D01*
X8138Y1050D01*
X8500D01*
X8862D01*
X8856Y1095D01*
X8819Y1184D01*
X8761Y1261D01*
X8738Y1278D01*
X8772Y1378D01*
X9569D01*
Y1376D01*
X9679Y1391D01*
X9781Y1433D01*
X9869Y1500D01*
X9868Y1501D01*
X10245Y1879D01*
X10246Y1878D01*
X10314Y1966D01*
X10356Y2068D01*
X10370Y2177D01*
X10369D01*
Y4077D01*
X10369Y4077D01*
X10407Y4134D01*
X10412Y4159D01*
X10422Y4201D01*
X10500Y4236D01*
X10566Y4249D01*
X10623Y4287D01*
X10660Y4343D01*
X10673Y4409D01*
X10660Y4476D01*
X10623Y4532D01*
X10622Y4532D01*
Y4876D01*
X10624D01*
X10609Y4985D01*
X10567Y5088D01*
X10500Y5175D01*
X10500Y5175D01*
X10451Y5241D01*
X10497Y5327D01*
X10500Y5327D01*
X10566Y5340D01*
X10623Y5377D01*
X10660Y5434D01*
X10673Y5500D01*
X10660Y5566D01*
X10623Y5623D01*
X10622Y5623D01*
Y6276D01*
X10624D01*
X10609Y6385D01*
X10567Y6488D01*
X10500Y6575D01*
X10499Y6574D01*
X10499Y6574D01*
X9074Y7999D01*
X9075Y8000D01*
X8988Y8067D01*
X8885Y8109D01*
X8848Y8114D01*
X8819Y8184D01*
X8761Y8261D01*
X8684Y8319D01*
X8595Y8356D01*
X8500Y8368D01*
D02*
G37*
G36*
Y6368D02*
X8405Y6356D01*
X8316Y6319D01*
X8239Y6261D01*
X8181Y6184D01*
X8144Y6095D01*
X8132Y6000D01*
X8144Y5905D01*
X8181Y5816D01*
X8239Y5739D01*
X8316Y5681D01*
X8405Y5644D01*
X8500Y5632D01*
X8595Y5644D01*
X8684Y5681D01*
X8761Y5739D01*
X8819Y5816D01*
X8856Y5905D01*
X8868Y6000D01*
X8856Y6095D01*
X8819Y6184D01*
X8761Y6261D01*
X8684Y6319D01*
X8595Y6356D01*
X8500Y6368D01*
D02*
G37*
G36*
X3550Y3362D02*
Y3050D01*
X3862D01*
X3856Y3095D01*
X3819Y3184D01*
X3761Y3261D01*
X3684Y3319D01*
X3595Y3356D01*
X3550Y3362D01*
D02*
G37*
G36*
X3450D02*
X3405Y3356D01*
X3316Y3319D01*
X3239Y3261D01*
X3181Y3184D01*
X3144Y3095D01*
X3138Y3050D01*
X3450D01*
Y3362D01*
D02*
G37*
G36*
X4862Y2950D02*
X4550D01*
Y2638D01*
X4595Y2644D01*
X4684Y2681D01*
X4761Y2739D01*
X4819Y2816D01*
X4856Y2905D01*
X4862Y2950D01*
D02*
G37*
G36*
X3862D02*
X3550D01*
Y2638D01*
X3595Y2644D01*
X3684Y2681D01*
X3761Y2739D01*
X3819Y2816D01*
X3856Y2905D01*
X3862Y2950D01*
D02*
G37*
G36*
X4450D02*
X4138D01*
X4144Y2905D01*
X4181Y2816D01*
X4239Y2739D01*
X4316Y2681D01*
X4405Y2644D01*
X4450Y2638D01*
Y2950D01*
D02*
G37*
G36*
X3450D02*
X3138D01*
X3144Y2905D01*
X3181Y2816D01*
X3239Y2739D01*
X3316Y2681D01*
X3405Y2644D01*
X3450Y2638D01*
Y2950D01*
D02*
G37*
G36*
X4550Y2362D02*
Y2050D01*
X4862D01*
X4856Y2095D01*
X4819Y2184D01*
X4761Y2261D01*
X4684Y2319D01*
X4595Y2356D01*
X4550Y2362D01*
D02*
G37*
G36*
X3550D02*
Y2050D01*
X3862D01*
X3856Y2095D01*
X3819Y2184D01*
X3761Y2261D01*
X3684Y2319D01*
X3595Y2356D01*
X3550Y2362D01*
D02*
G37*
G36*
X3450D02*
X3405Y2356D01*
X3316Y2319D01*
X3239Y2261D01*
X3181Y2184D01*
X3144Y2095D01*
X3138Y2050D01*
X3450D01*
Y2362D01*
D02*
G37*
G36*
X4450D02*
X4405Y2356D01*
X4316Y2319D01*
X4239Y2261D01*
X4181Y2184D01*
X4144Y2095D01*
X4138Y2050D01*
X4450D01*
Y2362D01*
D02*
G37*
G36*
X3862Y1950D02*
X3550D01*
Y1638D01*
X3595Y1644D01*
X3684Y1681D01*
X3761Y1739D01*
X3819Y1816D01*
X3856Y1905D01*
X3862Y1950D01*
D02*
G37*
G36*
X4862D02*
X4550D01*
Y1638D01*
X4595Y1644D01*
X4684Y1681D01*
X4761Y1739D01*
X4819Y1816D01*
X4856Y1905D01*
X4862Y1950D01*
D02*
G37*
G36*
X4450D02*
X4138D01*
X4144Y1905D01*
X4181Y1816D01*
X4239Y1739D01*
X4316Y1681D01*
X4405Y1644D01*
X4450Y1638D01*
Y1950D01*
D02*
G37*
G36*
X3450D02*
X3138D01*
X3144Y1905D01*
X3181Y1816D01*
X3239Y1739D01*
X3316Y1681D01*
X3405Y1644D01*
X3450Y1638D01*
Y1950D01*
D02*
G37*
G36*
X6500Y2368D02*
X6405Y2356D01*
X6316Y2319D01*
X6239Y2261D01*
X6181Y2184D01*
X6144Y2095D01*
X6132Y2000D01*
X6144Y1905D01*
X6181Y1816D01*
X6239Y1739D01*
X6316Y1681D01*
X6405Y1644D01*
X6500Y1632D01*
X6595Y1644D01*
X6684Y1681D01*
X6761Y1739D01*
X6819Y1816D01*
X6856Y1905D01*
X6868Y2000D01*
X6856Y2095D01*
X6819Y2184D01*
X6761Y2261D01*
X6684Y2319D01*
X6595Y2356D01*
X6500Y2368D01*
D02*
G37*
G36*
X5500D02*
X5405Y2356D01*
X5316Y2319D01*
X5239Y2261D01*
X5181Y2184D01*
X5144Y2095D01*
X5132Y2000D01*
X5144Y1905D01*
X5181Y1816D01*
X5239Y1739D01*
X5316Y1681D01*
X5405Y1644D01*
X5500Y1632D01*
X5595Y1644D01*
X5684Y1681D01*
X5761Y1739D01*
X5819Y1816D01*
X5856Y1905D01*
X5868Y2000D01*
X5856Y2095D01*
X5819Y2184D01*
X5761Y2261D01*
X5684Y2319D01*
X5595Y2356D01*
X5500Y2368D01*
D02*
G37*
G36*
X8862Y950D02*
X8550D01*
Y638D01*
X8595Y644D01*
X8684Y681D01*
X8761Y739D01*
X8819Y816D01*
X8856Y905D01*
X8862Y950D01*
D02*
G37*
G36*
X8450D02*
X8138D01*
X8144Y905D01*
X8181Y816D01*
X8239Y739D01*
X8316Y681D01*
X8405Y644D01*
X8450Y638D01*
Y950D01*
D02*
G37*
%LPD*%
D14*
X9909Y6004D02*
D03*
Y3996D02*
D03*
X3409Y6004D02*
D03*
Y3996D02*
D03*
D16*
X10200Y6076D02*
G03*
X10112Y6288I-300J0D01*
G01*
X9488Y6912D02*
G03*
X9276Y7000I-212J-212D01*
G01*
X8053Y4447D02*
G03*
X7925Y4500I-127J-127D01*
G01*
X7211Y4544D02*
G03*
X7317Y4500I106J106D01*
G01*
X7198Y4556D02*
G03*
X7092Y4600I-106J-106D01*
G01*
X7044Y4156D02*
G03*
X6938Y4200I-106J-106D01*
G01*
X7156Y4044D02*
G03*
X7262Y4000I106J106D01*
G01*
X4603Y5147D02*
G03*
X4475Y5200I-127J-127D01*
G01*
X5097Y4653D02*
G03*
X5225Y4600I127J127D01*
G01*
X4350Y4750D02*
G03*
X4222Y4803I-127J-127D01*
G01*
X4847Y4253D02*
G03*
X4975Y4200I127J127D01*
G01*
X4547Y3903D02*
G03*
X4675Y3850I127J127D01*
G01*
X6883Y3797D02*
G03*
X6755Y3850I-127J-127D01*
G01*
X7127Y3553D02*
G03*
X7255Y3500I127J127D01*
G01*
X7732Y3447D02*
G03*
X7605Y3500I-127J-127D01*
G01*
X8127Y3053D02*
G03*
X8254Y3000I127J127D01*
G01*
X6753Y3447D02*
G03*
X6625Y3500I-127J-127D01*
G01*
X7147Y3053D02*
G03*
X7275Y3000I127J127D01*
G01*
X4395Y3553D02*
G03*
X4522Y3500I127J127D01*
G01*
X3975Y6000D02*
G03*
X3847Y5947I0J-180D01*
G01*
X5177D02*
G03*
X5050Y6000I-127J-127D01*
G01*
X5572Y5553D02*
G03*
X5699Y5500I127J127D01*
G01*
X7779Y5447D02*
G03*
X7652Y5500I-127J-127D01*
G01*
X8174Y5053D02*
G03*
X8301Y5000I127J127D01*
G01*
X4865Y5547D02*
G03*
X4738Y5600I-127J-127D01*
G01*
X5342Y5070D02*
G03*
X5512Y5000I170J170D01*
G01*
X8124Y2500D02*
G03*
X7912Y2412I0J-300D01*
G01*
X8672Y2500D02*
G03*
X8884Y2588I0J300D01*
G01*
X9688Y4244D02*
G03*
X9600Y4032I212J-212D01*
G01*
X9512Y3216D02*
G03*
X9600Y3428I-212J212D01*
G01*
X8124Y1500D02*
G03*
X7912Y1412I0J-300D01*
G01*
X9569Y1500D02*
G03*
X9782Y1588I0J300D01*
G01*
X10159Y1965D02*
G03*
X10247Y2177I-212J212D01*
G01*
X8988Y7912D02*
G03*
X8776Y8000I-212J-212D01*
G01*
X10500Y6276D02*
G03*
X10412Y6488I-300J0D01*
G01*
X10200Y5424D02*
G03*
X10288Y5212I300J0D01*
G01*
X10500Y4876D02*
G03*
X10412Y5088I-300J0D01*
G01*
X8500Y7000D02*
X9276D01*
X9488Y6912D02*
X10112Y6288D01*
X7317Y4500D02*
X7925D01*
X7211Y4544D02*
X7211Y4544D01*
X7198Y4556D02*
X7211Y4544D01*
X7198Y4556D02*
X7198Y4556D01*
X5225Y4600D02*
X7092D01*
X4975Y4200D02*
X6938D01*
X7156Y4044D02*
X7156Y4044D01*
X7044Y4156D02*
X7156Y4044D01*
X7044Y4156D02*
X7044Y4156D01*
X7262Y4000D02*
X7500D01*
X4000Y5200D02*
X4475D01*
X4603Y5147D02*
X5097Y4653D01*
X8053Y4447D02*
X8500Y4000D01*
X4000Y4803D02*
X4222D01*
X4350Y4750D02*
X4847Y4253D01*
X4675Y3850D02*
X6755D01*
X4000Y4450D02*
X4547Y3903D01*
X7255Y3500D02*
X7605D01*
X8254Y3000D02*
X8500D01*
X6883Y3797D02*
X7127Y3553D01*
X7732Y3447D02*
X8127Y3053D01*
X4522Y3500D02*
X6625D01*
X7275Y3000D02*
X7500D01*
X6753Y3447D02*
X7147Y3053D01*
X3847Y4100D02*
X4395Y3553D01*
X3975Y6000D02*
X5050D01*
X5699Y5500D02*
X7652D01*
X8301Y5000D02*
X8500D01*
X3800Y5900D02*
X3847Y5947D01*
X5177D02*
X5572Y5553D01*
X7779Y5447D02*
X8174Y5053D01*
X4000Y5600D02*
X4738D01*
X4865Y5547D02*
X5342Y5070D01*
X5512Y5000D02*
X7500D01*
X8124Y2500D02*
X8672D01*
X9600Y3428D02*
Y4032D01*
X7500Y2000D02*
X7912Y2412D01*
X8884Y2588D02*
X9512Y3216D01*
X9688Y4244D02*
X10247Y4803D01*
X8124Y1500D02*
X9569D01*
X7500Y1000D02*
X7912Y1412D01*
X9782Y1588D02*
X10159Y1965D01*
X10247Y2177D02*
Y4200D01*
X8500Y8000D02*
X8776D01*
X10500Y5500D02*
Y6276D01*
X8988Y7912D02*
X10412Y6488D01*
X10200Y5424D02*
Y6076D01*
X10500Y4409D02*
Y4876D01*
X10288Y5212D02*
X10412Y5088D01*
D17*
X7211Y4544D02*
D03*
X7198Y4556D02*
D03*
X7044Y4156D02*
D03*
X7156Y4044D02*
D03*
D21*
X6500Y2000D02*
D03*
X5500D02*
D03*
X4500D02*
D03*
X3500D02*
D03*
Y3000D02*
D03*
X4500D02*
D03*
X5500D02*
D03*
X6500D02*
D03*
X3500Y7000D02*
D03*
X4500D02*
D03*
X5500D02*
D03*
X6500D02*
D03*
Y8000D02*
D03*
X5500D02*
D03*
X4500D02*
D03*
X3500D02*
D03*
X8500D02*
D03*
Y7000D02*
D03*
Y6000D02*
D03*
Y5000D02*
D03*
Y4000D02*
D03*
Y3000D02*
D03*
Y2000D02*
D03*
Y1000D02*
D03*
X7500D02*
D03*
Y2000D02*
D03*
Y3000D02*
D03*
Y4000D02*
D03*
Y5000D02*
D03*
Y6000D02*
D03*
Y7000D02*
D03*
Y8000D02*
D03*
Y9000D02*
D03*
X8500D02*
D03*
D22*
X900Y9100D02*
D03*
Y6100D02*
D03*
Y3900D02*
D03*
Y900D02*
D03*
D23*
X4000Y4450D02*
D03*
X3847Y4100D02*
D03*
X3800Y5900D02*
D03*
X4000Y5600D02*
D03*
X10247Y4200D02*
D03*
X10500Y5500D02*
D03*
Y4409D02*
D03*
X4000Y5200D02*
D03*
Y4803D02*
D03*
X10247D02*
D03*
M02*
