M48
;Layer_Color=9474304
;FILE_FORMAT=2:4
INCH
;TYPE=PLATED
T1F00S00C0.0100
T2F00S00C0.0394
;TYPE=NON_PLATED
T3F00S00C0.0236
T4F00S00C0.0787
%
T01
X003847Y004100
X004000Y004450
Y004803
Y005200
Y005600
X003800Y005900
X010500Y005500
X010247Y004803
Y004200
X010500Y004409
T02
X003500Y002000
X004500
X005500
X006500
Y003000
X005500
X004500
X003500
Y007000
X004500
X005500
X006500
Y008000
X005500
X004500
X003500
X007500
X008500
Y007000
Y006000
Y005000
Y004000
Y003000
Y002000
Y001000
X007500
Y002000
Y003000
Y004000
Y005000
Y006000
Y007000
Y009000
X008500
T03
X003409Y003996
Y006004
X009909
Y003996
T04
X000900Y000900
Y003900
Y006100
Y009100
M30
