G04*
G04 #@! TF.GenerationSoftware,Altium Limited,Altium Designer,18.1.7 (191)*
G04*
G04 Layer_Physical_Order=1*
G04 Layer_Color=255*
%FSLAX24Y24*%
%MOIN*%
G70*
G01*
G75*
%ADD14C,0.0236*%
%ADD16C,0.0100*%
%ADD17C,0.0100*%
%ADD18R,0.0630X0.0118*%
%ADD19R,0.0709X0.0315*%
%ADD20C,0.0200*%
%ADD21C,0.0591*%
%ADD22C,0.0787*%
%ADD23C,0.0200*%
G36*
X12350Y150D02*
X11766D01*
X11747Y196D01*
X12000Y450D01*
X12016Y473D01*
X12021Y500D01*
X12021Y5500D01*
X12016Y5527D01*
X12000Y5550D01*
X11850Y5700D01*
X11827Y5716D01*
X11800Y5721D01*
X11594D01*
X11585Y5720D01*
X10824D01*
Y5381D01*
X10774Y5371D01*
X10767Y5388D01*
X10700Y5475D01*
X10700Y5475D01*
X10671Y5513D01*
X10660Y5566D01*
X10623Y5623D01*
X10566Y5660D01*
X10500Y5673D01*
X10434Y5660D01*
X10377Y5623D01*
X10340Y5566D01*
X10327Y5500D01*
X10340Y5434D01*
X10377Y5377D01*
X10434Y5340D01*
X10500Y5327D01*
X10500Y5327D01*
X10526Y5301D01*
X10527Y5300D01*
X10565Y5244D01*
X10578Y5178D01*
X10578Y5176D01*
Y4756D01*
X10578Y4756D01*
X10587Y4686D01*
X10614Y4620D01*
X10597Y4560D01*
X10587Y4556D01*
X10566Y4570D01*
X10500Y4583D01*
X10434Y4570D01*
X10377Y4532D01*
X10340Y4476D01*
X10339Y4470D01*
X10306Y4458D01*
X10285Y4456D01*
X10233Y4495D01*
X10176Y4519D01*
Y4593D01*
X10226Y4634D01*
X10247Y4630D01*
X10313Y4643D01*
X10369Y4681D01*
X10407Y4737D01*
X10420Y4803D01*
X10407Y4869D01*
X10369Y4926D01*
X10313Y4963D01*
X10247Y4976D01*
X10226Y4972D01*
X10176Y5013D01*
Y5265D01*
Y5720D01*
X9613D01*
X9597Y5723D01*
X9556Y5750D01*
X9556Y5750D01*
X9390Y5916D01*
X9390Y5917D01*
X9362Y5958D01*
X9352Y6007D01*
X9352D01*
Y6846D01*
X9354D01*
X9339Y6955D01*
X9297Y7058D01*
X9229Y7145D01*
X9229Y7144D01*
X8874Y7499D01*
X8875Y7500D01*
X8788Y7567D01*
X8685Y7609D01*
X8652Y7614D01*
X8645Y7665D01*
X8684Y7681D01*
X8761Y7739D01*
X8819Y7816D01*
X8856Y7905D01*
X8868Y8000D01*
X8856Y8095D01*
X8819Y8184D01*
X8761Y8261D01*
X8684Y8319D01*
X8595Y8356D01*
X8500Y8368D01*
X8405Y8356D01*
X8316Y8319D01*
X8239Y8261D01*
X8181Y8184D01*
X8144Y8095D01*
X8132Y8000D01*
X8144Y7905D01*
X8181Y7816D01*
X8239Y7739D01*
X8316Y7681D01*
X8336Y7672D01*
X8327Y7622D01*
X8124D01*
X8122Y7622D01*
X8056Y7635D01*
X8000Y7673D01*
X7999Y7674D01*
X7830Y7843D01*
X7856Y7905D01*
X7868Y8000D01*
X7856Y8095D01*
X7819Y8184D01*
X7761Y8261D01*
X7684Y8319D01*
X7595Y8356D01*
X7500Y8368D01*
X7405Y8356D01*
X7316Y8319D01*
X7239Y8261D01*
X7181Y8184D01*
X7144Y8095D01*
X7132Y8000D01*
X7144Y7905D01*
X7181Y7816D01*
X7239Y7739D01*
X7316Y7681D01*
X7405Y7644D01*
X7500Y7632D01*
X7595Y7644D01*
X7657Y7670D01*
X7826Y7501D01*
X7825Y7500D01*
X7912Y7433D01*
X8015Y7391D01*
X8124Y7376D01*
Y7378D01*
X8327D01*
X8336Y7328D01*
X8316Y7319D01*
X8239Y7261D01*
X8181Y7184D01*
X8144Y7095D01*
X8132Y7000D01*
X8144Y6905D01*
X8181Y6816D01*
X8239Y6739D01*
X8316Y6681D01*
X8336Y6672D01*
X8327Y6622D01*
X8104D01*
Y6623D01*
X8055Y6632D01*
X8013Y6660D01*
X8013Y6660D01*
X7830Y6843D01*
X7856Y6905D01*
X7868Y7000D01*
X7856Y7095D01*
X7819Y7184D01*
X7761Y7261D01*
X7684Y7319D01*
X7595Y7356D01*
X7500Y7368D01*
X7405Y7356D01*
X7316Y7319D01*
X7239Y7261D01*
X7181Y7184D01*
X7144Y7095D01*
X7132Y7000D01*
X7144Y6905D01*
X7181Y6816D01*
X7239Y6739D01*
X7316Y6681D01*
X7405Y6644D01*
X7500Y6632D01*
X7595Y6644D01*
X7657Y6670D01*
X7840Y6487D01*
X7840Y6487D01*
X7840Y6486D01*
X7917Y6427D01*
X8007Y6390D01*
X8104Y6377D01*
Y6378D01*
X8327D01*
X8336Y6328D01*
X8316Y6319D01*
X8239Y6261D01*
X8181Y6184D01*
X8144Y6095D01*
X8132Y6000D01*
X8144Y5905D01*
X8181Y5816D01*
X8239Y5739D01*
X8316Y5681D01*
X8336Y5672D01*
X8327Y5622D01*
X8112D01*
X8062Y5623D01*
X8043Y5631D01*
X8007Y5666D01*
X7830Y5843D01*
X7856Y5905D01*
X7868Y6000D01*
X7856Y6095D01*
X7819Y6184D01*
X7761Y6261D01*
X7684Y6319D01*
X7595Y6356D01*
X7500Y6368D01*
X7405Y6356D01*
X7316Y6319D01*
X7239Y6261D01*
X7181Y6184D01*
X7144Y6095D01*
X7132Y6000D01*
X7144Y5905D01*
X7181Y5816D01*
X7239Y5739D01*
X7316Y5681D01*
X7405Y5644D01*
X7500Y5632D01*
X7595Y5644D01*
X7657Y5670D01*
X7870Y5457D01*
X7870Y5457D01*
X7926Y5414D01*
X7992Y5387D01*
X8062Y5378D01*
X8062Y5378D01*
X8327D01*
X8336Y5328D01*
X8316Y5319D01*
X8239Y5261D01*
X8181Y5184D01*
X8144Y5095D01*
X8132Y5000D01*
X8144Y4905D01*
X8181Y4816D01*
X8239Y4739D01*
X8316Y4681D01*
X8405Y4644D01*
X8500Y4632D01*
X8595Y4644D01*
X8684Y4681D01*
X8761Y4739D01*
X8819Y4816D01*
X8856Y4905D01*
X8868Y5000D01*
X8856Y5095D01*
X8852Y5104D01*
X8895Y5132D01*
X9070Y4957D01*
X9070Y4957D01*
X9126Y4914D01*
X9192Y4887D01*
X9262Y4878D01*
X9262Y4878D01*
X9406D01*
Y4769D01*
X9378Y4731D01*
X9292Y4714D01*
X9219Y4665D01*
X9220Y4664D01*
X9220Y4664D01*
X9178Y4621D01*
X9141Y4587D01*
X9141Y4587D01*
X9093Y4514D01*
X9076Y4429D01*
X9078D01*
Y2399D01*
X9077D01*
X9068Y2355D01*
X9043Y2316D01*
X9043Y2316D01*
X8917Y2190D01*
X8884Y2157D01*
X8822Y2176D01*
X8819Y2184D01*
X8761Y2261D01*
X8684Y2319D01*
X8595Y2356D01*
X8500Y2368D01*
X8405Y2356D01*
X8316Y2319D01*
X8239Y2261D01*
X8181Y2184D01*
X8144Y2095D01*
X8132Y2000D01*
X8144Y1905D01*
X8181Y1816D01*
X8239Y1739D01*
X8316Y1681D01*
X8405Y1644D01*
X8500Y1632D01*
X8595Y1644D01*
X8684Y1681D01*
X8761Y1739D01*
X8819Y1816D01*
X8847Y1883D01*
X8895Y1889D01*
X8982Y1926D01*
X9057Y1983D01*
X9057Y1984D01*
X9057Y1984D01*
X9216Y2143D01*
X9217Y2143D01*
X9274Y2218D01*
X9311Y2305D01*
X9323Y2399D01*
X9322D01*
Y4417D01*
X9324Y4421D01*
X9356Y4453D01*
X9406Y4433D01*
Y4280D01*
X10041D01*
X10080Y4230D01*
X10074Y4200D01*
X10081Y4163D01*
X10073Y4157D01*
X10035Y4139D01*
X9983Y4173D01*
X9909Y4188D01*
X9836Y4173D01*
X9774Y4132D01*
X9732Y4069D01*
X9718Y3996D01*
X9732Y3923D01*
X9774Y3860D01*
X9836Y3819D01*
X9909Y3804D01*
X9983Y3819D01*
X10026Y3847D01*
X10076Y3823D01*
Y3493D01*
X10829D01*
X10829Y830D01*
X10670Y671D01*
X8754D01*
X8737Y721D01*
X8761Y739D01*
X8819Y816D01*
X8856Y905D01*
X8862Y950D01*
X8500D01*
X8138D01*
X8144Y905D01*
X8181Y816D01*
X8239Y739D01*
X8263Y721D01*
X8246Y671D01*
X7754D01*
X7737Y721D01*
X7761Y739D01*
X7819Y816D01*
X7856Y905D01*
X7868Y1000D01*
X7856Y1095D01*
X7819Y1184D01*
X7761Y1261D01*
X7684Y1319D01*
X7595Y1356D01*
X7500Y1368D01*
X7405Y1356D01*
X7316Y1319D01*
X7239Y1261D01*
X7181Y1184D01*
X7144Y1095D01*
X7132Y1000D01*
X7144Y905D01*
X7181Y816D01*
X7239Y739D01*
X7263Y721D01*
X7246Y671D01*
X6330D01*
X6121Y880D01*
Y1829D01*
X6171Y1839D01*
X6181Y1816D01*
X6239Y1739D01*
X6316Y1681D01*
X6405Y1644D01*
X6500Y1632D01*
X6595Y1644D01*
X6684Y1681D01*
X6761Y1739D01*
X6819Y1816D01*
X6856Y1905D01*
X6868Y2000D01*
X6856Y2095D01*
X6819Y2184D01*
X6761Y2261D01*
X6684Y2319D01*
X6595Y2356D01*
X6500Y2368D01*
X6405Y2356D01*
X6399Y2354D01*
X6369Y2384D01*
X6387Y2429D01*
X6750Y2429D01*
X6777Y2434D01*
X6800Y2450D01*
X7050Y2700D01*
X7066Y2723D01*
X7071Y2750D01*
X7071Y5350D01*
X7066Y5377D01*
X7050Y5400D01*
X6950Y5500D01*
X6950Y5500D01*
X6927Y5516D01*
X6900Y5521D01*
X5315Y5521D01*
X5294Y5571D01*
X5543Y5820D01*
X5543Y5820D01*
X5543Y5820D01*
X5543Y5820D01*
X5586Y5876D01*
X5613Y5942D01*
X5622Y6012D01*
X5622Y6012D01*
Y6655D01*
X5684Y6681D01*
X5761Y6739D01*
X5819Y6816D01*
X5856Y6905D01*
X5868Y7000D01*
X5856Y7095D01*
X5819Y7184D01*
X5761Y7261D01*
X5684Y7319D01*
X5595Y7356D01*
X5500Y7368D01*
X5405Y7356D01*
X5316Y7319D01*
X5239Y7261D01*
X5181Y7184D01*
X5144Y7095D01*
X5132Y7000D01*
X5144Y6905D01*
X5181Y6816D01*
X5239Y6739D01*
X5316Y6681D01*
X5378Y6655D01*
Y6062D01*
X5377Y6012D01*
X5369Y5993D01*
X5334Y5957D01*
X5098Y5721D01*
X5098Y5721D01*
X5098Y5721D01*
X5093Y5720D01*
X4508D01*
X4489Y5766D01*
X4543Y5820D01*
X4543Y5820D01*
X4586Y5876D01*
X4613Y5942D01*
X4622Y6012D01*
X4622Y6012D01*
Y6655D01*
X4684Y6681D01*
X4761Y6739D01*
X4819Y6816D01*
X4856Y6905D01*
X4868Y7000D01*
X4856Y7095D01*
X4819Y7184D01*
X4761Y7261D01*
X4684Y7319D01*
X4595Y7356D01*
X4500Y7368D01*
X4405Y7356D01*
X4316Y7319D01*
X4239Y7261D01*
X4181Y7184D01*
X4144Y7095D01*
X4132Y7000D01*
X4144Y6905D01*
X4181Y6816D01*
X4239Y6739D01*
X4316Y6681D01*
X4378Y6655D01*
Y6507D01*
X3576D01*
Y6177D01*
X3526Y6153D01*
X3483Y6181D01*
X3409Y6196D01*
X3336Y6181D01*
X3274Y6140D01*
X3232Y6077D01*
X3218Y6004D01*
X3232Y5931D01*
X3274Y5868D01*
X3336Y5827D01*
X3409Y5812D01*
X3483Y5827D01*
X3483Y5827D01*
X3515Y5788D01*
X3457Y5730D01*
X3455Y5727D01*
X3437Y5720D01*
X2906D01*
X2872Y5756D01*
Y6850D01*
X2873D01*
X2881Y6869D01*
X2900Y6877D01*
Y6878D01*
X3155D01*
X3181Y6816D01*
X3239Y6739D01*
X3316Y6681D01*
X3405Y6644D01*
X3500Y6632D01*
X3595Y6644D01*
X3684Y6681D01*
X3761Y6739D01*
X3819Y6816D01*
X3856Y6905D01*
X3868Y7000D01*
X3856Y7095D01*
X3819Y7184D01*
X3761Y7261D01*
X3684Y7319D01*
X3595Y7356D01*
X3500Y7368D01*
X3405Y7356D01*
X3316Y7319D01*
X3239Y7261D01*
X3181Y7184D01*
X3155Y7122D01*
X2900D01*
X2900Y7122D01*
X2830Y7113D01*
X2764Y7086D01*
X2707Y7043D01*
X2664Y6986D01*
X2637Y6920D01*
X2628Y6850D01*
X2628Y6850D01*
Y5150D01*
X2628Y5150D01*
X2637Y5080D01*
X2664Y5014D01*
X2707Y4957D01*
X2764Y4914D01*
X2830Y4887D01*
X2900Y4878D01*
X2900Y4878D01*
X2906D01*
Y4674D01*
Y4280D01*
X3484D01*
X3502Y4273D01*
X3504Y4270D01*
X3674Y4100D01*
X3674Y4100D01*
X3687Y4034D01*
X3711Y3998D01*
X3686Y3948D01*
X3631D01*
X3599Y3987D01*
X3601Y3996D01*
X3587Y4069D01*
X3545Y4132D01*
X3483Y4173D01*
X3409Y4188D01*
X3336Y4173D01*
X3274Y4132D01*
X3232Y4069D01*
X3218Y3996D01*
X3232Y3923D01*
X3274Y3860D01*
X3336Y3819D01*
X3409Y3804D01*
X3483Y3819D01*
X3526Y3847D01*
X3576Y3823D01*
Y3493D01*
X4424D01*
Y3948D01*
X4009D01*
X3984Y3998D01*
X4007Y4034D01*
X4021Y4100D01*
X4007Y4166D01*
X3970Y4223D01*
X3950Y4236D01*
X3970Y4283D01*
X4000Y4277D01*
X4066Y4290D01*
X4123Y4327D01*
X4147Y4364D01*
X4205Y4371D01*
X4207Y4367D01*
X4264Y4324D01*
X4324Y4299D01*
Y4280D01*
X5094D01*
Y4556D01*
X4709D01*
Y4656D01*
X5094D01*
Y4674D01*
Y4753D01*
X4709D01*
Y4853D01*
X5094D01*
Y4950D01*
X4709D01*
Y5050D01*
X5094D01*
Y5069D01*
X5870D01*
X5929Y5010D01*
X5929Y2887D01*
X5884Y2869D01*
X5854Y2899D01*
X5856Y2905D01*
X5868Y3000D01*
X5856Y3095D01*
X5819Y3184D01*
X5761Y3261D01*
X5684Y3319D01*
X5595Y3356D01*
X5500Y3368D01*
X5405Y3356D01*
X5316Y3319D01*
X5239Y3261D01*
X5181Y3184D01*
X5144Y3095D01*
X5132Y3000D01*
X5144Y2905D01*
X5181Y2816D01*
X5239Y2739D01*
X5263Y2721D01*
X5246Y2671D01*
X5150D01*
X5123Y2666D01*
X5100Y2650D01*
X4900Y2450D01*
X4884Y2427D01*
X4879Y2400D01*
Y2171D01*
X4829Y2161D01*
X4819Y2184D01*
X4761Y2261D01*
X4684Y2319D01*
X4595Y2356D01*
X4550Y2362D01*
Y2000D01*
Y1638D01*
X4595Y1644D01*
X4684Y1681D01*
X4761Y1739D01*
X4819Y1816D01*
X4829Y1839D01*
X4879Y1829D01*
X4879Y500D01*
X4884Y473D01*
X4900Y450D01*
X5153Y196D01*
X5134Y150D01*
X1558D01*
X1541Y197D01*
X1575Y225D01*
X1694Y370D01*
X1782Y535D01*
X1836Y714D01*
X1855Y900D01*
X1836Y1086D01*
X1782Y1265D01*
X1694Y1430D01*
X1575Y1575D01*
X1430Y1694D01*
X1265Y1782D01*
X1086Y1836D01*
X900Y1855D01*
X714Y1836D01*
X535Y1782D01*
X370Y1694D01*
X225Y1575D01*
X197Y1541D01*
X150Y1558D01*
Y3242D01*
X197Y3259D01*
X225Y3225D01*
X370Y3106D01*
X535Y3018D01*
X714Y2964D01*
X900Y2945D01*
X1086Y2964D01*
X1265Y3018D01*
X1430Y3106D01*
X1575Y3225D01*
X1694Y3370D01*
X1782Y3535D01*
X1836Y3714D01*
X1855Y3900D01*
X1836Y4086D01*
X1782Y4265D01*
X1694Y4430D01*
X1575Y4575D01*
X1430Y4694D01*
X1265Y4782D01*
X1086Y4836D01*
X900Y4855D01*
X714Y4836D01*
X535Y4782D01*
X370Y4694D01*
X225Y4575D01*
X197Y4541D01*
X150Y4558D01*
Y5442D01*
X197Y5459D01*
X225Y5425D01*
X370Y5306D01*
X535Y5218D01*
X714Y5164D01*
X900Y5145D01*
X1086Y5164D01*
X1265Y5218D01*
X1430Y5306D01*
X1575Y5425D01*
X1694Y5570D01*
X1782Y5735D01*
X1836Y5914D01*
X1855Y6100D01*
X1836Y6286D01*
X1782Y6465D01*
X1694Y6630D01*
X1575Y6775D01*
X1430Y6894D01*
X1265Y6982D01*
X1086Y7036D01*
X900Y7055D01*
X714Y7036D01*
X535Y6982D01*
X370Y6894D01*
X225Y6775D01*
X197Y6741D01*
X150Y6758D01*
Y8442D01*
X197Y8459D01*
X225Y8425D01*
X370Y8306D01*
X535Y8218D01*
X714Y8164D01*
X900Y8145D01*
X1086Y8164D01*
X1265Y8218D01*
X1430Y8306D01*
X1575Y8425D01*
X1694Y8570D01*
X1782Y8735D01*
X1836Y8914D01*
X1855Y9100D01*
X1836Y9286D01*
X1782Y9465D01*
X1694Y9630D01*
X1575Y9775D01*
X1541Y9803D01*
X1558Y9850D01*
X12350D01*
Y150D01*
D02*
G37*
G36*
X6900Y5450D02*
X7000Y5350D01*
X7000Y2750D01*
X6750Y2500D01*
X6250Y2500D01*
X6000Y2750D01*
X6000Y5040D01*
X5900Y5140D01*
X5094D01*
Y5147D01*
X4709D01*
Y5247D01*
X5094D01*
Y5265D01*
Y5344D01*
X4709D01*
Y5444D01*
X5094D01*
Y5450D01*
X6900Y5450D01*
D02*
G37*
G36*
X11800Y5650D02*
X11950Y5500D01*
X11950Y500D01*
X11600Y150D01*
X5300D01*
X4950Y500D01*
X4950Y2400D01*
X5150Y2600D01*
X5655D01*
X6050Y2205D01*
Y850D01*
X6300Y600D01*
X10700D01*
X10900Y800D01*
X10900Y3493D01*
X10924D01*
Y3948D01*
X10900D01*
Y4280D01*
X11594D01*
Y4477D01*
Y4674D01*
Y4753D01*
X11209D01*
Y4853D01*
X11594D01*
Y4871D01*
Y4950D01*
X11209D01*
Y5050D01*
X11594D01*
Y5068D01*
Y5147D01*
X11209D01*
Y5247D01*
X11594D01*
Y5265D01*
Y5344D01*
X11209D01*
Y5444D01*
X11594D01*
Y5462D01*
Y5541D01*
X11209D01*
Y5641D01*
X11594D01*
Y5650D01*
X11800D01*
D02*
G37*
%LPC*%
G36*
X8550Y9362D02*
Y9050D01*
X8862D01*
X8856Y9095D01*
X8819Y9184D01*
X8761Y9261D01*
X8684Y9319D01*
X8595Y9356D01*
X8550Y9362D01*
D02*
G37*
G36*
X7550D02*
Y9050D01*
X7862D01*
X7856Y9095D01*
X7819Y9184D01*
X7761Y9261D01*
X7684Y9319D01*
X7595Y9356D01*
X7550Y9362D01*
D02*
G37*
G36*
X8450D02*
X8405Y9356D01*
X8316Y9319D01*
X8239Y9261D01*
X8181Y9184D01*
X8144Y9095D01*
X8138Y9050D01*
X8450D01*
Y9362D01*
D02*
G37*
G36*
X7450D02*
X7405Y9356D01*
X7316Y9319D01*
X7239Y9261D01*
X7181Y9184D01*
X7144Y9095D01*
X7138Y9050D01*
X7450D01*
Y9362D01*
D02*
G37*
G36*
X8862Y8950D02*
X8550D01*
Y8638D01*
X8595Y8644D01*
X8684Y8681D01*
X8761Y8739D01*
X8819Y8816D01*
X8856Y8905D01*
X8862Y8950D01*
D02*
G37*
G36*
X7862D02*
X7550D01*
Y8638D01*
X7595Y8644D01*
X7684Y8681D01*
X7761Y8739D01*
X7819Y8816D01*
X7856Y8905D01*
X7862Y8950D01*
D02*
G37*
G36*
X8450D02*
X8138D01*
X8144Y8905D01*
X8181Y8816D01*
X8239Y8739D01*
X8316Y8681D01*
X8405Y8644D01*
X8450Y8638D01*
Y8950D01*
D02*
G37*
G36*
X7450D02*
X7138D01*
X7144Y8905D01*
X7181Y8816D01*
X7239Y8739D01*
X7316Y8681D01*
X7405Y8644D01*
X7450Y8638D01*
Y8950D01*
D02*
G37*
G36*
X6550Y8362D02*
Y8050D01*
X6862D01*
X6856Y8095D01*
X6819Y8184D01*
X6761Y8261D01*
X6684Y8319D01*
X6595Y8356D01*
X6550Y8362D01*
D02*
G37*
G36*
X6450D02*
X6405Y8356D01*
X6316Y8319D01*
X6239Y8261D01*
X6181Y8184D01*
X6144Y8095D01*
X6138Y8050D01*
X6450D01*
Y8362D01*
D02*
G37*
G36*
X5550D02*
Y8050D01*
X5862D01*
X5856Y8095D01*
X5819Y8184D01*
X5761Y8261D01*
X5684Y8319D01*
X5595Y8356D01*
X5550Y8362D01*
D02*
G37*
G36*
X5450D02*
X5405Y8356D01*
X5316Y8319D01*
X5239Y8261D01*
X5181Y8184D01*
X5144Y8095D01*
X5138Y8050D01*
X5450D01*
Y8362D01*
D02*
G37*
G36*
X4550D02*
Y8050D01*
X4862D01*
X4856Y8095D01*
X4819Y8184D01*
X4761Y8261D01*
X4684Y8319D01*
X4595Y8356D01*
X4550Y8362D01*
D02*
G37*
G36*
X4450D02*
X4405Y8356D01*
X4316Y8319D01*
X4239Y8261D01*
X4181Y8184D01*
X4144Y8095D01*
X4138Y8050D01*
X4450D01*
Y8362D01*
D02*
G37*
G36*
X3550D02*
Y8050D01*
X3862D01*
X3856Y8095D01*
X3819Y8184D01*
X3761Y8261D01*
X3684Y8319D01*
X3595Y8356D01*
X3550Y8362D01*
D02*
G37*
G36*
X3450D02*
X3405Y8356D01*
X3316Y8319D01*
X3239Y8261D01*
X3181Y8184D01*
X3144Y8095D01*
X3138Y8050D01*
X3450D01*
Y8362D01*
D02*
G37*
G36*
X6862Y7950D02*
X6550D01*
Y7638D01*
X6595Y7644D01*
X6684Y7681D01*
X6761Y7739D01*
X6819Y7816D01*
X6856Y7905D01*
X6862Y7950D01*
D02*
G37*
G36*
X6450D02*
X6138D01*
X6144Y7905D01*
X6181Y7816D01*
X6239Y7739D01*
X6316Y7681D01*
X6405Y7644D01*
X6450Y7638D01*
Y7950D01*
D02*
G37*
G36*
X5862D02*
X5550D01*
Y7638D01*
X5595Y7644D01*
X5684Y7681D01*
X5761Y7739D01*
X5819Y7816D01*
X5856Y7905D01*
X5862Y7950D01*
D02*
G37*
G36*
X5450D02*
X5138D01*
X5144Y7905D01*
X5181Y7816D01*
X5239Y7739D01*
X5316Y7681D01*
X5405Y7644D01*
X5450Y7638D01*
Y7950D01*
D02*
G37*
G36*
X4862D02*
X4550D01*
Y7638D01*
X4595Y7644D01*
X4684Y7681D01*
X4761Y7739D01*
X4819Y7816D01*
X4856Y7905D01*
X4862Y7950D01*
D02*
G37*
G36*
X4450D02*
X4138D01*
X4144Y7905D01*
X4181Y7816D01*
X4239Y7739D01*
X4316Y7681D01*
X4405Y7644D01*
X4450Y7638D01*
Y7950D01*
D02*
G37*
G36*
X3862D02*
X3550D01*
Y7638D01*
X3595Y7644D01*
X3684Y7681D01*
X3761Y7739D01*
X3819Y7816D01*
X3856Y7905D01*
X3862Y7950D01*
D02*
G37*
G36*
X3450D02*
X3138D01*
X3144Y7905D01*
X3181Y7816D01*
X3239Y7739D01*
X3316Y7681D01*
X3405Y7644D01*
X3450Y7638D01*
Y7950D01*
D02*
G37*
G36*
X6550Y7362D02*
Y7050D01*
X6862D01*
X6856Y7095D01*
X6819Y7184D01*
X6761Y7261D01*
X6684Y7319D01*
X6595Y7356D01*
X6550Y7362D01*
D02*
G37*
G36*
X6450D02*
X6405Y7356D01*
X6316Y7319D01*
X6239Y7261D01*
X6181Y7184D01*
X6144Y7095D01*
X6138Y7050D01*
X6450D01*
Y7362D01*
D02*
G37*
G36*
X6862Y6950D02*
X6550D01*
Y6638D01*
X6595Y6644D01*
X6684Y6681D01*
X6761Y6739D01*
X6819Y6816D01*
X6856Y6905D01*
X6862Y6950D01*
D02*
G37*
G36*
X6450D02*
X6138D01*
X6144Y6905D01*
X6181Y6816D01*
X6239Y6739D01*
X6316Y6681D01*
X6405Y6644D01*
X6450Y6638D01*
Y6950D01*
D02*
G37*
G36*
X10924Y6507D02*
X10076D01*
Y6177D01*
X10026Y6153D01*
X9983Y6181D01*
X9909Y6196D01*
X9836Y6181D01*
X9774Y6140D01*
X9732Y6077D01*
X9718Y6004D01*
X9732Y5931D01*
X9774Y5868D01*
X9836Y5827D01*
X9909Y5812D01*
X9983Y5827D01*
X10045Y5868D01*
X10087Y5931D01*
X10101Y6004D01*
X10099Y6013D01*
X10131Y6052D01*
X10924D01*
Y6507D01*
D02*
G37*
G36*
X7500Y5368D02*
X7405Y5356D01*
X7316Y5319D01*
X7239Y5261D01*
X7181Y5184D01*
X7144Y5095D01*
X7132Y5000D01*
X7144Y4905D01*
X7181Y4816D01*
X7239Y4739D01*
X7316Y4681D01*
X7405Y4644D01*
X7500Y4632D01*
X7595Y4644D01*
X7684Y4681D01*
X7761Y4739D01*
X7819Y4816D01*
X7856Y4905D01*
X7868Y5000D01*
X7856Y5095D01*
X7819Y5184D01*
X7761Y5261D01*
X7684Y5319D01*
X7595Y5356D01*
X7500Y5368D01*
D02*
G37*
G36*
X8500Y4368D02*
X8405Y4356D01*
X8316Y4319D01*
X8239Y4261D01*
X8181Y4184D01*
X8144Y4095D01*
X8132Y4000D01*
X8144Y3905D01*
X8181Y3816D01*
X8239Y3739D01*
X8316Y3681D01*
X8405Y3644D01*
X8500Y3632D01*
X8595Y3644D01*
X8684Y3681D01*
X8761Y3739D01*
X8819Y3816D01*
X8856Y3905D01*
X8868Y4000D01*
X8856Y4095D01*
X8819Y4184D01*
X8761Y4261D01*
X8684Y4319D01*
X8595Y4356D01*
X8500Y4368D01*
D02*
G37*
G36*
X7500D02*
X7405Y4356D01*
X7316Y4319D01*
X7239Y4261D01*
X7181Y4184D01*
X7144Y4095D01*
X7132Y4000D01*
X7144Y3905D01*
X7181Y3816D01*
X7239Y3739D01*
X7316Y3681D01*
X7405Y3644D01*
X7500Y3632D01*
X7595Y3644D01*
X7684Y3681D01*
X7761Y3739D01*
X7819Y3816D01*
X7856Y3905D01*
X7868Y4000D01*
X7856Y4095D01*
X7819Y4184D01*
X7761Y4261D01*
X7684Y4319D01*
X7595Y4356D01*
X7500Y4368D01*
D02*
G37*
G36*
X4550Y3362D02*
Y3050D01*
X4862D01*
X4856Y3095D01*
X4819Y3184D01*
X4761Y3261D01*
X4684Y3319D01*
X4595Y3356D01*
X4550Y3362D01*
D02*
G37*
G36*
X3550D02*
Y3050D01*
X3862D01*
X3856Y3095D01*
X3819Y3184D01*
X3761Y3261D01*
X3684Y3319D01*
X3595Y3356D01*
X3550Y3362D01*
D02*
G37*
G36*
X4450D02*
X4405Y3356D01*
X4316Y3319D01*
X4239Y3261D01*
X4181Y3184D01*
X4144Y3095D01*
X4138Y3050D01*
X4450D01*
Y3362D01*
D02*
G37*
G36*
X3450D02*
X3405Y3356D01*
X3316Y3319D01*
X3239Y3261D01*
X3181Y3184D01*
X3144Y3095D01*
X3138Y3050D01*
X3450D01*
Y3362D01*
D02*
G37*
G36*
X4862Y2950D02*
X4550D01*
Y2638D01*
X4595Y2644D01*
X4684Y2681D01*
X4761Y2739D01*
X4819Y2816D01*
X4856Y2905D01*
X4862Y2950D01*
D02*
G37*
G36*
X3862D02*
X3550D01*
Y2638D01*
X3595Y2644D01*
X3684Y2681D01*
X3761Y2739D01*
X3819Y2816D01*
X3856Y2905D01*
X3862Y2950D01*
D02*
G37*
G36*
X4450D02*
X4138D01*
X4144Y2905D01*
X4181Y2816D01*
X4239Y2739D01*
X4316Y2681D01*
X4405Y2644D01*
X4450Y2638D01*
Y2950D01*
D02*
G37*
G36*
X3450D02*
X3138D01*
X3144Y2905D01*
X3181Y2816D01*
X3239Y2739D01*
X3316Y2681D01*
X3405Y2644D01*
X3450Y2638D01*
Y2950D01*
D02*
G37*
G36*
X8500Y3368D02*
X8405Y3356D01*
X8316Y3319D01*
X8239Y3261D01*
X8181Y3184D01*
X8144Y3095D01*
X8132Y3000D01*
X8144Y2905D01*
X8181Y2816D01*
X8239Y2739D01*
X8316Y2681D01*
X8405Y2644D01*
X8500Y2632D01*
X8595Y2644D01*
X8684Y2681D01*
X8761Y2739D01*
X8819Y2816D01*
X8856Y2905D01*
X8868Y3000D01*
X8856Y3095D01*
X8819Y3184D01*
X8761Y3261D01*
X8684Y3319D01*
X8595Y3356D01*
X8500Y3368D01*
D02*
G37*
G36*
X7500D02*
X7405Y3356D01*
X7316Y3319D01*
X7239Y3261D01*
X7181Y3184D01*
X7144Y3095D01*
X7132Y3000D01*
X7144Y2905D01*
X7181Y2816D01*
X7239Y2739D01*
X7316Y2681D01*
X7405Y2644D01*
X7500Y2632D01*
X7595Y2644D01*
X7684Y2681D01*
X7761Y2739D01*
X7819Y2816D01*
X7856Y2905D01*
X7868Y3000D01*
X7856Y3095D01*
X7819Y3184D01*
X7761Y3261D01*
X7684Y3319D01*
X7595Y3356D01*
X7500Y3368D01*
D02*
G37*
G36*
X3550Y2362D02*
Y2050D01*
X3862D01*
X3856Y2095D01*
X3819Y2184D01*
X3761Y2261D01*
X3684Y2319D01*
X3595Y2356D01*
X3550Y2362D01*
D02*
G37*
G36*
X3450D02*
X3405Y2356D01*
X3316Y2319D01*
X3239Y2261D01*
X3181Y2184D01*
X3144Y2095D01*
X3138Y2050D01*
X3450D01*
Y2362D01*
D02*
G37*
G36*
X4450D02*
X4405Y2356D01*
X4316Y2319D01*
X4239Y2261D01*
X4181Y2184D01*
X4144Y2095D01*
X4138Y2050D01*
X4450D01*
Y2362D01*
D02*
G37*
G36*
X3862Y1950D02*
X3550D01*
Y1638D01*
X3595Y1644D01*
X3684Y1681D01*
X3761Y1739D01*
X3819Y1816D01*
X3856Y1905D01*
X3862Y1950D01*
D02*
G37*
G36*
X4450D02*
X4138D01*
X4144Y1905D01*
X4181Y1816D01*
X4239Y1739D01*
X4316Y1681D01*
X4405Y1644D01*
X4450Y1638D01*
Y1950D01*
D02*
G37*
G36*
X3450D02*
X3138D01*
X3144Y1905D01*
X3181Y1816D01*
X3239Y1739D01*
X3316Y1681D01*
X3405Y1644D01*
X3450Y1638D01*
Y1950D01*
D02*
G37*
G36*
X7500Y2368D02*
X7405Y2356D01*
X7316Y2319D01*
X7239Y2261D01*
X7181Y2184D01*
X7144Y2095D01*
X7132Y2000D01*
X7144Y1905D01*
X7181Y1816D01*
X7239Y1739D01*
X7316Y1681D01*
X7405Y1644D01*
X7500Y1632D01*
X7595Y1644D01*
X7684Y1681D01*
X7761Y1739D01*
X7819Y1816D01*
X7856Y1905D01*
X7868Y2000D01*
X7856Y2095D01*
X7819Y2184D01*
X7761Y2261D01*
X7684Y2319D01*
X7595Y2356D01*
X7500Y2368D01*
D02*
G37*
G36*
X8550Y1362D02*
Y1050D01*
X8862D01*
X8856Y1095D01*
X8819Y1184D01*
X8761Y1261D01*
X8684Y1319D01*
X8595Y1356D01*
X8550Y1362D01*
D02*
G37*
G36*
X8450D02*
X8405Y1356D01*
X8316Y1319D01*
X8239Y1261D01*
X8181Y1184D01*
X8144Y1095D01*
X8138Y1050D01*
X8450D01*
Y1362D01*
D02*
G37*
G36*
X6550Y3362D02*
Y3050D01*
X6862D01*
X6856Y3095D01*
X6819Y3184D01*
X6761Y3261D01*
X6684Y3319D01*
X6595Y3356D01*
X6550Y3362D01*
D02*
G37*
G36*
X6450D02*
X6405Y3356D01*
X6316Y3319D01*
X6239Y3261D01*
X6181Y3184D01*
X6144Y3095D01*
X6138Y3050D01*
X6450D01*
Y3362D01*
D02*
G37*
G36*
X6862Y2950D02*
X6550D01*
Y2638D01*
X6595Y2644D01*
X6684Y2681D01*
X6761Y2739D01*
X6819Y2816D01*
X6856Y2905D01*
X6862Y2950D01*
D02*
G37*
G36*
X6450D02*
X6138D01*
X6144Y2905D01*
X6181Y2816D01*
X6239Y2739D01*
X6316Y2681D01*
X6405Y2644D01*
X6450Y2638D01*
Y2950D01*
D02*
G37*
G36*
X5550Y2362D02*
Y2050D01*
X5862D01*
X5856Y2095D01*
X5819Y2184D01*
X5761Y2261D01*
X5684Y2319D01*
X5595Y2356D01*
X5550Y2362D01*
D02*
G37*
G36*
X5450D02*
X5405Y2356D01*
X5316Y2319D01*
X5239Y2261D01*
X5181Y2184D01*
X5144Y2095D01*
X5138Y2050D01*
X5450D01*
Y2362D01*
D02*
G37*
G36*
X5862Y1950D02*
X5550D01*
Y1638D01*
X5595Y1644D01*
X5684Y1681D01*
X5761Y1739D01*
X5819Y1816D01*
X5856Y1905D01*
X5862Y1950D01*
D02*
G37*
G36*
X5450D02*
X5138D01*
X5144Y1905D01*
X5181Y1816D01*
X5239Y1739D01*
X5316Y1681D01*
X5405Y1644D01*
X5450Y1638D01*
Y1950D01*
D02*
G37*
%LPD*%
D14*
X9909Y6004D02*
D03*
Y3996D02*
D03*
X3409Y6004D02*
D03*
Y3996D02*
D03*
D16*
X7912Y7588D02*
G03*
X8124Y7500I212J212D01*
G01*
X8788Y7412D02*
G03*
X8576Y7500I-212J-212D01*
G01*
X9230Y6846D02*
G03*
X9142Y7058I-300J0D01*
G01*
X9156Y5044D02*
G03*
X9262Y5000I106J106D01*
G01*
X7956Y5544D02*
G03*
X8062Y5500I106J106D01*
G01*
X8744Y5456D02*
G03*
X8638Y5500I-106J-106D01*
G01*
X2900Y7000D02*
G03*
X2750Y6850I0J-150D01*
G01*
Y5150D02*
G03*
X2900Y5000I150J0D01*
G01*
X5456Y5906D02*
G03*
X5500Y6012I-106J106D01*
G01*
X5078Y5591D02*
G03*
X5184Y5634I0J150D01*
G01*
X4456Y5906D02*
G03*
X4500Y6012I-106J106D01*
G01*
X4294Y5744D02*
G03*
X4250Y5638I106J-106D01*
G01*
Y4559D02*
G03*
X4400Y4409I150J0D01*
G01*
X3896Y4554D02*
G03*
X3769Y4606I-127J-127D01*
G01*
X3591Y4357D02*
G03*
X3463Y4409I-127J-127D01*
G01*
X3416Y5591D02*
G03*
X3543Y5643I0J180D01*
G01*
X3631Y5394D02*
G03*
X3758Y5446I0J180D01*
G01*
X3986Y5600D02*
G03*
X3859Y5547I0J-180D01*
G01*
X8801Y2000D02*
G03*
X8970Y2070I0J240D01*
G01*
X9130Y2230D02*
G03*
X9200Y2399I-170J170D01*
G01*
X9378Y4606D02*
G03*
X9307Y4577I0J-100D01*
G01*
X9229Y4499D02*
G03*
X9200Y4429I71J-71D01*
G01*
X10247Y4259D02*
G03*
X10097Y4409I-150J0D01*
G01*
X10700Y5176D02*
G03*
X10612Y5388I-300J0D01*
G01*
X10700Y4756D02*
G03*
X10850Y4606I150J0D01*
G01*
X7927Y6573D02*
G03*
X8104Y6500I177J177D01*
G01*
X8773Y6427D02*
G03*
X8596Y6500I-177J-177D01*
G01*
X9000Y6096D02*
G03*
X8927Y6273I-250J0D01*
G01*
X9000Y5904D02*
G03*
X9073Y5727I250J0D01*
G01*
X9333Y5467D02*
G03*
X9510Y5394I177J177D01*
G01*
X9230Y6007D02*
G03*
X9303Y5830I250J0D01*
G01*
X9469Y5664D02*
G03*
X9646Y5591I177J177D01*
G01*
X9230Y5270D02*
G03*
X9407Y5197I177J177D01*
G01*
X9230Y6007D02*
Y6846D01*
X8124Y7500D02*
X8576D01*
X7500Y8000D02*
X7912Y7588D01*
X8788Y7412D02*
X9142Y7058D01*
X9156Y5044D02*
X9156Y5044D01*
X8744Y5456D02*
X9156Y5044D01*
X8744Y5456D02*
X8744Y5456D01*
X9262Y5000D02*
X9791D01*
X7956Y5544D02*
X7956Y5544D01*
X7500Y6000D02*
X7956Y5544D01*
X8062Y5500D02*
X8638D01*
X2900Y7000D02*
X3500D01*
X2750Y5150D02*
Y6850D01*
X2900Y5000D02*
X3291D01*
X5456Y5906D02*
X5456Y5906D01*
X5184Y5634D02*
X5456Y5906D01*
X5184Y5634D02*
X5184Y5634D01*
X4709Y5591D02*
X5078D01*
X5500Y6012D02*
Y7000D01*
X4456Y5906D02*
X4456Y5906D01*
X4294Y5744D02*
X4456Y5906D01*
X4294Y5744D02*
X4294Y5744D01*
X4250Y4559D02*
Y5638D01*
X4400Y4409D02*
X4709D01*
X4500Y6012D02*
Y7000D01*
X3896Y4554D02*
X4000Y4450D01*
X3291Y4606D02*
X3769D01*
X3291Y4409D02*
X3463D01*
X3591Y4357D02*
X3847Y4100D01*
X3291Y5591D02*
X3416D01*
X3543Y5643D02*
X3800Y5900D01*
X3291Y5394D02*
X3631D01*
X3986Y5600D02*
X4000D01*
X3758Y5446D02*
X3859Y5547D01*
X8500Y2000D02*
X8801D01*
X8970Y2070D02*
X9130Y2230D01*
X9200Y2399D02*
Y4429D01*
X9378Y4606D02*
X9791D01*
X9229Y4499D02*
X9307Y4577D01*
X10247Y4200D02*
Y4259D01*
X9791Y4409D02*
X10097D01*
X10700Y4756D02*
Y5176D01*
X10500Y5500D02*
X10612Y5388D01*
X10850Y4606D02*
X11209D01*
X10500Y4409D02*
X11209D01*
X8104Y6500D02*
X8596D01*
X8773Y6427D02*
X8927Y6273D01*
X9000Y5904D02*
Y6096D01*
X9073Y5727D02*
X9333Y5467D01*
X9510Y5394D02*
X9791D01*
X7500Y7000D02*
X7927Y6573D01*
X9303Y5830D02*
X9469Y5664D01*
X9646Y5591D02*
X9791D01*
X9407Y5197D02*
X9791D01*
X8500Y6000D02*
X9230Y5270D01*
X3291Y5197D02*
X3997D01*
X4000Y5200D01*
X3291Y4803D02*
X4000D01*
X9791D02*
X10247D01*
D17*
X9156Y5044D02*
D03*
X7956Y5544D02*
D03*
X8744Y5456D02*
D03*
X5456Y5906D02*
D03*
X5184Y5634D02*
D03*
X4456Y5906D02*
D03*
X4294Y5744D02*
D03*
D18*
X9791Y5000D02*
D03*
Y4803D02*
D03*
Y4606D02*
D03*
Y4409D02*
D03*
Y5197D02*
D03*
Y5394D02*
D03*
Y5591D02*
D03*
X11209Y5000D02*
D03*
Y4803D02*
D03*
Y4606D02*
D03*
Y4409D02*
D03*
Y5197D02*
D03*
Y5394D02*
D03*
Y5591D02*
D03*
X3291Y5000D02*
D03*
Y4803D02*
D03*
Y4606D02*
D03*
Y4409D02*
D03*
Y5197D02*
D03*
Y5394D02*
D03*
Y5591D02*
D03*
X4709Y5000D02*
D03*
Y4803D02*
D03*
Y4606D02*
D03*
Y4409D02*
D03*
Y5197D02*
D03*
Y5394D02*
D03*
Y5591D02*
D03*
D19*
X10500Y3720D02*
D03*
Y6280D02*
D03*
X4000Y3720D02*
D03*
Y6280D02*
D03*
D20*
X5500Y3000D02*
X6500Y2000D01*
D21*
D03*
X5500D02*
D03*
X4500D02*
D03*
X3500D02*
D03*
Y3000D02*
D03*
X4500D02*
D03*
X5500D02*
D03*
X6500D02*
D03*
X3500Y7000D02*
D03*
X4500D02*
D03*
X5500D02*
D03*
X6500D02*
D03*
Y8000D02*
D03*
X5500D02*
D03*
X4500D02*
D03*
X3500D02*
D03*
X8500D02*
D03*
Y7000D02*
D03*
Y6000D02*
D03*
Y5000D02*
D03*
Y4000D02*
D03*
Y3000D02*
D03*
Y2000D02*
D03*
Y1000D02*
D03*
X7500D02*
D03*
Y2000D02*
D03*
Y3000D02*
D03*
Y4000D02*
D03*
Y5000D02*
D03*
Y6000D02*
D03*
Y7000D02*
D03*
Y8000D02*
D03*
Y9000D02*
D03*
X8500D02*
D03*
D22*
X900Y9100D02*
D03*
Y6100D02*
D03*
Y3900D02*
D03*
Y900D02*
D03*
D23*
X4000Y4450D02*
D03*
X3847Y4100D02*
D03*
X3800Y5900D02*
D03*
X4000Y5600D02*
D03*
X10247Y4200D02*
D03*
X10500Y5500D02*
D03*
Y4409D02*
D03*
X4000Y5200D02*
D03*
Y4803D02*
D03*
X10247D02*
D03*
M02*
