G04*
G04 #@! TF.GenerationSoftware,Altium Limited,Altium Designer,18.1.7 (191)*
G04*
G04 Layer_Color=65535*
%FSLAX24Y24*%
%MOIN*%
G70*
G01*
G75*
%ADD10C,0.0079*%
G36*
X9262Y608D02*
Y630D01*
X9269D01*
Y638D01*
X9262D01*
Y645D01*
X9269D01*
Y652D01*
X9277D01*
Y660D01*
X9284D01*
Y682D01*
X9291D01*
Y704D01*
X9299D01*
Y718D01*
X9306D01*
Y733D01*
X9313D01*
Y755D01*
X9321D01*
Y777D01*
X9328D01*
Y792D01*
X9335D01*
Y806D01*
X9343D01*
Y821D01*
X9350D01*
Y836D01*
X9357D01*
Y850D01*
X9365D01*
Y865D01*
X9372D01*
Y879D01*
X9379D01*
Y894D01*
X9387D01*
Y909D01*
X9394D01*
Y923D01*
X9401D01*
Y938D01*
X9409D01*
Y953D01*
X9416D01*
Y967D01*
X9423D01*
Y982D01*
X9431D01*
Y989D01*
X9438D01*
Y1004D01*
X9445D01*
Y1019D01*
X9453D01*
Y1026D01*
X9460D01*
Y1048D01*
X9467D01*
Y1063D01*
X9475D01*
Y1077D01*
X9482D01*
Y1085D01*
X9489D01*
Y1107D01*
X9497D01*
Y1121D01*
X9504D01*
Y1136D01*
X9511D01*
Y1143D01*
X9519D01*
Y1158D01*
X9526D01*
Y1172D01*
X9533D01*
Y1187D01*
X9540D01*
Y1202D01*
X9548D01*
Y1216D01*
X9555D01*
Y1231D01*
X9562D01*
Y1238D01*
X9570D01*
Y1253D01*
X9577D01*
Y1268D01*
X9584D01*
Y1275D01*
X9592D01*
Y1297D01*
X9599D01*
Y1304D01*
X9606D01*
Y1312D01*
X9614D01*
Y1319D01*
X9621D01*
Y1341D01*
X9628D01*
Y1348D01*
X9636D01*
Y1363D01*
X9643D01*
Y1378D01*
X9650D01*
Y1385D01*
X9658D01*
Y1400D01*
X9665D01*
Y1414D01*
X9672D01*
Y1421D01*
X9680D01*
Y1436D01*
X9687D01*
Y1443D01*
X9694D01*
Y1458D01*
X9702D01*
Y1465D01*
X9709D01*
Y1487D01*
X9716D01*
Y1495D01*
X9724D01*
Y1509D01*
X9731D01*
Y1524D01*
X9738D01*
Y1531D01*
X9746D01*
Y1546D01*
X9753D01*
Y1561D01*
X9760D01*
Y1568D01*
X9768D01*
Y1590D01*
X9775D01*
Y1612D01*
X9782D01*
Y1627D01*
X9790D01*
Y1641D01*
X9797D01*
Y1656D01*
X9804D01*
Y1671D01*
X9811D01*
Y1692D01*
X9819D01*
Y1700D01*
X9826D01*
Y1714D01*
X9833D01*
Y1729D01*
X9841D01*
Y1744D01*
X9848D01*
Y1758D01*
X9855D01*
Y1780D01*
X9863D01*
Y1788D01*
X9870D01*
Y1810D01*
X9877D01*
Y1824D01*
X9885D01*
Y1839D01*
X9892D01*
Y1854D01*
X9899D01*
Y1868D01*
X9907D01*
Y1883D01*
X9914D01*
Y1898D01*
X9921D01*
Y1905D01*
X9929D01*
Y1927D01*
X9936D01*
Y1942D01*
X9943D01*
Y1956D01*
X9951D01*
Y1971D01*
X9958D01*
Y1993D01*
X9965D01*
Y2007D01*
X9973D01*
Y2022D01*
X9980D01*
Y2029D01*
X9987D01*
Y2051D01*
X9995D01*
Y2066D01*
X10002D01*
Y2088D01*
X9995D01*
X9987D01*
Y2081D01*
X9980D01*
X9973D01*
Y2073D01*
X9965D01*
X9958D01*
Y2066D01*
X9951D01*
X9943D01*
Y2073D01*
X9936D01*
X9929D01*
X9921D01*
X9914D01*
Y2081D01*
X9907D01*
X9899D01*
Y2088D01*
X9892D01*
Y2103D01*
X9885D01*
Y2125D01*
X9877D01*
Y2242D01*
X9885D01*
Y2286D01*
X9892D01*
Y2300D01*
X9899D01*
Y2308D01*
X9892D01*
Y2315D01*
X9899D01*
Y2337D01*
X9907D01*
Y2359D01*
X9914D01*
Y2388D01*
X9921D01*
Y2418D01*
X9929D01*
Y2440D01*
X9936D01*
Y2469D01*
X9943D01*
Y2498D01*
X9951D01*
Y2513D01*
X9958D01*
Y2535D01*
X9951D01*
Y2527D01*
X9943D01*
X9936D01*
Y2520D01*
X9929D01*
Y2513D01*
X9921D01*
Y2498D01*
X9914D01*
Y2491D01*
X9907D01*
Y2484D01*
X9899D01*
Y2476D01*
X9892D01*
Y2469D01*
X9885D01*
Y2462D01*
X9877D01*
Y2454D01*
X9870D01*
Y2447D01*
X9863D01*
Y2432D01*
X9855D01*
X9848D01*
Y2418D01*
X9841D01*
Y2410D01*
X9833D01*
Y2403D01*
X9826D01*
Y2396D01*
X9819D01*
Y2388D01*
X9811D01*
Y2381D01*
X9804D01*
Y2374D01*
X9797D01*
Y2366D01*
X9790D01*
Y2352D01*
X9782D01*
Y2344D01*
X9775D01*
Y2337D01*
X9768D01*
Y2330D01*
X9760D01*
Y2315D01*
X9753D01*
Y2308D01*
X9746D01*
Y2300D01*
X9738D01*
Y2293D01*
X9731D01*
Y2286D01*
X9724D01*
Y2278D01*
X9716D01*
Y2271D01*
X9709D01*
Y2264D01*
X9702D01*
Y2256D01*
X9694D01*
Y2249D01*
X9687D01*
Y2242D01*
X9680D01*
Y2235D01*
X9672D01*
Y2227D01*
X9665D01*
Y2220D01*
X9658D01*
Y2213D01*
X9650D01*
Y2205D01*
X9643D01*
Y2198D01*
X9636D01*
Y2191D01*
X9628D01*
Y2183D01*
X9621D01*
Y2176D01*
X9614D01*
Y2169D01*
X9606D01*
Y2161D01*
X9599D01*
Y2154D01*
X9592D01*
Y2147D01*
X9584D01*
Y2132D01*
X9577D01*
X9570D01*
Y2125D01*
X9562D01*
Y2110D01*
X9555D01*
Y2103D01*
X9548D01*
Y2095D01*
X9540D01*
Y2088D01*
X9533D01*
Y2081D01*
X9526D01*
Y2066D01*
X9519D01*
Y2059D01*
X9511D01*
Y2051D01*
X9504D01*
Y2044D01*
X9497D01*
Y2037D01*
X9489D01*
Y2029D01*
X9482D01*
Y2022D01*
X9475D01*
Y2015D01*
X9467D01*
Y2007D01*
X9460D01*
Y2000D01*
X9453D01*
Y1993D01*
X9445D01*
Y1985D01*
X9438D01*
Y1978D01*
X9431D01*
X9423D01*
Y1971D01*
X9416D01*
Y1963D01*
X9409D01*
Y1956D01*
X9401D01*
Y1949D01*
X9394D01*
Y1942D01*
X9387D01*
Y1934D01*
X9379D01*
Y1927D01*
X9372D01*
Y1920D01*
X9365D01*
Y1912D01*
X9357D01*
Y1905D01*
X9350D01*
Y1898D01*
X9343D01*
Y1890D01*
X9335D01*
Y1883D01*
X9328D01*
X9321D01*
Y1876D01*
X9313D01*
Y1868D01*
X9306D01*
X9299D01*
Y1861D01*
X9291D01*
X9284D01*
X9277D01*
X9269D01*
Y1868D01*
X9277D01*
Y1876D01*
X9284D01*
Y1883D01*
X9291D01*
Y1890D01*
X9299D01*
Y1898D01*
X9306D01*
Y1905D01*
X9313D01*
Y1912D01*
X9321D01*
Y1920D01*
X9328D01*
Y1927D01*
X9335D01*
Y1934D01*
X9343D01*
Y1942D01*
X9350D01*
Y1949D01*
X9357D01*
Y1956D01*
X9365D01*
Y1963D01*
X9372D01*
Y1971D01*
X9379D01*
Y1978D01*
X9387D01*
Y1985D01*
X9394D01*
Y1993D01*
X9401D01*
Y2000D01*
X9409D01*
Y2007D01*
X9416D01*
Y2015D01*
X9423D01*
Y2029D01*
X9431D01*
Y2037D01*
X9438D01*
X9445D01*
Y2051D01*
X9453D01*
Y2059D01*
X9460D01*
Y2066D01*
X9467D01*
Y2073D01*
X9475D01*
Y2081D01*
X9482D01*
Y2088D01*
X9489D01*
Y2103D01*
X9497D01*
Y2110D01*
X9504D01*
Y2117D01*
X9511D01*
Y2132D01*
X9519D01*
X9526D01*
Y2147D01*
X9533D01*
X9540D01*
Y2154D01*
X9548D01*
Y2161D01*
X9555D01*
Y2176D01*
X9562D01*
Y2183D01*
X9570D01*
Y2191D01*
X9577D01*
Y2198D01*
X9584D01*
Y2205D01*
X9592D01*
Y2213D01*
X9599D01*
Y2220D01*
X9606D01*
Y2227D01*
X9614D01*
Y2235D01*
X9621D01*
Y2242D01*
X9628D01*
Y2249D01*
X9636D01*
Y2256D01*
X9643D01*
Y2264D01*
X9650D01*
Y2271D01*
X9658D01*
Y2278D01*
X9665D01*
Y2286D01*
X9672D01*
Y2293D01*
X9680D01*
Y2300D01*
X9687D01*
Y2308D01*
X9694D01*
Y2315D01*
X9702D01*
Y2322D01*
X9709D01*
Y2330D01*
X9716D01*
Y2344D01*
X9724D01*
Y2352D01*
X9731D01*
Y2359D01*
X9738D01*
Y2366D01*
X9746D01*
Y2374D01*
X9753D01*
Y2381D01*
X9760D01*
Y2388D01*
X9768D01*
Y2403D01*
X9775D01*
Y2410D01*
X9782D01*
Y2418D01*
X9790D01*
Y2425D01*
X9797D01*
Y2432D01*
X9804D01*
Y2440D01*
X9811D01*
Y2447D01*
X9819D01*
Y2462D01*
X9826D01*
Y2469D01*
X9833D01*
Y2476D01*
X9841D01*
Y2484D01*
X9848D01*
Y2491D01*
X9855D01*
Y2498D01*
X9863D01*
Y2506D01*
X9870D01*
Y2513D01*
X9877D01*
Y2520D01*
X9885D01*
Y2527D01*
X9892D01*
Y2535D01*
X9899D01*
Y2549D01*
X9907D01*
Y2557D01*
X9914D01*
Y2564D01*
X9921D01*
Y2571D01*
X9929D01*
Y2579D01*
X9936D01*
Y2586D01*
X9943D01*
Y2593D01*
X9951D01*
Y2601D01*
X9958D01*
Y2608D01*
X9965D01*
Y2615D01*
X9973D01*
Y2630D01*
X9980D01*
Y2637D01*
X9987D01*
Y2645D01*
X9995D01*
Y2652D01*
X10002D01*
Y2659D01*
X10009D01*
Y2674D01*
X10017D01*
Y2696D01*
X10024D01*
Y2718D01*
X10031D01*
Y2733D01*
X10039D01*
Y2747D01*
X10046D01*
Y2762D01*
X10053D01*
Y2777D01*
X10061D01*
Y2791D01*
X10068D01*
Y2813D01*
X10075D01*
Y2828D01*
X10082D01*
Y2842D01*
X10090D01*
Y2864D01*
X10097D01*
Y2872D01*
X10104D01*
Y2894D01*
X10112D01*
Y2908D01*
X10119D01*
Y2923D01*
X10126D01*
Y2945D01*
X10134D01*
X10141D01*
Y2960D01*
X10148D01*
Y2967D01*
X10156D01*
Y2982D01*
X10163D01*
Y2996D01*
X10170D01*
Y3004D01*
X10178D01*
Y3018D01*
X10185D01*
Y3026D01*
X10192D01*
Y3040D01*
X10200D01*
Y3048D01*
X10207D01*
Y3055D01*
X10214D01*
Y3070D01*
X10222D01*
Y3077D01*
X10229D01*
Y3084D01*
X10236D01*
Y3091D01*
X10244D01*
Y3099D01*
X10251D01*
Y3106D01*
X10258D01*
X10266D01*
Y3113D01*
X10273D01*
X10280D01*
X10288D01*
X10295D01*
X10302D01*
Y3106D01*
X10310D01*
Y3055D01*
X10302D01*
Y3026D01*
X10295D01*
Y3018D01*
X10288D01*
Y2996D01*
X10280D01*
Y2982D01*
X10273D01*
Y2967D01*
X10266D01*
Y2960D01*
X10258D01*
Y2945D01*
X10251D01*
Y2930D01*
X10244D01*
Y2916D01*
X10236D01*
Y2908D01*
X10229D01*
Y2894D01*
X10222D01*
Y2879D01*
X10214D01*
Y2872D01*
X10207D01*
Y2864D01*
X10200D01*
Y2857D01*
X10192D01*
Y2850D01*
X10185D01*
Y2828D01*
X10178D01*
Y2820D01*
X10170D01*
Y2813D01*
X10163D01*
Y2799D01*
X10156D01*
Y2791D01*
X10148D01*
Y2777D01*
X10141D01*
Y2769D01*
X10134D01*
Y2762D01*
X10126D01*
Y2747D01*
X10119D01*
Y2740D01*
X10112D01*
Y2725D01*
X10104D01*
Y2718D01*
X10097D01*
Y2711D01*
X10090D01*
Y2703D01*
X10082D01*
Y2681D01*
X10075D01*
Y2667D01*
X10068D01*
Y2645D01*
X10061D01*
Y2630D01*
X10053D01*
Y2608D01*
X10046D01*
Y2593D01*
X10039D01*
Y2579D01*
X10031D01*
Y2557D01*
X10024D01*
Y2535D01*
X10017D01*
Y2506D01*
X10009D01*
Y2484D01*
X10002D01*
Y2454D01*
X9995D01*
Y2432D01*
X9987D01*
Y2410D01*
X9980D01*
Y2388D01*
X9973D01*
Y2359D01*
X9965D01*
Y2330D01*
X9958D01*
Y2293D01*
X9951D01*
Y2256D01*
X9943D01*
Y2220D01*
X9936D01*
Y2213D01*
X9943D01*
Y2205D01*
X9936D01*
Y2139D01*
X9943D01*
X9951D01*
X9958D01*
Y2147D01*
X9965D01*
X9973D01*
Y2154D01*
X9980D01*
Y2161D01*
X9987D01*
Y2169D01*
X9995D01*
Y2176D01*
X10002D01*
Y2183D01*
X10009D01*
Y2191D01*
X10017D01*
Y2198D01*
X10024D01*
Y2205D01*
X10031D01*
Y2213D01*
X10039D01*
Y2220D01*
X10046D01*
Y2227D01*
X10053D01*
Y2235D01*
X10061D01*
Y2242D01*
X10068D01*
Y2249D01*
X10075D01*
Y2264D01*
X10082D01*
Y2271D01*
X10090D01*
Y2278D01*
X10097D01*
Y2286D01*
X10104D01*
Y2293D01*
X10112D01*
Y2308D01*
X10119D01*
Y2330D01*
X10126D01*
Y2344D01*
X10134D01*
Y2352D01*
X10141D01*
Y2359D01*
X10148D01*
Y2381D01*
X10156D01*
Y2388D01*
X10163D01*
Y2410D01*
X10170D01*
Y2425D01*
X10178D01*
Y2432D01*
X10185D01*
Y2447D01*
X10192D01*
Y2469D01*
X10200D01*
Y2484D01*
X10207D01*
Y2498D01*
X10214D01*
Y2506D01*
X10222D01*
Y2513D01*
X10229D01*
Y2527D01*
X10236D01*
Y2542D01*
X10244D01*
Y2564D01*
X10251D01*
Y2579D01*
X10258D01*
Y2593D01*
X10266D01*
Y2608D01*
X10273D01*
Y2623D01*
X10280D01*
Y2637D01*
X10288D01*
Y2645D01*
X10295D01*
Y2659D01*
X10302D01*
Y2674D01*
X10310D01*
Y2689D01*
X10317D01*
Y2711D01*
X10324D01*
Y2725D01*
X10332D01*
Y2733D01*
X10339D01*
Y2747D01*
X10346D01*
Y2762D01*
X10354D01*
Y2784D01*
X10361D01*
Y2799D01*
X10368D01*
Y2806D01*
X10375D01*
Y2813D01*
X10383D01*
Y2835D01*
X10390D01*
Y2842D01*
X10397D01*
Y2864D01*
X10405D01*
Y2872D01*
X10412D01*
Y2886D01*
X10419D01*
Y2901D01*
X10427D01*
Y2916D01*
X10434D01*
Y2930D01*
X10441D01*
Y2945D01*
X10449D01*
X10456D01*
Y2960D01*
X10463D01*
Y2974D01*
X10471D01*
Y2996D01*
X10478D01*
Y3004D01*
X10485D01*
Y3018D01*
X10493D01*
Y3033D01*
X10500D01*
Y3048D01*
X10507D01*
Y3062D01*
X10515D01*
Y3077D01*
X10522D01*
Y3084D01*
X10529D01*
Y3099D01*
X10537D01*
Y3106D01*
X10544D01*
Y3121D01*
X10551D01*
Y3135D01*
X10559D01*
Y3143D01*
X10566D01*
Y3157D01*
X10573D01*
Y3165D01*
X10581D01*
Y3179D01*
X10588D01*
Y3187D01*
X10595D01*
Y3194D01*
X10603D01*
Y3201D01*
X10610D01*
X10617D01*
X10625D01*
X10632D01*
X10639D01*
Y3194D01*
X10646D01*
Y3157D01*
X10639D01*
Y3128D01*
X10632D01*
Y3113D01*
X10625D01*
Y3091D01*
X10617D01*
Y3084D01*
X10610D01*
Y3062D01*
X10603D01*
Y3055D01*
X10595D01*
Y3033D01*
X10588D01*
Y3018D01*
X10581D01*
Y2996D01*
X10573D01*
Y2982D01*
X10566D01*
Y2960D01*
X10559D01*
Y2945D01*
X10551D01*
Y2923D01*
X10544D01*
Y2908D01*
X10537D01*
Y2894D01*
X10529D01*
Y2879D01*
X10522D01*
Y2872D01*
X10515D01*
Y2850D01*
X10507D01*
Y2835D01*
X10500D01*
Y2820D01*
X10493D01*
Y2799D01*
X10485D01*
Y2791D01*
X10478D01*
Y2769D01*
X10471D01*
Y2755D01*
X10463D01*
Y2740D01*
X10456D01*
Y2725D01*
X10449D01*
Y2711D01*
X10441D01*
Y2703D01*
X10434D01*
Y2689D01*
X10427D01*
Y2674D01*
X10419D01*
Y2659D01*
X10412D01*
Y2645D01*
X10405D01*
Y2637D01*
X10397D01*
Y2623D01*
X10390D01*
Y2608D01*
X10383D01*
Y2601D01*
X10375D01*
Y2579D01*
X10368D01*
Y2571D01*
X10361D01*
Y2564D01*
X10354D01*
Y2549D01*
X10346D01*
Y2535D01*
X10339D01*
Y2520D01*
X10332D01*
Y2506D01*
X10324D01*
Y2498D01*
X10317D01*
Y2484D01*
X10310D01*
Y2476D01*
X10302D01*
Y2462D01*
X10295D01*
Y2454D01*
X10288D01*
Y2447D01*
X10280D01*
Y2432D01*
X10273D01*
Y2425D01*
X10266D01*
Y2410D01*
X10258D01*
Y2403D01*
X10251D01*
Y2396D01*
X10244D01*
Y2381D01*
X10236D01*
Y2366D01*
X10229D01*
Y2359D01*
X10222D01*
Y2352D01*
X10214D01*
Y2337D01*
X10207D01*
Y2330D01*
X10200D01*
Y2315D01*
X10192D01*
Y2308D01*
X10185D01*
Y2300D01*
X10178D01*
Y2293D01*
X10170D01*
Y2278D01*
X10163D01*
Y2271D01*
X10156D01*
Y2256D01*
X10148D01*
Y2235D01*
X10141D01*
Y2227D01*
X10134D01*
Y2213D01*
X10126D01*
Y2198D01*
X10119D01*
Y2183D01*
X10112D01*
Y2169D01*
X10104D01*
Y2147D01*
X10097D01*
Y2132D01*
X10090D01*
Y2117D01*
X10082D01*
Y2095D01*
X10075D01*
Y2088D01*
X10068D01*
Y2066D01*
X10061D01*
Y2059D01*
X10053D01*
Y2051D01*
X10061D01*
Y2044D01*
X10068D01*
X10075D01*
Y2051D01*
X10082D01*
Y2066D01*
X10090D01*
Y2073D01*
X10097D01*
Y2088D01*
X10104D01*
Y2103D01*
X10112D01*
Y2110D01*
X10119D01*
Y2125D01*
X10126D01*
Y2132D01*
X10134D01*
Y2147D01*
X10141D01*
Y2154D01*
X10148D01*
Y2161D01*
X10156D01*
Y2176D01*
X10163D01*
Y2183D01*
X10170D01*
Y2191D01*
X10178D01*
Y2198D01*
X10185D01*
Y2205D01*
X10192D01*
Y2213D01*
X10200D01*
Y2220D01*
X10207D01*
X10214D01*
X10222D01*
X10229D01*
X10236D01*
X10244D01*
Y2213D01*
X10251D01*
Y2176D01*
X10244D01*
Y2154D01*
X10236D01*
Y2132D01*
X10229D01*
Y2117D01*
X10222D01*
Y2103D01*
X10214D01*
Y2095D01*
X10222D01*
Y2088D01*
X10229D01*
Y2095D01*
X10236D01*
Y2103D01*
X10244D01*
Y2110D01*
X10251D01*
Y2125D01*
X10258D01*
Y2132D01*
X10266D01*
Y2147D01*
X10273D01*
Y2154D01*
X10280D01*
Y2161D01*
X10288D01*
Y2169D01*
X10295D01*
Y2176D01*
X10302D01*
Y2183D01*
X10310D01*
Y2198D01*
X10317D01*
Y2205D01*
X10324D01*
Y2213D01*
X10332D01*
Y2227D01*
X10339D01*
Y2235D01*
X10346D01*
X10354D01*
X10361D01*
X10368D01*
Y2227D01*
X10375D01*
Y2213D01*
X10368D01*
Y2205D01*
X10361D01*
Y2183D01*
X10354D01*
Y2161D01*
X10346D01*
Y2103D01*
X10354D01*
X10361D01*
Y2095D01*
X10368D01*
X10375D01*
X10383D01*
Y2103D01*
X10390D01*
X10397D01*
Y2110D01*
X10405D01*
X10412D01*
Y2125D01*
X10419D01*
Y2132D01*
X10427D01*
Y2139D01*
X10434D01*
Y2147D01*
X10441D01*
Y2154D01*
X10449D01*
Y2161D01*
X10456D01*
Y2169D01*
X10463D01*
Y2176D01*
X10471D01*
Y2183D01*
X10478D01*
Y2198D01*
X10485D01*
X10493D01*
Y2213D01*
X10500D01*
Y2220D01*
X10507D01*
Y2242D01*
X10515D01*
Y2264D01*
X10522D01*
Y2271D01*
X10529D01*
Y2293D01*
X10537D01*
Y2308D01*
X10544D01*
Y2330D01*
X10551D01*
Y2344D01*
X10559D01*
Y2366D01*
X10566D01*
Y2381D01*
X10573D01*
Y2396D01*
X10581D01*
Y2418D01*
X10588D01*
Y2432D01*
X10595D01*
Y2447D01*
X10603D01*
Y2462D01*
X10610D01*
Y2476D01*
X10617D01*
Y2484D01*
X10625D01*
Y2506D01*
X10632D01*
Y2520D01*
X10639D01*
Y2535D01*
X10646D01*
Y2557D01*
X10654D01*
Y2571D01*
X10661D01*
Y2586D01*
X10668D01*
Y2601D01*
X10676D01*
Y2615D01*
X10683D01*
Y2623D01*
X10690D01*
Y2637D01*
X10698D01*
Y2652D01*
X10705D01*
Y2667D01*
X10712D01*
Y2681D01*
X10720D01*
Y2703D01*
X10727D01*
Y2718D01*
X10734D01*
Y2733D01*
X10742D01*
Y2747D01*
X10749D01*
Y2762D01*
X10756D01*
Y2777D01*
X10764D01*
Y2784D01*
X10771D01*
Y2799D01*
X10778D01*
Y2813D01*
X10786D01*
Y2828D01*
X10793D01*
Y2842D01*
X10800D01*
Y2857D01*
X10808D01*
Y2872D01*
X10815D01*
Y2879D01*
X10822D01*
Y2894D01*
X10830D01*
Y2908D01*
X10837D01*
Y2923D01*
X10844D01*
Y2930D01*
X10852D01*
Y2945D01*
X10859D01*
Y2960D01*
X10866D01*
Y2967D01*
X10874D01*
Y2982D01*
X10881D01*
Y2996D01*
X10888D01*
Y3011D01*
X10896D01*
Y3018D01*
X10903D01*
Y3033D01*
X10910D01*
Y3040D01*
X10918D01*
Y3055D01*
X10925D01*
Y3070D01*
X10932D01*
Y3077D01*
X10939D01*
Y3084D01*
X10947D01*
Y3099D01*
X10954D01*
Y3106D01*
X10961D01*
Y3121D01*
X10969D01*
Y3128D01*
X10976D01*
Y3135D01*
X10983D01*
Y3143D01*
X10991D01*
X10998D01*
Y3150D01*
X11005D01*
X11013D01*
X11020D01*
X11027D01*
X11035D01*
Y3135D01*
X11042D01*
Y3106D01*
X11035D01*
Y3084D01*
X11027D01*
Y3070D01*
X11020D01*
Y3048D01*
X11013D01*
Y3033D01*
X11005D01*
Y3018D01*
X10998D01*
Y3011D01*
X10991D01*
Y2989D01*
X10983D01*
Y2974D01*
X10976D01*
Y2952D01*
X10969D01*
Y2938D01*
X10961D01*
Y2916D01*
X10954D01*
Y2908D01*
X10947D01*
Y2886D01*
X10939D01*
Y2864D01*
X10932D01*
Y2857D01*
X10925D01*
Y2835D01*
X10918D01*
Y2828D01*
X10910D01*
Y2806D01*
X10903D01*
Y2799D01*
X10896D01*
Y2777D01*
X10888D01*
Y2755D01*
X10881D01*
Y2747D01*
X10874D01*
Y2725D01*
X10866D01*
Y2711D01*
X10859D01*
Y2696D01*
X10852D01*
Y2689D01*
X10844D01*
Y2667D01*
X10837D01*
Y2659D01*
X10830D01*
Y2645D01*
X10822D01*
Y2630D01*
X10815D01*
Y2615D01*
X10808D01*
Y2601D01*
X10800D01*
Y2593D01*
X10793D01*
Y2579D01*
X10786D01*
Y2564D01*
X10778D01*
Y2557D01*
X10771D01*
Y2535D01*
X10764D01*
Y2527D01*
X10756D01*
Y2513D01*
X10749D01*
Y2506D01*
X10742D01*
Y2491D01*
X10734D01*
Y2484D01*
X10727D01*
Y2462D01*
X10720D01*
Y2454D01*
X10712D01*
Y2440D01*
X10705D01*
Y2425D01*
X10698D01*
Y2418D01*
X10690D01*
Y2403D01*
X10683D01*
Y2396D01*
X10676D01*
Y2381D01*
X10668D01*
Y2374D01*
X10661D01*
Y2366D01*
X10654D01*
Y2352D01*
X10646D01*
Y2344D01*
X10639D01*
Y2330D01*
X10632D01*
Y2322D01*
X10625D01*
Y2315D01*
X10617D01*
Y2308D01*
X10610D01*
Y2293D01*
X10603D01*
Y2286D01*
X10595D01*
Y2278D01*
X10588D01*
Y2271D01*
X10581D01*
Y2249D01*
X10573D01*
Y2227D01*
X10566D01*
Y2205D01*
X10559D01*
Y2191D01*
X10551D01*
Y2169D01*
X10544D01*
Y2147D01*
X10537D01*
Y2125D01*
X10529D01*
Y2117D01*
X10522D01*
Y2095D01*
X10515D01*
Y2073D01*
X10507D01*
Y2051D01*
X10500D01*
Y2029D01*
X10493D01*
Y2015D01*
X10485D01*
Y1993D01*
X10478D01*
Y1963D01*
X10471D01*
Y1949D01*
X10463D01*
Y1927D01*
X10456D01*
Y1912D01*
X10449D01*
Y1890D01*
X10441D01*
Y1876D01*
X10434D01*
Y1861D01*
X10427D01*
Y1839D01*
X10419D01*
Y1810D01*
X10412D01*
Y1788D01*
X10405D01*
Y1766D01*
X10397D01*
Y1744D01*
X10390D01*
Y1714D01*
X10383D01*
Y1692D01*
X10375D01*
Y1685D01*
X10368D01*
Y1678D01*
X10375D01*
Y1671D01*
X10368D01*
Y1663D01*
X10361D01*
Y1641D01*
X10354D01*
Y1619D01*
X10346D01*
Y1590D01*
X10339D01*
Y1575D01*
X10332D01*
Y1546D01*
X10324D01*
Y1517D01*
X10317D01*
Y1495D01*
X10310D01*
Y1473D01*
X10302D01*
Y1443D01*
X10295D01*
Y1429D01*
X10288D01*
Y1407D01*
X10280D01*
Y1385D01*
X10273D01*
Y1363D01*
X10266D01*
Y1334D01*
X10258D01*
Y1304D01*
X10251D01*
Y1282D01*
X10244D01*
Y1253D01*
X10236D01*
Y1224D01*
X10229D01*
Y1202D01*
X10222D01*
Y1180D01*
X10214D01*
Y1158D01*
X10207D01*
Y1136D01*
X10200D01*
Y1107D01*
X10192D01*
Y1077D01*
X10185D01*
Y1041D01*
X10192D01*
X10200D01*
Y1055D01*
X10207D01*
Y1070D01*
X10214D01*
Y1085D01*
X10222D01*
Y1099D01*
X10229D01*
Y1114D01*
X10236D01*
Y1129D01*
X10244D01*
Y1143D01*
X10251D01*
Y1158D01*
X10258D01*
Y1172D01*
X10266D01*
Y1187D01*
X10273D01*
Y1202D01*
X10280D01*
Y1216D01*
X10288D01*
Y1231D01*
X10295D01*
Y1246D01*
X10302D01*
Y1260D01*
X10310D01*
Y1275D01*
X10317D01*
Y1282D01*
X10324D01*
Y1297D01*
X10332D01*
Y1312D01*
X10339D01*
Y1326D01*
X10346D01*
Y1334D01*
X10354D01*
Y1356D01*
X10361D01*
Y1370D01*
X10368D01*
Y1378D01*
X10375D01*
Y1392D01*
X10383D01*
Y1400D01*
X10390D01*
Y1407D01*
X10397D01*
Y1429D01*
X10405D01*
Y1443D01*
X10412D01*
Y1451D01*
X10419D01*
Y1465D01*
X10427D01*
Y1473D01*
X10434D01*
Y1495D01*
X10441D01*
Y1502D01*
X10449D01*
Y1509D01*
X10456D01*
Y1524D01*
X10463D01*
Y1539D01*
X10471D01*
Y1546D01*
X10478D01*
Y1553D01*
X10485D01*
Y1575D01*
X10493D01*
Y1583D01*
X10500D01*
Y1597D01*
X10507D01*
Y1612D01*
X10515D01*
Y1627D01*
X10522D01*
Y1641D01*
X10529D01*
Y1649D01*
X10537D01*
Y1656D01*
X10544D01*
Y1671D01*
X10551D01*
Y1685D01*
X10559D01*
Y1692D01*
X10566D01*
Y1707D01*
X10573D01*
Y1722D01*
X10581D01*
Y1736D01*
X10588D01*
Y1751D01*
X10595D01*
Y1758D01*
X10603D01*
Y1766D01*
X10610D01*
Y1780D01*
X10617D01*
Y1795D01*
X10625D01*
Y1802D01*
X10632D01*
Y1810D01*
X10639D01*
Y1824D01*
X10646D01*
Y1839D01*
X10654D01*
Y1846D01*
X10661D01*
Y1861D01*
X10668D01*
Y1876D01*
X10676D01*
Y1890D01*
X10683D01*
X10690D01*
Y1898D01*
X10683D01*
Y1905D01*
X10690D01*
Y1912D01*
X10698D01*
Y1920D01*
X10705D01*
Y1927D01*
X10712D01*
Y1934D01*
X10720D01*
Y1956D01*
X10727D01*
Y1971D01*
X10734D01*
Y1978D01*
X10742D01*
Y1993D01*
X10749D01*
Y2000D01*
X10756D01*
Y2015D01*
X10764D01*
Y2022D01*
X10771D01*
Y2029D01*
X10778D01*
Y2059D01*
X10771D01*
Y2051D01*
X10764D01*
X10756D01*
Y2044D01*
X10749D01*
X10742D01*
Y2037D01*
X10734D01*
X10727D01*
X10720D01*
X10712D01*
X10705D01*
X10698D01*
X10690D01*
X10683D01*
Y2044D01*
X10676D01*
Y2051D01*
X10668D01*
Y2059D01*
X10661D01*
Y2073D01*
X10654D01*
Y2081D01*
X10661D01*
Y2110D01*
X10668D01*
Y2125D01*
X10676D01*
Y2132D01*
X10683D01*
Y2139D01*
X10690D01*
Y2147D01*
X10698D01*
Y2154D01*
X10705D01*
Y2161D01*
X10712D01*
Y2169D01*
X10720D01*
Y2176D01*
X10727D01*
X10734D01*
Y2183D01*
X10742D01*
Y2191D01*
X10749D01*
X10756D01*
Y2198D01*
X10764D01*
Y2205D01*
X10771D01*
X10778D01*
Y2213D01*
X10786D01*
X10793D01*
X10800D01*
X10808D01*
X10815D01*
X10822D01*
Y2220D01*
X10830D01*
X10837D01*
X10844D01*
X10852D01*
Y2227D01*
X10859D01*
X10866D01*
X10874D01*
X10881D01*
X10888D01*
X10896D01*
Y2235D01*
X10903D01*
X10910D01*
X10918D01*
X10925D01*
Y2242D01*
X10932D01*
X10939D01*
X10947D01*
X10954D01*
Y2249D01*
X10961D01*
X10969D01*
X10976D01*
X10983D01*
X10991D01*
X10998D01*
X11005D01*
X11013D01*
X11020D01*
Y2256D01*
X11027D01*
Y2264D01*
X11035D01*
Y2278D01*
X11042D01*
Y2286D01*
X11049D01*
X11057D01*
Y2293D01*
X11064D01*
Y2286D01*
X11071D01*
X11079D01*
Y2278D01*
X11086D01*
X11093D01*
Y2264D01*
X11101D01*
Y2256D01*
X11108D01*
Y2235D01*
X11115D01*
Y2220D01*
X11123D01*
X11130D01*
X11137D01*
Y2227D01*
X11145D01*
X11152D01*
Y2235D01*
X11159D01*
X11167D01*
Y2242D01*
X11174D01*
Y2249D01*
X11181D01*
X11189D01*
Y2256D01*
X11196D01*
Y2264D01*
X11203D01*
Y2271D01*
X11210D01*
Y2278D01*
X11218D01*
Y2286D01*
X11225D01*
X11232D01*
Y2293D01*
X11240D01*
Y2300D01*
X11247D01*
Y2308D01*
X11254D01*
Y2315D01*
X11262D01*
Y2322D01*
X11269D01*
X11276D01*
Y2330D01*
X11284D01*
Y2337D01*
X11291D01*
Y2344D01*
X11298D01*
Y2352D01*
X11306D01*
Y2359D01*
X11313D01*
X11320D01*
Y2366D01*
X11328D01*
Y2374D01*
X11335D01*
Y2381D01*
X11342D01*
Y2388D01*
X11350D01*
Y2396D01*
X11357D01*
Y2403D01*
X11364D01*
Y2410D01*
X11372D01*
Y2418D01*
X11379D01*
Y2425D01*
X11386D01*
Y2432D01*
X11394D01*
Y2440D01*
X11401D01*
Y2447D01*
X11408D01*
Y2454D01*
X11416D01*
Y2462D01*
X11423D01*
Y2469D01*
X11430D01*
X11438D01*
Y2476D01*
X11445D01*
Y2491D01*
X11452D01*
X11460D01*
Y2498D01*
X11467D01*
Y2506D01*
X11474D01*
Y2513D01*
X11481D01*
Y2520D01*
X11489D01*
Y2527D01*
X11496D01*
Y2535D01*
X11503D01*
Y2542D01*
X11511D01*
Y2549D01*
X11518D01*
Y2557D01*
X11525D01*
Y2564D01*
X11533D01*
Y2571D01*
X11540D01*
Y2579D01*
X11547D01*
Y2586D01*
X11555D01*
Y2593D01*
X11562D01*
Y2608D01*
X11569D01*
Y2615D01*
X11577D01*
Y2623D01*
X11584D01*
Y2630D01*
X11591D01*
Y2645D01*
X11599D01*
Y2652D01*
X11606D01*
Y2667D01*
X11613D01*
Y2674D01*
X11621D01*
Y2681D01*
X11628D01*
Y2689D01*
X11635D01*
Y2703D01*
X11643D01*
Y2711D01*
X11650D01*
Y2718D01*
X11657D01*
Y2733D01*
X11665D01*
Y2740D01*
X11672D01*
Y2747D01*
X11679D01*
Y2755D01*
X11687D01*
Y2762D01*
X11694D01*
Y2777D01*
X11701D01*
Y2784D01*
X11709D01*
Y2791D01*
X11716D01*
Y2799D01*
X11723D01*
Y2806D01*
X11731D01*
Y2820D01*
X11738D01*
Y2828D01*
X11745D01*
Y2835D01*
X11753D01*
Y2842D01*
X11760D01*
Y2857D01*
X11767D01*
Y2864D01*
X11774D01*
Y2872D01*
X11782D01*
Y2886D01*
X11789D01*
Y2894D01*
X11796D01*
Y2901D01*
X11804D01*
Y2908D01*
X11811D01*
Y2916D01*
X11818D01*
Y2923D01*
X11826D01*
Y2930D01*
X11833D01*
Y2938D01*
X11840D01*
Y2952D01*
X11848D01*
Y2960D01*
X11855D01*
Y2967D01*
X11862D01*
Y2974D01*
X11870D01*
Y2982D01*
X11877D01*
Y2989D01*
X11884D01*
Y2996D01*
X11892D01*
Y3011D01*
X11899D01*
X11906D01*
Y3026D01*
X11914D01*
X11921D01*
Y3040D01*
X11928D01*
X11936D01*
Y3055D01*
X11943D01*
X11950D01*
Y3070D01*
X11958D01*
Y3077D01*
X11965D01*
Y3084D01*
X11972D01*
X11980D01*
Y3099D01*
X11987D01*
X11994D01*
Y3113D01*
X12002D01*
X12009D01*
Y3121D01*
X12016D01*
Y3128D01*
X12024D01*
Y3135D01*
X12031D01*
Y3143D01*
X12038D01*
Y3150D01*
X12045D01*
X12053D01*
Y3157D01*
X12060D01*
Y3165D01*
X12067D01*
Y3172D01*
X12075D01*
Y3179D01*
X12082D01*
X12089D01*
Y3187D01*
X12097D01*
X12104D01*
Y3194D01*
X12111D01*
X12119D01*
Y3201D01*
X12126D01*
X12133D01*
Y3209D01*
X12141D01*
X12148D01*
X12155D01*
X12163D01*
Y3201D01*
X12170D01*
X12177D01*
Y3187D01*
X12185D01*
Y3165D01*
X12177D01*
Y3150D01*
X12170D01*
Y3143D01*
X12163D01*
Y3128D01*
X12155D01*
Y3121D01*
X12148D01*
Y3113D01*
X12141D01*
Y3106D01*
X12133D01*
Y3099D01*
X12126D01*
Y3091D01*
X12119D01*
Y3084D01*
X12111D01*
Y3077D01*
X12104D01*
Y3062D01*
X12097D01*
X12089D01*
Y3048D01*
X12082D01*
X12075D01*
Y3040D01*
X12067D01*
Y3033D01*
X12060D01*
Y3018D01*
X12053D01*
Y3011D01*
X12045D01*
Y3004D01*
X12038D01*
Y2996D01*
X12031D01*
Y2989D01*
X12024D01*
Y2982D01*
X12016D01*
Y2974D01*
X12009D01*
Y2967D01*
X12002D01*
Y2960D01*
X11994D01*
Y2952D01*
X11987D01*
Y2945D01*
X11980D01*
Y2938D01*
X11972D01*
Y2930D01*
X11965D01*
Y2923D01*
X11958D01*
Y2916D01*
X11950D01*
Y2908D01*
X11943D01*
Y2901D01*
X11936D01*
Y2894D01*
X11928D01*
Y2886D01*
X11921D01*
Y2879D01*
X11914D01*
Y2872D01*
X11906D01*
Y2864D01*
X11899D01*
Y2857D01*
X11892D01*
Y2850D01*
X11884D01*
Y2842D01*
X11877D01*
Y2835D01*
X11870D01*
Y2828D01*
X11862D01*
Y2820D01*
X11855D01*
Y2813D01*
X11848D01*
Y2806D01*
X11840D01*
Y2799D01*
X11833D01*
Y2791D01*
X11826D01*
Y2784D01*
X11818D01*
Y2777D01*
X11811D01*
Y2769D01*
X11804D01*
Y2762D01*
X11796D01*
Y2755D01*
X11789D01*
Y2747D01*
X11782D01*
Y2740D01*
X11774D01*
X11767D01*
Y2733D01*
X11760D01*
Y2725D01*
X11753D01*
Y2718D01*
X11745D01*
Y2711D01*
X11738D01*
Y2703D01*
X11731D01*
Y2696D01*
X11723D01*
Y2681D01*
X11716D01*
X11709D01*
Y2667D01*
X11701D01*
Y2659D01*
X11694D01*
Y2652D01*
X11687D01*
Y2645D01*
X11679D01*
Y2637D01*
X11672D01*
Y2630D01*
X11665D01*
Y2615D01*
X11657D01*
Y2608D01*
X11650D01*
Y2593D01*
X11643D01*
Y2586D01*
X11635D01*
Y2571D01*
X11628D01*
Y2564D01*
X11621D01*
Y2557D01*
X11613D01*
Y2542D01*
X11606D01*
Y2535D01*
X11599D01*
Y2527D01*
X11591D01*
Y2520D01*
X11584D01*
Y2513D01*
X11577D01*
Y2498D01*
X11569D01*
Y2484D01*
X11562D01*
Y2476D01*
X11555D01*
Y2469D01*
X11547D01*
Y2454D01*
X11540D01*
Y2447D01*
X11533D01*
Y2432D01*
X11525D01*
Y2425D01*
X11518D01*
Y2418D01*
X11511D01*
Y2403D01*
X11503D01*
Y2396D01*
X11496D01*
Y2381D01*
X11489D01*
Y2374D01*
X11481D01*
Y2359D01*
X11474D01*
Y2352D01*
X11467D01*
Y2337D01*
X11460D01*
Y2330D01*
X11452D01*
Y2322D01*
X11445D01*
Y2315D01*
X11438D01*
Y2308D01*
X11430D01*
Y2286D01*
X11423D01*
Y2278D01*
X11416D01*
Y2271D01*
X11408D01*
Y2256D01*
X11401D01*
Y2249D01*
X11394D01*
Y2242D01*
X11386D01*
Y2227D01*
X11379D01*
Y2220D01*
X11372D01*
Y2205D01*
X11364D01*
Y2198D01*
X11357D01*
Y2191D01*
X11350D01*
Y2176D01*
X11342D01*
Y2169D01*
X11335D01*
Y2161D01*
X11328D01*
Y2147D01*
X11320D01*
Y2132D01*
X11313D01*
Y2125D01*
X11306D01*
Y2117D01*
X11298D01*
Y2110D01*
X11291D01*
Y2095D01*
X11284D01*
Y2081D01*
X11276D01*
Y2073D01*
X11269D01*
Y2051D01*
X11262D01*
Y2044D01*
X11254D01*
Y2029D01*
X11247D01*
Y2022D01*
X11240D01*
Y2007D01*
X11232D01*
Y2000D01*
X11225D01*
Y1985D01*
X11218D01*
Y1978D01*
X11210D01*
Y1963D01*
X11203D01*
Y1956D01*
X11196D01*
Y1942D01*
X11189D01*
Y1934D01*
X11181D01*
Y1912D01*
X11189D01*
X11196D01*
Y1920D01*
X11203D01*
Y1927D01*
X11210D01*
Y1934D01*
X11218D01*
Y1942D01*
X11225D01*
Y1949D01*
X11232D01*
X11240D01*
Y1956D01*
X11247D01*
Y1963D01*
X11254D01*
Y1971D01*
X11262D01*
Y1978D01*
X11269D01*
Y1985D01*
X11276D01*
X11284D01*
Y1993D01*
X11291D01*
Y2000D01*
X11298D01*
Y2007D01*
X11306D01*
Y2015D01*
X11313D01*
Y2022D01*
X11320D01*
Y2029D01*
X11328D01*
X11335D01*
Y2037D01*
X11342D01*
Y2044D01*
X11350D01*
Y2051D01*
X11357D01*
Y2059D01*
X11364D01*
X11372D01*
Y2066D01*
X11379D01*
Y2073D01*
X11386D01*
Y2081D01*
X11394D01*
Y2088D01*
X11401D01*
Y2095D01*
X11408D01*
X11416D01*
Y2103D01*
X11423D01*
Y2110D01*
X11430D01*
Y2117D01*
X11438D01*
Y2125D01*
X11445D01*
X11452D01*
Y2132D01*
X11460D01*
Y2139D01*
X11467D01*
Y2147D01*
X11474D01*
X11481D01*
Y2154D01*
X11489D01*
Y2161D01*
X11496D01*
Y2169D01*
X11503D01*
X11511D01*
Y2176D01*
X11518D01*
Y2183D01*
X11525D01*
Y2191D01*
X11533D01*
X11540D01*
Y2198D01*
X11547D01*
Y2205D01*
X11555D01*
X11562D01*
Y2213D01*
X11569D01*
X11577D01*
Y2220D01*
X11584D01*
Y2227D01*
X11591D01*
X11599D01*
Y2235D01*
X11606D01*
X11613D01*
Y2242D01*
X11621D01*
X11628D01*
Y2249D01*
X11635D01*
X11643D01*
Y2256D01*
X11650D01*
X11657D01*
Y2264D01*
X11665D01*
X11672D01*
X11679D01*
X11687D01*
X11694D01*
X11701D01*
X11709D01*
Y2256D01*
X11716D01*
Y2249D01*
X11723D01*
Y2242D01*
X11731D01*
Y2235D01*
X11738D01*
Y2183D01*
X11731D01*
Y2132D01*
X11738D01*
X11745D01*
Y2139D01*
X11753D01*
X11760D01*
Y2147D01*
X11767D01*
X11774D01*
X11782D01*
Y2154D01*
X11789D01*
X11796D01*
Y2161D01*
X11804D01*
X11811D01*
X11818D01*
Y2169D01*
X11826D01*
X11833D01*
X11840D01*
X11848D01*
Y2176D01*
X11855D01*
Y2169D01*
X11862D01*
X11870D01*
X11877D01*
X11884D01*
X11892D01*
Y2161D01*
X11899D01*
X11906D01*
Y2154D01*
X11914D01*
X11921D01*
Y2147D01*
X11928D01*
Y2139D01*
X11936D01*
Y2125D01*
X11943D01*
Y2117D01*
X11950D01*
X11958D01*
Y2125D01*
X11965D01*
X11972D01*
Y2117D01*
X11980D01*
X11987D01*
Y2095D01*
X11994D01*
Y2088D01*
X11987D01*
Y2081D01*
X11980D01*
Y2066D01*
X11972D01*
X11965D01*
Y2059D01*
X11958D01*
Y2051D01*
X11950D01*
Y2044D01*
X11943D01*
X11936D01*
X11928D01*
X11921D01*
X11914D01*
X11906D01*
Y2051D01*
X11899D01*
Y2059D01*
X11892D01*
Y2066D01*
X11884D01*
Y2073D01*
X11877D01*
Y2081D01*
X11870D01*
Y2095D01*
X11862D01*
X11855D01*
X11848D01*
X11840D01*
Y2088D01*
X11833D01*
X11826D01*
X11818D01*
Y2081D01*
X11811D01*
X11804D01*
Y2073D01*
X11796D01*
X11789D01*
X11782D01*
Y2066D01*
X11774D01*
X11767D01*
Y2059D01*
X11760D01*
X11753D01*
Y2051D01*
X11745D01*
X11738D01*
X11731D01*
Y2044D01*
X11723D01*
X11716D01*
X11709D01*
X11701D01*
X11694D01*
X11687D01*
Y2059D01*
X11679D01*
X11672D01*
X11665D01*
Y2066D01*
X11657D01*
Y2073D01*
X11650D01*
Y2110D01*
X11643D01*
Y2125D01*
X11650D01*
Y2154D01*
X11657D01*
Y2176D01*
X11650D01*
X11643D01*
X11635D01*
Y2169D01*
X11628D01*
X11621D01*
Y2161D01*
X11613D01*
X11606D01*
Y2154D01*
X11599D01*
Y2147D01*
X11591D01*
X11584D01*
Y2139D01*
X11577D01*
X11569D01*
Y2132D01*
X11562D01*
Y2125D01*
X11555D01*
Y2117D01*
X11547D01*
X11540D01*
Y2110D01*
X11533D01*
Y2103D01*
X11525D01*
Y2095D01*
X11518D01*
X11511D01*
Y2088D01*
X11503D01*
Y2081D01*
X11496D01*
Y2073D01*
X11489D01*
Y2066D01*
X11481D01*
X11474D01*
Y2059D01*
X11467D01*
Y2051D01*
X11460D01*
Y2044D01*
X11452D01*
X11445D01*
Y2037D01*
X11438D01*
Y2029D01*
X11430D01*
Y2022D01*
X11423D01*
Y2015D01*
X11416D01*
Y2007D01*
X11408D01*
Y2000D01*
X11401D01*
X11394D01*
Y1993D01*
X11386D01*
Y1985D01*
X11379D01*
Y1978D01*
X11372D01*
Y1971D01*
X11364D01*
X11357D01*
Y1963D01*
X11350D01*
Y1956D01*
X11342D01*
Y1949D01*
X11335D01*
Y1942D01*
X11328D01*
Y1934D01*
X11320D01*
Y1927D01*
X11313D01*
Y1920D01*
X11306D01*
X11298D01*
Y1912D01*
X11291D01*
Y1905D01*
X11284D01*
Y1898D01*
X11276D01*
Y1890D01*
X11269D01*
Y1883D01*
X11262D01*
Y1876D01*
X11254D01*
Y1868D01*
X11247D01*
X11240D01*
Y1861D01*
X11232D01*
Y1854D01*
X11225D01*
Y1846D01*
X11218D01*
Y1839D01*
X11210D01*
Y1832D01*
X11203D01*
Y1824D01*
X11196D01*
Y1817D01*
X11189D01*
Y1810D01*
X11181D01*
Y1802D01*
X11174D01*
Y1795D01*
X11167D01*
Y1788D01*
X11159D01*
Y1780D01*
X11152D01*
Y1773D01*
X11145D01*
Y1766D01*
X11137D01*
Y1758D01*
X11130D01*
X11123D01*
Y1751D01*
X11115D01*
Y1744D01*
X11108D01*
Y1736D01*
X11101D01*
Y1729D01*
X11093D01*
Y1722D01*
X11086D01*
Y1714D01*
X11079D01*
Y1707D01*
X11071D01*
Y1700D01*
X11064D01*
X11057D01*
Y1692D01*
X11049D01*
Y1685D01*
X11042D01*
Y1678D01*
X11035D01*
Y1671D01*
X11027D01*
Y1663D01*
X11020D01*
Y1656D01*
X11013D01*
X11005D01*
X10998D01*
X10991D01*
X10983D01*
Y1663D01*
X10976D01*
Y1671D01*
X10969D01*
Y1685D01*
X10961D01*
Y1714D01*
X10969D01*
Y1729D01*
X10976D01*
Y1744D01*
X10983D01*
Y1758D01*
X10991D01*
Y1773D01*
X10998D01*
Y1780D01*
X11005D01*
Y1788D01*
X11013D01*
Y1802D01*
X11020D01*
Y1810D01*
X11027D01*
Y1824D01*
X11035D01*
Y1832D01*
X11042D01*
Y1854D01*
X11049D01*
Y1861D01*
X11057D01*
Y1876D01*
X11064D01*
Y1890D01*
X11071D01*
Y1898D01*
X11079D01*
Y1905D01*
X11086D01*
Y1920D01*
X11093D01*
Y1934D01*
X11101D01*
Y1942D01*
X11108D01*
Y1956D01*
X11115D01*
Y1963D01*
X11123D01*
Y1978D01*
X11130D01*
Y1985D01*
X11137D01*
Y2000D01*
X11145D01*
Y2015D01*
X11152D01*
Y2022D01*
X11159D01*
Y2029D01*
X11167D01*
Y2037D01*
X11174D01*
Y2051D01*
X11181D01*
Y2066D01*
X11189D01*
Y2073D01*
X11196D01*
Y2088D01*
X11203D01*
Y2103D01*
X11210D01*
Y2117D01*
X11218D01*
Y2125D01*
X11225D01*
Y2139D01*
X11232D01*
Y2147D01*
X11240D01*
Y2154D01*
X11247D01*
Y2169D01*
X11254D01*
Y2176D01*
X11262D01*
Y2191D01*
X11269D01*
Y2198D01*
X11276D01*
Y2213D01*
X11284D01*
Y2220D01*
X11291D01*
Y2235D01*
X11298D01*
Y2242D01*
X11306D01*
Y2249D01*
X11313D01*
Y2256D01*
X11320D01*
Y2271D01*
X11328D01*
Y2278D01*
X11335D01*
Y2286D01*
X11342D01*
Y2293D01*
X11350D01*
Y2322D01*
X11342D01*
X11335D01*
Y2315D01*
X11328D01*
Y2308D01*
X11320D01*
Y2300D01*
X11313D01*
Y2293D01*
X11306D01*
Y2286D01*
X11298D01*
Y2278D01*
X11291D01*
X11284D01*
Y2271D01*
X11276D01*
Y2264D01*
X11269D01*
Y2256D01*
X11262D01*
Y2249D01*
X11254D01*
Y2242D01*
X11247D01*
X11240D01*
Y2235D01*
X11232D01*
Y2227D01*
X11225D01*
Y2220D01*
X11218D01*
Y2213D01*
X11210D01*
X11203D01*
Y2205D01*
X11196D01*
Y2198D01*
X11189D01*
X11181D01*
Y2191D01*
X11174D01*
X11167D01*
Y2183D01*
X11159D01*
Y2169D01*
X11152D01*
Y2161D01*
X11145D01*
X11137D01*
Y2154D01*
X11130D01*
Y2161D01*
X11123D01*
X11115D01*
X11108D01*
X11101D01*
X11093D01*
Y2154D01*
X11086D01*
X11079D01*
X11071D01*
Y2147D01*
X11064D01*
X11057D01*
Y2154D01*
X11049D01*
Y2161D01*
X11042D01*
Y2183D01*
X11035D01*
Y2198D01*
X11027D01*
X11020D01*
X11013D01*
X11005D01*
X10998D01*
X10991D01*
X10983D01*
Y2191D01*
X10976D01*
X10969D01*
X10961D01*
X10954D01*
X10947D01*
Y2183D01*
X10939D01*
X10932D01*
X10925D01*
Y2176D01*
X10918D01*
X10910D01*
Y2169D01*
X10903D01*
X10896D01*
X10888D01*
Y2154D01*
X10881D01*
Y2117D01*
X10874D01*
Y2095D01*
X10866D01*
Y2081D01*
X10859D01*
Y2066D01*
X10852D01*
Y2051D01*
X10844D01*
Y2037D01*
X10837D01*
Y2029D01*
X10830D01*
Y2015D01*
X10822D01*
X10815D01*
Y1993D01*
X10808D01*
Y1985D01*
X10800D01*
Y1978D01*
X10793D01*
Y1963D01*
X10786D01*
Y1949D01*
X10778D01*
Y1942D01*
X10771D01*
Y1927D01*
X10764D01*
Y1920D01*
X10756D01*
Y1905D01*
X10749D01*
Y1898D01*
X10742D01*
Y1883D01*
X10734D01*
Y1868D01*
X10727D01*
Y1861D01*
X10720D01*
Y1846D01*
X10712D01*
Y1832D01*
X10705D01*
Y1817D01*
X10698D01*
Y1810D01*
X10690D01*
Y1795D01*
X10683D01*
Y1788D01*
X10676D01*
Y1773D01*
X10668D01*
Y1766D01*
X10661D01*
Y1751D01*
X10654D01*
Y1736D01*
X10646D01*
Y1729D01*
X10639D01*
Y1714D01*
X10632D01*
Y1707D01*
X10625D01*
Y1692D01*
X10617D01*
Y1671D01*
X10610D01*
Y1663D01*
X10603D01*
Y1656D01*
X10595D01*
Y1641D01*
X10588D01*
Y1634D01*
X10581D01*
Y1612D01*
X10573D01*
Y1605D01*
X10566D01*
Y1590D01*
X10559D01*
Y1575D01*
X10551D01*
Y1561D01*
X10544D01*
Y1553D01*
X10537D01*
Y1539D01*
X10529D01*
Y1531D01*
X10522D01*
Y1517D01*
X10515D01*
Y1509D01*
X10507D01*
Y1495D01*
X10500D01*
Y1480D01*
X10493D01*
Y1465D01*
X10485D01*
Y1451D01*
X10478D01*
Y1436D01*
X10471D01*
Y1429D01*
X10463D01*
Y1414D01*
X10456D01*
X10449D01*
Y1407D01*
X10456D01*
Y1400D01*
X10449D01*
Y1385D01*
X10441D01*
Y1378D01*
X10434D01*
Y1363D01*
X10427D01*
Y1356D01*
X10419D01*
Y1341D01*
X10412D01*
Y1326D01*
X10405D01*
Y1304D01*
X10397D01*
Y1297D01*
X10390D01*
Y1282D01*
X10383D01*
Y1268D01*
X10375D01*
Y1253D01*
X10368D01*
Y1238D01*
X10361D01*
Y1231D01*
X10354D01*
Y1216D01*
X10346D01*
Y1202D01*
X10339D01*
Y1187D01*
X10332D01*
Y1165D01*
X10324D01*
Y1150D01*
X10317D01*
Y1129D01*
X10310D01*
Y1121D01*
X10302D01*
Y1107D01*
X10295D01*
Y1092D01*
X10288D01*
Y1077D01*
X10280D01*
Y1063D01*
X10273D01*
Y1048D01*
X10266D01*
Y1033D01*
X10258D01*
Y1011D01*
X10251D01*
Y997D01*
X10244D01*
Y982D01*
X10236D01*
Y967D01*
X10229D01*
Y953D01*
X10222D01*
Y945D01*
X10214D01*
Y938D01*
X10222D01*
Y931D01*
X10214D01*
Y923D01*
X10207D01*
Y901D01*
X10200D01*
Y887D01*
X10192D01*
Y865D01*
X10185D01*
Y843D01*
X10178D01*
Y821D01*
X10170D01*
Y806D01*
X10163D01*
Y792D01*
X10156D01*
Y770D01*
X10148D01*
Y755D01*
X10141D01*
Y740D01*
X10134D01*
Y726D01*
X10126D01*
Y718D01*
X10119D01*
Y696D01*
X10112D01*
Y682D01*
X10104D01*
Y667D01*
X10097D01*
Y660D01*
X10090D01*
Y652D01*
X10082D01*
X10075D01*
Y645D01*
X10068D01*
X10061D01*
X10053D01*
Y652D01*
X10046D01*
X10039D01*
Y660D01*
X10031D01*
Y733D01*
X10039D01*
Y762D01*
X10046D01*
Y799D01*
X10053D01*
Y806D01*
X10061D01*
Y814D01*
X10053D01*
Y821D01*
X10061D01*
Y843D01*
X10068D01*
Y879D01*
X10075D01*
Y916D01*
X10082D01*
Y938D01*
X10090D01*
Y975D01*
X10097D01*
Y997D01*
X10104D01*
Y1033D01*
X10112D01*
Y1063D01*
X10119D01*
Y1099D01*
X10126D01*
Y1114D01*
X10134D01*
Y1136D01*
X10141D01*
Y1158D01*
X10148D01*
Y1187D01*
X10156D01*
Y1209D01*
X10163D01*
Y1238D01*
X10170D01*
Y1260D01*
X10178D01*
Y1290D01*
X10185D01*
Y1319D01*
X10192D01*
Y1341D01*
X10200D01*
Y1370D01*
X10207D01*
Y1385D01*
X10214D01*
Y1407D01*
X10222D01*
Y1429D01*
X10229D01*
Y1451D01*
X10236D01*
Y1473D01*
X10244D01*
Y1495D01*
X10251D01*
Y1524D01*
X10258D01*
Y1546D01*
X10266D01*
Y1575D01*
X10273D01*
Y1597D01*
X10280D01*
Y1619D01*
X10288D01*
Y1627D01*
X10295D01*
Y1649D01*
X10302D01*
Y1671D01*
X10310D01*
Y1700D01*
X10317D01*
Y1714D01*
X10324D01*
Y1744D01*
X10332D01*
Y1758D01*
X10339D01*
Y1788D01*
X10346D01*
Y1810D01*
X10354D01*
Y1839D01*
X10361D01*
Y1854D01*
X10368D01*
Y1868D01*
X10375D01*
Y1890D01*
X10383D01*
Y1905D01*
X10390D01*
Y1920D01*
X10397D01*
Y1949D01*
X10405D01*
Y1971D01*
X10412D01*
Y1985D01*
X10419D01*
Y2007D01*
X10427D01*
Y2029D01*
X10434D01*
Y2051D01*
X10441D01*
Y2059D01*
X10449D01*
Y2066D01*
X10441D01*
Y2073D01*
X10434D01*
X10427D01*
X10419D01*
Y2066D01*
X10412D01*
Y2059D01*
X10405D01*
X10397D01*
X10390D01*
Y2051D01*
X10383D01*
X10375D01*
X10368D01*
X10361D01*
X10354D01*
X10346D01*
X10339D01*
Y2059D01*
X10332D01*
Y2066D01*
X10324D01*
Y2073D01*
X10317D01*
X10310D01*
Y2095D01*
X10302D01*
X10295D01*
X10288D01*
X10280D01*
Y2073D01*
X10273D01*
Y2066D01*
X10266D01*
Y2051D01*
X10258D01*
Y2044D01*
X10251D01*
Y2029D01*
X10244D01*
Y2022D01*
X10236D01*
Y2007D01*
X10229D01*
Y2000D01*
X10222D01*
Y1985D01*
X10214D01*
Y1978D01*
X10207D01*
Y1971D01*
X10200D01*
X10192D01*
Y1963D01*
X10185D01*
X10178D01*
Y1956D01*
X10170D01*
X10163D01*
X10156D01*
X10148D01*
X10141D01*
Y1963D01*
X10134D01*
Y1971D01*
X10126D01*
Y1993D01*
X10119D01*
Y2000D01*
X10126D01*
Y2022D01*
X10119D01*
X10112D01*
Y2015D01*
X10104D01*
Y2007D01*
X10097D01*
Y1993D01*
X10090D01*
Y1985D01*
X10082D01*
Y1971D01*
X10075D01*
Y1956D01*
X10068D01*
Y1949D01*
X10061D01*
Y1934D01*
X10053D01*
Y1927D01*
X10046D01*
Y1920D01*
X10039D01*
Y1905D01*
X10031D01*
Y1898D01*
X10024D01*
Y1883D01*
X10017D01*
Y1868D01*
X10009D01*
Y1861D01*
X10002D01*
Y1854D01*
X9995D01*
Y1839D01*
X9987D01*
Y1824D01*
X9980D01*
Y1817D01*
X9973D01*
Y1810D01*
X9965D01*
Y1802D01*
X9958D01*
Y1788D01*
X9951D01*
Y1773D01*
X9943D01*
Y1766D01*
X9936D01*
Y1744D01*
X9929D01*
Y1736D01*
X9921D01*
Y1722D01*
X9914D01*
Y1714D01*
X9907D01*
Y1700D01*
X9899D01*
Y1692D01*
X9892D01*
Y1678D01*
X9885D01*
Y1671D01*
X9877D01*
Y1656D01*
X9870D01*
Y1641D01*
X9863D01*
Y1634D01*
X9855D01*
Y1619D01*
X9848D01*
Y1605D01*
X9841D01*
Y1590D01*
X9833D01*
Y1575D01*
X9826D01*
Y1561D01*
X9819D01*
Y1546D01*
X9811D01*
Y1539D01*
X9804D01*
Y1517D01*
X9797D01*
Y1502D01*
X9790D01*
Y1487D01*
X9782D01*
Y1473D01*
X9775D01*
Y1451D01*
X9768D01*
Y1436D01*
X9760D01*
Y1421D01*
X9753D01*
Y1400D01*
X9746D01*
Y1392D01*
X9738D01*
Y1378D01*
X9731D01*
Y1363D01*
X9724D01*
Y1348D01*
X9716D01*
Y1334D01*
X9709D01*
Y1319D01*
X9702D01*
Y1297D01*
X9694D01*
Y1282D01*
X9687D01*
Y1268D01*
X9680D01*
Y1253D01*
X9672D01*
Y1238D01*
X9665D01*
Y1224D01*
X9658D01*
Y1209D01*
X9650D01*
Y1194D01*
X9643D01*
Y1180D01*
X9636D01*
Y1165D01*
X9628D01*
Y1143D01*
X9621D01*
Y1129D01*
X9614D01*
Y1114D01*
X9606D01*
Y1099D01*
X9599D01*
Y1085D01*
X9592D01*
Y1063D01*
X9584D01*
Y1055D01*
X9577D01*
Y1041D01*
X9570D01*
Y1026D01*
X9562D01*
Y1004D01*
X9555D01*
Y989D01*
X9548D01*
Y975D01*
X9540D01*
Y960D01*
X9533D01*
Y945D01*
X9526D01*
Y923D01*
X9519D01*
Y909D01*
X9511D01*
X9504D01*
Y901D01*
X9511D01*
Y894D01*
X9504D01*
Y887D01*
X9497D01*
Y872D01*
X9489D01*
Y857D01*
X9482D01*
Y843D01*
X9475D01*
Y828D01*
X9467D01*
Y814D01*
X9460D01*
Y799D01*
X9453D01*
Y784D01*
X9445D01*
Y762D01*
X9438D01*
Y755D01*
X9431D01*
Y740D01*
X9423D01*
Y733D01*
X9416D01*
Y726D01*
X9409D01*
Y704D01*
X9401D01*
Y689D01*
X9394D01*
Y674D01*
X9387D01*
Y660D01*
X9379D01*
Y652D01*
X9372D01*
Y638D01*
X9365D01*
Y623D01*
X9357D01*
Y608D01*
X9350D01*
Y601D01*
X9343D01*
Y594D01*
X9335D01*
Y586D01*
X9328D01*
Y579D01*
X9321D01*
Y572D01*
X9313D01*
X9306D01*
X9299D01*
X9291D01*
X9284D01*
X9277D01*
Y579D01*
X9269D01*
X9262D01*
Y594D01*
X9255D01*
Y608D01*
X9262D01*
D02*
G37*
G36*
X10860Y9578D02*
X10869D01*
Y9573D01*
X10874D01*
Y9568D01*
X10879D01*
Y9563D01*
X10884D01*
Y9559D01*
Y9554D01*
X10889D01*
Y9549D01*
Y9544D01*
Y9539D01*
X10893D01*
Y9534D01*
Y9530D01*
X10898D01*
Y9525D01*
Y9520D01*
X10903D01*
Y9515D01*
Y9510D01*
Y9506D01*
X10908D01*
Y9501D01*
Y9496D01*
Y9491D01*
X10913D01*
Y9486D01*
Y9481D01*
X10918D01*
Y9477D01*
Y9472D01*
Y9467D01*
X10922D01*
Y9462D01*
Y9457D01*
Y9452D01*
Y9448D01*
X10927D01*
Y9443D01*
Y9438D01*
Y9433D01*
X10932D01*
Y9428D01*
Y9424D01*
Y9419D01*
Y9414D01*
X10937D01*
Y9409D01*
Y9404D01*
Y9399D01*
X10942D01*
Y9395D01*
Y9390D01*
Y9385D01*
Y9380D01*
X10947D01*
Y9375D01*
Y9370D01*
Y9366D01*
X10951D01*
Y9361D01*
Y9356D01*
Y9351D01*
Y9346D01*
X10956D01*
Y9341D01*
Y9337D01*
Y9332D01*
Y9327D01*
X10961D01*
Y9322D01*
Y9317D01*
Y9313D01*
Y9308D01*
X10966D01*
Y9303D01*
Y9298D01*
Y9293D01*
Y9288D01*
X10971D01*
Y9284D01*
Y9279D01*
Y9274D01*
Y9269D01*
X10975D01*
Y9264D01*
Y9259D01*
Y9255D01*
Y9250D01*
X10980D01*
Y9245D01*
Y9240D01*
Y9235D01*
Y9231D01*
Y9226D01*
X10985D01*
Y9221D01*
Y9216D01*
Y9211D01*
Y9206D01*
X10990D01*
Y9202D01*
Y9197D01*
X10995D01*
Y9192D01*
X11004D01*
Y9197D01*
X11014D01*
Y9202D01*
X11019D01*
Y9206D01*
X11029D01*
Y9211D01*
X11033D01*
Y9216D01*
X11043D01*
Y9221D01*
X11053D01*
Y9226D01*
X11062D01*
Y9231D01*
X11072D01*
Y9235D01*
X11082D01*
Y9240D01*
X11096D01*
Y9245D01*
X11106D01*
Y9250D01*
X11120D01*
Y9255D01*
X11130D01*
Y9259D01*
X11149D01*
Y9264D01*
X11164D01*
Y9269D01*
X11188D01*
Y9274D01*
X11217D01*
Y9279D01*
X11246D01*
Y9284D01*
X11289D01*
Y9288D01*
X11347D01*
Y9284D01*
X11366D01*
Y9279D01*
X11381D01*
Y9274D01*
X11386D01*
Y9269D01*
X11390D01*
Y9264D01*
Y9259D01*
X11395D01*
Y9255D01*
Y9250D01*
Y9245D01*
Y9240D01*
Y9235D01*
X11390D01*
Y9231D01*
Y9226D01*
X11386D01*
Y9221D01*
Y9216D01*
X11381D01*
Y9211D01*
X11376D01*
Y9206D01*
X11371D01*
Y9202D01*
X11366D01*
Y9197D01*
X11361D01*
Y9192D01*
X11357D01*
Y9187D01*
X11352D01*
Y9182D01*
X11347D01*
Y9177D01*
X11342D01*
Y9173D01*
X11337D01*
Y9168D01*
X11333D01*
Y9163D01*
X11328D01*
Y9158D01*
X11323D01*
Y9153D01*
X11318D01*
Y9148D01*
X11313D01*
Y9144D01*
X11308D01*
Y9139D01*
X11304D01*
Y9134D01*
X11299D01*
Y9129D01*
X11294D01*
Y9124D01*
X11289D01*
Y9120D01*
X11284D01*
Y9115D01*
X11279D01*
Y9110D01*
X11275D01*
Y9105D01*
Y9100D01*
X11270D01*
Y9095D01*
X11265D01*
Y9091D01*
X11260D01*
Y9086D01*
Y9081D01*
X11255D01*
Y9076D01*
X11250D01*
Y9071D01*
X11246D01*
Y9066D01*
X11241D01*
Y9062D01*
Y9057D01*
X11236D01*
Y9052D01*
X11231D01*
Y9047D01*
Y9042D01*
X11226D01*
Y9038D01*
X11222D01*
Y9033D01*
X11217D01*
Y9028D01*
Y9023D01*
X11212D01*
Y9018D01*
X11207D01*
Y9013D01*
Y9009D01*
X11202D01*
Y9004D01*
X11197D01*
Y8999D01*
Y8994D01*
X11193D01*
Y8989D01*
X11188D01*
Y8984D01*
Y8980D01*
X11246D01*
Y8984D01*
X11333D01*
Y8980D01*
X11381D01*
Y8975D01*
X11405D01*
Y8970D01*
X11419D01*
Y8965D01*
X11434D01*
Y8960D01*
X11443D01*
Y8955D01*
X11458D01*
Y8951D01*
X11468D01*
Y8946D01*
X11477D01*
Y8941D01*
X11482D01*
Y8936D01*
X11492D01*
Y8931D01*
X11497D01*
Y8927D01*
X11506D01*
Y8922D01*
X11511D01*
Y8917D01*
X11516D01*
Y8912D01*
X11521D01*
Y8907D01*
X11526D01*
Y8902D01*
X11530D01*
Y8898D01*
X11535D01*
Y8893D01*
X11540D01*
Y8888D01*
Y8883D01*
Y8878D01*
Y8873D01*
X11545D01*
Y8869D01*
Y8864D01*
X11540D01*
Y8859D01*
Y8854D01*
X11535D01*
Y8849D01*
X11530D01*
Y8845D01*
X11516D01*
Y8840D01*
X11482D01*
Y8835D01*
X11448D01*
Y8830D01*
X11419D01*
Y8825D01*
X11400D01*
Y8820D01*
X11381D01*
Y8816D01*
X11361D01*
Y8811D01*
X11347D01*
Y8806D01*
X11328D01*
Y8801D01*
X11318D01*
Y8796D01*
X11304D01*
Y8791D01*
X11294D01*
Y8787D01*
X11279D01*
Y8782D01*
X11270D01*
Y8777D01*
X11260D01*
Y8772D01*
X11250D01*
Y8767D01*
X11241D01*
Y8762D01*
X11236D01*
Y8758D01*
X11226D01*
Y8753D01*
X11217D01*
Y8748D01*
X11207D01*
Y8743D01*
X11197D01*
Y8738D01*
X11193D01*
Y8734D01*
X11183D01*
Y8729D01*
X11178D01*
Y8724D01*
X11173D01*
Y8719D01*
X11168D01*
Y8714D01*
X11164D01*
Y8709D01*
X11159D01*
Y8705D01*
X11154D01*
Y8700D01*
X11159D01*
Y8695D01*
X11164D01*
Y8690D01*
X11197D01*
Y8685D01*
X11226D01*
Y8680D01*
X11250D01*
Y8676D01*
X11270D01*
Y8671D01*
X11289D01*
Y8666D01*
X11308D01*
Y8661D01*
X11323D01*
Y8656D01*
X11342D01*
Y8652D01*
X11357D01*
Y8647D01*
X11371D01*
Y8642D01*
X11381D01*
Y8637D01*
X11395D01*
Y8632D01*
X11405D01*
Y8627D01*
X11415D01*
Y8623D01*
X11424D01*
Y8618D01*
X11434D01*
Y8613D01*
X11443D01*
Y8608D01*
X11448D01*
Y8603D01*
X11458D01*
Y8598D01*
X11463D01*
Y8594D01*
X11472D01*
Y8589D01*
X11477D01*
Y8584D01*
X11482D01*
Y8579D01*
X11492D01*
Y8574D01*
X11497D01*
Y8569D01*
X11501D01*
Y8565D01*
X11506D01*
Y8560D01*
X11511D01*
Y8555D01*
X11516D01*
Y8550D01*
Y8545D01*
X11521D01*
Y8541D01*
X11526D01*
Y8536D01*
Y8531D01*
X11530D01*
Y8526D01*
Y8521D01*
Y8516D01*
Y8512D01*
Y8507D01*
X11526D01*
Y8502D01*
X11521D01*
Y8497D01*
X11511D01*
Y8492D01*
X11487D01*
Y8487D01*
X11453D01*
Y8492D01*
X11400D01*
Y8487D01*
X11361D01*
Y8483D01*
X11333D01*
Y8478D01*
X11313D01*
Y8473D01*
X11299D01*
Y8468D01*
X11284D01*
Y8463D01*
X11270D01*
Y8459D01*
X11260D01*
Y8454D01*
X11246D01*
Y8449D01*
X11236D01*
Y8444D01*
X11226D01*
Y8439D01*
X11217D01*
Y8434D01*
X11207D01*
Y8430D01*
X11197D01*
Y8425D01*
X11188D01*
Y8420D01*
X11178D01*
Y8415D01*
X11173D01*
Y8410D01*
X11168D01*
Y8405D01*
X11159D01*
Y8401D01*
X11154D01*
Y8396D01*
X11144D01*
Y8391D01*
X11135D01*
Y8386D01*
X11140D01*
Y8381D01*
Y8376D01*
X11149D01*
Y8372D01*
X11159D01*
Y8367D01*
X11168D01*
Y8362D01*
X11178D01*
Y8357D01*
X11183D01*
Y8352D01*
X11193D01*
Y8348D01*
X11197D01*
Y8343D01*
X11207D01*
Y8338D01*
X11212D01*
Y8333D01*
X11222D01*
Y8328D01*
X11226D01*
Y8323D01*
X11231D01*
Y8319D01*
X11236D01*
Y8314D01*
X11241D01*
Y8309D01*
X11246D01*
Y8304D01*
X11255D01*
Y8299D01*
X11260D01*
Y8294D01*
Y8290D01*
X11270D01*
Y8285D01*
Y8280D01*
X11275D01*
Y8275D01*
X11279D01*
Y8270D01*
X11284D01*
Y8266D01*
X11289D01*
Y8261D01*
X11294D01*
Y8256D01*
X11299D01*
Y8251D01*
Y8246D01*
X11304D01*
Y8241D01*
X11308D01*
Y8237D01*
X11313D01*
Y8232D01*
X11318D01*
Y8227D01*
Y8222D01*
X11323D01*
Y8217D01*
X11328D01*
Y8212D01*
Y8208D01*
X11333D01*
Y8203D01*
X11337D01*
Y8198D01*
Y8193D01*
X11342D01*
Y8188D01*
X11347D01*
Y8183D01*
Y8179D01*
X11352D01*
Y8174D01*
X11357D01*
Y8169D01*
Y8164D01*
X11361D01*
Y8159D01*
X11366D01*
Y8155D01*
Y8150D01*
X11371D01*
Y8145D01*
Y8140D01*
X11376D01*
Y8135D01*
X11381D01*
Y8130D01*
Y8126D01*
X11386D01*
Y8121D01*
Y8116D01*
X11390D01*
Y8111D01*
Y8106D01*
X11395D01*
Y8101D01*
Y8097D01*
X11400D01*
Y8092D01*
Y8087D01*
X11405D01*
Y8082D01*
Y8077D01*
X11410D01*
Y8073D01*
Y8068D01*
X11415D01*
Y8063D01*
Y8058D01*
X11419D01*
Y8053D01*
Y8048D01*
X11424D01*
Y8044D01*
Y8039D01*
Y8034D01*
X11429D01*
Y8029D01*
Y8024D01*
X11434D01*
Y8019D01*
Y8015D01*
Y8010D01*
X11439D01*
Y8005D01*
Y8000D01*
X11443D01*
Y7995D01*
Y7990D01*
Y7986D01*
X11448D01*
Y7981D01*
Y7976D01*
Y7971D01*
X11453D01*
Y7966D01*
Y7962D01*
Y7957D01*
X11458D01*
Y7952D01*
Y7947D01*
Y7942D01*
X11463D01*
Y7937D01*
Y7933D01*
Y7928D01*
X11468D01*
Y7923D01*
Y7918D01*
Y7913D01*
X11472D01*
Y7908D01*
Y7904D01*
Y7899D01*
X11477D01*
Y7894D01*
Y7889D01*
Y7884D01*
Y7879D01*
X11482D01*
Y7875D01*
Y7870D01*
Y7865D01*
Y7860D01*
X11487D01*
Y7855D01*
Y7851D01*
Y7846D01*
Y7841D01*
Y7836D01*
X11492D01*
Y7831D01*
Y7826D01*
Y7822D01*
Y7817D01*
Y7812D01*
Y7807D01*
X11497D01*
Y7802D01*
Y7797D01*
Y7793D01*
Y7788D01*
Y7783D01*
Y7778D01*
X11501D01*
Y7773D01*
Y7769D01*
Y7764D01*
Y7759D01*
Y7754D01*
Y7749D01*
Y7744D01*
X11506D01*
Y7740D01*
Y7735D01*
Y7730D01*
Y7725D01*
Y7720D01*
Y7715D01*
Y7711D01*
Y7706D01*
Y7701D01*
X11511D01*
Y7696D01*
Y7691D01*
Y7686D01*
Y7682D01*
Y7677D01*
Y7672D01*
Y7667D01*
Y7662D01*
Y7658D01*
Y7653D01*
Y7648D01*
Y7643D01*
Y7638D01*
X11516D01*
Y7633D01*
Y7629D01*
Y7624D01*
Y7619D01*
Y7614D01*
Y7609D01*
Y7604D01*
Y7600D01*
Y7595D01*
Y7590D01*
Y7585D01*
Y7580D01*
Y7576D01*
Y7571D01*
Y7566D01*
Y7561D01*
Y7556D01*
Y7551D01*
Y7547D01*
Y7542D01*
Y7537D01*
Y7532D01*
Y7527D01*
Y7522D01*
Y7518D01*
Y7513D01*
X11511D01*
Y7508D01*
Y7503D01*
Y7498D01*
Y7494D01*
Y7489D01*
Y7484D01*
Y7479D01*
Y7474D01*
Y7469D01*
Y7465D01*
Y7460D01*
Y7455D01*
Y7450D01*
Y7445D01*
Y7440D01*
X11506D01*
Y7436D01*
Y7431D01*
Y7426D01*
Y7421D01*
Y7416D01*
Y7411D01*
Y7407D01*
Y7402D01*
Y7397D01*
X11501D01*
Y7392D01*
Y7387D01*
Y7383D01*
Y7378D01*
Y7373D01*
Y7368D01*
Y7363D01*
Y7358D01*
X11497D01*
Y7354D01*
Y7349D01*
Y7344D01*
Y7339D01*
Y7334D01*
Y7329D01*
Y7325D01*
X11492D01*
Y7320D01*
Y7315D01*
Y7310D01*
Y7305D01*
Y7301D01*
Y7296D01*
X11487D01*
Y7291D01*
Y7286D01*
Y7281D01*
Y7276D01*
Y7272D01*
X11482D01*
Y7267D01*
Y7262D01*
Y7257D01*
Y7252D01*
X11477D01*
Y7247D01*
Y7243D01*
Y7238D01*
Y7233D01*
Y7228D01*
X11472D01*
Y7223D01*
Y7218D01*
Y7214D01*
X11468D01*
Y7209D01*
Y7204D01*
Y7199D01*
Y7194D01*
X11463D01*
Y7190D01*
Y7185D01*
Y7180D01*
X11458D01*
Y7175D01*
Y7170D01*
Y7165D01*
X11453D01*
Y7161D01*
Y7156D01*
Y7151D01*
X11448D01*
Y7146D01*
Y7141D01*
Y7136D01*
X11443D01*
Y7132D01*
Y7127D01*
Y7122D01*
Y7117D01*
X11439D01*
Y7112D01*
Y7107D01*
X11434D01*
Y7103D01*
Y7098D01*
Y7093D01*
X11429D01*
Y7088D01*
Y7083D01*
Y7079D01*
X11424D01*
Y7074D01*
Y7069D01*
X11419D01*
Y7064D01*
Y7059D01*
X11415D01*
Y7054D01*
Y7050D01*
Y7045D01*
X11410D01*
Y7040D01*
Y7035D01*
X11405D01*
Y7030D01*
Y7025D01*
X11400D01*
Y7021D01*
Y7016D01*
X11395D01*
Y7011D01*
Y7006D01*
X11390D01*
Y7001D01*
Y6997D01*
X11386D01*
Y6992D01*
Y6987D01*
X11381D01*
Y6982D01*
X11376D01*
Y6977D01*
Y6972D01*
X11371D01*
Y6968D01*
X11366D01*
Y6963D01*
Y6958D01*
X11361D01*
Y6953D01*
X11357D01*
Y6948D01*
X11352D01*
Y6943D01*
Y6939D01*
X11347D01*
Y6934D01*
X11342D01*
Y6929D01*
X11337D01*
Y6924D01*
X11333D01*
Y6919D01*
X11328D01*
Y6914D01*
X11323D01*
Y6910D01*
X11318D01*
Y6905D01*
X11313D01*
Y6900D01*
X11308D01*
Y6895D01*
X11304D01*
Y6890D01*
X11299D01*
Y6886D01*
X11294D01*
Y6881D01*
X11289D01*
Y6876D01*
X11284D01*
Y6871D01*
X11275D01*
Y6866D01*
X11270D01*
Y6861D01*
X11265D01*
Y6857D01*
X11255D01*
Y6852D01*
X11250D01*
Y6847D01*
X11241D01*
Y6842D01*
X11236D01*
Y6837D01*
X11226D01*
Y6832D01*
X11222D01*
Y6828D01*
X11212D01*
Y6823D01*
X11202D01*
Y6818D01*
X11197D01*
Y6813D01*
X11188D01*
Y6808D01*
X11178D01*
Y6804D01*
X11168D01*
Y6799D01*
X11159D01*
Y6794D01*
X11144D01*
Y6789D01*
X11135D01*
Y6784D01*
X11125D01*
Y6779D01*
X11111D01*
Y6775D01*
X11096D01*
Y6770D01*
X11082D01*
Y6765D01*
X11067D01*
Y6760D01*
X11053D01*
Y6755D01*
X11029D01*
Y6750D01*
X11004D01*
Y6746D01*
X10971D01*
Y6741D01*
X10908D01*
Y6736D01*
X10821D01*
Y6741D01*
X10758D01*
Y6746D01*
X10725D01*
Y6750D01*
X10696D01*
Y6755D01*
X10671D01*
Y6760D01*
X10657D01*
Y6765D01*
X10638D01*
Y6770D01*
X10623D01*
Y6775D01*
X10609D01*
Y6779D01*
X10594D01*
Y6784D01*
X10580D01*
Y6789D01*
X10565D01*
Y6794D01*
X10556D01*
Y6799D01*
X10541D01*
Y6804D01*
X10532D01*
Y6808D01*
X10522D01*
Y6813D01*
X10512D01*
Y6818D01*
X10503D01*
Y6823D01*
X10493D01*
Y6828D01*
X10488D01*
Y6832D01*
X10478D01*
Y6837D01*
X10469D01*
Y6842D01*
X10464D01*
Y6847D01*
X10454D01*
Y6852D01*
X10450D01*
Y6857D01*
X10440D01*
Y6861D01*
X10435D01*
Y6866D01*
X10430D01*
Y6871D01*
X10421D01*
Y6876D01*
X10416D01*
Y6881D01*
X10411D01*
Y6886D01*
X10406D01*
Y6890D01*
X10401D01*
Y6895D01*
X10392D01*
Y6900D01*
X10387D01*
Y6905D01*
X10382D01*
Y6910D01*
X10377D01*
Y6914D01*
X10372D01*
Y6919D01*
X10367D01*
Y6924D01*
X10363D01*
Y6929D01*
X10358D01*
Y6934D01*
Y6939D01*
X10353D01*
Y6943D01*
X10348D01*
Y6948D01*
X10343D01*
Y6953D01*
X10339D01*
Y6958D01*
X10334D01*
Y6963D01*
X10329D01*
Y6968D01*
Y6972D01*
X10324D01*
Y6977D01*
X10319D01*
Y6982D01*
Y6987D01*
X10314D01*
Y6992D01*
X10310D01*
Y6997D01*
X10305D01*
Y7001D01*
Y7006D01*
X10300D01*
Y7011D01*
Y7016D01*
X10295D01*
Y7021D01*
X10290D01*
Y7025D01*
Y7030D01*
X10285D01*
Y7035D01*
Y7040D01*
X10281D01*
Y7045D01*
Y7050D01*
X10276D01*
Y7054D01*
X10271D01*
Y7059D01*
Y7064D01*
X10266D01*
Y7069D01*
Y7074D01*
X10261D01*
Y7079D01*
Y7083D01*
Y7088D01*
X10257D01*
Y7093D01*
Y7098D01*
X10252D01*
Y7103D01*
Y7107D01*
Y7112D01*
X10247D01*
Y7117D01*
Y7122D01*
Y7127D01*
X10242D01*
Y7132D01*
Y7136D01*
Y7141D01*
X10237D01*
Y7146D01*
Y7151D01*
Y7156D01*
X10232D01*
Y7161D01*
Y7165D01*
Y7170D01*
X10228D01*
Y7175D01*
Y7180D01*
Y7185D01*
X10223D01*
Y7190D01*
Y7194D01*
Y7199D01*
Y7204D01*
X10218D01*
Y7209D01*
Y7214D01*
Y7218D01*
Y7223D01*
X10213D01*
Y7228D01*
Y7233D01*
Y7238D01*
Y7243D01*
Y7247D01*
X10208D01*
Y7252D01*
Y7257D01*
Y7262D01*
Y7267D01*
Y7272D01*
X10203D01*
Y7276D01*
Y7281D01*
Y7286D01*
Y7291D01*
Y7296D01*
Y7301D01*
Y7305D01*
X10199D01*
Y7310D01*
Y7315D01*
Y7320D01*
Y7325D01*
Y7329D01*
Y7334D01*
Y7339D01*
Y7344D01*
X10194D01*
Y7349D01*
Y7354D01*
Y7358D01*
Y7363D01*
Y7368D01*
Y7373D01*
Y7378D01*
Y7383D01*
Y7387D01*
Y7392D01*
Y7397D01*
X10189D01*
Y7402D01*
Y7407D01*
Y7411D01*
Y7416D01*
Y7421D01*
Y7426D01*
Y7431D01*
Y7436D01*
Y7440D01*
Y7445D01*
Y7450D01*
Y7455D01*
Y7460D01*
Y7465D01*
Y7469D01*
Y7474D01*
X10184D01*
Y7479D01*
Y7484D01*
Y7489D01*
Y7494D01*
Y7498D01*
Y7503D01*
Y7508D01*
Y7513D01*
Y7518D01*
Y7522D01*
Y7527D01*
Y7532D01*
Y7537D01*
Y7542D01*
Y7547D01*
Y7551D01*
Y7556D01*
Y7561D01*
Y7566D01*
Y7571D01*
Y7576D01*
Y7580D01*
Y7585D01*
Y7590D01*
Y7595D01*
Y7600D01*
Y7604D01*
Y7609D01*
Y7614D01*
Y7619D01*
Y7624D01*
Y7629D01*
Y7633D01*
Y7638D01*
Y7643D01*
Y7648D01*
X10189D01*
Y7653D01*
Y7658D01*
Y7662D01*
Y7667D01*
Y7672D01*
Y7677D01*
Y7682D01*
Y7686D01*
Y7691D01*
Y7696D01*
Y7701D01*
Y7706D01*
Y7711D01*
X10194D01*
Y7715D01*
Y7720D01*
Y7725D01*
Y7730D01*
Y7735D01*
Y7740D01*
Y7744D01*
Y7749D01*
Y7754D01*
Y7759D01*
X10199D01*
Y7764D01*
Y7769D01*
Y7773D01*
Y7778D01*
Y7783D01*
Y7788D01*
Y7793D01*
Y7797D01*
X10203D01*
Y7802D01*
Y7807D01*
Y7812D01*
Y7817D01*
Y7822D01*
Y7826D01*
X10208D01*
Y7831D01*
Y7836D01*
Y7841D01*
Y7846D01*
Y7851D01*
X10213D01*
Y7855D01*
Y7860D01*
Y7865D01*
Y7870D01*
Y7875D01*
X10218D01*
Y7879D01*
Y7884D01*
Y7889D01*
Y7894D01*
X10223D01*
Y7899D01*
Y7904D01*
Y7908D01*
Y7913D01*
X10228D01*
Y7918D01*
Y7923D01*
Y7928D01*
X10232D01*
Y7933D01*
Y7937D01*
Y7942D01*
X10237D01*
Y7947D01*
Y7952D01*
Y7957D01*
Y7962D01*
X10242D01*
Y7966D01*
Y7971D01*
Y7976D01*
X10247D01*
Y7981D01*
Y7986D01*
Y7990D01*
X10252D01*
Y7995D01*
Y8000D01*
Y8005D01*
X10257D01*
Y8010D01*
Y8015D01*
X10261D01*
Y8019D01*
Y8024D01*
Y8029D01*
X10266D01*
Y8034D01*
Y8039D01*
X10271D01*
Y8044D01*
Y8048D01*
Y8053D01*
X10276D01*
Y8058D01*
Y8063D01*
X10281D01*
Y8068D01*
Y8073D01*
X10285D01*
Y8077D01*
Y8082D01*
X10290D01*
Y8087D01*
Y8092D01*
X10295D01*
Y8097D01*
Y8101D01*
X10300D01*
Y8106D01*
Y8111D01*
X10305D01*
Y8116D01*
Y8121D01*
X10310D01*
Y8126D01*
Y8130D01*
X10314D01*
Y8135D01*
Y8140D01*
X10319D01*
Y8145D01*
Y8150D01*
X10324D01*
Y8155D01*
X10329D01*
Y8159D01*
Y8164D01*
X10334D01*
Y8169D01*
X10339D01*
Y8174D01*
Y8179D01*
X10343D01*
Y8183D01*
Y8188D01*
X10348D01*
Y8193D01*
X10353D01*
Y8198D01*
X10358D01*
Y8203D01*
Y8208D01*
X10363D01*
Y8212D01*
X10367D01*
Y8217D01*
Y8222D01*
X10372D01*
Y8227D01*
X10377D01*
Y8232D01*
X10382D01*
Y8237D01*
X10387D01*
Y8241D01*
Y8246D01*
X10392D01*
Y8251D01*
X10396D01*
Y8256D01*
X10401D01*
Y8261D01*
X10406D01*
Y8266D01*
X10411D01*
Y8270D01*
Y8275D01*
X10416D01*
Y8280D01*
X10421D01*
Y8285D01*
X10425D01*
Y8290D01*
X10430D01*
Y8294D01*
X10435D01*
Y8299D01*
X10440D01*
Y8304D01*
X10445D01*
Y8309D01*
X10450D01*
Y8314D01*
X10454D01*
Y8319D01*
X10459D01*
Y8323D01*
X10464D01*
Y8328D01*
X10474D01*
Y8333D01*
X10478D01*
Y8338D01*
X10483D01*
Y8343D01*
X10488D01*
Y8348D01*
X10498D01*
Y8352D01*
X10503D01*
Y8357D01*
X10507D01*
Y8362D01*
X10517D01*
Y8367D01*
X10522D01*
Y8372D01*
X10532D01*
Y8376D01*
X10536D01*
Y8381D01*
X10546D01*
Y8386D01*
X10551D01*
Y8391D01*
Y8396D01*
X10546D01*
Y8401D01*
X10541D01*
Y8405D01*
X10532D01*
Y8410D01*
X10527D01*
Y8415D01*
X10522D01*
Y8420D01*
X10512D01*
Y8425D01*
X10507D01*
Y8430D01*
X10498D01*
Y8434D01*
X10488D01*
Y8439D01*
X10478D01*
Y8444D01*
X10469D01*
Y8449D01*
X10459D01*
Y8454D01*
X10445D01*
Y8459D01*
X10435D01*
Y8463D01*
X10421D01*
Y8468D01*
X10406D01*
Y8473D01*
X10387D01*
Y8478D01*
X10363D01*
Y8483D01*
X10329D01*
Y8487D01*
X10194D01*
Y8492D01*
X10179D01*
Y8497D01*
X10174D01*
Y8502D01*
X10170D01*
Y8507D01*
Y8512D01*
Y8516D01*
X10174D01*
Y8521D01*
Y8526D01*
X10179D01*
Y8531D01*
Y8536D01*
X10184D01*
Y8541D01*
X10189D01*
Y8545D01*
X10194D01*
Y8550D01*
X10199D01*
Y8555D01*
X10203D01*
Y8560D01*
X10208D01*
Y8565D01*
X10213D01*
Y8569D01*
X10218D01*
Y8574D01*
X10228D01*
Y8579D01*
X10232D01*
Y8584D01*
X10237D01*
Y8589D01*
X10242D01*
Y8594D01*
X10252D01*
Y8598D01*
X10257D01*
Y8603D01*
X10261D01*
Y8608D01*
X10271D01*
Y8613D01*
X10281D01*
Y8618D01*
X10285D01*
Y8623D01*
X10295D01*
Y8627D01*
X10305D01*
Y8632D01*
X10314D01*
Y8637D01*
X10324D01*
Y8642D01*
X10339D01*
Y8647D01*
X10348D01*
Y8652D01*
X10363D01*
Y8656D01*
X10377D01*
Y8661D01*
X10392D01*
Y8666D01*
X10411D01*
Y8671D01*
X10425D01*
Y8676D01*
X10445D01*
Y8680D01*
X10469D01*
Y8685D01*
X10493D01*
Y8690D01*
X10536D01*
Y8695D01*
X10551D01*
Y8700D01*
Y8705D01*
X10546D01*
Y8709D01*
X10541D01*
Y8714D01*
X10536D01*
Y8719D01*
X10527D01*
Y8724D01*
X10522D01*
Y8729D01*
X10517D01*
Y8734D01*
X10512D01*
Y8738D01*
X10503D01*
Y8743D01*
X10498D01*
Y8748D01*
X10488D01*
Y8753D01*
X10483D01*
Y8758D01*
X10474D01*
Y8762D01*
X10464D01*
Y8767D01*
X10454D01*
Y8772D01*
X10445D01*
Y8777D01*
X10435D01*
Y8782D01*
X10425D01*
Y8787D01*
X10416D01*
Y8791D01*
X10406D01*
Y8796D01*
X10392D01*
Y8801D01*
X10382D01*
Y8806D01*
X10363D01*
Y8811D01*
X10348D01*
Y8816D01*
X10329D01*
Y8820D01*
X10310D01*
Y8825D01*
X10290D01*
Y8830D01*
X10261D01*
Y8835D01*
X10218D01*
Y8840D01*
X10194D01*
Y8845D01*
X10174D01*
Y8849D01*
X10165D01*
Y8854D01*
X10160D01*
Y8859D01*
X10155D01*
Y8864D01*
Y8869D01*
X10150D01*
Y8873D01*
Y8878D01*
X10155D01*
Y8883D01*
Y8888D01*
X10160D01*
Y8893D01*
Y8898D01*
X10165D01*
Y8902D01*
X10170D01*
Y8907D01*
X10174D01*
Y8912D01*
X10184D01*
Y8917D01*
X10189D01*
Y8922D01*
X10194D01*
Y8927D01*
X10199D01*
Y8931D01*
X10208D01*
Y8936D01*
X10213D01*
Y8941D01*
X10223D01*
Y8946D01*
X10232D01*
Y8951D01*
X10242D01*
Y8955D01*
X10257D01*
Y8960D01*
X10266D01*
Y8965D01*
X10281D01*
Y8970D01*
X10295D01*
Y8975D01*
X10314D01*
Y8980D01*
X10343D01*
Y8984D01*
X10474D01*
Y8980D01*
X10498D01*
Y8975D01*
X10512D01*
Y8980D01*
Y8984D01*
Y8989D01*
X10507D01*
Y8994D01*
Y8999D01*
X10503D01*
Y9004D01*
X10498D01*
Y9009D01*
Y9013D01*
X10493D01*
Y9018D01*
X10488D01*
Y9023D01*
X10483D01*
Y9028D01*
Y9033D01*
X10478D01*
Y9038D01*
X10474D01*
Y9042D01*
X10469D01*
Y9047D01*
X10464D01*
Y9052D01*
Y9057D01*
X10459D01*
Y9062D01*
X10454D01*
Y9066D01*
Y9071D01*
X10450D01*
Y9076D01*
X10445D01*
Y9081D01*
X10440D01*
Y9086D01*
X10435D01*
Y9091D01*
Y9095D01*
X10430D01*
Y9100D01*
X10425D01*
Y9105D01*
X10421D01*
Y9110D01*
X10416D01*
Y9115D01*
Y9120D01*
X10411D01*
Y9124D01*
X10406D01*
Y9129D01*
X10401D01*
Y9134D01*
X10396D01*
Y9139D01*
Y9144D01*
X10392D01*
Y9148D01*
X10387D01*
Y9153D01*
X10382D01*
Y9158D01*
X10377D01*
Y9163D01*
X10372D01*
Y9168D01*
X10367D01*
Y9173D01*
X10363D01*
Y9177D01*
X10358D01*
Y9182D01*
X10353D01*
Y9187D01*
X10348D01*
Y9192D01*
X10343D01*
Y9197D01*
X10339D01*
Y9202D01*
X10334D01*
Y9206D01*
X10329D01*
Y9211D01*
X10324D01*
Y9216D01*
X10319D01*
Y9221D01*
Y9226D01*
X10314D01*
Y9231D01*
X10310D01*
Y9235D01*
Y9240D01*
X10305D01*
Y9245D01*
Y9250D01*
X10300D01*
Y9255D01*
Y9259D01*
Y9264D01*
X10305D01*
Y9269D01*
Y9274D01*
X10314D01*
Y9279D01*
X10334D01*
Y9284D01*
X10469D01*
Y9279D01*
X10498D01*
Y9274D01*
X10522D01*
Y9269D01*
X10541D01*
Y9264D01*
X10560D01*
Y9259D01*
X10575D01*
Y9255D01*
X10589D01*
Y9250D01*
X10599D01*
Y9245D01*
X10614D01*
Y9240D01*
X10623D01*
Y9235D01*
X10633D01*
Y9231D01*
X10643D01*
Y9226D01*
X10652D01*
Y9221D01*
X10657D01*
Y9216D01*
X10667D01*
Y9211D01*
X10676D01*
Y9206D01*
X10681D01*
Y9202D01*
X10686D01*
Y9197D01*
X10696D01*
Y9192D01*
X10705D01*
Y9197D01*
X10710D01*
Y9202D01*
Y9206D01*
Y9211D01*
X10715D01*
Y9216D01*
Y9221D01*
Y9226D01*
Y9231D01*
X10720D01*
Y9235D01*
Y9240D01*
Y9245D01*
Y9250D01*
X10725D01*
Y9255D01*
Y9259D01*
Y9264D01*
X10729D01*
Y9269D01*
Y9274D01*
Y9279D01*
Y9284D01*
X10734D01*
Y9288D01*
Y9293D01*
Y9298D01*
X10739D01*
Y9303D01*
Y9308D01*
Y9313D01*
Y9317D01*
X10744D01*
Y9322D01*
Y9327D01*
Y9332D01*
X10749D01*
Y9337D01*
Y9341D01*
Y9346D01*
X10754D01*
Y9351D01*
Y9356D01*
Y9361D01*
Y9366D01*
X10758D01*
Y9370D01*
Y9375D01*
Y9380D01*
Y9385D01*
X10763D01*
Y9390D01*
Y9395D01*
Y9399D01*
X10768D01*
Y9404D01*
Y9409D01*
Y9414D01*
Y9419D01*
X10773D01*
Y9424D01*
Y9428D01*
Y9433D01*
Y9438D01*
X10778D01*
Y9443D01*
Y9448D01*
Y9452D01*
Y9457D01*
X10782D01*
Y9462D01*
Y9467D01*
Y9472D01*
Y9477D01*
X10787D01*
Y9481D01*
Y9486D01*
Y9491D01*
Y9496D01*
X10792D01*
Y9501D01*
Y9506D01*
Y9510D01*
X10797D01*
Y9515D01*
Y9520D01*
Y9525D01*
X10802D01*
Y9530D01*
Y9534D01*
X10807D01*
Y9539D01*
Y9544D01*
X10811D01*
Y9549D01*
Y9554D01*
X10816D01*
Y9559D01*
Y9563D01*
X10821D01*
Y9568D01*
Y9573D01*
X10831D01*
Y9578D01*
X10836D01*
Y9583D01*
X10860D01*
Y9578D01*
D02*
G37*
%LPC*%
G36*
X10661Y2454D02*
Y2440D01*
X10668D01*
X10676D01*
Y2447D01*
X10683D01*
X10690D01*
Y2454D01*
X10683D01*
Y2462D01*
X10690D01*
Y2469D01*
X10698D01*
Y2476D01*
X10705D01*
Y2491D01*
X10712D01*
Y2506D01*
X10720D01*
Y2520D01*
X10727D01*
Y2535D01*
X10734D01*
Y2542D01*
X10742D01*
Y2557D01*
X10749D01*
Y2571D01*
X10756D01*
Y2586D01*
X10764D01*
X10771D01*
Y2593D01*
X10764D01*
Y2601D01*
X10771D01*
Y2608D01*
X10778D01*
Y2623D01*
X10786D01*
Y2630D01*
X10793D01*
Y2645D01*
X10800D01*
Y2659D01*
X10808D01*
Y2674D01*
X10815D01*
Y2689D01*
X10822D01*
Y2703D01*
X10830D01*
Y2718D01*
X10837D01*
Y2733D01*
X10844D01*
Y2740D01*
X10852D01*
Y2762D01*
X10859D01*
Y2784D01*
X10866D01*
Y2799D01*
X10874D01*
Y2813D01*
X10881D01*
Y2835D01*
X10888D01*
Y2857D01*
X10896D01*
Y2872D01*
X10903D01*
Y2886D01*
X10910D01*
Y2908D01*
X10918D01*
Y2916D01*
X10925D01*
Y2930D01*
X10932D01*
Y2952D01*
X10925D01*
X10918D01*
Y2945D01*
X10910D01*
Y2938D01*
X10903D01*
Y2923D01*
X10896D01*
Y2908D01*
X10888D01*
Y2894D01*
X10881D01*
Y2879D01*
X10874D01*
Y2872D01*
X10866D01*
Y2850D01*
X10859D01*
Y2842D01*
X10852D01*
Y2820D01*
X10844D01*
Y2806D01*
X10837D01*
Y2799D01*
X10830D01*
Y2784D01*
X10822D01*
Y2777D01*
X10815D01*
Y2755D01*
X10808D01*
Y2747D01*
X10800D01*
Y2725D01*
X10793D01*
Y2711D01*
X10786D01*
Y2696D01*
X10778D01*
Y2681D01*
X10771D01*
Y2667D01*
X10764D01*
Y2659D01*
X10756D01*
Y2637D01*
X10749D01*
Y2630D01*
X10742D01*
Y2608D01*
X10734D01*
Y2601D01*
X10727D01*
Y2579D01*
X10720D01*
Y2564D01*
X10712D01*
Y2549D01*
X10705D01*
Y2527D01*
X10698D01*
Y2513D01*
X10690D01*
Y2498D01*
X10683D01*
Y2491D01*
X10676D01*
Y2469D01*
X10668D01*
Y2454D01*
X10661D01*
D02*
G37*
G36*
X10464Y9231D02*
X10421D01*
Y9226D01*
X10425D01*
Y9221D01*
X10430D01*
Y9216D01*
X10435D01*
Y9211D01*
X10440D01*
Y9206D01*
X10445D01*
Y9202D01*
X10450D01*
Y9197D01*
X10459D01*
Y9192D01*
X10464D01*
Y9187D01*
X10469D01*
Y9182D01*
X10474D01*
Y9177D01*
X10478D01*
Y9173D01*
X10483D01*
Y9168D01*
X10488D01*
Y9163D01*
X10498D01*
Y9158D01*
X10503D01*
Y9153D01*
X10507D01*
Y9148D01*
X10512D01*
Y9144D01*
X10517D01*
Y9139D01*
X10522D01*
Y9134D01*
X10527D01*
Y9129D01*
X10532D01*
Y9124D01*
X10536D01*
Y9120D01*
X10546D01*
Y9115D01*
X10551D01*
Y9110D01*
X10556D01*
Y9105D01*
X10560D01*
Y9100D01*
X10565D01*
Y9095D01*
X10570D01*
Y9091D01*
X10575D01*
Y9086D01*
X10580D01*
Y9081D01*
X10585D01*
Y9076D01*
X10589D01*
Y9071D01*
X10594D01*
Y9066D01*
X10599D01*
Y9062D01*
X10604D01*
Y9057D01*
X10614D01*
Y9052D01*
X10618D01*
Y9047D01*
X10623D01*
Y9042D01*
X10628D01*
Y9038D01*
X10633D01*
Y9033D01*
X10638D01*
Y9028D01*
X10643D01*
Y9023D01*
X10647D01*
Y9018D01*
X10657D01*
Y9013D01*
X10662D01*
Y9009D01*
X10667D01*
Y9004D01*
X10671D01*
Y8999D01*
X10676D01*
Y8994D01*
X10681D01*
Y8989D01*
X10686D01*
Y8984D01*
X10691D01*
Y8980D01*
X10696D01*
Y8975D01*
X10700D01*
Y8970D01*
X10705D01*
Y8965D01*
X10715D01*
Y8960D01*
X10720D01*
Y8955D01*
X10725D01*
Y8951D01*
X10729D01*
Y8946D01*
X10734D01*
Y8941D01*
X10739D01*
Y8936D01*
X10744D01*
Y8931D01*
X10749D01*
Y8927D01*
X10754D01*
Y8922D01*
X10758D01*
Y8917D01*
X10763D01*
Y8912D01*
X10768D01*
Y8907D01*
X10773D01*
Y8902D01*
X10778D01*
Y8898D01*
X10782D01*
Y8893D01*
X10792D01*
Y8898D01*
Y8902D01*
Y8907D01*
Y8912D01*
X10787D01*
Y8917D01*
Y8922D01*
Y8927D01*
Y8931D01*
X10782D01*
Y8936D01*
Y8941D01*
Y8946D01*
Y8951D01*
X10778D01*
Y8955D01*
Y8960D01*
Y8965D01*
Y8970D01*
Y8975D01*
X10773D01*
Y8980D01*
Y8984D01*
Y8989D01*
X10768D01*
Y8994D01*
Y8999D01*
Y9004D01*
Y9009D01*
X10763D01*
Y9013D01*
Y9018D01*
Y9023D01*
X10758D01*
Y9028D01*
Y9033D01*
Y9038D01*
Y9042D01*
X10754D01*
Y9047D01*
Y9052D01*
X10749D01*
Y9057D01*
Y9062D01*
Y9066D01*
X10744D01*
Y9071D01*
X10739D01*
Y9076D01*
X10734D01*
Y9081D01*
Y9086D01*
X10729D01*
Y9091D01*
X10725D01*
Y9095D01*
X10720D01*
Y9100D01*
X10715D01*
Y9105D01*
X10710D01*
Y9110D01*
X10705D01*
Y9115D01*
X10700D01*
Y9120D01*
X10696D01*
Y9124D01*
X10686D01*
Y9129D01*
X10681D01*
Y9134D01*
X10676D01*
Y9139D01*
X10671D01*
Y9144D01*
X10667D01*
Y9148D01*
X10657D01*
Y9153D01*
X10647D01*
Y9158D01*
X10638D01*
Y9163D01*
X10628D01*
Y9168D01*
X10618D01*
Y9173D01*
X10609D01*
Y9177D01*
X10599D01*
Y9182D01*
X10589D01*
Y9187D01*
X10580D01*
Y9192D01*
X10570D01*
Y9197D01*
X10560D01*
Y9202D01*
X10546D01*
Y9206D01*
X10532D01*
Y9211D01*
X10512D01*
Y9216D01*
X10498D01*
Y9221D01*
X10483D01*
Y9226D01*
X10464D01*
Y9231D01*
D02*
G37*
G36*
X10855Y9457D02*
X10840D01*
Y9452D01*
Y9448D01*
Y9443D01*
Y9438D01*
Y9433D01*
Y9428D01*
Y9424D01*
Y9419D01*
Y9414D01*
Y9409D01*
Y9404D01*
Y9399D01*
Y9395D01*
Y9390D01*
Y9385D01*
Y9380D01*
Y9375D01*
Y9370D01*
Y9366D01*
Y9361D01*
Y9356D01*
Y9351D01*
Y9346D01*
Y9341D01*
Y9337D01*
Y9332D01*
Y9327D01*
Y9322D01*
Y9317D01*
Y9313D01*
Y9308D01*
Y9303D01*
Y9298D01*
Y9293D01*
Y9288D01*
Y9284D01*
Y9279D01*
Y9274D01*
Y9269D01*
Y9264D01*
Y9259D01*
Y9255D01*
Y9250D01*
Y9245D01*
Y9240D01*
Y9235D01*
Y9231D01*
Y9226D01*
Y9221D01*
Y9216D01*
Y9211D01*
Y9206D01*
Y9202D01*
Y9197D01*
Y9192D01*
X10845D01*
Y9187D01*
Y9182D01*
Y9177D01*
Y9173D01*
Y9168D01*
Y9163D01*
Y9158D01*
Y9153D01*
Y9148D01*
Y9144D01*
Y9139D01*
Y9134D01*
Y9129D01*
Y9124D01*
Y9120D01*
Y9115D01*
Y9110D01*
Y9105D01*
Y9100D01*
Y9095D01*
Y9091D01*
Y9086D01*
Y9081D01*
Y9076D01*
Y9071D01*
Y9066D01*
Y9062D01*
Y9057D01*
Y9052D01*
Y9047D01*
Y9042D01*
Y9038D01*
Y9033D01*
Y9028D01*
Y9023D01*
Y9018D01*
Y9013D01*
Y9009D01*
Y9004D01*
Y8999D01*
Y8994D01*
Y8989D01*
Y8984D01*
Y8980D01*
Y8975D01*
Y8970D01*
Y8965D01*
Y8960D01*
Y8955D01*
X10850D01*
Y8951D01*
Y8946D01*
Y8941D01*
Y8936D01*
Y8931D01*
Y8927D01*
Y8922D01*
Y8917D01*
Y8912D01*
Y8907D01*
Y8902D01*
Y8898D01*
Y8893D01*
Y8888D01*
X10855D01*
Y8883D01*
X10860D01*
Y8888D01*
X10864D01*
Y8893D01*
Y8898D01*
X10869D01*
Y8902D01*
Y8907D01*
X10874D01*
Y8912D01*
Y8917D01*
X10879D01*
Y8922D01*
X10884D01*
Y8927D01*
Y8931D01*
X10889D01*
Y8936D01*
Y8941D01*
X10893D01*
Y8946D01*
Y8951D01*
X10898D01*
Y8955D01*
Y8960D01*
X10903D01*
Y8965D01*
X10908D01*
Y8970D01*
Y8975D01*
X10913D01*
Y8980D01*
Y8984D01*
X10918D01*
Y8989D01*
Y8994D01*
X10922D01*
Y8999D01*
Y9004D01*
X10927D01*
Y9009D01*
Y9013D01*
X10932D01*
Y9018D01*
Y9023D01*
X10937D01*
Y9028D01*
Y9033D01*
X10942D01*
Y9038D01*
X10947D01*
Y9042D01*
Y9047D01*
X10951D01*
Y9052D01*
Y9057D01*
X10956D01*
Y9062D01*
Y9066D01*
Y9071D01*
Y9076D01*
Y9081D01*
Y9086D01*
X10951D01*
Y9091D01*
Y9095D01*
Y9100D01*
X10947D01*
Y9105D01*
Y9110D01*
Y9115D01*
Y9120D01*
Y9124D01*
X10942D01*
Y9129D01*
Y9134D01*
Y9139D01*
X10937D01*
Y9144D01*
Y9148D01*
Y9153D01*
Y9158D01*
X10932D01*
Y9163D01*
Y9168D01*
Y9173D01*
Y9177D01*
X10927D01*
Y9182D01*
Y9187D01*
Y9192D01*
Y9197D01*
X10922D01*
Y9202D01*
Y9206D01*
Y9211D01*
Y9216D01*
X10918D01*
Y9221D01*
Y9226D01*
Y9231D01*
Y9235D01*
X10913D01*
Y9240D01*
Y9245D01*
Y9250D01*
Y9255D01*
X10908D01*
Y9259D01*
Y9264D01*
Y9269D01*
Y9274D01*
X10903D01*
Y9279D01*
Y9284D01*
Y9288D01*
Y9293D01*
X10898D01*
Y9298D01*
Y9303D01*
Y9308D01*
X10893D01*
Y9313D01*
Y9317D01*
Y9322D01*
Y9327D01*
X10889D01*
Y9332D01*
Y9337D01*
Y9341D01*
Y9346D01*
X10884D01*
Y9351D01*
Y9356D01*
Y9361D01*
Y9366D01*
X10879D01*
Y9370D01*
Y9375D01*
Y9380D01*
Y9385D01*
X10874D01*
Y9390D01*
Y9395D01*
Y9399D01*
Y9404D01*
X10869D01*
Y9409D01*
Y9414D01*
Y9419D01*
Y9424D01*
Y9428D01*
X10864D01*
Y9433D01*
Y9438D01*
Y9443D01*
X10860D01*
Y9448D01*
Y9452D01*
X10855D01*
Y9457D01*
D02*
G37*
G36*
X11294Y9221D02*
X11270D01*
Y9216D01*
X11260D01*
Y9211D01*
X11255D01*
Y9206D01*
X11246D01*
Y9202D01*
X11241D01*
Y9197D01*
X11231D01*
Y9192D01*
X11226D01*
Y9187D01*
X11222D01*
Y9182D01*
X11212D01*
Y9177D01*
X11207D01*
Y9173D01*
X11202D01*
Y9168D01*
X11193D01*
Y9163D01*
X11188D01*
Y9158D01*
X11183D01*
Y9153D01*
X11178D01*
Y9148D01*
X11173D01*
Y9144D01*
X11164D01*
Y9139D01*
X11159D01*
Y9134D01*
X11154D01*
Y9129D01*
X11149D01*
Y9124D01*
X11144D01*
Y9120D01*
X11140D01*
Y9115D01*
X11135D01*
Y9110D01*
X11125D01*
Y9105D01*
X11120D01*
Y9100D01*
X11115D01*
Y9095D01*
X11111D01*
Y9091D01*
Y9086D01*
X11101D01*
Y9081D01*
X11096D01*
Y9076D01*
Y9071D01*
X11091D01*
Y9066D01*
X11086D01*
Y9062D01*
X11082D01*
Y9057D01*
X11077D01*
Y9052D01*
X11072D01*
Y9047D01*
X11067D01*
Y9042D01*
Y9038D01*
X11062D01*
Y9033D01*
X11057D01*
Y9028D01*
X11053D01*
Y9023D01*
X11048D01*
Y9018D01*
Y9013D01*
X11043D01*
Y9009D01*
X11038D01*
Y9004D01*
X11033D01*
Y8999D01*
Y8994D01*
X11029D01*
Y8989D01*
X11024D01*
Y8984D01*
Y8980D01*
X11019D01*
Y8975D01*
X11014D01*
Y8970D01*
X11009D01*
Y8965D01*
Y8960D01*
X11004D01*
Y8955D01*
X11000D01*
Y8951D01*
Y8946D01*
X10995D01*
Y8941D01*
X10990D01*
Y8936D01*
Y8931D01*
X10985D01*
Y8927D01*
Y8922D01*
X10980D01*
Y8917D01*
Y8912D01*
X10975D01*
Y8907D01*
X10971D01*
Y8902D01*
Y8898D01*
X10966D01*
Y8893D01*
Y8888D01*
X10961D01*
Y8883D01*
Y8878D01*
X10956D01*
Y8873D01*
Y8869D01*
X10951D01*
Y8864D01*
X10947D01*
Y8859D01*
Y8854D01*
X10942D01*
Y8849D01*
X10937D01*
Y8845D01*
Y8840D01*
X10932D01*
Y8835D01*
Y8830D01*
Y8825D01*
X10927D01*
Y8820D01*
Y8816D01*
Y8811D01*
Y8806D01*
X10937D01*
Y8811D01*
X10942D01*
Y8816D01*
X10947D01*
Y8820D01*
X10951D01*
Y8825D01*
X10956D01*
Y8830D01*
X10961D01*
Y8835D01*
X10966D01*
Y8840D01*
X10971D01*
Y8845D01*
X10975D01*
Y8849D01*
X10980D01*
Y8854D01*
X10990D01*
Y8859D01*
X10995D01*
Y8864D01*
X11000D01*
Y8869D01*
X11009D01*
Y8873D01*
X11014D01*
Y8878D01*
X11019D01*
Y8883D01*
X11029D01*
Y8888D01*
X11033D01*
Y8893D01*
X11038D01*
Y8898D01*
X11048D01*
Y8902D01*
X11057D01*
Y8907D01*
X11062D01*
Y8912D01*
X11072D01*
Y8917D01*
X11082D01*
Y8922D01*
X11086D01*
Y8927D01*
X11091D01*
Y8931D01*
Y8936D01*
X11096D01*
Y8941D01*
Y8946D01*
X11101D01*
Y8951D01*
Y8955D01*
Y8960D01*
X11106D01*
Y8965D01*
Y8970D01*
X11111D01*
Y8975D01*
X11115D01*
Y8980D01*
Y8984D01*
X11120D01*
Y8989D01*
Y8994D01*
X11125D01*
Y8999D01*
X11130D01*
Y9004D01*
Y9009D01*
X11135D01*
Y9013D01*
Y9018D01*
X11140D01*
Y9023D01*
Y9028D01*
X11144D01*
Y9033D01*
X11149D01*
Y9038D01*
Y9042D01*
X11154D01*
Y9047D01*
Y9052D01*
X11159D01*
Y9057D01*
X11164D01*
Y9062D01*
Y9066D01*
X11168D01*
Y9071D01*
X11173D01*
Y9076D01*
Y9081D01*
X11178D01*
Y9086D01*
X11183D01*
Y9091D01*
X11188D01*
Y9095D01*
Y9100D01*
X11193D01*
Y9105D01*
X11197D01*
Y9110D01*
X11202D01*
Y9115D01*
X11207D01*
Y9120D01*
X11212D01*
Y9124D01*
X11217D01*
Y9129D01*
X11222D01*
Y9134D01*
X11226D01*
Y9139D01*
Y9144D01*
X11231D01*
Y9148D01*
X11236D01*
Y9153D01*
X11241D01*
Y9158D01*
X11246D01*
Y9163D01*
X11250D01*
Y9168D01*
X11255D01*
Y9173D01*
X11260D01*
Y9177D01*
X11265D01*
Y9182D01*
X11270D01*
Y9187D01*
Y9192D01*
X11275D01*
Y9197D01*
X11279D01*
Y9202D01*
X11284D01*
Y9206D01*
X11289D01*
Y9211D01*
X11294D01*
Y9216D01*
Y9221D01*
D02*
G37*
G36*
X11395Y8907D02*
X11304D01*
Y8902D01*
X11255D01*
Y8898D01*
X11236D01*
Y8893D01*
X11222D01*
Y8888D01*
X11207D01*
Y8883D01*
X11197D01*
Y8878D01*
X11188D01*
Y8873D01*
X11178D01*
Y8869D01*
X11168D01*
Y8864D01*
X11159D01*
Y8859D01*
X11149D01*
Y8854D01*
X11140D01*
Y8849D01*
X11130D01*
Y8845D01*
X11120D01*
Y8840D01*
X11115D01*
Y8835D01*
X11111D01*
Y8830D01*
X11101D01*
Y8825D01*
X11096D01*
Y8820D01*
X11091D01*
Y8816D01*
X11082D01*
Y8811D01*
X11077D01*
Y8806D01*
X11072D01*
Y8801D01*
X11062D01*
Y8796D01*
X11057D01*
Y8791D01*
X11053D01*
Y8787D01*
X11048D01*
Y8782D01*
X11043D01*
Y8777D01*
X11033D01*
Y8772D01*
X11029D01*
Y8767D01*
X11024D01*
Y8762D01*
X11019D01*
Y8758D01*
X11014D01*
Y8753D01*
Y8748D01*
X11009D01*
Y8743D01*
X11004D01*
Y8738D01*
X11000D01*
Y8734D01*
X10995D01*
Y8729D01*
X10990D01*
Y8724D01*
X10985D01*
Y8719D01*
Y8714D01*
X10980D01*
Y8709D01*
X10975D01*
Y8705D01*
Y8700D01*
X10971D01*
Y8695D01*
Y8690D01*
X10966D01*
Y8685D01*
Y8680D01*
X10961D01*
Y8676D01*
Y8671D01*
X10956D01*
Y8666D01*
Y8661D01*
X10951D01*
Y8656D01*
Y8652D01*
Y8647D01*
X10947D01*
Y8642D01*
Y8637D01*
X10942D01*
Y8632D01*
Y8627D01*
Y8623D01*
X10937D01*
Y8618D01*
Y8613D01*
X10947D01*
Y8618D01*
X10956D01*
Y8623D01*
X10961D01*
Y8627D01*
X10966D01*
Y8632D01*
X10975D01*
Y8637D01*
X10980D01*
Y8642D01*
X10985D01*
Y8647D01*
X10995D01*
Y8652D01*
X11000D01*
Y8656D01*
X11009D01*
Y8661D01*
X11014D01*
Y8666D01*
X11024D01*
Y8671D01*
X11029D01*
Y8676D01*
X11038D01*
Y8680D01*
X11048D01*
Y8685D01*
X11062D01*
Y8690D01*
X11067D01*
Y8695D01*
X11072D01*
Y8700D01*
X11077D01*
Y8705D01*
X11082D01*
Y8709D01*
X11086D01*
Y8714D01*
X11091D01*
Y8719D01*
X11096D01*
Y8724D01*
X11101D01*
Y8729D01*
X11106D01*
Y8734D01*
X11111D01*
Y8738D01*
X11115D01*
Y8743D01*
X11120D01*
Y8748D01*
X11125D01*
Y8753D01*
X11130D01*
Y8758D01*
X11135D01*
Y8762D01*
X11140D01*
Y8767D01*
X11149D01*
Y8772D01*
X11154D01*
Y8777D01*
X11159D01*
Y8782D01*
X11164D01*
Y8787D01*
X11173D01*
Y8791D01*
X11178D01*
Y8796D01*
X11183D01*
Y8801D01*
X11193D01*
Y8806D01*
X11197D01*
Y8811D01*
X11207D01*
Y8816D01*
X11217D01*
Y8820D01*
X11231D01*
Y8825D01*
X11241D01*
Y8830D01*
X11250D01*
Y8835D01*
X11260D01*
Y8840D01*
X11275D01*
Y8845D01*
X11289D01*
Y8849D01*
X11304D01*
Y8854D01*
X11323D01*
Y8859D01*
X11342D01*
Y8864D01*
X11366D01*
Y8869D01*
X11386D01*
Y8873D01*
X11410D01*
Y8878D01*
X11443D01*
Y8883D01*
X11458D01*
Y8888D01*
Y8893D01*
X11443D01*
Y8898D01*
X11419D01*
Y8902D01*
X11395D01*
Y8907D01*
D02*
G37*
G36*
X10469Y8931D02*
X10367D01*
Y8927D01*
X10343D01*
Y8922D01*
X10324D01*
Y8917D01*
X10310D01*
Y8912D01*
X10300D01*
Y8907D01*
Y8902D01*
X10305D01*
Y8898D01*
X10319D01*
Y8893D01*
X10334D01*
Y8888D01*
X10343D01*
Y8883D01*
X10358D01*
Y8878D01*
X10372D01*
Y8873D01*
X10387D01*
Y8869D01*
X10401D01*
Y8864D01*
X10416D01*
Y8859D01*
X10430D01*
Y8854D01*
X10440D01*
Y8849D01*
X10454D01*
Y8845D01*
X10464D01*
Y8840D01*
X10474D01*
Y8835D01*
X10483D01*
Y8830D01*
X10498D01*
Y8825D01*
X10507D01*
Y8820D01*
X10517D01*
Y8816D01*
X10527D01*
Y8811D01*
X10536D01*
Y8806D01*
X10546D01*
Y8801D01*
X10551D01*
Y8796D01*
X10556D01*
Y8791D01*
X10565D01*
Y8787D01*
X10570D01*
Y8782D01*
X10575D01*
Y8777D01*
X10585D01*
Y8772D01*
X10589D01*
Y8767D01*
X10599D01*
Y8762D01*
X10604D01*
Y8758D01*
X10614D01*
Y8753D01*
X10623D01*
Y8748D01*
X10628D01*
Y8743D01*
X10633D01*
Y8738D01*
X10643D01*
Y8734D01*
X10647D01*
Y8729D01*
X10652D01*
Y8724D01*
X10657D01*
Y8719D01*
X10667D01*
Y8714D01*
X10671D01*
Y8709D01*
X10676D01*
Y8705D01*
X10681D01*
Y8700D01*
X10686D01*
Y8695D01*
X10691D01*
Y8690D01*
X10696D01*
Y8685D01*
X10705D01*
Y8680D01*
X10710D01*
Y8676D01*
X10715D01*
Y8671D01*
X10720D01*
Y8666D01*
X10725D01*
Y8661D01*
X10729D01*
Y8656D01*
X10734D01*
Y8652D01*
X10744D01*
Y8647D01*
X10749D01*
Y8642D01*
X10754D01*
Y8637D01*
X10758D01*
Y8632D01*
X10763D01*
Y8627D01*
X10768D01*
Y8623D01*
X10773D01*
Y8618D01*
X10782D01*
Y8613D01*
X10787D01*
Y8608D01*
X10792D01*
Y8603D01*
X10797D01*
Y8598D01*
X10802D01*
Y8594D01*
X10807D01*
Y8589D01*
X10811D01*
Y8584D01*
X10816D01*
Y8579D01*
X10821D01*
Y8574D01*
Y8569D01*
X10826D01*
Y8565D01*
X10831D01*
Y8560D01*
X10836D01*
Y8555D01*
X10840D01*
Y8550D01*
X10855D01*
Y8555D01*
Y8560D01*
Y8565D01*
Y8569D01*
Y8574D01*
X10850D01*
Y8579D01*
Y8584D01*
Y8589D01*
X10845D01*
Y8594D01*
Y8598D01*
Y8603D01*
X10840D01*
Y8608D01*
Y8613D01*
Y8618D01*
X10836D01*
Y8623D01*
Y8627D01*
Y8632D01*
X10831D01*
Y8637D01*
Y8642D01*
X10826D01*
Y8647D01*
Y8652D01*
Y8656D01*
X10821D01*
Y8661D01*
Y8666D01*
X10816D01*
Y8671D01*
Y8676D01*
X10811D01*
Y8680D01*
Y8685D01*
X10807D01*
Y8690D01*
Y8695D01*
X10802D01*
Y8700D01*
Y8705D01*
X10797D01*
Y8709D01*
Y8714D01*
X10792D01*
Y8719D01*
X10787D01*
Y8724D01*
Y8729D01*
X10782D01*
Y8734D01*
Y8738D01*
X10778D01*
Y8743D01*
X10773D01*
Y8748D01*
X10768D01*
Y8753D01*
Y8758D01*
X10763D01*
Y8762D01*
X10758D01*
Y8767D01*
X10754D01*
Y8772D01*
X10749D01*
Y8777D01*
X10744D01*
Y8782D01*
X10739D01*
Y8787D01*
X10734D01*
Y8791D01*
X10729D01*
Y8796D01*
X10725D01*
Y8801D01*
X10720D01*
Y8806D01*
X10715D01*
Y8811D01*
X10710D01*
Y8816D01*
X10705D01*
Y8820D01*
X10700D01*
Y8825D01*
X10696D01*
Y8830D01*
X10686D01*
Y8835D01*
X10681D01*
Y8840D01*
X10676D01*
Y8845D01*
X10671D01*
Y8849D01*
X10667D01*
Y8854D01*
X10657D01*
Y8859D01*
X10652D01*
Y8864D01*
X10643D01*
Y8869D01*
X10638D01*
Y8873D01*
X10628D01*
Y8878D01*
X10614D01*
Y8883D01*
X10604D01*
Y8888D01*
X10599D01*
Y8893D01*
X10589D01*
Y8898D01*
X10575D01*
Y8902D01*
X10560D01*
Y8907D01*
X10551D01*
Y8912D01*
X10532D01*
Y8917D01*
X10512D01*
Y8922D01*
X10488D01*
Y8927D01*
X10469D01*
Y8931D01*
D02*
G37*
G36*
X10589Y8623D02*
X10493D01*
Y8618D01*
X10464D01*
Y8613D01*
X10445D01*
Y8608D01*
X10425D01*
Y8603D01*
X10411D01*
Y8598D01*
X10392D01*
Y8594D01*
X10382D01*
Y8589D01*
X10367D01*
Y8584D01*
X10358D01*
Y8579D01*
X10348D01*
Y8574D01*
X10334D01*
Y8569D01*
X10329D01*
Y8565D01*
X10319D01*
Y8560D01*
X10314D01*
Y8555D01*
X10339D01*
Y8550D01*
X10421D01*
Y8545D01*
X10464D01*
Y8541D01*
X10493D01*
Y8536D01*
X10517D01*
Y8531D01*
X10532D01*
Y8526D01*
X10556D01*
Y8521D01*
X10570D01*
Y8516D01*
X10594D01*
Y8512D01*
X10609D01*
Y8507D01*
X10628D01*
Y8502D01*
X10643D01*
Y8497D01*
X10657D01*
Y8492D01*
X10671D01*
Y8487D01*
X10686D01*
Y8483D01*
X10700D01*
Y8478D01*
X10715D01*
Y8473D01*
X10729D01*
Y8468D01*
X10744D01*
Y8463D01*
X10758D01*
Y8459D01*
X10778D01*
Y8454D01*
X10792D01*
Y8449D01*
X10802D01*
Y8444D01*
X10816D01*
Y8449D01*
Y8454D01*
X10811D01*
Y8459D01*
Y8463D01*
X10807D01*
Y8468D01*
X10802D01*
Y8473D01*
Y8478D01*
X10797D01*
Y8483D01*
X10792D01*
Y8487D01*
X10787D01*
Y8492D01*
X10782D01*
Y8497D01*
Y8502D01*
X10778D01*
Y8507D01*
X10773D01*
Y8512D01*
X10768D01*
Y8516D01*
X10763D01*
Y8521D01*
X10758D01*
Y8526D01*
X10754D01*
Y8531D01*
X10749D01*
Y8536D01*
X10744D01*
Y8541D01*
X10739D01*
Y8545D01*
X10734D01*
Y8550D01*
X10729D01*
Y8555D01*
X10720D01*
Y8560D01*
X10715D01*
Y8565D01*
X10710D01*
Y8569D01*
X10700D01*
Y8574D01*
X10696D01*
Y8579D01*
X10686D01*
Y8584D01*
X10681D01*
Y8589D01*
X10671D01*
Y8594D01*
X10662D01*
Y8598D01*
X10647D01*
Y8603D01*
X10638D01*
Y8608D01*
X10623D01*
Y8613D01*
X10609D01*
Y8618D01*
X10589D01*
Y8623D01*
D02*
G37*
G36*
X11313Y8569D02*
X11236D01*
Y8565D01*
X11193D01*
Y8560D01*
X11168D01*
Y8555D01*
X11149D01*
Y8550D01*
X11130D01*
Y8545D01*
X11120D01*
Y8541D01*
X11106D01*
Y8536D01*
X11096D01*
Y8531D01*
X11086D01*
Y8526D01*
X11082D01*
Y8521D01*
X11072D01*
Y8516D01*
X11062D01*
Y8512D01*
X11057D01*
Y8507D01*
X11048D01*
Y8502D01*
X11043D01*
Y8497D01*
X11033D01*
Y8492D01*
X11029D01*
Y8487D01*
X11019D01*
Y8483D01*
X11014D01*
Y8478D01*
X11009D01*
Y8473D01*
X11004D01*
Y8468D01*
X11000D01*
Y8463D01*
X10990D01*
Y8459D01*
X10985D01*
Y8454D01*
X10980D01*
Y8449D01*
X10975D01*
Y8444D01*
Y8439D01*
X10971D01*
Y8434D01*
X10966D01*
Y8430D01*
X10961D01*
Y8425D01*
Y8420D01*
X11024D01*
Y8415D01*
X11072D01*
Y8420D01*
X11082D01*
Y8425D01*
X11086D01*
Y8430D01*
X11091D01*
Y8434D01*
X11101D01*
Y8439D01*
X11111D01*
Y8444D01*
X11115D01*
Y8449D01*
X11125D01*
Y8454D01*
X11135D01*
Y8459D01*
X11144D01*
Y8463D01*
X11154D01*
Y8468D01*
X11164D01*
Y8473D01*
X11168D01*
Y8478D01*
X11178D01*
Y8483D01*
X11193D01*
Y8487D01*
X11202D01*
Y8492D01*
X11212D01*
Y8497D01*
X11226D01*
Y8502D01*
X11236D01*
Y8507D01*
X11255D01*
Y8512D01*
X11270D01*
Y8516D01*
X11289D01*
Y8521D01*
X11308D01*
Y8526D01*
X11333D01*
Y8531D01*
X11352D01*
Y8536D01*
X11381D01*
Y8541D01*
X11395D01*
Y8545D01*
Y8550D01*
X11386D01*
Y8555D01*
X11366D01*
Y8560D01*
X11347D01*
Y8565D01*
X11313D01*
Y8569D01*
D02*
G37*
G36*
X10961Y8352D02*
X10918D01*
Y8348D01*
Y8343D01*
Y8338D01*
X10922D01*
Y8333D01*
Y8328D01*
X10932D01*
Y8323D01*
X10937D01*
Y8319D01*
X10942D01*
Y8314D01*
X10951D01*
Y8309D01*
X10956D01*
Y8304D01*
X10966D01*
Y8299D01*
X10971D01*
Y8294D01*
X10975D01*
Y8290D01*
X10985D01*
Y8285D01*
X10990D01*
Y8280D01*
X10995D01*
Y8275D01*
X11004D01*
Y8270D01*
X11009D01*
Y8266D01*
X11019D01*
Y8261D01*
X11024D01*
Y8256D01*
X11029D01*
Y8251D01*
X11038D01*
Y8246D01*
X11043D01*
Y8241D01*
X11053D01*
Y8237D01*
X11057D01*
Y8232D01*
X11067D01*
Y8227D01*
X11072D01*
Y8222D01*
X11077D01*
Y8217D01*
X11086D01*
Y8212D01*
X11091D01*
Y8208D01*
X11096D01*
Y8203D01*
X11106D01*
Y8198D01*
X11111D01*
Y8193D01*
X11140D01*
Y8198D01*
X11149D01*
Y8203D01*
X11154D01*
Y8208D01*
X11164D01*
Y8212D01*
X11168D01*
Y8217D01*
X11173D01*
Y8222D01*
X11178D01*
Y8227D01*
X11188D01*
Y8232D01*
X11193D01*
Y8237D01*
X11197D01*
Y8241D01*
X11202D01*
Y8246D01*
Y8251D01*
X11197D01*
Y8256D01*
X11193D01*
Y8261D01*
X11188D01*
Y8266D01*
X11178D01*
Y8270D01*
X11173D01*
Y8275D01*
X11168D01*
Y8280D01*
X11159D01*
Y8285D01*
X11154D01*
Y8290D01*
X11144D01*
Y8294D01*
X11135D01*
Y8299D01*
X11125D01*
Y8304D01*
X11115D01*
Y8309D01*
X11106D01*
Y8314D01*
X11091D01*
Y8319D01*
X11082D01*
Y8323D01*
X11062D01*
Y8328D01*
X11048D01*
Y8333D01*
X11029D01*
Y8338D01*
X11014D01*
Y8343D01*
X10990D01*
Y8348D01*
X10961D01*
Y8352D01*
D02*
G37*
G36*
X10792D02*
X10739D01*
Y8348D01*
X10710D01*
Y8343D01*
X10686D01*
Y8338D01*
X10662D01*
Y8333D01*
X10643D01*
Y8328D01*
X10633D01*
Y8323D01*
X10618D01*
Y8319D01*
X10604D01*
Y8314D01*
X10594D01*
Y8309D01*
X10580D01*
Y8304D01*
X10570D01*
Y8299D01*
X10560D01*
Y8294D01*
X10551D01*
Y8290D01*
X10546D01*
Y8285D01*
X10536D01*
Y8280D01*
X10532D01*
Y8275D01*
X10522D01*
Y8270D01*
X10517D01*
Y8266D01*
X10512D01*
Y8261D01*
X10503D01*
Y8256D01*
X10498D01*
Y8251D01*
Y8246D01*
X10503D01*
Y8241D01*
X10507D01*
Y8237D01*
X10517D01*
Y8232D01*
X10522D01*
Y8227D01*
X10527D01*
Y8222D01*
X10536D01*
Y8217D01*
X10541D01*
Y8212D01*
X10546D01*
Y8208D01*
X10551D01*
Y8203D01*
X10560D01*
Y8198D01*
X10565D01*
Y8193D01*
X10599D01*
Y8198D01*
X10604D01*
Y8203D01*
X10614D01*
Y8208D01*
X10618D01*
Y8212D01*
X10623D01*
Y8217D01*
X10628D01*
Y8222D01*
X10638D01*
Y8227D01*
X10643D01*
Y8232D01*
X10647D01*
Y8237D01*
X10657D01*
Y8241D01*
X10662D01*
Y8246D01*
X10671D01*
Y8251D01*
X10676D01*
Y8256D01*
X10686D01*
Y8261D01*
X10691D01*
Y8266D01*
X10700D01*
Y8270D01*
X10705D01*
Y8275D01*
X10715D01*
Y8280D01*
X10720D01*
Y8285D01*
X10729D01*
Y8290D01*
X10734D01*
Y8294D01*
X10739D01*
Y8299D01*
X10749D01*
Y8304D01*
X10754D01*
Y8309D01*
X10758D01*
Y8314D01*
X10768D01*
Y8319D01*
X10773D01*
Y8323D01*
X10778D01*
Y8328D01*
X10782D01*
Y8333D01*
X10787D01*
Y8338D01*
X10792D01*
Y8343D01*
Y8348D01*
Y8352D01*
D02*
G37*
G36*
X11255Y8203D02*
X11241D01*
Y8198D01*
X11236D01*
Y8193D01*
X11231D01*
Y8188D01*
X11222D01*
Y8183D01*
X11217D01*
Y8179D01*
X11207D01*
Y8174D01*
X11202D01*
Y8169D01*
X11197D01*
Y8164D01*
X11193D01*
Y8159D01*
X11188D01*
Y8155D01*
Y8150D01*
Y8145D01*
Y8140D01*
X11193D01*
Y8135D01*
X11197D01*
Y8130D01*
X11202D01*
Y8126D01*
X11212D01*
Y8121D01*
X11217D01*
Y8116D01*
X11226D01*
Y8111D01*
X11231D01*
Y8106D01*
X11236D01*
Y8101D01*
X11241D01*
Y8097D01*
X11250D01*
Y8092D01*
X11255D01*
Y8087D01*
X11265D01*
Y8082D01*
X11270D01*
Y8077D01*
X11279D01*
Y8073D01*
X11284D01*
Y8068D01*
X11289D01*
Y8063D01*
X11294D01*
Y8058D01*
X11304D01*
Y8053D01*
X11308D01*
Y8048D01*
X11313D01*
Y8044D01*
X11323D01*
Y8039D01*
X11328D01*
Y8034D01*
X11337D01*
Y8029D01*
X11342D01*
Y8024D01*
X11347D01*
Y8019D01*
X11357D01*
Y8015D01*
X11361D01*
Y8019D01*
Y8024D01*
Y8029D01*
X11357D01*
Y8034D01*
Y8039D01*
X11352D01*
Y8044D01*
Y8048D01*
X11347D01*
Y8053D01*
Y8058D01*
X11342D01*
Y8063D01*
Y8068D01*
X11337D01*
Y8073D01*
Y8077D01*
X11333D01*
Y8082D01*
Y8087D01*
X11328D01*
Y8092D01*
Y8097D01*
X11323D01*
Y8101D01*
Y8106D01*
X11318D01*
Y8111D01*
Y8116D01*
X11313D01*
Y8121D01*
Y8126D01*
X11308D01*
Y8130D01*
Y8135D01*
X11304D01*
Y8140D01*
X11299D01*
Y8145D01*
Y8150D01*
X11294D01*
Y8155D01*
X11289D01*
Y8159D01*
Y8164D01*
X11284D01*
Y8169D01*
X11279D01*
Y8174D01*
Y8179D01*
X11275D01*
Y8183D01*
X11270D01*
Y8188D01*
X11265D01*
Y8193D01*
Y8198D01*
X11255D01*
Y8203D01*
D02*
G37*
G36*
X10459Y8208D02*
X10445D01*
Y8203D01*
X10440D01*
Y8198D01*
X10435D01*
Y8193D01*
X10430D01*
Y8188D01*
X10425D01*
Y8183D01*
Y8179D01*
X10421D01*
Y8174D01*
X10416D01*
Y8169D01*
X10411D01*
Y8164D01*
Y8159D01*
X10406D01*
Y8155D01*
X10401D01*
Y8150D01*
Y8145D01*
X10396D01*
Y8140D01*
X10392D01*
Y8135D01*
Y8130D01*
X10387D01*
Y8126D01*
Y8121D01*
X10382D01*
Y8116D01*
Y8111D01*
X10377D01*
Y8106D01*
X10372D01*
Y8101D01*
Y8097D01*
X10367D01*
Y8092D01*
Y8087D01*
X10363D01*
Y8082D01*
Y8077D01*
X10358D01*
Y8073D01*
Y8068D01*
X10353D01*
Y8063D01*
Y8058D01*
X10348D01*
Y8053D01*
Y8048D01*
X10343D01*
Y8044D01*
Y8039D01*
Y8034D01*
X10339D01*
Y8029D01*
Y8024D01*
X10334D01*
Y8019D01*
X10329D01*
Y8015D01*
Y8010D01*
Y8005D01*
X10343D01*
Y8010D01*
X10348D01*
Y8015D01*
X10353D01*
Y8019D01*
X10358D01*
Y8024D01*
X10363D01*
Y8029D01*
X10372D01*
Y8034D01*
X10377D01*
Y8039D01*
X10387D01*
Y8044D01*
X10392D01*
Y8048D01*
X10401D01*
Y8053D01*
X10406D01*
Y8058D01*
X10411D01*
Y8063D01*
X10421D01*
Y8068D01*
X10425D01*
Y8073D01*
X10430D01*
Y8077D01*
X10440D01*
Y8082D01*
X10445D01*
Y8087D01*
X10454D01*
Y8092D01*
X10459D01*
Y8097D01*
X10469D01*
Y8101D01*
X10474D01*
Y8106D01*
X10478D01*
Y8111D01*
X10483D01*
Y8116D01*
X10493D01*
Y8121D01*
X10498D01*
Y8126D01*
X10503D01*
Y8130D01*
X10512D01*
Y8135D01*
X10517D01*
Y8140D01*
Y8145D01*
X10522D01*
Y8150D01*
Y8155D01*
Y8159D01*
X10517D01*
Y8164D01*
X10512D01*
Y8169D01*
X10503D01*
Y8174D01*
X10498D01*
Y8179D01*
X10493D01*
Y8183D01*
X10483D01*
Y8188D01*
X10478D01*
Y8193D01*
X10474D01*
Y8198D01*
X10464D01*
Y8203D01*
X10459D01*
Y8208D01*
D02*
G37*
G36*
X10864Y8304D02*
X10845D01*
Y8299D01*
X10836D01*
Y8294D01*
X10831D01*
Y8290D01*
X10821D01*
Y8285D01*
X10816D01*
Y8280D01*
X10807D01*
Y8275D01*
X10802D01*
Y8270D01*
X10792D01*
Y8266D01*
X10787D01*
Y8261D01*
X10782D01*
Y8256D01*
X10773D01*
Y8251D01*
X10768D01*
Y8246D01*
X10758D01*
Y8241D01*
X10754D01*
Y8237D01*
X10749D01*
Y8232D01*
X10739D01*
Y8227D01*
X10729D01*
Y8222D01*
X10725D01*
Y8217D01*
X10720D01*
Y8212D01*
X10710D01*
Y8208D01*
X10705D01*
Y8203D01*
X10700D01*
Y8198D01*
X10691D01*
Y8193D01*
X10686D01*
Y8188D01*
X10681D01*
Y8183D01*
X10671D01*
Y8179D01*
X10667D01*
Y8174D01*
X10657D01*
Y8169D01*
X10652D01*
Y8164D01*
X10647D01*
Y8159D01*
Y8155D01*
Y8150D01*
Y8145D01*
Y8140D01*
X10652D01*
Y8135D01*
X10657D01*
Y8130D01*
X10662D01*
Y8126D01*
X10671D01*
Y8121D01*
X10676D01*
Y8116D01*
X10686D01*
Y8111D01*
X10691D01*
Y8106D01*
X10696D01*
Y8101D01*
X10705D01*
Y8097D01*
X10710D01*
Y8092D01*
X10720D01*
Y8087D01*
X10725D01*
Y8082D01*
X10734D01*
Y8077D01*
X10739D01*
Y8073D01*
X10744D01*
Y8068D01*
X10754D01*
Y8063D01*
X10758D01*
Y8058D01*
X10763D01*
Y8053D01*
X10773D01*
Y8048D01*
X10778D01*
Y8044D01*
X10787D01*
Y8039D01*
X10792D01*
Y8034D01*
X10797D01*
Y8029D01*
X10807D01*
Y8024D01*
X10811D01*
Y8019D01*
X10821D01*
Y8015D01*
X10826D01*
Y8010D01*
X10831D01*
Y8005D01*
X10840D01*
Y8000D01*
X10869D01*
Y8005D01*
X10874D01*
Y8010D01*
X10884D01*
Y8015D01*
X10893D01*
Y8019D01*
X10898D01*
Y8024D01*
X10903D01*
Y8029D01*
X10913D01*
Y8034D01*
X10918D01*
Y8039D01*
X10922D01*
Y8044D01*
X10932D01*
Y8048D01*
X10937D01*
Y8053D01*
X10947D01*
Y8058D01*
X10951D01*
Y8063D01*
X10956D01*
Y8068D01*
X10966D01*
Y8073D01*
X10971D01*
Y8077D01*
X10975D01*
Y8082D01*
X10985D01*
Y8087D01*
X10990D01*
Y8092D01*
X11000D01*
Y8097D01*
X11004D01*
Y8101D01*
X11009D01*
Y8106D01*
X11019D01*
Y8111D01*
X11024D01*
Y8116D01*
X11033D01*
Y8121D01*
X11038D01*
Y8126D01*
X11043D01*
Y8130D01*
X11048D01*
Y8135D01*
X11057D01*
Y8140D01*
X11062D01*
Y8145D01*
Y8150D01*
Y8155D01*
Y8159D01*
X11057D01*
Y8164D01*
X11053D01*
Y8169D01*
X11048D01*
Y8174D01*
X11043D01*
Y8179D01*
X11038D01*
Y8183D01*
X11029D01*
Y8188D01*
X11019D01*
Y8193D01*
X11014D01*
Y8198D01*
X11009D01*
Y8203D01*
X11000D01*
Y8208D01*
X10995D01*
Y8212D01*
X10990D01*
Y8217D01*
X10980D01*
Y8222D01*
X10975D01*
Y8227D01*
X10971D01*
Y8232D01*
X10961D01*
Y8237D01*
X10956D01*
Y8241D01*
X10947D01*
Y8246D01*
X10942D01*
Y8251D01*
X10937D01*
Y8256D01*
X10927D01*
Y8261D01*
X10922D01*
Y8266D01*
X10918D01*
Y8270D01*
X10908D01*
Y8275D01*
X10903D01*
Y8280D01*
X10893D01*
Y8285D01*
X10889D01*
Y8290D01*
X10879D01*
Y8294D01*
X10874D01*
Y8299D01*
X10864D01*
Y8304D01*
D02*
G37*
G36*
X11130Y8111D02*
X11120D01*
Y8106D01*
X11111D01*
Y8101D01*
X11101D01*
Y8097D01*
X11096D01*
Y8092D01*
X11086D01*
Y8087D01*
X11082D01*
Y8082D01*
X11077D01*
Y8077D01*
X11067D01*
Y8073D01*
X11062D01*
Y8068D01*
X11057D01*
Y8063D01*
X11048D01*
Y8058D01*
X11043D01*
Y8053D01*
X11038D01*
Y8048D01*
X11029D01*
Y8044D01*
X11024D01*
Y8039D01*
X11014D01*
Y8034D01*
X11009D01*
Y8029D01*
X11004D01*
Y8024D01*
X10995D01*
Y8019D01*
X10990D01*
Y8015D01*
X10985D01*
Y8010D01*
X10980D01*
Y8005D01*
X10971D01*
Y8000D01*
X10966D01*
Y7995D01*
X10961D01*
Y7990D01*
X10951D01*
Y7986D01*
X10947D01*
Y7981D01*
X10942D01*
Y7976D01*
X10932D01*
Y7971D01*
X10927D01*
Y7966D01*
Y7962D01*
X10922D01*
Y7957D01*
Y7952D01*
Y7947D01*
Y7942D01*
X10927D01*
Y7937D01*
X10932D01*
Y7933D01*
X10937D01*
Y7928D01*
X10947D01*
Y7923D01*
X10956D01*
Y7918D01*
X10961D01*
Y7913D01*
X10966D01*
Y7908D01*
X10975D01*
Y7904D01*
X10980D01*
Y7899D01*
X10985D01*
Y7894D01*
X10995D01*
Y7889D01*
X11000D01*
Y7884D01*
X11004D01*
Y7879D01*
X11014D01*
Y7875D01*
X11019D01*
Y7870D01*
X11029D01*
Y7865D01*
X11033D01*
Y7860D01*
X11038D01*
Y7855D01*
X11048D01*
Y7851D01*
X11053D01*
Y7846D01*
X11057D01*
Y7841D01*
X11067D01*
Y7836D01*
X11072D01*
Y7831D01*
X11082D01*
Y7826D01*
X11086D01*
Y7822D01*
X11091D01*
Y7817D01*
X11101D01*
Y7812D01*
X11106D01*
Y7807D01*
X11115D01*
Y7802D01*
X11135D01*
Y7807D01*
X11144D01*
Y7812D01*
X11149D01*
Y7817D01*
X11159D01*
Y7822D01*
X11164D01*
Y7826D01*
X11168D01*
Y7831D01*
X11178D01*
Y7836D01*
X11183D01*
Y7841D01*
X11188D01*
Y7846D01*
X11197D01*
Y7851D01*
X11202D01*
Y7855D01*
X11207D01*
Y7860D01*
X11217D01*
Y7865D01*
X11222D01*
Y7870D01*
X11226D01*
Y7875D01*
X11236D01*
Y7879D01*
X11241D01*
Y7884D01*
X11250D01*
Y7889D01*
X11255D01*
Y7894D01*
X11265D01*
Y7899D01*
X11270D01*
Y7904D01*
X11275D01*
Y7908D01*
X11284D01*
Y7913D01*
X11289D01*
Y7918D01*
X11299D01*
Y7923D01*
X11304D01*
Y7928D01*
X11313D01*
Y7933D01*
X11318D01*
Y7937D01*
X11323D01*
Y7942D01*
X11328D01*
Y7947D01*
X11333D01*
Y7952D01*
Y7957D01*
Y7962D01*
X11328D01*
Y7966D01*
X11323D01*
Y7971D01*
X11318D01*
Y7976D01*
X11313D01*
Y7981D01*
X11304D01*
Y7986D01*
X11299D01*
Y7990D01*
X11294D01*
Y7995D01*
X11284D01*
Y8000D01*
X11279D01*
Y8005D01*
X11275D01*
Y8010D01*
X11265D01*
Y8015D01*
X11260D01*
Y8019D01*
X11250D01*
Y8024D01*
X11246D01*
Y8029D01*
X11236D01*
Y8034D01*
X11231D01*
Y8039D01*
X11226D01*
Y8044D01*
X11217D01*
Y8048D01*
X11212D01*
Y8053D01*
X11207D01*
Y8058D01*
X11197D01*
Y8063D01*
X11193D01*
Y8068D01*
X11183D01*
Y8073D01*
X11178D01*
Y8077D01*
X11168D01*
Y8082D01*
X11164D01*
Y8087D01*
X11154D01*
Y8092D01*
X11149D01*
Y8097D01*
X11144D01*
Y8101D01*
X11140D01*
Y8106D01*
X11130D01*
Y8111D01*
D02*
G37*
G36*
X10589D02*
X10580D01*
Y8106D01*
X10570D01*
Y8101D01*
X10565D01*
Y8097D01*
X10560D01*
Y8092D01*
X10551D01*
Y8087D01*
X10546D01*
Y8082D01*
X10536D01*
Y8077D01*
X10532D01*
Y8073D01*
X10527D01*
Y8068D01*
X10517D01*
Y8063D01*
X10512D01*
Y8058D01*
X10507D01*
Y8053D01*
X10498D01*
Y8048D01*
X10493D01*
Y8044D01*
X10488D01*
Y8039D01*
X10478D01*
Y8034D01*
X10474D01*
Y8029D01*
X10464D01*
Y8024D01*
X10459D01*
Y8019D01*
X10454D01*
Y8015D01*
X10445D01*
Y8010D01*
X10440D01*
Y8005D01*
X10435D01*
Y8000D01*
X10430D01*
Y7995D01*
X10421D01*
Y7990D01*
X10416D01*
Y7986D01*
X10411D01*
Y7981D01*
X10401D01*
Y7976D01*
X10396D01*
Y7971D01*
X10387D01*
Y7966D01*
X10382D01*
Y7962D01*
X10377D01*
Y7957D01*
Y7952D01*
Y7947D01*
Y7942D01*
X10382D01*
Y7937D01*
X10392D01*
Y7933D01*
X10396D01*
Y7928D01*
X10406D01*
Y7923D01*
X10411D01*
Y7918D01*
X10421D01*
Y7913D01*
X10425D01*
Y7908D01*
X10430D01*
Y7904D01*
X10440D01*
Y7899D01*
X10445D01*
Y7894D01*
X10450D01*
Y7889D01*
X10459D01*
Y7884D01*
X10464D01*
Y7879D01*
X10469D01*
Y7875D01*
X10478D01*
Y7870D01*
X10483D01*
Y7865D01*
X10493D01*
Y7860D01*
X10498D01*
Y7855D01*
X10503D01*
Y7851D01*
X10512D01*
Y7846D01*
X10517D01*
Y7841D01*
X10522D01*
Y7836D01*
X10532D01*
Y7831D01*
X10536D01*
Y7826D01*
X10546D01*
Y7822D01*
X10551D01*
Y7817D01*
X10556D01*
Y7812D01*
X10565D01*
Y7807D01*
X10570D01*
Y7802D01*
X10594D01*
Y7807D01*
X10604D01*
Y7812D01*
X10609D01*
Y7817D01*
X10618D01*
Y7822D01*
X10623D01*
Y7826D01*
X10628D01*
Y7831D01*
X10638D01*
Y7836D01*
X10643D01*
Y7841D01*
X10647D01*
Y7846D01*
X10657D01*
Y7851D01*
X10662D01*
Y7855D01*
X10671D01*
Y7860D01*
X10676D01*
Y7865D01*
X10681D01*
Y7870D01*
X10691D01*
Y7875D01*
X10700D01*
Y7879D01*
X10705D01*
Y7884D01*
X10715D01*
Y7889D01*
X10720D01*
Y7894D01*
X10725D01*
Y7899D01*
X10734D01*
Y7904D01*
X10739D01*
Y7908D01*
X10744D01*
Y7913D01*
X10754D01*
Y7918D01*
X10758D01*
Y7923D01*
X10763D01*
Y7928D01*
X10773D01*
Y7933D01*
X10778D01*
Y7937D01*
X10782D01*
Y7942D01*
X10787D01*
Y7947D01*
Y7952D01*
Y7957D01*
Y7962D01*
X10782D01*
Y7966D01*
X10778D01*
Y7971D01*
X10773D01*
Y7976D01*
X10768D01*
Y7981D01*
X10763D01*
Y7986D01*
X10758D01*
Y7990D01*
X10754D01*
Y7995D01*
X10744D01*
Y8000D01*
X10739D01*
Y8005D01*
X10729D01*
Y8010D01*
X10725D01*
Y8015D01*
X10720D01*
Y8019D01*
X10710D01*
Y8024D01*
X10705D01*
Y8029D01*
X10696D01*
Y8034D01*
X10691D01*
Y8039D01*
X10686D01*
Y8044D01*
X10676D01*
Y8048D01*
X10671D01*
Y8053D01*
X10667D01*
Y8058D01*
X10662D01*
Y8063D01*
X10652D01*
Y8068D01*
X10647D01*
Y8073D01*
X10643D01*
Y8077D01*
X10633D01*
Y8082D01*
X10628D01*
Y8087D01*
X10623D01*
Y8092D01*
X10614D01*
Y8097D01*
X10609D01*
Y8101D01*
X10599D01*
Y8106D01*
X10589D01*
Y8111D01*
D02*
G37*
G36*
X10860Y7913D02*
X10850D01*
Y7908D01*
X10840D01*
Y7904D01*
X10831D01*
Y7899D01*
X10826D01*
Y7894D01*
X10821D01*
Y7889D01*
X10811D01*
Y7884D01*
X10807D01*
Y7879D01*
X10797D01*
Y7875D01*
X10792D01*
Y7870D01*
X10782D01*
Y7865D01*
X10778D01*
Y7860D01*
X10773D01*
Y7855D01*
X10763D01*
Y7851D01*
X10758D01*
Y7846D01*
X10754D01*
Y7841D01*
X10744D01*
Y7836D01*
X10739D01*
Y7831D01*
X10729D01*
Y7826D01*
X10725D01*
Y7822D01*
X10720D01*
Y7817D01*
X10710D01*
Y7812D01*
X10705D01*
Y7807D01*
X10696D01*
Y7802D01*
X10691D01*
Y7797D01*
X10686D01*
Y7793D01*
X10676D01*
Y7788D01*
X10671D01*
Y7783D01*
X10667D01*
Y7778D01*
X10657D01*
Y7773D01*
Y7769D01*
X10652D01*
Y7764D01*
Y7759D01*
Y7754D01*
Y7749D01*
X10657D01*
Y7744D01*
X10662D01*
Y7740D01*
X10667D01*
Y7735D01*
X10671D01*
Y7730D01*
X10681D01*
Y7725D01*
X10686D01*
Y7720D01*
X10696D01*
Y7715D01*
X10700D01*
Y7711D01*
X10710D01*
Y7706D01*
X10715D01*
Y7701D01*
X10720D01*
Y7696D01*
X10729D01*
Y7691D01*
X10734D01*
Y7686D01*
X10744D01*
Y7682D01*
X10749D01*
Y7677D01*
X10754D01*
Y7672D01*
X10763D01*
Y7667D01*
X10768D01*
Y7662D01*
X10773D01*
Y7658D01*
X10782D01*
Y7653D01*
X10787D01*
Y7648D01*
X10792D01*
Y7643D01*
X10802D01*
Y7638D01*
X10807D01*
Y7633D01*
X10816D01*
Y7629D01*
X10821D01*
Y7624D01*
X10831D01*
Y7619D01*
X10836D01*
Y7614D01*
X10850D01*
Y7609D01*
X10860D01*
Y7614D01*
X10869D01*
Y7619D01*
X10879D01*
Y7624D01*
X10889D01*
Y7629D01*
X10893D01*
Y7633D01*
X10903D01*
Y7638D01*
X10908D01*
Y7643D01*
X10918D01*
Y7648D01*
X10922D01*
Y7653D01*
X10927D01*
Y7658D01*
X10937D01*
Y7662D01*
X10942D01*
Y7667D01*
X10947D01*
Y7672D01*
X10956D01*
Y7677D01*
X10961D01*
Y7682D01*
X10966D01*
Y7686D01*
X10975D01*
Y7691D01*
X10980D01*
Y7696D01*
X10985D01*
Y7701D01*
X10995D01*
Y7706D01*
X11000D01*
Y7711D01*
X11009D01*
Y7715D01*
X11014D01*
Y7720D01*
X11019D01*
Y7725D01*
X11029D01*
Y7730D01*
X11033D01*
Y7735D01*
X11043D01*
Y7740D01*
X11048D01*
Y7744D01*
X11053D01*
Y7749D01*
X11057D01*
Y7754D01*
Y7759D01*
Y7764D01*
Y7769D01*
X11053D01*
Y7773D01*
X11048D01*
Y7778D01*
X11043D01*
Y7783D01*
X11038D01*
Y7788D01*
X11029D01*
Y7793D01*
X11024D01*
Y7797D01*
X11019D01*
Y7802D01*
X11009D01*
Y7807D01*
X11004D01*
Y7812D01*
X11000D01*
Y7817D01*
X10990D01*
Y7822D01*
X10985D01*
Y7826D01*
X10975D01*
Y7831D01*
X10971D01*
Y7836D01*
X10966D01*
Y7841D01*
X10956D01*
Y7846D01*
X10951D01*
Y7851D01*
X10947D01*
Y7855D01*
X10937D01*
Y7860D01*
X10932D01*
Y7865D01*
X10927D01*
Y7870D01*
X10918D01*
Y7875D01*
X10913D01*
Y7879D01*
X10903D01*
Y7884D01*
X10898D01*
Y7889D01*
X10889D01*
Y7894D01*
X10884D01*
Y7899D01*
X10874D01*
Y7904D01*
X10869D01*
Y7908D01*
X10860D01*
Y7913D01*
D02*
G37*
G36*
X11395D02*
X11381D01*
Y7908D01*
X11376D01*
Y7904D01*
X11366D01*
Y7899D01*
X11361D01*
Y7894D01*
X11352D01*
Y7889D01*
X11347D01*
Y7884D01*
X11342D01*
Y7879D01*
X11333D01*
Y7875D01*
X11328D01*
Y7870D01*
X11318D01*
Y7865D01*
X11313D01*
Y7860D01*
X11308D01*
Y7855D01*
X11304D01*
Y7851D01*
X11294D01*
Y7846D01*
X11289D01*
Y7841D01*
X11284D01*
Y7836D01*
X11275D01*
Y7831D01*
X11270D01*
Y7826D01*
X11265D01*
Y7822D01*
X11255D01*
Y7817D01*
X11250D01*
Y7812D01*
X11241D01*
Y7807D01*
X11236D01*
Y7802D01*
X11231D01*
Y7797D01*
X11222D01*
Y7793D01*
X11217D01*
Y7788D01*
X11212D01*
Y7783D01*
X11202D01*
Y7778D01*
X11197D01*
Y7773D01*
X11193D01*
Y7769D01*
X11188D01*
Y7764D01*
Y7759D01*
Y7754D01*
X11193D01*
Y7749D01*
Y7744D01*
X11197D01*
Y7740D01*
X11207D01*
Y7735D01*
X11212D01*
Y7730D01*
X11217D01*
Y7725D01*
X11226D01*
Y7720D01*
X11231D01*
Y7715D01*
X11236D01*
Y7711D01*
X11246D01*
Y7706D01*
X11250D01*
Y7701D01*
X11255D01*
Y7696D01*
X11265D01*
Y7691D01*
X11270D01*
Y7686D01*
X11275D01*
Y7682D01*
X11284D01*
Y7677D01*
X11289D01*
Y7672D01*
X11294D01*
Y7667D01*
X11304D01*
Y7662D01*
X11308D01*
Y7658D01*
X11318D01*
Y7653D01*
X11323D01*
Y7648D01*
X11328D01*
Y7643D01*
X11337D01*
Y7638D01*
X11342D01*
Y7633D01*
X11352D01*
Y7629D01*
X11357D01*
Y7624D01*
X11361D01*
Y7619D01*
X11371D01*
Y7614D01*
X11376D01*
Y7609D01*
X11386D01*
Y7604D01*
X11400D01*
Y7609D01*
X11410D01*
Y7614D01*
X11419D01*
Y7619D01*
X11424D01*
Y7624D01*
X11429D01*
Y7629D01*
Y7633D01*
Y7638D01*
Y7643D01*
Y7648D01*
Y7653D01*
Y7658D01*
Y7662D01*
Y7667D01*
Y7672D01*
Y7677D01*
Y7682D01*
Y7686D01*
Y7691D01*
Y7696D01*
Y7701D01*
Y7706D01*
Y7711D01*
Y7715D01*
Y7720D01*
Y7725D01*
Y7730D01*
Y7735D01*
Y7740D01*
Y7744D01*
Y7749D01*
Y7754D01*
Y7759D01*
Y7764D01*
Y7769D01*
X11424D01*
Y7773D01*
Y7778D01*
Y7783D01*
Y7788D01*
Y7793D01*
Y7797D01*
Y7802D01*
X11419D01*
Y7807D01*
Y7812D01*
Y7817D01*
Y7822D01*
Y7826D01*
Y7831D01*
X11415D01*
Y7836D01*
Y7841D01*
Y7846D01*
Y7851D01*
X11410D01*
Y7855D01*
Y7860D01*
Y7865D01*
Y7870D01*
Y7875D01*
X11405D01*
Y7879D01*
Y7884D01*
Y7889D01*
Y7894D01*
Y7899D01*
X11400D01*
Y7904D01*
Y7908D01*
X11395D01*
Y7913D01*
D02*
G37*
G36*
X10324D02*
X10305D01*
Y7908D01*
X10300D01*
Y7904D01*
X10295D01*
Y7899D01*
Y7894D01*
Y7889D01*
X10290D01*
Y7884D01*
Y7879D01*
Y7875D01*
Y7870D01*
X10285D01*
Y7865D01*
Y7860D01*
Y7855D01*
X10281D01*
Y7851D01*
Y7846D01*
Y7841D01*
X10276D01*
Y7836D01*
Y7831D01*
Y7826D01*
Y7822D01*
Y7817D01*
Y7812D01*
X10271D01*
Y7807D01*
Y7802D01*
Y7797D01*
Y7793D01*
Y7788D01*
Y7783D01*
Y7778D01*
Y7773D01*
X10266D01*
Y7769D01*
Y7764D01*
Y7759D01*
Y7754D01*
Y7749D01*
Y7744D01*
Y7740D01*
Y7735D01*
Y7730D01*
X10261D01*
Y7725D01*
Y7720D01*
Y7715D01*
Y7711D01*
Y7706D01*
Y7701D01*
Y7696D01*
Y7691D01*
Y7686D01*
Y7682D01*
Y7677D01*
Y7672D01*
Y7667D01*
Y7662D01*
Y7658D01*
X10266D01*
Y7653D01*
Y7648D01*
Y7643D01*
Y7638D01*
X10271D01*
Y7633D01*
X10276D01*
Y7629D01*
X10281D01*
Y7624D01*
X10285D01*
Y7619D01*
X10290D01*
Y7614D01*
X10300D01*
Y7609D01*
X10305D01*
Y7604D01*
X10324D01*
Y7609D01*
X10334D01*
Y7614D01*
X10339D01*
Y7619D01*
X10348D01*
Y7624D01*
X10353D01*
Y7629D01*
X10363D01*
Y7633D01*
X10367D01*
Y7638D01*
X10372D01*
Y7643D01*
X10377D01*
Y7648D01*
X10387D01*
Y7653D01*
X10392D01*
Y7658D01*
X10396D01*
Y7662D01*
X10406D01*
Y7667D01*
X10411D01*
Y7672D01*
X10421D01*
Y7677D01*
X10425D01*
Y7682D01*
X10430D01*
Y7686D01*
X10440D01*
Y7691D01*
X10445D01*
Y7696D01*
X10450D01*
Y7701D01*
X10459D01*
Y7706D01*
X10464D01*
Y7711D01*
X10469D01*
Y7715D01*
X10478D01*
Y7720D01*
X10483D01*
Y7725D01*
X10493D01*
Y7730D01*
X10498D01*
Y7735D01*
X10503D01*
Y7740D01*
X10507D01*
Y7744D01*
X10517D01*
Y7749D01*
Y7754D01*
X10522D01*
Y7759D01*
Y7764D01*
X10517D01*
Y7769D01*
Y7773D01*
X10512D01*
Y7778D01*
X10507D01*
Y7783D01*
X10498D01*
Y7788D01*
X10493D01*
Y7793D01*
X10483D01*
Y7797D01*
X10478D01*
Y7802D01*
X10474D01*
Y7807D01*
X10464D01*
Y7812D01*
X10459D01*
Y7817D01*
X10454D01*
Y7822D01*
X10445D01*
Y7826D01*
X10440D01*
Y7831D01*
X10430D01*
Y7836D01*
X10425D01*
Y7841D01*
X10421D01*
Y7846D01*
X10411D01*
Y7851D01*
X10406D01*
Y7855D01*
X10401D01*
Y7860D01*
X10396D01*
Y7865D01*
X10387D01*
Y7870D01*
X10382D01*
Y7875D01*
X10372D01*
Y7879D01*
X10367D01*
Y7884D01*
X10363D01*
Y7889D01*
X10353D01*
Y7894D01*
X10348D01*
Y7899D01*
X10343D01*
Y7904D01*
X10334D01*
Y7908D01*
X10324D01*
Y7913D01*
D02*
G37*
G36*
X11130Y7720D02*
X11120D01*
Y7715D01*
X11106D01*
Y7711D01*
X11101D01*
Y7706D01*
X11096D01*
Y7701D01*
X11086D01*
Y7696D01*
X11082D01*
Y7691D01*
X11077D01*
Y7686D01*
X11067D01*
Y7682D01*
X11062D01*
Y7677D01*
X11053D01*
Y7672D01*
X11048D01*
Y7667D01*
X11038D01*
Y7662D01*
X11033D01*
Y7658D01*
X11029D01*
Y7653D01*
X11024D01*
Y7648D01*
X11014D01*
Y7643D01*
X11009D01*
Y7638D01*
X11004D01*
Y7633D01*
X11000D01*
Y7629D01*
X10990D01*
Y7624D01*
X10985D01*
Y7619D01*
X10975D01*
Y7614D01*
X10971D01*
Y7609D01*
X10961D01*
Y7604D01*
X10956D01*
Y7600D01*
X10951D01*
Y7595D01*
X10947D01*
Y7590D01*
X10937D01*
Y7585D01*
X10932D01*
Y7580D01*
X10927D01*
Y7576D01*
X10922D01*
Y7571D01*
Y7566D01*
Y7561D01*
Y7556D01*
Y7551D01*
X10927D01*
Y7547D01*
X10932D01*
Y7542D01*
X10942D01*
Y7537D01*
X10947D01*
Y7532D01*
X10951D01*
Y7527D01*
X10961D01*
Y7522D01*
X10966D01*
Y7518D01*
X10975D01*
Y7513D01*
X10980D01*
Y7508D01*
X10985D01*
Y7503D01*
X10995D01*
Y7498D01*
X11000D01*
Y7494D01*
X11004D01*
Y7489D01*
X11014D01*
Y7484D01*
X11019D01*
Y7479D01*
X11024D01*
Y7474D01*
X11033D01*
Y7469D01*
X11038D01*
Y7465D01*
X11048D01*
Y7460D01*
X11053D01*
Y7455D01*
X11057D01*
Y7450D01*
X11067D01*
Y7445D01*
X11072D01*
Y7440D01*
X11082D01*
Y7436D01*
X11086D01*
Y7431D01*
X11091D01*
Y7426D01*
X11101D01*
Y7421D01*
X11106D01*
Y7416D01*
X11115D01*
Y7411D01*
X11135D01*
Y7416D01*
X11144D01*
Y7421D01*
X11149D01*
Y7426D01*
X11159D01*
Y7431D01*
X11164D01*
Y7436D01*
X11168D01*
Y7440D01*
X11173D01*
Y7445D01*
X11183D01*
Y7450D01*
X11188D01*
Y7455D01*
X11193D01*
Y7460D01*
X11202D01*
Y7465D01*
X11207D01*
Y7469D01*
X11217D01*
Y7474D01*
X11222D01*
Y7479D01*
X11231D01*
Y7484D01*
X11236D01*
Y7489D01*
X11241D01*
Y7494D01*
X11250D01*
Y7498D01*
X11255D01*
Y7503D01*
X11260D01*
Y7508D01*
X11270D01*
Y7513D01*
X11275D01*
Y7518D01*
X11284D01*
Y7522D01*
X11289D01*
Y7527D01*
X11299D01*
Y7532D01*
X11304D01*
Y7537D01*
X11313D01*
Y7542D01*
X11318D01*
Y7547D01*
X11323D01*
Y7551D01*
X11328D01*
Y7556D01*
X11333D01*
Y7561D01*
Y7566D01*
Y7571D01*
X11328D01*
Y7576D01*
X11323D01*
Y7580D01*
X11318D01*
Y7585D01*
X11313D01*
Y7590D01*
X11308D01*
Y7595D01*
X11304D01*
Y7600D01*
X11299D01*
Y7604D01*
X11289D01*
Y7609D01*
X11284D01*
Y7614D01*
X11279D01*
Y7619D01*
X11270D01*
Y7624D01*
X11265D01*
Y7629D01*
X11255D01*
Y7633D01*
X11246D01*
Y7638D01*
X11236D01*
Y7643D01*
X11231D01*
Y7648D01*
X11226D01*
Y7653D01*
X11222D01*
Y7658D01*
X11212D01*
Y7662D01*
X11207D01*
Y7667D01*
X11202D01*
Y7672D01*
X11197D01*
Y7677D01*
X11188D01*
Y7682D01*
X11183D01*
Y7686D01*
X11173D01*
Y7691D01*
X11168D01*
Y7696D01*
X11159D01*
Y7701D01*
X11154D01*
Y7706D01*
X11144D01*
Y7711D01*
X11140D01*
Y7715D01*
X11130D01*
Y7720D01*
D02*
G37*
G36*
X10589D02*
X10580D01*
Y7715D01*
X10570D01*
Y7711D01*
X10560D01*
Y7706D01*
X10556D01*
Y7701D01*
X10551D01*
Y7696D01*
X10541D01*
Y7691D01*
X10536D01*
Y7686D01*
X10527D01*
Y7682D01*
X10522D01*
Y7677D01*
X10517D01*
Y7672D01*
X10507D01*
Y7667D01*
X10503D01*
Y7662D01*
X10493D01*
Y7658D01*
X10488D01*
Y7653D01*
X10483D01*
Y7648D01*
X10478D01*
Y7643D01*
X10469D01*
Y7638D01*
X10464D01*
Y7633D01*
X10454D01*
Y7629D01*
X10450D01*
Y7624D01*
X10440D01*
Y7619D01*
X10435D01*
Y7614D01*
X10430D01*
Y7609D01*
X10421D01*
Y7604D01*
X10416D01*
Y7600D01*
X10411D01*
Y7595D01*
X10401D01*
Y7590D01*
X10396D01*
Y7585D01*
X10392D01*
Y7580D01*
X10387D01*
Y7576D01*
X10382D01*
Y7571D01*
X10377D01*
Y7566D01*
Y7561D01*
Y7556D01*
X10382D01*
Y7551D01*
X10387D01*
Y7547D01*
X10392D01*
Y7542D01*
X10396D01*
Y7537D01*
X10406D01*
Y7532D01*
X10411D01*
Y7527D01*
X10421D01*
Y7522D01*
X10425D01*
Y7518D01*
X10430D01*
Y7513D01*
X10440D01*
Y7508D01*
X10445D01*
Y7503D01*
X10454D01*
Y7498D01*
X10459D01*
Y7494D01*
X10464D01*
Y7489D01*
X10474D01*
Y7484D01*
X10478D01*
Y7479D01*
X10483D01*
Y7474D01*
X10493D01*
Y7469D01*
X10498D01*
Y7465D01*
X10507D01*
Y7460D01*
X10512D01*
Y7455D01*
X10517D01*
Y7450D01*
X10527D01*
Y7445D01*
X10532D01*
Y7440D01*
X10536D01*
Y7436D01*
X10546D01*
Y7431D01*
X10551D01*
Y7426D01*
X10560D01*
Y7421D01*
X10565D01*
Y7416D01*
X10575D01*
Y7411D01*
X10594D01*
Y7416D01*
X10604D01*
Y7421D01*
X10609D01*
Y7426D01*
X10614D01*
Y7431D01*
X10623D01*
Y7436D01*
X10628D01*
Y7440D01*
X10633D01*
Y7445D01*
X10638D01*
Y7450D01*
X10647D01*
Y7455D01*
X10652D01*
Y7460D01*
X10662D01*
Y7465D01*
X10667D01*
Y7469D01*
X10676D01*
Y7474D01*
X10681D01*
Y7479D01*
X10691D01*
Y7484D01*
X10696D01*
Y7489D01*
X10705D01*
Y7494D01*
X10710D01*
Y7498D01*
X10715D01*
Y7503D01*
X10725D01*
Y7508D01*
X10729D01*
Y7513D01*
X10734D01*
Y7518D01*
X10744D01*
Y7522D01*
X10749D01*
Y7527D01*
X10758D01*
Y7532D01*
X10763D01*
Y7537D01*
X10768D01*
Y7542D01*
X10778D01*
Y7547D01*
X10782D01*
Y7551D01*
Y7556D01*
X10787D01*
Y7561D01*
Y7566D01*
Y7571D01*
X10782D01*
Y7576D01*
X10778D01*
Y7580D01*
X10773D01*
Y7585D01*
X10768D01*
Y7590D01*
X10763D01*
Y7595D01*
X10758D01*
Y7600D01*
X10754D01*
Y7604D01*
X10749D01*
Y7609D01*
X10739D01*
Y7614D01*
X10734D01*
Y7619D01*
X10725D01*
Y7624D01*
X10720D01*
Y7629D01*
X10710D01*
Y7633D01*
X10705D01*
Y7638D01*
X10700D01*
Y7643D01*
X10691D01*
Y7648D01*
X10686D01*
Y7653D01*
X10681D01*
Y7658D01*
X10671D01*
Y7662D01*
X10667D01*
Y7667D01*
X10662D01*
Y7672D01*
X10652D01*
Y7677D01*
X10647D01*
Y7682D01*
X10643D01*
Y7686D01*
X10633D01*
Y7691D01*
X10628D01*
Y7696D01*
X10623D01*
Y7701D01*
X10614D01*
Y7706D01*
X10609D01*
Y7711D01*
X10599D01*
Y7715D01*
X10589D01*
Y7720D01*
D02*
G37*
G36*
X10860Y7522D02*
X10850D01*
Y7518D01*
X10836D01*
Y7513D01*
X10831D01*
Y7508D01*
X10826D01*
Y7503D01*
X10816D01*
Y7498D01*
X10811D01*
Y7494D01*
X10802D01*
Y7489D01*
X10797D01*
Y7484D01*
X10792D01*
Y7479D01*
X10782D01*
Y7474D01*
X10778D01*
Y7469D01*
X10773D01*
Y7465D01*
X10763D01*
Y7460D01*
X10758D01*
Y7455D01*
X10749D01*
Y7450D01*
X10744D01*
Y7445D01*
X10734D01*
Y7440D01*
X10729D01*
Y7436D01*
X10725D01*
Y7431D01*
X10715D01*
Y7426D01*
X10710D01*
Y7421D01*
X10705D01*
Y7416D01*
X10696D01*
Y7411D01*
X10691D01*
Y7407D01*
X10681D01*
Y7402D01*
X10676D01*
Y7397D01*
X10671D01*
Y7392D01*
X10662D01*
Y7387D01*
X10657D01*
Y7383D01*
X10652D01*
Y7378D01*
Y7373D01*
Y7368D01*
Y7363D01*
Y7358D01*
X10657D01*
Y7354D01*
X10662D01*
Y7349D01*
X10671D01*
Y7344D01*
X10676D01*
Y7339D01*
X10681D01*
Y7334D01*
X10686D01*
Y7329D01*
X10691D01*
Y7325D01*
X10700D01*
Y7320D01*
X10705D01*
Y7315D01*
X10715D01*
Y7310D01*
X10720D01*
Y7305D01*
X10725D01*
Y7301D01*
X10734D01*
Y7296D01*
X10739D01*
Y7291D01*
X10744D01*
Y7286D01*
X10754D01*
Y7281D01*
X10758D01*
Y7276D01*
X10763D01*
Y7272D01*
X10773D01*
Y7267D01*
X10778D01*
Y7262D01*
X10782D01*
Y7257D01*
X10792D01*
Y7252D01*
X10797D01*
Y7247D01*
X10807D01*
Y7243D01*
X10811D01*
Y7238D01*
X10821D01*
Y7233D01*
X10826D01*
Y7228D01*
X10836D01*
Y7223D01*
X10874D01*
Y7228D01*
X10884D01*
Y7233D01*
X10889D01*
Y7238D01*
X10893D01*
Y7243D01*
X10903D01*
Y7247D01*
X10908D01*
Y7252D01*
X10913D01*
Y7257D01*
X10922D01*
Y7262D01*
X10927D01*
Y7267D01*
X10937D01*
Y7272D01*
X10942D01*
Y7276D01*
X10951D01*
Y7281D01*
X10956D01*
Y7286D01*
X10961D01*
Y7291D01*
X10971D01*
Y7296D01*
X10975D01*
Y7301D01*
X10980D01*
Y7305D01*
X10990D01*
Y7310D01*
X10995D01*
Y7315D01*
X11004D01*
Y7320D01*
X11009D01*
Y7325D01*
X11014D01*
Y7329D01*
X11024D01*
Y7334D01*
X11029D01*
Y7339D01*
X11033D01*
Y7344D01*
X11038D01*
Y7349D01*
X11048D01*
Y7354D01*
X11053D01*
Y7358D01*
X11057D01*
Y7363D01*
Y7368D01*
Y7373D01*
Y7378D01*
X11053D01*
Y7383D01*
Y7387D01*
X11048D01*
Y7392D01*
X11038D01*
Y7397D01*
X11033D01*
Y7402D01*
X11029D01*
Y7407D01*
X11019D01*
Y7411D01*
X11014D01*
Y7416D01*
X11004D01*
Y7421D01*
X11000D01*
Y7426D01*
X10990D01*
Y7431D01*
X10985D01*
Y7436D01*
X10980D01*
Y7440D01*
X10971D01*
Y7445D01*
X10966D01*
Y7450D01*
X10956D01*
Y7455D01*
X10951D01*
Y7460D01*
X10947D01*
Y7465D01*
X10937D01*
Y7469D01*
X10932D01*
Y7474D01*
X10922D01*
Y7479D01*
X10918D01*
Y7484D01*
X10913D01*
Y7489D01*
X10903D01*
Y7494D01*
X10898D01*
Y7498D01*
X10889D01*
Y7503D01*
X10884D01*
Y7508D01*
X10879D01*
Y7513D01*
X10869D01*
Y7518D01*
X10860D01*
Y7522D01*
D02*
G37*
G36*
X11405D02*
X11386D01*
Y7518D01*
X11376D01*
Y7513D01*
X11366D01*
Y7508D01*
X11361D01*
Y7503D01*
X11352D01*
Y7498D01*
X11347D01*
Y7494D01*
X11337D01*
Y7489D01*
X11333D01*
Y7484D01*
X11328D01*
Y7479D01*
X11318D01*
Y7474D01*
X11313D01*
Y7469D01*
X11308D01*
Y7465D01*
X11299D01*
Y7460D01*
X11294D01*
Y7455D01*
X11284D01*
Y7450D01*
X11279D01*
Y7445D01*
X11275D01*
Y7440D01*
X11265D01*
Y7436D01*
X11260D01*
Y7431D01*
X11255D01*
Y7426D01*
X11250D01*
Y7421D01*
X11241D01*
Y7416D01*
X11236D01*
Y7411D01*
X11231D01*
Y7407D01*
X11226D01*
Y7402D01*
X11217D01*
Y7397D01*
X11212D01*
Y7392D01*
X11207D01*
Y7387D01*
X11197D01*
Y7383D01*
X11193D01*
Y7378D01*
X11188D01*
Y7373D01*
Y7368D01*
Y7363D01*
X11193D01*
Y7358D01*
X11197D01*
Y7354D01*
X11202D01*
Y7349D01*
X11207D01*
Y7344D01*
X11212D01*
Y7339D01*
X11222D01*
Y7334D01*
X11226D01*
Y7329D01*
X11231D01*
Y7325D01*
X11236D01*
Y7320D01*
X11246D01*
Y7315D01*
X11250D01*
Y7310D01*
X11260D01*
Y7305D01*
X11265D01*
Y7301D01*
X11270D01*
Y7296D01*
X11279D01*
Y7291D01*
X11284D01*
Y7286D01*
X11289D01*
Y7281D01*
X11294D01*
Y7276D01*
X11304D01*
Y7272D01*
X11308D01*
Y7267D01*
X11318D01*
Y7262D01*
X11323D01*
Y7257D01*
X11333D01*
Y7252D01*
X11337D01*
Y7247D01*
X11342D01*
Y7243D01*
X11352D01*
Y7238D01*
X11357D01*
Y7233D01*
X11361D01*
Y7228D01*
X11371D01*
Y7223D01*
X11376D01*
Y7218D01*
X11395D01*
Y7223D01*
Y7228D01*
Y7233D01*
X11400D01*
Y7238D01*
Y7243D01*
Y7247D01*
Y7252D01*
Y7257D01*
X11405D01*
Y7262D01*
Y7267D01*
Y7272D01*
Y7276D01*
X11410D01*
Y7281D01*
Y7286D01*
Y7291D01*
Y7296D01*
Y7301D01*
X11415D01*
Y7305D01*
Y7310D01*
Y7315D01*
Y7320D01*
Y7325D01*
X11419D01*
Y7329D01*
Y7334D01*
Y7339D01*
Y7344D01*
Y7349D01*
Y7354D01*
Y7358D01*
X11424D01*
Y7363D01*
Y7368D01*
Y7373D01*
Y7378D01*
Y7383D01*
Y7387D01*
Y7392D01*
Y7397D01*
Y7402D01*
Y7407D01*
Y7411D01*
Y7416D01*
Y7421D01*
Y7426D01*
Y7431D01*
Y7436D01*
Y7440D01*
Y7445D01*
Y7450D01*
Y7455D01*
Y7460D01*
Y7465D01*
Y7469D01*
Y7474D01*
Y7479D01*
Y7484D01*
Y7489D01*
Y7494D01*
Y7498D01*
Y7503D01*
Y7508D01*
X11419D01*
Y7513D01*
X11415D01*
Y7518D01*
X11405D01*
Y7522D01*
D02*
G37*
G36*
X10324D02*
X10305D01*
Y7518D01*
X10295D01*
Y7513D01*
X10290D01*
Y7508D01*
X10281D01*
Y7503D01*
X10276D01*
Y7498D01*
X10271D01*
Y7494D01*
Y7489D01*
Y7484D01*
Y7479D01*
Y7474D01*
Y7469D01*
Y7465D01*
Y7460D01*
Y7455D01*
Y7450D01*
Y7445D01*
Y7440D01*
Y7436D01*
Y7431D01*
Y7426D01*
Y7421D01*
Y7416D01*
Y7411D01*
Y7407D01*
Y7402D01*
Y7397D01*
Y7392D01*
Y7387D01*
Y7383D01*
Y7378D01*
Y7373D01*
Y7368D01*
Y7363D01*
Y7358D01*
Y7354D01*
Y7349D01*
Y7344D01*
X10276D01*
Y7339D01*
Y7334D01*
Y7329D01*
Y7325D01*
Y7320D01*
Y7315D01*
Y7310D01*
Y7305D01*
Y7301D01*
Y7296D01*
Y7291D01*
X10281D01*
Y7286D01*
Y7281D01*
Y7276D01*
Y7272D01*
Y7267D01*
Y7262D01*
Y7257D01*
Y7252D01*
Y7247D01*
Y7243D01*
X10285D01*
Y7238D01*
Y7233D01*
Y7228D01*
X10290D01*
Y7223D01*
X10300D01*
Y7218D01*
X10310D01*
Y7214D01*
X10324D01*
Y7218D01*
X10334D01*
Y7223D01*
X10339D01*
Y7228D01*
X10343D01*
Y7233D01*
X10353D01*
Y7238D01*
X10358D01*
Y7243D01*
X10363D01*
Y7247D01*
X10367D01*
Y7252D01*
X10377D01*
Y7257D01*
X10382D01*
Y7262D01*
X10392D01*
Y7267D01*
X10396D01*
Y7272D01*
X10401D01*
Y7276D01*
X10411D01*
Y7281D01*
X10416D01*
Y7286D01*
X10421D01*
Y7291D01*
X10430D01*
Y7296D01*
X10435D01*
Y7301D01*
X10445D01*
Y7305D01*
X10450D01*
Y7310D01*
X10454D01*
Y7315D01*
X10464D01*
Y7320D01*
X10469D01*
Y7325D01*
X10478D01*
Y7329D01*
X10483D01*
Y7334D01*
X10488D01*
Y7339D01*
X10498D01*
Y7344D01*
X10503D01*
Y7349D01*
X10507D01*
Y7354D01*
X10512D01*
Y7358D01*
X10517D01*
Y7363D01*
X10522D01*
Y7368D01*
Y7373D01*
X10517D01*
Y7378D01*
Y7383D01*
X10512D01*
Y7387D01*
X10507D01*
Y7392D01*
X10498D01*
Y7397D01*
X10493D01*
Y7402D01*
X10483D01*
Y7407D01*
X10478D01*
Y7411D01*
X10474D01*
Y7416D01*
X10464D01*
Y7421D01*
X10459D01*
Y7426D01*
X10454D01*
Y7431D01*
X10450D01*
Y7436D01*
X10440D01*
Y7440D01*
X10435D01*
Y7445D01*
X10430D01*
Y7450D01*
X10421D01*
Y7455D01*
X10416D01*
Y7460D01*
X10411D01*
Y7465D01*
X10401D01*
Y7469D01*
X10396D01*
Y7474D01*
X10392D01*
Y7479D01*
X10382D01*
Y7484D01*
X10377D01*
Y7489D01*
X10367D01*
Y7494D01*
X10363D01*
Y7498D01*
X10358D01*
Y7503D01*
X10348D01*
Y7508D01*
X10343D01*
Y7513D01*
X10334D01*
Y7518D01*
X10324D01*
Y7522D01*
D02*
G37*
G36*
X11135Y7325D02*
X11111D01*
Y7320D01*
X11101D01*
Y7315D01*
X11096D01*
Y7310D01*
X11086D01*
Y7305D01*
X11082D01*
Y7301D01*
X11077D01*
Y7296D01*
X11072D01*
Y7291D01*
X11062D01*
Y7286D01*
X11057D01*
Y7281D01*
X11053D01*
Y7276D01*
X11043D01*
Y7272D01*
X11038D01*
Y7267D01*
X11029D01*
Y7262D01*
X11024D01*
Y7257D01*
X11019D01*
Y7252D01*
X11009D01*
Y7247D01*
X11004D01*
Y7243D01*
X10995D01*
Y7238D01*
X10990D01*
Y7233D01*
X10985D01*
Y7228D01*
X10975D01*
Y7223D01*
X10971D01*
Y7218D01*
X10961D01*
Y7214D01*
X10956D01*
Y7209D01*
X10951D01*
Y7204D01*
X10942D01*
Y7199D01*
X10937D01*
Y7194D01*
X10932D01*
Y7190D01*
X10927D01*
Y7185D01*
X10922D01*
Y7180D01*
X10918D01*
Y7175D01*
Y7170D01*
Y7165D01*
X10922D01*
Y7161D01*
X10927D01*
Y7156D01*
X10932D01*
Y7151D01*
X10937D01*
Y7146D01*
X10947D01*
Y7141D01*
X10951D01*
Y7136D01*
X10956D01*
Y7132D01*
X10966D01*
Y7127D01*
X10971D01*
Y7122D01*
X10975D01*
Y7117D01*
X10985D01*
Y7112D01*
X10990D01*
Y7107D01*
X11000D01*
Y7103D01*
X11004D01*
Y7098D01*
X11014D01*
Y7093D01*
X11019D01*
Y7088D01*
X11024D01*
Y7083D01*
X11033D01*
Y7079D01*
X11038D01*
Y7074D01*
X11043D01*
Y7069D01*
X11053D01*
Y7064D01*
X11057D01*
Y7059D01*
X11067D01*
Y7054D01*
X11072D01*
Y7050D01*
X11082D01*
Y7045D01*
X11086D01*
Y7040D01*
X11091D01*
Y7035D01*
X11101D01*
Y7030D01*
X11106D01*
Y7025D01*
X11115D01*
Y7021D01*
X11130D01*
Y7025D01*
X11140D01*
Y7030D01*
X11149D01*
Y7035D01*
X11154D01*
Y7040D01*
X11159D01*
Y7045D01*
X11168D01*
Y7050D01*
X11173D01*
Y7054D01*
X11183D01*
Y7059D01*
X11188D01*
Y7064D01*
X11193D01*
Y7069D01*
X11202D01*
Y7074D01*
X11207D01*
Y7079D01*
X11212D01*
Y7083D01*
X11222D01*
Y7088D01*
X11226D01*
Y7093D01*
X11231D01*
Y7098D01*
X11241D01*
Y7103D01*
X11246D01*
Y7107D01*
X11255D01*
Y7112D01*
X11260D01*
Y7117D01*
X11270D01*
Y7122D01*
X11275D01*
Y7127D01*
X11279D01*
Y7132D01*
X11289D01*
Y7136D01*
X11294D01*
Y7141D01*
X11299D01*
Y7146D01*
X11308D01*
Y7151D01*
X11318D01*
Y7156D01*
X11323D01*
Y7161D01*
X11328D01*
Y7165D01*
X11333D01*
Y7170D01*
Y7175D01*
X11328D01*
Y7180D01*
Y7185D01*
X11323D01*
Y7190D01*
X11318D01*
Y7194D01*
X11313D01*
Y7199D01*
X11308D01*
Y7204D01*
X11304D01*
Y7209D01*
X11294D01*
Y7214D01*
X11289D01*
Y7218D01*
X11284D01*
Y7223D01*
X11275D01*
Y7228D01*
X11270D01*
Y7233D01*
X11265D01*
Y7238D01*
X11255D01*
Y7243D01*
X11250D01*
Y7247D01*
X11241D01*
Y7252D01*
X11236D01*
Y7257D01*
X11226D01*
Y7262D01*
X11222D01*
Y7267D01*
X11212D01*
Y7272D01*
X11207D01*
Y7276D01*
X11197D01*
Y7281D01*
X11193D01*
Y7286D01*
X11188D01*
Y7291D01*
X11178D01*
Y7296D01*
X11173D01*
Y7301D01*
X11164D01*
Y7305D01*
X11159D01*
Y7310D01*
X11154D01*
Y7315D01*
X11144D01*
Y7320D01*
X11135D01*
Y7325D01*
D02*
G37*
G36*
X10599D02*
X10570D01*
Y7320D01*
X10560D01*
Y7315D01*
X10556D01*
Y7310D01*
X10551D01*
Y7305D01*
X10541D01*
Y7301D01*
X10536D01*
Y7296D01*
X10527D01*
Y7291D01*
X10522D01*
Y7286D01*
X10517D01*
Y7281D01*
X10507D01*
Y7276D01*
X10503D01*
Y7272D01*
X10498D01*
Y7267D01*
X10488D01*
Y7262D01*
X10483D01*
Y7257D01*
X10474D01*
Y7252D01*
X10469D01*
Y7247D01*
X10459D01*
Y7243D01*
X10454D01*
Y7238D01*
X10445D01*
Y7233D01*
X10440D01*
Y7228D01*
X10435D01*
Y7223D01*
X10425D01*
Y7218D01*
X10421D01*
Y7214D01*
X10411D01*
Y7209D01*
X10406D01*
Y7204D01*
X10401D01*
Y7199D01*
X10396D01*
Y7194D01*
X10392D01*
Y7190D01*
X10387D01*
Y7185D01*
X10382D01*
Y7180D01*
X10377D01*
Y7175D01*
Y7170D01*
Y7165D01*
X10382D01*
Y7161D01*
X10387D01*
Y7156D01*
X10392D01*
Y7151D01*
X10401D01*
Y7146D01*
X10406D01*
Y7141D01*
X10416D01*
Y7136D01*
X10421D01*
Y7132D01*
X10425D01*
Y7127D01*
X10435D01*
Y7122D01*
X10440D01*
Y7117D01*
X10450D01*
Y7112D01*
X10454D01*
Y7107D01*
X10459D01*
Y7103D01*
X10469D01*
Y7098D01*
X10474D01*
Y7093D01*
X10478D01*
Y7088D01*
X10488D01*
Y7083D01*
X10493D01*
Y7079D01*
X10503D01*
Y7074D01*
X10507D01*
Y7069D01*
X10512D01*
Y7064D01*
X10522D01*
Y7059D01*
X10527D01*
Y7054D01*
X10536D01*
Y7050D01*
X10541D01*
Y7045D01*
X10546D01*
Y7040D01*
X10556D01*
Y7035D01*
X10560D01*
Y7030D01*
X10565D01*
Y7025D01*
X10575D01*
Y7021D01*
X10589D01*
Y7025D01*
X10599D01*
Y7030D01*
X10609D01*
Y7035D01*
X10614D01*
Y7040D01*
X10623D01*
Y7045D01*
X10633D01*
Y7050D01*
X10638D01*
Y7054D01*
X10647D01*
Y7059D01*
X10652D01*
Y7064D01*
X10657D01*
Y7069D01*
X10667D01*
Y7074D01*
X10671D01*
Y7079D01*
X10676D01*
Y7083D01*
X10686D01*
Y7088D01*
X10691D01*
Y7093D01*
X10696D01*
Y7098D01*
X10705D01*
Y7103D01*
X10710D01*
Y7107D01*
X10715D01*
Y7112D01*
X10725D01*
Y7117D01*
X10729D01*
Y7122D01*
X10734D01*
Y7127D01*
X10744D01*
Y7132D01*
X10749D01*
Y7136D01*
X10758D01*
Y7141D01*
X10763D01*
Y7146D01*
X10773D01*
Y7151D01*
X10778D01*
Y7156D01*
X10782D01*
Y7161D01*
X10787D01*
Y7165D01*
Y7170D01*
X10792D01*
Y7175D01*
Y7180D01*
X10787D01*
Y7185D01*
X10782D01*
Y7190D01*
X10778D01*
Y7194D01*
X10773D01*
Y7199D01*
X10768D01*
Y7204D01*
X10758D01*
Y7209D01*
X10754D01*
Y7214D01*
X10749D01*
Y7218D01*
X10739D01*
Y7223D01*
X10734D01*
Y7228D01*
X10725D01*
Y7233D01*
X10720D01*
Y7238D01*
X10715D01*
Y7243D01*
X10705D01*
Y7247D01*
X10700D01*
Y7252D01*
X10691D01*
Y7257D01*
X10686D01*
Y7262D01*
X10681D01*
Y7267D01*
X10671D01*
Y7272D01*
X10667D01*
Y7276D01*
X10662D01*
Y7281D01*
X10652D01*
Y7286D01*
X10647D01*
Y7291D01*
X10643D01*
Y7296D01*
X10633D01*
Y7301D01*
X10628D01*
Y7305D01*
X10623D01*
Y7310D01*
X10614D01*
Y7315D01*
X10609D01*
Y7320D01*
X10599D01*
Y7325D01*
D02*
G37*
G36*
X11357Y7107D02*
X11347D01*
Y7103D01*
X11337D01*
Y7098D01*
X11333D01*
Y7093D01*
X11323D01*
Y7088D01*
X11318D01*
Y7083D01*
X11308D01*
Y7079D01*
X11304D01*
Y7074D01*
X11299D01*
Y7069D01*
X11289D01*
Y7064D01*
X11284D01*
Y7059D01*
X11279D01*
Y7054D01*
X11270D01*
Y7050D01*
X11265D01*
Y7045D01*
X11260D01*
Y7040D01*
X11255D01*
Y7035D01*
X11246D01*
Y7030D01*
X11241D01*
Y7025D01*
X11236D01*
Y7021D01*
X11231D01*
Y7016D01*
X11222D01*
Y7011D01*
X11217D01*
Y7006D01*
X11212D01*
Y7001D01*
X11202D01*
Y6997D01*
X11197D01*
Y6992D01*
X11188D01*
Y6987D01*
Y6982D01*
Y6977D01*
Y6972D01*
Y6968D01*
X11193D01*
Y6963D01*
X11197D01*
Y6958D01*
X11207D01*
Y6953D01*
X11212D01*
Y6948D01*
X11222D01*
Y6943D01*
X11226D01*
Y6939D01*
X11231D01*
Y6934D01*
X11241D01*
Y6939D01*
X11246D01*
Y6943D01*
X11250D01*
Y6948D01*
X11255D01*
Y6953D01*
X11260D01*
Y6958D01*
X11265D01*
Y6963D01*
X11270D01*
Y6968D01*
X11275D01*
Y6972D01*
X11279D01*
Y6977D01*
X11284D01*
Y6982D01*
X11289D01*
Y6987D01*
X11294D01*
Y6992D01*
Y6997D01*
X11299D01*
Y7001D01*
X11304D01*
Y7006D01*
X11308D01*
Y7011D01*
Y7016D01*
X11313D01*
Y7021D01*
X11318D01*
Y7025D01*
Y7030D01*
X11323D01*
Y7035D01*
X11328D01*
Y7040D01*
Y7045D01*
X11333D01*
Y7050D01*
Y7054D01*
X11337D01*
Y7059D01*
Y7064D01*
X11342D01*
Y7069D01*
Y7074D01*
X11347D01*
Y7079D01*
Y7083D01*
Y7088D01*
X11352D01*
Y7093D01*
Y7098D01*
X11357D01*
Y7103D01*
Y7107D01*
D02*
G37*
G36*
X10339Y7127D02*
X10324D01*
Y7122D01*
Y7117D01*
X10329D01*
Y7112D01*
Y7107D01*
X10334D01*
Y7103D01*
Y7098D01*
X10339D01*
Y7093D01*
Y7088D01*
X10343D01*
Y7083D01*
Y7079D01*
X10348D01*
Y7074D01*
Y7069D01*
X10353D01*
Y7064D01*
X10358D01*
Y7059D01*
Y7054D01*
X10363D01*
Y7050D01*
Y7045D01*
X10367D01*
Y7040D01*
Y7035D01*
X10372D01*
Y7030D01*
X10377D01*
Y7025D01*
Y7021D01*
X10382D01*
Y7016D01*
Y7011D01*
X10387D01*
Y7006D01*
X10392D01*
Y7001D01*
X10396D01*
Y6997D01*
X10401D01*
Y6992D01*
X10406D01*
Y6987D01*
X10411D01*
Y6982D01*
X10416D01*
Y6977D01*
X10421D01*
Y6972D01*
X10425D01*
Y6968D01*
X10430D01*
Y6963D01*
X10435D01*
Y6958D01*
X10440D01*
Y6953D01*
X10445D01*
Y6948D01*
X10450D01*
Y6943D01*
X10454D01*
Y6939D01*
X10464D01*
Y6934D01*
X10474D01*
Y6939D01*
X10483D01*
Y6943D01*
X10488D01*
Y6948D01*
X10498D01*
Y6953D01*
X10503D01*
Y6958D01*
X10512D01*
Y6963D01*
X10517D01*
Y6968D01*
X10522D01*
Y6972D01*
Y6977D01*
Y6982D01*
Y6987D01*
X10517D01*
Y6992D01*
X10512D01*
Y6997D01*
X10507D01*
Y7001D01*
X10498D01*
Y7006D01*
X10493D01*
Y7011D01*
X10483D01*
Y7016D01*
X10478D01*
Y7021D01*
X10474D01*
Y7025D01*
X10469D01*
Y7030D01*
X10459D01*
Y7035D01*
X10454D01*
Y7040D01*
X10450D01*
Y7045D01*
X10440D01*
Y7050D01*
X10435D01*
Y7054D01*
X10430D01*
Y7059D01*
X10421D01*
Y7064D01*
X10416D01*
Y7069D01*
X10411D01*
Y7074D01*
X10401D01*
Y7079D01*
X10396D01*
Y7083D01*
X10392D01*
Y7088D01*
X10382D01*
Y7093D01*
X10377D01*
Y7098D01*
X10372D01*
Y7103D01*
X10363D01*
Y7107D01*
X10358D01*
Y7112D01*
X10348D01*
Y7117D01*
X10343D01*
Y7122D01*
X10339D01*
Y7127D01*
D02*
G37*
G36*
X10864Y7132D02*
X10845D01*
Y7127D01*
X10836D01*
Y7122D01*
X10831D01*
Y7117D01*
X10821D01*
Y7112D01*
X10816D01*
Y7107D01*
X10807D01*
Y7103D01*
X10802D01*
Y7098D01*
X10797D01*
Y7093D01*
X10787D01*
Y7088D01*
X10782D01*
Y7083D01*
X10778D01*
Y7079D01*
X10768D01*
Y7074D01*
X10758D01*
Y7069D01*
X10754D01*
Y7064D01*
X10749D01*
Y7059D01*
X10739D01*
Y7054D01*
X10734D01*
Y7050D01*
X10725D01*
Y7045D01*
X10720D01*
Y7040D01*
X10715D01*
Y7035D01*
X10705D01*
Y7030D01*
X10700D01*
Y7025D01*
X10696D01*
Y7021D01*
X10686D01*
Y7016D01*
X10681D01*
Y7011D01*
X10671D01*
Y7006D01*
X10662D01*
Y7001D01*
X10657D01*
Y6997D01*
X10652D01*
Y6992D01*
X10647D01*
Y6987D01*
Y6982D01*
Y6977D01*
X10652D01*
Y6972D01*
Y6968D01*
X10657D01*
Y6963D01*
X10662D01*
Y6958D01*
X10667D01*
Y6953D01*
X10676D01*
Y6948D01*
X10681D01*
Y6943D01*
X10691D01*
Y6939D01*
X10696D01*
Y6934D01*
X10700D01*
Y6929D01*
X10710D01*
Y6924D01*
X10715D01*
Y6919D01*
X10720D01*
Y6914D01*
X10729D01*
Y6910D01*
X10734D01*
Y6905D01*
X10739D01*
Y6900D01*
X10749D01*
Y6895D01*
X10754D01*
Y6890D01*
X10763D01*
Y6886D01*
X10768D01*
Y6881D01*
X10773D01*
Y6876D01*
X10782D01*
Y6871D01*
X10787D01*
Y6866D01*
X10792D01*
Y6861D01*
X10802D01*
Y6857D01*
X10807D01*
Y6852D01*
X10816D01*
Y6847D01*
X10821D01*
Y6842D01*
X10831D01*
Y6837D01*
X10840D01*
Y6832D01*
X10869D01*
Y6837D01*
X10879D01*
Y6842D01*
X10889D01*
Y6847D01*
X10893D01*
Y6852D01*
X10903D01*
Y6857D01*
X10908D01*
Y6861D01*
X10918D01*
Y6866D01*
X10922D01*
Y6871D01*
X10927D01*
Y6876D01*
X10937D01*
Y6881D01*
X10942D01*
Y6886D01*
X10947D01*
Y6890D01*
X10956D01*
Y6895D01*
X10961D01*
Y6900D01*
X10971D01*
Y6905D01*
X10975D01*
Y6910D01*
X10980D01*
Y6914D01*
X10990D01*
Y6919D01*
X10995D01*
Y6924D01*
X11000D01*
Y6929D01*
X11009D01*
Y6934D01*
X11014D01*
Y6939D01*
X11019D01*
Y6943D01*
X11029D01*
Y6948D01*
X11033D01*
Y6953D01*
X11038D01*
Y6958D01*
X11048D01*
Y6963D01*
X11053D01*
Y6968D01*
X11057D01*
Y6972D01*
Y6977D01*
X11062D01*
Y6982D01*
Y6987D01*
X11057D01*
Y6992D01*
X11053D01*
Y6997D01*
X11043D01*
Y7001D01*
X11038D01*
Y7006D01*
X11033D01*
Y7011D01*
X11024D01*
Y7016D01*
X11019D01*
Y7021D01*
X11014D01*
Y7025D01*
X11009D01*
Y7030D01*
X11000D01*
Y7035D01*
X10995D01*
Y7040D01*
X10985D01*
Y7045D01*
X10980D01*
Y7050D01*
X10975D01*
Y7054D01*
X10966D01*
Y7059D01*
X10961D01*
Y7064D01*
X10956D01*
Y7069D01*
X10947D01*
Y7074D01*
X10942D01*
Y7079D01*
X10932D01*
Y7083D01*
X10927D01*
Y7088D01*
X10922D01*
Y7093D01*
X10913D01*
Y7098D01*
X10908D01*
Y7103D01*
X10903D01*
Y7107D01*
X10893D01*
Y7112D01*
X10889D01*
Y7117D01*
X10879D01*
Y7122D01*
X10874D01*
Y7127D01*
X10864D01*
Y7132D01*
D02*
G37*
G36*
X11135Y6939D02*
X11115D01*
Y6934D01*
X11106D01*
Y6929D01*
X11096D01*
Y6924D01*
X11091D01*
Y6919D01*
X11086D01*
Y6914D01*
X11077D01*
Y6910D01*
X11072D01*
Y6905D01*
X11067D01*
Y6900D01*
X11057D01*
Y6895D01*
X11053D01*
Y6890D01*
X11043D01*
Y6886D01*
X11038D01*
Y6881D01*
X11033D01*
Y6876D01*
X11024D01*
Y6871D01*
X11019D01*
Y6866D01*
X11014D01*
Y6861D01*
X11004D01*
Y6857D01*
X11000D01*
Y6852D01*
X10995D01*
Y6847D01*
X10985D01*
Y6842D01*
X10980D01*
Y6837D01*
X10975D01*
Y6832D01*
X10966D01*
Y6828D01*
Y6823D01*
Y6818D01*
X10971D01*
Y6823D01*
X11004D01*
Y6828D01*
X11029D01*
Y6832D01*
X11048D01*
Y6837D01*
X11062D01*
Y6842D01*
X11077D01*
Y6847D01*
X11096D01*
Y6852D01*
X11106D01*
Y6857D01*
X11120D01*
Y6861D01*
X11135D01*
Y6866D01*
X11144D01*
Y6871D01*
X11154D01*
Y6876D01*
X11168D01*
Y6881D01*
X11178D01*
Y6886D01*
X11188D01*
Y6890D01*
X11193D01*
Y6895D01*
X11188D01*
Y6900D01*
X11183D01*
Y6905D01*
X11178D01*
Y6910D01*
X11168D01*
Y6914D01*
X11164D01*
Y6919D01*
X11159D01*
Y6924D01*
X11149D01*
Y6929D01*
X11144D01*
Y6934D01*
X11135D01*
Y6939D01*
D02*
G37*
G36*
X10594D02*
X10575D01*
Y6934D01*
X10565D01*
Y6929D01*
X10560D01*
Y6924D01*
X10551D01*
Y6919D01*
X10546D01*
Y6914D01*
X10541D01*
Y6910D01*
X10532D01*
Y6905D01*
X10527D01*
Y6900D01*
X10522D01*
Y6895D01*
Y6890D01*
X10527D01*
Y6886D01*
X10536D01*
Y6881D01*
X10541D01*
Y6876D01*
X10551D01*
Y6871D01*
X10560D01*
Y6866D01*
X10570D01*
Y6861D01*
X10580D01*
Y6857D01*
X10589D01*
Y6852D01*
X10599D01*
Y6847D01*
X10609D01*
Y6842D01*
X10623D01*
Y6837D01*
X10638D01*
Y6832D01*
X10657D01*
Y6828D01*
X10676D01*
Y6823D01*
X10696D01*
Y6818D01*
X10720D01*
Y6813D01*
X10754D01*
Y6818D01*
Y6823D01*
X10749D01*
Y6828D01*
X10739D01*
Y6832D01*
X10734D01*
Y6837D01*
X10729D01*
Y6842D01*
X10720D01*
Y6847D01*
X10715D01*
Y6852D01*
X10710D01*
Y6857D01*
X10700D01*
Y6861D01*
X10696D01*
Y6866D01*
X10686D01*
Y6871D01*
X10681D01*
Y6876D01*
X10676D01*
Y6881D01*
X10667D01*
Y6886D01*
X10662D01*
Y6890D01*
X10657D01*
Y6895D01*
X10647D01*
Y6900D01*
X10643D01*
Y6905D01*
X10633D01*
Y6910D01*
X10628D01*
Y6914D01*
X10623D01*
Y6919D01*
X10614D01*
Y6924D01*
X10609D01*
Y6929D01*
X10604D01*
Y6934D01*
X10594D01*
Y6939D01*
D02*
G37*
%LPD*%
D10*
X9750Y6280D02*
X10008D01*
X9614Y5787D02*
Y6144D01*
X9750Y6280D01*
X10992D02*
X11386D01*
Y5787D02*
Y6280D01*
Y3720D02*
Y4213D01*
X10992Y3720D02*
X11386D01*
X9614D02*
Y4213D01*
Y3720D02*
X10008D01*
X3250Y6280D02*
X3508D01*
X3114Y5787D02*
Y6144D01*
X3250Y6280D01*
X4492D02*
X4886D01*
Y5787D02*
Y6280D01*
Y3720D02*
Y4213D01*
X4492Y3720D02*
X4886D01*
X3114D02*
Y4213D01*
Y3720D02*
X3508D01*
M02*
