G04*
G04 #@! TF.GenerationSoftware,Altium Limited,Altium Designer,18.1.7 (191)*
G04*
G04 Layer_Color=32896*
%FSLAX24Y24*%
%MOIN*%
G70*
G01*
G75*
%ADD21C,0.0100*%
G36*
X6376Y6508D02*
Y6537D01*
X6366D01*
Y6546D01*
X6376D01*
Y6555D01*
X6366D01*
Y6565D01*
X6357D01*
Y6574D01*
X6347D01*
Y6603D01*
X6338D01*
Y6631D01*
X6329D01*
Y6650D01*
X6319D01*
Y6669D01*
X6310D01*
Y6697D01*
X6300D01*
Y6725D01*
X6291D01*
Y6744D01*
X6281D01*
Y6763D01*
X6272D01*
Y6782D01*
X6263D01*
Y6801D01*
X6253D01*
Y6819D01*
X6244D01*
Y6838D01*
X6234D01*
Y6857D01*
X6225D01*
Y6876D01*
X6215D01*
Y6895D01*
X6206D01*
Y6914D01*
X6197D01*
Y6933D01*
X6187D01*
Y6951D01*
X6178D01*
Y6970D01*
X6168D01*
Y6989D01*
X6159D01*
Y6998D01*
X6149D01*
Y7017D01*
X6140D01*
Y7036D01*
X6131D01*
Y7046D01*
X6121D01*
Y7074D01*
X6112D01*
Y7093D01*
X6102D01*
Y7112D01*
X6093D01*
Y7121D01*
X6083D01*
Y7149D01*
X6074D01*
Y7168D01*
X6065D01*
Y7187D01*
X6055D01*
Y7196D01*
X6046D01*
Y7215D01*
X6036D01*
Y7234D01*
X6027D01*
Y7253D01*
X6018D01*
Y7272D01*
X6008D01*
Y7291D01*
X5999D01*
Y7310D01*
X5989D01*
Y7319D01*
X5980D01*
Y7338D01*
X5970D01*
Y7357D01*
X5961D01*
Y7366D01*
X5952D01*
Y7394D01*
X5942D01*
Y7404D01*
X5933D01*
Y7413D01*
X5923D01*
Y7423D01*
X5914D01*
Y7451D01*
X5904D01*
Y7460D01*
X5895D01*
Y7479D01*
X5886D01*
Y7498D01*
X5876D01*
Y7507D01*
X5867D01*
Y7526D01*
X5857D01*
Y7545D01*
X5848D01*
Y7555D01*
X5838D01*
Y7573D01*
X5829D01*
Y7583D01*
X5820D01*
Y7602D01*
X5810D01*
Y7611D01*
X5801D01*
Y7639D01*
X5791D01*
Y7649D01*
X5782D01*
Y7668D01*
X5772D01*
Y7687D01*
X5763D01*
Y7696D01*
X5754D01*
Y7715D01*
X5744D01*
Y7734D01*
X5735D01*
Y7743D01*
X5725D01*
Y7771D01*
X5716D01*
Y7800D01*
X5706D01*
Y7818D01*
X5697D01*
Y7837D01*
X5688D01*
Y7856D01*
X5678D01*
Y7875D01*
X5669D01*
Y7903D01*
X5659D01*
Y7913D01*
X5650D01*
Y7932D01*
X5640D01*
Y7950D01*
X5631D01*
Y7969D01*
X5622D01*
Y7988D01*
X5612D01*
Y8016D01*
X5603D01*
Y8026D01*
X5593D01*
Y8054D01*
X5584D01*
Y8073D01*
X5574D01*
Y8092D01*
X5565D01*
Y8111D01*
X5556D01*
Y8130D01*
X5546D01*
Y8148D01*
X5537D01*
Y8167D01*
X5527D01*
Y8177D01*
X5518D01*
Y8205D01*
X5509D01*
Y8224D01*
X5499D01*
Y8243D01*
X5490D01*
Y8261D01*
X5480D01*
Y8290D01*
X5471D01*
Y8309D01*
X5461D01*
Y8327D01*
X5452D01*
Y8337D01*
X5443D01*
Y8365D01*
X5433D01*
Y8384D01*
X5424D01*
Y8412D01*
X5433D01*
X5443D01*
Y8403D01*
X5452D01*
X5461D01*
Y8393D01*
X5471D01*
X5480D01*
Y8384D01*
X5490D01*
X5499D01*
Y8393D01*
X5509D01*
X5518D01*
X5527D01*
X5537D01*
Y8403D01*
X5546D01*
X5556D01*
Y8412D01*
X5565D01*
Y8431D01*
X5574D01*
Y8459D01*
X5584D01*
Y8610D01*
X5574D01*
Y8667D01*
X5565D01*
Y8686D01*
X5556D01*
Y8695D01*
X5565D01*
Y8704D01*
X5556D01*
Y8733D01*
X5546D01*
Y8761D01*
X5537D01*
Y8799D01*
X5527D01*
Y8836D01*
X5518D01*
Y8865D01*
X5509D01*
Y8902D01*
X5499D01*
Y8940D01*
X5490D01*
Y8959D01*
X5480D01*
Y8987D01*
X5490D01*
Y8978D01*
X5499D01*
X5509D01*
Y8968D01*
X5518D01*
Y8959D01*
X5527D01*
Y8940D01*
X5537D01*
Y8931D01*
X5546D01*
Y8921D01*
X5556D01*
Y8912D01*
X5565D01*
Y8902D01*
X5574D01*
Y8893D01*
X5584D01*
Y8884D01*
X5593D01*
Y8874D01*
X5603D01*
Y8855D01*
X5612D01*
X5622D01*
Y8836D01*
X5631D01*
Y8827D01*
X5640D01*
Y8818D01*
X5650D01*
Y8808D01*
X5659D01*
Y8799D01*
X5669D01*
Y8789D01*
X5678D01*
Y8780D01*
X5688D01*
Y8770D01*
X5697D01*
Y8752D01*
X5706D01*
Y8742D01*
X5716D01*
Y8733D01*
X5725D01*
Y8723D01*
X5735D01*
Y8704D01*
X5744D01*
Y8695D01*
X5754D01*
Y8686D01*
X5763D01*
Y8676D01*
X5772D01*
Y8667D01*
X5782D01*
Y8657D01*
X5791D01*
Y8648D01*
X5801D01*
Y8639D01*
X5810D01*
Y8629D01*
X5820D01*
Y8620D01*
X5829D01*
Y8610D01*
X5838D01*
Y8601D01*
X5848D01*
Y8591D01*
X5857D01*
Y8582D01*
X5867D01*
Y8573D01*
X5876D01*
Y8563D01*
X5886D01*
Y8554D01*
X5895D01*
Y8544D01*
X5904D01*
Y8535D01*
X5914D01*
Y8525D01*
X5923D01*
Y8516D01*
X5933D01*
Y8507D01*
X5942D01*
Y8497D01*
X5952D01*
Y8488D01*
X5961D01*
Y8469D01*
X5970D01*
X5980D01*
Y8459D01*
X5989D01*
Y8441D01*
X5999D01*
Y8431D01*
X6008D01*
Y8422D01*
X6018D01*
Y8412D01*
X6027D01*
Y8403D01*
X6036D01*
Y8384D01*
X6046D01*
Y8375D01*
X6055D01*
Y8365D01*
X6065D01*
Y8356D01*
X6074D01*
Y8346D01*
X6083D01*
Y8337D01*
X6093D01*
Y8327D01*
X6102D01*
Y8318D01*
X6112D01*
Y8309D01*
X6121D01*
Y8299D01*
X6131D01*
Y8290D01*
X6140D01*
Y8280D01*
X6149D01*
Y8271D01*
X6159D01*
X6168D01*
Y8261D01*
X6178D01*
Y8252D01*
X6187D01*
Y8243D01*
X6197D01*
Y8233D01*
X6206D01*
Y8224D01*
X6215D01*
Y8214D01*
X6225D01*
Y8205D01*
X6234D01*
Y8196D01*
X6244D01*
Y8186D01*
X6253D01*
Y8177D01*
X6263D01*
Y8167D01*
X6272D01*
Y8158D01*
X6281D01*
Y8148D01*
X6291D01*
X6300D01*
Y8139D01*
X6310D01*
Y8130D01*
X6319D01*
X6329D01*
Y8120D01*
X6338D01*
X6347D01*
X6357D01*
X6366D01*
Y8130D01*
X6357D01*
Y8139D01*
X6347D01*
Y8148D01*
X6338D01*
Y8158D01*
X6329D01*
Y8167D01*
X6319D01*
Y8177D01*
X6310D01*
Y8186D01*
X6300D01*
Y8196D01*
X6291D01*
Y8205D01*
X6281D01*
Y8214D01*
X6272D01*
Y8224D01*
X6263D01*
Y8233D01*
X6253D01*
Y8243D01*
X6244D01*
Y8252D01*
X6234D01*
Y8261D01*
X6225D01*
Y8271D01*
X6215D01*
Y8280D01*
X6206D01*
Y8290D01*
X6197D01*
Y8299D01*
X6187D01*
Y8309D01*
X6178D01*
Y8318D01*
X6168D01*
Y8337D01*
X6159D01*
Y8346D01*
X6149D01*
X6140D01*
Y8365D01*
X6131D01*
Y8375D01*
X6121D01*
Y8384D01*
X6112D01*
Y8393D01*
X6102D01*
Y8403D01*
X6093D01*
Y8412D01*
X6083D01*
Y8431D01*
X6074D01*
Y8441D01*
X6065D01*
Y8450D01*
X6055D01*
Y8469D01*
X6046D01*
X6036D01*
Y8488D01*
X6027D01*
X6018D01*
Y8497D01*
X6008D01*
Y8507D01*
X5999D01*
Y8525D01*
X5989D01*
Y8535D01*
X5980D01*
Y8544D01*
X5970D01*
Y8554D01*
X5961D01*
Y8563D01*
X5952D01*
Y8573D01*
X5942D01*
Y8582D01*
X5933D01*
Y8591D01*
X5923D01*
Y8601D01*
X5914D01*
Y8610D01*
X5904D01*
Y8620D01*
X5895D01*
Y8629D01*
X5886D01*
Y8639D01*
X5876D01*
Y8648D01*
X5867D01*
Y8657D01*
X5857D01*
Y8667D01*
X5848D01*
Y8676D01*
X5838D01*
Y8686D01*
X5829D01*
Y8695D01*
X5820D01*
Y8704D01*
X5810D01*
Y8714D01*
X5801D01*
Y8723D01*
X5791D01*
Y8742D01*
X5782D01*
Y8752D01*
X5772D01*
Y8761D01*
X5763D01*
Y8770D01*
X5754D01*
Y8780D01*
X5744D01*
Y8789D01*
X5735D01*
Y8799D01*
X5725D01*
Y8818D01*
X5716D01*
Y8827D01*
X5706D01*
Y8836D01*
X5697D01*
Y8846D01*
X5688D01*
Y8855D01*
X5678D01*
Y8865D01*
X5669D01*
Y8874D01*
X5659D01*
Y8893D01*
X5650D01*
Y8902D01*
X5640D01*
Y8912D01*
X5631D01*
Y8921D01*
X5622D01*
Y8931D01*
X5612D01*
Y8940D01*
X5603D01*
Y8950D01*
X5593D01*
Y8959D01*
X5584D01*
Y8968D01*
X5574D01*
Y8978D01*
X5565D01*
Y8987D01*
X5556D01*
Y9006D01*
X5546D01*
Y9016D01*
X5537D01*
Y9025D01*
X5527D01*
Y9034D01*
X5518D01*
Y9044D01*
X5509D01*
Y9053D01*
X5499D01*
Y9063D01*
X5490D01*
Y9072D01*
X5480D01*
Y9082D01*
X5471D01*
Y9091D01*
X5461D01*
Y9110D01*
X5452D01*
Y9119D01*
X5443D01*
Y9129D01*
X5433D01*
Y9138D01*
X5424D01*
Y9147D01*
X5414D01*
Y9166D01*
X5405D01*
Y9195D01*
X5395D01*
Y9223D01*
X5386D01*
Y9242D01*
X5377D01*
Y9261D01*
X5367D01*
Y9279D01*
X5358D01*
Y9298D01*
X5348D01*
Y9317D01*
X5339D01*
Y9345D01*
X5329D01*
Y9364D01*
X5320D01*
Y9383D01*
X5311D01*
Y9411D01*
X5301D01*
Y9421D01*
X5292D01*
Y9449D01*
X5282D01*
Y9468D01*
X5273D01*
Y9487D01*
X5263D01*
Y9515D01*
X5254D01*
X5245D01*
Y9534D01*
X5235D01*
Y9543D01*
X5226D01*
Y9562D01*
X5216D01*
Y9581D01*
X5207D01*
Y9590D01*
X5197D01*
Y9609D01*
X5188D01*
Y9619D01*
X5179D01*
Y9638D01*
X5169D01*
Y9647D01*
X5160D01*
Y9656D01*
X5150D01*
Y9675D01*
X5141D01*
Y9685D01*
X5131D01*
Y9694D01*
X5122D01*
Y9704D01*
X5113D01*
Y9713D01*
X5103D01*
Y9722D01*
X5094D01*
X5084D01*
Y9732D01*
X5075D01*
X5066D01*
X5056D01*
X5047D01*
X5037D01*
Y9722D01*
X5028D01*
Y9656D01*
X5037D01*
Y9619D01*
X5047D01*
Y9609D01*
X5056D01*
Y9581D01*
X5066D01*
Y9562D01*
X5075D01*
Y9543D01*
X5084D01*
Y9534D01*
X5094D01*
Y9515D01*
X5103D01*
Y9496D01*
X5113D01*
Y9477D01*
X5122D01*
Y9468D01*
X5131D01*
Y9449D01*
X5141D01*
Y9430D01*
X5150D01*
Y9421D01*
X5160D01*
Y9411D01*
X5169D01*
Y9402D01*
X5179D01*
Y9393D01*
X5188D01*
Y9364D01*
X5197D01*
Y9355D01*
X5207D01*
Y9345D01*
X5216D01*
Y9327D01*
X5226D01*
Y9317D01*
X5235D01*
Y9298D01*
X5245D01*
Y9289D01*
X5254D01*
Y9279D01*
X5263D01*
Y9261D01*
X5273D01*
Y9251D01*
X5282D01*
Y9232D01*
X5292D01*
Y9223D01*
X5301D01*
Y9213D01*
X5311D01*
Y9204D01*
X5320D01*
Y9176D01*
X5329D01*
Y9157D01*
X5339D01*
Y9129D01*
X5348D01*
Y9110D01*
X5358D01*
Y9082D01*
X5367D01*
Y9063D01*
X5377D01*
Y9044D01*
X5386D01*
Y9016D01*
X5395D01*
Y8987D01*
X5405D01*
Y8950D01*
X5414D01*
Y8921D01*
X5424D01*
Y8884D01*
X5433D01*
Y8855D01*
X5443D01*
Y8827D01*
X5452D01*
Y8799D01*
X5461D01*
Y8761D01*
X5471D01*
Y8723D01*
X5480D01*
Y8676D01*
X5490D01*
Y8629D01*
X5499D01*
Y8582D01*
X5509D01*
Y8573D01*
X5499D01*
Y8563D01*
X5509D01*
Y8478D01*
X5499D01*
X5490D01*
X5480D01*
Y8488D01*
X5471D01*
X5461D01*
Y8497D01*
X5452D01*
Y8507D01*
X5443D01*
Y8516D01*
X5433D01*
Y8525D01*
X5424D01*
Y8535D01*
X5414D01*
Y8544D01*
X5405D01*
Y8554D01*
X5395D01*
Y8563D01*
X5386D01*
Y8573D01*
X5377D01*
Y8582D01*
X5367D01*
Y8591D01*
X5358D01*
Y8601D01*
X5348D01*
Y8610D01*
X5339D01*
Y8620D01*
X5329D01*
Y8639D01*
X5320D01*
Y8648D01*
X5311D01*
Y8657D01*
X5301D01*
Y8667D01*
X5292D01*
Y8676D01*
X5282D01*
Y8695D01*
X5273D01*
Y8723D01*
X5263D01*
Y8742D01*
X5254D01*
Y8752D01*
X5245D01*
Y8761D01*
X5235D01*
Y8789D01*
X5226D01*
Y8799D01*
X5216D01*
Y8827D01*
X5207D01*
Y8846D01*
X5197D01*
Y8855D01*
X5188D01*
Y8874D01*
X5179D01*
Y8902D01*
X5169D01*
Y8921D01*
X5160D01*
Y8940D01*
X5150D01*
Y8950D01*
X5141D01*
Y8959D01*
X5131D01*
Y8978D01*
X5122D01*
Y8997D01*
X5113D01*
Y9025D01*
X5103D01*
Y9044D01*
X5094D01*
Y9063D01*
X5084D01*
Y9082D01*
X5075D01*
Y9100D01*
X5066D01*
Y9119D01*
X5056D01*
Y9129D01*
X5047D01*
Y9147D01*
X5037D01*
Y9166D01*
X5028D01*
Y9185D01*
X5018D01*
Y9213D01*
X5009D01*
Y9232D01*
X5000D01*
Y9242D01*
X4990D01*
Y9261D01*
X4981D01*
Y9279D01*
X4971D01*
Y9308D01*
X4962D01*
Y9327D01*
X4952D01*
Y9336D01*
X4943D01*
Y9345D01*
X4934D01*
Y9374D01*
X4924D01*
Y9383D01*
X4915D01*
Y9411D01*
X4905D01*
Y9421D01*
X4896D01*
Y9440D01*
X4886D01*
Y9459D01*
X4877D01*
Y9477D01*
X4868D01*
Y9496D01*
X4858D01*
Y9515D01*
X4849D01*
X4839D01*
Y9534D01*
X4830D01*
Y9553D01*
X4820D01*
Y9581D01*
X4811D01*
Y9590D01*
X4802D01*
Y9609D01*
X4792D01*
Y9628D01*
X4783D01*
Y9647D01*
X4773D01*
Y9666D01*
X4764D01*
Y9685D01*
X4754D01*
Y9694D01*
X4745D01*
Y9713D01*
X4736D01*
Y9722D01*
X4726D01*
Y9741D01*
X4717D01*
Y9760D01*
X4707D01*
Y9770D01*
X4698D01*
Y9788D01*
X4689D01*
Y9798D01*
X4679D01*
Y9817D01*
X4670D01*
Y9826D01*
X4660D01*
Y9836D01*
X4651D01*
Y9845D01*
X4641D01*
X4632D01*
X4623D01*
X4613D01*
X4604D01*
Y9836D01*
X4594D01*
Y9788D01*
X4604D01*
Y9751D01*
X4613D01*
Y9732D01*
X4623D01*
Y9704D01*
X4632D01*
Y9694D01*
X4641D01*
Y9666D01*
X4651D01*
Y9656D01*
X4660D01*
Y9628D01*
X4670D01*
Y9609D01*
X4679D01*
Y9581D01*
X4689D01*
Y9562D01*
X4698D01*
Y9534D01*
X4707D01*
Y9515D01*
X4717D01*
Y9487D01*
X4726D01*
Y9468D01*
X4736D01*
Y9449D01*
X4745D01*
Y9430D01*
X4754D01*
Y9421D01*
X4764D01*
Y9393D01*
X4773D01*
Y9374D01*
X4783D01*
Y9355D01*
X4792D01*
Y9327D01*
X4802D01*
Y9317D01*
X4811D01*
Y9289D01*
X4820D01*
Y9270D01*
X4830D01*
Y9251D01*
X4839D01*
Y9232D01*
X4849D01*
Y9213D01*
X4858D01*
Y9204D01*
X4868D01*
Y9185D01*
X4877D01*
Y9166D01*
X4886D01*
Y9147D01*
X4896D01*
Y9129D01*
X4905D01*
Y9119D01*
X4915D01*
Y9100D01*
X4924D01*
Y9082D01*
X4934D01*
Y9072D01*
X4943D01*
Y9044D01*
X4952D01*
Y9034D01*
X4962D01*
Y9025D01*
X4971D01*
Y9006D01*
X4981D01*
Y8987D01*
X4990D01*
Y8968D01*
X5000D01*
Y8950D01*
X5009D01*
Y8940D01*
X5018D01*
Y8921D01*
X5028D01*
Y8912D01*
X5037D01*
Y8893D01*
X5047D01*
Y8884D01*
X5056D01*
Y8874D01*
X5066D01*
Y8855D01*
X5075D01*
Y8846D01*
X5084D01*
Y8827D01*
X5094D01*
Y8818D01*
X5103D01*
Y8808D01*
X5113D01*
Y8789D01*
X5122D01*
Y8770D01*
X5131D01*
Y8761D01*
X5141D01*
Y8752D01*
X5150D01*
Y8733D01*
X5160D01*
Y8723D01*
X5169D01*
Y8704D01*
X5179D01*
Y8695D01*
X5188D01*
Y8686D01*
X5197D01*
Y8676D01*
X5207D01*
Y8657D01*
X5216D01*
Y8648D01*
X5226D01*
Y8629D01*
X5235D01*
Y8601D01*
X5245D01*
Y8591D01*
X5254D01*
Y8573D01*
X5263D01*
Y8554D01*
X5273D01*
Y8535D01*
X5282D01*
Y8516D01*
X5292D01*
Y8488D01*
X5301D01*
Y8469D01*
X5311D01*
Y8450D01*
X5320D01*
Y8422D01*
X5329D01*
Y8412D01*
X5339D01*
Y8384D01*
X5348D01*
Y8375D01*
X5358D01*
Y8365D01*
X5348D01*
Y8356D01*
X5339D01*
X5329D01*
Y8365D01*
X5320D01*
Y8384D01*
X5311D01*
Y8393D01*
X5301D01*
Y8412D01*
X5292D01*
Y8431D01*
X5282D01*
Y8441D01*
X5273D01*
Y8459D01*
X5263D01*
Y8469D01*
X5254D01*
Y8488D01*
X5245D01*
Y8497D01*
X5235D01*
Y8507D01*
X5226D01*
Y8525D01*
X5216D01*
Y8535D01*
X5207D01*
Y8544D01*
X5197D01*
Y8554D01*
X5188D01*
Y8563D01*
X5179D01*
Y8573D01*
X5169D01*
Y8582D01*
X5160D01*
X5150D01*
X5141D01*
X5131D01*
X5122D01*
X5113D01*
Y8573D01*
X5103D01*
Y8525D01*
X5113D01*
Y8497D01*
X5122D01*
Y8469D01*
X5131D01*
Y8450D01*
X5141D01*
Y8431D01*
X5150D01*
Y8422D01*
X5141D01*
Y8412D01*
X5131D01*
Y8422D01*
X5122D01*
Y8431D01*
X5113D01*
Y8441D01*
X5103D01*
Y8459D01*
X5094D01*
Y8469D01*
X5084D01*
Y8488D01*
X5075D01*
Y8497D01*
X5066D01*
Y8507D01*
X5056D01*
Y8516D01*
X5047D01*
Y8525D01*
X5037D01*
Y8535D01*
X5028D01*
Y8554D01*
X5018D01*
Y8563D01*
X5009D01*
Y8573D01*
X5000D01*
Y8591D01*
X4990D01*
Y8601D01*
X4981D01*
X4971D01*
X4962D01*
X4952D01*
Y8591D01*
X4943D01*
Y8573D01*
X4952D01*
Y8563D01*
X4962D01*
Y8535D01*
X4971D01*
Y8507D01*
X4981D01*
Y8431D01*
X4971D01*
X4962D01*
Y8422D01*
X4952D01*
X4943D01*
X4934D01*
Y8431D01*
X4924D01*
X4915D01*
Y8441D01*
X4905D01*
X4896D01*
Y8459D01*
X4886D01*
Y8469D01*
X4877D01*
Y8478D01*
X4868D01*
Y8488D01*
X4858D01*
Y8497D01*
X4849D01*
Y8507D01*
X4839D01*
Y8516D01*
X4830D01*
Y8525D01*
X4820D01*
Y8535D01*
X4811D01*
Y8554D01*
X4802D01*
X4792D01*
Y8573D01*
X4783D01*
Y8582D01*
X4773D01*
Y8610D01*
X4764D01*
Y8639D01*
X4754D01*
Y8648D01*
X4745D01*
Y8676D01*
X4736D01*
Y8695D01*
X4726D01*
Y8723D01*
X4717D01*
Y8742D01*
X4707D01*
Y8770D01*
X4698D01*
Y8789D01*
X4689D01*
Y8808D01*
X4679D01*
Y8836D01*
X4670D01*
Y8855D01*
X4660D01*
Y8874D01*
X4651D01*
Y8893D01*
X4641D01*
Y8912D01*
X4632D01*
Y8921D01*
X4623D01*
Y8950D01*
X4613D01*
Y8968D01*
X4604D01*
Y8987D01*
X4594D01*
Y9016D01*
X4585D01*
Y9034D01*
X4575D01*
Y9053D01*
X4566D01*
Y9072D01*
X4557D01*
Y9091D01*
X4547D01*
Y9100D01*
X4538D01*
Y9119D01*
X4528D01*
Y9138D01*
X4519D01*
Y9157D01*
X4509D01*
Y9176D01*
X4500D01*
Y9204D01*
X4491D01*
Y9223D01*
X4481D01*
Y9242D01*
X4472D01*
Y9261D01*
X4462D01*
Y9279D01*
X4453D01*
Y9298D01*
X4443D01*
Y9308D01*
X4434D01*
Y9327D01*
X4425D01*
Y9345D01*
X4415D01*
Y9364D01*
X4406D01*
Y9383D01*
X4396D01*
Y9402D01*
X4387D01*
Y9421D01*
X4377D01*
Y9430D01*
X4368D01*
Y9449D01*
X4359D01*
Y9468D01*
X4349D01*
Y9487D01*
X4340D01*
Y9496D01*
X4330D01*
Y9515D01*
X4321D01*
Y9534D01*
X4311D01*
Y9543D01*
X4302D01*
Y9562D01*
X4293D01*
Y9581D01*
X4283D01*
Y9600D01*
X4274D01*
Y9609D01*
X4264D01*
Y9628D01*
X4255D01*
Y9638D01*
X4246D01*
Y9656D01*
X4236D01*
Y9675D01*
X4227D01*
Y9685D01*
X4217D01*
Y9694D01*
X4208D01*
Y9713D01*
X4198D01*
Y9722D01*
X4189D01*
Y9741D01*
X4180D01*
Y9751D01*
X4170D01*
Y9760D01*
X4161D01*
Y9770D01*
X4151D01*
X4142D01*
Y9779D01*
X4132D01*
X4123D01*
X4114D01*
X4104D01*
X4095D01*
Y9760D01*
X4085D01*
Y9722D01*
X4095D01*
Y9694D01*
X4104D01*
Y9675D01*
X4114D01*
Y9647D01*
X4123D01*
Y9628D01*
X4132D01*
Y9609D01*
X4142D01*
Y9600D01*
X4151D01*
Y9572D01*
X4161D01*
Y9553D01*
X4170D01*
Y9524D01*
X4180D01*
Y9506D01*
X4189D01*
Y9477D01*
X4198D01*
Y9468D01*
X4208D01*
Y9440D01*
X4217D01*
Y9411D01*
X4227D01*
Y9402D01*
X4236D01*
Y9374D01*
X4246D01*
Y9364D01*
X4255D01*
Y9336D01*
X4264D01*
Y9327D01*
X4274D01*
Y9298D01*
X4283D01*
Y9270D01*
X4293D01*
Y9261D01*
X4302D01*
Y9232D01*
X4311D01*
Y9213D01*
X4321D01*
Y9195D01*
X4330D01*
Y9185D01*
X4340D01*
Y9157D01*
X4349D01*
Y9147D01*
X4359D01*
Y9129D01*
X4368D01*
Y9110D01*
X4377D01*
Y9091D01*
X4387D01*
Y9072D01*
X4396D01*
Y9063D01*
X4406D01*
Y9044D01*
X4415D01*
Y9025D01*
X4425D01*
Y9016D01*
X4434D01*
Y8987D01*
X4443D01*
Y8978D01*
X4453D01*
Y8959D01*
X4462D01*
Y8950D01*
X4472D01*
Y8931D01*
X4481D01*
Y8921D01*
X4491D01*
Y8893D01*
X4500D01*
Y8884D01*
X4509D01*
Y8865D01*
X4519D01*
Y8846D01*
X4528D01*
Y8836D01*
X4538D01*
Y8818D01*
X4547D01*
Y8808D01*
X4557D01*
Y8789D01*
X4566D01*
Y8780D01*
X4575D01*
Y8770D01*
X4585D01*
Y8752D01*
X4594D01*
Y8742D01*
X4604D01*
Y8723D01*
X4613D01*
Y8714D01*
X4623D01*
Y8704D01*
X4632D01*
Y8695D01*
X4641D01*
Y8676D01*
X4651D01*
Y8667D01*
X4660D01*
Y8657D01*
X4670D01*
Y8648D01*
X4679D01*
Y8620D01*
X4689D01*
Y8591D01*
X4698D01*
Y8563D01*
X4707D01*
Y8544D01*
X4717D01*
Y8516D01*
X4726D01*
Y8488D01*
X4736D01*
Y8459D01*
X4745D01*
Y8450D01*
X4754D01*
Y8422D01*
X4764D01*
Y8393D01*
X4773D01*
Y8365D01*
X4783D01*
Y8337D01*
X4792D01*
Y8318D01*
X4802D01*
Y8290D01*
X4811D01*
Y8252D01*
X4820D01*
Y8233D01*
X4830D01*
Y8205D01*
X4839D01*
Y8186D01*
X4849D01*
Y8158D01*
X4858D01*
Y8139D01*
X4868D01*
Y8120D01*
X4877D01*
Y8092D01*
X4886D01*
Y8054D01*
X4896D01*
Y8026D01*
X4905D01*
Y7998D01*
X4915D01*
Y7969D01*
X4924D01*
Y7932D01*
X4934D01*
Y7903D01*
X4943D01*
Y7894D01*
X4952D01*
Y7884D01*
X4943D01*
Y7875D01*
X4952D01*
Y7866D01*
X4962D01*
Y7837D01*
X4971D01*
Y7809D01*
X4981D01*
Y7771D01*
X4990D01*
Y7753D01*
X5000D01*
Y7715D01*
X5009D01*
Y7677D01*
X5018D01*
Y7649D01*
X5028D01*
Y7621D01*
X5037D01*
Y7583D01*
X5047D01*
Y7564D01*
X5056D01*
Y7536D01*
X5066D01*
Y7507D01*
X5075D01*
Y7479D01*
X5084D01*
Y7441D01*
X5094D01*
Y7404D01*
X5103D01*
Y7376D01*
X5113D01*
Y7338D01*
X5122D01*
Y7300D01*
X5131D01*
Y7272D01*
X5141D01*
Y7244D01*
X5150D01*
Y7215D01*
X5160D01*
Y7187D01*
X5169D01*
Y7149D01*
X5179D01*
Y7112D01*
X5188D01*
Y7064D01*
X5179D01*
X5169D01*
Y7083D01*
X5160D01*
Y7102D01*
X5150D01*
Y7121D01*
X5141D01*
Y7140D01*
X5131D01*
Y7159D01*
X5122D01*
Y7178D01*
X5113D01*
Y7196D01*
X5103D01*
Y7215D01*
X5094D01*
Y7234D01*
X5084D01*
Y7253D01*
X5075D01*
Y7272D01*
X5066D01*
Y7291D01*
X5056D01*
Y7310D01*
X5047D01*
Y7328D01*
X5037D01*
Y7347D01*
X5028D01*
Y7366D01*
X5018D01*
Y7376D01*
X5009D01*
Y7394D01*
X5000D01*
Y7413D01*
X4990D01*
Y7432D01*
X4981D01*
Y7441D01*
X4971D01*
Y7470D01*
X4962D01*
Y7489D01*
X4952D01*
Y7498D01*
X4943D01*
Y7517D01*
X4934D01*
Y7526D01*
X4924D01*
Y7536D01*
X4915D01*
Y7564D01*
X4905D01*
Y7583D01*
X4896D01*
Y7592D01*
X4886D01*
Y7611D01*
X4877D01*
Y7621D01*
X4868D01*
Y7649D01*
X4858D01*
Y7658D01*
X4849D01*
Y7668D01*
X4839D01*
Y7687D01*
X4830D01*
Y7705D01*
X4820D01*
Y7715D01*
X4811D01*
Y7724D01*
X4802D01*
Y7753D01*
X4792D01*
Y7762D01*
X4783D01*
Y7781D01*
X4773D01*
Y7800D01*
X4764D01*
Y7818D01*
X4754D01*
Y7837D01*
X4745D01*
Y7847D01*
X4736D01*
Y7856D01*
X4726D01*
Y7875D01*
X4717D01*
Y7894D01*
X4707D01*
Y7903D01*
X4698D01*
Y7922D01*
X4689D01*
Y7941D01*
X4679D01*
Y7960D01*
X4670D01*
Y7979D01*
X4660D01*
Y7988D01*
X4651D01*
Y7998D01*
X4641D01*
Y8016D01*
X4632D01*
Y8035D01*
X4623D01*
Y8045D01*
X4613D01*
Y8054D01*
X4604D01*
Y8073D01*
X4594D01*
Y8092D01*
X4585D01*
Y8101D01*
X4575D01*
Y8120D01*
X4566D01*
Y8139D01*
X4557D01*
Y8158D01*
X4547D01*
X4538D01*
Y8167D01*
X4547D01*
Y8177D01*
X4538D01*
Y8186D01*
X4528D01*
Y8196D01*
X4519D01*
Y8205D01*
X4509D01*
Y8214D01*
X4500D01*
Y8243D01*
X4491D01*
Y8261D01*
X4481D01*
Y8271D01*
X4472D01*
Y8290D01*
X4462D01*
Y8299D01*
X4453D01*
Y8318D01*
X4443D01*
Y8327D01*
X4434D01*
Y8337D01*
X4425D01*
Y8375D01*
X4434D01*
Y8365D01*
X4443D01*
X4453D01*
Y8356D01*
X4462D01*
X4472D01*
Y8346D01*
X4481D01*
X4491D01*
X4500D01*
X4509D01*
X4519D01*
X4528D01*
X4538D01*
X4547D01*
Y8356D01*
X4557D01*
Y8365D01*
X4566D01*
Y8375D01*
X4575D01*
Y8393D01*
X4585D01*
Y8403D01*
X4575D01*
Y8441D01*
X4566D01*
Y8459D01*
X4557D01*
Y8469D01*
X4547D01*
Y8478D01*
X4538D01*
Y8488D01*
X4528D01*
Y8497D01*
X4519D01*
Y8507D01*
X4509D01*
Y8516D01*
X4500D01*
Y8525D01*
X4491D01*
X4481D01*
Y8535D01*
X4472D01*
Y8544D01*
X4462D01*
X4453D01*
Y8554D01*
X4443D01*
Y8563D01*
X4434D01*
X4425D01*
Y8573D01*
X4415D01*
X4406D01*
X4396D01*
X4387D01*
X4377D01*
X4368D01*
Y8582D01*
X4359D01*
X4349D01*
X4340D01*
X4330D01*
Y8591D01*
X4321D01*
X4311D01*
X4302D01*
X4293D01*
X4283D01*
X4274D01*
Y8601D01*
X4264D01*
X4255D01*
X4246D01*
X4236D01*
Y8610D01*
X4227D01*
X4217D01*
X4208D01*
X4198D01*
Y8620D01*
X4189D01*
X4180D01*
X4170D01*
X4161D01*
X4151D01*
X4142D01*
X4132D01*
X4123D01*
X4114D01*
Y8629D01*
X4104D01*
Y8639D01*
X4095D01*
Y8657D01*
X4085D01*
Y8667D01*
X4076D01*
X4066D01*
Y8676D01*
X4057D01*
Y8667D01*
X4048D01*
X4038D01*
Y8657D01*
X4029D01*
X4019D01*
Y8639D01*
X4010D01*
Y8629D01*
X4000D01*
Y8601D01*
X3991D01*
Y8582D01*
X3982D01*
X3972D01*
X3963D01*
Y8591D01*
X3953D01*
X3944D01*
Y8601D01*
X3934D01*
X3925D01*
Y8610D01*
X3916D01*
Y8620D01*
X3906D01*
X3897D01*
Y8629D01*
X3887D01*
Y8639D01*
X3878D01*
Y8648D01*
X3868D01*
Y8657D01*
X3859D01*
Y8667D01*
X3850D01*
X3840D01*
Y8676D01*
X3831D01*
Y8686D01*
X3821D01*
Y8695D01*
X3812D01*
Y8704D01*
X3803D01*
Y8714D01*
X3793D01*
X3784D01*
Y8723D01*
X3774D01*
Y8733D01*
X3765D01*
Y8742D01*
X3755D01*
Y8752D01*
X3746D01*
Y8761D01*
X3737D01*
X3727D01*
Y8770D01*
X3718D01*
Y8780D01*
X3708D01*
Y8789D01*
X3699D01*
Y8799D01*
X3689D01*
Y8808D01*
X3680D01*
Y8818D01*
X3671D01*
Y8827D01*
X3661D01*
Y8836D01*
X3652D01*
Y8846D01*
X3642D01*
Y8855D01*
X3633D01*
Y8865D01*
X3623D01*
Y8874D01*
X3614D01*
Y8884D01*
X3605D01*
Y8893D01*
X3595D01*
Y8902D01*
X3586D01*
X3576D01*
Y8912D01*
X3567D01*
Y8931D01*
X3557D01*
X3548D01*
Y8940D01*
X3539D01*
Y8950D01*
X3529D01*
Y8959D01*
X3520D01*
Y8968D01*
X3510D01*
Y8978D01*
X3501D01*
Y8987D01*
X3491D01*
Y8997D01*
X3482D01*
Y9006D01*
X3473D01*
Y9016D01*
X3463D01*
Y9025D01*
X3454D01*
Y9034D01*
X3444D01*
Y9044D01*
X3435D01*
Y9053D01*
X3426D01*
Y9063D01*
X3416D01*
Y9082D01*
X3407D01*
Y9091D01*
X3397D01*
Y9100D01*
X3388D01*
Y9110D01*
X3378D01*
Y9129D01*
X3369D01*
Y9138D01*
X3360D01*
Y9157D01*
X3350D01*
Y9166D01*
X3341D01*
Y9176D01*
X3331D01*
Y9185D01*
X3322D01*
Y9204D01*
X3312D01*
Y9213D01*
X3303D01*
Y9223D01*
X3294D01*
Y9242D01*
X3284D01*
Y9251D01*
X3275D01*
Y9261D01*
X3265D01*
Y9270D01*
X3256D01*
Y9279D01*
X3246D01*
Y9298D01*
X3237D01*
Y9308D01*
X3228D01*
Y9317D01*
X3218D01*
Y9327D01*
X3209D01*
Y9336D01*
X3199D01*
Y9355D01*
X3190D01*
Y9364D01*
X3180D01*
Y9374D01*
X3171D01*
Y9383D01*
X3162D01*
Y9402D01*
X3152D01*
Y9411D01*
X3143D01*
Y9421D01*
X3133D01*
Y9440D01*
X3124D01*
Y9449D01*
X3114D01*
Y9459D01*
X3105D01*
Y9468D01*
X3096D01*
Y9477D01*
X3086D01*
Y9487D01*
X3077D01*
Y9496D01*
X3067D01*
Y9506D01*
X3058D01*
Y9524D01*
X3048D01*
Y9534D01*
X3039D01*
Y9543D01*
X3030D01*
Y9553D01*
X3020D01*
Y9562D01*
X3011D01*
Y9572D01*
X3001D01*
Y9581D01*
X2992D01*
Y9600D01*
X2983D01*
X2973D01*
Y9619D01*
X2964D01*
X2954D01*
Y9638D01*
X2945D01*
X2935D01*
Y9656D01*
X2926D01*
X2917D01*
Y9675D01*
X2907D01*
Y9685D01*
X2898D01*
Y9694D01*
X2888D01*
X2879D01*
Y9713D01*
X2869D01*
X2860D01*
Y9732D01*
X2851D01*
X2841D01*
Y9741D01*
X2832D01*
Y9751D01*
X2822D01*
Y9760D01*
X2813D01*
Y9770D01*
X2803D01*
Y9779D01*
X2794D01*
X2785D01*
Y9788D01*
X2775D01*
Y9798D01*
X2766D01*
Y9807D01*
X2756D01*
Y9817D01*
X2747D01*
X2737D01*
Y9826D01*
X2728D01*
X2719D01*
Y9836D01*
X2709D01*
X2700D01*
Y9845D01*
X2690D01*
X2681D01*
Y9854D01*
X2671D01*
X2662D01*
X2653D01*
X2643D01*
Y9845D01*
X2634D01*
X2624D01*
Y9826D01*
X2615D01*
Y9798D01*
X2624D01*
Y9779D01*
X2634D01*
Y9770D01*
X2643D01*
Y9751D01*
X2653D01*
Y9741D01*
X2662D01*
Y9732D01*
X2671D01*
Y9722D01*
X2681D01*
Y9713D01*
X2690D01*
Y9704D01*
X2700D01*
Y9694D01*
X2709D01*
Y9685D01*
X2719D01*
Y9666D01*
X2728D01*
X2737D01*
Y9647D01*
X2747D01*
X2756D01*
Y9638D01*
X2766D01*
Y9628D01*
X2775D01*
Y9609D01*
X2785D01*
Y9600D01*
X2794D01*
Y9590D01*
X2803D01*
Y9581D01*
X2813D01*
Y9572D01*
X2822D01*
Y9562D01*
X2832D01*
Y9553D01*
X2841D01*
Y9543D01*
X2851D01*
Y9534D01*
X2860D01*
Y9524D01*
X2869D01*
Y9515D01*
X2879D01*
Y9506D01*
X2888D01*
Y9496D01*
X2898D01*
Y9487D01*
X2907D01*
Y9477D01*
X2917D01*
Y9468D01*
X2926D01*
Y9459D01*
X2935D01*
Y9449D01*
X2945D01*
Y9440D01*
X2954D01*
Y9430D01*
X2964D01*
Y9421D01*
X2973D01*
Y9411D01*
X2983D01*
Y9402D01*
X2992D01*
Y9393D01*
X3001D01*
Y9383D01*
X3011D01*
Y9374D01*
X3020D01*
Y9364D01*
X3030D01*
Y9355D01*
X3039D01*
Y9345D01*
X3048D01*
Y9336D01*
X3058D01*
Y9327D01*
X3067D01*
Y9317D01*
X3077D01*
Y9308D01*
X3086D01*
Y9298D01*
X3096D01*
Y9289D01*
X3105D01*
Y9279D01*
X3114D01*
Y9270D01*
X3124D01*
Y9261D01*
X3133D01*
Y9251D01*
X3143D01*
X3152D01*
Y9242D01*
X3162D01*
Y9232D01*
X3171D01*
Y9223D01*
X3180D01*
Y9213D01*
X3190D01*
Y9204D01*
X3199D01*
Y9195D01*
X3209D01*
Y9176D01*
X3218D01*
X3228D01*
Y9157D01*
X3237D01*
Y9147D01*
X3246D01*
Y9138D01*
X3256D01*
Y9129D01*
X3265D01*
Y9119D01*
X3275D01*
Y9110D01*
X3284D01*
Y9091D01*
X3294D01*
Y9082D01*
X3303D01*
Y9063D01*
X3312D01*
Y9053D01*
X3322D01*
Y9034D01*
X3331D01*
Y9025D01*
X3341D01*
Y9016D01*
X3350D01*
Y8997D01*
X3360D01*
Y8987D01*
X3369D01*
Y8978D01*
X3378D01*
Y8968D01*
X3388D01*
Y8959D01*
X3397D01*
Y8940D01*
X3407D01*
Y8921D01*
X3416D01*
Y8912D01*
X3426D01*
Y8902D01*
X3435D01*
Y8884D01*
X3444D01*
Y8874D01*
X3454D01*
Y8855D01*
X3463D01*
Y8846D01*
X3473D01*
Y8836D01*
X3482D01*
Y8818D01*
X3491D01*
Y8808D01*
X3501D01*
Y8789D01*
X3510D01*
Y8780D01*
X3520D01*
Y8761D01*
X3529D01*
Y8752D01*
X3539D01*
Y8733D01*
X3548D01*
Y8723D01*
X3557D01*
Y8714D01*
X3567D01*
Y8704D01*
X3576D01*
Y8695D01*
X3586D01*
Y8667D01*
X3595D01*
Y8657D01*
X3605D01*
Y8648D01*
X3614D01*
Y8629D01*
X3623D01*
Y8620D01*
X3633D01*
Y8610D01*
X3642D01*
Y8591D01*
X3652D01*
Y8582D01*
X3661D01*
Y8563D01*
X3671D01*
Y8554D01*
X3680D01*
Y8544D01*
X3689D01*
Y8525D01*
X3699D01*
Y8516D01*
X3708D01*
Y8507D01*
X3718D01*
Y8488D01*
X3727D01*
Y8469D01*
X3737D01*
Y8459D01*
X3746D01*
Y8450D01*
X3755D01*
Y8441D01*
X3765D01*
Y8422D01*
X3774D01*
Y8403D01*
X3784D01*
Y8393D01*
X3793D01*
Y8365D01*
X3803D01*
Y8356D01*
X3812D01*
Y8337D01*
X3821D01*
Y8327D01*
X3831D01*
Y8309D01*
X3840D01*
Y8299D01*
X3850D01*
Y8280D01*
X3859D01*
Y8271D01*
X3868D01*
Y8252D01*
X3878D01*
Y8243D01*
X3887D01*
Y8224D01*
X3897D01*
Y8214D01*
X3906D01*
Y8186D01*
X3897D01*
X3887D01*
Y8196D01*
X3878D01*
Y8205D01*
X3868D01*
Y8214D01*
X3859D01*
Y8224D01*
X3850D01*
Y8233D01*
X3840D01*
X3831D01*
Y8243D01*
X3821D01*
Y8252D01*
X3812D01*
Y8261D01*
X3803D01*
Y8271D01*
X3793D01*
Y8280D01*
X3784D01*
X3774D01*
Y8290D01*
X3765D01*
Y8299D01*
X3755D01*
Y8309D01*
X3746D01*
Y8318D01*
X3737D01*
Y8327D01*
X3727D01*
Y8337D01*
X3718D01*
X3708D01*
Y8346D01*
X3699D01*
Y8356D01*
X3689D01*
Y8365D01*
X3680D01*
Y8375D01*
X3671D01*
X3661D01*
Y8384D01*
X3652D01*
Y8393D01*
X3642D01*
Y8403D01*
X3633D01*
Y8412D01*
X3623D01*
Y8422D01*
X3614D01*
X3605D01*
Y8431D01*
X3595D01*
Y8441D01*
X3586D01*
Y8450D01*
X3576D01*
Y8459D01*
X3567D01*
X3557D01*
Y8469D01*
X3548D01*
Y8478D01*
X3539D01*
Y8488D01*
X3529D01*
X3520D01*
Y8497D01*
X3510D01*
Y8507D01*
X3501D01*
Y8516D01*
X3491D01*
X3482D01*
Y8525D01*
X3473D01*
Y8535D01*
X3463D01*
Y8544D01*
X3454D01*
X3444D01*
Y8554D01*
X3435D01*
Y8563D01*
X3426D01*
X3416D01*
Y8573D01*
X3407D01*
X3397D01*
Y8582D01*
X3388D01*
Y8591D01*
X3378D01*
X3369D01*
Y8601D01*
X3360D01*
X3350D01*
Y8610D01*
X3341D01*
X3331D01*
Y8620D01*
X3322D01*
X3312D01*
Y8629D01*
X3303D01*
X3294D01*
Y8639D01*
X3284D01*
X3275D01*
X3265D01*
X3256D01*
X3246D01*
X3237D01*
X3228D01*
Y8629D01*
X3218D01*
Y8620D01*
X3209D01*
Y8610D01*
X3199D01*
Y8601D01*
X3190D01*
Y8535D01*
X3199D01*
Y8469D01*
X3190D01*
X3180D01*
Y8478D01*
X3171D01*
X3162D01*
Y8488D01*
X3152D01*
X3143D01*
X3133D01*
Y8497D01*
X3124D01*
X3114D01*
Y8507D01*
X3105D01*
X3096D01*
X3086D01*
Y8516D01*
X3077D01*
X3067D01*
X3058D01*
X3048D01*
Y8525D01*
X3039D01*
Y8516D01*
X3030D01*
X3020D01*
X3011D01*
X3001D01*
X2992D01*
Y8507D01*
X2983D01*
X2973D01*
Y8497D01*
X2964D01*
X2954D01*
Y8488D01*
X2945D01*
Y8478D01*
X2935D01*
Y8459D01*
X2926D01*
Y8450D01*
X2917D01*
X2907D01*
Y8459D01*
X2898D01*
X2888D01*
Y8450D01*
X2879D01*
X2869D01*
Y8422D01*
X2860D01*
Y8412D01*
X2869D01*
Y8403D01*
X2879D01*
Y8384D01*
X2888D01*
X2898D01*
Y8375D01*
X2907D01*
Y8365D01*
X2917D01*
Y8356D01*
X2926D01*
X2935D01*
X2945D01*
X2954D01*
X2964D01*
X2973D01*
Y8365D01*
X2983D01*
Y8375D01*
X2992D01*
Y8384D01*
X3001D01*
Y8393D01*
X3011D01*
Y8403D01*
X3020D01*
Y8422D01*
X3030D01*
X3039D01*
X3048D01*
X3058D01*
Y8412D01*
X3067D01*
X3077D01*
X3086D01*
Y8403D01*
X3096D01*
X3105D01*
Y8393D01*
X3114D01*
X3124D01*
X3133D01*
Y8384D01*
X3143D01*
X3152D01*
Y8375D01*
X3162D01*
X3171D01*
Y8365D01*
X3180D01*
X3190D01*
X3199D01*
Y8356D01*
X3209D01*
X3218D01*
X3228D01*
X3237D01*
X3246D01*
X3256D01*
Y8375D01*
X3265D01*
X3275D01*
X3284D01*
Y8384D01*
X3294D01*
Y8393D01*
X3303D01*
Y8441D01*
X3312D01*
Y8459D01*
X3303D01*
Y8497D01*
X3294D01*
Y8525D01*
X3303D01*
X3312D01*
X3322D01*
Y8516D01*
X3331D01*
X3341D01*
Y8507D01*
X3350D01*
X3360D01*
Y8497D01*
X3369D01*
Y8488D01*
X3378D01*
X3388D01*
Y8478D01*
X3397D01*
X3407D01*
Y8469D01*
X3416D01*
Y8459D01*
X3426D01*
Y8450D01*
X3435D01*
X3444D01*
Y8441D01*
X3454D01*
Y8431D01*
X3463D01*
Y8422D01*
X3473D01*
X3482D01*
Y8412D01*
X3491D01*
Y8403D01*
X3501D01*
Y8393D01*
X3510D01*
Y8384D01*
X3520D01*
X3529D01*
Y8375D01*
X3539D01*
Y8365D01*
X3548D01*
Y8356D01*
X3557D01*
X3567D01*
Y8346D01*
X3576D01*
Y8337D01*
X3586D01*
Y8327D01*
X3595D01*
Y8318D01*
X3605D01*
Y8309D01*
X3614D01*
Y8299D01*
X3623D01*
X3633D01*
Y8290D01*
X3642D01*
Y8280D01*
X3652D01*
Y8271D01*
X3661D01*
Y8261D01*
X3671D01*
X3680D01*
Y8252D01*
X3689D01*
Y8243D01*
X3699D01*
Y8233D01*
X3708D01*
Y8224D01*
X3718D01*
Y8214D01*
X3727D01*
Y8205D01*
X3737D01*
Y8196D01*
X3746D01*
X3755D01*
Y8186D01*
X3765D01*
Y8177D01*
X3774D01*
Y8167D01*
X3784D01*
Y8158D01*
X3793D01*
Y8148D01*
X3803D01*
Y8139D01*
X3812D01*
Y8130D01*
X3821D01*
X3831D01*
Y8120D01*
X3840D01*
Y8111D01*
X3850D01*
Y8101D01*
X3859D01*
Y8092D01*
X3868D01*
Y8082D01*
X3878D01*
Y8073D01*
X3887D01*
Y8064D01*
X3897D01*
Y8054D01*
X3906D01*
Y8045D01*
X3916D01*
Y8035D01*
X3925D01*
Y8026D01*
X3934D01*
Y8016D01*
X3944D01*
Y8007D01*
X3953D01*
Y7998D01*
X3963D01*
Y7988D01*
X3972D01*
X3982D01*
Y7979D01*
X3991D01*
Y7969D01*
X4000D01*
Y7960D01*
X4010D01*
Y7950D01*
X4019D01*
Y7941D01*
X4029D01*
Y7932D01*
X4038D01*
Y7922D01*
X4048D01*
Y7913D01*
X4057D01*
X4066D01*
Y7903D01*
X4076D01*
Y7894D01*
X4085D01*
Y7884D01*
X4095D01*
Y7875D01*
X4104D01*
Y7866D01*
X4114D01*
Y7856D01*
X4123D01*
X4132D01*
X4142D01*
X4151D01*
X4161D01*
Y7866D01*
X4170D01*
Y7875D01*
X4180D01*
Y7894D01*
X4189D01*
Y7932D01*
X4180D01*
Y7950D01*
X4170D01*
Y7969D01*
X4161D01*
Y7988D01*
X4151D01*
Y8007D01*
X4142D01*
Y8016D01*
X4132D01*
Y8026D01*
X4123D01*
Y8045D01*
X4114D01*
Y8054D01*
X4104D01*
Y8073D01*
X4095D01*
Y8082D01*
X4085D01*
Y8111D01*
X4076D01*
Y8120D01*
X4066D01*
Y8139D01*
X4057D01*
Y8158D01*
X4048D01*
Y8167D01*
X4038D01*
Y8177D01*
X4029D01*
Y8196D01*
X4019D01*
Y8214D01*
X4010D01*
Y8224D01*
X4000D01*
Y8243D01*
X3991D01*
Y8252D01*
X3982D01*
Y8271D01*
X3972D01*
Y8280D01*
X3963D01*
Y8299D01*
X3953D01*
Y8318D01*
X3944D01*
Y8327D01*
X3934D01*
Y8337D01*
X3925D01*
Y8346D01*
X3916D01*
Y8365D01*
X3906D01*
Y8384D01*
X3897D01*
Y8393D01*
X3887D01*
Y8412D01*
X3878D01*
Y8431D01*
X3868D01*
Y8450D01*
X3859D01*
Y8459D01*
X3850D01*
Y8478D01*
X3840D01*
Y8488D01*
X3831D01*
Y8497D01*
X3821D01*
Y8516D01*
X3812D01*
Y8525D01*
X3803D01*
Y8544D01*
X3793D01*
Y8554D01*
X3784D01*
Y8573D01*
X3774D01*
Y8582D01*
X3765D01*
Y8601D01*
X3755D01*
Y8610D01*
X3746D01*
Y8620D01*
X3737D01*
Y8629D01*
X3727D01*
Y8648D01*
X3718D01*
Y8657D01*
X3708D01*
Y8667D01*
X3699D01*
Y8676D01*
X3689D01*
Y8714D01*
X3699D01*
X3708D01*
Y8704D01*
X3718D01*
Y8695D01*
X3727D01*
Y8686D01*
X3737D01*
Y8676D01*
X3746D01*
Y8667D01*
X3755D01*
Y8657D01*
X3765D01*
X3774D01*
Y8648D01*
X3784D01*
Y8639D01*
X3793D01*
Y8629D01*
X3803D01*
Y8620D01*
X3812D01*
Y8610D01*
X3821D01*
X3831D01*
Y8601D01*
X3840D01*
Y8591D01*
X3850D01*
Y8582D01*
X3859D01*
Y8573D01*
X3868D01*
X3878D01*
Y8563D01*
X3887D01*
Y8554D01*
X3897D01*
X3906D01*
Y8544D01*
X3916D01*
X3925D01*
Y8535D01*
X3934D01*
Y8516D01*
X3944D01*
Y8507D01*
X3953D01*
X3963D01*
Y8497D01*
X3972D01*
Y8507D01*
X3982D01*
X3991D01*
X4000D01*
X4010D01*
X4019D01*
Y8497D01*
X4029D01*
X4038D01*
X4048D01*
Y8488D01*
X4057D01*
X4066D01*
Y8497D01*
X4076D01*
Y8507D01*
X4085D01*
Y8535D01*
X4095D01*
Y8554D01*
X4104D01*
X4114D01*
X4123D01*
X4132D01*
X4142D01*
X4151D01*
X4161D01*
Y8544D01*
X4170D01*
X4180D01*
X4189D01*
X4198D01*
X4208D01*
Y8535D01*
X4217D01*
X4227D01*
X4236D01*
Y8525D01*
X4246D01*
X4255D01*
Y8516D01*
X4264D01*
X4274D01*
X4283D01*
Y8497D01*
X4293D01*
Y8450D01*
X4302D01*
Y8422D01*
X4311D01*
Y8403D01*
X4321D01*
Y8384D01*
X4330D01*
Y8365D01*
X4340D01*
Y8346D01*
X4349D01*
Y8337D01*
X4359D01*
Y8318D01*
X4368D01*
X4377D01*
Y8290D01*
X4387D01*
Y8280D01*
X4396D01*
Y8271D01*
X4406D01*
Y8252D01*
X4415D01*
Y8233D01*
X4425D01*
Y8224D01*
X4434D01*
Y8205D01*
X4443D01*
Y8196D01*
X4453D01*
Y8177D01*
X4462D01*
Y8167D01*
X4472D01*
Y8148D01*
X4481D01*
Y8130D01*
X4491D01*
Y8120D01*
X4500D01*
Y8101D01*
X4509D01*
Y8082D01*
X4519D01*
Y8064D01*
X4528D01*
Y8054D01*
X4538D01*
Y8035D01*
X4547D01*
Y8026D01*
X4557D01*
Y8007D01*
X4566D01*
Y7998D01*
X4575D01*
Y7979D01*
X4585D01*
Y7960D01*
X4594D01*
Y7950D01*
X4604D01*
Y7932D01*
X4613D01*
Y7922D01*
X4623D01*
Y7903D01*
X4632D01*
Y7875D01*
X4641D01*
Y7866D01*
X4651D01*
Y7856D01*
X4660D01*
Y7837D01*
X4670D01*
Y7828D01*
X4679D01*
Y7800D01*
X4689D01*
Y7790D01*
X4698D01*
Y7771D01*
X4707D01*
Y7753D01*
X4717D01*
Y7734D01*
X4726D01*
Y7724D01*
X4736D01*
Y7705D01*
X4745D01*
Y7696D01*
X4754D01*
Y7677D01*
X4764D01*
Y7668D01*
X4773D01*
Y7649D01*
X4783D01*
Y7630D01*
X4792D01*
Y7611D01*
X4802D01*
Y7592D01*
X4811D01*
Y7573D01*
X4820D01*
Y7564D01*
X4830D01*
Y7545D01*
X4839D01*
X4849D01*
Y7536D01*
X4839D01*
Y7526D01*
X4849D01*
Y7507D01*
X4858D01*
Y7498D01*
X4868D01*
Y7479D01*
X4877D01*
Y7470D01*
X4886D01*
Y7451D01*
X4896D01*
Y7432D01*
X4905D01*
Y7404D01*
X4915D01*
Y7394D01*
X4924D01*
Y7376D01*
X4934D01*
Y7357D01*
X4943D01*
Y7338D01*
X4952D01*
Y7319D01*
X4962D01*
Y7310D01*
X4971D01*
Y7291D01*
X4981D01*
Y7272D01*
X4990D01*
Y7253D01*
X5000D01*
Y7225D01*
X5009D01*
Y7206D01*
X5018D01*
Y7178D01*
X5028D01*
Y7168D01*
X5037D01*
Y7149D01*
X5047D01*
Y7130D01*
X5056D01*
Y7112D01*
X5066D01*
Y7093D01*
X5075D01*
Y7074D01*
X5084D01*
Y7055D01*
X5094D01*
Y7027D01*
X5103D01*
Y7008D01*
X5113D01*
Y6989D01*
X5122D01*
Y6970D01*
X5131D01*
Y6951D01*
X5141D01*
Y6942D01*
X5150D01*
Y6933D01*
X5141D01*
Y6923D01*
X5150D01*
Y6914D01*
X5160D01*
Y6885D01*
X5169D01*
Y6867D01*
X5179D01*
Y6838D01*
X5188D01*
Y6810D01*
X5197D01*
Y6782D01*
X5207D01*
Y6763D01*
X5216D01*
Y6744D01*
X5226D01*
Y6716D01*
X5235D01*
Y6697D01*
X5245D01*
Y6678D01*
X5254D01*
Y6659D01*
X5263D01*
Y6650D01*
X5273D01*
Y6621D01*
X5282D01*
Y6603D01*
X5292D01*
Y6584D01*
X5301D01*
Y6574D01*
X5311D01*
Y6565D01*
X5320D01*
X5329D01*
Y6555D01*
X5339D01*
X5348D01*
X5358D01*
Y6565D01*
X5367D01*
X5377D01*
Y6574D01*
X5386D01*
Y6669D01*
X5377D01*
Y6706D01*
X5367D01*
Y6753D01*
X5358D01*
Y6763D01*
X5348D01*
Y6772D01*
X5358D01*
Y6782D01*
X5348D01*
Y6810D01*
X5339D01*
Y6857D01*
X5329D01*
Y6904D01*
X5320D01*
Y6933D01*
X5311D01*
Y6980D01*
X5301D01*
Y7008D01*
X5292D01*
Y7055D01*
X5282D01*
Y7093D01*
X5273D01*
Y7140D01*
X5263D01*
Y7159D01*
X5254D01*
Y7187D01*
X5245D01*
Y7215D01*
X5235D01*
Y7253D01*
X5226D01*
Y7281D01*
X5216D01*
Y7319D01*
X5207D01*
Y7347D01*
X5197D01*
Y7385D01*
X5188D01*
Y7423D01*
X5179D01*
Y7451D01*
X5169D01*
Y7489D01*
X5160D01*
Y7507D01*
X5150D01*
Y7536D01*
X5141D01*
Y7564D01*
X5131D01*
Y7592D01*
X5122D01*
Y7621D01*
X5113D01*
Y7649D01*
X5103D01*
Y7687D01*
X5094D01*
Y7715D01*
X5084D01*
Y7753D01*
X5075D01*
Y7781D01*
X5066D01*
Y7809D01*
X5056D01*
Y7818D01*
X5047D01*
Y7847D01*
X5037D01*
Y7875D01*
X5028D01*
Y7913D01*
X5018D01*
Y7932D01*
X5009D01*
Y7969D01*
X5000D01*
Y7988D01*
X4990D01*
Y8026D01*
X4981D01*
Y8054D01*
X4971D01*
Y8092D01*
X4962D01*
Y8111D01*
X4952D01*
Y8130D01*
X4943D01*
Y8158D01*
X4934D01*
Y8177D01*
X4924D01*
Y8196D01*
X4915D01*
Y8233D01*
X4905D01*
Y8261D01*
X4896D01*
Y8280D01*
X4886D01*
Y8309D01*
X4877D01*
Y8337D01*
X4868D01*
Y8365D01*
X4858D01*
Y8375D01*
X4849D01*
Y8384D01*
X4858D01*
Y8393D01*
X4868D01*
X4877D01*
X4886D01*
Y8384D01*
X4896D01*
Y8375D01*
X4905D01*
X4915D01*
X4924D01*
Y8365D01*
X4934D01*
X4943D01*
X4952D01*
X4962D01*
X4971D01*
X4981D01*
X4990D01*
Y8375D01*
X5000D01*
Y8384D01*
X5009D01*
Y8393D01*
X5018D01*
X5028D01*
Y8422D01*
X5037D01*
X5047D01*
X5056D01*
X5066D01*
Y8393D01*
X5075D01*
Y8384D01*
X5084D01*
Y8365D01*
X5094D01*
Y8356D01*
X5103D01*
Y8337D01*
X5113D01*
Y8327D01*
X5122D01*
Y8309D01*
X5131D01*
Y8299D01*
X5141D01*
Y8280D01*
X5150D01*
Y8271D01*
X5160D01*
Y8261D01*
X5169D01*
X5179D01*
Y8252D01*
X5188D01*
X5197D01*
Y8243D01*
X5207D01*
X5216D01*
X5226D01*
X5235D01*
X5245D01*
Y8252D01*
X5254D01*
Y8261D01*
X5263D01*
Y8290D01*
X5273D01*
Y8299D01*
X5263D01*
Y8327D01*
X5273D01*
X5282D01*
Y8318D01*
X5292D01*
Y8309D01*
X5301D01*
Y8290D01*
X5311D01*
Y8280D01*
X5320D01*
Y8261D01*
X5329D01*
Y8243D01*
X5339D01*
Y8233D01*
X5348D01*
Y8214D01*
X5358D01*
Y8205D01*
X5367D01*
Y8196D01*
X5377D01*
Y8177D01*
X5386D01*
Y8167D01*
X5395D01*
Y8148D01*
X5405D01*
Y8130D01*
X5414D01*
Y8120D01*
X5424D01*
Y8111D01*
X5433D01*
Y8092D01*
X5443D01*
Y8073D01*
X5452D01*
Y8064D01*
X5461D01*
Y8054D01*
X5471D01*
Y8045D01*
X5480D01*
Y8026D01*
X5490D01*
Y8007D01*
X5499D01*
Y7998D01*
X5509D01*
Y7969D01*
X5518D01*
Y7960D01*
X5527D01*
Y7941D01*
X5537D01*
Y7932D01*
X5546D01*
Y7913D01*
X5556D01*
Y7903D01*
X5565D01*
Y7884D01*
X5574D01*
Y7875D01*
X5584D01*
Y7856D01*
X5593D01*
Y7837D01*
X5603D01*
Y7828D01*
X5612D01*
Y7809D01*
X5622D01*
Y7790D01*
X5631D01*
Y7771D01*
X5640D01*
Y7753D01*
X5650D01*
Y7734D01*
X5659D01*
Y7715D01*
X5669D01*
Y7705D01*
X5678D01*
Y7677D01*
X5688D01*
Y7658D01*
X5697D01*
Y7639D01*
X5706D01*
Y7621D01*
X5716D01*
Y7592D01*
X5725D01*
Y7573D01*
X5735D01*
Y7555D01*
X5744D01*
Y7526D01*
X5754D01*
Y7517D01*
X5763D01*
Y7498D01*
X5772D01*
Y7479D01*
X5782D01*
Y7460D01*
X5791D01*
Y7441D01*
X5801D01*
Y7423D01*
X5810D01*
Y7394D01*
X5820D01*
Y7376D01*
X5829D01*
Y7357D01*
X5838D01*
Y7338D01*
X5848D01*
Y7319D01*
X5857D01*
Y7300D01*
X5867D01*
Y7281D01*
X5876D01*
Y7262D01*
X5886D01*
Y7244D01*
X5895D01*
Y7225D01*
X5904D01*
Y7196D01*
X5914D01*
Y7178D01*
X5923D01*
Y7159D01*
X5933D01*
Y7140D01*
X5942D01*
Y7121D01*
X5952D01*
Y7093D01*
X5961D01*
Y7083D01*
X5970D01*
Y7064D01*
X5980D01*
Y7046D01*
X5989D01*
Y7017D01*
X5999D01*
Y6998D01*
X6008D01*
Y6980D01*
X6018D01*
Y6961D01*
X6027D01*
Y6942D01*
X6036D01*
Y6914D01*
X6046D01*
Y6895D01*
X6055D01*
X6065D01*
Y6885D01*
X6055D01*
Y6876D01*
X6065D01*
Y6867D01*
X6074D01*
Y6848D01*
X6083D01*
Y6829D01*
X6093D01*
Y6810D01*
X6102D01*
Y6791D01*
X6112D01*
Y6772D01*
X6121D01*
Y6753D01*
X6131D01*
Y6735D01*
X6140D01*
Y6706D01*
X6149D01*
Y6697D01*
X6159D01*
Y6678D01*
X6168D01*
Y6669D01*
X6178D01*
Y6659D01*
X6187D01*
Y6631D01*
X6197D01*
Y6612D01*
X6206D01*
Y6593D01*
X6215D01*
Y6574D01*
X6225D01*
Y6565D01*
X6234D01*
Y6546D01*
X6244D01*
Y6527D01*
X6253D01*
Y6508D01*
X6263D01*
Y6499D01*
X6272D01*
Y6490D01*
X6281D01*
Y6480D01*
X6291D01*
Y6471D01*
X6300D01*
Y6461D01*
X6310D01*
X6319D01*
X6329D01*
X6338D01*
X6347D01*
X6357D01*
Y6471D01*
X6366D01*
X6376D01*
Y6490D01*
X6385D01*
Y6508D01*
X6376D01*
D02*
G37*
G36*
X6071Y10000D02*
X6024D01*
Y10159D01*
Y10167D01*
X6024Y10174D01*
X6023Y10181D01*
X6022Y10187D01*
X6020Y10193D01*
X6019Y10198D01*
X6017Y10203D01*
X6016Y10208D01*
X6015Y10212D01*
X6013Y10215D01*
X6011Y10218D01*
X6010Y10220D01*
X6009Y10222D01*
X6008Y10223D01*
X6007Y10224D01*
Y10225D01*
X6004Y10229D01*
X6000Y10233D01*
X5996Y10235D01*
X5992Y10238D01*
X5984Y10242D01*
X5976Y10245D01*
X5969Y10247D01*
X5965Y10247D01*
X5963Y10248D01*
X5960Y10248D01*
X5952D01*
X5948Y10247D01*
X5939Y10245D01*
X5932Y10242D01*
X5926Y10239D01*
X5921Y10236D01*
X5918Y10233D01*
X5916Y10231D01*
X5915Y10230D01*
Y10230D01*
X5913Y10226D01*
X5911Y10223D01*
X5908Y10214D01*
X5906Y10205D01*
X5904Y10196D01*
X5903Y10187D01*
X5903Y10183D01*
X5902Y10181D01*
Y10178D01*
Y10176D01*
Y10175D01*
Y10174D01*
Y10000D01*
X5856D01*
Y10174D01*
X5856Y10185D01*
X5856Y10194D01*
X5858Y10203D01*
X5859Y10212D01*
X5861Y10219D01*
X5862Y10226D01*
X5864Y10233D01*
X5866Y10238D01*
X5868Y10243D01*
X5871Y10248D01*
X5872Y10251D01*
X5874Y10254D01*
X5875Y10257D01*
X5876Y10258D01*
X5877Y10259D01*
X5877Y10260D01*
X5881Y10265D01*
X5886Y10269D01*
X5891Y10273D01*
X5896Y10276D01*
X5901Y10279D01*
X5907Y10281D01*
X5912Y10283D01*
X5917Y10285D01*
X5922Y10286D01*
X5927Y10287D01*
X5931Y10287D01*
X5934Y10288D01*
X5937Y10288D01*
X5941D01*
X5952Y10288D01*
X5961Y10286D01*
X5970Y10285D01*
X5977Y10282D01*
X5983Y10280D01*
X5985Y10279D01*
X5987Y10278D01*
X5989Y10277D01*
X5990Y10276D01*
X5991Y10276D01*
X5991D01*
X5999Y10271D01*
X6005Y10265D01*
X6011Y10259D01*
X6016Y10253D01*
X6019Y10247D01*
X6022Y10243D01*
X6023Y10241D01*
X6024Y10240D01*
X6024Y10239D01*
Y10391D01*
X6071D01*
Y10000D01*
D02*
G37*
G36*
X2889Y10287D02*
X2896Y10287D01*
X2903Y10286D01*
X2909Y10285D01*
X2914Y10284D01*
X2915Y10284D01*
X2917D01*
X2917Y10283D01*
X2918D01*
X2927Y10281D01*
X2935Y10279D01*
X2944Y10277D01*
X2951Y10274D01*
X2957Y10272D01*
X2960Y10271D01*
X2962Y10270D01*
X2964Y10270D01*
X2965Y10269D01*
X2966Y10269D01*
X2966D01*
Y10223D01*
X2958Y10227D01*
X2950Y10231D01*
X2942Y10235D01*
X2935Y10237D01*
X2929Y10239D01*
X2924Y10241D01*
X2922Y10241D01*
X2921Y10242D01*
X2920Y10242D01*
X2920D01*
X2911Y10245D01*
X2902Y10246D01*
X2894Y10248D01*
X2887Y10248D01*
X2881Y10249D01*
X2878Y10249D01*
X2865D01*
X2859Y10248D01*
X2853Y10248D01*
X2848Y10247D01*
X2843Y10245D01*
X2839Y10244D01*
X2835Y10243D01*
X2832Y10242D01*
X2829Y10240D01*
X2826Y10239D01*
X2824Y10238D01*
X2822Y10236D01*
X2820Y10235D01*
X2819Y10234D01*
X2816Y10231D01*
X2813Y10227D01*
X2809Y10220D01*
X2806Y10211D01*
X2804Y10203D01*
X2802Y10196D01*
X2802Y10193D01*
Y10190D01*
X2801Y10188D01*
Y10186D01*
Y10185D01*
Y10185D01*
Y10178D01*
X2863D01*
X2875Y10177D01*
X2885Y10176D01*
X2894Y10176D01*
X2904Y10174D01*
X2912Y10172D01*
X2919Y10170D01*
X2927Y10168D01*
X2933Y10166D01*
X2938Y10163D01*
X2943Y10161D01*
X2947Y10159D01*
X2950Y10157D01*
X2953Y10155D01*
X2954Y10154D01*
X2956Y10153D01*
X2956Y10153D01*
X2961Y10148D01*
X2966Y10143D01*
X2971Y10137D01*
X2974Y10131D01*
X2977Y10126D01*
X2980Y10120D01*
X2982Y10114D01*
X2984Y10108D01*
X2985Y10103D01*
X2986Y10098D01*
X2986Y10093D01*
X2987Y10089D01*
Y10086D01*
X2987Y10084D01*
Y10082D01*
Y10082D01*
X2987Y10074D01*
X2986Y10067D01*
X2985Y10060D01*
X2983Y10054D01*
X2981Y10048D01*
X2979Y10043D01*
X2977Y10038D01*
X2974Y10034D01*
X2972Y10030D01*
X2970Y10027D01*
X2968Y10023D01*
X2966Y10021D01*
X2964Y10019D01*
X2963Y10018D01*
X2962Y10017D01*
X2962Y10017D01*
X2957Y10012D01*
X2951Y10009D01*
X2946Y10005D01*
X2940Y10003D01*
X2934Y10000D01*
X2929Y9998D01*
X2918Y9995D01*
X2913Y9995D01*
X2908Y9994D01*
X2904Y9993D01*
X2900Y9993D01*
X2897Y9993D01*
X2893D01*
X2882Y9993D01*
X2871Y9994D01*
X2862Y9996D01*
X2854Y9998D01*
X2847Y10000D01*
X2845Y10002D01*
X2843Y10002D01*
X2841Y10003D01*
X2840Y10004D01*
X2839Y10004D01*
X2839D01*
X2831Y10009D01*
X2823Y10015D01*
X2817Y10021D01*
X2812Y10027D01*
X2807Y10033D01*
X2804Y10037D01*
X2803Y10039D01*
X2802Y10040D01*
X2801Y10041D01*
Y10000D01*
X2755D01*
Y10160D01*
Y10167D01*
Y10173D01*
X2755Y10179D01*
X2756Y10184D01*
Y10189D01*
X2756Y10194D01*
X2756Y10198D01*
X2757Y10202D01*
X2757Y10205D01*
X2758Y10208D01*
X2758Y10210D01*
Y10212D01*
X2758Y10213D01*
X2759Y10215D01*
Y10215D01*
X2761Y10222D01*
X2763Y10228D01*
X2765Y10234D01*
X2767Y10238D01*
X2769Y10242D01*
X2771Y10245D01*
X2772Y10246D01*
X2773Y10247D01*
X2778Y10254D01*
X2785Y10260D01*
X2792Y10266D01*
X2798Y10270D01*
X2804Y10273D01*
X2808Y10276D01*
X2810Y10277D01*
X2811Y10277D01*
X2812Y10278D01*
X2813D01*
X2822Y10281D01*
X2832Y10284D01*
X2842Y10286D01*
X2852Y10287D01*
X2856Y10287D01*
X2860Y10288D01*
X2863D01*
X2866Y10288D01*
X2880D01*
X2889Y10287D01*
D02*
G37*
G36*
X2651Y10000D02*
X2603D01*
Y10113D01*
X2569Y10145D01*
X2465Y10000D01*
X2409D01*
X2537Y10175D01*
X2426Y10281D01*
X2482D01*
X2603Y10164D01*
Y10391D01*
X2651D01*
Y10000D01*
D02*
G37*
G36*
X5784Y10139D02*
X5518D01*
Y10182D01*
X5784D01*
Y10139D01*
D02*
G37*
G36*
X6690Y10106D02*
X6690Y10096D01*
X6690Y10086D01*
X6688Y10077D01*
X6687Y10069D01*
X6686Y10061D01*
X6684Y10054D01*
X6682Y10048D01*
X6680Y10042D01*
X6678Y10037D01*
X6676Y10033D01*
X6675Y10029D01*
X6673Y10026D01*
X6672Y10024D01*
X6671Y10022D01*
X6670Y10021D01*
X6670Y10021D01*
X6666Y10016D01*
X6661Y10012D01*
X6656Y10008D01*
X6651Y10005D01*
X6645Y10002D01*
X6640Y10000D01*
X6629Y9996D01*
X6625Y9995D01*
X6620Y9994D01*
X6616Y9993D01*
X6612Y9993D01*
X6609Y9993D01*
X6605D01*
X6595Y9993D01*
X6586Y9995D01*
X6577Y9997D01*
X6570Y9999D01*
X6564Y10001D01*
X6559Y10003D01*
X6558Y10004D01*
X6557Y10005D01*
X6556Y10005D01*
X6556D01*
X6548Y10010D01*
X6542Y10016D01*
X6536Y10022D01*
X6531Y10028D01*
X6527Y10034D01*
X6524Y10038D01*
X6523Y10040D01*
X6522Y10041D01*
X6522Y10042D01*
Y10000D01*
X6475D01*
Y10281D01*
X6522D01*
Y10121D01*
Y10114D01*
X6523Y10107D01*
X6524Y10099D01*
X6525Y10093D01*
X6526Y10087D01*
X6527Y10082D01*
X6529Y10077D01*
X6531Y10072D01*
X6532Y10069D01*
X6534Y10065D01*
X6535Y10062D01*
X6537Y10060D01*
X6538Y10058D01*
X6539Y10057D01*
X6539Y10056D01*
X6539Y10056D01*
X6543Y10052D01*
X6547Y10048D01*
X6551Y10045D01*
X6554Y10042D01*
X6563Y10038D01*
X6571Y10036D01*
X6578Y10034D01*
X6582Y10034D01*
X6584Y10033D01*
X6586Y10033D01*
X6589D01*
X6599Y10034D01*
X6608Y10036D01*
X6615Y10038D01*
X6621Y10042D01*
X6625Y10045D01*
X6629Y10047D01*
X6630Y10050D01*
X6631Y10050D01*
X6633Y10054D01*
X6636Y10058D01*
X6639Y10067D01*
X6641Y10076D01*
X6643Y10085D01*
X6643Y10093D01*
X6644Y10097D01*
Y10100D01*
X6644Y10102D01*
Y10104D01*
Y10106D01*
Y10106D01*
Y10281D01*
X6690D01*
Y10106D01*
D02*
G37*
G36*
X5141D02*
X5140Y10096D01*
X5140Y10086D01*
X5139Y10077D01*
X5138Y10069D01*
X5136Y10061D01*
X5134Y10054D01*
X5133Y10048D01*
X5131Y10042D01*
X5128Y10037D01*
X5127Y10033D01*
X5125Y10029D01*
X5123Y10026D01*
X5122Y10024D01*
X5121Y10022D01*
X5121Y10021D01*
X5120Y10021D01*
X5116Y10016D01*
X5111Y10012D01*
X5106Y10008D01*
X5101Y10005D01*
X5096Y10002D01*
X5091Y10000D01*
X5080Y9996D01*
X5075Y9995D01*
X5071Y9994D01*
X5066Y9993D01*
X5063Y9993D01*
X5060Y9993D01*
X5056D01*
X5045Y9993D01*
X5036Y9995D01*
X5027Y9997D01*
X5020Y9999D01*
X5014Y10001D01*
X5010Y10003D01*
X5008Y10004D01*
X5007Y10005D01*
X5007Y10005D01*
X5006D01*
X4999Y10010D01*
X4992Y10016D01*
X4986Y10022D01*
X4981Y10028D01*
X4977Y10034D01*
X4974Y10038D01*
X4974Y10040D01*
X4973Y10041D01*
X4972Y10042D01*
Y10000D01*
X4926D01*
Y10281D01*
X4972D01*
Y10121D01*
Y10114D01*
X4973Y10107D01*
X4974Y10099D01*
X4975Y10093D01*
X4977Y10087D01*
X4978Y10082D01*
X4979Y10077D01*
X4981Y10072D01*
X4983Y10069D01*
X4984Y10065D01*
X4986Y10062D01*
X4987Y10060D01*
X4988Y10058D01*
X4989Y10057D01*
X4989Y10056D01*
X4990Y10056D01*
X4993Y10052D01*
X4997Y10048D01*
X5001Y10045D01*
X5005Y10042D01*
X5013Y10038D01*
X5021Y10036D01*
X5029Y10034D01*
X5032Y10034D01*
X5034Y10033D01*
X5036Y10033D01*
X5040D01*
X5050Y10034D01*
X5058Y10036D01*
X5065Y10038D01*
X5071Y10042D01*
X5076Y10045D01*
X5079Y10047D01*
X5081Y10050D01*
X5081Y10050D01*
X5084Y10054D01*
X5086Y10058D01*
X5089Y10067D01*
X5091Y10076D01*
X5093Y10085D01*
X5094Y10093D01*
X5094Y10097D01*
Y10100D01*
X5095Y10102D01*
Y10104D01*
Y10106D01*
Y10106D01*
Y10281D01*
X5141D01*
Y10106D01*
D02*
G37*
G36*
X2042Y10106D02*
X2041Y10096D01*
X2041Y10086D01*
X2040Y10077D01*
X2038Y10069D01*
X2037Y10061D01*
X2035Y10054D01*
X2033Y10048D01*
X2031Y10042D01*
X2029Y10037D01*
X2028Y10033D01*
X2026Y10029D01*
X2024Y10026D01*
X2023Y10024D01*
X2022Y10022D01*
X2021Y10021D01*
X2021Y10021D01*
X2017Y10016D01*
X2012Y10012D01*
X2007Y10008D01*
X2002Y10005D01*
X1996Y10002D01*
X1991Y10000D01*
X1981Y9996D01*
X1976Y9995D01*
X1971Y9994D01*
X1967Y9993D01*
X1963Y9993D01*
X1961Y9993D01*
X1956D01*
X1946Y9993D01*
X1937Y9995D01*
X1928Y9997D01*
X1921Y9999D01*
X1915Y10001D01*
X1911Y10003D01*
X1909Y10004D01*
X1908Y10005D01*
X1907Y10005D01*
X1907D01*
X1899Y10010D01*
X1893Y10016D01*
X1887Y10022D01*
X1882Y10028D01*
X1878Y10034D01*
X1875Y10038D01*
X1874Y10040D01*
X1874Y10041D01*
X1873Y10042D01*
Y10000D01*
X1827D01*
Y10281D01*
X1873D01*
Y10121D01*
Y10114D01*
X1874Y10106D01*
X1875Y10099D01*
X1876Y10093D01*
X1877Y10087D01*
X1879Y10082D01*
X1880Y10077D01*
X1882Y10072D01*
X1884Y10069D01*
X1885Y10065D01*
X1887Y10062D01*
X1888Y10060D01*
X1889Y10058D01*
X1890Y10057D01*
X1890Y10056D01*
X1891Y10056D01*
X1894Y10052D01*
X1898Y10048D01*
X1902Y10045D01*
X1906Y10042D01*
X1914Y10038D01*
X1922Y10036D01*
X1929Y10034D01*
X1933Y10034D01*
X1935Y10033D01*
X1937Y10033D01*
X1941D01*
X1951Y10034D01*
X1959Y10036D01*
X1966Y10038D01*
X1972Y10042D01*
X1976Y10045D01*
X1980Y10047D01*
X1981Y10050D01*
X1982Y10050D01*
X1985Y10054D01*
X1987Y10058D01*
X1990Y10067D01*
X1992Y10076D01*
X1994Y10085D01*
X1995Y10093D01*
X1995Y10097D01*
Y10100D01*
X1996Y10102D01*
Y10104D01*
Y10106D01*
Y10106D01*
Y10281D01*
X2042D01*
Y10106D01*
D02*
G37*
G36*
X3178Y10288D02*
X3189Y10287D01*
X3198Y10285D01*
X3207Y10282D01*
X3216Y10279D01*
X3224Y10275D01*
X3231Y10272D01*
X3238Y10268D01*
X3244Y10264D01*
X3249Y10261D01*
X3253Y10258D01*
X3257Y10254D01*
X3260Y10252D01*
X3262Y10250D01*
X3263Y10248D01*
X3263Y10248D01*
X3270Y10240D01*
X3276Y10232D01*
X3280Y10223D01*
X3284Y10214D01*
X3288Y10205D01*
X3291Y10196D01*
X3293Y10188D01*
X3295Y10179D01*
X3297Y10171D01*
X3298Y10164D01*
X3298Y10157D01*
X3299Y10152D01*
Y10147D01*
X3300Y10144D01*
Y10141D01*
Y10141D01*
X3299Y10128D01*
X3298Y10116D01*
X3296Y10105D01*
X3294Y10094D01*
X3291Y10084D01*
X3288Y10076D01*
X3285Y10068D01*
X3281Y10060D01*
X3278Y10054D01*
X3275Y10048D01*
X3271Y10043D01*
X3269Y10039D01*
X3266Y10036D01*
X3265Y10034D01*
X3263Y10032D01*
X3263Y10032D01*
X3256Y10025D01*
X3248Y10019D01*
X3240Y10014D01*
X3231Y10010D01*
X3223Y10006D01*
X3214Y10002D01*
X3206Y10000D01*
X3198Y9998D01*
X3190Y9996D01*
X3183Y9995D01*
X3177Y9994D01*
X3171Y9994D01*
X3167Y9993D01*
X3163Y9993D01*
X3160D01*
X3152Y9993D01*
X3143Y9994D01*
X3135Y9995D01*
X3128Y9996D01*
X3122Y9997D01*
X3119Y9997D01*
X3117Y9998D01*
X3115Y9998D01*
X3114D01*
X3113Y9998D01*
X3113D01*
X3104Y10000D01*
X3095Y10003D01*
X3086Y10005D01*
X3078Y10008D01*
X3072Y10010D01*
X3069Y10012D01*
X3067Y10012D01*
X3065Y10013D01*
X3063Y10014D01*
X3063Y10014D01*
X3062D01*
Y10060D01*
X3072Y10055D01*
X3082Y10051D01*
X3090Y10047D01*
X3098Y10044D01*
X3105Y10042D01*
X3107Y10041D01*
X3110Y10040D01*
X3111Y10040D01*
X3112Y10039D01*
X3113Y10039D01*
X3114D01*
X3122Y10037D01*
X3131Y10035D01*
X3139Y10034D01*
X3146Y10033D01*
X3152Y10032D01*
X3156Y10032D01*
X3160D01*
X3168Y10032D01*
X3175Y10033D01*
X3182Y10035D01*
X3189Y10036D01*
X3195Y10038D01*
X3201Y10040D01*
X3206Y10042D01*
X3210Y10045D01*
X3214Y10047D01*
X3218Y10049D01*
X3221Y10051D01*
X3223Y10053D01*
X3225Y10054D01*
X3226Y10056D01*
X3227Y10057D01*
X3228Y10057D01*
X3232Y10062D01*
X3236Y10068D01*
X3239Y10074D01*
X3241Y10080D01*
X3243Y10087D01*
X3245Y10094D01*
X3247Y10108D01*
X3248Y10114D01*
X3249Y10120D01*
Y10126D01*
X3249Y10130D01*
Y10134D01*
Y10137D01*
Y10139D01*
Y10140D01*
Y10141D01*
X3049D01*
Y10164D01*
X3050Y10173D01*
X3051Y10183D01*
X3053Y10191D01*
X3055Y10199D01*
X3058Y10207D01*
X3060Y10214D01*
X3064Y10221D01*
X3067Y10227D01*
X3070Y10233D01*
X3073Y10238D01*
X3075Y10242D01*
X3078Y10245D01*
X3080Y10248D01*
X3081Y10250D01*
X3082Y10251D01*
X3083Y10252D01*
X3088Y10258D01*
X3095Y10264D01*
X3102Y10269D01*
X3109Y10273D01*
X3116Y10276D01*
X3123Y10280D01*
X3130Y10282D01*
X3136Y10284D01*
X3142Y10285D01*
X3148Y10286D01*
X3154Y10287D01*
X3158Y10288D01*
X3162D01*
X3164Y10288D01*
X3167D01*
X3178Y10288D01*
D02*
G37*
G36*
X7000Y10000D02*
X6949D01*
Y10151D01*
X6891D01*
X6879Y10151D01*
X6869Y10152D01*
X6859Y10153D01*
X6849Y10156D01*
X6841Y10158D01*
X6833Y10160D01*
X6826Y10163D01*
X6819Y10165D01*
X6814Y10168D01*
X6809Y10171D01*
X6805Y10173D01*
X6802Y10175D01*
X6799Y10177D01*
X6797Y10178D01*
X6796Y10179D01*
X6795Y10179D01*
X6790Y10185D01*
X6785Y10191D01*
X6780Y10198D01*
X6777Y10204D01*
X6773Y10211D01*
X6771Y10218D01*
X6769Y10225D01*
X6767Y10232D01*
X6766Y10238D01*
X6765Y10244D01*
X6764Y10249D01*
X6763Y10254D01*
X6763Y10258D01*
Y10260D01*
Y10263D01*
Y10263D01*
X6763Y10273D01*
X6764Y10282D01*
X6766Y10291D01*
X6768Y10299D01*
X6770Y10307D01*
X6773Y10314D01*
X6776Y10320D01*
X6779Y10325D01*
X6782Y10330D01*
X6785Y10334D01*
X6788Y10338D01*
X6790Y10341D01*
X6792Y10344D01*
X6794Y10345D01*
X6795Y10346D01*
X6795Y10347D01*
X6802Y10352D01*
X6809Y10356D01*
X6816Y10360D01*
X6824Y10363D01*
X6832Y10366D01*
X6840Y10368D01*
X6848Y10370D01*
X6855Y10371D01*
X6862Y10373D01*
X6869Y10374D01*
X6875Y10374D01*
X6880Y10375D01*
X6885Y10375D01*
X7000D01*
Y10000D01*
D02*
G37*
G36*
X5450D02*
X5400D01*
Y10151D01*
X5341D01*
X5330Y10151D01*
X5319Y10152D01*
X5309Y10153D01*
X5299Y10156D01*
X5291Y10158D01*
X5283Y10160D01*
X5276Y10163D01*
X5270Y10165D01*
X5264Y10168D01*
X5259Y10171D01*
X5255Y10173D01*
X5252Y10175D01*
X5249Y10177D01*
X5247Y10178D01*
X5246Y10179D01*
X5246Y10179D01*
X5240Y10185D01*
X5235Y10191D01*
X5231Y10198D01*
X5227Y10204D01*
X5224Y10211D01*
X5221Y10218D01*
X5219Y10225D01*
X5217Y10232D01*
X5216Y10238D01*
X5215Y10244D01*
X5214Y10249D01*
X5214Y10254D01*
X5213Y10258D01*
Y10260D01*
Y10263D01*
Y10263D01*
X5214Y10273D01*
X5215Y10282D01*
X5216Y10291D01*
X5218Y10299D01*
X5221Y10307D01*
X5224Y10314D01*
X5227Y10320D01*
X5229Y10325D01*
X5232Y10330D01*
X5235Y10334D01*
X5238Y10338D01*
X5241Y10341D01*
X5243Y10344D01*
X5244Y10345D01*
X5245Y10346D01*
X5246Y10347D01*
X5252Y10352D01*
X5259Y10356D01*
X5267Y10360D01*
X5274Y10363D01*
X5282Y10366D01*
X5290Y10368D01*
X5298Y10370D01*
X5306Y10371D01*
X5313Y10373D01*
X5319Y10374D01*
X5326Y10374D01*
X5331Y10375D01*
X5335Y10375D01*
X5450D01*
Y10000D01*
D02*
G37*
G36*
X4820Y10356D02*
X4746D01*
Y10101D01*
X4745Y10093D01*
X4745Y10084D01*
X4744Y10077D01*
X4742Y10069D01*
X4740Y10062D01*
X4739Y10056D01*
X4737Y10051D01*
X4734Y10046D01*
X4732Y10041D01*
X4730Y10037D01*
X4728Y10034D01*
X4727Y10031D01*
X4725Y10029D01*
X4724Y10027D01*
X4724Y10027D01*
X4723Y10026D01*
X4719Y10022D01*
X4714Y10017D01*
X4709Y10014D01*
X4704Y10011D01*
X4698Y10009D01*
X4693Y10006D01*
X4682Y10003D01*
X4678Y10002D01*
X4673Y10001D01*
X4670Y10001D01*
X4666Y10000D01*
X4663Y10000D01*
X4601D01*
Y10039D01*
X4655D01*
X4663Y10040D01*
X4669Y10042D01*
X4675Y10044D01*
X4680Y10047D01*
X4684Y10050D01*
X4686Y10052D01*
X4688Y10054D01*
X4688Y10055D01*
X4692Y10062D01*
X4695Y10069D01*
X4697Y10077D01*
X4698Y10084D01*
X4699Y10091D01*
Y10094D01*
X4700Y10097D01*
Y10099D01*
Y10100D01*
Y10101D01*
Y10101D01*
Y10392D01*
X4820D01*
Y10356D01*
D02*
G37*
G36*
X4510D02*
X4436D01*
Y10101D01*
X4435Y10093D01*
X4435Y10084D01*
X4434Y10077D01*
X4432Y10069D01*
X4430Y10062D01*
X4429Y10056D01*
X4427Y10051D01*
X4425Y10046D01*
X4422Y10041D01*
X4420Y10037D01*
X4418Y10034D01*
X4417Y10031D01*
X4415Y10029D01*
X4414Y10027D01*
X4414Y10027D01*
X4413Y10026D01*
X4409Y10022D01*
X4404Y10017D01*
X4399Y10014D01*
X4394Y10011D01*
X4388Y10009D01*
X4383Y10006D01*
X4373Y10003D01*
X4368Y10002D01*
X4363Y10001D01*
X4360Y10001D01*
X4356Y10000D01*
X4353Y10000D01*
X4291D01*
Y10039D01*
X4345D01*
X4353Y10040D01*
X4359Y10042D01*
X4365Y10044D01*
X4370Y10047D01*
X4374Y10050D01*
X4376Y10052D01*
X4378Y10054D01*
X4378Y10055D01*
X4382Y10062D01*
X4385Y10069D01*
X4387Y10077D01*
X4388Y10084D01*
X4389Y10091D01*
Y10094D01*
X4390Y10097D01*
Y10099D01*
Y10100D01*
Y10101D01*
Y10101D01*
Y10392D01*
X4510D01*
Y10356D01*
D02*
G37*
G36*
X3909Y10000D02*
X3798D01*
X3786Y10000D01*
X3774Y10001D01*
X3764Y10002D01*
X3754Y10004D01*
X3745Y10006D01*
X3737Y10008D01*
X3730Y10010D01*
X3723Y10013D01*
X3717Y10015D01*
X3712Y10017D01*
X3708Y10020D01*
X3704Y10022D01*
X3702Y10023D01*
X3700Y10025D01*
X3699Y10025D01*
X3698Y10026D01*
X3692Y10031D01*
X3687Y10037D01*
X3682Y10042D01*
X3679Y10049D01*
X3675Y10055D01*
X3673Y10062D01*
X3670Y10068D01*
X3669Y10074D01*
X3667Y10080D01*
X3666Y10085D01*
X3665Y10090D01*
X3665Y10094D01*
Y10098D01*
X3665Y10101D01*
Y10102D01*
Y10103D01*
X3665Y10112D01*
X3665Y10121D01*
X3667Y10129D01*
X3668Y10136D01*
X3670Y10143D01*
X3671Y10149D01*
X3673Y10155D01*
X3675Y10160D01*
X3677Y10164D01*
X3679Y10168D01*
X3681Y10171D01*
X3682Y10174D01*
X3684Y10176D01*
X3685Y10178D01*
X3685Y10178D01*
X3686Y10179D01*
X3690Y10183D01*
X3694Y10188D01*
X3699Y10191D01*
X3704Y10195D01*
X3713Y10201D01*
X3722Y10205D01*
X3731Y10208D01*
X3734Y10208D01*
X3737Y10209D01*
X3740Y10210D01*
X3742Y10210D01*
X3743Y10210D01*
X3744D01*
X3732Y10213D01*
X3722Y10217D01*
X3714Y10221D01*
X3707Y10225D01*
X3701Y10229D01*
X3697Y10232D01*
X3695Y10235D01*
X3694Y10235D01*
X3689Y10243D01*
X3685Y10251D01*
X3682Y10258D01*
X3680Y10265D01*
X3679Y10271D01*
X3678Y10276D01*
X3678Y10277D01*
Y10279D01*
Y10280D01*
Y10280D01*
X3678Y10288D01*
X3679Y10296D01*
X3681Y10303D01*
X3683Y10310D01*
X3685Y10317D01*
X3688Y10322D01*
X3690Y10327D01*
X3693Y10332D01*
X3696Y10336D01*
X3699Y10340D01*
X3702Y10343D01*
X3704Y10346D01*
X3706Y10348D01*
X3708Y10349D01*
X3709Y10350D01*
X3709Y10350D01*
X3715Y10355D01*
X3722Y10359D01*
X3729Y10362D01*
X3736Y10365D01*
X3744Y10367D01*
X3751Y10369D01*
X3765Y10372D01*
X3772Y10373D01*
X3778Y10374D01*
X3783Y10374D01*
X3788Y10375D01*
X3793Y10375D01*
X3909D01*
Y10000D01*
D02*
G37*
G36*
X3422Y10287D02*
X3433Y10286D01*
X3443Y10283D01*
X3451Y10280D01*
X3455Y10279D01*
X3458Y10277D01*
X3461Y10276D01*
X3463Y10275D01*
X3465Y10274D01*
X3466Y10273D01*
X3467Y10272D01*
X3467D01*
X3476Y10265D01*
X3483Y10258D01*
X3489Y10251D01*
X3494Y10243D01*
X3498Y10237D01*
X3499Y10234D01*
X3501Y10231D01*
X3501Y10229D01*
X3502Y10228D01*
X3503Y10227D01*
Y10281D01*
X3549D01*
Y10000D01*
X3503D01*
Y10140D01*
X3502Y10149D01*
X3502Y10158D01*
X3501Y10166D01*
X3499Y10173D01*
X3497Y10181D01*
X3496Y10187D01*
X3494Y10193D01*
X3491Y10198D01*
X3489Y10203D01*
X3487Y10207D01*
X3485Y10210D01*
X3484Y10213D01*
X3482Y10215D01*
X3481Y10217D01*
X3481Y10218D01*
X3480Y10218D01*
X3476Y10223D01*
X3471Y10227D01*
X3466Y10231D01*
X3460Y10234D01*
X3455Y10237D01*
X3449Y10239D01*
X3439Y10242D01*
X3434Y10243D01*
X3429Y10244D01*
X3425Y10245D01*
X3421Y10245D01*
X3418Y10245D01*
X3414D01*
X3407Y10245D01*
X3401Y10245D01*
X3395Y10244D01*
X3390Y10243D01*
X3386Y10242D01*
X3383Y10241D01*
X3381Y10240D01*
X3380Y10240D01*
X3375Y10238D01*
X3369Y10235D01*
X3364Y10233D01*
X3360Y10230D01*
X3355Y10227D01*
X3353Y10225D01*
X3351Y10224D01*
X3350Y10223D01*
Y10271D01*
X3355Y10274D01*
X3360Y10277D01*
X3365Y10279D01*
X3370Y10280D01*
X3373Y10282D01*
X3376Y10283D01*
X3378Y10284D01*
X3379D01*
X3384Y10285D01*
X3390Y10286D01*
X3395Y10287D01*
X3400Y10288D01*
X3404D01*
X3407Y10288D01*
X3410D01*
X3422Y10287D01*
D02*
G37*
G36*
X1673Y10281D02*
X1748D01*
Y10245D01*
X1673D01*
Y10093D01*
X1672Y10084D01*
X1672Y10075D01*
X1671Y10067D01*
X1669Y10060D01*
X1668Y10053D01*
X1666Y10047D01*
X1664Y10042D01*
X1662Y10037D01*
X1660Y10034D01*
X1658Y10030D01*
X1656Y10027D01*
X1655Y10025D01*
X1654Y10023D01*
X1652Y10022D01*
X1652Y10021D01*
X1651Y10021D01*
X1647Y10017D01*
X1642Y10014D01*
X1637Y10011D01*
X1631Y10009D01*
X1619Y10005D01*
X1607Y10002D01*
X1601Y10002D01*
X1596Y10001D01*
X1591Y10001D01*
X1587Y10000D01*
X1583Y10000D01*
X1522D01*
Y10037D01*
X1579D01*
X1584Y10037D01*
X1592Y10039D01*
X1599Y10041D01*
X1605Y10043D01*
X1609Y10045D01*
X1612Y10047D01*
X1614Y10049D01*
X1615Y10049D01*
X1617Y10052D01*
X1619Y10054D01*
X1622Y10061D01*
X1624Y10068D01*
X1625Y10076D01*
X1626Y10082D01*
X1626Y10085D01*
X1627Y10088D01*
Y10090D01*
Y10092D01*
Y10092D01*
Y10093D01*
Y10245D01*
X1522D01*
Y10281D01*
X1627D01*
Y10361D01*
X1673D01*
Y10281D01*
D02*
G37*
G36*
X6279Y10288D02*
X6288Y10287D01*
X6296Y10286D01*
X6304Y10285D01*
X6311Y10283D01*
X6317Y10281D01*
X6323Y10279D01*
X6328Y10277D01*
X6333Y10275D01*
X6337Y10273D01*
X6340Y10271D01*
X6343Y10270D01*
X6345Y10268D01*
X6347Y10267D01*
X6348Y10267D01*
X6348Y10266D01*
X6353Y10262D01*
X6357Y10257D01*
X6361Y10252D01*
X6364Y10247D01*
X6366Y10242D01*
X6369Y10237D01*
X6372Y10227D01*
X6373Y10222D01*
X6374Y10218D01*
X6374Y10213D01*
X6375Y10210D01*
X6375Y10207D01*
Y10205D01*
Y10204D01*
Y10203D01*
X6375Y10198D01*
X6374Y10192D01*
X6372Y10182D01*
X6369Y10173D01*
X6366Y10166D01*
X6363Y10160D01*
X6360Y10156D01*
X6359Y10155D01*
X6358Y10153D01*
X6357Y10153D01*
Y10153D01*
X6353Y10149D01*
X6349Y10146D01*
X6340Y10141D01*
X6330Y10136D01*
X6321Y10133D01*
X6312Y10130D01*
X6309Y10129D01*
X6305Y10129D01*
X6302Y10128D01*
X6300Y10127D01*
X6299Y10127D01*
X6299D01*
X6282Y10123D01*
X6279Y10123D01*
X6269Y10120D01*
X6259Y10117D01*
X6251Y10114D01*
X6244Y10111D01*
X6237Y10107D01*
X6232Y10103D01*
X6228Y10099D01*
X6225Y10096D01*
X6223Y10092D01*
X6221Y10089D01*
X6220Y10086D01*
X6218Y10084D01*
X6218Y10081D01*
X6217Y10079D01*
Y10079D01*
Y10078D01*
X6218Y10070D01*
X6220Y10063D01*
X6223Y10057D01*
X6226Y10052D01*
X6229Y10048D01*
X6232Y10046D01*
X6234Y10044D01*
X6235Y10043D01*
X6241Y10039D01*
X6249Y10036D01*
X6257Y10034D01*
X6265Y10033D01*
X6271Y10032D01*
X6274Y10032D01*
X6277Y10031D01*
X6282D01*
X6290Y10032D01*
X6298Y10032D01*
X6306Y10033D01*
X6312Y10035D01*
X6318Y10036D01*
X6323Y10037D01*
X6324Y10037D01*
X6326D01*
X6327Y10038D01*
X6327D01*
X6336Y10041D01*
X6344Y10044D01*
X6353Y10047D01*
X6360Y10050D01*
X6366Y10053D01*
X6369Y10055D01*
X6371Y10056D01*
X6374Y10057D01*
X6375Y10057D01*
X6376Y10058D01*
X6376D01*
Y10010D01*
X6366Y10007D01*
X6357Y10004D01*
X6349Y10002D01*
X6341Y10000D01*
X6336Y9999D01*
X6333Y9998D01*
X6331Y9998D01*
X6329Y9998D01*
X6328D01*
X6327Y9997D01*
X6327D01*
X6319Y9995D01*
X6310Y9995D01*
X6303Y9994D01*
X6297Y9993D01*
X6291D01*
X6287Y9993D01*
X6283D01*
X6274Y9993D01*
X6265Y9993D01*
X6256Y9995D01*
X6248Y9996D01*
X6241Y9998D01*
X6234Y10000D01*
X6228Y10002D01*
X6222Y10004D01*
X6217Y10006D01*
X6213Y10008D01*
X6209Y10010D01*
X6206Y10012D01*
X6204Y10014D01*
X6202Y10015D01*
X6201Y10015D01*
X6201Y10016D01*
X6195Y10020D01*
X6191Y10025D01*
X6187Y10031D01*
X6183Y10036D01*
X6180Y10042D01*
X6178Y10047D01*
X6176Y10052D01*
X6175Y10057D01*
X6173Y10062D01*
X6173Y10067D01*
X6172Y10071D01*
X6171Y10074D01*
X6171Y10077D01*
Y10079D01*
Y10081D01*
Y10081D01*
Y10087D01*
X6172Y10092D01*
X6174Y10102D01*
X6177Y10111D01*
X6180Y10118D01*
X6183Y10124D01*
X6186Y10129D01*
X6187Y10130D01*
X6188Y10131D01*
X6188Y10131D01*
X6189Y10132D01*
X6196Y10139D01*
X6205Y10144D01*
X6213Y10149D01*
X6222Y10153D01*
X6229Y10155D01*
X6232Y10156D01*
X6235Y10157D01*
X6237Y10157D01*
X6239Y10158D01*
X6240Y10158D01*
X6241D01*
X6260Y10162D01*
X6268Y10163D01*
X6275Y10165D01*
X6282Y10167D01*
X6288Y10168D01*
X6293Y10170D01*
X6298Y10171D01*
X6302Y10173D01*
X6306Y10174D01*
X6309Y10175D01*
X6311Y10176D01*
X6313Y10177D01*
X6315Y10178D01*
X6317Y10179D01*
X6317Y10180D01*
X6321Y10184D01*
X6324Y10188D01*
X6326Y10193D01*
X6327Y10198D01*
X6328Y10202D01*
X6329Y10205D01*
Y10207D01*
Y10208D01*
X6328Y10215D01*
X6326Y10222D01*
X6324Y10227D01*
X6321Y10231D01*
X6318Y10235D01*
X6316Y10237D01*
X6314Y10239D01*
X6313Y10239D01*
X6307Y10243D01*
X6299Y10245D01*
X6292Y10247D01*
X6284Y10248D01*
X6277Y10249D01*
X6274D01*
X6271Y10250D01*
X6266D01*
X6258Y10249D01*
X6251Y10249D01*
X6244Y10248D01*
X6238Y10247D01*
X6233Y10245D01*
X6229Y10245D01*
X6226Y10244D01*
X6226Y10244D01*
X6225D01*
X6218Y10241D01*
X6210Y10239D01*
X6204Y10236D01*
X6198Y10233D01*
X6193Y10230D01*
X6188Y10228D01*
X6186Y10227D01*
X6185Y10226D01*
X6185D01*
Y10272D01*
X6193Y10275D01*
X6200Y10277D01*
X6207Y10279D01*
X6213Y10281D01*
X6219Y10282D01*
X6223Y10283D01*
X6224Y10284D01*
X6225Y10284D01*
X6226D01*
X6242Y10287D01*
X6249Y10287D01*
X6256Y10288D01*
X6262Y10288D01*
X6270D01*
X6279Y10288D01*
D02*
G37*
G36*
X2257Y10288D02*
X2267Y10287D01*
X2276Y10285D01*
X2285Y10282D01*
X2293Y10280D01*
X2300Y10276D01*
X2307Y10273D01*
X2313Y10269D01*
X2318Y10265D01*
X2323Y10262D01*
X2327Y10259D01*
X2330Y10256D01*
X2332Y10254D01*
X2334Y10252D01*
X2335Y10250D01*
X2335Y10250D01*
X2341Y10243D01*
X2345Y10235D01*
X2350Y10226D01*
X2353Y10217D01*
X2356Y10208D01*
X2359Y10199D01*
X2361Y10190D01*
X2362Y10181D01*
X2364Y10173D01*
X2365Y10165D01*
X2365Y10158D01*
X2366Y10152D01*
Y10147D01*
X2366Y10144D01*
Y10141D01*
Y10141D01*
Y10140D01*
X2366Y10127D01*
X2365Y10115D01*
X2363Y10103D01*
X2361Y10092D01*
X2359Y10082D01*
X2357Y10074D01*
X2354Y10065D01*
X2351Y10058D01*
X2348Y10052D01*
X2345Y10046D01*
X2342Y10041D01*
X2340Y10037D01*
X2338Y10034D01*
X2337Y10032D01*
X2336Y10030D01*
X2335Y10030D01*
X2329Y10023D01*
X2323Y10017D01*
X2316Y10012D01*
X2308Y10008D01*
X2301Y10005D01*
X2293Y10002D01*
X2286Y9999D01*
X2279Y9997D01*
X2273Y9996D01*
X2266Y9995D01*
X2261Y9994D01*
X2256Y9993D01*
X2251D01*
X2248Y9993D01*
X2246D01*
X2235Y9993D01*
X2225Y9994D01*
X2216Y9996D01*
X2207Y9998D01*
X2199Y10001D01*
X2192Y10005D01*
X2185Y10008D01*
X2179Y10011D01*
X2174Y10015D01*
X2169Y10018D01*
X2165Y10021D01*
X2162Y10024D01*
X2160Y10027D01*
X2158Y10028D01*
X2157Y10030D01*
X2157Y10030D01*
X2151Y10037D01*
X2146Y10046D01*
X2142Y10054D01*
X2139Y10063D01*
X2135Y10072D01*
X2133Y10082D01*
X2131Y10091D01*
X2129Y10099D01*
X2128Y10108D01*
X2127Y10115D01*
X2126Y10122D01*
X2126Y10128D01*
X2125Y10133D01*
Y10137D01*
Y10139D01*
Y10140D01*
X2126Y10153D01*
X2127Y10166D01*
X2128Y10177D01*
X2130Y10188D01*
X2132Y10198D01*
X2135Y10207D01*
X2138Y10215D01*
X2141Y10222D01*
X2144Y10229D01*
X2147Y10234D01*
X2149Y10239D01*
X2152Y10243D01*
X2154Y10246D01*
X2155Y10248D01*
X2156Y10250D01*
X2157Y10250D01*
X2163Y10257D01*
X2169Y10262D01*
X2176Y10268D01*
X2184Y10272D01*
X2191Y10276D01*
X2199Y10279D01*
X2206Y10282D01*
X2213Y10284D01*
X2220Y10285D01*
X2226Y10286D01*
X2231Y10287D01*
X2236Y10288D01*
X2241D01*
X2243Y10288D01*
X2246D01*
X2257Y10288D01*
D02*
G37*
%LPC*%
G36*
X4575Y8884D02*
Y8865D01*
X4566D01*
X4557D01*
Y8874D01*
X4547D01*
X4538D01*
Y8884D01*
X4547D01*
Y8893D01*
X4538D01*
Y8902D01*
X4528D01*
Y8912D01*
X4519D01*
Y8931D01*
X4509D01*
Y8950D01*
X4500D01*
Y8968D01*
X4491D01*
Y8987D01*
X4481D01*
Y8997D01*
X4472D01*
Y9016D01*
X4462D01*
Y9034D01*
X4453D01*
Y9053D01*
X4443D01*
X4434D01*
Y9063D01*
X4443D01*
Y9072D01*
X4434D01*
Y9082D01*
X4425D01*
Y9100D01*
X4415D01*
Y9110D01*
X4406D01*
Y9129D01*
X4396D01*
Y9147D01*
X4387D01*
Y9166D01*
X4377D01*
Y9185D01*
X4368D01*
Y9204D01*
X4359D01*
Y9223D01*
X4349D01*
Y9242D01*
X4340D01*
Y9251D01*
X4330D01*
Y9279D01*
X4321D01*
Y9308D01*
X4311D01*
Y9327D01*
X4302D01*
Y9345D01*
X4293D01*
Y9374D01*
X4283D01*
Y9402D01*
X4274D01*
Y9421D01*
X4264D01*
Y9440D01*
X4255D01*
Y9468D01*
X4246D01*
Y9477D01*
X4236D01*
Y9496D01*
X4227D01*
Y9524D01*
X4236D01*
X4246D01*
Y9515D01*
X4255D01*
Y9506D01*
X4264D01*
Y9487D01*
X4274D01*
Y9468D01*
X4283D01*
Y9449D01*
X4293D01*
Y9430D01*
X4302D01*
Y9421D01*
X4311D01*
Y9393D01*
X4321D01*
Y9383D01*
X4330D01*
Y9355D01*
X4340D01*
Y9336D01*
X4349D01*
Y9327D01*
X4359D01*
Y9308D01*
X4368D01*
Y9298D01*
X4377D01*
Y9270D01*
X4387D01*
Y9261D01*
X4396D01*
Y9232D01*
X4406D01*
Y9213D01*
X4415D01*
Y9195D01*
X4425D01*
Y9176D01*
X4434D01*
Y9157D01*
X4443D01*
Y9147D01*
X4453D01*
Y9119D01*
X4462D01*
Y9110D01*
X4472D01*
Y9082D01*
X4481D01*
Y9072D01*
X4491D01*
Y9044D01*
X4500D01*
Y9025D01*
X4509D01*
Y9006D01*
X4519D01*
Y8978D01*
X4528D01*
Y8959D01*
X4538D01*
Y8940D01*
X4547D01*
Y8931D01*
X4557D01*
Y8902D01*
X4566D01*
Y8884D01*
X4575D01*
D02*
G37*
G36*
X2864Y10141D02*
X2801D01*
Y10131D01*
X2802Y10122D01*
X2803Y10114D01*
X2803Y10107D01*
X2805Y10100D01*
X2807Y10093D01*
X2808Y10087D01*
X2810Y10082D01*
X2813Y10077D01*
X2815Y10072D01*
X2817Y10068D01*
X2819Y10065D01*
X2820Y10062D01*
X2822Y10060D01*
X2823Y10059D01*
X2823Y10058D01*
X2824Y10057D01*
X2828Y10053D01*
X2833Y10049D01*
X2837Y10045D01*
X2842Y10042D01*
X2847Y10040D01*
X2852Y10037D01*
X2862Y10035D01*
X2870Y10032D01*
X2874Y10032D01*
X2877Y10032D01*
X2880Y10031D01*
X2884D01*
X2893Y10032D01*
X2902Y10033D01*
X2909Y10035D01*
X2915Y10038D01*
X2920Y10041D01*
X2923Y10043D01*
X2925Y10045D01*
X2926Y10045D01*
X2931Y10051D01*
X2935Y10057D01*
X2937Y10064D01*
X2939Y10070D01*
X2940Y10076D01*
X2941Y10080D01*
X2941Y10082D01*
Y10083D01*
Y10084D01*
Y10084D01*
X2941Y10089D01*
X2940Y10094D01*
X2938Y10103D01*
X2934Y10110D01*
X2931Y10116D01*
X2927Y10121D01*
X2924Y10124D01*
X2922Y10126D01*
X2921Y10127D01*
X2921D01*
X2917Y10129D01*
X2912Y10132D01*
X2902Y10135D01*
X2892Y10138D01*
X2883Y10140D01*
X2874Y10141D01*
X2870Y10141D01*
X2867D01*
X2864Y10141D01*
D02*
G37*
G36*
X3172Y10249D02*
X3169D01*
X3163Y10249D01*
X3157Y10248D01*
X3147Y10246D01*
X3137Y10243D01*
X3130Y10238D01*
X3125Y10234D01*
X3120Y10231D01*
X3118Y10228D01*
X3117Y10228D01*
Y10228D01*
X3111Y10219D01*
X3106Y10211D01*
X3102Y10202D01*
X3099Y10194D01*
X3097Y10188D01*
X3097Y10185D01*
X3096Y10182D01*
X3096Y10180D01*
X3095Y10178D01*
Y10178D01*
Y10177D01*
X3248D01*
X3247Y10182D01*
X3246Y10187D01*
X3244Y10196D01*
X3239Y10205D01*
X3235Y10212D01*
X3231Y10218D01*
X3229Y10221D01*
X3228Y10223D01*
X3226Y10225D01*
X3225Y10226D01*
X3225Y10226D01*
X3224Y10227D01*
X3220Y10231D01*
X3216Y10234D01*
X3211Y10237D01*
X3207Y10240D01*
X3197Y10244D01*
X3189Y10246D01*
X3181Y10248D01*
X3177Y10248D01*
X3174Y10249D01*
X3172Y10249D01*
D02*
G37*
G36*
X6949Y10334D02*
X6884D01*
X6878Y10333D01*
X6867Y10331D01*
X6858Y10328D01*
X6850Y10324D01*
X6847Y10322D01*
X6844Y10321D01*
X6841Y10319D01*
X6839Y10318D01*
X6838Y10317D01*
X6837Y10316D01*
X6836Y10315D01*
X6836Y10315D01*
X6832Y10311D01*
X6829Y10307D01*
X6824Y10299D01*
X6821Y10290D01*
X6818Y10282D01*
X6817Y10275D01*
X6816Y10271D01*
Y10268D01*
X6816Y10266D01*
Y10265D01*
Y10263D01*
Y10263D01*
X6816Y10257D01*
X6817Y10251D01*
X6819Y10241D01*
X6822Y10232D01*
X6826Y10225D01*
X6829Y10218D01*
X6832Y10214D01*
X6834Y10213D01*
X6835Y10212D01*
X6835Y10211D01*
X6836Y10211D01*
X6839Y10208D01*
X6844Y10205D01*
X6852Y10201D01*
X6861Y10197D01*
X6871Y10195D01*
X6879Y10193D01*
X6882Y10193D01*
X6885D01*
X6887Y10193D01*
X6949D01*
Y10334D01*
D02*
G37*
G36*
X5400D02*
X5334D01*
X5329Y10333D01*
X5317Y10331D01*
X5308Y10328D01*
X5300Y10324D01*
X5297Y10322D01*
X5294Y10321D01*
X5291Y10319D01*
X5290Y10318D01*
X5288Y10317D01*
X5287Y10316D01*
X5286Y10315D01*
X5286Y10315D01*
X5283Y10311D01*
X5279Y10307D01*
X5274Y10299D01*
X5271Y10290D01*
X5269Y10282D01*
X5267Y10275D01*
X5267Y10271D01*
Y10268D01*
X5266Y10266D01*
Y10265D01*
Y10263D01*
Y10263D01*
X5267Y10257D01*
X5267Y10251D01*
X5269Y10241D01*
X5272Y10232D01*
X5276Y10225D01*
X5280Y10218D01*
X5283Y10214D01*
X5284Y10213D01*
X5285Y10212D01*
X5286Y10211D01*
X5286Y10211D01*
X5290Y10208D01*
X5294Y10205D01*
X5303Y10201D01*
X5312Y10197D01*
X5321Y10195D01*
X5329Y10193D01*
X5332Y10193D01*
X5335D01*
X5338Y10193D01*
X5400D01*
Y10334D01*
D02*
G37*
G36*
X3858Y10334D02*
X3792D01*
X3786Y10333D01*
X3780Y10332D01*
X3775Y10332D01*
X3770Y10331D01*
X3766Y10329D01*
X3761Y10328D01*
X3758Y10327D01*
X3755Y10326D01*
X3752Y10325D01*
X3750Y10324D01*
X3748Y10323D01*
X3746Y10321D01*
X3745Y10321D01*
X3740Y10315D01*
X3736Y10309D01*
X3733Y10302D01*
X3731Y10296D01*
X3730Y10290D01*
X3729Y10285D01*
X3729Y10283D01*
Y10281D01*
Y10280D01*
Y10280D01*
X3730Y10272D01*
X3731Y10265D01*
X3734Y10259D01*
X3737Y10254D01*
X3740Y10250D01*
X3743Y10247D01*
X3745Y10245D01*
X3746Y10244D01*
X3749Y10242D01*
X3753Y10240D01*
X3761Y10236D01*
X3770Y10234D01*
X3778Y10232D01*
X3786Y10231D01*
X3790Y10231D01*
X3793D01*
X3796Y10230D01*
X3858D01*
Y10334D01*
D02*
G37*
G36*
Y10189D02*
X3790D01*
X3783Y10188D01*
X3776Y10188D01*
X3770Y10186D01*
X3765Y10185D01*
X3759Y10184D01*
X3755Y10182D01*
X3751Y10181D01*
X3747Y10179D01*
X3744Y10177D01*
X3741Y10176D01*
X3739Y10175D01*
X3738Y10173D01*
X3736Y10173D01*
X3736Y10172D01*
X3736Y10172D01*
X3732Y10168D01*
X3729Y10164D01*
X3726Y10160D01*
X3724Y10155D01*
X3721Y10144D01*
X3718Y10134D01*
X3717Y10128D01*
X3717Y10124D01*
X3716Y10119D01*
Y10115D01*
X3716Y10112D01*
Y10110D01*
Y10108D01*
Y10108D01*
Y10101D01*
X3717Y10095D01*
X3717Y10090D01*
X3719Y10085D01*
X3720Y10080D01*
X3722Y10076D01*
X3724Y10072D01*
X3725Y10069D01*
X3729Y10064D01*
X3732Y10060D01*
X3734Y10058D01*
X3734Y10057D01*
X3735D01*
X3739Y10054D01*
X3743Y10052D01*
X3753Y10048D01*
X3763Y10045D01*
X3773Y10044D01*
X3778Y10043D01*
X3783Y10042D01*
X3787Y10042D01*
X3791D01*
X3793Y10042D01*
X3858D01*
Y10189D01*
D02*
G37*
G36*
X2249Y10249D02*
X2246D01*
X2240Y10249D01*
X2233Y10248D01*
X2228Y10247D01*
X2223Y10245D01*
X2213Y10240D01*
X2206Y10235D01*
X2200Y10230D01*
X2198Y10228D01*
X2196Y10226D01*
X2194Y10224D01*
X2194Y10223D01*
X2193Y10222D01*
Y10222D01*
X2189Y10216D01*
X2186Y10210D01*
X2182Y10198D01*
X2179Y10184D01*
X2176Y10171D01*
X2176Y10164D01*
X2175Y10159D01*
X2175Y10153D01*
Y10149D01*
X2174Y10145D01*
Y10143D01*
Y10141D01*
Y10140D01*
Y10131D01*
X2175Y10121D01*
X2176Y10113D01*
X2177Y10105D01*
X2179Y10098D01*
X2180Y10091D01*
X2182Y10085D01*
X2184Y10079D01*
X2185Y10075D01*
X2187Y10071D01*
X2189Y10067D01*
X2190Y10064D01*
X2191Y10062D01*
X2192Y10060D01*
X2192Y10059D01*
X2193Y10059D01*
X2196Y10054D01*
X2200Y10050D01*
X2204Y10046D01*
X2209Y10043D01*
X2213Y10040D01*
X2217Y10038D01*
X2226Y10035D01*
X2234Y10033D01*
X2237Y10032D01*
X2240Y10032D01*
X2243Y10032D01*
X2246D01*
X2252Y10032D01*
X2258Y10033D01*
X2264Y10034D01*
X2269Y10036D01*
X2278Y10040D01*
X2286Y10045D01*
X2292Y10050D01*
X2294Y10053D01*
X2296Y10055D01*
X2297Y10057D01*
X2298Y10058D01*
X2299Y10059D01*
X2299Y10059D01*
X2303Y10064D01*
X2305Y10070D01*
X2310Y10083D01*
X2313Y10097D01*
X2315Y10110D01*
X2315Y10116D01*
X2316Y10122D01*
X2317Y10127D01*
Y10131D01*
X2317Y10135D01*
Y10138D01*
Y10140D01*
Y10140D01*
X2317Y10150D01*
X2316Y10159D01*
X2315Y10168D01*
X2314Y10176D01*
X2313Y10183D01*
X2311Y10190D01*
X2310Y10196D01*
X2308Y10201D01*
X2306Y10206D01*
X2305Y10210D01*
X2303Y10214D01*
X2302Y10217D01*
X2301Y10219D01*
X2300Y10220D01*
X2299Y10221D01*
Y10222D01*
X2295Y10227D01*
X2292Y10231D01*
X2288Y10235D01*
X2283Y10238D01*
X2279Y10240D01*
X2275Y10243D01*
X2266Y10246D01*
X2258Y10248D01*
X2255Y10248D01*
X2252Y10249D01*
X2249Y10249D01*
D02*
G37*
%LPD*%
D21*
X2300Y2500D02*
Y7500D01*
X300D02*
X2300D01*
X300Y2500D02*
Y7500D01*
Y2500D02*
X2300D01*
M02*
