G04*
G04 #@! TF.GenerationSoftware,Altium Limited,Altium Designer,18.1.7 (191)*
G04*
G04 Layer_Physical_Order=2*
G04 Layer_Color=16711680*
%FSLAX24Y24*%
%MOIN*%
G70*
G01*
G75*
%ADD14C,0.0150*%
%ADD16O,0.0787X0.1181*%
%ADD17O,0.3937X0.0984*%
%ADD18C,0.0591*%
%ADD19C,0.0300*%
%ADD20C,0.0200*%
D14*
X2300Y3800D02*
G03*
X2100Y4000I-200J0D01*
G01*
X6800Y7400D02*
G03*
X6600Y7600I-200J0D01*
G01*
X2000D02*
G03*
X1800Y7400I0J-200D01*
G01*
X6000Y7000D02*
G03*
X5800Y7200I-200J0D01*
G01*
X6000Y4600D02*
G03*
X6200Y4400I200J0D01*
G01*
X2800Y7200D02*
G03*
X2600Y7000I0J-200D01*
G01*
X2400Y6500D02*
G03*
X2600Y6700I0J200D01*
G01*
X800D02*
G03*
X1000Y6500I200J0D01*
G01*
X5600Y6600D02*
G03*
X5400Y6800I-200J0D01*
G01*
X5600Y3000D02*
G03*
X5800Y2800I200J0D01*
G01*
X3200Y6800D02*
G03*
X3000Y6600I0J-200D01*
G01*
X2800Y6000D02*
G03*
X3000Y6200I0J200D01*
G01*
X4800Y4400D02*
G03*
X4700Y4500I-100J0D01*
G01*
X800Y4700D02*
G03*
X1000Y4500I200J0D01*
G01*
X3500Y6000D02*
G03*
X3300Y5800I0J-200D01*
G01*
X3100Y5000D02*
G03*
X3300Y5200I0J200D01*
G01*
X1800Y4000D02*
X2100D01*
X2300Y2100D02*
Y3800D01*
X6800Y6000D02*
Y7400D01*
X2000Y7600D02*
X6600D01*
X1800Y7000D02*
Y7400D01*
X2800Y7200D02*
X5800D01*
X6200Y4400D02*
X6800D01*
X6000Y4600D02*
Y7000D01*
X2600Y6700D02*
Y7000D01*
X1000Y6500D02*
X2400D01*
X800Y6700D02*
Y7000D01*
X5800Y2800D02*
X6800D01*
X5600Y3000D02*
Y6600D01*
X3200Y6800D02*
X5400D01*
X3000Y6200D02*
Y6600D01*
X1800Y6000D02*
X2800D01*
X2700Y2800D02*
X4800D01*
X1000Y4500D02*
X4700D01*
X800Y4700D02*
Y5000D01*
X3500Y6000D02*
X4800D01*
X3300Y5200D02*
Y5800D01*
X1800Y5000D02*
X3100D01*
D16*
X4800Y6000D02*
D03*
X6800D02*
D03*
Y4400D02*
D03*
X4800D02*
D03*
Y2800D02*
D03*
X6800D02*
D03*
D17*
X5800Y1189D02*
D03*
D18*
X800Y3000D02*
D03*
Y4000D02*
D03*
Y5000D02*
D03*
Y6000D02*
D03*
Y7000D02*
D03*
X1800D02*
D03*
Y6000D02*
D03*
Y5000D02*
D03*
Y4000D02*
D03*
Y3000D02*
D03*
D19*
X2700Y2800D02*
D03*
X2300Y2100D02*
D03*
D20*
X1800Y1389D02*
G03*
X2000Y1189I200J0D01*
G01*
X5800D01*
X1800Y1389D02*
Y3000D01*
M02*
