G04*
G04 #@! TF.GenerationSoftware,Altium Limited,Altium Designer,18.1.7 (191)*
G04*
G04 Layer_Physical_Order=1*
G04 Layer_Color=255*
%FSLAX24Y24*%
%MOIN*%
G70*
G01*
G75*
%ADD14C,0.0150*%
G04:AMPARAMS|DCode=15|XSize=118.1mil|YSize=157.5mil|CornerRadius=14.8mil|HoleSize=0mil|Usage=FLASHONLY|Rotation=0.000|XOffset=0mil|YOffset=0mil|HoleType=Round|Shape=RoundedRectangle|*
%AMROUNDEDRECTD15*
21,1,0.1181,0.1280,0,0,0.0*
21,1,0.0886,0.1575,0,0,0.0*
1,1,0.0295,0.0443,-0.0640*
1,1,0.0295,-0.0443,-0.0640*
1,1,0.0295,-0.0443,0.0640*
1,1,0.0295,0.0443,0.0640*
%
%ADD15ROUNDEDRECTD15*%
%ADD16O,0.0787X0.1181*%
%ADD17O,0.3937X0.0984*%
%ADD18C,0.0591*%
%ADD19C,0.0300*%
D14*
X1300Y3800D02*
G03*
X1100Y4000I-200J0D01*
G01*
X2900Y2500D02*
G03*
X3100Y2700I0J200D01*
G01*
X1300D02*
G03*
X1500Y2500I200J0D01*
G01*
X800Y1900D02*
G03*
X1000Y1700I200J0D01*
G01*
X4100Y7700D02*
G03*
X3900Y7500I0J-200D01*
G01*
X3700Y1700D02*
G03*
X3900Y1900I0J200D01*
G01*
X7600Y7700D02*
G03*
X7800Y7900I0J200D01*
G01*
X3300Y2100D02*
G03*
X3500Y2300I0J200D01*
G01*
X3700Y8100D02*
G03*
X3500Y7900I0J-200D01*
G01*
X5600Y8100D02*
G03*
X5800Y8300I0J200D01*
G01*
X3300Y8500D02*
G03*
X3100Y8300I0J-200D01*
G01*
X3600Y8500D02*
G03*
X3800Y8700I0J200D01*
G01*
X2700Y5300D02*
G03*
X2500Y5500I-200J0D01*
G01*
X800Y5700D02*
G03*
X1000Y5500I200J0D01*
G01*
X800Y4000D02*
X1100D01*
X1500Y2500D02*
X2900D01*
X1300Y2700D02*
Y3800D01*
X1000Y1700D02*
X3700D01*
X800Y1900D02*
Y3000D01*
X4100Y7700D02*
X7600D01*
X3900Y1900D02*
Y7500D01*
X2300Y2100D02*
X3300D01*
X3700Y8100D02*
X5600D01*
X3500Y2300D02*
Y7900D01*
X3100Y2700D02*
Y8300D01*
X3300Y8500D02*
X3600D01*
X3800Y8700D02*
Y9600D01*
X5800Y8300D02*
Y9600D01*
X2700Y2800D02*
Y5300D01*
X1000Y5500D02*
X2500D01*
X800Y5700D02*
Y6000D01*
X7800Y7900D02*
Y9600D01*
D15*
X3800D02*
D03*
X5800D02*
D03*
X7800D02*
D03*
D16*
X4800Y6000D02*
D03*
X6800D02*
D03*
Y4400D02*
D03*
X4800D02*
D03*
Y2800D02*
D03*
X6800D02*
D03*
D17*
X5800Y1189D02*
D03*
D18*
X800Y3000D02*
D03*
Y4000D02*
D03*
Y5000D02*
D03*
Y6000D02*
D03*
Y7000D02*
D03*
X1800D02*
D03*
Y6000D02*
D03*
Y5000D02*
D03*
Y4000D02*
D03*
Y3000D02*
D03*
D19*
X2700Y2800D02*
D03*
X2300Y2100D02*
D03*
M02*
