G04*
G04 #@! TF.GenerationSoftware,Altium Limited,Altium Designer,18.1.7 (191)*
G04*
G04 Layer_Color=8388736*
%FSLAX24Y24*%
%MOIN*%
G70*
G01*
G75*
G04:AMPARAMS|DCode=10|XSize=126.1mil|YSize=165.5mil|CornerRadius=18.8mil|HoleSize=0mil|Usage=FLASHONLY|Rotation=0.000|XOffset=0mil|YOffset=0mil|HoleType=Round|Shape=RoundedRectangle|*
%AMROUNDEDRECTD10*
21,1,0.1261,0.1280,0,0,0.0*
21,1,0.0886,0.1655,0,0,0.0*
1,1,0.0375,0.0443,-0.0640*
1,1,0.0375,-0.0443,-0.0640*
1,1,0.0375,-0.0443,0.0640*
1,1,0.0375,0.0443,0.0640*
%
%ADD10ROUNDEDRECTD10*%
%ADD11O,0.0867X0.1261*%
%ADD12O,0.4017X0.1064*%
%ADD13C,0.0671*%
D10*
X3800Y9600D02*
D03*
X5800D02*
D03*
X7800D02*
D03*
D11*
X4800Y6000D02*
D03*
X6800D02*
D03*
Y4400D02*
D03*
X4800D02*
D03*
Y2800D02*
D03*
X6800D02*
D03*
D12*
X5800Y1189D02*
D03*
D13*
X800Y3000D02*
D03*
Y4000D02*
D03*
Y5000D02*
D03*
Y6000D02*
D03*
Y7000D02*
D03*
X1800D02*
D03*
Y6000D02*
D03*
Y5000D02*
D03*
Y4000D02*
D03*
Y3000D02*
D03*
M02*
